<?xml version="1.0" encoding="utf-8" standalone="no"?>
<!DOCTYPE svg PUBLIC "-//W3C//DTD SVG 1.1//EN"
  "http://www.w3.org/Graphics/SVG/1.1/DTD/svg11.dtd">
<!-- Created with matplotlib (https://matplotlib.org/) -->
<svg height="216pt" version="1.1" viewBox="0 0 504 216" width="504pt" xmlns="http://www.w3.org/2000/svg" xmlns:xlink="http://www.w3.org/1999/xlink">
 <metadata>
  <rdf:RDF xmlns:cc="http://creativecommons.org/ns#" xmlns:dc="http://purl.org/dc/elements/1.1/" xmlns:rdf="http://www.w3.org/1999/02/22-rdf-syntax-ns#">
   <cc:Work>
    <dc:type rdf:resource="http://purl.org/dc/dcmitype/StillImage"/>
    <dc:date>2021-11-26T09:53:01.977042</dc:date>
    <dc:format>image/svg+xml</dc:format>
    <dc:creator>
     <cc:Agent>
      <dc:title>Matplotlib v3.3.4, https://matplotlib.org/</dc:title>
     </cc:Agent>
    </dc:creator>
   </cc:Work>
  </rdf:RDF>
 </metadata>
 <defs>
  <style type="text/css">*{stroke-linecap:butt;stroke-linejoin:round;}</style>
 </defs>
 <g id="figure_1">
  <g id="patch_1">
   <path d="M 0 216 
L 504 216 
L 504 0 
L 0 0 
z
" style="fill:#ffffff;"/>
  </g>
  <g id="axes_1">
   <g id="patch_2">
    <path d="M 63 192.24 
L 453.6 192.24 
L 453.6 25.92 
L 63 25.92 
z
" style="fill:#ffffff;"/>
   </g>
   <g id="matplotlib.axis_1">
    <g id="xtick_1">
     <g id="line2d_1">
      <defs>
       <path d="M 0 0 
L 0 3.5 
" id="m14dac77dd6" style="stroke:#000000;stroke-width:0.8;"/>
      </defs>
      <g>
       <use style="stroke:#000000;stroke-width:0.8;" x="81.346364" xlink:href="#m14dac77dd6" y="192.24"/>
      </g>
     </g>
     <g id="text_1">
      <!-- 200 -->
      <g transform="translate(71.802614 206.838437)scale(0.1 -0.1)">
       <defs>
        <path d="M 19.1875 8.296875 
L 53.609375 8.296875 
L 53.609375 0 
L 7.328125 0 
L 7.328125 8.296875 
Q 12.9375 14.109375 22.625 23.890625 
Q 32.328125 33.6875 34.8125 36.53125 
Q 39.546875 41.84375 41.421875 45.53125 
Q 43.3125 49.21875 43.3125 52.78125 
Q 43.3125 58.59375 39.234375 62.25 
Q 35.15625 65.921875 28.609375 65.921875 
Q 23.96875 65.921875 18.8125 64.3125 
Q 13.671875 62.703125 7.8125 59.421875 
L 7.8125 69.390625 
Q 13.765625 71.78125 18.9375 73 
Q 24.125 74.21875 28.421875 74.21875 
Q 39.75 74.21875 46.484375 68.546875 
Q 53.21875 62.890625 53.21875 53.421875 
Q 53.21875 48.921875 51.53125 44.890625 
Q 49.859375 40.875 45.40625 35.40625 
Q 44.1875 33.984375 37.640625 27.21875 
Q 31.109375 20.453125 19.1875 8.296875 
z
" id="DejaVuSans-50"/>
        <path d="M 31.78125 66.40625 
Q 24.171875 66.40625 20.328125 58.90625 
Q 16.5 51.421875 16.5 36.375 
Q 16.5 21.390625 20.328125 13.890625 
Q 24.171875 6.390625 31.78125 6.390625 
Q 39.453125 6.390625 43.28125 13.890625 
Q 47.125 21.390625 47.125 36.375 
Q 47.125 51.421875 43.28125 58.90625 
Q 39.453125 66.40625 31.78125 66.40625 
z
M 31.78125 74.21875 
Q 44.046875 74.21875 50.515625 64.515625 
Q 56.984375 54.828125 56.984375 36.375 
Q 56.984375 17.96875 50.515625 8.265625 
Q 44.046875 -1.421875 31.78125 -1.421875 
Q 19.53125 -1.421875 13.0625 8.265625 
Q 6.59375 17.96875 6.59375 36.375 
Q 6.59375 54.828125 13.0625 64.515625 
Q 19.53125 74.21875 31.78125 74.21875 
z
" id="DejaVuSans-48"/>
       </defs>
       <use xlink:href="#DejaVuSans-50"/>
       <use x="63.623047" xlink:href="#DejaVuSans-48"/>
       <use x="127.246094" xlink:href="#DejaVuSans-48"/>
      </g>
     </g>
    </g>
    <g id="xtick_2">
     <g id="line2d_2">
      <g>
       <use style="stroke:#000000;stroke-width:0.8;" x="140.528182" xlink:href="#m14dac77dd6" y="192.24"/>
      </g>
     </g>
     <g id="text_2">
      <!-- 300 -->
      <g transform="translate(130.984432 206.838437)scale(0.1 -0.1)">
       <defs>
        <path d="M 40.578125 39.3125 
Q 47.65625 37.796875 51.625 33 
Q 55.609375 28.21875 55.609375 21.1875 
Q 55.609375 10.40625 48.1875 4.484375 
Q 40.765625 -1.421875 27.09375 -1.421875 
Q 22.515625 -1.421875 17.65625 -0.515625 
Q 12.796875 0.390625 7.625 2.203125 
L 7.625 11.71875 
Q 11.71875 9.328125 16.59375 8.109375 
Q 21.484375 6.890625 26.8125 6.890625 
Q 36.078125 6.890625 40.9375 10.546875 
Q 45.796875 14.203125 45.796875 21.1875 
Q 45.796875 27.640625 41.28125 31.265625 
Q 36.765625 34.90625 28.71875 34.90625 
L 20.21875 34.90625 
L 20.21875 43.015625 
L 29.109375 43.015625 
Q 36.375 43.015625 40.234375 45.921875 
Q 44.09375 48.828125 44.09375 54.296875 
Q 44.09375 59.90625 40.109375 62.90625 
Q 36.140625 65.921875 28.71875 65.921875 
Q 24.65625 65.921875 20.015625 65.03125 
Q 15.375 64.15625 9.8125 62.3125 
L 9.8125 71.09375 
Q 15.4375 72.65625 20.34375 73.4375 
Q 25.25 74.21875 29.59375 74.21875 
Q 40.828125 74.21875 47.359375 69.109375 
Q 53.90625 64.015625 53.90625 55.328125 
Q 53.90625 49.265625 50.4375 45.09375 
Q 46.96875 40.921875 40.578125 39.3125 
z
" id="DejaVuSans-51"/>
       </defs>
       <use xlink:href="#DejaVuSans-51"/>
       <use x="63.623047" xlink:href="#DejaVuSans-48"/>
       <use x="127.246094" xlink:href="#DejaVuSans-48"/>
      </g>
     </g>
    </g>
    <g id="xtick_3">
     <g id="line2d_3">
      <g>
       <use style="stroke:#000000;stroke-width:0.8;" x="199.71" xlink:href="#m14dac77dd6" y="192.24"/>
      </g>
     </g>
     <g id="text_3">
      <!-- 400 -->
      <g transform="translate(190.16625 206.838437)scale(0.1 -0.1)">
       <defs>
        <path d="M 37.796875 64.3125 
L 12.890625 25.390625 
L 37.796875 25.390625 
z
M 35.203125 72.90625 
L 47.609375 72.90625 
L 47.609375 25.390625 
L 58.015625 25.390625 
L 58.015625 17.1875 
L 47.609375 17.1875 
L 47.609375 0 
L 37.796875 0 
L 37.796875 17.1875 
L 4.890625 17.1875 
L 4.890625 26.703125 
z
" id="DejaVuSans-52"/>
       </defs>
       <use xlink:href="#DejaVuSans-52"/>
       <use x="63.623047" xlink:href="#DejaVuSans-48"/>
       <use x="127.246094" xlink:href="#DejaVuSans-48"/>
      </g>
     </g>
    </g>
    <g id="xtick_4">
     <g id="line2d_4">
      <g>
       <use style="stroke:#000000;stroke-width:0.8;" x="258.891818" xlink:href="#m14dac77dd6" y="192.24"/>
      </g>
     </g>
     <g id="text_4">
      <!-- 500 -->
      <g transform="translate(249.348068 206.838437)scale(0.1 -0.1)">
       <defs>
        <path d="M 10.796875 72.90625 
L 49.515625 72.90625 
L 49.515625 64.59375 
L 19.828125 64.59375 
L 19.828125 46.734375 
Q 21.96875 47.46875 24.109375 47.828125 
Q 26.265625 48.1875 28.421875 48.1875 
Q 40.625 48.1875 47.75 41.5 
Q 54.890625 34.8125 54.890625 23.390625 
Q 54.890625 11.625 47.5625 5.09375 
Q 40.234375 -1.421875 26.90625 -1.421875 
Q 22.3125 -1.421875 17.546875 -0.640625 
Q 12.796875 0.140625 7.71875 1.703125 
L 7.71875 11.625 
Q 12.109375 9.234375 16.796875 8.0625 
Q 21.484375 6.890625 26.703125 6.890625 
Q 35.15625 6.890625 40.078125 11.328125 
Q 45.015625 15.765625 45.015625 23.390625 
Q 45.015625 31 40.078125 35.4375 
Q 35.15625 39.890625 26.703125 39.890625 
Q 22.75 39.890625 18.8125 39.015625 
Q 14.890625 38.140625 10.796875 36.28125 
z
" id="DejaVuSans-53"/>
       </defs>
       <use xlink:href="#DejaVuSans-53"/>
       <use x="63.623047" xlink:href="#DejaVuSans-48"/>
       <use x="127.246094" xlink:href="#DejaVuSans-48"/>
      </g>
     </g>
    </g>
    <g id="xtick_5">
     <g id="line2d_5">
      <g>
       <use style="stroke:#000000;stroke-width:0.8;" x="318.073636" xlink:href="#m14dac77dd6" y="192.24"/>
      </g>
     </g>
     <g id="text_5">
      <!-- 600 -->
      <g transform="translate(308.529886 206.838437)scale(0.1 -0.1)">
       <defs>
        <path d="M 33.015625 40.375 
Q 26.375 40.375 22.484375 35.828125 
Q 18.609375 31.296875 18.609375 23.390625 
Q 18.609375 15.53125 22.484375 10.953125 
Q 26.375 6.390625 33.015625 6.390625 
Q 39.65625 6.390625 43.53125 10.953125 
Q 47.40625 15.53125 47.40625 23.390625 
Q 47.40625 31.296875 43.53125 35.828125 
Q 39.65625 40.375 33.015625 40.375 
z
M 52.59375 71.296875 
L 52.59375 62.3125 
Q 48.875 64.0625 45.09375 64.984375 
Q 41.3125 65.921875 37.59375 65.921875 
Q 27.828125 65.921875 22.671875 59.328125 
Q 17.53125 52.734375 16.796875 39.40625 
Q 19.671875 43.65625 24.015625 45.921875 
Q 28.375 48.1875 33.59375 48.1875 
Q 44.578125 48.1875 50.953125 41.515625 
Q 57.328125 34.859375 57.328125 23.390625 
Q 57.328125 12.15625 50.6875 5.359375 
Q 44.046875 -1.421875 33.015625 -1.421875 
Q 20.359375 -1.421875 13.671875 8.265625 
Q 6.984375 17.96875 6.984375 36.375 
Q 6.984375 53.65625 15.1875 63.9375 
Q 23.390625 74.21875 37.203125 74.21875 
Q 40.921875 74.21875 44.703125 73.484375 
Q 48.484375 72.75 52.59375 71.296875 
z
" id="DejaVuSans-54"/>
       </defs>
       <use xlink:href="#DejaVuSans-54"/>
       <use x="63.623047" xlink:href="#DejaVuSans-48"/>
       <use x="127.246094" xlink:href="#DejaVuSans-48"/>
      </g>
     </g>
    </g>
    <g id="xtick_6">
     <g id="line2d_6">
      <g>
       <use style="stroke:#000000;stroke-width:0.8;" x="377.255455" xlink:href="#m14dac77dd6" y="192.24"/>
      </g>
     </g>
     <g id="text_6">
      <!-- 700 -->
      <g transform="translate(367.711705 206.838437)scale(0.1 -0.1)">
       <defs>
        <path d="M 8.203125 72.90625 
L 55.078125 72.90625 
L 55.078125 68.703125 
L 28.609375 0 
L 18.3125 0 
L 43.21875 64.59375 
L 8.203125 64.59375 
z
" id="DejaVuSans-55"/>
       </defs>
       <use xlink:href="#DejaVuSans-55"/>
       <use x="63.623047" xlink:href="#DejaVuSans-48"/>
       <use x="127.246094" xlink:href="#DejaVuSans-48"/>
      </g>
     </g>
    </g>
    <g id="xtick_7">
     <g id="line2d_7">
      <g>
       <use style="stroke:#000000;stroke-width:0.8;" x="436.437273" xlink:href="#m14dac77dd6" y="192.24"/>
      </g>
     </g>
     <g id="text_7">
      <!-- 800 -->
      <g transform="translate(426.893523 206.838437)scale(0.1 -0.1)">
       <defs>
        <path d="M 31.78125 34.625 
Q 24.75 34.625 20.71875 30.859375 
Q 16.703125 27.09375 16.703125 20.515625 
Q 16.703125 13.921875 20.71875 10.15625 
Q 24.75 6.390625 31.78125 6.390625 
Q 38.8125 6.390625 42.859375 10.171875 
Q 46.921875 13.96875 46.921875 20.515625 
Q 46.921875 27.09375 42.890625 30.859375 
Q 38.875 34.625 31.78125 34.625 
z
M 21.921875 38.8125 
Q 15.578125 40.375 12.03125 44.71875 
Q 8.5 49.078125 8.5 55.328125 
Q 8.5 64.0625 14.71875 69.140625 
Q 20.953125 74.21875 31.78125 74.21875 
Q 42.671875 74.21875 48.875 69.140625 
Q 55.078125 64.0625 55.078125 55.328125 
Q 55.078125 49.078125 51.53125 44.71875 
Q 48 40.375 41.703125 38.8125 
Q 48.828125 37.15625 52.796875 32.3125 
Q 56.78125 27.484375 56.78125 20.515625 
Q 56.78125 9.90625 50.3125 4.234375 
Q 43.84375 -1.421875 31.78125 -1.421875 
Q 19.734375 -1.421875 13.25 4.234375 
Q 6.78125 9.90625 6.78125 20.515625 
Q 6.78125 27.484375 10.78125 32.3125 
Q 14.796875 37.15625 21.921875 38.8125 
z
M 18.3125 54.390625 
Q 18.3125 48.734375 21.84375 45.5625 
Q 25.390625 42.390625 31.78125 42.390625 
Q 38.140625 42.390625 41.71875 45.5625 
Q 45.3125 48.734375 45.3125 54.390625 
Q 45.3125 60.0625 41.71875 63.234375 
Q 38.140625 66.40625 31.78125 66.40625 
Q 25.390625 66.40625 21.84375 63.234375 
Q 18.3125 60.0625 18.3125 54.390625 
z
" id="DejaVuSans-56"/>
       </defs>
       <use xlink:href="#DejaVuSans-56"/>
       <use x="63.623047" xlink:href="#DejaVuSans-48"/>
       <use x="127.246094" xlink:href="#DejaVuSans-48"/>
      </g>
     </g>
    </g>
    <g id="text_8">
     <!-- time -->
     <g transform="translate(247.003906 220.516562)scale(0.1 -0.1)">
      <defs>
       <path d="M 18.3125 70.21875 
L 18.3125 54.6875 
L 36.8125 54.6875 
L 36.8125 47.703125 
L 18.3125 47.703125 
L 18.3125 18.015625 
Q 18.3125 11.328125 20.140625 9.421875 
Q 21.96875 7.515625 27.59375 7.515625 
L 36.8125 7.515625 
L 36.8125 0 
L 27.59375 0 
Q 17.1875 0 13.234375 3.875 
Q 9.28125 7.765625 9.28125 18.015625 
L 9.28125 47.703125 
L 2.6875 47.703125 
L 2.6875 54.6875 
L 9.28125 54.6875 
L 9.28125 70.21875 
z
" id="DejaVuSans-116"/>
       <path d="M 9.421875 54.6875 
L 18.40625 54.6875 
L 18.40625 0 
L 9.421875 0 
z
M 9.421875 75.984375 
L 18.40625 75.984375 
L 18.40625 64.59375 
L 9.421875 64.59375 
z
" id="DejaVuSans-105"/>
       <path d="M 52 44.1875 
Q 55.375 50.25 60.0625 53.125 
Q 64.75 56 71.09375 56 
Q 79.640625 56 84.28125 50.015625 
Q 88.921875 44.046875 88.921875 33.015625 
L 88.921875 0 
L 79.890625 0 
L 79.890625 32.71875 
Q 79.890625 40.578125 77.09375 44.375 
Q 74.3125 48.1875 68.609375 48.1875 
Q 61.625 48.1875 57.5625 43.546875 
Q 53.515625 38.921875 53.515625 30.90625 
L 53.515625 0 
L 44.484375 0 
L 44.484375 32.71875 
Q 44.484375 40.625 41.703125 44.40625 
Q 38.921875 48.1875 33.109375 48.1875 
Q 26.21875 48.1875 22.15625 43.53125 
Q 18.109375 38.875 18.109375 30.90625 
L 18.109375 0 
L 9.078125 0 
L 9.078125 54.6875 
L 18.109375 54.6875 
L 18.109375 46.1875 
Q 21.1875 51.21875 25.484375 53.609375 
Q 29.78125 56 35.6875 56 
Q 41.65625 56 45.828125 52.96875 
Q 50 49.953125 52 44.1875 
z
" id="DejaVuSans-109"/>
       <path d="M 56.203125 29.59375 
L 56.203125 25.203125 
L 14.890625 25.203125 
Q 15.484375 15.921875 20.484375 11.0625 
Q 25.484375 6.203125 34.421875 6.203125 
Q 39.59375 6.203125 44.453125 7.46875 
Q 49.3125 8.734375 54.109375 11.28125 
L 54.109375 2.78125 
Q 49.265625 0.734375 44.1875 -0.34375 
Q 39.109375 -1.421875 33.890625 -1.421875 
Q 20.796875 -1.421875 13.15625 6.1875 
Q 5.515625 13.8125 5.515625 26.8125 
Q 5.515625 40.234375 12.765625 48.109375 
Q 20.015625 56 32.328125 56 
Q 43.359375 56 49.78125 48.890625 
Q 56.203125 41.796875 56.203125 29.59375 
z
M 47.21875 32.234375 
Q 47.125 39.59375 43.09375 43.984375 
Q 39.0625 48.390625 32.421875 48.390625 
Q 24.90625 48.390625 20.390625 44.140625 
Q 15.875 39.890625 15.1875 32.171875 
z
" id="DejaVuSans-101"/>
      </defs>
      <use xlink:href="#DejaVuSans-116"/>
      <use x="39.208984" xlink:href="#DejaVuSans-105"/>
      <use x="66.992188" xlink:href="#DejaVuSans-109"/>
      <use x="164.404297" xlink:href="#DejaVuSans-101"/>
     </g>
    </g>
   </g>
   <g id="matplotlib.axis_2">
    <g id="ytick_1">
     <g id="line2d_8">
      <defs>
       <path d="M 0 0 
L -3.5 0 
" id="made49a7d7d" style="stroke:#000000;stroke-width:0.8;"/>
      </defs>
      <g>
       <use style="stroke:#000000;stroke-width:0.8;" x="63" xlink:href="#made49a7d7d" y="192.24"/>
      </g>
     </g>
     <g id="text_9">
      <!-- 0.0 -->
      <g transform="translate(40.096875 196.039219)scale(0.1 -0.1)">
       <defs>
        <path d="M 10.6875 12.40625 
L 21 12.40625 
L 21 0 
L 10.6875 0 
z
" id="DejaVuSans-46"/>
       </defs>
       <use xlink:href="#DejaVuSans-48"/>
       <use x="63.623047" xlink:href="#DejaVuSans-46"/>
       <use x="95.410156" xlink:href="#DejaVuSans-48"/>
      </g>
     </g>
    </g>
    <g id="ytick_2">
     <g id="line2d_9">
      <g>
       <use style="stroke:#000000;stroke-width:0.8;" x="63" xlink:href="#made49a7d7d" y="155.28"/>
      </g>
     </g>
     <g id="text_10">
      <!-- 0.1 -->
      <g transform="translate(40.096875 159.079219)scale(0.1 -0.1)">
       <defs>
        <path d="M 12.40625 8.296875 
L 28.515625 8.296875 
L 28.515625 63.921875 
L 10.984375 60.40625 
L 10.984375 69.390625 
L 28.421875 72.90625 
L 38.28125 72.90625 
L 38.28125 8.296875 
L 54.390625 8.296875 
L 54.390625 0 
L 12.40625 0 
z
" id="DejaVuSans-49"/>
       </defs>
       <use xlink:href="#DejaVuSans-48"/>
       <use x="63.623047" xlink:href="#DejaVuSans-46"/>
       <use x="95.410156" xlink:href="#DejaVuSans-49"/>
      </g>
     </g>
    </g>
    <g id="ytick_3">
     <g id="line2d_10">
      <g>
       <use style="stroke:#000000;stroke-width:0.8;" x="63" xlink:href="#made49a7d7d" y="118.32"/>
      </g>
     </g>
     <g id="text_11">
      <!-- 0.2 -->
      <g transform="translate(40.096875 122.119219)scale(0.1 -0.1)">
       <use xlink:href="#DejaVuSans-48"/>
       <use x="63.623047" xlink:href="#DejaVuSans-46"/>
       <use x="95.410156" xlink:href="#DejaVuSans-50"/>
      </g>
     </g>
    </g>
    <g id="ytick_4">
     <g id="line2d_11">
      <g>
       <use style="stroke:#000000;stroke-width:0.8;" x="63" xlink:href="#made49a7d7d" y="81.36"/>
      </g>
     </g>
     <g id="text_12">
      <!-- 0.3 -->
      <g transform="translate(40.096875 85.159219)scale(0.1 -0.1)">
       <use xlink:href="#DejaVuSans-48"/>
       <use x="63.623047" xlink:href="#DejaVuSans-46"/>
       <use x="95.410156" xlink:href="#DejaVuSans-51"/>
      </g>
     </g>
    </g>
    <g id="ytick_5">
     <g id="line2d_12">
      <g>
       <use style="stroke:#000000;stroke-width:0.8;" x="63" xlink:href="#made49a7d7d" y="44.4"/>
      </g>
     </g>
     <g id="text_13">
      <!-- 0.4 -->
      <g transform="translate(40.096875 48.199219)scale(0.1 -0.1)">
       <use xlink:href="#DejaVuSans-48"/>
       <use x="63.623047" xlink:href="#DejaVuSans-46"/>
       <use x="95.410156" xlink:href="#DejaVuSans-52"/>
      </g>
     </g>
    </g>
    <g id="text_14">
     <!-- BGSD -->
     <g transform="translate(34.017187 123.321406)rotate(-90)scale(0.1 -0.1)">
      <defs>
       <path d="M 19.671875 34.8125 
L 19.671875 8.109375 
L 35.5 8.109375 
Q 43.453125 8.109375 47.28125 11.40625 
Q 51.125 14.703125 51.125 21.484375 
Q 51.125 28.328125 47.28125 31.5625 
Q 43.453125 34.8125 35.5 34.8125 
z
M 19.671875 64.796875 
L 19.671875 42.828125 
L 34.28125 42.828125 
Q 41.5 42.828125 45.03125 45.53125 
Q 48.578125 48.25 48.578125 53.8125 
Q 48.578125 59.328125 45.03125 62.0625 
Q 41.5 64.796875 34.28125 64.796875 
z
M 9.8125 72.90625 
L 35.015625 72.90625 
Q 46.296875 72.90625 52.390625 68.21875 
Q 58.5 63.53125 58.5 54.890625 
Q 58.5 48.1875 55.375 44.234375 
Q 52.25 40.28125 46.1875 39.3125 
Q 53.46875 37.75 57.5 32.78125 
Q 61.53125 27.828125 61.53125 20.40625 
Q 61.53125 10.640625 54.890625 5.3125 
Q 48.25 0 35.984375 0 
L 9.8125 0 
z
" id="DejaVuSans-66"/>
       <path d="M 59.515625 10.40625 
L 59.515625 29.984375 
L 43.40625 29.984375 
L 43.40625 38.09375 
L 69.28125 38.09375 
L 69.28125 6.78125 
Q 63.578125 2.734375 56.6875 0.65625 
Q 49.8125 -1.421875 42 -1.421875 
Q 24.90625 -1.421875 15.25 8.5625 
Q 5.609375 18.5625 5.609375 36.375 
Q 5.609375 54.25 15.25 64.234375 
Q 24.90625 74.21875 42 74.21875 
Q 49.125 74.21875 55.546875 72.453125 
Q 61.96875 70.703125 67.390625 67.28125 
L 67.390625 56.78125 
Q 61.921875 61.421875 55.765625 63.765625 
Q 49.609375 66.109375 42.828125 66.109375 
Q 29.4375 66.109375 22.71875 58.640625 
Q 16.015625 51.171875 16.015625 36.375 
Q 16.015625 21.625 22.71875 14.15625 
Q 29.4375 6.6875 42.828125 6.6875 
Q 48.046875 6.6875 52.140625 7.59375 
Q 56.25 8.5 59.515625 10.40625 
z
" id="DejaVuSans-71"/>
       <path d="M 53.515625 70.515625 
L 53.515625 60.890625 
Q 47.90625 63.578125 42.921875 64.890625 
Q 37.9375 66.21875 33.296875 66.21875 
Q 25.25 66.21875 20.875 63.09375 
Q 16.5 59.96875 16.5 54.203125 
Q 16.5 49.359375 19.40625 46.890625 
Q 22.3125 44.4375 30.421875 42.921875 
L 36.375 41.703125 
Q 47.40625 39.59375 52.65625 34.296875 
Q 57.90625 29 57.90625 20.125 
Q 57.90625 9.515625 50.796875 4.046875 
Q 43.703125 -1.421875 29.984375 -1.421875 
Q 24.8125 -1.421875 18.96875 -0.25 
Q 13.140625 0.921875 6.890625 3.21875 
L 6.890625 13.375 
Q 12.890625 10.015625 18.65625 8.296875 
Q 24.421875 6.59375 29.984375 6.59375 
Q 38.421875 6.59375 43.015625 9.90625 
Q 47.609375 13.234375 47.609375 19.390625 
Q 47.609375 24.75 44.3125 27.78125 
Q 41.015625 30.8125 33.5 32.328125 
L 27.484375 33.5 
Q 16.453125 35.6875 11.515625 40.375 
Q 6.59375 45.0625 6.59375 53.421875 
Q 6.59375 63.09375 13.40625 68.65625 
Q 20.21875 74.21875 32.171875 74.21875 
Q 37.3125 74.21875 42.625 73.28125 
Q 47.953125 72.359375 53.515625 70.515625 
z
" id="DejaVuSans-83"/>
       <path d="M 19.671875 64.796875 
L 19.671875 8.109375 
L 31.59375 8.109375 
Q 46.6875 8.109375 53.6875 14.9375 
Q 60.6875 21.78125 60.6875 36.53125 
Q 60.6875 51.171875 53.6875 57.984375 
Q 46.6875 64.796875 31.59375 64.796875 
z
M 9.8125 72.90625 
L 30.078125 72.90625 
Q 51.265625 72.90625 61.171875 64.09375 
Q 71.09375 55.28125 71.09375 36.53125 
Q 71.09375 17.671875 61.125 8.828125 
Q 51.171875 0 30.078125 0 
L 9.8125 0 
z
" id="DejaVuSans-68"/>
      </defs>
      <use xlink:href="#DejaVuSans-66"/>
      <use x="66.853516" xlink:href="#DejaVuSans-71"/>
      <use x="144.34375" xlink:href="#DejaVuSans-83"/>
      <use x="207.820312" xlink:href="#DejaVuSans-68"/>
     </g>
    </g>
   </g>
   <g id="line2d_13">
    <path clip-path="url(#p0994097835)" d="M 80.754545 62.955899 
L 81.346364 56.062448 
L 81.938182 54.215792 
L 82.53 53.171605 
L 83.121818 50.251547 
L 83.713636 51.061348 
L 84.305455 54.944696 
L 84.897273 52.601517 
L 85.489091 49.732479 
L 86.080909 50.268974 
L 86.672727 52.3223 
L 87.264545 48.876168 
L 87.856364 44.356879 
L 88.448182 52.760708 
L 89.04 57.040009 
L 89.631818 53.802382 
L 90.223636 54.130521 
L 91.407273 55.374969 
L 91.999091 53.377403 
L 92.590909 49.552795 
L 93.182727 57.060118 
L 93.774545 63.099493 
L 94.366364 53.607488 
L 94.958182 56.224186 
L 95.55 56.519068 
L 96.141818 53.520616 
L 96.733636 52.284087 
L 97.325455 53.995611 
L 97.917273 54.884523 
L 98.509091 54.21372 
L 99.100909 51.110559 
L 99.692727 53.368702 
L 100.284545 52.644895 
L 100.876364 59.722056 
L 101.468182 54.087948 
L 102.06 52.606389 
L 102.651818 55.444983 
L 103.243636 52.934308 
L 103.835455 56.822831 
L 104.427273 56.421029 
L 105.019091 53.255675 
L 105.610909 46.873497 
L 106.202727 55.041108 
L 106.794545 52.044446 
L 107.386364 53.749151 
L 107.978182 53.071452 
L 108.57 54.187445 
L 109.161818 58.720526 
L 109.753636 55.600098 
L 110.345455 53.905851 
L 110.937273 48.350897 
L 111.529091 49.707762 
L 112.120909 52.030462 
L 112.712727 52.709898 
L 113.304545 54.311637 
L 113.896364 59.331152 
L 114.488182 50.408902 
L 115.08 54.911798 
L 115.671818 54.630537 
L 116.263636 52.027364 
L 116.855455 58.05215 
L 117.447273 55.798919 
L 118.039091 55.098025 
L 118.630909 58.124233 
L 119.222727 58.979063 
L 119.814545 59.419469 
L 120.406364 51.797868 
L 120.998182 56.614191 
L 121.59 54.495458 
L 122.181818 50.770748 
L 122.773636 51.965123 
L 123.365455 47.901931 
L 123.957273 50.918411 
L 124.549091 54.682622 
L 125.140909 48.329981 
L 125.732727 51.000524 
L 126.324545 59.269831 
L 126.916364 53.225818 
L 127.508182 54.637373 
L 128.1 55.388908 
L 128.691818 53.809642 
L 129.283636 47.819048 
L 129.875455 55.954748 
L 130.467273 53.45279 
L 131.059091 51.652284 
L 131.650909 52.991451 
L 132.242727 48.758869 
L 132.834545 51.57898 
L 133.426364 55.915966 
L 134.018182 55.507582 
L 134.61 51.144499 
L 135.201818 54.926897 
L 135.793636 53.33667 
L 136.385455 49.394201 
L 136.977273 52.066449 
L 137.569091 60.674976 
L 138.160909 58.166478 
L 138.752727 51.634703 
L 139.344545 55.962227 
L 139.936364 54.889249 
L 140.528182 48.983753 
L 141.12 54.49343 
L 141.711818 61.290682 
L 142.303636 51.906466 
L 142.895455 50.157089 
L 143.487273 55.118354 
L 144.079091 52.692914 
L 144.670909 56.157207 
L 145.262727 56.892247 
L 145.854545 54.206473 
L 146.446364 50.506452 
L 147.038182 52.107647 
L 147.63 56.090656 
L 148.221818 50.491484 
L 149.405455 46.758861 
L 149.997273 55.602127 
L 150.589091 55.80863 
L 151.180909 54.852991 
L 151.772727 50.952755 
L 152.364545 53.49246 
L 152.956364 50.011627 
L 153.548182 50.473294 
L 154.14 51.420575 
L 154.731818 54.135595 
L 155.323636 57.603499 
L 155.915455 48.033207 
L 156.507273 56.314741 
L 157.099091 56.827909 
L 157.690909 54.379176 
L 158.282727 53.761987 
L 158.874545 49.543672 
L 159.466364 55.78778 
L 160.058182 52.005402 
L 160.65 56.605059 
L 161.241818 56.844437 
L 161.833636 55.323927 
L 162.425455 58.269257 
L 163.017273 55.845234 
L 163.609091 56.578018 
L 164.200909 51.711562 
L 164.792727 53.994223 
L 165.384545 60.665288 
L 165.976364 56.114505 
L 166.568182 54.989732 
L 167.16 56.095442 
L 167.751818 54.626463 
L 168.343636 53.540391 
L 168.935455 53.998228 
L 169.527273 55.000334 
L 170.119091 53.126047 
L 170.710909 60.247279 
L 171.302727 58.135933 
L 171.894545 61.302035 
L 172.486364 56.1508 
L 173.078182 61.417517 
L 173.67 62.622022 
L 174.261818 61.072052 
L 174.853636 56.845201 
L 175.445455 54.439456 
L 176.037273 66.037852 
L 176.629091 54.300049 
L 177.220909 55.162473 
L 177.812727 59.094199 
L 178.404545 56.542433 
L 178.996364 60.691669 
L 179.588182 55.4034 
L 180.18 58.980154 
L 180.771818 56.940892 
L 181.363636 57.261566 
L 181.955455 59.041078 
L 182.547273 62.962921 
L 183.139091 65.12824 
L 183.730909 65.928076 
L 184.322727 53.35733 
L 184.914545 56.58737 
L 185.506364 62.336631 
L 186.098182 61.960785 
L 186.69 50.255984 
L 187.281818 55.093179 
L 187.873636 58.790707 
L 188.465455 56.943956 
L 189.057273 56.569871 
L 189.649091 61.477378 
L 190.240909 54.24374 
L 190.832727 55.067692 
L 191.424545 57.925096 
L 192.016364 55.872753 
L 192.608182 60.694059 
L 193.2 54.188831 
L 193.791818 59.059825 
L 194.383636 60.580735 
L 194.975455 60.421555 
L 195.567273 55.182636 
L 196.159091 59.630333 
L 196.750909 54.247912 
L 197.934545 60.249646 
L 198.526364 62.061197 
L 199.118182 55.293837 
L 199.71 60.034224 
L 200.301818 67.722891 
L 200.893636 69.533756 
L 201.485455 72.202419 
L 202.077273 78.38813 
L 202.669091 78.68832 
L 203.260909 79.523368 
L 203.852727 82.403598 
L 204.444545 72.717266 
L 205.036364 72.877972 
L 205.628182 81.589353 
L 206.22 82.189611 
L 206.811818 86.96661 
L 207.403636 84.214849 
L 207.995455 92.192787 
L 208.587273 72.82997 
L 209.179091 85.611485 
L 210.954545 93.452314 
L 211.546364 94.300961 
L 212.138182 91.229347 
L 212.73 75.958213 
L 213.321818 86.991935 
L 213.913636 88.676489 
L 214.505455 89.375396 
L 215.097273 94.602188 
L 215.689091 102.25876 
L 216.280909 101.049417 
L 216.872727 80.652416 
L 217.464545 91.957668 
L 218.056364 98.026772 
L 218.648182 97.053228 
L 219.24 100.041454 
L 219.831818 104.712136 
L 220.423636 105.418627 
L 221.015455 80.487501 
L 222.199091 94.414833 
L 222.790909 103.693098 
L 223.382727 98.123764 
L 224.566364 104.942575 
L 225.158182 88.829828 
L 225.75 100.621516 
L 226.341818 100.882351 
L 226.933636 109.801207 
L 227.525455 104.810503 
L 228.117273 103.468144 
L 228.709091 111.298009 
L 229.300909 87.637001 
L 229.892727 102.735259 
L 230.484545 105.0822 
L 231.076364 104.248892 
L 231.668182 104.646801 
L 232.851818 113.073269 
L 233.443636 97.753659 
L 234.035455 104.209483 
L 234.627273 103.679889 
L 235.219091 106.256939 
L 235.810909 110.919445 
L 236.402727 111.707676 
L 236.994545 115.510092 
L 237.586364 91.919568 
L 238.178182 103.917569 
L 238.77 104.914943 
L 239.361818 107.643106 
L 239.953636 109.529001 
L 240.545455 109.466449 
L 241.137273 112.442391 
L 241.729091 100.20892 
L 242.320909 106.490683 
L 242.912727 105.745547 
L 243.504545 113.748668 
L 244.096364 113.474427 
L 244.688182 111.178884 
L 245.28 114.306243 
L 245.871818 102.181698 
L 246.463636 103.363005 
L 247.055455 108.25234 
L 247.647273 111.543221 
L 248.239091 113.324014 
L 248.830909 111.927319 
L 249.422727 120.412577 
L 250.014545 97.599992 
L 250.606364 100.453789 
L 251.198182 102.693837 
L 251.79 112.230294 
L 252.381818 113.07836 
L 252.973636 114.141704 
L 253.565455 117.921193 
L 254.157273 95.505501 
L 254.749091 111.063136 
L 255.340909 116.57944 
L 255.932727 114.057352 
L 256.524545 113.219121 
L 257.116364 113.28917 
L 257.708182 113.587714 
L 258.3 102.726089 
L 258.891818 102.590016 
L 259.483636 103.256255 
L 260.075455 108.620276 
L 260.667273 117.401445 
L 261.259091 114.861979 
L 261.850909 117.983914 
L 262.442727 108.523545 
L 263.034545 114.873651 
L 263.626364 114.165145 
L 264.218182 119.061874 
L 264.81 116.176137 
L 265.401818 118.356404 
L 265.993636 118.204883 
L 266.585455 102.892064 
L 267.177273 111.979345 
L 267.769091 109.094614 
L 268.360909 112.937091 
L 268.952727 115.651335 
L 269.544545 116.068729 
L 270.136364 117.869092 
L 270.728182 109.180646 
L 271.911818 114.104737 
L 272.503636 107.23016 
L 273.095455 116.764463 
L 273.687273 119.246036 
L 274.279091 115.396322 
L 274.870909 115.468007 
L 275.462727 112.679722 
L 276.054545 111.842891 
L 276.646364 110.744278 
L 277.238182 115.182472 
L 277.83 114.602757 
L 278.421818 116.246984 
L 279.605455 108.12701 
L 280.197273 107.400488 
L 281.380909 114.491174 
L 281.972727 114.334395 
L 282.564545 111.342723 
L 283.156364 118.884654 
L 283.748182 112.451987 
L 284.34 115.514826 
L 284.931818 112.601025 
L 285.523636 118.42432 
L 286.115455 118.240205 
L 286.707273 115.832083 
L 287.299091 118.952282 
L 287.890909 109.333327 
L 288.482727 111.500513 
L 289.074545 114.67358 
L 289.666364 111.077144 
L 290.258182 113.948222 
L 290.85 115.679323 
L 291.441818 112.825092 
L 292.033636 111.255371 
L 292.625455 112.639383 
L 293.217273 115.052654 
L 293.809091 118.154074 
L 294.400909 114.451781 
L 294.992727 113.685245 
L 295.584545 118.995663 
L 296.176364 120.423902 
L 296.768182 109.889623 
L 297.36 114.764407 
L 297.951818 113.66424 
L 298.543636 111.14078 
L 299.135455 116.440874 
L 299.727273 115.878907 
L 300.319091 116.361858 
L 300.910909 117.122752 
L 301.502727 112.391189 
L 302.094545 117.074419 
L 302.686364 119.432355 
L 303.278182 116.959043 
L 303.87 117.320391 
L 304.461818 115.817191 
L 305.053636 114.879206 
L 305.645455 119.589409 
L 306.237273 117.823907 
L 306.829091 117.77379 
L 308.012727 112.915923 
L 308.604545 115.154446 
L 309.196364 115.6567 
L 309.788182 119.751838 
L 310.38 112.167198 
L 310.971818 120.054867 
L 311.563636 119.083086 
L 312.155455 115.514678 
L 312.747273 119.453314 
L 313.339091 114.714673 
L 313.930909 112.399189 
L 314.522727 117.055196 
L 315.114545 115.125862 
L 315.706364 116.611408 
L 316.298182 119.304064 
L 318.073636 114.001599 
L 318.665455 119.828491 
L 319.257273 118.741528 
L 319.849091 120.246607 
L 320.440909 121.445275 
L 321.032727 120.900899 
L 321.624545 122.506518 
L 322.216364 122.052193 
L 322.808182 122.171695 
L 323.4 118.305277 
L 323.991818 112.941482 
L 324.583636 120.576582 
L 325.175455 119.962421 
L 325.767273 115.916854 
L 326.359091 115.819528 
L 326.950909 117.913272 
L 327.542727 118.574291 
L 328.134545 111.671023 
L 328.726364 113.147148 
L 329.318182 113.980835 
L 330.501818 116.055884 
L 331.093636 116.54865 
L 331.685455 115.525901 
L 332.277273 116.85216 
L 332.869091 115.292106 
L 333.460909 112.785879 
L 334.052727 115.804209 
L 334.644545 116.084039 
L 335.236364 112.796535 
L 335.828182 115.15341 
L 336.42 114.640996 
L 337.011818 108.188004 
L 337.603636 111.716661 
L 338.195455 116.335858 
L 338.787273 114.074341 
L 339.379091 114.923877 
L 339.970909 113.901317 
L 340.562727 109.459509 
L 341.154545 115.431986 
L 341.746364 113.44554 
L 342.338182 112.884007 
L 342.93 116.093633 
L 343.521818 112.060491 
L 344.113636 111.519961 
L 344.705455 109.613836 
L 345.297273 112.447512 
L 345.889091 111.008583 
L 346.480909 113.767128 
L 347.072727 112.499026 
L 347.664545 116.784103 
L 348.256364 117.04131 
L 348.848182 114.763967 
L 349.44 114.346996 
L 350.031818 113.614249 
L 350.623636 111.775003 
L 351.215455 119.082288 
L 351.807273 112.446004 
L 352.399091 117.548131 
L 352.990909 114.349165 
L 353.582727 113.097822 
L 354.174545 116.715363 
L 354.766364 109.494002 
L 355.358182 111.080656 
L 355.95 110.615084 
L 356.541818 117.731239 
L 357.133636 118.519942 
L 357.725455 121.639669 
L 358.317273 121.824501 
L 358.909091 118.856222 
L 359.500909 114.767568 
L 360.092727 113.120174 
L 360.684545 112.720991 
L 361.868182 125.357399 
L 362.46 119.067717 
L 363.051818 117.256553 
L 363.643636 118.648192 
L 364.235455 118.601085 
L 365.419091 112.337036 
L 366.010909 119.66193 
L 366.602727 116.116172 
L 367.194545 114.860922 
L 367.786364 112.597991 
L 368.378182 111.437168 
L 368.97 110.542318 
L 370.153636 119.237085 
L 370.745455 118.529992 
L 371.337273 115.312871 
L 371.929091 112.986378 
L 372.520909 116.652136 
L 373.112727 121.499227 
L 373.704545 122.524675 
L 374.296364 113.733372 
L 374.888182 110.358221 
L 375.48 110.66995 
L 376.071818 114.181971 
L 377.255455 113.685949 
L 377.847273 117.265194 
L 378.439091 114.616228 
L 379.030909 110.733582 
L 379.622727 110.595517 
L 380.214545 117.740893 
L 380.806364 116.615072 
L 381.398182 112.940742 
L 381.99 111.398998 
L 382.581818 111.905636 
L 383.173636 111.976638 
L 383.765455 116.634546 
L 384.357273 112.954863 
L 384.949091 112.632831 
L 385.540909 118.085391 
L 386.132727 113.811236 
L 386.724545 116.457412 
L 387.316364 116.529065 
L 387.908182 113.494168 
L 388.5 115.665381 
L 389.091818 110.878647 
L 389.683636 109.977994 
L 390.275455 116.08687 
L 390.867273 118.894352 
L 391.459091 115.353455 
L 392.050909 113.533588 
L 392.642727 114.940458 
L 393.826364 116.178675 
L 394.418182 114.294195 
L 395.01 111.238764 
L 395.601818 117.396847 
L 396.193636 108.993826 
L 396.785455 109.635132 
L 397.377273 112.671972 
L 397.969091 113.822678 
L 398.560909 108.603649 
L 399.744545 110.263716 
L 400.336364 109.707415 
L 400.928182 106.974422 
L 401.52 111.496812 
L 402.111818 114.387014 
L 402.703636 110.42384 
L 403.295455 112.383044 
L 403.887273 111.004582 
L 404.479091 115.665798 
L 405.070909 118.215855 
L 405.662727 115.511734 
L 406.254545 121.277708 
L 407.438182 117.392407 
L 408.03 115.031969 
L 408.621818 120.130347 
L 409.213636 118.04651 
L 409.805455 117.478686 
L 410.397273 115.278567 
L 410.989091 114.121509 
L 411.580909 118.380414 
L 412.172727 117.259502 
L 412.764545 119.545905 
L 413.356364 115.306266 
L 413.948182 116.106524 
L 414.54 110.313596 
L 415.131818 113.792229 
L 415.723636 106.935417 
L 416.315455 113.000843 
L 416.907273 114.713872 
L 417.499091 111.334179 
L 418.090909 114.303979 
L 418.682727 110.521957 
L 419.274545 111.178991 
L 419.866364 112.98013 
L 420.458182 113.105467 
L 421.641818 110.926971 
L 422.233636 116.917902 
L 422.825455 117.997876 
L 423.417273 114.20353 
L 424.009091 113.03863 
L 424.600909 113.088006 
L 425.192727 111.458274 
L 425.784545 116.017733 
L 426.376364 115.949716 
L 426.968182 113.930354 
L 427.56 116.298727 
L 428.151818 116.417376 
L 428.743636 116.270212 
L 429.335455 113.448395 
L 429.927273 113.118642 
L 430.519091 111.35695 
L 431.110909 109.944738 
L 431.702727 111.268152 
L 432.294545 110.626095 
L 432.886364 109.642068 
L 433.478182 112.61795 
L 434.07 113.095081 
L 434.661818 110.55537 
L 435.253636 119.022108 
L 435.845455 115.593197 
L 435.845455 115.593197 
" style="fill:none;stroke:#1f77b4;stroke-linecap:square;stroke-width:1.5;"/>
   </g>
   <g id="line2d_14">
    <path clip-path="url(#p0994097835)" d="M 80.754545 55.169578 
L 81.346364 49.014212 
L 81.938182 50.587685 
L 82.53 48.51044 
L 83.121818 44.900834 
L 83.713636 51.069648 
L 84.305455 47.127558 
L 84.897273 47.417856 
L 85.489091 50.583598 
L 86.080909 48.34793 
L 86.672727 43.845199 
L 87.264545 43.875002 
L 88.448182 40.82254 
L 89.04 44.109785 
L 89.631818 49.455071 
L 90.223636 53.694885 
L 90.815455 49.624236 
L 91.407273 52.241265 
L 91.999091 53.106656 
L 92.590909 55.781862 
L 93.774545 47.162782 
L 94.366364 49.142965 
L 94.958182 49.902358 
L 95.55 54.725663 
L 96.141818 55.575472 
L 96.733636 53.120703 
L 97.325455 52.116356 
L 97.917273 54.606435 
L 98.509091 55.956303 
L 99.100909 50.981838 
L 99.692727 57.86543 
L 100.284545 56.866399 
L 100.876364 48.303737 
L 101.468182 54.72373 
L 102.06 49.902766 
L 102.651818 54.346728 
L 103.243636 51.580419 
L 103.835455 51.762239 
L 104.427273 48.064871 
L 105.610909 51.277547 
L 106.202727 45.928847 
L 106.794545 46.797245 
L 107.386364 52.287546 
L 107.978182 49.928811 
L 108.57 50.122295 
L 109.161818 46.757677 
L 109.753636 52.152636 
L 110.345455 46.247534 
L 110.937273 54.29858 
L 111.529091 54.52055 
L 112.120909 54.351188 
L 112.712727 55.219914 
L 113.304545 52.058503 
L 113.896364 54.006164 
L 114.488182 52.068983 
L 115.08 57.700829 
L 115.671818 54.325653 
L 116.263636 56.429117 
L 116.855455 52.333013 
L 117.447273 54.681041 
L 118.039091 55.3336 
L 118.630909 59.392994 
L 119.222727 59.941564 
L 120.406364 55.709191 
L 120.998182 56.414799 
L 121.59 55.127984 
L 122.181818 50.313197 
L 122.773636 52.934356 
L 123.365455 54.185126 
L 123.957273 50.010638 
L 124.549091 47.651143 
L 125.140909 51.378872 
L 125.732727 52.531017 
L 126.324545 46.977391 
L 126.916364 49.955834 
L 127.508182 54.164315 
L 128.1 48.494499 
L 128.691818 49.747238 
L 129.283636 49.260117 
L 129.875455 50.359825 
L 130.467273 50.454746 
L 131.059091 43.790271 
L 131.650909 47.059954 
L 132.834545 55.529064 
L 133.426364 55.074084 
L 134.018182 55.908509 
L 134.61 51.456739 
L 135.201818 53.013684 
L 135.793636 50.576002 
L 136.385455 54.806409 
L 136.977273 55.181619 
L 137.569091 54.839546 
L 138.160909 53.274272 
L 138.752727 54.575554 
L 139.344545 52.357536 
L 139.936364 54.242215 
L 140.528182 50.744246 
L 141.12 58.158857 
L 141.711818 57.45068 
L 142.303636 52.501518 
L 143.487273 49.964098 
L 144.079091 57.006451 
L 144.670909 47.221613 
L 145.262727 46.421898 
L 145.854545 55.110415 
L 146.446364 56.012823 
L 147.038182 52.915258 
L 147.63 51.799856 
L 148.221818 52.756314 
L 148.813636 52.366932 
L 149.405455 56.565589 
L 149.997273 55.396713 
L 150.589091 51.724208 
L 151.772727 50.073467 
L 152.364545 53.485637 
L 152.956364 52.156454 
L 153.548182 54.249745 
L 154.14 50.830989 
L 154.731818 52.817512 
L 155.323636 52.027566 
L 155.915455 55.897399 
L 156.507273 51.351715 
L 157.099091 52.851159 
L 157.690909 53.64051 
L 158.282727 58.551296 
L 158.874545 51.883946 
L 160.058182 52.639667 
L 160.65 51.427347 
L 161.241818 53.273882 
L 161.833636 53.663455 
L 162.425455 54.664615 
L 163.017273 58.778495 
L 163.609091 51.692079 
L 164.200909 56.121269 
L 164.792727 61.697183 
L 165.976364 52.352279 
L 166.568182 53.380136 
L 167.16 50.977196 
L 167.751818 47.755128 
L 168.343636 51.436852 
L 168.935455 54.395432 
L 169.527273 54.972865 
L 170.119091 57.93174 
L 170.710909 60.114023 
L 171.302727 54.416361 
L 171.894545 51.019751 
L 172.486364 58.630892 
L 173.078182 55.393425 
L 173.67 54.261734 
L 174.261818 51.897927 
L 174.853636 59.135596 
L 175.445455 52.920704 
L 176.037273 52.77846 
L 176.629091 54.856505 
L 177.220909 55.374914 
L 177.812727 57.962628 
L 178.404545 52.599742 
L 178.996364 52.41907 
L 179.588182 53.445087 
L 180.18 58.329888 
L 180.771818 55.959149 
L 181.363636 59.936182 
L 181.955455 60.581719 
L 182.547273 55.208831 
L 183.139091 59.895095 
L 183.730909 52.501052 
L 184.322727 56.717769 
L 184.914545 56.299698 
L 185.506364 58.643799 
L 186.098182 53.538033 
L 186.69 54.52515 
L 187.281818 53.621316 
L 187.873636 53.310251 
L 188.465455 51.014716 
L 189.649091 57.609484 
L 190.240909 55.830971 
L 190.832727 54.925668 
L 191.424545 60.440434 
L 192.016364 53.204644 
L 192.608182 52.067041 
L 193.2 61.415331 
L 193.791818 65.005295 
L 194.975455 57.51941 
L 195.567273 56.142942 
L 196.159091 54.231524 
L 196.750909 57.415509 
L 197.342727 57.335935 
L 197.934545 63.092449 
L 198.526364 55.679703 
L 199.118182 55.149622 
L 199.71 56.89953 
L 200.301818 55.954262 
L 200.893636 62.166853 
L 201.485455 64.800993 
L 202.077273 65.507795 
L 202.669091 71.76086 
L 203.260909 74.285876 
L 203.852727 73.718337 
L 204.444545 57.191351 
L 205.036364 67.566472 
L 205.628182 67.335088 
L 206.22 78.374222 
L 206.811818 78.487662 
L 207.403636 76.624551 
L 207.995455 82.112668 
L 208.587273 66.22817 
L 209.179091 80.449073 
L 209.770909 77.208157 
L 210.362727 79.93329 
L 210.954545 81.730154 
L 211.546364 85.999286 
L 212.138182 87.792436 
L 212.73 71.671841 
L 213.321818 77.66652 
L 213.913636 78.343872 
L 214.505455 80.092817 
L 215.097273 85.383483 
L 215.689091 84.622681 
L 216.280909 87.428615 
L 216.872727 65.379424 
L 217.464545 79.610573 
L 218.056364 84.674654 
L 218.648182 80.017033 
L 219.24 84.937771 
L 219.831818 88.898983 
L 220.423636 89.24321 
L 221.015455 68.000152 
L 222.199091 81.211982 
L 222.790909 89.272958 
L 223.382727 91.00268 
L 223.974545 94.10871 
L 224.566364 93.421804 
L 225.158182 64.665159 
L 226.933636 89.052518 
L 227.525455 83.489413 
L 228.117273 88.047957 
L 228.709091 88.444112 
L 229.300909 62.297021 
L 229.892727 78.878252 
L 230.484545 86.89834 
L 231.076364 86.845722 
L 231.668182 83.869874 
L 232.26 93.353129 
L 232.851818 93.605763 
L 233.443636 71.045633 
L 234.035455 83.847233 
L 234.627273 80.893492 
L 236.402727 93.053791 
L 236.994545 91.008863 
L 237.586364 73.498777 
L 238.178182 82.580261 
L 238.77 85.840295 
L 239.361818 87.211974 
L 239.953636 92.726952 
L 240.545455 90.791375 
L 241.137273 94.268175 
L 241.729091 71.21968 
L 242.320909 80.327494 
L 243.504545 88.221075 
L 244.096364 93.824186 
L 244.688182 91.328033 
L 245.28 92.859681 
L 245.871818 67.251928 
L 246.463636 77.573461 
L 247.055455 82.7378 
L 247.647273 91.603775 
L 248.239091 87.328268 
L 248.830909 95.447991 
L 249.422727 94.726944 
L 250.014545 71.159466 
L 250.606364 77.295078 
L 251.198182 84.959251 
L 251.79 86.65751 
L 252.381818 89.417157 
L 252.973636 95.039911 
L 253.565455 94.397815 
L 254.157273 68.757338 
L 254.749091 79.88109 
L 255.340909 83.880095 
L 255.932727 86.471 
L 256.524545 88.005324 
L 257.116364 91.256515 
L 257.708182 93.852345 
L 258.3 69.835193 
L 258.891818 74.715746 
L 260.075455 88.672523 
L 260.667273 93.225418 
L 261.259091 96.499552 
L 261.850909 93.91795 
L 262.442727 70.026888 
L 263.034545 75.575899 
L 263.626364 84.628344 
L 264.218182 83.61336 
L 264.81 88.853304 
L 265.401818 91.313042 
L 265.993636 96.754284 
L 266.585455 60.24043 
L 267.177273 73.746791 
L 267.769091 80.152295 
L 268.360909 81.458476 
L 268.952727 87.371205 
L 269.544545 90.253833 
L 270.136364 92.382899 
L 270.728182 65.525886 
L 271.32 69.474545 
L 271.911818 78.351466 
L 272.503636 81.974996 
L 273.095455 82.147837 
L 273.687273 81.233766 
L 274.279091 84.212149 
L 274.870909 88.144025 
L 275.462727 81.162141 
L 276.054545 87.230031 
L 276.646364 81.522836 
L 277.83 77.976762 
L 278.421818 80.260871 
L 279.013636 81.433872 
L 279.605455 78.792486 
L 280.197273 81.361333 
L 280.789091 79.37755 
L 281.380909 82.471109 
L 281.972727 84.858385 
L 282.564545 80.767342 
L 283.156364 84.254904 
L 283.748182 81.818929 
L 284.34 81.464586 
L 284.931818 84.677591 
L 285.523636 82.688954 
L 286.115455 82.911166 
L 286.707273 88.248188 
L 287.299091 87.620026 
L 287.890909 83.068998 
L 288.482727 83.125268 
L 289.074545 80.676089 
L 289.666364 86.359138 
L 290.258182 88.824683 
L 290.85 84.51837 
L 291.441818 83.976262 
L 292.033636 84.365001 
L 292.625455 82.556013 
L 293.217273 84.935396 
L 293.809091 86.406842 
L 294.400909 84.849494 
L 295.584545 89.373028 
L 296.176364 82.88762 
L 296.768182 78.782517 
L 297.36 83.497263 
L 297.951818 82.844399 
L 298.543636 83.150809 
L 299.135455 84.069343 
L 299.727273 82.311686 
L 300.319091 85.439881 
L 300.910909 82.42633 
L 301.502727 80.798912 
L 302.094545 82.257812 
L 302.686364 89.755202 
L 303.278182 92.953774 
L 303.87 87.398602 
L 304.461818 83.585142 
L 305.053636 88.070612 
L 305.645455 89.835103 
L 306.237273 83.274073 
L 307.420909 81.233101 
L 308.012727 82.58646 
L 308.604545 76.659431 
L 309.788182 80.425559 
L 310.38 81.326929 
L 310.971818 77.306467 
L 311.563636 78.004877 
L 312.155455 80.614579 
L 312.747273 78.384324 
L 313.339091 80.851129 
L 313.930909 81.03914 
L 314.522727 85.459952 
L 315.114545 85.564791 
L 315.706364 83.635496 
L 316.298182 87.018811 
L 316.89 86.906349 
L 317.481818 83.824092 
L 318.073636 82.887004 
L 318.665455 84.179485 
L 319.257273 88.018951 
L 319.849091 83.866784 
L 320.440909 87.742881 
L 321.032727 83.367254 
L 321.624545 86.151156 
L 322.216364 86.209927 
L 322.808182 81.747242 
L 323.4 84.796121 
L 323.991818 86.013487 
L 324.583636 85.993509 
L 325.175455 84.593016 
L 325.767273 86.115398 
L 326.359091 83.245224 
L 326.950909 85.492115 
L 327.542727 87.092481 
L 328.134545 87.717925 
L 329.318182 81.906811 
L 329.91 80.906633 
L 330.501818 87.807699 
L 331.093636 83.699358 
L 331.685455 82.931466 
L 332.277273 84.792499 
L 332.869091 90.991062 
L 333.460909 86.841218 
L 334.052727 85.193679 
L 334.644545 86.50574 
L 335.236364 90.266032 
L 335.828182 88.544757 
L 336.42 85.410391 
L 337.011818 88.038682 
L 337.603636 78.012368 
L 338.195455 81.417431 
L 338.787273 82.644446 
L 339.379091 82.642074 
L 339.970909 85.585461 
L 340.562727 85.749442 
L 341.154545 90.399027 
L 341.746364 82.586312 
L 342.338182 86.74266 
L 342.93 87.794794 
L 343.521818 90.099259 
L 344.113636 79.45578 
L 344.705455 86.27165 
L 345.297273 87.252623 
L 345.889091 89.852232 
L 346.480909 90.933845 
L 347.072727 89.952585 
L 347.664545 83.893284 
L 348.256364 84.146905 
L 348.848182 81.513358 
L 349.44 86.016187 
L 350.031818 84.565755 
L 350.623636 79.172003 
L 351.215455 80.143179 
L 351.807273 86.145371 
L 352.399091 80.848974 
L 352.990909 80.147825 
L 353.582727 82.282531 
L 354.766364 78.488671 
L 355.358182 82.186192 
L 355.95 78.496878 
L 356.541818 78.945927 
L 357.133636 86.041439 
L 357.725455 84.650306 
L 358.317273 87.13763 
L 358.909091 82.12441 
L 359.500909 81.312124 
L 360.092727 82.793685 
L 361.276364 80.163375 
L 361.868182 84.800862 
L 362.46 82.324783 
L 363.051818 83.040343 
L 363.643636 84.620293 
L 364.235455 83.917736 
L 364.827273 83.883695 
L 365.419091 87.051399 
L 366.010909 87.084813 
L 366.602727 87.877415 
L 367.194545 90.636879 
L 367.786364 81.819127 
L 368.378182 80.881473 
L 368.97 84.978291 
L 369.561818 86.676125 
L 370.153636 83.082775 
L 370.745455 88.176905 
L 371.337273 84.488806 
L 371.929091 84.682626 
L 372.520909 83.851791 
L 373.112727 81.655725 
L 373.704545 80.374796 
L 374.296364 85.653332 
L 374.888182 83.552817 
L 375.48 89.85183 
L 376.071818 85.667453 
L 376.663636 87.36359 
L 377.255455 84.338262 
L 377.847273 84.600351 
L 378.439091 90.915453 
L 379.030909 88.643235 
L 379.622727 88.098115 
L 380.214545 88.093466 
L 380.806364 85.053849 
L 381.398182 86.033803 
L 381.99 82.948264 
L 382.581818 89.162565 
L 383.173636 82.515337 
L 383.765455 86.720311 
L 384.357273 86.904868 
L 384.949091 84.984965 
L 385.540909 85.975668 
L 386.132727 87.688483 
L 386.724545 85.579661 
L 387.316364 84.753352 
L 387.908182 86.289024 
L 388.5 83.430693 
L 389.091818 84.054192 
L 389.683636 87.723958 
L 390.275455 88.870542 
L 390.867273 87.097234 
L 391.459091 87.896834 
L 392.642727 80.519588 
L 393.234545 82.955106 
L 393.826364 81.589335 
L 394.418182 82.435579 
L 395.01 88.111899 
L 395.601818 90.557104 
L 396.193636 90.768794 
L 396.785455 86.277059 
L 397.377273 87.30007 
L 397.969091 86.480745 
L 398.560909 89.396012 
L 399.152727 88.438887 
L 399.744545 84.37007 
L 400.336364 88.851369 
L 400.928182 90.402707 
L 401.52 85.782297 
L 402.111818 88.838282 
L 402.703636 90.471746 
L 403.295455 87.982824 
L 403.887273 89.821423 
L 404.479091 94.837494 
L 405.070909 96.832782 
L 405.662727 85.669463 
L 406.254545 88.141713 
L 406.846364 93.211587 
L 407.438182 90.529574 
L 408.03 89.147617 
L 408.621818 95.522313 
L 409.213636 90.270965 
L 409.805455 88.441014 
L 410.397273 88.909574 
L 410.989091 88.866874 
L 411.580909 84.702265 
L 412.172727 86.671307 
L 412.764545 89.044481 
L 413.356364 89.069168 
L 413.948182 90.564795 
L 414.54 94.313313 
L 415.131818 84.764491 
L 415.723636 93.13275 
L 416.315455 90.964682 
L 416.907273 89.832501 
L 417.499091 85.065811 
L 418.090909 85.657671 
L 418.682727 89.460176 
L 419.274545 90.386077 
L 419.866364 84.418643 
L 420.458182 85.09968 
L 421.05 90.126659 
L 421.641818 84.177294 
L 422.233636 87.971121 
L 422.825455 88.003344 
L 423.417273 88.731391 
L 424.009091 88.979155 
L 424.600909 90.617522 
L 425.192727 89.664693 
L 425.784545 87.998962 
L 426.376364 87.758099 
L 426.968182 82.437041 
L 427.56 85.344514 
L 428.151818 82.51016 
L 428.743636 91.03828 
L 429.335455 88.199345 
L 429.927273 86.163438 
L 430.519091 86.578079 
L 431.110909 85.664987 
L 431.702727 86.91286 
L 432.886364 83.692524 
L 433.478182 86.21194 
L 434.07 84.802556 
L 434.661818 85.016713 
L 435.253636 87.250232 
L 435.845455 85.137356 
L 435.845455 85.137356 
" style="fill:none;stroke:#ff7f0e;stroke-linecap:square;stroke-width:1.5;"/>
   </g>
   <g id="line2d_15">
    <path clip-path="url(#p0994097835)" d="M 80.754545 55.469433 
L 81.346364 63.170036 
L 81.938182 56.989439 
L 82.53 54.221838 
L 83.121818 49.474363 
L 83.713636 51.463633 
L 84.305455 50.193615 
L 84.897273 49.761894 
L 85.489091 51.251509 
L 86.080909 51.140264 
L 86.672727 52.784051 
L 87.264545 45.138553 
L 88.448182 50.112763 
L 89.04 50.344934 
L 89.631818 53.875568 
L 90.223636 47.416604 
L 90.815455 48.117767 
L 91.407273 51.83928 
L 91.999091 54.26537 
L 92.590909 47.845878 
L 93.182727 47.019049 
L 93.774545 51.120264 
L 94.366364 45.013114 
L 94.958182 53.912085 
L 95.55 53.366623 
L 96.141818 57.359365 
L 96.733636 56.010862 
L 97.325455 50.637338 
L 97.917273 52.634839 
L 98.509091 52.157425 
L 99.100909 48.693648 
L 99.692727 53.906854 
L 100.284545 53.239794 
L 100.876364 51.996578 
L 101.468182 59.339985 
L 102.06 58.286374 
L 102.651818 55.681684 
L 103.243636 56.296209 
L 103.835455 53.527809 
L 104.427273 53.161317 
L 105.019091 54.37921 
L 105.610909 51.894399 
L 106.202727 55.91011 
L 106.794545 54.077955 
L 107.978182 52.066376 
L 108.57 50.164182 
L 109.161818 57.59795 
L 109.753636 57.052579 
L 110.345455 55.839954 
L 110.937273 55.976412 
L 111.529091 54.784126 
L 112.120909 51.642705 
L 112.712727 55.231548 
L 113.304545 51.906435 
L 113.896364 52.258326 
L 114.488182 55.340868 
L 115.08 52.243874 
L 115.671818 58.803551 
L 116.263636 55.734117 
L 116.855455 55.992289 
L 118.039091 61.931182 
L 119.222727 58.882314 
L 120.406364 54.373338 
L 120.998182 57.457782 
L 121.59 53.911035 
L 122.181818 59.335728 
L 122.773636 60.280999 
L 123.365455 52.259356 
L 123.957273 53.847273 
L 124.549091 52.915635 
L 125.140909 56.529734 
L 125.732727 53.151451 
L 126.324545 58.708254 
L 126.916364 56.23438 
L 127.508182 60.610022 
L 128.1 60.91729 
L 128.691818 61.712928 
L 129.283636 60.777591 
L 129.875455 52.493405 
L 130.467273 51.43373 
L 131.059091 52.832738 
L 131.650909 53.884594 
L 132.242727 48.694619 
L 132.834545 53.235066 
L 133.426364 59.535483 
L 134.61 49.359556 
L 135.201818 55.689681 
L 135.793636 51.591334 
L 136.385455 51.613143 
L 136.977273 54.597346 
L 137.569091 55.459076 
L 138.160909 51.739543 
L 138.752727 54.209008 
L 139.344545 60.432797 
L 139.936364 57.736088 
L 140.528182 57.545577 
L 141.12 53.334163 
L 141.711818 53.633358 
L 142.303636 51.608739 
L 142.895455 54.198842 
L 143.487273 51.725831 
L 144.079091 57.956004 
L 145.262727 52.944815 
L 145.854545 50.440645 
L 146.446364 55.881101 
L 147.038182 52.345666 
L 147.63 53.434408 
L 148.221818 54.239972 
L 148.813636 61.445749 
L 149.405455 50.145624 
L 149.997273 62.859409 
L 150.589091 57.34821 
L 151.180909 56.045986 
L 151.772727 52.361602 
L 152.364545 51.783069 
L 152.956364 53.035809 
L 153.548182 48.715556 
L 154.14 51.399764 
L 154.731818 63.390365 
L 155.323636 56.305201 
L 155.915455 54.867946 
L 156.507273 55.900739 
L 157.099091 51.682501 
L 157.690909 56.141058 
L 158.282727 54.821695 
L 159.466364 54.76825 
L 160.058182 53.83871 
L 161.241818 61.569367 
L 161.833636 57.373162 
L 162.425455 55.157126 
L 163.017273 53.783297 
L 163.609091 59.159832 
L 164.200909 58.92162 
L 164.792727 55.874975 
L 165.384545 56.82135 
L 165.976364 59.413393 
L 166.568182 57.173607 
L 167.16 56.845944 
L 167.751818 58.686875 
L 168.343636 56.382324 
L 168.935455 52.494882 
L 169.527273 51.207564 
L 170.119091 59.661256 
L 170.710909 58.329012 
L 171.302727 60.676419 
L 171.894545 56.376984 
L 172.486364 61.996931 
L 173.078182 60.124845 
L 173.67 50.893701 
L 174.853636 58.432352 
L 175.445455 54.417287 
L 176.037273 56.462055 
L 176.629091 52.271556 
L 177.220909 58.912739 
L 178.404545 54.116403 
L 178.996364 52.434163 
L 179.588182 52.222934 
L 180.18 54.31452 
L 180.771818 52.130863 
L 181.363636 47.293507 
L 181.955455 54.325408 
L 182.547273 52.891454 
L 183.139091 57.829674 
L 183.730909 55.063564 
L 184.322727 55.656506 
L 184.914545 56.764476 
L 185.506364 49.062415 
L 186.098182 51.785253 
L 186.69 55.119873 
L 187.873636 58.262291 
L 188.465455 55.963158 
L 189.057273 57.292159 
L 189.649091 48.881065 
L 190.240909 54.632668 
L 190.832727 58.342889 
L 191.424545 53.659934 
L 192.016364 55.100512 
L 192.608182 52.746112 
L 193.2 51.438726 
L 193.791818 47.223968 
L 194.383636 53.343994 
L 194.975455 52.747172 
L 195.567273 59.395445 
L 196.159091 59.199363 
L 196.750909 53.756079 
L 197.342727 53.382871 
L 197.934545 52.610237 
L 198.526364 50.391432 
L 199.118182 55.299164 
L 199.71 59.194154 
L 200.301818 58.082499 
L 200.893636 69.180173 
L 202.077273 78.565491 
L 202.669091 81.426493 
L 203.260909 85.183917 
L 203.852727 84.492922 
L 204.444545 64.946288 
L 205.036364 73.328801 
L 205.628182 80.02267 
L 206.22 82.198732 
L 206.811818 87.778413 
L 207.403636 82.923651 
L 207.995455 90.804328 
L 208.587273 70.790199 
L 209.770909 89.262469 
L 210.362727 87.265413 
L 210.954545 92.608832 
L 211.546364 95.083716 
L 212.138182 96.220969 
L 212.73 79.563072 
L 213.913636 88.660644 
L 214.505455 89.690385 
L 215.097273 93.263251 
L 215.689091 95.269339 
L 216.280909 97.705698 
L 216.872727 83.681035 
L 217.464545 88.949495 
L 218.056364 98.404443 
L 218.648182 100.916561 
L 219.24 100.842366 
L 219.831818 104.200964 
L 220.423636 102.581288 
L 221.015455 85.518483 
L 222.199091 103.447572 
L 222.790909 101.566985 
L 223.382727 98.270852 
L 223.974545 104.951275 
L 224.566364 106.135029 
L 225.158182 87.723837 
L 225.75 95.907098 
L 226.341818 101.493535 
L 226.933636 103.472079 
L 227.525455 108.062021 
L 228.117273 109.261911 
L 228.709091 112.388939 
L 229.300909 95.442612 
L 229.892727 99.347583 
L 230.484545 105.785882 
L 231.076364 103.65177 
L 231.668182 111.657261 
L 232.26 114.435577 
L 232.851818 114.804494 
L 233.443636 95.967371 
L 234.035455 105.352031 
L 234.627273 109.170425 
L 235.219091 110.804727 
L 235.810909 109.23172 
L 236.402727 110.554013 
L 236.994545 110.889039 
L 237.586364 102.704057 
L 238.178182 105.017345 
L 238.77 100.798723 
L 239.361818 108.629684 
L 239.953636 110.190081 
L 240.545455 113.48305 
L 241.137273 118.155825 
L 241.729091 100.990861 
L 242.320909 106.352265 
L 242.912727 109.945093 
L 243.504545 110.508748 
L 244.096364 112.786885 
L 244.688182 112.22205 
L 245.28 115.635833 
L 245.871818 97.881099 
L 246.463636 108.869075 
L 247.055455 106.002272 
L 247.647273 110.092243 
L 248.239091 115.911289 
L 248.830909 116.54168 
L 249.422727 120.265215 
L 250.014545 103.221036 
L 250.606364 112.087519 
L 251.198182 107.931517 
L 251.79 115.607648 
L 252.381818 112.043755 
L 252.973636 114.644699 
L 253.565455 117.784215 
L 254.157273 102.82071 
L 254.749091 112.439225 
L 255.340909 106.898046 
L 255.932727 112.564632 
L 256.524545 111.226971 
L 257.116364 119.139697 
L 257.708182 124.333116 
L 258.3 106.576884 
L 258.891818 114.935335 
L 259.483636 112.772028 
L 260.075455 118.964175 
L 260.667273 112.814125 
L 261.259091 124.135619 
L 261.850909 121.003134 
L 262.442727 104.628447 
L 263.034545 103.871982 
L 263.626364 114.486696 
L 264.218182 110.860635 
L 264.81 116.202988 
L 265.401818 114.743225 
L 265.993636 118.992536 
L 266.585455 103.556434 
L 267.177273 110.117684 
L 267.769091 118.705667 
L 268.360909 114.932357 
L 268.952727 119.887609 
L 269.544545 120.082282 
L 270.136364 121.054613 
L 270.728182 107.522375 
L 271.32 113.489121 
L 271.911818 108.789674 
L 272.503636 112.324368 
L 273.095455 109.806043 
L 273.687273 113.642464 
L 274.279091 120.503032 
L 274.870909 119.172006 
L 275.462727 113.811646 
L 276.054545 113.554998 
L 276.646364 116.124764 
L 277.238182 116.609732 
L 277.83 120.602042 
L 278.421818 121.354381 
L 279.013636 123.33561 
L 279.605455 124.848846 
L 280.197273 117.06714 
L 280.789091 119.938672 
L 281.380909 118.31226 
L 281.972727 119.263966 
L 282.564545 118.429848 
L 283.156364 118.999394 
L 283.748182 120.245065 
L 284.34 122.772966 
L 284.931818 120.423603 
L 285.523636 116.902911 
L 286.115455 115.579168 
L 286.707273 122.529657 
L 287.299091 115.793726 
L 287.890909 114.625212 
L 288.482727 115.259914 
L 289.074545 114.980408 
L 289.666364 120.339721 
L 290.258182 122.91972 
L 290.85 120.064119 
L 291.441818 119.360023 
L 292.033636 119.643363 
L 292.625455 118.251496 
L 293.217273 120.668516 
L 293.809091 118.770235 
L 294.400909 126.62392 
L 294.992727 122.143925 
L 296.176364 110.140126 
L 296.768182 113.291699 
L 297.36 114.378178 
L 298.543636 120.424006 
L 299.135455 118.545212 
L 299.727273 114.577451 
L 300.319091 115.249716 
L 300.910909 118.407193 
L 301.502727 112.387318 
L 302.094545 115.810483 
L 302.686364 113.230005 
L 303.278182 116.209107 
L 303.87 115.364219 
L 304.461818 115.143523 
L 305.053636 116.560775 
L 305.645455 118.890496 
L 306.829091 111.865918 
L 307.420909 113.106901 
L 308.012727 116.934459 
L 308.604545 113.425201 
L 309.196364 111.338933 
L 309.788182 112.284002 
L 310.38 114.762489 
L 310.971818 116.705476 
L 311.563636 115.741535 
L 312.155455 117.286856 
L 312.747273 112.571181 
L 313.339091 115.059926 
L 313.930909 110.596843 
L 314.522727 113.536312 
L 315.114545 117.504092 
L 315.706364 112.382989 
L 316.298182 115.040068 
L 316.89 113.15943 
L 317.481818 115.66926 
L 318.073636 114.892928 
L 318.665455 112.507055 
L 319.849091 113.134387 
L 320.440909 114.677757 
L 321.032727 113.461105 
L 321.624545 113.6734 
L 322.216364 115.250664 
L 322.808182 108.238403 
L 323.4 114.636379 
L 323.991818 116.167277 
L 324.583636 115.782817 
L 325.175455 115.582184 
L 325.767273 112.989775 
L 326.359091 112.988402 
L 326.950909 110.989289 
L 327.542727 117.759221 
L 328.134545 116.709077 
L 328.726364 114.466617 
L 329.318182 112.672807 
L 329.91 112.786812 
L 330.501818 109.580285 
L 331.093636 113.77819 
L 331.685455 110.487069 
L 332.277273 111.256328 
L 332.869091 113.94113 
L 333.460909 110.527777 
L 334.052727 112.792172 
L 334.644545 112.213686 
L 335.236364 111.952379 
L 335.828182 113.247731 
L 336.42 114.096647 
L 337.011818 113.039527 
L 337.603636 107.993931 
L 338.195455 113.197988 
L 338.787273 113.14785 
L 339.379091 117.088804 
L 339.970909 111.640986 
L 340.562727 113.537816 
L 341.154545 112.21937 
L 341.746364 107.387209 
L 342.338182 107.810277 
L 342.93 107.781055 
L 343.521818 105.954205 
L 344.113636 113.717912 
L 344.705455 114.112914 
L 345.297273 108.106381 
L 346.480909 106.183958 
L 347.072727 114.117471 
L 347.664545 112.307227 
L 348.256364 116.818954 
L 349.44 107.022256 
L 350.031818 106.047721 
L 350.623636 114.623858 
L 351.215455 112.75524 
L 351.807273 116.551892 
L 352.399091 114.927474 
L 352.990909 108.79864 
L 353.582727 116.170131 
L 354.174545 115.70119 
L 354.766364 114.003839 
L 355.358182 110.080879 
L 355.95 114.797438 
L 356.541818 113.235712 
L 357.133636 113.390907 
L 358.317273 116.502367 
L 358.909091 116.031935 
L 359.500909 116.767435 
L 360.092727 111.623857 
L 360.684545 112.539371 
L 361.276364 107.519659 
L 361.868182 110.864086 
L 362.46 110.281771 
L 363.051818 115.896643 
L 363.643636 111.80899 
L 364.235455 117.856609 
L 364.827273 115.505919 
L 365.419091 116.040745 
L 366.010909 114.008064 
L 366.602727 110.794159 
L 367.194545 114.418142 
L 367.786364 112.815734 
L 368.378182 112.008197 
L 368.97 107.379668 
L 369.561818 109.07249 
L 370.153636 109.772564 
L 370.745455 107.716681 
L 371.337273 113.982123 
L 371.929091 113.549079 
L 372.520909 116.171482 
L 373.112727 115.777361 
L 373.704545 114.721286 
L 374.296364 113.079556 
L 374.888182 112.420076 
L 375.48 113.824451 
L 376.071818 115.57841 
L 376.663636 113.837246 
L 377.255455 113.188157 
L 377.847273 114.470567 
L 378.439091 110.789318 
L 379.030909 113.393201 
L 379.622727 115.193919 
L 380.214545 113.25925 
L 380.806364 110.359349 
L 381.398182 110.447434 
L 381.99 106.653138 
L 382.581818 111.019962 
L 383.173636 105.691342 
L 383.765455 105.365828 
L 384.357273 111.461496 
L 384.949091 111.959438 
L 385.540909 110.506858 
L 386.132727 105.562509 
L 386.724545 108.614891 
L 387.316364 107.961736 
L 387.908182 111.169912 
L 388.5 110.721219 
L 389.091818 112.376181 
L 389.683636 108.202778 
L 390.275455 109.534798 
L 390.867273 114.31226 
L 391.459091 111.467758 
L 392.050909 113.870508 
L 392.642727 112.828408 
L 393.234545 115.039364 
L 393.826364 112.53771 
L 394.418182 115.047589 
L 395.01 115.158494 
L 395.601818 112.686386 
L 396.193636 107.790609 
L 396.785455 113.235184 
L 397.377273 113.165875 
L 397.969091 110.833227 
L 398.560909 114.700973 
L 399.152727 112.873251 
L 399.744545 112.568376 
L 400.336364 116.889439 
L 400.928182 118.400127 
L 401.52 115.888009 
L 402.111818 114.771181 
L 402.703636 114.658154 
L 403.295455 111.988549 
L 403.887273 111.771289 
L 404.479091 110.936565 
L 405.070909 113.570671 
L 405.662727 106.686555 
L 406.254545 115.702909 
L 407.438182 109.951328 
L 408.621818 116.330278 
L 409.213636 118.847524 
L 409.805455 116.447648 
L 410.397273 118.808451 
L 410.989091 117.114885 
L 411.580909 115.987029 
L 412.172727 114.161195 
L 412.764545 110.816819 
L 413.356364 111.949244 
L 413.948182 115.325336 
L 414.54 111.255329 
L 415.723636 118.247805 
L 416.315455 116.714811 
L 416.907273 117.017083 
L 417.499091 117.001407 
L 418.090909 118.190592 
L 418.682727 113.716946 
L 419.274545 118.114314 
L 419.866364 116.1184 
L 420.458182 115.925034 
L 421.05 115.411356 
L 421.641818 123.258029 
L 422.233636 120.639197 
L 422.825455 115.106866 
L 423.417273 118.562503 
L 424.009091 119.7631 
L 424.600909 121.885518 
L 425.192727 120.244879 
L 425.784545 125.071952 
L 426.376364 119.642098 
L 426.968182 118.856166 
L 427.56 121.248349 
L 428.151818 116.918508 
L 428.743636 115.523954 
L 429.335455 112.650425 
L 429.927273 117.093215 
L 430.519091 111.161275 
L 431.110909 110.0166 
L 432.294545 117.560277 
L 432.886364 115.151532 
L 433.478182 115.459917 
L 434.07 118.517026 
L 435.253636 112.236555 
L 435.845455 117.896336 
L 435.845455 117.896336 
" style="fill:none;stroke:#2ca02c;stroke-linecap:square;stroke-width:1.5;"/>
   </g>
   <g id="line2d_16">
    <path clip-path="url(#p0994097835)" d="M 80.754545 55.795366 
L 81.346364 54.348953 
L 81.938182 49.333831 
L 82.53 53.150659 
L 83.121818 53.777608 
L 83.713636 55.529241 
L 84.305455 61.177596 
L 84.897273 57.043854 
L 85.489091 54.037959 
L 86.080909 54.062907 
L 86.672727 58.529111 
L 87.264545 55.197079 
L 87.856364 53.933087 
L 88.448182 51.40693 
L 89.04 49.706331 
L 90.223636 45.29172 
L 90.815455 59.563939 
L 91.407273 53.081329 
L 91.999091 52.407916 
L 92.590909 53.654047 
L 93.182727 55.802051 
L 93.774545 46.917125 
L 94.366364 51.164688 
L 94.958182 53.228475 
L 95.55 47.298742 
L 96.141818 50.337455 
L 96.733636 50.554384 
L 97.325455 53.13635 
L 97.917273 50.083791 
L 98.509091 54.476267 
L 99.100909 49.640538 
L 99.692727 52.085179 
L 100.284545 48.44965 
L 100.876364 50.242199 
L 101.468182 51.219349 
L 102.06 50.691125 
L 102.651818 50.904149 
L 103.835455 56.870873 
L 104.427273 55.489348 
L 105.019091 56.335345 
L 105.610909 53.111795 
L 106.202727 56.447106 
L 106.794545 48.316265 
L 107.386364 56.701831 
L 107.978182 54.401866 
L 108.57 64.310721 
L 109.161818 58.435118 
L 109.753636 53.959494 
L 110.345455 53.189359 
L 110.937273 54.542413 
L 111.529091 57.282516 
L 112.120909 57.052476 
L 112.712727 54.095918 
L 113.304545 53.977991 
L 113.896364 52.59072 
L 114.488182 57.134584 
L 115.08 54.836589 
L 115.671818 49.418492 
L 116.263636 55.894494 
L 116.855455 51.557184 
L 117.447273 52.675914 
L 118.039091 55.522137 
L 118.630909 51.487732 
L 119.222727 50.701512 
L 119.814545 55.901067 
L 120.406364 63.951527 
L 120.998182 60.064638 
L 121.59 52.672043 
L 122.181818 60.896828 
L 122.773636 59.872854 
L 123.365455 59.551225 
L 123.957273 55.671422 
L 124.549091 58.686288 
L 125.140909 56.599521 
L 125.732727 46.939359 
L 126.916364 53.795042 
L 127.508182 50.612044 
L 128.1 45.689629 
L 129.283636 53.042773 
L 129.875455 52.868562 
L 130.467273 58.673312 
L 131.059091 58.446542 
L 131.650909 53.418371 
L 132.242727 55.085818 
L 132.834545 59.577247 
L 133.426364 52.739199 
L 134.018182 56.329188 
L 134.61 57.513899 
L 135.793636 51.78791 
L 136.385455 51.164367 
L 136.977273 48.277152 
L 137.569091 49.088621 
L 138.160909 53.566463 
L 138.752727 53.609579 
L 139.344545 50.718276 
L 139.936364 58.904563 
L 140.528182 52.928797 
L 141.12 55.611736 
L 141.711818 52.792332 
L 142.303636 56.093846 
L 142.895455 54.816612 
L 143.487273 52.923838 
L 144.079091 56.895185 
L 144.670909 52.92259 
L 145.262727 56.889213 
L 145.854545 55.60075 
L 146.446364 52.397472 
L 147.038182 54.962905 
L 147.63 50.541346 
L 148.221818 55.339771 
L 148.813636 61.674744 
L 149.405455 64.787856 
L 149.997273 56.307852 
L 150.589091 56.387457 
L 151.180909 48.064943 
L 151.772727 48.044441 
L 152.364545 51.494456 
L 152.956364 51.373923 
L 153.548182 50.106093 
L 154.14 51.313749 
L 154.731818 60.310828 
L 155.323636 52.959379 
L 155.915455 52.287217 
L 156.507273 50.463179 
L 157.099091 47.949902 
L 158.874545 55.648193 
L 159.466364 49.592995 
L 160.058182 56.032527 
L 160.65 51.398994 
L 161.241818 55.234936 
L 161.833636 54.118996 
L 162.425455 52.558708 
L 163.017273 46.644935 
L 163.609091 49.396426 
L 164.200909 45.005538 
L 164.792727 51.158355 
L 165.384545 51.596228 
L 165.976364 49.045251 
L 166.568182 50.844591 
L 167.16 45.432995 
L 167.751818 46.095515 
L 168.343636 47.432381 
L 168.935455 49.926843 
L 169.527273 45.751721 
L 170.119091 50.455734 
L 170.710909 51.588629 
L 171.302727 49.936404 
L 171.894545 46.74961 
L 172.486364 49.459203 
L 173.078182 46.572581 
L 173.67 48.850987 
L 175.445455 50.71551 
L 176.037273 52.544117 
L 176.629091 59.205397 
L 177.220909 52.665563 
L 177.812727 55.528261 
L 178.404545 53.690056 
L 178.996364 57.185116 
L 179.588182 53.442593 
L 180.18 51.457251 
L 180.771818 55.335466 
L 181.363636 54.899407 
L 181.955455 49.639772 
L 182.547273 54.471073 
L 183.139091 57.738965 
L 183.730909 52.615214 
L 184.322727 54.592863 
L 184.914545 59.652342 
L 185.506364 58.105987 
L 186.098182 49.283143 
L 186.69 52.949486 
L 187.281818 52.049586 
L 187.873636 53.543282 
L 188.465455 60.899057 
L 189.057273 55.817831 
L 189.649091 53.746879 
L 190.240909 56.349063 
L 190.832727 55.624653 
L 191.424545 52.300621 
L 192.016364 52.166994 
L 192.608182 53.609547 
L 193.791818 63.933098 
L 194.383636 61.918794 
L 194.975455 56.012003 
L 195.567273 52.003177 
L 196.159091 46.795024 
L 196.750909 51.509438 
L 197.342727 53.960378 
L 197.934545 49.756068 
L 198.526364 53.98191 
L 199.118182 54.083197 
L 199.71 56.582125 
L 200.301818 66.282385 
L 200.893636 65.928928 
L 201.485455 79.834696 
L 202.077273 73.887424 
L 202.669091 77.803207 
L 203.260909 77.670937 
L 203.852727 80.647654 
L 204.444545 70.866839 
L 205.036364 83.791069 
L 205.628182 80.669009 
L 206.22 85.741134 
L 206.811818 85.629726 
L 207.995455 89.298252 
L 208.587273 76.572394 
L 209.179091 83.699929 
L 209.770909 86.043698 
L 210.362727 92.670133 
L 210.954545 94.477961 
L 211.546364 95.148017 
L 212.138182 97.537407 
L 212.73 84.330469 
L 213.321818 93.433599 
L 213.913636 98.936911 
L 214.505455 97.300077 
L 215.097273 100.029538 
L 215.689091 98.555862 
L 216.280909 103.037698 
L 216.872727 82.906071 
L 217.464545 88.461943 
L 218.056364 91.156147 
L 218.648182 95.557634 
L 219.24 96.109225 
L 219.831818 98.448966 
L 220.423636 97.564785 
L 221.015455 87.415303 
L 221.607273 94.276298 
L 222.790909 104.066574 
L 223.382727 104.995886 
L 223.974545 108.99762 
L 224.566364 108.45697 
L 225.158182 93.148423 
L 225.75 102.221823 
L 226.341818 106.074469 
L 226.933636 104.39546 
L 227.525455 107.817635 
L 228.117273 107.351574 
L 228.709091 112.654831 
L 229.300909 98.836422 
L 229.892727 107.565413 
L 230.484545 108.288331 
L 231.076364 117.226604 
L 231.668182 114.47221 
L 232.26 115.049327 
L 232.851818 116.946607 
L 233.443636 95.820236 
L 234.035455 105.503699 
L 234.627273 110.747368 
L 235.219091 107.157583 
L 235.810909 105.897091 
L 236.402727 111.572863 
L 236.994545 111.94421 
L 237.586364 96.695279 
L 238.178182 104.649644 
L 238.77 109.253217 
L 239.361818 118.966808 
L 239.953636 113.059467 
L 240.545455 116.181457 
L 241.137273 117.172263 
L 241.729091 97.840615 
L 242.320909 104.314268 
L 242.912727 112.324036 
L 243.504545 116.144577 
L 244.096364 113.357715 
L 244.688182 114.414558 
L 245.28 118.190992 
L 245.871818 100.89722 
L 246.463636 109.33575 
L 247.647273 112.78662 
L 248.239091 117.172055 
L 248.830909 113.953983 
L 249.422727 115.263874 
L 250.014545 103.244399 
L 250.606364 103.103659 
L 251.198182 102.760959 
L 251.79 111.567277 
L 252.381818 115.962751 
L 252.973636 113.976091 
L 253.565455 114.311173 
L 254.157273 100.161542 
L 254.749091 106.017648 
L 255.340909 108.853047 
L 255.932727 113.484338 
L 256.524545 120.462196 
L 257.116364 117.628138 
L 257.708182 118.738522 
L 258.3 97.340681 
L 258.891818 106.90195 
L 259.483636 111.066957 
L 260.075455 107.085107 
L 260.667273 112.79066 
L 261.259091 112.244619 
L 261.850909 116.602623 
L 262.442727 103.035699 
L 263.034545 109.092879 
L 263.626364 111.938516 
L 264.218182 116.633926 
L 264.81 118.206353 
L 265.401818 119.42857 
L 265.993636 115.189069 
L 266.585455 104.351446 
L 267.177273 111.641711 
L 267.769091 112.611879 
L 268.360909 113.826728 
L 268.952727 118.514402 
L 269.544545 117.429109 
L 270.136364 119.707829 
L 270.728182 112.140275 
L 271.32 107.517872 
L 271.911818 110.96642 
L 272.503636 112.252565 
L 273.095455 111.623397 
L 273.687273 115.491275 
L 274.279091 116.653746 
L 274.870909 119.724552 
L 275.462727 112.894663 
L 276.054545 118.244123 
L 276.646364 114.276551 
L 277.238182 114.256127 
L 277.83 117.282891 
L 278.421818 113.692241 
L 279.013636 112.28388 
L 279.605455 110.523748 
L 280.197273 113.467787 
L 280.789091 112.99723 
L 281.380909 116.415178 
L 281.972727 117.402733 
L 282.564545 117.426077 
L 283.156364 118.400296 
L 283.748182 116.160206 
L 284.34 118.951021 
L 284.931818 115.259644 
L 285.523636 115.1917 
L 286.115455 117.982753 
L 286.707273 114.039024 
L 287.299091 115.230138 
L 287.890909 118.619751 
L 288.482727 110.66851 
L 289.074545 117.528309 
L 289.666364 116.803386 
L 290.258182 118.616237 
L 291.441818 111.110745 
L 292.033636 110.251677 
L 292.625455 111.990937 
L 293.217273 116.789012 
L 293.809091 113.668669 
L 294.400909 113.291359 
L 294.992727 113.332872 
L 295.584545 115.430167 
L 296.176364 112.583695 
L 296.768182 112.56051 
L 297.36 113.043121 
L 297.951818 114.448496 
L 298.543636 112.906743 
L 299.135455 116.37984 
L 300.319091 106.969786 
L 300.910909 113.059611 
L 302.094545 114.124521 
L 302.686364 111.377838 
L 303.278182 116.042211 
L 303.87 115.898429 
L 305.053636 115.216456 
L 305.645455 118.629451 
L 306.237273 113.238789 
L 306.829091 116.994251 
L 307.420909 114.218622 
L 308.012727 118.631164 
L 308.604545 112.206017 
L 309.196364 111.043979 
L 309.788182 110.456364 
L 310.38 114.312278 
L 310.971818 116.701237 
L 311.563636 110.875752 
L 312.155455 116.475313 
L 312.747273 108.032888 
L 313.339091 110.027902 
L 313.930909 115.202508 
L 314.522727 111.561287 
L 315.114545 111.047368 
L 315.706364 108.992025 
L 316.298182 114.136652 
L 316.89 111.92037 
L 317.481818 115.484883 
L 318.073636 112.924672 
L 318.665455 111.529486 
L 319.257273 110.563782 
L 319.849091 110.411678 
L 320.440909 107.516255 
L 321.032727 107.986667 
L 321.624545 106.945556 
L 322.216364 113.195735 
L 322.808182 111.130989 
L 323.4 115.025059 
L 323.991818 113.836806 
L 325.175455 118.524187 
L 325.767273 118.281047 
L 326.359091 112.269756 
L 326.950909 115.837614 
L 327.542727 115.631399 
L 328.134545 109.151836 
L 328.726364 120.104338 
L 329.91 109.031739 
L 330.501818 114.621725 
L 331.093636 108.400886 
L 331.685455 110.421809 
L 332.277273 109.918389 
L 332.869091 113.140126 
L 333.460909 111.721691 
L 334.052727 119.427433 
L 334.644545 117.286896 
L 335.236364 112.25879 
L 335.828182 111.129906 
L 336.42 108.301591 
L 337.011818 112.112988 
L 337.603636 114.086133 
L 338.195455 114.814308 
L 338.787273 115.188936 
L 339.379091 114.056692 
L 340.562727 107.405266 
L 341.154545 110.950292 
L 341.746364 115.484118 
L 342.338182 111.558364 
L 342.93 113.024171 
L 343.521818 110.319828 
L 344.705455 112.989782 
L 345.297273 110.634911 
L 345.889091 116.922996 
L 346.480909 115.223739 
L 347.072727 111.900844 
L 347.664545 115.84554 
L 348.256364 114.514892 
L 348.848182 115.395219 
L 350.031818 106.816784 
L 350.623636 111.259289 
L 351.807273 112.00673 
L 352.399091 116.35333 
L 352.990909 111.355042 
L 353.582727 110.624536 
L 354.174545 113.844403 
L 354.766364 114.855303 
L 355.358182 111.032306 
L 355.95 109.608694 
L 356.541818 116.191975 
L 357.133636 108.72914 
L 357.725455 112.396474 
L 358.317273 112.133954 
L 358.909091 115.61967 
L 359.500909 114.08915 
L 360.092727 116.294132 
L 360.684545 112.791897 
L 361.276364 113.638401 
L 361.868182 115.424263 
L 362.46 114.724158 
L 363.051818 114.272395 
L 363.643636 112.438122 
L 364.235455 112.521011 
L 364.827273 108.070907 
L 365.419091 113.20664 
L 366.010909 114.03092 
L 366.602727 115.74037 
L 367.194545 109.12713 
L 367.786364 110.026777 
L 368.378182 117.010804 
L 368.97 115.084669 
L 369.561818 113.680539 
L 370.153636 110.945913 
L 370.745455 117.181543 
L 371.337273 116.860618 
L 371.929091 120.596182 
L 372.520909 119.460983 
L 373.112727 118.707284 
L 373.704545 113.677876 
L 374.296364 114.707163 
L 374.888182 114.004893 
L 375.48 113.853455 
L 376.071818 112.861055 
L 376.663636 115.604785 
L 377.255455 115.593612 
L 377.847273 116.808844 
L 378.439091 116.921856 
L 379.030909 116.78105 
L 379.622727 114.799207 
L 380.214545 119.237762 
L 380.806364 115.713808 
L 381.99 124.136609 
L 382.581818 119.438762 
L 383.173636 119.219832 
L 383.765455 108.362247 
L 384.357273 115.062885 
L 384.949091 114.614311 
L 385.540909 115.481011 
L 386.132727 110.310991 
L 386.724545 114.928691 
L 387.316364 113.449052 
L 387.908182 118.978287 
L 388.5 119.112239 
L 389.091818 121.852652 
L 389.683636 113.70468 
L 390.275455 116.253501 
L 390.867273 112.975508 
L 391.459091 111.564484 
L 392.050909 113.3722 
L 392.642727 110.703501 
L 393.234545 114.736172 
L 393.826364 113.057935 
L 394.418182 114.051569 
L 395.01 111.426953 
L 395.601818 114.437196 
L 396.193636 111.276351 
L 396.785455 114.857413 
L 397.377273 107.21501 
L 397.969091 114.874283 
L 398.560909 118.16028 
L 399.152727 117.556674 
L 399.744545 118.34554 
L 400.336364 113.751343 
L 400.928182 115.109791 
L 401.52 115.818777 
L 402.111818 112.046871 
L 402.703636 114.802727 
L 403.295455 110.200786 
L 403.887273 114.61903 
L 404.479091 111.473271 
L 405.070909 109.053783 
L 405.662727 109.930061 
L 406.254545 109.287378 
L 406.846364 110.838123 
L 407.438182 115.711111 
L 408.03 112.714357 
L 408.621818 115.801647 
L 409.213636 106.968079 
L 409.805455 109.704194 
L 410.397273 110.573873 
L 410.989091 114.287319 
L 412.172727 109.036964 
L 413.356364 117.120209 
L 413.948182 116.150885 
L 414.54 113.68427 
L 415.131818 114.561012 
L 415.723636 116.28721 
L 416.315455 115.775953 
L 416.907273 112.06145 
L 417.499091 111.46342 
L 418.682727 116.496626 
L 419.274545 117.433954 
L 419.866364 115.41055 
L 420.458182 117.127383 
L 421.05 119.959176 
L 421.641818 115.322018 
L 422.233636 111.699492 
L 422.825455 117.08889 
L 423.417273 117.389648 
L 424.009091 114.43391 
L 424.600909 116.929332 
L 425.192727 114.434469 
L 425.784545 116.346599 
L 426.376364 115.472953 
L 426.968182 113.875881 
L 427.56 110.269477 
L 428.151818 111.586809 
L 428.743636 108.485619 
L 429.335455 111.454443 
L 429.927273 111.399649 
L 430.519091 114.102108 
L 431.110909 116.218585 
L 431.702727 110.209478 
L 432.294545 106.477883 
L 432.886364 114.4291 
L 433.478182 116.703858 
L 434.07 109.161214 
L 434.661818 111.951743 
L 435.253636 113.760059 
L 435.845455 111.917578 
L 435.845455 111.917578 
" style="fill:none;stroke:#d62728;stroke-linecap:square;stroke-width:1.5;"/>
   </g>
   <g id="line2d_17"/>
   <g id="line2d_18"/>
   <g id="line2d_19"/>
   <g id="line2d_20"/>
   <g id="patch_3">
    <path d="M 63 192.24 
L 63 25.92 
" style="fill:none;stroke:#000000;stroke-linecap:square;stroke-linejoin:miter;stroke-width:0.8;"/>
   </g>
   <g id="patch_4">
    <path d="M 63 192.24 
L 453.6 192.24 
" style="fill:none;stroke:#000000;stroke-linecap:square;stroke-linejoin:miter;stroke-width:0.8;"/>
   </g>
   <g id="text_15">
    <!-- modeltype=full, labormarket=unbiased -->
    <g transform="translate(139.235625 19.92)scale(0.12 -0.12)">
     <defs>
      <path d="M 30.609375 48.390625 
Q 23.390625 48.390625 19.1875 42.75 
Q 14.984375 37.109375 14.984375 27.296875 
Q 14.984375 17.484375 19.15625 11.84375 
Q 23.34375 6.203125 30.609375 6.203125 
Q 37.796875 6.203125 41.984375 11.859375 
Q 46.1875 17.53125 46.1875 27.296875 
Q 46.1875 37.015625 41.984375 42.703125 
Q 37.796875 48.390625 30.609375 48.390625 
z
M 30.609375 56 
Q 42.328125 56 49.015625 48.375 
Q 55.71875 40.765625 55.71875 27.296875 
Q 55.71875 13.875 49.015625 6.21875 
Q 42.328125 -1.421875 30.609375 -1.421875 
Q 18.84375 -1.421875 12.171875 6.21875 
Q 5.515625 13.875 5.515625 27.296875 
Q 5.515625 40.765625 12.171875 48.375 
Q 18.84375 56 30.609375 56 
z
" id="DejaVuSans-111"/>
      <path d="M 45.40625 46.390625 
L 45.40625 75.984375 
L 54.390625 75.984375 
L 54.390625 0 
L 45.40625 0 
L 45.40625 8.203125 
Q 42.578125 3.328125 38.25 0.953125 
Q 33.9375 -1.421875 27.875 -1.421875 
Q 17.96875 -1.421875 11.734375 6.484375 
Q 5.515625 14.40625 5.515625 27.296875 
Q 5.515625 40.1875 11.734375 48.09375 
Q 17.96875 56 27.875 56 
Q 33.9375 56 38.25 53.625 
Q 42.578125 51.265625 45.40625 46.390625 
z
M 14.796875 27.296875 
Q 14.796875 17.390625 18.875 11.75 
Q 22.953125 6.109375 30.078125 6.109375 
Q 37.203125 6.109375 41.296875 11.75 
Q 45.40625 17.390625 45.40625 27.296875 
Q 45.40625 37.203125 41.296875 42.84375 
Q 37.203125 48.484375 30.078125 48.484375 
Q 22.953125 48.484375 18.875 42.84375 
Q 14.796875 37.203125 14.796875 27.296875 
z
" id="DejaVuSans-100"/>
      <path d="M 9.421875 75.984375 
L 18.40625 75.984375 
L 18.40625 0 
L 9.421875 0 
z
" id="DejaVuSans-108"/>
      <path d="M 32.171875 -5.078125 
Q 28.375 -14.84375 24.75 -17.8125 
Q 21.140625 -20.796875 15.09375 -20.796875 
L 7.90625 -20.796875 
L 7.90625 -13.28125 
L 13.1875 -13.28125 
Q 16.890625 -13.28125 18.9375 -11.515625 
Q 21 -9.765625 23.484375 -3.21875 
L 25.09375 0.875 
L 2.984375 54.6875 
L 12.5 54.6875 
L 29.59375 11.921875 
L 46.6875 54.6875 
L 56.203125 54.6875 
z
" id="DejaVuSans-121"/>
      <path d="M 18.109375 8.203125 
L 18.109375 -20.796875 
L 9.078125 -20.796875 
L 9.078125 54.6875 
L 18.109375 54.6875 
L 18.109375 46.390625 
Q 20.953125 51.265625 25.265625 53.625 
Q 29.59375 56 35.59375 56 
Q 45.5625 56 51.78125 48.09375 
Q 58.015625 40.1875 58.015625 27.296875 
Q 58.015625 14.40625 51.78125 6.484375 
Q 45.5625 -1.421875 35.59375 -1.421875 
Q 29.59375 -1.421875 25.265625 0.953125 
Q 20.953125 3.328125 18.109375 8.203125 
z
M 48.6875 27.296875 
Q 48.6875 37.203125 44.609375 42.84375 
Q 40.53125 48.484375 33.40625 48.484375 
Q 26.265625 48.484375 22.1875 42.84375 
Q 18.109375 37.203125 18.109375 27.296875 
Q 18.109375 17.390625 22.1875 11.75 
Q 26.265625 6.109375 33.40625 6.109375 
Q 40.53125 6.109375 44.609375 11.75 
Q 48.6875 17.390625 48.6875 27.296875 
z
" id="DejaVuSans-112"/>
      <path d="M 10.59375 45.40625 
L 73.1875 45.40625 
L 73.1875 37.203125 
L 10.59375 37.203125 
z
M 10.59375 25.484375 
L 73.1875 25.484375 
L 73.1875 17.1875 
L 10.59375 17.1875 
z
" id="DejaVuSans-61"/>
      <path d="M 37.109375 75.984375 
L 37.109375 68.5 
L 28.515625 68.5 
Q 23.6875 68.5 21.796875 66.546875 
Q 19.921875 64.59375 19.921875 59.515625 
L 19.921875 54.6875 
L 34.71875 54.6875 
L 34.71875 47.703125 
L 19.921875 47.703125 
L 19.921875 0 
L 10.890625 0 
L 10.890625 47.703125 
L 2.296875 47.703125 
L 2.296875 54.6875 
L 10.890625 54.6875 
L 10.890625 58.5 
Q 10.890625 67.625 15.140625 71.796875 
Q 19.390625 75.984375 28.609375 75.984375 
z
" id="DejaVuSans-102"/>
      <path d="M 8.5 21.578125 
L 8.5 54.6875 
L 17.484375 54.6875 
L 17.484375 21.921875 
Q 17.484375 14.15625 20.5 10.265625 
Q 23.53125 6.390625 29.59375 6.390625 
Q 36.859375 6.390625 41.078125 11.03125 
Q 45.3125 15.671875 45.3125 23.6875 
L 45.3125 54.6875 
L 54.296875 54.6875 
L 54.296875 0 
L 45.3125 0 
L 45.3125 8.40625 
Q 42.046875 3.421875 37.71875 1 
Q 33.40625 -1.421875 27.6875 -1.421875 
Q 18.265625 -1.421875 13.375 4.4375 
Q 8.5 10.296875 8.5 21.578125 
z
M 31.109375 56 
z
" id="DejaVuSans-117"/>
      <path d="M 11.71875 12.40625 
L 22.015625 12.40625 
L 22.015625 4 
L 14.015625 -11.625 
L 7.71875 -11.625 
L 11.71875 4 
z
" id="DejaVuSans-44"/>
      <path id="DejaVuSans-32"/>
      <path d="M 34.28125 27.484375 
Q 23.390625 27.484375 19.1875 25 
Q 14.984375 22.515625 14.984375 16.5 
Q 14.984375 11.71875 18.140625 8.90625 
Q 21.296875 6.109375 26.703125 6.109375 
Q 34.1875 6.109375 38.703125 11.40625 
Q 43.21875 16.703125 43.21875 25.484375 
L 43.21875 27.484375 
z
M 52.203125 31.203125 
L 52.203125 0 
L 43.21875 0 
L 43.21875 8.296875 
Q 40.140625 3.328125 35.546875 0.953125 
Q 30.953125 -1.421875 24.3125 -1.421875 
Q 15.921875 -1.421875 10.953125 3.296875 
Q 6 8.015625 6 15.921875 
Q 6 25.140625 12.171875 29.828125 
Q 18.359375 34.515625 30.609375 34.515625 
L 43.21875 34.515625 
L 43.21875 35.40625 
Q 43.21875 41.609375 39.140625 45 
Q 35.0625 48.390625 27.6875 48.390625 
Q 23 48.390625 18.546875 47.265625 
Q 14.109375 46.140625 10.015625 43.890625 
L 10.015625 52.203125 
Q 14.9375 54.109375 19.578125 55.046875 
Q 24.21875 56 28.609375 56 
Q 40.484375 56 46.34375 49.84375 
Q 52.203125 43.703125 52.203125 31.203125 
z
" id="DejaVuSans-97"/>
      <path d="M 48.6875 27.296875 
Q 48.6875 37.203125 44.609375 42.84375 
Q 40.53125 48.484375 33.40625 48.484375 
Q 26.265625 48.484375 22.1875 42.84375 
Q 18.109375 37.203125 18.109375 27.296875 
Q 18.109375 17.390625 22.1875 11.75 
Q 26.265625 6.109375 33.40625 6.109375 
Q 40.53125 6.109375 44.609375 11.75 
Q 48.6875 17.390625 48.6875 27.296875 
z
M 18.109375 46.390625 
Q 20.953125 51.265625 25.265625 53.625 
Q 29.59375 56 35.59375 56 
Q 45.5625 56 51.78125 48.09375 
Q 58.015625 40.1875 58.015625 27.296875 
Q 58.015625 14.40625 51.78125 6.484375 
Q 45.5625 -1.421875 35.59375 -1.421875 
Q 29.59375 -1.421875 25.265625 0.953125 
Q 20.953125 3.328125 18.109375 8.203125 
L 18.109375 0 
L 9.078125 0 
L 9.078125 75.984375 
L 18.109375 75.984375 
z
" id="DejaVuSans-98"/>
      <path d="M 41.109375 46.296875 
Q 39.59375 47.171875 37.8125 47.578125 
Q 36.03125 48 33.890625 48 
Q 26.265625 48 22.1875 43.046875 
Q 18.109375 38.09375 18.109375 28.8125 
L 18.109375 0 
L 9.078125 0 
L 9.078125 54.6875 
L 18.109375 54.6875 
L 18.109375 46.1875 
Q 20.953125 51.171875 25.484375 53.578125 
Q 30.03125 56 36.53125 56 
Q 37.453125 56 38.578125 55.875 
Q 39.703125 55.765625 41.0625 55.515625 
z
" id="DejaVuSans-114"/>
      <path d="M 9.078125 75.984375 
L 18.109375 75.984375 
L 18.109375 31.109375 
L 44.921875 54.6875 
L 56.390625 54.6875 
L 27.390625 29.109375 
L 57.625 0 
L 45.90625 0 
L 18.109375 26.703125 
L 18.109375 0 
L 9.078125 0 
z
" id="DejaVuSans-107"/>
      <path d="M 54.890625 33.015625 
L 54.890625 0 
L 45.90625 0 
L 45.90625 32.71875 
Q 45.90625 40.484375 42.875 44.328125 
Q 39.84375 48.1875 33.796875 48.1875 
Q 26.515625 48.1875 22.3125 43.546875 
Q 18.109375 38.921875 18.109375 30.90625 
L 18.109375 0 
L 9.078125 0 
L 9.078125 54.6875 
L 18.109375 54.6875 
L 18.109375 46.1875 
Q 21.34375 51.125 25.703125 53.5625 
Q 30.078125 56 35.796875 56 
Q 45.21875 56 50.046875 50.171875 
Q 54.890625 44.34375 54.890625 33.015625 
z
" id="DejaVuSans-110"/>
      <path d="M 44.28125 53.078125 
L 44.28125 44.578125 
Q 40.484375 46.53125 36.375 47.5 
Q 32.28125 48.484375 27.875 48.484375 
Q 21.1875 48.484375 17.84375 46.4375 
Q 14.5 44.390625 14.5 40.28125 
Q 14.5 37.15625 16.890625 35.375 
Q 19.28125 33.59375 26.515625 31.984375 
L 29.59375 31.296875 
Q 39.15625 29.25 43.1875 25.515625 
Q 47.21875 21.78125 47.21875 15.09375 
Q 47.21875 7.46875 41.1875 3.015625 
Q 35.15625 -1.421875 24.609375 -1.421875 
Q 20.21875 -1.421875 15.453125 -0.5625 
Q 10.6875 0.296875 5.421875 2 
L 5.421875 11.28125 
Q 10.40625 8.6875 15.234375 7.390625 
Q 20.0625 6.109375 24.8125 6.109375 
Q 31.15625 6.109375 34.5625 8.28125 
Q 37.984375 10.453125 37.984375 14.40625 
Q 37.984375 18.0625 35.515625 20.015625 
Q 33.0625 21.96875 24.703125 23.78125 
L 21.578125 24.515625 
Q 13.234375 26.265625 9.515625 29.90625 
Q 5.8125 33.546875 5.8125 39.890625 
Q 5.8125 47.609375 11.28125 51.796875 
Q 16.75 56 26.8125 56 
Q 31.78125 56 36.171875 55.265625 
Q 40.578125 54.546875 44.28125 53.078125 
z
" id="DejaVuSans-115"/>
     </defs>
     <use xlink:href="#DejaVuSans-109"/>
     <use x="97.412109" xlink:href="#DejaVuSans-111"/>
     <use x="158.59375" xlink:href="#DejaVuSans-100"/>
     <use x="222.070312" xlink:href="#DejaVuSans-101"/>
     <use x="283.59375" xlink:href="#DejaVuSans-108"/>
     <use x="311.376953" xlink:href="#DejaVuSans-116"/>
     <use x="350.585938" xlink:href="#DejaVuSans-121"/>
     <use x="409.765625" xlink:href="#DejaVuSans-112"/>
     <use x="473.242188" xlink:href="#DejaVuSans-101"/>
     <use x="534.765625" xlink:href="#DejaVuSans-61"/>
     <use x="618.554688" xlink:href="#DejaVuSans-102"/>
     <use x="653.759766" xlink:href="#DejaVuSans-117"/>
     <use x="717.138672" xlink:href="#DejaVuSans-108"/>
     <use x="744.921875" xlink:href="#DejaVuSans-108"/>
     <use x="772.705078" xlink:href="#DejaVuSans-44"/>
     <use x="804.492188" xlink:href="#DejaVuSans-32"/>
     <use x="836.279297" xlink:href="#DejaVuSans-108"/>
     <use x="864.0625" xlink:href="#DejaVuSans-97"/>
     <use x="925.341797" xlink:href="#DejaVuSans-98"/>
     <use x="988.818359" xlink:href="#DejaVuSans-111"/>
     <use x="1050" xlink:href="#DejaVuSans-114"/>
     <use x="1089.363281" xlink:href="#DejaVuSans-109"/>
     <use x="1186.775391" xlink:href="#DejaVuSans-97"/>
     <use x="1248.054688" xlink:href="#DejaVuSans-114"/>
     <use x="1289.167969" xlink:href="#DejaVuSans-107"/>
     <use x="1343.453125" xlink:href="#DejaVuSans-101"/>
     <use x="1404.976562" xlink:href="#DejaVuSans-116"/>
     <use x="1444.185547" xlink:href="#DejaVuSans-61"/>
     <use x="1527.974609" xlink:href="#DejaVuSans-117"/>
     <use x="1591.353516" xlink:href="#DejaVuSans-110"/>
     <use x="1654.732422" xlink:href="#DejaVuSans-98"/>
     <use x="1718.208984" xlink:href="#DejaVuSans-105"/>
     <use x="1745.992188" xlink:href="#DejaVuSans-97"/>
     <use x="1807.271484" xlink:href="#DejaVuSans-115"/>
     <use x="1859.371094" xlink:href="#DejaVuSans-101"/>
     <use x="1920.894531" xlink:href="#DejaVuSans-100"/>
    </g>
   </g>
   <g id="legend_1">
    <g id="patch_5">
     <path d="M 70 187.24 
L 235.407813 187.24 
Q 237.407813 187.24 237.407813 185.24 
L 237.407813 112.57125 
Q 237.407813 110.57125 235.407813 110.57125 
L 70 110.57125 
Q 68 110.57125 68 112.57125 
L 68 185.24 
Q 68 187.24 70 187.24 
z
" style="fill:#ffffff;opacity:0.8;stroke:#cccccc;stroke-linejoin:miter;"/>
    </g>
    <g id="text_16">
     <!-- scenario -->
     <g transform="translate(131.536719 122.169687)scale(0.1 -0.1)">
      <defs>
       <path d="M 48.78125 52.59375 
L 48.78125 44.1875 
Q 44.96875 46.296875 41.140625 47.34375 
Q 37.3125 48.390625 33.40625 48.390625 
Q 24.65625 48.390625 19.8125 42.84375 
Q 14.984375 37.3125 14.984375 27.296875 
Q 14.984375 17.28125 19.8125 11.734375 
Q 24.65625 6.203125 33.40625 6.203125 
Q 37.3125 6.203125 41.140625 7.25 
Q 44.96875 8.296875 48.78125 10.40625 
L 48.78125 2.09375 
Q 45.015625 0.34375 40.984375 -0.53125 
Q 36.96875 -1.421875 32.421875 -1.421875 
Q 20.0625 -1.421875 12.78125 6.34375 
Q 5.515625 14.109375 5.515625 27.296875 
Q 5.515625 40.671875 12.859375 48.328125 
Q 20.21875 56 33.015625 56 
Q 37.15625 56 41.109375 55.140625 
Q 45.0625 54.296875 48.78125 52.59375 
z
" id="DejaVuSans-99"/>
      </defs>
      <use xlink:href="#DejaVuSans-115"/>
      <use x="52.099609" xlink:href="#DejaVuSans-99"/>
      <use x="107.080078" xlink:href="#DejaVuSans-101"/>
      <use x="168.603516" xlink:href="#DejaVuSans-110"/>
      <use x="231.982422" xlink:href="#DejaVuSans-97"/>
      <use x="293.261719" xlink:href="#DejaVuSans-114"/>
      <use x="334.375" xlink:href="#DejaVuSans-105"/>
      <use x="362.158203" xlink:href="#DejaVuSans-111"/>
     </g>
    </g>
    <g id="line2d_21">
     <path d="M 72 133.347812 
L 92 133.347812 
" style="fill:none;stroke:#1f77b4;stroke-linecap:square;stroke-width:1.5;"/>
    </g>
    <g id="line2d_22"/>
    <g id="text_17">
     <!-- onlylow -->
     <g transform="translate(100 136.847812)scale(0.1 -0.1)">
      <defs>
       <path d="M 4.203125 54.6875 
L 13.1875 54.6875 
L 24.421875 12.015625 
L 35.59375 54.6875 
L 46.1875 54.6875 
L 57.421875 12.015625 
L 68.609375 54.6875 
L 77.59375 54.6875 
L 63.28125 0 
L 52.6875 0 
L 40.921875 44.828125 
L 29.109375 0 
L 18.5 0 
z
" id="DejaVuSans-119"/>
      </defs>
      <use xlink:href="#DejaVuSans-111"/>
      <use x="61.181641" xlink:href="#DejaVuSans-110"/>
      <use x="124.560547" xlink:href="#DejaVuSans-108"/>
      <use x="152.34375" xlink:href="#DejaVuSans-121"/>
      <use x="211.523438" xlink:href="#DejaVuSans-108"/>
      <use x="239.306641" xlink:href="#DejaVuSans-111"/>
      <use x="300.488281" xlink:href="#DejaVuSans-119"/>
     </g>
    </g>
    <g id="line2d_23">
     <path d="M 72 148.025937 
L 92 148.025937 
" style="fill:none;stroke:#ff7f0e;stroke-linecap:square;stroke-width:1.5;"/>
    </g>
    <g id="line2d_24"/>
    <g id="text_18">
     <!-- onlyhigh -->
     <g transform="translate(100 151.525937)scale(0.1 -0.1)">
      <defs>
       <path d="M 54.890625 33.015625 
L 54.890625 0 
L 45.90625 0 
L 45.90625 32.71875 
Q 45.90625 40.484375 42.875 44.328125 
Q 39.84375 48.1875 33.796875 48.1875 
Q 26.515625 48.1875 22.3125 43.546875 
Q 18.109375 38.921875 18.109375 30.90625 
L 18.109375 0 
L 9.078125 0 
L 9.078125 75.984375 
L 18.109375 75.984375 
L 18.109375 46.1875 
Q 21.34375 51.125 25.703125 53.5625 
Q 30.078125 56 35.796875 56 
Q 45.21875 56 50.046875 50.171875 
Q 54.890625 44.34375 54.890625 33.015625 
z
" id="DejaVuSans-104"/>
       <path d="M 45.40625 27.984375 
Q 45.40625 37.75 41.375 43.109375 
Q 37.359375 48.484375 30.078125 48.484375 
Q 22.859375 48.484375 18.828125 43.109375 
Q 14.796875 37.75 14.796875 27.984375 
Q 14.796875 18.265625 18.828125 12.890625 
Q 22.859375 7.515625 30.078125 7.515625 
Q 37.359375 7.515625 41.375 12.890625 
Q 45.40625 18.265625 45.40625 27.984375 
z
M 54.390625 6.78125 
Q 54.390625 -7.171875 48.1875 -13.984375 
Q 42 -20.796875 29.203125 -20.796875 
Q 24.46875 -20.796875 20.265625 -20.09375 
Q 16.0625 -19.390625 12.109375 -17.921875 
L 12.109375 -9.1875 
Q 16.0625 -11.328125 19.921875 -12.34375 
Q 23.78125 -13.375 27.78125 -13.375 
Q 36.625 -13.375 41.015625 -8.765625 
Q 45.40625 -4.15625 45.40625 5.171875 
L 45.40625 9.625 
Q 42.625 4.78125 38.28125 2.390625 
Q 33.9375 0 27.875 0 
Q 17.828125 0 11.671875 7.65625 
Q 5.515625 15.328125 5.515625 27.984375 
Q 5.515625 40.671875 11.671875 48.328125 
Q 17.828125 56 27.875 56 
Q 33.9375 56 38.28125 53.609375 
Q 42.625 51.21875 45.40625 46.390625 
L 45.40625 54.6875 
L 54.390625 54.6875 
z
" id="DejaVuSans-103"/>
      </defs>
      <use xlink:href="#DejaVuSans-111"/>
      <use x="61.181641" xlink:href="#DejaVuSans-110"/>
      <use x="124.560547" xlink:href="#DejaVuSans-108"/>
      <use x="152.34375" xlink:href="#DejaVuSans-121"/>
      <use x="211.523438" xlink:href="#DejaVuSans-104"/>
      <use x="274.902344" xlink:href="#DejaVuSans-105"/>
      <use x="302.685547" xlink:href="#DejaVuSans-103"/>
      <use x="366.162109" xlink:href="#DejaVuSans-104"/>
     </g>
    </g>
    <g id="line2d_25">
     <path d="M 72 162.704062 
L 92 162.704062 
" style="fill:none;stroke:#2ca02c;stroke-linecap:square;stroke-width:1.5;"/>
    </g>
    <g id="line2d_26"/>
    <g id="text_19">
     <!-- balanced -->
     <g transform="translate(100 166.204062)scale(0.1 -0.1)">
      <use xlink:href="#DejaVuSans-98"/>
      <use x="63.476562" xlink:href="#DejaVuSans-97"/>
      <use x="124.755859" xlink:href="#DejaVuSans-108"/>
      <use x="152.539062" xlink:href="#DejaVuSans-97"/>
      <use x="213.818359" xlink:href="#DejaVuSans-110"/>
      <use x="277.197266" xlink:href="#DejaVuSans-99"/>
      <use x="332.177734" xlink:href="#DejaVuSans-101"/>
      <use x="393.701172" xlink:href="#DejaVuSans-100"/>
     </g>
    </g>
    <g id="line2d_27">
     <path d="M 72 177.382187 
L 92 177.382187 
" style="fill:none;stroke:#d62728;stroke-linecap:square;stroke-width:1.5;"/>
    </g>
    <g id="line2d_28"/>
    <g id="text_20">
     <!-- balanced_errors_penalized -->
     <g transform="translate(100 180.882187)scale(0.1 -0.1)">
      <defs>
       <path d="M 50.984375 -16.609375 
L 50.984375 -23.578125 
L -0.984375 -23.578125 
L -0.984375 -16.609375 
z
" id="DejaVuSans-95"/>
       <path d="M 5.515625 54.6875 
L 48.1875 54.6875 
L 48.1875 46.484375 
L 14.40625 7.171875 
L 48.1875 7.171875 
L 48.1875 0 
L 4.296875 0 
L 4.296875 8.203125 
L 38.09375 47.515625 
L 5.515625 47.515625 
z
" id="DejaVuSans-122"/>
      </defs>
      <use xlink:href="#DejaVuSans-98"/>
      <use x="63.476562" xlink:href="#DejaVuSans-97"/>
      <use x="124.755859" xlink:href="#DejaVuSans-108"/>
      <use x="152.539062" xlink:href="#DejaVuSans-97"/>
      <use x="213.818359" xlink:href="#DejaVuSans-110"/>
      <use x="277.197266" xlink:href="#DejaVuSans-99"/>
      <use x="332.177734" xlink:href="#DejaVuSans-101"/>
      <use x="393.701172" xlink:href="#DejaVuSans-100"/>
      <use x="457.177734" xlink:href="#DejaVuSans-95"/>
      <use x="507.177734" xlink:href="#DejaVuSans-101"/>
      <use x="568.701172" xlink:href="#DejaVuSans-114"/>
      <use x="608.064453" xlink:href="#DejaVuSans-114"/>
      <use x="646.927734" xlink:href="#DejaVuSans-111"/>
      <use x="708.109375" xlink:href="#DejaVuSans-114"/>
      <use x="749.222656" xlink:href="#DejaVuSans-115"/>
      <use x="801.322266" xlink:href="#DejaVuSans-95"/>
      <use x="851.322266" xlink:href="#DejaVuSans-112"/>
      <use x="914.798828" xlink:href="#DejaVuSans-101"/>
      <use x="976.322266" xlink:href="#DejaVuSans-110"/>
      <use x="1039.701172" xlink:href="#DejaVuSans-97"/>
      <use x="1100.980469" xlink:href="#DejaVuSans-108"/>
      <use x="1128.763672" xlink:href="#DejaVuSans-105"/>
      <use x="1156.546875" xlink:href="#DejaVuSans-122"/>
      <use x="1209.037109" xlink:href="#DejaVuSans-101"/>
      <use x="1270.560547" xlink:href="#DejaVuSans-100"/>
     </g>
    </g>
   </g>
  </g>
 </g>
 <defs>
  <clipPath id="p0994097835">
   <rect height="166.32" width="390.6" x="63" y="25.92"/>
  </clipPath>
 </defs>
</svg>
