<?xml version="1.0" encoding="utf-8" standalone="no"?>
<!DOCTYPE svg PUBLIC "-//W3C//DTD SVG 1.1//EN"
  "http://www.w3.org/Graphics/SVG/1.1/DTD/svg11.dtd">
<!-- Created with matplotlib (https://matplotlib.org/) -->
<svg height="216pt" version="1.1" viewBox="0 0 504 216" width="504pt" xmlns="http://www.w3.org/2000/svg" xmlns:xlink="http://www.w3.org/1999/xlink">
 <metadata>
  <rdf:RDF xmlns:cc="http://creativecommons.org/ns#" xmlns:dc="http://purl.org/dc/elements/1.1/" xmlns:rdf="http://www.w3.org/1999/02/22-rdf-syntax-ns#">
   <cc:Work>
    <dc:type rdf:resource="http://purl.org/dc/dcmitype/StillImage"/>
    <dc:date>2021-11-19T12:55:00.633281</dc:date>
    <dc:format>image/svg+xml</dc:format>
    <dc:creator>
     <cc:Agent>
      <dc:title>Matplotlib v3.3.4, https://matplotlib.org/</dc:title>
     </cc:Agent>
    </dc:creator>
   </cc:Work>
  </rdf:RDF>
 </metadata>
 <defs>
  <style type="text/css">*{stroke-linecap:butt;stroke-linejoin:round;}</style>
 </defs>
 <g id="figure_1">
  <g id="patch_1">
   <path d="M 0 216 
L 504 216 
L 504 0 
L 0 0 
z
" style="fill:#ffffff;"/>
  </g>
  <g id="axes_1">
   <g id="patch_2">
    <path d="M 63 192.24 
L 453.6 192.24 
L 453.6 25.92 
L 63 25.92 
z
" style="fill:#ffffff;"/>
   </g>
   <g id="matplotlib.axis_1">
    <g id="xtick_1">
     <g id="line2d_1">
      <defs>
       <path d="M 0 0 
L 0 3.5 
" id="m2f26d99287" style="stroke:#000000;stroke-width:0.8;"/>
      </defs>
      <g>
       <use style="stroke:#000000;stroke-width:0.8;" x="81.346364" xlink:href="#m2f26d99287" y="192.24"/>
      </g>
     </g>
     <g id="text_1">
      <!-- 200 -->
      <g transform="translate(71.802614 206.838437)scale(0.1 -0.1)">
       <defs>
        <path d="M 19.1875 8.296875 
L 53.609375 8.296875 
L 53.609375 0 
L 7.328125 0 
L 7.328125 8.296875 
Q 12.9375 14.109375 22.625 23.890625 
Q 32.328125 33.6875 34.8125 36.53125 
Q 39.546875 41.84375 41.421875 45.53125 
Q 43.3125 49.21875 43.3125 52.78125 
Q 43.3125 58.59375 39.234375 62.25 
Q 35.15625 65.921875 28.609375 65.921875 
Q 23.96875 65.921875 18.8125 64.3125 
Q 13.671875 62.703125 7.8125 59.421875 
L 7.8125 69.390625 
Q 13.765625 71.78125 18.9375 73 
Q 24.125 74.21875 28.421875 74.21875 
Q 39.75 74.21875 46.484375 68.546875 
Q 53.21875 62.890625 53.21875 53.421875 
Q 53.21875 48.921875 51.53125 44.890625 
Q 49.859375 40.875 45.40625 35.40625 
Q 44.1875 33.984375 37.640625 27.21875 
Q 31.109375 20.453125 19.1875 8.296875 
z
" id="DejaVuSans-50"/>
        <path d="M 31.78125 66.40625 
Q 24.171875 66.40625 20.328125 58.90625 
Q 16.5 51.421875 16.5 36.375 
Q 16.5 21.390625 20.328125 13.890625 
Q 24.171875 6.390625 31.78125 6.390625 
Q 39.453125 6.390625 43.28125 13.890625 
Q 47.125 21.390625 47.125 36.375 
Q 47.125 51.421875 43.28125 58.90625 
Q 39.453125 66.40625 31.78125 66.40625 
z
M 31.78125 74.21875 
Q 44.046875 74.21875 50.515625 64.515625 
Q 56.984375 54.828125 56.984375 36.375 
Q 56.984375 17.96875 50.515625 8.265625 
Q 44.046875 -1.421875 31.78125 -1.421875 
Q 19.53125 -1.421875 13.0625 8.265625 
Q 6.59375 17.96875 6.59375 36.375 
Q 6.59375 54.828125 13.0625 64.515625 
Q 19.53125 74.21875 31.78125 74.21875 
z
" id="DejaVuSans-48"/>
       </defs>
       <use xlink:href="#DejaVuSans-50"/>
       <use x="63.623047" xlink:href="#DejaVuSans-48"/>
       <use x="127.246094" xlink:href="#DejaVuSans-48"/>
      </g>
     </g>
    </g>
    <g id="xtick_2">
     <g id="line2d_2">
      <g>
       <use style="stroke:#000000;stroke-width:0.8;" x="140.528182" xlink:href="#m2f26d99287" y="192.24"/>
      </g>
     </g>
     <g id="text_2">
      <!-- 300 -->
      <g transform="translate(130.984432 206.838437)scale(0.1 -0.1)">
       <defs>
        <path d="M 40.578125 39.3125 
Q 47.65625 37.796875 51.625 33 
Q 55.609375 28.21875 55.609375 21.1875 
Q 55.609375 10.40625 48.1875 4.484375 
Q 40.765625 -1.421875 27.09375 -1.421875 
Q 22.515625 -1.421875 17.65625 -0.515625 
Q 12.796875 0.390625 7.625 2.203125 
L 7.625 11.71875 
Q 11.71875 9.328125 16.59375 8.109375 
Q 21.484375 6.890625 26.8125 6.890625 
Q 36.078125 6.890625 40.9375 10.546875 
Q 45.796875 14.203125 45.796875 21.1875 
Q 45.796875 27.640625 41.28125 31.265625 
Q 36.765625 34.90625 28.71875 34.90625 
L 20.21875 34.90625 
L 20.21875 43.015625 
L 29.109375 43.015625 
Q 36.375 43.015625 40.234375 45.921875 
Q 44.09375 48.828125 44.09375 54.296875 
Q 44.09375 59.90625 40.109375 62.90625 
Q 36.140625 65.921875 28.71875 65.921875 
Q 24.65625 65.921875 20.015625 65.03125 
Q 15.375 64.15625 9.8125 62.3125 
L 9.8125 71.09375 
Q 15.4375 72.65625 20.34375 73.4375 
Q 25.25 74.21875 29.59375 74.21875 
Q 40.828125 74.21875 47.359375 69.109375 
Q 53.90625 64.015625 53.90625 55.328125 
Q 53.90625 49.265625 50.4375 45.09375 
Q 46.96875 40.921875 40.578125 39.3125 
z
" id="DejaVuSans-51"/>
       </defs>
       <use xlink:href="#DejaVuSans-51"/>
       <use x="63.623047" xlink:href="#DejaVuSans-48"/>
       <use x="127.246094" xlink:href="#DejaVuSans-48"/>
      </g>
     </g>
    </g>
    <g id="xtick_3">
     <g id="line2d_3">
      <g>
       <use style="stroke:#000000;stroke-width:0.8;" x="199.71" xlink:href="#m2f26d99287" y="192.24"/>
      </g>
     </g>
     <g id="text_3">
      <!-- 400 -->
      <g transform="translate(190.16625 206.838437)scale(0.1 -0.1)">
       <defs>
        <path d="M 37.796875 64.3125 
L 12.890625 25.390625 
L 37.796875 25.390625 
z
M 35.203125 72.90625 
L 47.609375 72.90625 
L 47.609375 25.390625 
L 58.015625 25.390625 
L 58.015625 17.1875 
L 47.609375 17.1875 
L 47.609375 0 
L 37.796875 0 
L 37.796875 17.1875 
L 4.890625 17.1875 
L 4.890625 26.703125 
z
" id="DejaVuSans-52"/>
       </defs>
       <use xlink:href="#DejaVuSans-52"/>
       <use x="63.623047" xlink:href="#DejaVuSans-48"/>
       <use x="127.246094" xlink:href="#DejaVuSans-48"/>
      </g>
     </g>
    </g>
    <g id="xtick_4">
     <g id="line2d_4">
      <g>
       <use style="stroke:#000000;stroke-width:0.8;" x="258.891818" xlink:href="#m2f26d99287" y="192.24"/>
      </g>
     </g>
     <g id="text_4">
      <!-- 500 -->
      <g transform="translate(249.348068 206.838437)scale(0.1 -0.1)">
       <defs>
        <path d="M 10.796875 72.90625 
L 49.515625 72.90625 
L 49.515625 64.59375 
L 19.828125 64.59375 
L 19.828125 46.734375 
Q 21.96875 47.46875 24.109375 47.828125 
Q 26.265625 48.1875 28.421875 48.1875 
Q 40.625 48.1875 47.75 41.5 
Q 54.890625 34.8125 54.890625 23.390625 
Q 54.890625 11.625 47.5625 5.09375 
Q 40.234375 -1.421875 26.90625 -1.421875 
Q 22.3125 -1.421875 17.546875 -0.640625 
Q 12.796875 0.140625 7.71875 1.703125 
L 7.71875 11.625 
Q 12.109375 9.234375 16.796875 8.0625 
Q 21.484375 6.890625 26.703125 6.890625 
Q 35.15625 6.890625 40.078125 11.328125 
Q 45.015625 15.765625 45.015625 23.390625 
Q 45.015625 31 40.078125 35.4375 
Q 35.15625 39.890625 26.703125 39.890625 
Q 22.75 39.890625 18.8125 39.015625 
Q 14.890625 38.140625 10.796875 36.28125 
z
" id="DejaVuSans-53"/>
       </defs>
       <use xlink:href="#DejaVuSans-53"/>
       <use x="63.623047" xlink:href="#DejaVuSans-48"/>
       <use x="127.246094" xlink:href="#DejaVuSans-48"/>
      </g>
     </g>
    </g>
    <g id="xtick_5">
     <g id="line2d_5">
      <g>
       <use style="stroke:#000000;stroke-width:0.8;" x="318.073636" xlink:href="#m2f26d99287" y="192.24"/>
      </g>
     </g>
     <g id="text_5">
      <!-- 600 -->
      <g transform="translate(308.529886 206.838437)scale(0.1 -0.1)">
       <defs>
        <path d="M 33.015625 40.375 
Q 26.375 40.375 22.484375 35.828125 
Q 18.609375 31.296875 18.609375 23.390625 
Q 18.609375 15.53125 22.484375 10.953125 
Q 26.375 6.390625 33.015625 6.390625 
Q 39.65625 6.390625 43.53125 10.953125 
Q 47.40625 15.53125 47.40625 23.390625 
Q 47.40625 31.296875 43.53125 35.828125 
Q 39.65625 40.375 33.015625 40.375 
z
M 52.59375 71.296875 
L 52.59375 62.3125 
Q 48.875 64.0625 45.09375 64.984375 
Q 41.3125 65.921875 37.59375 65.921875 
Q 27.828125 65.921875 22.671875 59.328125 
Q 17.53125 52.734375 16.796875 39.40625 
Q 19.671875 43.65625 24.015625 45.921875 
Q 28.375 48.1875 33.59375 48.1875 
Q 44.578125 48.1875 50.953125 41.515625 
Q 57.328125 34.859375 57.328125 23.390625 
Q 57.328125 12.15625 50.6875 5.359375 
Q 44.046875 -1.421875 33.015625 -1.421875 
Q 20.359375 -1.421875 13.671875 8.265625 
Q 6.984375 17.96875 6.984375 36.375 
Q 6.984375 53.65625 15.1875 63.9375 
Q 23.390625 74.21875 37.203125 74.21875 
Q 40.921875 74.21875 44.703125 73.484375 
Q 48.484375 72.75 52.59375 71.296875 
z
" id="DejaVuSans-54"/>
       </defs>
       <use xlink:href="#DejaVuSans-54"/>
       <use x="63.623047" xlink:href="#DejaVuSans-48"/>
       <use x="127.246094" xlink:href="#DejaVuSans-48"/>
      </g>
     </g>
    </g>
    <g id="xtick_6">
     <g id="line2d_6">
      <g>
       <use style="stroke:#000000;stroke-width:0.8;" x="377.255455" xlink:href="#m2f26d99287" y="192.24"/>
      </g>
     </g>
     <g id="text_6">
      <!-- 700 -->
      <g transform="translate(367.711705 206.838437)scale(0.1 -0.1)">
       <defs>
        <path d="M 8.203125 72.90625 
L 55.078125 72.90625 
L 55.078125 68.703125 
L 28.609375 0 
L 18.3125 0 
L 43.21875 64.59375 
L 8.203125 64.59375 
z
" id="DejaVuSans-55"/>
       </defs>
       <use xlink:href="#DejaVuSans-55"/>
       <use x="63.623047" xlink:href="#DejaVuSans-48"/>
       <use x="127.246094" xlink:href="#DejaVuSans-48"/>
      </g>
     </g>
    </g>
    <g id="xtick_7">
     <g id="line2d_7">
      <g>
       <use style="stroke:#000000;stroke-width:0.8;" x="436.437273" xlink:href="#m2f26d99287" y="192.24"/>
      </g>
     </g>
     <g id="text_7">
      <!-- 800 -->
      <g transform="translate(426.893523 206.838437)scale(0.1 -0.1)">
       <defs>
        <path d="M 31.78125 34.625 
Q 24.75 34.625 20.71875 30.859375 
Q 16.703125 27.09375 16.703125 20.515625 
Q 16.703125 13.921875 20.71875 10.15625 
Q 24.75 6.390625 31.78125 6.390625 
Q 38.8125 6.390625 42.859375 10.171875 
Q 46.921875 13.96875 46.921875 20.515625 
Q 46.921875 27.09375 42.890625 30.859375 
Q 38.875 34.625 31.78125 34.625 
z
M 21.921875 38.8125 
Q 15.578125 40.375 12.03125 44.71875 
Q 8.5 49.078125 8.5 55.328125 
Q 8.5 64.0625 14.71875 69.140625 
Q 20.953125 74.21875 31.78125 74.21875 
Q 42.671875 74.21875 48.875 69.140625 
Q 55.078125 64.0625 55.078125 55.328125 
Q 55.078125 49.078125 51.53125 44.71875 
Q 48 40.375 41.703125 38.8125 
Q 48.828125 37.15625 52.796875 32.3125 
Q 56.78125 27.484375 56.78125 20.515625 
Q 56.78125 9.90625 50.3125 4.234375 
Q 43.84375 -1.421875 31.78125 -1.421875 
Q 19.734375 -1.421875 13.25 4.234375 
Q 6.78125 9.90625 6.78125 20.515625 
Q 6.78125 27.484375 10.78125 32.3125 
Q 14.796875 37.15625 21.921875 38.8125 
z
M 18.3125 54.390625 
Q 18.3125 48.734375 21.84375 45.5625 
Q 25.390625 42.390625 31.78125 42.390625 
Q 38.140625 42.390625 41.71875 45.5625 
Q 45.3125 48.734375 45.3125 54.390625 
Q 45.3125 60.0625 41.71875 63.234375 
Q 38.140625 66.40625 31.78125 66.40625 
Q 25.390625 66.40625 21.84375 63.234375 
Q 18.3125 60.0625 18.3125 54.390625 
z
" id="DejaVuSans-56"/>
       </defs>
       <use xlink:href="#DejaVuSans-56"/>
       <use x="63.623047" xlink:href="#DejaVuSans-48"/>
       <use x="127.246094" xlink:href="#DejaVuSans-48"/>
      </g>
     </g>
    </g>
    <g id="text_8">
     <!-- time -->
     <g transform="translate(247.003906 220.516562)scale(0.1 -0.1)">
      <defs>
       <path d="M 18.3125 70.21875 
L 18.3125 54.6875 
L 36.8125 54.6875 
L 36.8125 47.703125 
L 18.3125 47.703125 
L 18.3125 18.015625 
Q 18.3125 11.328125 20.140625 9.421875 
Q 21.96875 7.515625 27.59375 7.515625 
L 36.8125 7.515625 
L 36.8125 0 
L 27.59375 0 
Q 17.1875 0 13.234375 3.875 
Q 9.28125 7.765625 9.28125 18.015625 
L 9.28125 47.703125 
L 2.6875 47.703125 
L 2.6875 54.6875 
L 9.28125 54.6875 
L 9.28125 70.21875 
z
" id="DejaVuSans-116"/>
       <path d="M 9.421875 54.6875 
L 18.40625 54.6875 
L 18.40625 0 
L 9.421875 0 
z
M 9.421875 75.984375 
L 18.40625 75.984375 
L 18.40625 64.59375 
L 9.421875 64.59375 
z
" id="DejaVuSans-105"/>
       <path d="M 52 44.1875 
Q 55.375 50.25 60.0625 53.125 
Q 64.75 56 71.09375 56 
Q 79.640625 56 84.28125 50.015625 
Q 88.921875 44.046875 88.921875 33.015625 
L 88.921875 0 
L 79.890625 0 
L 79.890625 32.71875 
Q 79.890625 40.578125 77.09375 44.375 
Q 74.3125 48.1875 68.609375 48.1875 
Q 61.625 48.1875 57.5625 43.546875 
Q 53.515625 38.921875 53.515625 30.90625 
L 53.515625 0 
L 44.484375 0 
L 44.484375 32.71875 
Q 44.484375 40.625 41.703125 44.40625 
Q 38.921875 48.1875 33.109375 48.1875 
Q 26.21875 48.1875 22.15625 43.53125 
Q 18.109375 38.875 18.109375 30.90625 
L 18.109375 0 
L 9.078125 0 
L 9.078125 54.6875 
L 18.109375 54.6875 
L 18.109375 46.1875 
Q 21.1875 51.21875 25.484375 53.609375 
Q 29.78125 56 35.6875 56 
Q 41.65625 56 45.828125 52.96875 
Q 50 49.953125 52 44.1875 
z
" id="DejaVuSans-109"/>
       <path d="M 56.203125 29.59375 
L 56.203125 25.203125 
L 14.890625 25.203125 
Q 15.484375 15.921875 20.484375 11.0625 
Q 25.484375 6.203125 34.421875 6.203125 
Q 39.59375 6.203125 44.453125 7.46875 
Q 49.3125 8.734375 54.109375 11.28125 
L 54.109375 2.78125 
Q 49.265625 0.734375 44.1875 -0.34375 
Q 39.109375 -1.421875 33.890625 -1.421875 
Q 20.796875 -1.421875 13.15625 6.1875 
Q 5.515625 13.8125 5.515625 26.8125 
Q 5.515625 40.234375 12.765625 48.109375 
Q 20.015625 56 32.328125 56 
Q 43.359375 56 49.78125 48.890625 
Q 56.203125 41.796875 56.203125 29.59375 
z
M 47.21875 32.234375 
Q 47.125 39.59375 43.09375 43.984375 
Q 39.0625 48.390625 32.421875 48.390625 
Q 24.90625 48.390625 20.390625 44.140625 
Q 15.875 39.890625 15.1875 32.171875 
z
" id="DejaVuSans-101"/>
      </defs>
      <use xlink:href="#DejaVuSans-116"/>
      <use x="39.208984" xlink:href="#DejaVuSans-105"/>
      <use x="66.992188" xlink:href="#DejaVuSans-109"/>
      <use x="164.404297" xlink:href="#DejaVuSans-101"/>
     </g>
    </g>
   </g>
   <g id="matplotlib.axis_2">
    <g id="ytick_1">
     <g id="line2d_8">
      <defs>
       <path d="M 0 0 
L -3.5 0 
" id="m592efa77d1" style="stroke:#000000;stroke-width:0.8;"/>
      </defs>
      <g>
       <use style="stroke:#000000;stroke-width:0.8;" x="63" xlink:href="#m592efa77d1" y="192.24"/>
      </g>
     </g>
     <g id="text_9">
      <!-- 0.10 -->
      <g transform="translate(33.734375 196.039219)scale(0.1 -0.1)">
       <defs>
        <path d="M 10.6875 12.40625 
L 21 12.40625 
L 21 0 
L 10.6875 0 
z
" id="DejaVuSans-46"/>
        <path d="M 12.40625 8.296875 
L 28.515625 8.296875 
L 28.515625 63.921875 
L 10.984375 60.40625 
L 10.984375 69.390625 
L 28.421875 72.90625 
L 38.28125 72.90625 
L 38.28125 8.296875 
L 54.390625 8.296875 
L 54.390625 0 
L 12.40625 0 
z
" id="DejaVuSans-49"/>
       </defs>
       <use xlink:href="#DejaVuSans-48"/>
       <use x="63.623047" xlink:href="#DejaVuSans-46"/>
       <use x="95.410156" xlink:href="#DejaVuSans-49"/>
       <use x="159.033203" xlink:href="#DejaVuSans-48"/>
      </g>
     </g>
    </g>
    <g id="ytick_2">
     <g id="line2d_9">
      <g>
       <use style="stroke:#000000;stroke-width:0.8;" x="63" xlink:href="#m592efa77d1" y="168.48"/>
      </g>
     </g>
     <g id="text_10">
      <!-- 0.15 -->
      <g transform="translate(33.734375 172.279219)scale(0.1 -0.1)">
       <use xlink:href="#DejaVuSans-48"/>
       <use x="63.623047" xlink:href="#DejaVuSans-46"/>
       <use x="95.410156" xlink:href="#DejaVuSans-49"/>
       <use x="159.033203" xlink:href="#DejaVuSans-53"/>
      </g>
     </g>
    </g>
    <g id="ytick_3">
     <g id="line2d_10">
      <g>
       <use style="stroke:#000000;stroke-width:0.8;" x="63" xlink:href="#m592efa77d1" y="144.72"/>
      </g>
     </g>
     <g id="text_11">
      <!-- 0.20 -->
      <g transform="translate(33.734375 148.519219)scale(0.1 -0.1)">
       <use xlink:href="#DejaVuSans-48"/>
       <use x="63.623047" xlink:href="#DejaVuSans-46"/>
       <use x="95.410156" xlink:href="#DejaVuSans-50"/>
       <use x="159.033203" xlink:href="#DejaVuSans-48"/>
      </g>
     </g>
    </g>
    <g id="ytick_4">
     <g id="line2d_11">
      <g>
       <use style="stroke:#000000;stroke-width:0.8;" x="63" xlink:href="#m592efa77d1" y="120.96"/>
      </g>
     </g>
     <g id="text_12">
      <!-- 0.25 -->
      <g transform="translate(33.734375 124.759219)scale(0.1 -0.1)">
       <use xlink:href="#DejaVuSans-48"/>
       <use x="63.623047" xlink:href="#DejaVuSans-46"/>
       <use x="95.410156" xlink:href="#DejaVuSans-50"/>
       <use x="159.033203" xlink:href="#DejaVuSans-53"/>
      </g>
     </g>
    </g>
    <g id="ytick_5">
     <g id="line2d_12">
      <g>
       <use style="stroke:#000000;stroke-width:0.8;" x="63" xlink:href="#m592efa77d1" y="97.2"/>
      </g>
     </g>
     <g id="text_13">
      <!-- 0.30 -->
      <g transform="translate(33.734375 100.999219)scale(0.1 -0.1)">
       <use xlink:href="#DejaVuSans-48"/>
       <use x="63.623047" xlink:href="#DejaVuSans-46"/>
       <use x="95.410156" xlink:href="#DejaVuSans-51"/>
       <use x="159.033203" xlink:href="#DejaVuSans-48"/>
      </g>
     </g>
    </g>
    <g id="ytick_6">
     <g id="line2d_13">
      <g>
       <use style="stroke:#000000;stroke-width:0.8;" x="63" xlink:href="#m592efa77d1" y="73.44"/>
      </g>
     </g>
     <g id="text_14">
      <!-- 0.35 -->
      <g transform="translate(33.734375 77.239219)scale(0.1 -0.1)">
       <use xlink:href="#DejaVuSans-48"/>
       <use x="63.623047" xlink:href="#DejaVuSans-46"/>
       <use x="95.410156" xlink:href="#DejaVuSans-51"/>
       <use x="159.033203" xlink:href="#DejaVuSans-53"/>
      </g>
     </g>
    </g>
    <g id="ytick_7">
     <g id="line2d_14">
      <g>
       <use style="stroke:#000000;stroke-width:0.8;" x="63" xlink:href="#m592efa77d1" y="49.68"/>
      </g>
     </g>
     <g id="text_15">
      <!-- 0.40 -->
      <g transform="translate(33.734375 53.479219)scale(0.1 -0.1)">
       <use xlink:href="#DejaVuSans-48"/>
       <use x="63.623047" xlink:href="#DejaVuSans-46"/>
       <use x="95.410156" xlink:href="#DejaVuSans-52"/>
       <use x="159.033203" xlink:href="#DejaVuSans-48"/>
      </g>
     </g>
    </g>
    <g id="ytick_8">
     <g id="line2d_15">
      <g>
       <use style="stroke:#000000;stroke-width:0.8;" x="63" xlink:href="#m592efa77d1" y="25.92"/>
      </g>
     </g>
     <g id="text_16">
      <!-- 0.45 -->
      <g transform="translate(33.734375 29.719219)scale(0.1 -0.1)">
       <use xlink:href="#DejaVuSans-48"/>
       <use x="63.623047" xlink:href="#DejaVuSans-46"/>
       <use x="95.410156" xlink:href="#DejaVuSans-52"/>
       <use x="159.033203" xlink:href="#DejaVuSans-53"/>
      </g>
     </g>
    </g>
    <g id="text_17">
     <!-- BGSD -->
     <g transform="translate(27.654688 123.321406)rotate(-90)scale(0.1 -0.1)">
      <defs>
       <path d="M 19.671875 34.8125 
L 19.671875 8.109375 
L 35.5 8.109375 
Q 43.453125 8.109375 47.28125 11.40625 
Q 51.125 14.703125 51.125 21.484375 
Q 51.125 28.328125 47.28125 31.5625 
Q 43.453125 34.8125 35.5 34.8125 
z
M 19.671875 64.796875 
L 19.671875 42.828125 
L 34.28125 42.828125 
Q 41.5 42.828125 45.03125 45.53125 
Q 48.578125 48.25 48.578125 53.8125 
Q 48.578125 59.328125 45.03125 62.0625 
Q 41.5 64.796875 34.28125 64.796875 
z
M 9.8125 72.90625 
L 35.015625 72.90625 
Q 46.296875 72.90625 52.390625 68.21875 
Q 58.5 63.53125 58.5 54.890625 
Q 58.5 48.1875 55.375 44.234375 
Q 52.25 40.28125 46.1875 39.3125 
Q 53.46875 37.75 57.5 32.78125 
Q 61.53125 27.828125 61.53125 20.40625 
Q 61.53125 10.640625 54.890625 5.3125 
Q 48.25 0 35.984375 0 
L 9.8125 0 
z
" id="DejaVuSans-66"/>
       <path d="M 59.515625 10.40625 
L 59.515625 29.984375 
L 43.40625 29.984375 
L 43.40625 38.09375 
L 69.28125 38.09375 
L 69.28125 6.78125 
Q 63.578125 2.734375 56.6875 0.65625 
Q 49.8125 -1.421875 42 -1.421875 
Q 24.90625 -1.421875 15.25 8.5625 
Q 5.609375 18.5625 5.609375 36.375 
Q 5.609375 54.25 15.25 64.234375 
Q 24.90625 74.21875 42 74.21875 
Q 49.125 74.21875 55.546875 72.453125 
Q 61.96875 70.703125 67.390625 67.28125 
L 67.390625 56.78125 
Q 61.921875 61.421875 55.765625 63.765625 
Q 49.609375 66.109375 42.828125 66.109375 
Q 29.4375 66.109375 22.71875 58.640625 
Q 16.015625 51.171875 16.015625 36.375 
Q 16.015625 21.625 22.71875 14.15625 
Q 29.4375 6.6875 42.828125 6.6875 
Q 48.046875 6.6875 52.140625 7.59375 
Q 56.25 8.5 59.515625 10.40625 
z
" id="DejaVuSans-71"/>
       <path d="M 53.515625 70.515625 
L 53.515625 60.890625 
Q 47.90625 63.578125 42.921875 64.890625 
Q 37.9375 66.21875 33.296875 66.21875 
Q 25.25 66.21875 20.875 63.09375 
Q 16.5 59.96875 16.5 54.203125 
Q 16.5 49.359375 19.40625 46.890625 
Q 22.3125 44.4375 30.421875 42.921875 
L 36.375 41.703125 
Q 47.40625 39.59375 52.65625 34.296875 
Q 57.90625 29 57.90625 20.125 
Q 57.90625 9.515625 50.796875 4.046875 
Q 43.703125 -1.421875 29.984375 -1.421875 
Q 24.8125 -1.421875 18.96875 -0.25 
Q 13.140625 0.921875 6.890625 3.21875 
L 6.890625 13.375 
Q 12.890625 10.015625 18.65625 8.296875 
Q 24.421875 6.59375 29.984375 6.59375 
Q 38.421875 6.59375 43.015625 9.90625 
Q 47.609375 13.234375 47.609375 19.390625 
Q 47.609375 24.75 44.3125 27.78125 
Q 41.015625 30.8125 33.5 32.328125 
L 27.484375 33.5 
Q 16.453125 35.6875 11.515625 40.375 
Q 6.59375 45.0625 6.59375 53.421875 
Q 6.59375 63.09375 13.40625 68.65625 
Q 20.21875 74.21875 32.171875 74.21875 
Q 37.3125 74.21875 42.625 73.28125 
Q 47.953125 72.359375 53.515625 70.515625 
z
" id="DejaVuSans-83"/>
       <path d="M 19.671875 64.796875 
L 19.671875 8.109375 
L 31.59375 8.109375 
Q 46.6875 8.109375 53.6875 14.9375 
Q 60.6875 21.78125 60.6875 36.53125 
Q 60.6875 51.171875 53.6875 57.984375 
Q 46.6875 64.796875 31.59375 64.796875 
z
M 9.8125 72.90625 
L 30.078125 72.90625 
Q 51.265625 72.90625 61.171875 64.09375 
Q 71.09375 55.28125 71.09375 36.53125 
Q 71.09375 17.671875 61.125 8.828125 
Q 51.171875 0 30.078125 0 
L 9.8125 0 
z
" id="DejaVuSans-68"/>
      </defs>
      <use xlink:href="#DejaVuSans-66"/>
      <use x="66.853516" xlink:href="#DejaVuSans-71"/>
      <use x="144.34375" xlink:href="#DejaVuSans-83"/>
      <use x="207.820312" xlink:href="#DejaVuSans-68"/>
     </g>
    </g>
   </g>
   <g id="line2d_16">
    <path clip-path="url(#p0fc41f764b)" d="M 80.754545 27.870692 
L 81.938182 26.567119 
L 82.53 27.065744 
L 83.121818 30.86875 
L 83.713636 29.248911 
L 84.305455 32.35063 
L 84.897273 32.122309 
L 85.489091 33.762077 
L 86.080909 29.459878 
L 86.672727 22.325404 
L 87.264545 20.634662 
L 87.856364 21.481618 
L 88.448182 21.068378 
L 89.04 21.673233 
L 89.631818 24.663086 
L 90.223636 22.612903 
L 90.815455 27.332759 
L 91.407273 21.084259 
L 91.999091 20.983934 
L 92.590909 21.621439 
L 93.182727 21.471436 
L 93.774545 16.434194 
L 94.366364 24.071647 
L 94.958182 20.309437 
L 95.55 24.152583 
L 96.141818 24.665716 
L 97.325455 27.308896 
L 97.917273 21.874878 
L 98.509091 29.996104 
L 99.100909 24.561153 
L 99.692727 25.214809 
L 100.284545 28.436404 
L 100.876364 25.7765 
L 101.468182 28.516233 
L 102.06 22.796346 
L 102.651818 23.856703 
L 103.243636 26.105563 
L 103.835455 24.435335 
L 104.427273 20.373868 
L 105.019091 23.363406 
L 105.610909 23.337302 
L 106.202727 22.369756 
L 106.794545 24.739685 
L 107.386364 26.384877 
L 107.978182 25.206068 
L 108.57 23.103544 
L 109.161818 23.830441 
L 109.753636 31.325649 
L 110.345455 27.860528 
L 110.937273 29.102056 
L 111.529091 30.042564 
L 112.120909 18.48439 
L 112.712727 26.255844 
L 113.304545 23.337739 
L 113.896364 18.939086 
L 114.488182 22.093682 
L 115.08 20.513869 
L 116.263636 25.931397 
L 117.447273 20.627213 
L 118.039091 21.294408 
L 118.630909 21.311125 
L 119.222727 18.453994 
L 120.406364 21.862997 
L 120.998182 24.088209 
L 121.59 21.291521 
L 122.181818 21.90423 
L 122.773636 23.63057 
L 123.365455 26.322402 
L 123.957273 25.101214 
L 125.140909 20.128745 
L 125.732727 21.14323 
L 126.324545 27.400213 
L 126.916364 26.645668 
L 127.508182 22.309099 
L 128.1 25.087408 
L 128.691818 19.696474 
L 129.283636 22.466791 
L 129.875455 24.470951 
L 130.467273 24.752175 
L 131.059091 26.108767 
L 131.650909 28.44307 
L 132.242727 24.213107 
L 132.834545 22.770638 
L 133.426364 22.823152 
L 134.018182 25.090232 
L 134.61 24.682665 
L 135.201818 21.366505 
L 135.793636 21.220582 
L 136.385455 28.560121 
L 136.977273 18.29524 
L 137.569091 18.841857 
L 138.160909 24.546683 
L 138.752727 22.63094 
L 139.344545 16.403665 
L 139.936364 21.481455 
L 140.528182 22.833887 
L 141.12 22.288176 
L 141.711818 25.488269 
L 142.303636 22.809311 
L 142.895455 24.685546 
L 143.487273 18.923088 
L 144.079091 18.908616 
L 144.670909 20.332785 
L 145.262727 18.922311 
L 145.854545 23.687736 
L 146.446364 18.432387 
L 147.038182 22.681451 
L 147.63 16.312755 
L 148.221818 22.885348 
L 148.813636 21.830346 
L 149.405455 21.506907 
L 149.997273 17.361861 
L 150.589091 17.231705 
L 151.180909 18.350391 
L 151.772727 20.279358 
L 152.364545 21.055804 
L 152.956364 24.811641 
L 153.548182 25.015131 
L 154.14 18.138147 
L 154.731818 19.112106 
L 155.323636 23.366813 
L 155.915455 22.297166 
L 156.507273 23.58451 
L 157.099091 25.887617 
L 157.690909 25.863078 
L 158.282727 23.316002 
L 158.874545 25.330606 
L 159.466364 21.182688 
L 160.058182 23.920465 
L 160.65 17.882792 
L 162.425455 24.033337 
L 163.609091 25.81282 
L 164.200909 28.250467 
L 164.792727 26.445224 
L 165.384545 23.031328 
L 165.976364 25.400035 
L 166.568182 25.609308 
L 167.16 18.97773 
L 167.751818 19.401871 
L 168.343636 22.021003 
L 168.935455 19.712166 
L 169.527273 22.569525 
L 170.119091 23.972787 
L 170.710909 22.824301 
L 171.302727 24.297789 
L 171.894545 30.094705 
L 172.486364 27.186117 
L 173.078182 27.826782 
L 173.67 25.418201 
L 174.261818 24.794793 
L 174.853636 23.860157 
L 175.445455 22.280522 
L 176.037273 24.596439 
L 176.629091 24.289781 
L 177.220909 23.817232 
L 177.812727 25.386 
L 178.404545 23.24225 
L 178.996364 23.894877 
L 179.588182 22.049475 
L 180.18 25.570961 
L 180.771818 18.146473 
L 181.955455 25.389572 
L 182.547273 22.37872 
L 183.730909 20.312404 
L 184.322727 23.700977 
L 184.914545 30.418667 
L 185.506364 25.006778 
L 186.098182 25.979924 
L 186.69 28.399113 
L 187.281818 28.865493 
L 188.465455 20.402526 
L 189.057273 27.936069 
L 189.649091 24.869979 
L 190.240909 24.422383 
L 190.832727 24.766308 
L 191.424545 23.848017 
L 192.016364 29.390853 
L 192.608182 24.805296 
L 193.2 25.815296 
L 193.791818 22.481642 
L 194.383636 26.163443 
L 194.975455 23.611062 
L 195.567273 21.84148 
L 196.159091 25.839341 
L 196.750909 21.287388 
L 197.342727 23.876246 
L 197.934545 23.451717 
L 198.526364 27.508972 
L 199.118182 23.79825 
L 199.71 29.551191 
L 200.301818 28.195771 
L 201.485455 38.990863 
L 202.077273 36.527108 
L 202.669091 38.477874 
L 203.260909 35.419693 
L 203.852727 36.365558 
L 204.444545 35.337484 
L 205.036364 35.620211 
L 205.628182 36.497379 
L 206.22 36.928947 
L 206.811818 41.55874 
L 207.403636 43.022102 
L 207.995455 41.068308 
L 208.587273 38.685836 
L 209.179091 40.240405 
L 210.954545 42.958713 
L 212.138182 45.648188 
L 212.73 40.41446 
L 213.321818 39.971096 
L 213.913636 42.016034 
L 214.505455 44.760214 
L 215.689091 47.820022 
L 216.280909 48.865677 
L 216.872727 49.201218 
L 217.464545 49.732496 
L 218.056364 53.283286 
L 218.648182 48.382293 
L 219.24 50.89452 
L 219.831818 52.920048 
L 220.423636 52.554033 
L 221.015455 47.041132 
L 221.607273 51.1531 
L 222.199091 56.631198 
L 222.790909 50.179021 
L 223.382727 52.03644 
L 223.974545 52.265619 
L 224.566364 52.946025 
L 225.158182 50.864159 
L 225.75 54.095095 
L 226.341818 54.427042 
L 226.933636 55.574285 
L 227.525455 55.995856 
L 228.117273 57.511907 
L 228.709091 57.918882 
L 229.300909 54.891482 
L 229.892727 57.290651 
L 231.076364 53.945622 
L 231.668182 57.491199 
L 232.26 57.02058 
L 232.851818 58.863981 
L 233.443636 53.907198 
L 234.035455 57.836074 
L 234.627273 56.717868 
L 235.219091 54.552933 
L 235.810909 59.955068 
L 236.402727 55.100174 
L 236.994545 55.192439 
L 237.586364 52.812141 
L 238.178182 51.095593 
L 239.361818 54.732993 
L 239.953636 54.649167 
L 240.545455 55.653003 
L 241.137273 55.707101 
L 241.729091 52.670608 
L 242.320909 52.605265 
L 242.912727 56.801868 
L 243.504545 53.438576 
L 244.096364 56.449401 
L 245.28 58.640827 
L 245.871818 57.700475 
L 246.463636 53.980832 
L 247.055455 54.174345 
L 247.647273 57.368246 
L 248.239091 57.794485 
L 248.830909 60.210337 
L 249.422727 58.55838 
L 250.014545 54.430887 
L 250.606364 57.859393 
L 251.198182 54.135213 
L 251.79 56.646744 
L 252.973636 57.993519 
L 253.565455 60.893939 
L 254.157273 50.21942 
L 254.749091 58.139441 
L 255.340909 59.577781 
L 255.932727 55.393596 
L 256.524545 59.498565 
L 257.116364 61.076989 
L 257.708182 65.230078 
L 258.3 55.71082 
L 258.891818 59.620747 
L 259.483636 58.06376 
L 260.075455 59.387321 
L 260.667273 59.408978 
L 261.259091 55.505587 
L 261.850909 60.025328 
L 262.442727 52.457001 
L 263.034545 57.47426 
L 263.626364 52.370813 
L 264.218182 52.092464 
L 265.401818 57.356119 
L 265.993636 56.945845 
L 266.585455 51.158475 
L 267.177273 54.677197 
L 267.769091 56.604347 
L 268.360909 53.083437 
L 268.952727 55.639725 
L 269.544545 55.38251 
L 270.136364 60.305686 
L 270.728182 54.163659 
L 271.32 57.129194 
L 271.911818 53.459645 
L 272.503636 55.338508 
L 273.095455 60.196914 
L 273.687273 58.897644 
L 274.279091 59.646984 
L 274.870909 57.929845 
L 275.462727 58.885218 
L 276.054545 54.842937 
L 276.646364 56.924333 
L 277.238182 57.165946 
L 277.83 58.530358 
L 278.421818 62.068292 
L 279.013636 57.636988 
L 279.605455 62.870746 
L 280.197273 61.901079 
L 280.789091 60.302188 
L 281.380909 60.43526 
L 281.972727 58.759788 
L 282.564545 61.707531 
L 283.156364 58.63323 
L 283.748182 58.59903 
L 284.34 60.398887 
L 284.931818 58.134053 
L 285.523636 59.726969 
L 286.115455 53.968217 
L 286.707273 56.458125 
L 287.299091 54.847944 
L 287.890909 53.651164 
L 288.482727 57.226018 
L 289.074545 58.759151 
L 289.666364 56.06559 
L 290.258182 55.324346 
L 290.85 56.828061 
L 291.441818 57.425348 
L 292.033636 59.354824 
L 292.625455 57.191366 
L 293.217273 56.317806 
L 294.400909 53.718925 
L 296.176364 57.662199 
L 296.768182 57.404532 
L 297.36 56.273117 
L 297.951818 53.427358 
L 298.543636 58.182518 
L 299.727273 59.79418 
L 300.319091 59.203825 
L 300.910909 56.123061 
L 301.502727 54.895983 
L 302.094545 58.115364 
L 302.686364 59.312159 
L 303.278182 56.536905 
L 303.87 56.90206 
L 304.461818 56.523501 
L 305.053636 60.578553 
L 305.645455 57.939148 
L 306.237273 59.077679 
L 306.829091 63.009364 
L 307.420909 63.661476 
L 308.012727 61.74144 
L 308.604545 64.368828 
L 309.196364 62.858044 
L 309.788182 58.302821 
L 310.38 61.594439 
L 310.971818 61.751763 
L 311.563636 61.385052 
L 312.155455 61.877164 
L 312.747273 60.018592 
L 313.339091 62.312313 
L 313.930909 59.73416 
L 314.522727 62.373619 
L 315.114545 60.515148 
L 315.706364 60.514077 
L 316.298182 57.601983 
L 316.89 58.983354 
L 317.481818 62.371884 
L 318.073636 62.885221 
L 318.665455 57.989692 
L 319.257273 63.111098 
L 319.849091 59.552206 
L 320.440909 59.972451 
L 321.032727 63.071393 
L 321.624545 62.191246 
L 322.216364 58.391248 
L 322.808182 60.621572 
L 323.991818 57.099567 
L 324.583636 58.024384 
L 325.175455 57.320836 
L 325.767273 59.805354 
L 326.359091 55.407133 
L 326.950909 55.88702 
L 327.542727 60.761503 
L 328.134545 56.237373 
L 328.726364 55.565864 
L 329.318182 55.425517 
L 329.91 55.594307 
L 330.501818 56.334915 
L 331.093636 59.397213 
L 331.685455 57.350006 
L 332.277273 58.197408 
L 332.869091 59.305651 
L 333.460909 56.468158 
L 334.052727 55.360426 
L 335.236364 60.921246 
L 335.828182 57.404207 
L 336.42 56.971847 
L 337.011818 55.951789 
L 337.603636 56.627323 
L 338.195455 56.624375 
L 338.787273 58.610439 
L 339.379091 54.812929 
L 339.970909 59.743286 
L 340.562727 58.195745 
L 341.154545 59.033224 
L 341.746364 58.562197 
L 342.338182 60.931191 
L 342.93 56.154427 
L 343.521818 58.769806 
L 344.113636 58.562517 
L 344.705455 57.168455 
L 345.297273 58.316071 
L 345.889091 55.97214 
L 346.480909 57.1148 
L 347.072727 59.328499 
L 347.664545 58.261907 
L 348.256364 60.552603 
L 348.848182 57.959157 
L 349.44 58.310872 
L 350.031818 59.738673 
L 350.623636 57.69219 
L 351.215455 61.359833 
L 351.807273 60.59909 
L 352.399091 57.959245 
L 352.990909 65.322504 
L 353.582727 58.402006 
L 354.174545 56.695946 
L 354.766364 62.694039 
L 355.358182 60.364704 
L 355.95 57.48969 
L 356.541818 60.800306 
L 357.133636 60.704924 
L 357.725455 58.375902 
L 358.317273 61.014521 
L 358.909091 61.612582 
L 359.500909 61.169426 
L 360.092727 64.146454 
L 360.684545 59.662773 
L 361.276364 57.497814 
L 361.868182 63.433904 
L 362.46 61.49628 
L 363.051818 63.260103 
L 363.643636 63.903049 
L 364.235455 60.920944 
L 364.827273 64.854477 
L 365.419091 64.998419 
L 366.010909 68.167086 
L 366.602727 61.617533 
L 367.194545 60.029055 
L 367.786364 63.261978 
L 368.378182 64.406238 
L 368.97 63.534152 
L 369.561818 59.375693 
L 370.153636 63.093889 
L 370.745455 59.398904 
L 371.337273 60.192264 
L 371.929091 61.947879 
L 372.520909 59.351379 
L 373.112727 60.338729 
L 373.704545 63.224325 
L 374.296364 61.152015 
L 374.888182 62.041088 
L 375.48 64.665593 
L 376.663636 60.860071 
L 377.255455 60.904107 
L 377.847273 64.35289 
L 378.439091 59.167101 
L 379.030909 63.847831 
L 379.622727 62.284992 
L 380.214545 63.19778 
L 380.806364 63.146777 
L 381.398182 62.657219 
L 381.99 61.466657 
L 382.581818 63.0901 
L 383.173636 63.155205 
L 383.765455 62.141832 
L 384.357273 64.049552 
L 384.949091 62.829079 
L 385.540909 63.621791 
L 386.132727 63.613686 
L 387.316364 64.070594 
L 387.908182 63.441998 
L 388.5 64.267211 
L 389.091818 61.822595 
L 389.683636 62.193237 
L 390.275455 59.687692 
L 390.867273 62.822638 
L 391.459091 62.332679 
L 392.050909 64.77339 
L 392.642727 59.013519 
L 393.234545 62.705238 
L 393.826364 58.132084 
L 394.418182 61.241207 
L 395.01 61.50257 
L 395.601818 57.630753 
L 396.193636 60.445452 
L 396.785455 57.141255 
L 397.377273 58.732805 
L 397.969091 61.564772 
L 398.560909 58.932845 
L 399.152727 58.158484 
L 399.744545 58.044807 
L 400.336364 54.179826 
L 400.928182 52.864974 
L 401.52 58.111092 
L 402.111818 59.254466 
L 402.703636 58.316677 
L 403.295455 61.096532 
L 403.887273 56.177538 
L 404.479091 56.698484 
L 405.070909 54.041466 
L 405.662727 54.548837 
L 406.254545 57.613412 
L 406.846364 57.305529 
L 407.438182 54.211599 
L 408.03 57.311644 
L 408.621818 55.709636 
L 409.213636 58.887449 
L 409.805455 63.355188 
L 410.397273 55.611233 
L 410.989091 60.586341 
L 411.580909 57.851436 
L 412.172727 58.368643 
L 412.764545 57.699606 
L 413.356364 58.227675 
L 413.948182 59.901334 
L 414.54 58.580367 
L 415.131818 57.637517 
L 415.723636 59.816643 
L 416.315455 58.293953 
L 416.907273 59.094545 
L 417.499091 57.639394 
L 418.090909 59.7515 
L 418.682727 58.138459 
L 419.274545 55.679667 
L 419.866364 56.011071 
L 420.458182 55.680726 
L 421.05 55.883036 
L 421.641818 60.462894 
L 422.233636 58.41204 
L 422.825455 58.489433 
L 423.417273 59.873938 
L 424.009091 59.315842 
L 424.600909 59.948667 
L 425.192727 59.728742 
L 425.784545 57.979358 
L 426.376364 58.307804 
L 426.968182 62.181276 
L 428.151818 57.667124 
L 428.743636 61.218803 
L 429.335455 59.046317 
L 429.927273 60.680309 
L 430.519091 58.63993 
L 431.110909 60.80064 
L 431.702727 62.127174 
L 432.294545 60.017671 
L 432.886364 56.298318 
L 433.478182 59.7058 
L 434.07 59.356146 
L 434.661818 59.748487 
L 435.253636 57.32268 
L 435.845455 57.646364 
L 435.845455 57.646364 
" style="fill:none;stroke:#1f77b4;stroke-linecap:square;stroke-width:1.5;"/>
   </g>
   <g id="line2d_17">
    <path clip-path="url(#p0fc41f764b)" d="M 80.754545 21.921072 
L 81.346364 26.086007 
L 81.938182 21.11749 
L 83.121818 25.542887 
L 83.713636 23.98479 
L 84.305455 25.536854 
L 84.897273 25.504931 
L 85.489091 22.93195 
L 86.080909 21.028188 
L 86.672727 20.364862 
L 87.264545 25.700173 
L 87.856364 24.129707 
L 88.448182 25.746172 
L 89.04 20.7243 
L 89.631818 23.862804 
L 90.223636 28.003971 
L 90.815455 27.898757 
L 91.407273 19.699642 
L 91.999091 18.421203 
L 92.590909 26.245494 
L 93.182727 24.343526 
L 93.774545 25.404805 
L 94.366364 22.097178 
L 94.958182 20.719452 
L 95.55 24.50345 
L 96.141818 23.568516 
L 97.325455 20.754623 
L 97.917273 20.001255 
L 98.509091 22.804123 
L 99.100909 22.405862 
L 99.692727 16.873126 
L 100.284545 23.535898 
L 100.876364 27.297303 
L 101.468182 20.594188 
L 102.06 20.981792 
L 102.651818 24.964941 
L 103.243636 25.695719 
L 103.835455 20.196946 
L 104.427273 20.147751 
L 105.019091 20.488417 
L 105.610909 20.370297 
L 106.202727 25.49728 
L 106.794545 21.370113 
L 107.386364 23.104124 
L 107.978182 18.863753 
L 108.57 29.758571 
L 110.345455 18.08931 
L 110.937273 29.275922 
L 111.529091 23.891772 
L 112.120909 23.893239 
L 112.712727 21.61317 
L 113.304545 21.465596 
L 113.896364 22.694421 
L 114.488182 22.948773 
L 115.08 18.0787 
L 115.671818 19.434605 
L 116.263636 22.462556 
L 116.855455 23.230703 
L 117.447273 24.604938 
L 118.039091 25.539094 
L 118.630909 17.719626 
L 119.222727 18.349292 
L 119.814545 20.990851 
L 120.406364 25.208159 
L 120.998182 22.120652 
L 121.59 21.181002 
L 122.181818 22.835698 
L 122.773636 19.465003 
L 123.365455 22.421148 
L 123.957273 20.296268 
L 124.549091 18.786875 
L 125.732727 21.469017 
L 126.324545 18.017748 
L 126.916364 24.754616 
L 127.508182 23.15902 
L 128.1 25.199803 
L 128.691818 22.688505 
L 129.283636 21.540758 
L 129.875455 19.578348 
L 130.467273 23.371335 
L 131.059091 21.908632 
L 131.650909 24.185889 
L 132.242727 20.521211 
L 133.426364 26.8143 
L 134.018182 27.866436 
L 134.61 26.823791 
L 135.201818 26.989168 
L 135.793636 21.07259 
L 136.385455 23.139082 
L 136.977273 20.285162 
L 137.569091 22.106118 
L 138.160909 22.873794 
L 138.752727 20.643091 
L 139.344545 16.546263 
L 139.936364 22.494344 
L 140.528182 25.113461 
L 141.12 21.611284 
L 141.711818 23.371083 
L 142.303636 26.420817 
L 142.895455 24.278125 
L 143.487273 23.807254 
L 144.079091 26.329135 
L 145.262727 27.667113 
L 146.446364 22.345256 
L 147.038182 22.334655 
L 147.63 23.669188 
L 148.221818 23.14009 
L 149.405455 28.368587 
L 149.997273 28.111949 
L 150.589091 27.374365 
L 151.180909 32.48139 
L 151.772727 30.381733 
L 152.364545 26.452908 
L 152.956364 24.878754 
L 153.548182 27.7846 
L 154.731818 25.419972 
L 155.323636 27.127105 
L 155.915455 24.244006 
L 156.507273 29.976148 
L 157.099091 24.749849 
L 157.690909 25.57329 
L 158.282727 29.585177 
L 158.874545 28.504366 
L 159.466364 29.082469 
L 160.058182 26.826304 
L 160.65 30.322457 
L 161.241818 20.956352 
L 161.833636 28.370868 
L 162.425455 26.690601 
L 163.017273 24.480361 
L 163.609091 29.311404 
L 164.200909 16.619371 
L 164.792727 24.609625 
L 165.384545 22.829175 
L 165.976364 29.369269 
L 166.568182 24.548203 
L 167.16 21.706327 
L 167.751818 28.449436 
L 168.343636 22.893625 
L 168.935455 29.29721 
L 169.527273 26.297973 
L 170.119091 25.405413 
L 170.710909 21.92204 
L 171.302727 27.442259 
L 171.894545 25.364886 
L 172.486364 22.506235 
L 173.078182 26.678665 
L 173.67 22.945587 
L 174.853636 30.745816 
L 175.445455 35.518445 
L 176.037273 27.49828 
L 176.629091 34.769951 
L 177.220909 30.857493 
L 177.812727 30.744307 
L 178.404545 28.206114 
L 178.996364 28.735053 
L 179.588182 28.179601 
L 180.18 29.309379 
L 180.771818 29.868403 
L 181.363636 32.319769 
L 181.955455 27.684873 
L 182.547273 27.586695 
L 183.139091 27.071694 
L 183.730909 31.326702 
L 184.322727 31.974806 
L 184.914545 28.266775 
L 185.506364 28.696395 
L 186.098182 29.999841 
L 187.281818 26.872545 
L 187.873636 26.036689 
L 188.465455 25.910597 
L 189.057273 26.832813 
L 189.649091 30.706737 
L 190.240909 26.308515 
L 190.832727 26.223986 
L 191.424545 30.253622 
L 192.016364 31.356542 
L 192.608182 27.123791 
L 193.2 31.80785 
L 193.791818 26.644215 
L 194.383636 29.903083 
L 194.975455 24.406545 
L 195.567273 23.148801 
L 196.159091 31.565489 
L 196.750909 33.523043 
L 197.342727 32.91691 
L 198.526364 25.116752 
L 199.118182 24.566914 
L 199.71 26.811226 
L 200.301818 25.656814 
L 200.893636 27.53373 
L 202.077273 33.400259 
L 202.669091 34.054567 
L 203.260909 36.395802 
L 203.852727 35.95166 
L 204.444545 31.095659 
L 205.036364 32.15787 
L 205.628182 29.705568 
L 206.22 34.292144 
L 206.811818 31.404373 
L 207.403636 35.412976 
L 207.995455 35.965741 
L 208.587273 28.890628 
L 209.179091 30.760425 
L 209.770909 34.847676 
L 210.362727 32.578638 
L 210.954545 32.164633 
L 212.138182 38.726833 
L 212.73 27.126123 
L 213.321818 31.779125 
L 213.913636 34.53953 
L 214.505455 34.117265 
L 215.097273 36.368557 
L 215.689091 34.232005 
L 216.280909 36.580216 
L 216.872727 36.048572 
L 217.464545 35.279181 
L 218.056364 37.140034 
L 218.648182 35.779505 
L 219.24 36.089226 
L 219.831818 37.753959 
L 220.423636 34.234294 
L 221.015455 32.208376 
L 221.607273 29.572227 
L 222.790909 34.048715 
L 223.382727 32.096215 
L 223.974545 37.825281 
L 224.566364 36.307419 
L 225.158182 32.901745 
L 226.341818 38.884358 
L 226.933636 37.183502 
L 227.525455 43.17891 
L 228.117273 37.830487 
L 228.709091 37.77718 
L 229.300909 33.207022 
L 229.892727 31.314041 
L 230.484545 36.298471 
L 231.076364 38.107993 
L 231.668182 38.118786 
L 232.26 38.660558 
L 232.851818 37.237311 
L 233.443636 32.746594 
L 234.035455 30.851191 
L 234.627273 36.181624 
L 235.219091 36.148514 
L 235.810909 38.818076 
L 236.402727 39.632422 
L 236.994545 42.101843 
L 237.586364 32.961666 
L 238.178182 34.074949 
L 238.77 34.39412 
L 239.361818 41.889642 
L 239.953636 43.16182 
L 240.545455 40.577117 
L 241.137273 41.339326 
L 241.729091 36.391079 
L 242.320909 39.826413 
L 242.912727 40.549261 
L 243.504545 38.306656 
L 244.096364 43.041921 
L 244.688182 45.537798 
L 245.28 42.053139 
L 245.871818 32.533543 
L 246.463636 38.267039 
L 247.055455 40.385209 
L 247.647273 40.61592 
L 248.239091 41.76161 
L 248.830909 40.918298 
L 249.422727 38.400611 
L 250.014545 31.434219 
L 250.606364 37.124325 
L 252.381818 43.809569 
L 252.973636 46.054054 
L 253.565455 44.664545 
L 254.157273 34.777461 
L 254.749091 33.788725 
L 256.524545 41.357721 
L 257.116364 40.153987 
L 257.708182 41.906169 
L 258.3 31.34367 
L 258.891818 41.288775 
L 259.483636 35.459178 
L 260.075455 38.857191 
L 260.667273 33.582161 
L 261.259091 39.797248 
L 261.850909 39.998057 
L 262.442727 28.687923 
L 263.034545 36.068851 
L 263.626364 34.234101 
L 264.218182 35.784671 
L 265.401818 43.959423 
L 265.993636 42.079913 
L 266.585455 33.473003 
L 267.177273 36.066457 
L 267.769091 39.915972 
L 268.360909 38.12089 
L 268.952727 40.066836 
L 269.544545 39.096387 
L 270.136364 42.102979 
L 270.728182 37.268947 
L 271.32 29.970257 
L 271.911818 41.683592 
L 272.503636 38.353604 
L 273.095455 37.033793 
L 274.279091 42.445437 
L 274.870909 40.775954 
L 275.462727 40.105193 
L 276.054545 38.904948 
L 276.646364 38.062374 
L 277.238182 38.462481 
L 277.83 41.176652 
L 278.421818 40.771399 
L 279.013636 38.115133 
L 279.605455 39.939967 
L 280.197273 40.564477 
L 280.789091 39.809772 
L 281.380909 41.943421 
L 281.972727 40.360719 
L 282.564545 41.847201 
L 283.748182 38.424926 
L 284.34 39.993459 
L 284.931818 40.976825 
L 285.523636 46.074351 
L 286.115455 40.935321 
L 286.707273 39.748814 
L 287.299091 40.198974 
L 287.890909 42.291121 
L 288.482727 41.330625 
L 289.074545 43.088616 
L 289.666364 39.312862 
L 290.258182 39.523102 
L 290.85 37.546358 
L 291.441818 41.808864 
L 292.033636 38.273602 
L 292.625455 42.311739 
L 293.217273 43.362123 
L 293.809091 40.684889 
L 294.400909 40.835625 
L 294.992727 42.950448 
L 296.768182 35.476599 
L 297.36 39.895838 
L 297.951818 39.012833 
L 298.543636 34.493239 
L 299.135455 41.77439 
L 299.727273 37.254932 
L 300.319091 37.514088 
L 300.910909 39.999872 
L 301.502727 40.367955 
L 302.094545 43.353565 
L 302.686364 41.398974 
L 303.278182 40.880923 
L 303.87 37.848424 
L 304.461818 39.825733 
L 305.053636 37.662866 
L 305.645455 40.132621 
L 306.237273 38.010372 
L 306.829091 39.329084 
L 307.420909 35.832818 
L 308.604545 38.856947 
L 309.196364 39.794382 
L 309.788182 40.274548 
L 310.38 38.548981 
L 310.971818 38.035298 
L 311.563636 36.332092 
L 312.155455 42.580525 
L 312.747273 38.69121 
L 313.339091 38.707118 
L 313.930909 37.585287 
L 315.114545 43.500158 
L 315.706364 44.194161 
L 316.298182 39.875368 
L 316.89 39.092927 
L 317.481818 37.826535 
L 318.073636 39.142812 
L 318.665455 38.968381 
L 319.257273 39.457156 
L 319.849091 43.657524 
L 320.440909 40.963995 
L 321.624545 38.947012 
L 322.216364 39.248318 
L 322.808182 37.642176 
L 323.4 37.744512 
L 323.991818 42.222849 
L 324.583636 41.68471 
L 325.175455 38.700473 
L 325.767273 40.643423 
L 326.359091 36.970793 
L 326.950909 42.288411 
L 327.542727 38.03949 
L 328.134545 40.040651 
L 328.726364 38.026261 
L 329.318182 37.164707 
L 329.91 40.418692 
L 330.501818 36.309736 
L 331.093636 41.574883 
L 331.685455 41.891665 
L 332.277273 39.031972 
L 332.869091 40.548385 
L 333.460909 36.148475 
L 334.052727 39.190841 
L 334.644545 40.419191 
L 335.236364 42.067038 
L 335.828182 39.622671 
L 336.42 38.965369 
L 337.011818 38.543208 
L 337.603636 39.160633 
L 338.195455 39.437224 
L 338.787273 42.038474 
L 339.379091 45.791308 
L 339.970909 39.582147 
L 340.562727 41.119561 
L 341.154545 40.276289 
L 341.746364 42.521015 
L 342.93 36.90472 
L 343.521818 39.491607 
L 344.113636 44.267734 
L 344.705455 41.195748 
L 345.297273 45.05359 
L 345.889091 40.522298 
L 346.480909 40.864527 
L 347.072727 40.792545 
L 347.664545 40.833399 
L 348.256364 41.574626 
L 348.848182 39.135435 
L 349.44 40.88409 
L 350.031818 41.192902 
L 350.623636 41.300388 
L 351.215455 39.336823 
L 351.807273 40.074829 
L 352.399091 39.259391 
L 352.990909 41.094605 
L 353.582727 40.137052 
L 354.174545 37.579939 
L 354.766364 42.490609 
L 355.358182 39.721882 
L 355.95 38.724803 
L 356.541818 40.3747 
L 357.133636 39.668095 
L 357.725455 37.684096 
L 358.317273 40.35925 
L 358.909091 41.275868 
L 360.092727 36.52341 
L 360.684545 36.859031 
L 361.276364 39.262695 
L 361.868182 37.739366 
L 362.46 39.541125 
L 363.051818 39.568068 
L 363.643636 39.710948 
L 364.235455 38.294086 
L 366.010909 44.218546 
L 366.602727 41.775675 
L 367.194545 41.622544 
L 367.786364 38.848944 
L 368.378182 41.14384 
L 368.97 42.22663 
L 369.561818 40.862182 
L 370.153636 42.795081 
L 370.745455 42.160158 
L 371.337273 39.669594 
L 371.929091 40.514199 
L 372.520909 41.041088 
L 373.112727 42.772796 
L 373.704545 48.399275 
L 374.888182 44.229524 
L 375.48 43.349443 
L 376.071818 44.26219 
L 376.663636 44.668377 
L 377.255455 43.688362 
L 377.847273 46.163982 
L 378.439091 48.140111 
L 379.030909 46.590095 
L 379.622727 41.64861 
L 380.214545 43.014062 
L 380.806364 41.051058 
L 381.398182 43.805688 
L 381.99 44.521855 
L 382.581818 42.538565 
L 383.765455 43.972131 
L 384.357273 41.574941 
L 384.949091 43.667334 
L 385.540909 39.166373 
L 386.132727 43.500675 
L 386.724545 43.400653 
L 387.316364 39.280194 
L 388.5 44.57313 
L 389.091818 41.921929 
L 389.683636 44.668802 
L 390.275455 43.348968 
L 390.867273 44.201865 
L 391.459091 43.535491 
L 392.050909 43.740042 
L 392.642727 41.622297 
L 393.234545 42.756122 
L 393.826364 39.767086 
L 394.418182 44.544039 
L 395.01 45.688914 
L 395.601818 43.599576 
L 396.193636 44.719693 
L 396.785455 38.20215 
L 397.377273 41.355843 
L 397.969091 38.661146 
L 398.560909 43.372101 
L 399.152727 41.979097 
L 399.744545 39.840304 
L 400.336364 40.933064 
L 400.928182 43.13526 
L 401.52 41.991674 
L 402.111818 41.490601 
L 402.703636 42.417133 
L 403.295455 45.729875 
L 403.887273 40.148797 
L 404.479091 41.054452 
L 405.070909 39.238654 
L 405.662727 42.231895 
L 406.254545 42.722845 
L 406.846364 42.357638 
L 407.438182 43.56996 
L 408.03 42.812255 
L 408.621818 43.294815 
L 409.213636 40.932064 
L 409.805455 47.852147 
L 410.397273 43.527461 
L 410.989091 44.814344 
L 411.580909 39.8422 
L 412.172727 38.927599 
L 412.764545 39.644367 
L 413.356364 39.787176 
L 413.948182 37.981687 
L 414.54 42.355577 
L 415.131818 45.586534 
L 415.723636 43.624636 
L 416.315455 42.146776 
L 416.907273 42.424655 
L 418.090909 40.849953 
L 419.274545 36.246829 
L 419.866364 38.716088 
L 420.458182 37.843513 
L 421.05 43.06501 
L 421.641818 44.975705 
L 422.233636 45.10749 
L 422.825455 45.974917 
L 423.417273 40.707463 
L 424.009091 47.139756 
L 424.600909 40.128653 
L 425.192727 42.933136 
L 425.784545 44.214257 
L 426.376364 48.690166 
L 426.968182 41.846424 
L 427.56 43.245404 
L 428.151818 43.46269 
L 428.743636 43.202616 
L 429.335455 41.935609 
L 429.927273 41.225669 
L 430.519091 42.33148 
L 431.702727 37.855424 
L 432.294545 39.322305 
L 432.886364 42.126544 
L 433.478182 40.683921 
L 434.07 38.545101 
L 434.661818 43.662536 
L 435.253636 41.909308 
L 435.845455 39.046831 
L 435.845455 39.046831 
" style="fill:none;stroke:#ff7f0e;stroke-linecap:square;stroke-width:1.5;"/>
   </g>
   <g id="line2d_18">
    <path clip-path="url(#p0fc41f764b)" d="M 80.754545 25.010501 
L 81.346364 20.650729 
L 82.53 28.584978 
L 83.121818 24.833834 
L 83.713636 26.975701 
L 84.305455 25.661705 
L 84.897273 21.897219 
L 85.489091 24.222601 
L 86.080909 28.831481 
L 86.672727 27.808246 
L 87.264545 22.470537 
L 87.856364 22.111837 
L 88.448182 25.869917 
L 89.04 21.010292 
L 89.631818 28.013541 
L 90.223636 22.064952 
L 90.815455 18.075025 
L 91.407273 21.719851 
L 91.999091 23.373453 
L 93.182727 24.307559 
L 93.774545 21.683042 
L 94.366364 17.360135 
L 95.55 20.383273 
L 96.141818 17.229723 
L 96.733636 23.252354 
L 97.325455 20.253442 
L 97.917273 17.911082 
L 99.100909 21.783016 
L 99.692727 21.293865 
L 100.284545 25.800438 
L 100.876364 17.665242 
L 101.468182 20.442142 
L 102.06 17.559789 
L 102.651818 23.146608 
L 103.243636 18.756757 
L 103.835455 20.689332 
L 104.427273 19.323928 
L 105.610909 17.49858 
L 106.202727 17.053256 
L 106.794545 18.46849 
L 107.386364 17.90871 
L 107.978182 23.603754 
L 108.57 22.084991 
L 109.161818 19.250477 
L 109.753636 23.407861 
L 110.345455 20.047599 
L 110.937273 22.595956 
L 111.529091 23.486584 
L 112.120909 21.465515 
L 112.712727 22.819666 
L 113.304545 13.565394 
L 113.896364 25.971728 
L 114.488182 20.639972 
L 115.08 27.315307 
L 115.671818 24.210853 
L 116.263636 25.943646 
L 116.855455 26.7932 
L 117.447273 25.841227 
L 118.039091 22.237135 
L 118.630909 25.256011 
L 119.222727 27.176938 
L 119.814545 25.825296 
L 120.406364 22.814895 
L 120.998182 24.623253 
L 121.59 25.127138 
L 122.181818 31.137676 
L 122.773636 25.331175 
L 123.365455 23.197107 
L 123.957273 22.041356 
L 124.549091 23.44153 
L 125.140909 26.243635 
L 125.732727 25.401933 
L 126.324545 25.295344 
L 126.916364 24.132471 
L 128.1 29.173004 
L 128.691818 25.957244 
L 129.283636 25.651404 
L 129.875455 22.773943 
L 130.467273 27.702633 
L 131.059091 25.993752 
L 131.650909 25.886958 
L 132.242727 23.480329 
L 132.834545 24.245147 
L 133.426364 26.153363 
L 134.018182 23.325863 
L 134.61 27.350688 
L 135.201818 26.731184 
L 135.793636 25.351072 
L 136.385455 28.189456 
L 136.977273 25.665029 
L 137.569091 24.807528 
L 138.752727 30.224992 
L 139.344545 30.786071 
L 139.936364 23.080113 
L 140.528182 23.611624 
L 141.12 26.544161 
L 141.711818 22.994479 
L 142.303636 24.71058 
L 142.895455 31.334181 
L 143.487273 28.585869 
L 144.079091 23.781708 
L 144.670909 24.639195 
L 145.262727 25.179127 
L 145.854545 25.130329 
L 146.446364 25.305271 
L 147.038182 25.078216 
L 147.63 26.654401 
L 148.221818 27.291615 
L 148.813636 29.847795 
L 149.405455 20.806534 
L 149.997273 18.960308 
L 150.589091 21.251203 
L 151.180909 17.735159 
L 151.772727 20.997528 
L 152.956364 25.309249 
L 153.548182 25.249014 
L 154.14 24.71799 
L 154.731818 23.552269 
L 155.323636 19.87085 
L 155.915455 23.482826 
L 156.507273 23.358792 
L 157.099091 24.179086 
L 157.690909 25.515668 
L 158.282727 29.54201 
L 158.874545 24.829517 
L 159.466364 24.39924 
L 160.058182 27.325894 
L 160.65 29.514165 
L 161.241818 25.421441 
L 161.833636 30.684804 
L 162.425455 27.250631 
L 163.017273 30.450604 
L 163.609091 28.881819 
L 164.200909 28.89061 
L 164.792727 26.85532 
L 165.384545 27.554094 
L 165.976364 27.64711 
L 166.568182 31.647681 
L 167.16 25.132846 
L 167.751818 32.139213 
L 168.343636 29.827001 
L 168.935455 31.805071 
L 169.527273 31.575594 
L 170.119091 29.788815 
L 170.710909 25.473461 
L 171.302727 30.953823 
L 171.894545 25.906629 
L 172.486364 25.312953 
L 173.078182 22.79503 
L 173.67 28.364093 
L 174.261818 24.089734 
L 174.853636 23.155153 
L 175.445455 26.390865 
L 176.037273 23.661797 
L 176.629091 25.049819 
L 177.220909 27.610892 
L 177.812727 20.238601 
L 178.404545 26.078991 
L 178.996364 25.168017 
L 179.588182 26.438907 
L 180.18 26.547549 
L 180.771818 27.921475 
L 181.363636 25.402728 
L 181.955455 24.756266 
L 182.547273 20.484906 
L 183.139091 23.803438 
L 183.730909 21.026701 
L 184.322727 25.534843 
L 184.914545 22.613225 
L 185.506364 21.83334 
L 186.098182 24.89818 
L 186.69 26.206188 
L 187.281818 24.436045 
L 187.873636 25.094406 
L 188.465455 22.924295 
L 189.057273 25.233128 
L 189.649091 24.141229 
L 190.240909 22.052811 
L 190.832727 23.815276 
L 191.424545 24.380547 
L 192.016364 21.278145 
L 192.608182 19.960484 
L 193.2 23.323704 
L 193.791818 21.693455 
L 194.383636 22.724448 
L 194.975455 24.515221 
L 195.567273 24.209559 
L 196.159091 26.931321 
L 196.750909 26.7472 
L 197.342727 23.30889 
L 197.934545 21.862212 
L 198.526364 24.813115 
L 199.118182 24.076704 
L 199.71 22.480536 
L 200.301818 28.841958 
L 200.893636 30.560699 
L 201.485455 30.328914 
L 202.077273 30.924772 
L 202.669091 35.70477 
L 203.260909 32.402073 
L 203.852727 33.450406 
L 204.444545 33.395902 
L 205.036364 32.797064 
L 205.628182 31.552102 
L 206.22 37.380865 
L 206.811818 35.717964 
L 207.403636 38.405378 
L 207.995455 42.313033 
L 208.587273 34.75382 
L 209.179091 38.057954 
L 209.770909 39.533828 
L 210.362727 44.828398 
L 210.954545 47.252846 
L 211.546364 41.678411 
L 212.138182 42.184388 
L 212.73 43.55609 
L 213.321818 42.751547 
L 213.913636 45.690666 
L 214.505455 44.484697 
L 215.097273 46.142422 
L 215.689091 45.278112 
L 216.280909 46.004381 
L 216.872727 42.500601 
L 217.464545 48.999282 
L 218.056364 49.636903 
L 218.648182 47.635756 
L 219.24 50.461658 
L 219.831818 48.171076 
L 220.423636 48.271177 
L 221.015455 47.765319 
L 221.607273 50.149473 
L 222.199091 50.931456 
L 222.790909 53.663211 
L 223.382727 51.53111 
L 223.974545 54.888371 
L 224.566364 54.857043 
L 225.158182 48.861005 
L 225.75 49.205542 
L 226.341818 53.049192 
L 226.933636 55.767818 
L 227.525455 50.153274 
L 228.709091 56.246319 
L 229.300909 49.656243 
L 229.892727 52.730959 
L 230.484545 59.130755 
L 231.076364 51.988934 
L 231.668182 55.570467 
L 232.26 55.894294 
L 232.851818 55.375084 
L 234.035455 46.564076 
L 234.627273 52.626939 
L 235.810909 56.899234 
L 236.402727 55.642906 
L 236.994545 55.42527 
L 237.586364 52.203218 
L 238.77 57.321002 
L 239.361818 60.367104 
L 239.953636 61.803701 
L 240.545455 59.049366 
L 241.137273 61.099356 
L 241.729091 52.977569 
L 242.320909 61.481101 
L 243.504545 56.451508 
L 244.096364 62.896479 
L 244.688182 57.887576 
L 245.28 60.484908 
L 245.871818 50.327633 
L 246.463636 54.031921 
L 247.055455 51.805307 
L 247.647273 55.724677 
L 248.239091 57.225196 
L 248.830909 59.704616 
L 249.422727 55.588323 
L 250.014545 49.217035 
L 250.606364 57.96696 
L 251.198182 58.198016 
L 251.79 57.266187 
L 252.381818 59.78282 
L 252.973636 55.9841 
L 253.565455 59.89132 
L 254.157273 54.86338 
L 254.749091 56.628818 
L 255.340909 59.895165 
L 256.524545 57.687378 
L 257.116364 61.676452 
L 257.708182 58.335459 
L 258.891818 53.471958 
L 259.483636 55.642159 
L 260.075455 53.383814 
L 260.667273 57.354151 
L 261.259091 55.486967 
L 261.850909 56.023337 
L 262.442727 53.197374 
L 263.034545 51.709611 
L 263.626364 52.757659 
L 264.218182 52.798159 
L 264.81 52.182305 
L 265.401818 53.601779 
L 265.993636 54.296869 
L 266.585455 50.444571 
L 267.177273 55.259644 
L 267.769091 55.47025 
L 268.360909 55.98382 
L 268.952727 56.722971 
L 269.544545 59.108719 
L 270.136364 53.750812 
L 270.728182 55.901151 
L 271.32 53.292707 
L 271.911818 56.128347 
L 272.503636 53.281087 
L 273.095455 56.565863 
L 273.687273 56.105229 
L 274.279091 53.950884 
L 274.870909 53.529207 
L 275.462727 55.531791 
L 276.054545 50.960152 
L 276.646364 56.083876 
L 277.238182 55.296516 
L 277.83 59.498283 
L 278.421818 55.404449 
L 279.013636 61.671649 
L 280.197273 54.504253 
L 280.789091 58.914327 
L 281.380909 55.754406 
L 281.972727 55.84355 
L 282.564545 56.772281 
L 283.156364 56.763129 
L 283.748182 54.940055 
L 284.34 58.886075 
L 284.931818 62.033229 
L 285.523636 62.271953 
L 286.115455 58.592476 
L 286.707273 58.232142 
L 287.299091 58.662772 
L 287.890909 55.425283 
L 288.482727 57.192404 
L 289.074545 60.662868 
L 289.666364 60.662973 
L 290.258182 57.945125 
L 290.85 56.302187 
L 291.441818 57.429631 
L 292.033636 57.568575 
L 292.625455 60.607222 
L 293.217273 59.064968 
L 293.809091 59.86957 
L 294.400909 57.574972 
L 294.992727 58.499694 
L 295.584545 58.801466 
L 296.176364 56.311915 
L 296.768182 57.256483 
L 297.36 59.524582 
L 297.951818 60.202697 
L 299.135455 58.460272 
L 299.727273 57.063008 
L 300.319091 57.259548 
L 300.910909 59.780918 
L 301.502727 60.760097 
L 302.094545 57.7406 
L 302.686364 62.287776 
L 303.278182 61.607537 
L 303.87 62.820786 
L 305.053636 57.284908 
L 305.645455 57.452909 
L 306.237273 57.91881 
L 306.829091 59.112525 
L 307.420909 62.330709 
L 308.012727 57.887011 
L 308.604545 57.015621 
L 309.196364 55.066395 
L 309.788182 56.634703 
L 310.38 56.348167 
L 310.971818 58.592048 
L 311.563636 59.1718 
L 312.155455 58.547634 
L 312.747273 56.729196 
L 313.339091 61.343142 
L 313.930909 58.966762 
L 314.522727 56.074275 
L 315.114545 57.204418 
L 315.706364 61.092489 
L 316.298182 58.305856 
L 316.89 54.307317 
L 317.481818 56.717906 
L 318.073636 55.472138 
L 318.665455 56.044023 
L 319.257273 58.432403 
L 319.849091 57.714123 
L 320.440909 58.599676 
L 321.032727 56.145479 
L 321.624545 58.012953 
L 322.216364 61.838726 
L 322.808182 57.534169 
L 323.4 57.797953 
L 323.991818 60.312268 
L 324.583636 57.383151 
L 325.175455 56.778786 
L 325.767273 61.594242 
L 326.359091 62.545669 
L 327.542727 54.29125 
L 328.134545 62.793079 
L 328.726364 64.368482 
L 329.318182 64.195839 
L 329.91 58.417384 
L 330.501818 64.854695 
L 331.093636 59.014292 
L 331.685455 64.358665 
L 332.277273 58.602155 
L 332.869091 57.339132 
L 333.460909 59.645898 
L 334.052727 56.501849 
L 334.644545 61.068208 
L 335.236364 59.622916 
L 335.828182 58.74338 
L 336.42 57.080427 
L 337.011818 60.596071 
L 337.603636 59.825266 
L 338.195455 59.799546 
L 338.787273 59.071835 
L 339.379091 57.197574 
L 339.970909 58.486073 
L 340.562727 58.003705 
L 341.154545 59.070827 
L 341.746364 57.754136 
L 342.338182 57.249872 
L 342.93 52.974695 
L 343.521818 57.791115 
L 344.705455 55.796899 
L 345.297273 53.242069 
L 345.889091 58.000963 
L 346.480909 57.480394 
L 347.072727 56.324864 
L 347.664545 49.996786 
L 348.256364 56.7905 
L 348.848182 53.279029 
L 349.44 56.460303 
L 350.031818 57.02776 
L 350.623636 54.44918 
L 351.215455 55.489476 
L 351.807273 54.722584 
L 352.399091 57.739971 
L 352.990909 55.476946 
L 353.582727 59.613841 
L 354.174545 58.405919 
L 354.766364 62.43208 
L 355.358182 61.718442 
L 355.95 61.925428 
L 356.541818 60.141947 
L 357.133636 61.446946 
L 357.725455 58.652367 
L 358.317273 56.600309 
L 358.909091 60.881564 
L 359.500909 59.557604 
L 360.092727 57.069767 
L 360.684545 57.08034 
L 361.276364 58.436494 
L 361.868182 58.085912 
L 362.46 61.097846 
L 363.051818 57.317197 
L 363.643636 60.468479 
L 364.235455 52.768029 
L 364.827273 58.169023 
L 365.419091 57.559607 
L 366.010909 56.042537 
L 366.602727 57.235416 
L 367.194545 58.125343 
L 367.786364 57.379665 
L 368.378182 59.955744 
L 368.97 57.37475 
L 369.561818 58.775208 
L 370.153636 53.997525 
L 370.745455 57.217578 
L 371.337273 54.080042 
L 371.929091 54.297127 
L 372.520909 54.889703 
L 373.112727 53.913644 
L 373.704545 55.230604 
L 374.296364 55.046132 
L 374.888182 56.503013 
L 375.48 55.660658 
L 376.071818 52.398988 
L 376.663636 51.001143 
L 377.255455 50.842689 
L 377.847273 57.726053 
L 378.439091 51.503959 
L 379.030909 52.325188 
L 379.622727 55.725545 
L 380.214545 56.094049 
L 380.806364 58.089732 
L 381.398182 56.696169 
L 381.99 55.932271 
L 382.581818 55.701759 
L 383.173636 56.79717 
L 383.765455 56.770448 
L 384.357273 54.68757 
L 385.540909 56.133017 
L 386.132727 59.078122 
L 386.724545 54.904217 
L 387.316364 57.049994 
L 387.908182 50.20276 
L 388.5 56.451511 
L 389.091818 55.724417 
L 389.683636 57.02038 
L 390.275455 56.556877 
L 390.867273 57.517947 
L 391.459091 57.286382 
L 392.050909 57.339433 
L 392.642727 57.758966 
L 393.234545 55.257313 
L 393.826364 55.082489 
L 394.418182 51.009352 
L 395.01 50.818353 
L 395.601818 55.22494 
L 396.193636 55.473908 
L 396.785455 54.313444 
L 397.377273 52.775091 
L 397.969091 54.492846 
L 398.560909 57.549997 
L 399.744545 56.357518 
L 400.336364 58.094655 
L 400.928182 54.743713 
L 401.52 53.991234 
L 402.111818 59.487717 
L 402.703636 57.724811 
L 403.295455 56.859627 
L 403.887273 59.267584 
L 404.479091 57.801299 
L 405.070909 56.70738 
L 405.662727 58.207082 
L 406.254545 56.29231 
L 406.846364 58.812208 
L 407.438182 57.254824 
L 408.03 58.17523 
L 408.621818 56.343339 
L 409.213636 58.174032 
L 409.805455 57.819314 
L 410.397273 52.375817 
L 410.989091 60.900668 
L 411.580909 60.05197 
L 412.172727 57.641253 
L 412.764545 59.666555 
L 413.356364 52.915784 
L 413.948182 57.113836 
L 414.54 56.94277 
L 415.131818 56.627007 
L 415.723636 59.805836 
L 416.315455 54.284654 
L 416.907273 54.775242 
L 417.499091 53.958926 
L 418.090909 57.392342 
L 418.682727 57.422846 
L 419.274545 56.624731 
L 419.866364 57.867672 
L 420.458182 61.90842 
L 421.05 59.167666 
L 421.641818 58.048451 
L 422.233636 55.423687 
L 422.825455 57.905084 
L 423.417273 58.575255 
L 424.009091 60.187704 
L 424.600909 58.974164 
L 425.192727 58.609259 
L 425.784545 65.044452 
L 426.376364 58.847198 
L 426.968182 60.37596 
L 427.56 61.263729 
L 428.151818 57.898705 
L 428.743636 57.421603 
L 429.335455 61.080785 
L 429.927273 58.245134 
L 430.519091 57.083502 
L 431.110909 60.087476 
L 432.294545 58.168113 
L 432.886364 55.085057 
L 433.478182 59.842216 
L 434.07 55.28246 
L 434.661818 57.936405 
L 435.253636 58.872508 
L 435.845455 57.257218 
L 435.845455 57.257218 
" style="fill:none;stroke:#2ca02c;stroke-linecap:square;stroke-width:1.5;"/>
   </g>
   <g id="line2d_19">
    <path clip-path="url(#p0fc41f764b)" d="M 80.754545 31.581756 
L 81.346364 27.815704 
L 81.938182 34.176129 
L 82.53 32.281404 
L 83.121818 27.62659 
L 83.713636 28.290233 
L 84.305455 26.235076 
L 84.897273 22.279734 
L 85.489091 23.170115 
L 86.080909 28.923052 
L 86.672727 27.052815 
L 87.264545 26.28391 
L 87.856364 24.407795 
L 88.448182 29.06547 
L 89.04 32.445097 
L 89.631818 27.77677 
L 90.223636 25.950885 
L 90.815455 28.980826 
L 91.407273 29.471535 
L 91.999091 32.878318 
L 93.182727 31.342365 
L 93.774545 31.878364 
L 94.366364 32.677168 
L 94.958182 29.380064 
L 95.55 27.611547 
L 96.141818 29.292069 
L 96.733636 23.176974 
L 97.325455 24.462079 
L 97.917273 32.585571 
L 98.509091 30.175516 
L 99.100909 26.268267 
L 99.692727 26.599939 
L 100.284545 24.506411 
L 100.876364 32.193037 
L 101.468182 24.219876 
L 102.06 26.751249 
L 102.651818 27.876297 
L 103.243636 30.233957 
L 103.835455 28.632391 
L 104.427273 33.990649 
L 105.019091 25.712038 
L 106.202727 31.799997 
L 106.794545 33.766525 
L 107.386364 34.646526 
L 107.978182 37.052719 
L 109.161818 25.86413 
L 109.753636 30.685577 
L 110.345455 32.854978 
L 110.937273 31.821824 
L 111.529091 27.906102 
L 112.120909 27.874682 
L 112.712727 30.340364 
L 113.304545 33.766112 
L 113.896364 33.53103 
L 114.488182 33.501078 
L 115.08 33.168183 
L 115.671818 35.277488 
L 116.263636 28.212793 
L 116.855455 30.879751 
L 117.447273 32.227762 
L 118.630909 36.077096 
L 119.222727 33.55655 
L 119.814545 36.059902 
L 120.406364 35.480139 
L 120.998182 31.151614 
L 121.59 35.219648 
L 122.181818 33.054112 
L 122.773636 32.846219 
L 123.365455 35.105614 
L 123.957273 32.066868 
L 124.549091 32.54844 
L 125.140909 31.655148 
L 125.732727 32.277409 
L 126.916364 35.86259 
L 127.508182 33.176357 
L 128.691818 38.000241 
L 129.283636 34.675148 
L 129.875455 35.137151 
L 130.467273 37.161156 
L 131.059091 33.699658 
L 131.650909 33.92473 
L 132.242727 36.226931 
L 133.426364 31.000846 
L 134.018182 35.062061 
L 134.61 33.027091 
L 135.201818 29.392711 
L 135.793636 28.744429 
L 136.385455 32.59274 
L 136.977273 26.581565 
L 137.569091 23.267765 
L 138.160909 29.873454 
L 138.752727 28.183729 
L 139.344545 29.737944 
L 139.936364 30.294846 
L 140.528182 28.256732 
L 141.12 29.975417 
L 141.711818 27.421181 
L 142.303636 30.089056 
L 142.895455 31.950335 
L 143.487273 33.367155 
L 145.262727 30.875334 
L 145.854545 32.053942 
L 146.446364 28.024933 
L 147.038182 34.659348 
L 148.221818 25.43174 
L 148.813636 27.749267 
L 149.405455 24.515913 
L 149.997273 34.737346 
L 150.589091 30.91709 
L 151.180909 24.675717 
L 151.772727 25.323653 
L 152.364545 26.446719 
L 152.956364 24.720405 
L 153.548182 23.393522 
L 154.14 25.143469 
L 154.731818 25.966272 
L 155.323636 21.114075 
L 155.915455 21.947294 
L 156.507273 28.414208 
L 157.099091 24.602991 
L 157.690909 26.853845 
L 158.282727 24.828411 
L 158.874545 29.196501 
L 159.466364 26.763172 
L 160.058182 30.586651 
L 160.65 23.906024 
L 161.241818 23.293755 
L 161.833636 26.405518 
L 162.425455 28.616883 
L 163.017273 25.959566 
L 163.609091 21.932919 
L 164.792727 29.44546 
L 165.976364 22.69266 
L 166.568182 29.512342 
L 167.16 28.104561 
L 167.751818 24.660458 
L 168.343636 24.576203 
L 168.935455 29.992908 
L 169.527273 25.592368 
L 170.119091 29.557034 
L 170.710909 31.045974 
L 171.302727 25.568026 
L 171.894545 25.874037 
L 172.486364 20.66662 
L 173.078182 23.024789 
L 173.67 22.931525 
L 174.261818 20.990874 
L 174.853636 23.818628 
L 175.445455 22.227128 
L 176.037273 22.062464 
L 176.629091 26.426258 
L 177.220909 25.724714 
L 177.812727 23.029566 
L 178.404545 25.856353 
L 178.996364 24.366418 
L 179.588182 31.357736 
L 180.18 25.910361 
L 180.771818 27.211565 
L 181.363636 20.529497 
L 181.955455 22.937565 
L 183.139091 21.592496 
L 183.730909 22.201885 
L 184.322727 25.730077 
L 184.914545 27.42577 
L 185.506364 25.721288 
L 186.098182 22.288097 
L 186.69 26.839227 
L 187.281818 25.559076 
L 187.873636 22.369772 
L 188.465455 28.996215 
L 189.057273 28.510948 
L 189.649091 23.850798 
L 190.240909 26.222312 
L 190.832727 24.254642 
L 191.424545 25.757918 
L 192.016364 25.406032 
L 193.2 30.121525 
L 193.791818 26.090653 
L 194.383636 24.361587 
L 194.975455 31.344601 
L 195.567273 25.928845 
L 196.159091 28.018004 
L 196.750909 26.974143 
L 197.342727 29.479018 
L 197.934545 26.071988 
L 198.526364 26.47542 
L 199.118182 26.01827 
L 199.71 25.976705 
L 200.301818 28.528041 
L 200.893636 32.059102 
L 201.485455 34.425889 
L 202.077273 32.291996 
L 202.669091 40.146173 
L 203.260909 38.471638 
L 203.852727 38.969842 
L 204.444545 38.380448 
L 205.036364 43.411521 
L 205.628182 42.876221 
L 206.22 46.215361 
L 206.811818 44.975925 
L 207.403636 42.339112 
L 207.995455 46.753037 
L 208.587273 39.630915 
L 209.179091 45.775116 
L 209.770909 46.002286 
L 210.362727 45.07381 
L 210.954545 48.122668 
L 211.546364 46.009365 
L 212.138182 45.712235 
L 212.73 49.213348 
L 213.321818 53.837037 
L 213.913636 52.84966 
L 214.505455 54.656978 
L 215.097273 51.672712 
L 215.689091 56.364203 
L 216.280909 54.414249 
L 216.872727 53.679487 
L 217.464545 56.315622 
L 218.648182 53.577108 
L 219.24 55.507464 
L 219.831818 59.456194 
L 220.423636 57.069656 
L 221.015455 50.853434 
L 221.607273 56.391993 
L 222.199091 54.864764 
L 222.790909 56.553453 
L 223.382727 58.804397 
L 223.974545 58.3406 
L 224.566364 58.46415 
L 225.158182 54.324196 
L 225.75 59.372424 
L 226.933636 58.710497 
L 227.525455 61.072661 
L 228.117273 60.990342 
L 228.709091 58.954941 
L 229.300909 52.797084 
L 229.892727 56.994324 
L 230.484545 63.787886 
L 231.076364 62.238986 
L 231.668182 63.557588 
L 232.26 66.342169 
L 232.851818 64.333255 
L 233.443636 57.416179 
L 234.035455 56.733414 
L 234.627273 58.412411 
L 235.219091 65.31088 
L 235.810909 63.455914 
L 236.402727 63.72202 
L 236.994545 66.519423 
L 237.586364 60.953263 
L 238.178182 64.036823 
L 238.77 68.179505 
L 239.361818 65.416824 
L 239.953636 65.264812 
L 240.545455 66.818005 
L 241.137273 65.465673 
L 241.729091 62.501988 
L 242.320909 62.235195 
L 242.912727 66.752101 
L 243.504545 66.993804 
L 244.096364 66.532695 
L 244.688182 64.550175 
L 245.28 65.527394 
L 245.871818 59.464375 
L 246.463636 64.135059 
L 247.055455 66.683756 
L 247.647273 68.716205 
L 248.239091 62.49207 
L 248.830909 64.680978 
L 249.422727 64.680284 
L 250.014545 62.983015 
L 250.606364 62.753923 
L 251.198182 62.819928 
L 252.381818 70.13105 
L 252.973636 63.822383 
L 253.565455 65.990185 
L 254.157273 62.586538 
L 254.749091 62.004978 
L 255.340909 58.480504 
L 255.932727 65.518178 
L 256.524545 64.154828 
L 257.116364 62.025443 
L 257.708182 66.022865 
L 258.3 60.063715 
L 258.891818 65.051528 
L 259.483636 67.443642 
L 260.075455 64.893501 
L 260.667273 64.40134 
L 261.850909 64.005124 
L 262.442727 60.251479 
L 263.034545 59.061974 
L 263.626364 65.591969 
L 264.218182 64.664509 
L 264.81 67.96466 
L 265.401818 67.814164 
L 265.993636 70.298532 
L 266.585455 64.951488 
L 267.177273 68.734677 
L 267.769091 67.11933 
L 268.360909 67.037444 
L 268.952727 69.218778 
L 269.544545 67.19173 
L 270.136364 71.62384 
L 270.728182 66.423123 
L 271.32 68.827681 
L 271.911818 70.149182 
L 272.503636 63.798272 
L 273.095455 68.105692 
L 273.687273 65.933001 
L 274.279091 66.758039 
L 274.870909 70.629866 
L 275.462727 70.128334 
L 276.054545 67.110305 
L 276.646364 68.234035 
L 277.238182 66.1882 
L 277.83 71.169649 
L 278.421818 70.199913 
L 279.013636 74.380638 
L 279.605455 70.579298 
L 280.197273 68.432064 
L 280.789091 68.301271 
L 281.380909 67.746778 
L 282.564545 71.82846 
L 283.156364 69.074348 
L 283.748182 69.038851 
L 284.931818 70.465917 
L 285.523636 72.691374 
L 286.115455 69.602322 
L 286.707273 70.743185 
L 287.299091 72.497991 
L 287.890909 72.264267 
L 288.482727 70.803561 
L 289.074545 71.213627 
L 289.666364 72.438835 
L 290.258182 70.085641 
L 290.85 70.181391 
L 291.441818 70.006402 
L 292.033636 71.000847 
L 292.625455 69.948688 
L 293.217273 72.624085 
L 293.809091 69.887793 
L 294.400909 70.057782 
L 294.992727 73.824201 
L 295.584545 71.029713 
L 296.176364 69.189646 
L 296.768182 70.087253 
L 297.36 68.81201 
L 297.951818 72.313405 
L 299.135455 69.463104 
L 299.727273 70.814722 
L 300.319091 70.202359 
L 300.910909 73.254878 
L 301.502727 71.810595 
L 302.094545 70.858154 
L 302.686364 69.370661 
L 303.278182 72.006389 
L 303.87 73.774445 
L 304.461818 70.352788 
L 305.053636 72.500799 
L 305.645455 68.341034 
L 306.237273 71.137203 
L 306.829091 70.692868 
L 308.012727 75.64146 
L 308.604545 70.453846 
L 309.196364 73.058754 
L 309.788182 69.187994 
L 310.38 73.181568 
L 310.971818 73.573567 
L 311.563636 71.76523 
L 312.155455 71.713111 
L 312.747273 72.187201 
L 313.339091 66.602935 
L 314.522727 69.267719 
L 315.114545 69.918119 
L 315.706364 68.903335 
L 316.298182 67.088536 
L 316.89 71.591363 
L 317.481818 74.333387 
L 318.073636 70.353524 
L 318.665455 68.49616 
L 319.257273 67.788499 
L 319.849091 73.523771 
L 320.440909 73.664206 
L 321.624545 69.683673 
L 322.216364 69.203857 
L 322.808182 66.033626 
L 323.4 65.172723 
L 323.991818 68.696737 
L 324.583636 68.4814 
L 325.175455 66.963522 
L 325.767273 67.65651 
L 326.359091 68.165063 
L 326.950909 66.669321 
L 327.542727 63.62855 
L 328.134545 69.268825 
L 328.726364 69.895873 
L 329.318182 68.945659 
L 329.91 65.904665 
L 330.501818 65.707041 
L 331.093636 70.105104 
L 331.685455 65.553032 
L 332.277273 66.775994 
L 332.869091 68.857057 
L 333.460909 66.745516 
L 334.052727 70.163863 
L 334.644545 68.975477 
L 335.236364 66.630345 
L 335.828182 67.452714 
L 336.42 69.383532 
L 337.011818 66.339182 
L 337.603636 70.104176 
L 338.195455 69.401083 
L 338.787273 69.357353 
L 339.379091 70.339869 
L 339.970909 70.122902 
L 340.562727 72.468983 
L 341.154545 70.817107 
L 342.338182 64.956799 
L 342.93 66.121038 
L 343.521818 69.88041 
L 344.113636 69.935991 
L 344.705455 72.347786 
L 345.297273 69.48201 
L 345.889091 68.261407 
L 346.480909 67.567799 
L 347.072727 64.640904 
L 347.664545 68.001862 
L 348.256364 70.218236 
L 348.848182 70.280747 
L 349.44 71.55069 
L 350.031818 71.139416 
L 350.623636 69.42356 
L 351.215455 69.083695 
L 351.807273 70.846384 
L 352.399091 66.43282 
L 352.990909 65.534722 
L 353.582727 69.871018 
L 354.174545 65.518341 
L 354.766364 66.835844 
L 355.358182 68.488018 
L 355.95 66.721094 
L 356.541818 68.397898 
L 357.133636 67.942147 
L 357.725455 69.299122 
L 358.317273 70.324068 
L 358.909091 69.197879 
L 359.500909 67.622239 
L 360.092727 69.346593 
L 360.684545 67.513584 
L 361.276364 72.505386 
L 361.868182 69.720019 
L 362.46 72.83592 
L 363.051818 72.053084 
L 364.827273 67.615399 
L 365.419091 68.633621 
L 366.010909 64.476322 
L 366.602727 69.198158 
L 367.194545 68.995923 
L 367.786364 69.272777 
L 368.378182 68.173367 
L 368.97 68.703189 
L 369.561818 65.336965 
L 370.745455 68.544286 
L 371.337273 66.329239 
L 371.929091 70.208938 
L 372.520909 69.298418 
L 373.112727 69.351548 
L 374.296364 72.850572 
L 374.888182 68.890011 
L 375.48 67.741314 
L 376.071818 67.536429 
L 376.663636 69.832443 
L 377.255455 70.385627 
L 377.847273 68.303288 
L 378.439091 69.516549 
L 379.030909 71.924051 
L 379.622727 69.786544 
L 380.214545 69.478678 
L 380.806364 69.037959 
L 381.398182 71.20943 
L 381.99 70.021013 
L 382.581818 66.058916 
L 383.173636 68.783912 
L 383.765455 69.232475 
L 384.357273 66.955721 
L 384.949091 69.849454 
L 385.540909 65.961769 
L 386.132727 72.43991 
L 386.724545 66.911293 
L 387.316364 66.515901 
L 387.908182 63.309458 
L 388.5 67.46855 
L 389.091818 68.686088 
L 389.683636 68.012601 
L 390.275455 66.903626 
L 390.867273 66.820222 
L 391.459091 65.87927 
L 392.050909 67.055718 
L 392.642727 67.014957 
L 393.234545 68.015375 
L 393.826364 67.921167 
L 394.418182 63.481729 
L 395.01 66.010938 
L 395.601818 63.532366 
L 396.193636 65.02999 
L 396.785455 65.717756 
L 397.377273 68.508657 
L 398.560909 64.621921 
L 399.152727 65.357955 
L 399.744545 65.048559 
L 400.336364 70.234679 
L 400.928182 67.645105 
L 401.52 69.727981 
L 402.111818 64.045828 
L 402.703636 67.99852 
L 403.295455 67.700747 
L 403.887273 65.130713 
L 404.479091 68.054982 
L 405.070909 69.227968 
L 405.662727 64.777811 
L 406.254545 65.362578 
L 406.846364 66.290504 
L 407.438182 70.358586 
L 408.03 70.637636 
L 408.621818 67.878211 
L 409.213636 62.931871 
L 409.805455 67.685419 
L 410.397273 71.525909 
L 411.580909 68.311721 
L 412.172727 67.601011 
L 413.356364 69.484656 
L 413.948182 74.022125 
L 414.54 69.544835 
L 415.131818 66.526055 
L 415.723636 70.625022 
L 416.315455 73.371091 
L 416.907273 70.16836 
L 417.499091 72.224534 
L 418.090909 72.944496 
L 418.682727 69.577436 
L 419.274545 69.464775 
L 419.866364 69.663852 
L 420.458182 67.374075 
L 421.05 71.582256 
L 421.641818 68.05098 
L 422.233636 65.696365 
L 422.825455 66.468374 
L 423.417273 68.535173 
L 424.009091 64.683615 
L 424.600909 66.775374 
L 425.192727 68.11864 
L 425.784545 69.023379 
L 426.376364 66.732277 
L 426.968182 68.832246 
L 427.56 72.825773 
L 428.743636 66.720293 
L 429.335455 68.899732 
L 429.927273 66.732112 
L 430.519091 68.124931 
L 431.110909 67.774553 
L 431.702727 68.740276 
L 432.294545 66.017215 
L 432.886364 63.903482 
L 433.478182 66.194364 
L 434.07 64.427842 
L 434.661818 64.680004 
L 435.253636 64.645633 
L 435.845455 65.988576 
L 435.845455 65.988576 
" style="fill:none;stroke:#d62728;stroke-linecap:square;stroke-width:1.5;"/>
   </g>
   <g id="line2d_20"/>
   <g id="line2d_21"/>
   <g id="line2d_22"/>
   <g id="line2d_23"/>
   <g id="patch_3">
    <path d="M 63 192.24 
L 63 25.92 
" style="fill:none;stroke:#000000;stroke-linecap:square;stroke-linejoin:miter;stroke-width:0.8;"/>
   </g>
   <g id="patch_4">
    <path d="M 63 192.24 
L 453.6 192.24 
" style="fill:none;stroke:#000000;stroke-linecap:square;stroke-linejoin:miter;stroke-width:0.8;"/>
   </g>
   <g id="text_18">
    <!-- modeltype=full -->
    <g transform="translate(211.935938 19.92)scale(0.12 -0.12)">
     <defs>
      <path d="M 30.609375 48.390625 
Q 23.390625 48.390625 19.1875 42.75 
Q 14.984375 37.109375 14.984375 27.296875 
Q 14.984375 17.484375 19.15625 11.84375 
Q 23.34375 6.203125 30.609375 6.203125 
Q 37.796875 6.203125 41.984375 11.859375 
Q 46.1875 17.53125 46.1875 27.296875 
Q 46.1875 37.015625 41.984375 42.703125 
Q 37.796875 48.390625 30.609375 48.390625 
z
M 30.609375 56 
Q 42.328125 56 49.015625 48.375 
Q 55.71875 40.765625 55.71875 27.296875 
Q 55.71875 13.875 49.015625 6.21875 
Q 42.328125 -1.421875 30.609375 -1.421875 
Q 18.84375 -1.421875 12.171875 6.21875 
Q 5.515625 13.875 5.515625 27.296875 
Q 5.515625 40.765625 12.171875 48.375 
Q 18.84375 56 30.609375 56 
z
" id="DejaVuSans-111"/>
      <path d="M 45.40625 46.390625 
L 45.40625 75.984375 
L 54.390625 75.984375 
L 54.390625 0 
L 45.40625 0 
L 45.40625 8.203125 
Q 42.578125 3.328125 38.25 0.953125 
Q 33.9375 -1.421875 27.875 -1.421875 
Q 17.96875 -1.421875 11.734375 6.484375 
Q 5.515625 14.40625 5.515625 27.296875 
Q 5.515625 40.1875 11.734375 48.09375 
Q 17.96875 56 27.875 56 
Q 33.9375 56 38.25 53.625 
Q 42.578125 51.265625 45.40625 46.390625 
z
M 14.796875 27.296875 
Q 14.796875 17.390625 18.875 11.75 
Q 22.953125 6.109375 30.078125 6.109375 
Q 37.203125 6.109375 41.296875 11.75 
Q 45.40625 17.390625 45.40625 27.296875 
Q 45.40625 37.203125 41.296875 42.84375 
Q 37.203125 48.484375 30.078125 48.484375 
Q 22.953125 48.484375 18.875 42.84375 
Q 14.796875 37.203125 14.796875 27.296875 
z
" id="DejaVuSans-100"/>
      <path d="M 9.421875 75.984375 
L 18.40625 75.984375 
L 18.40625 0 
L 9.421875 0 
z
" id="DejaVuSans-108"/>
      <path d="M 32.171875 -5.078125 
Q 28.375 -14.84375 24.75 -17.8125 
Q 21.140625 -20.796875 15.09375 -20.796875 
L 7.90625 -20.796875 
L 7.90625 -13.28125 
L 13.1875 -13.28125 
Q 16.890625 -13.28125 18.9375 -11.515625 
Q 21 -9.765625 23.484375 -3.21875 
L 25.09375 0.875 
L 2.984375 54.6875 
L 12.5 54.6875 
L 29.59375 11.921875 
L 46.6875 54.6875 
L 56.203125 54.6875 
z
" id="DejaVuSans-121"/>
      <path d="M 18.109375 8.203125 
L 18.109375 -20.796875 
L 9.078125 -20.796875 
L 9.078125 54.6875 
L 18.109375 54.6875 
L 18.109375 46.390625 
Q 20.953125 51.265625 25.265625 53.625 
Q 29.59375 56 35.59375 56 
Q 45.5625 56 51.78125 48.09375 
Q 58.015625 40.1875 58.015625 27.296875 
Q 58.015625 14.40625 51.78125 6.484375 
Q 45.5625 -1.421875 35.59375 -1.421875 
Q 29.59375 -1.421875 25.265625 0.953125 
Q 20.953125 3.328125 18.109375 8.203125 
z
M 48.6875 27.296875 
Q 48.6875 37.203125 44.609375 42.84375 
Q 40.53125 48.484375 33.40625 48.484375 
Q 26.265625 48.484375 22.1875 42.84375 
Q 18.109375 37.203125 18.109375 27.296875 
Q 18.109375 17.390625 22.1875 11.75 
Q 26.265625 6.109375 33.40625 6.109375 
Q 40.53125 6.109375 44.609375 11.75 
Q 48.6875 17.390625 48.6875 27.296875 
z
" id="DejaVuSans-112"/>
      <path d="M 10.59375 45.40625 
L 73.1875 45.40625 
L 73.1875 37.203125 
L 10.59375 37.203125 
z
M 10.59375 25.484375 
L 73.1875 25.484375 
L 73.1875 17.1875 
L 10.59375 17.1875 
z
" id="DejaVuSans-61"/>
      <path d="M 37.109375 75.984375 
L 37.109375 68.5 
L 28.515625 68.5 
Q 23.6875 68.5 21.796875 66.546875 
Q 19.921875 64.59375 19.921875 59.515625 
L 19.921875 54.6875 
L 34.71875 54.6875 
L 34.71875 47.703125 
L 19.921875 47.703125 
L 19.921875 0 
L 10.890625 0 
L 10.890625 47.703125 
L 2.296875 47.703125 
L 2.296875 54.6875 
L 10.890625 54.6875 
L 10.890625 58.5 
Q 10.890625 67.625 15.140625 71.796875 
Q 19.390625 75.984375 28.609375 75.984375 
z
" id="DejaVuSans-102"/>
      <path d="M 8.5 21.578125 
L 8.5 54.6875 
L 17.484375 54.6875 
L 17.484375 21.921875 
Q 17.484375 14.15625 20.5 10.265625 
Q 23.53125 6.390625 29.59375 6.390625 
Q 36.859375 6.390625 41.078125 11.03125 
Q 45.3125 15.671875 45.3125 23.6875 
L 45.3125 54.6875 
L 54.296875 54.6875 
L 54.296875 0 
L 45.3125 0 
L 45.3125 8.40625 
Q 42.046875 3.421875 37.71875 1 
Q 33.40625 -1.421875 27.6875 -1.421875 
Q 18.265625 -1.421875 13.375 4.4375 
Q 8.5 10.296875 8.5 21.578125 
z
M 31.109375 56 
z
" id="DejaVuSans-117"/>
     </defs>
     <use xlink:href="#DejaVuSans-109"/>
     <use x="97.412109" xlink:href="#DejaVuSans-111"/>
     <use x="158.59375" xlink:href="#DejaVuSans-100"/>
     <use x="222.070312" xlink:href="#DejaVuSans-101"/>
     <use x="283.59375" xlink:href="#DejaVuSans-108"/>
     <use x="311.376953" xlink:href="#DejaVuSans-116"/>
     <use x="350.585938" xlink:href="#DejaVuSans-121"/>
     <use x="409.765625" xlink:href="#DejaVuSans-112"/>
     <use x="473.242188" xlink:href="#DejaVuSans-101"/>
     <use x="534.765625" xlink:href="#DejaVuSans-61"/>
     <use x="618.554688" xlink:href="#DejaVuSans-102"/>
     <use x="653.759766" xlink:href="#DejaVuSans-117"/>
     <use x="717.138672" xlink:href="#DejaVuSans-108"/>
     <use x="744.921875" xlink:href="#DejaVuSans-108"/>
    </g>
   </g>
   <g id="legend_1">
    <g id="patch_5">
     <path d="M 70 187.24 
L 235.407813 187.24 
Q 237.407813 187.24 237.407813 185.24 
L 237.407813 112.57125 
Q 237.407813 110.57125 235.407813 110.57125 
L 70 110.57125 
Q 68 110.57125 68 112.57125 
L 68 185.24 
Q 68 187.24 70 187.24 
z
" style="fill:#ffffff;opacity:0.8;stroke:#cccccc;stroke-linejoin:miter;"/>
    </g>
    <g id="text_19">
     <!-- scenario -->
     <g transform="translate(131.536719 122.169687)scale(0.1 -0.1)">
      <defs>
       <path d="M 44.28125 53.078125 
L 44.28125 44.578125 
Q 40.484375 46.53125 36.375 47.5 
Q 32.28125 48.484375 27.875 48.484375 
Q 21.1875 48.484375 17.84375 46.4375 
Q 14.5 44.390625 14.5 40.28125 
Q 14.5 37.15625 16.890625 35.375 
Q 19.28125 33.59375 26.515625 31.984375 
L 29.59375 31.296875 
Q 39.15625 29.25 43.1875 25.515625 
Q 47.21875 21.78125 47.21875 15.09375 
Q 47.21875 7.46875 41.1875 3.015625 
Q 35.15625 -1.421875 24.609375 -1.421875 
Q 20.21875 -1.421875 15.453125 -0.5625 
Q 10.6875 0.296875 5.421875 2 
L 5.421875 11.28125 
Q 10.40625 8.6875 15.234375 7.390625 
Q 20.0625 6.109375 24.8125 6.109375 
Q 31.15625 6.109375 34.5625 8.28125 
Q 37.984375 10.453125 37.984375 14.40625 
Q 37.984375 18.0625 35.515625 20.015625 
Q 33.0625 21.96875 24.703125 23.78125 
L 21.578125 24.515625 
Q 13.234375 26.265625 9.515625 29.90625 
Q 5.8125 33.546875 5.8125 39.890625 
Q 5.8125 47.609375 11.28125 51.796875 
Q 16.75 56 26.8125 56 
Q 31.78125 56 36.171875 55.265625 
Q 40.578125 54.546875 44.28125 53.078125 
z
" id="DejaVuSans-115"/>
       <path d="M 48.78125 52.59375 
L 48.78125 44.1875 
Q 44.96875 46.296875 41.140625 47.34375 
Q 37.3125 48.390625 33.40625 48.390625 
Q 24.65625 48.390625 19.8125 42.84375 
Q 14.984375 37.3125 14.984375 27.296875 
Q 14.984375 17.28125 19.8125 11.734375 
Q 24.65625 6.203125 33.40625 6.203125 
Q 37.3125 6.203125 41.140625 7.25 
Q 44.96875 8.296875 48.78125 10.40625 
L 48.78125 2.09375 
Q 45.015625 0.34375 40.984375 -0.53125 
Q 36.96875 -1.421875 32.421875 -1.421875 
Q 20.0625 -1.421875 12.78125 6.34375 
Q 5.515625 14.109375 5.515625 27.296875 
Q 5.515625 40.671875 12.859375 48.328125 
Q 20.21875 56 33.015625 56 
Q 37.15625 56 41.109375 55.140625 
Q 45.0625 54.296875 48.78125 52.59375 
z
" id="DejaVuSans-99"/>
       <path d="M 54.890625 33.015625 
L 54.890625 0 
L 45.90625 0 
L 45.90625 32.71875 
Q 45.90625 40.484375 42.875 44.328125 
Q 39.84375 48.1875 33.796875 48.1875 
Q 26.515625 48.1875 22.3125 43.546875 
Q 18.109375 38.921875 18.109375 30.90625 
L 18.109375 0 
L 9.078125 0 
L 9.078125 54.6875 
L 18.109375 54.6875 
L 18.109375 46.1875 
Q 21.34375 51.125 25.703125 53.5625 
Q 30.078125 56 35.796875 56 
Q 45.21875 56 50.046875 50.171875 
Q 54.890625 44.34375 54.890625 33.015625 
z
" id="DejaVuSans-110"/>
       <path d="M 34.28125 27.484375 
Q 23.390625 27.484375 19.1875 25 
Q 14.984375 22.515625 14.984375 16.5 
Q 14.984375 11.71875 18.140625 8.90625 
Q 21.296875 6.109375 26.703125 6.109375 
Q 34.1875 6.109375 38.703125 11.40625 
Q 43.21875 16.703125 43.21875 25.484375 
L 43.21875 27.484375 
z
M 52.203125 31.203125 
L 52.203125 0 
L 43.21875 0 
L 43.21875 8.296875 
Q 40.140625 3.328125 35.546875 0.953125 
Q 30.953125 -1.421875 24.3125 -1.421875 
Q 15.921875 -1.421875 10.953125 3.296875 
Q 6 8.015625 6 15.921875 
Q 6 25.140625 12.171875 29.828125 
Q 18.359375 34.515625 30.609375 34.515625 
L 43.21875 34.515625 
L 43.21875 35.40625 
Q 43.21875 41.609375 39.140625 45 
Q 35.0625 48.390625 27.6875 48.390625 
Q 23 48.390625 18.546875 47.265625 
Q 14.109375 46.140625 10.015625 43.890625 
L 10.015625 52.203125 
Q 14.9375 54.109375 19.578125 55.046875 
Q 24.21875 56 28.609375 56 
Q 40.484375 56 46.34375 49.84375 
Q 52.203125 43.703125 52.203125 31.203125 
z
" id="DejaVuSans-97"/>
       <path d="M 41.109375 46.296875 
Q 39.59375 47.171875 37.8125 47.578125 
Q 36.03125 48 33.890625 48 
Q 26.265625 48 22.1875 43.046875 
Q 18.109375 38.09375 18.109375 28.8125 
L 18.109375 0 
L 9.078125 0 
L 9.078125 54.6875 
L 18.109375 54.6875 
L 18.109375 46.1875 
Q 20.953125 51.171875 25.484375 53.578125 
Q 30.03125 56 36.53125 56 
Q 37.453125 56 38.578125 55.875 
Q 39.703125 55.765625 41.0625 55.515625 
z
" id="DejaVuSans-114"/>
      </defs>
      <use xlink:href="#DejaVuSans-115"/>
      <use x="52.099609" xlink:href="#DejaVuSans-99"/>
      <use x="107.080078" xlink:href="#DejaVuSans-101"/>
      <use x="168.603516" xlink:href="#DejaVuSans-110"/>
      <use x="231.982422" xlink:href="#DejaVuSans-97"/>
      <use x="293.261719" xlink:href="#DejaVuSans-114"/>
      <use x="334.375" xlink:href="#DejaVuSans-105"/>
      <use x="362.158203" xlink:href="#DejaVuSans-111"/>
     </g>
    </g>
    <g id="line2d_24">
     <path d="M 72 133.347812 
L 92 133.347812 
" style="fill:none;stroke:#1f77b4;stroke-linecap:square;stroke-width:1.5;"/>
    </g>
    <g id="line2d_25"/>
    <g id="text_20">
     <!-- onlylow -->
     <g transform="translate(100 136.847812)scale(0.1 -0.1)">
      <defs>
       <path d="M 4.203125 54.6875 
L 13.1875 54.6875 
L 24.421875 12.015625 
L 35.59375 54.6875 
L 46.1875 54.6875 
L 57.421875 12.015625 
L 68.609375 54.6875 
L 77.59375 54.6875 
L 63.28125 0 
L 52.6875 0 
L 40.921875 44.828125 
L 29.109375 0 
L 18.5 0 
z
" id="DejaVuSans-119"/>
      </defs>
      <use xlink:href="#DejaVuSans-111"/>
      <use x="61.181641" xlink:href="#DejaVuSans-110"/>
      <use x="124.560547" xlink:href="#DejaVuSans-108"/>
      <use x="152.34375" xlink:href="#DejaVuSans-121"/>
      <use x="211.523438" xlink:href="#DejaVuSans-108"/>
      <use x="239.306641" xlink:href="#DejaVuSans-111"/>
      <use x="300.488281" xlink:href="#DejaVuSans-119"/>
     </g>
    </g>
    <g id="line2d_26">
     <path d="M 72 148.025937 
L 92 148.025937 
" style="fill:none;stroke:#ff7f0e;stroke-linecap:square;stroke-width:1.5;"/>
    </g>
    <g id="line2d_27"/>
    <g id="text_21">
     <!-- onlyhigh -->
     <g transform="translate(100 151.525937)scale(0.1 -0.1)">
      <defs>
       <path d="M 54.890625 33.015625 
L 54.890625 0 
L 45.90625 0 
L 45.90625 32.71875 
Q 45.90625 40.484375 42.875 44.328125 
Q 39.84375 48.1875 33.796875 48.1875 
Q 26.515625 48.1875 22.3125 43.546875 
Q 18.109375 38.921875 18.109375 30.90625 
L 18.109375 0 
L 9.078125 0 
L 9.078125 75.984375 
L 18.109375 75.984375 
L 18.109375 46.1875 
Q 21.34375 51.125 25.703125 53.5625 
Q 30.078125 56 35.796875 56 
Q 45.21875 56 50.046875 50.171875 
Q 54.890625 44.34375 54.890625 33.015625 
z
" id="DejaVuSans-104"/>
       <path d="M 45.40625 27.984375 
Q 45.40625 37.75 41.375 43.109375 
Q 37.359375 48.484375 30.078125 48.484375 
Q 22.859375 48.484375 18.828125 43.109375 
Q 14.796875 37.75 14.796875 27.984375 
Q 14.796875 18.265625 18.828125 12.890625 
Q 22.859375 7.515625 30.078125 7.515625 
Q 37.359375 7.515625 41.375 12.890625 
Q 45.40625 18.265625 45.40625 27.984375 
z
M 54.390625 6.78125 
Q 54.390625 -7.171875 48.1875 -13.984375 
Q 42 -20.796875 29.203125 -20.796875 
Q 24.46875 -20.796875 20.265625 -20.09375 
Q 16.0625 -19.390625 12.109375 -17.921875 
L 12.109375 -9.1875 
Q 16.0625 -11.328125 19.921875 -12.34375 
Q 23.78125 -13.375 27.78125 -13.375 
Q 36.625 -13.375 41.015625 -8.765625 
Q 45.40625 -4.15625 45.40625 5.171875 
L 45.40625 9.625 
Q 42.625 4.78125 38.28125 2.390625 
Q 33.9375 0 27.875 0 
Q 17.828125 0 11.671875 7.65625 
Q 5.515625 15.328125 5.515625 27.984375 
Q 5.515625 40.671875 11.671875 48.328125 
Q 17.828125 56 27.875 56 
Q 33.9375 56 38.28125 53.609375 
Q 42.625 51.21875 45.40625 46.390625 
L 45.40625 54.6875 
L 54.390625 54.6875 
z
" id="DejaVuSans-103"/>
      </defs>
      <use xlink:href="#DejaVuSans-111"/>
      <use x="61.181641" xlink:href="#DejaVuSans-110"/>
      <use x="124.560547" xlink:href="#DejaVuSans-108"/>
      <use x="152.34375" xlink:href="#DejaVuSans-121"/>
      <use x="211.523438" xlink:href="#DejaVuSans-104"/>
      <use x="274.902344" xlink:href="#DejaVuSans-105"/>
      <use x="302.685547" xlink:href="#DejaVuSans-103"/>
      <use x="366.162109" xlink:href="#DejaVuSans-104"/>
     </g>
    </g>
    <g id="line2d_28">
     <path d="M 72 162.704062 
L 92 162.704062 
" style="fill:none;stroke:#2ca02c;stroke-linecap:square;stroke-width:1.5;"/>
    </g>
    <g id="line2d_29"/>
    <g id="text_22">
     <!-- balanced -->
     <g transform="translate(100 166.204062)scale(0.1 -0.1)">
      <defs>
       <path d="M 48.6875 27.296875 
Q 48.6875 37.203125 44.609375 42.84375 
Q 40.53125 48.484375 33.40625 48.484375 
Q 26.265625 48.484375 22.1875 42.84375 
Q 18.109375 37.203125 18.109375 27.296875 
Q 18.109375 17.390625 22.1875 11.75 
Q 26.265625 6.109375 33.40625 6.109375 
Q 40.53125 6.109375 44.609375 11.75 
Q 48.6875 17.390625 48.6875 27.296875 
z
M 18.109375 46.390625 
Q 20.953125 51.265625 25.265625 53.625 
Q 29.59375 56 35.59375 56 
Q 45.5625 56 51.78125 48.09375 
Q 58.015625 40.1875 58.015625 27.296875 
Q 58.015625 14.40625 51.78125 6.484375 
Q 45.5625 -1.421875 35.59375 -1.421875 
Q 29.59375 -1.421875 25.265625 0.953125 
Q 20.953125 3.328125 18.109375 8.203125 
L 18.109375 0 
L 9.078125 0 
L 9.078125 75.984375 
L 18.109375 75.984375 
z
" id="DejaVuSans-98"/>
      </defs>
      <use xlink:href="#DejaVuSans-98"/>
      <use x="63.476562" xlink:href="#DejaVuSans-97"/>
      <use x="124.755859" xlink:href="#DejaVuSans-108"/>
      <use x="152.539062" xlink:href="#DejaVuSans-97"/>
      <use x="213.818359" xlink:href="#DejaVuSans-110"/>
      <use x="277.197266" xlink:href="#DejaVuSans-99"/>
      <use x="332.177734" xlink:href="#DejaVuSans-101"/>
      <use x="393.701172" xlink:href="#DejaVuSans-100"/>
     </g>
    </g>
    <g id="line2d_30">
     <path d="M 72 177.382187 
L 92 177.382187 
" style="fill:none;stroke:#d62728;stroke-linecap:square;stroke-width:1.5;"/>
    </g>
    <g id="line2d_31"/>
    <g id="text_23">
     <!-- balanced_errors_penalized -->
     <g transform="translate(100 180.882187)scale(0.1 -0.1)">
      <defs>
       <path d="M 50.984375 -16.609375 
L 50.984375 -23.578125 
L -0.984375 -23.578125 
L -0.984375 -16.609375 
z
" id="DejaVuSans-95"/>
       <path d="M 5.515625 54.6875 
L 48.1875 54.6875 
L 48.1875 46.484375 
L 14.40625 7.171875 
L 48.1875 7.171875 
L 48.1875 0 
L 4.296875 0 
L 4.296875 8.203125 
L 38.09375 47.515625 
L 5.515625 47.515625 
z
" id="DejaVuSans-122"/>
      </defs>
      <use xlink:href="#DejaVuSans-98"/>
      <use x="63.476562" xlink:href="#DejaVuSans-97"/>
      <use x="124.755859" xlink:href="#DejaVuSans-108"/>
      <use x="152.539062" xlink:href="#DejaVuSans-97"/>
      <use x="213.818359" xlink:href="#DejaVuSans-110"/>
      <use x="277.197266" xlink:href="#DejaVuSans-99"/>
      <use x="332.177734" xlink:href="#DejaVuSans-101"/>
      <use x="393.701172" xlink:href="#DejaVuSans-100"/>
      <use x="457.177734" xlink:href="#DejaVuSans-95"/>
      <use x="507.177734" xlink:href="#DejaVuSans-101"/>
      <use x="568.701172" xlink:href="#DejaVuSans-114"/>
      <use x="608.064453" xlink:href="#DejaVuSans-114"/>
      <use x="646.927734" xlink:href="#DejaVuSans-111"/>
      <use x="708.109375" xlink:href="#DejaVuSans-114"/>
      <use x="749.222656" xlink:href="#DejaVuSans-115"/>
      <use x="801.322266" xlink:href="#DejaVuSans-95"/>
      <use x="851.322266" xlink:href="#DejaVuSans-112"/>
      <use x="914.798828" xlink:href="#DejaVuSans-101"/>
      <use x="976.322266" xlink:href="#DejaVuSans-110"/>
      <use x="1039.701172" xlink:href="#DejaVuSans-97"/>
      <use x="1100.980469" xlink:href="#DejaVuSans-108"/>
      <use x="1128.763672" xlink:href="#DejaVuSans-105"/>
      <use x="1156.546875" xlink:href="#DejaVuSans-122"/>
      <use x="1209.037109" xlink:href="#DejaVuSans-101"/>
      <use x="1270.560547" xlink:href="#DejaVuSans-100"/>
     </g>
    </g>
   </g>
  </g>
 </g>
 <defs>
  <clipPath id="p0fc41f764b">
   <rect height="166.32" width="390.6" x="63" y="25.92"/>
  </clipPath>
 </defs>
</svg>
