<?xml version="1.0" encoding="utf-8" standalone="no"?>
<!DOCTYPE svg PUBLIC "-//W3C//DTD SVG 1.1//EN"
  "http://www.w3.org/Graphics/SVG/1.1/DTD/svg11.dtd">
<!-- Created with matplotlib (https://matplotlib.org/) -->
<svg height="216pt" version="1.1" viewBox="0 0 504 216" width="504pt" xmlns="http://www.w3.org/2000/svg" xmlns:xlink="http://www.w3.org/1999/xlink">
 <metadata>
  <rdf:RDF xmlns:cc="http://creativecommons.org/ns#" xmlns:dc="http://purl.org/dc/elements/1.1/" xmlns:rdf="http://www.w3.org/1999/02/22-rdf-syntax-ns#">
   <cc:Work>
    <dc:type rdf:resource="http://purl.org/dc/dcmitype/StillImage"/>
    <dc:date>2021-11-26T09:55:10.187291</dc:date>
    <dc:format>image/svg+xml</dc:format>
    <dc:creator>
     <cc:Agent>
      <dc:title>Matplotlib v3.3.4, https://matplotlib.org/</dc:title>
     </cc:Agent>
    </dc:creator>
   </cc:Work>
  </rdf:RDF>
 </metadata>
 <defs>
  <style type="text/css">*{stroke-linecap:butt;stroke-linejoin:round;}</style>
 </defs>
 <g id="figure_1">
  <g id="patch_1">
   <path d="M 0 216 
L 504 216 
L 504 0 
L 0 0 
z
" style="fill:#ffffff;"/>
  </g>
  <g id="axes_1">
   <g id="patch_2">
    <path d="M 63 192.24 
L 453.6 192.24 
L 453.6 25.92 
L 63 25.92 
z
" style="fill:#ffffff;"/>
   </g>
   <g id="matplotlib.axis_1">
    <g id="xtick_1">
     <g id="line2d_1">
      <defs>
       <path d="M 0 0 
L 0 3.5 
" id="mf7998a88b2" style="stroke:#000000;stroke-width:0.8;"/>
      </defs>
      <g>
       <use style="stroke:#000000;stroke-width:0.8;" x="81.346364" xlink:href="#mf7998a88b2" y="192.24"/>
      </g>
     </g>
     <g id="text_1">
      <!-- 200 -->
      <g transform="translate(71.802614 206.838437)scale(0.1 -0.1)">
       <defs>
        <path d="M 19.1875 8.296875 
L 53.609375 8.296875 
L 53.609375 0 
L 7.328125 0 
L 7.328125 8.296875 
Q 12.9375 14.109375 22.625 23.890625 
Q 32.328125 33.6875 34.8125 36.53125 
Q 39.546875 41.84375 41.421875 45.53125 
Q 43.3125 49.21875 43.3125 52.78125 
Q 43.3125 58.59375 39.234375 62.25 
Q 35.15625 65.921875 28.609375 65.921875 
Q 23.96875 65.921875 18.8125 64.3125 
Q 13.671875 62.703125 7.8125 59.421875 
L 7.8125 69.390625 
Q 13.765625 71.78125 18.9375 73 
Q 24.125 74.21875 28.421875 74.21875 
Q 39.75 74.21875 46.484375 68.546875 
Q 53.21875 62.890625 53.21875 53.421875 
Q 53.21875 48.921875 51.53125 44.890625 
Q 49.859375 40.875 45.40625 35.40625 
Q 44.1875 33.984375 37.640625 27.21875 
Q 31.109375 20.453125 19.1875 8.296875 
z
" id="DejaVuSans-50"/>
        <path d="M 31.78125 66.40625 
Q 24.171875 66.40625 20.328125 58.90625 
Q 16.5 51.421875 16.5 36.375 
Q 16.5 21.390625 20.328125 13.890625 
Q 24.171875 6.390625 31.78125 6.390625 
Q 39.453125 6.390625 43.28125 13.890625 
Q 47.125 21.390625 47.125 36.375 
Q 47.125 51.421875 43.28125 58.90625 
Q 39.453125 66.40625 31.78125 66.40625 
z
M 31.78125 74.21875 
Q 44.046875 74.21875 50.515625 64.515625 
Q 56.984375 54.828125 56.984375 36.375 
Q 56.984375 17.96875 50.515625 8.265625 
Q 44.046875 -1.421875 31.78125 -1.421875 
Q 19.53125 -1.421875 13.0625 8.265625 
Q 6.59375 17.96875 6.59375 36.375 
Q 6.59375 54.828125 13.0625 64.515625 
Q 19.53125 74.21875 31.78125 74.21875 
z
" id="DejaVuSans-48"/>
       </defs>
       <use xlink:href="#DejaVuSans-50"/>
       <use x="63.623047" xlink:href="#DejaVuSans-48"/>
       <use x="127.246094" xlink:href="#DejaVuSans-48"/>
      </g>
     </g>
    </g>
    <g id="xtick_2">
     <g id="line2d_2">
      <g>
       <use style="stroke:#000000;stroke-width:0.8;" x="140.528182" xlink:href="#mf7998a88b2" y="192.24"/>
      </g>
     </g>
     <g id="text_2">
      <!-- 300 -->
      <g transform="translate(130.984432 206.838437)scale(0.1 -0.1)">
       <defs>
        <path d="M 40.578125 39.3125 
Q 47.65625 37.796875 51.625 33 
Q 55.609375 28.21875 55.609375 21.1875 
Q 55.609375 10.40625 48.1875 4.484375 
Q 40.765625 -1.421875 27.09375 -1.421875 
Q 22.515625 -1.421875 17.65625 -0.515625 
Q 12.796875 0.390625 7.625 2.203125 
L 7.625 11.71875 
Q 11.71875 9.328125 16.59375 8.109375 
Q 21.484375 6.890625 26.8125 6.890625 
Q 36.078125 6.890625 40.9375 10.546875 
Q 45.796875 14.203125 45.796875 21.1875 
Q 45.796875 27.640625 41.28125 31.265625 
Q 36.765625 34.90625 28.71875 34.90625 
L 20.21875 34.90625 
L 20.21875 43.015625 
L 29.109375 43.015625 
Q 36.375 43.015625 40.234375 45.921875 
Q 44.09375 48.828125 44.09375 54.296875 
Q 44.09375 59.90625 40.109375 62.90625 
Q 36.140625 65.921875 28.71875 65.921875 
Q 24.65625 65.921875 20.015625 65.03125 
Q 15.375 64.15625 9.8125 62.3125 
L 9.8125 71.09375 
Q 15.4375 72.65625 20.34375 73.4375 
Q 25.25 74.21875 29.59375 74.21875 
Q 40.828125 74.21875 47.359375 69.109375 
Q 53.90625 64.015625 53.90625 55.328125 
Q 53.90625 49.265625 50.4375 45.09375 
Q 46.96875 40.921875 40.578125 39.3125 
z
" id="DejaVuSans-51"/>
       </defs>
       <use xlink:href="#DejaVuSans-51"/>
       <use x="63.623047" xlink:href="#DejaVuSans-48"/>
       <use x="127.246094" xlink:href="#DejaVuSans-48"/>
      </g>
     </g>
    </g>
    <g id="xtick_3">
     <g id="line2d_3">
      <g>
       <use style="stroke:#000000;stroke-width:0.8;" x="199.71" xlink:href="#mf7998a88b2" y="192.24"/>
      </g>
     </g>
     <g id="text_3">
      <!-- 400 -->
      <g transform="translate(190.16625 206.838437)scale(0.1 -0.1)">
       <defs>
        <path d="M 37.796875 64.3125 
L 12.890625 25.390625 
L 37.796875 25.390625 
z
M 35.203125 72.90625 
L 47.609375 72.90625 
L 47.609375 25.390625 
L 58.015625 25.390625 
L 58.015625 17.1875 
L 47.609375 17.1875 
L 47.609375 0 
L 37.796875 0 
L 37.796875 17.1875 
L 4.890625 17.1875 
L 4.890625 26.703125 
z
" id="DejaVuSans-52"/>
       </defs>
       <use xlink:href="#DejaVuSans-52"/>
       <use x="63.623047" xlink:href="#DejaVuSans-48"/>
       <use x="127.246094" xlink:href="#DejaVuSans-48"/>
      </g>
     </g>
    </g>
    <g id="xtick_4">
     <g id="line2d_4">
      <g>
       <use style="stroke:#000000;stroke-width:0.8;" x="258.891818" xlink:href="#mf7998a88b2" y="192.24"/>
      </g>
     </g>
     <g id="text_4">
      <!-- 500 -->
      <g transform="translate(249.348068 206.838437)scale(0.1 -0.1)">
       <defs>
        <path d="M 10.796875 72.90625 
L 49.515625 72.90625 
L 49.515625 64.59375 
L 19.828125 64.59375 
L 19.828125 46.734375 
Q 21.96875 47.46875 24.109375 47.828125 
Q 26.265625 48.1875 28.421875 48.1875 
Q 40.625 48.1875 47.75 41.5 
Q 54.890625 34.8125 54.890625 23.390625 
Q 54.890625 11.625 47.5625 5.09375 
Q 40.234375 -1.421875 26.90625 -1.421875 
Q 22.3125 -1.421875 17.546875 -0.640625 
Q 12.796875 0.140625 7.71875 1.703125 
L 7.71875 11.625 
Q 12.109375 9.234375 16.796875 8.0625 
Q 21.484375 6.890625 26.703125 6.890625 
Q 35.15625 6.890625 40.078125 11.328125 
Q 45.015625 15.765625 45.015625 23.390625 
Q 45.015625 31 40.078125 35.4375 
Q 35.15625 39.890625 26.703125 39.890625 
Q 22.75 39.890625 18.8125 39.015625 
Q 14.890625 38.140625 10.796875 36.28125 
z
" id="DejaVuSans-53"/>
       </defs>
       <use xlink:href="#DejaVuSans-53"/>
       <use x="63.623047" xlink:href="#DejaVuSans-48"/>
       <use x="127.246094" xlink:href="#DejaVuSans-48"/>
      </g>
     </g>
    </g>
    <g id="xtick_5">
     <g id="line2d_5">
      <g>
       <use style="stroke:#000000;stroke-width:0.8;" x="318.073636" xlink:href="#mf7998a88b2" y="192.24"/>
      </g>
     </g>
     <g id="text_5">
      <!-- 600 -->
      <g transform="translate(308.529886 206.838437)scale(0.1 -0.1)">
       <defs>
        <path d="M 33.015625 40.375 
Q 26.375 40.375 22.484375 35.828125 
Q 18.609375 31.296875 18.609375 23.390625 
Q 18.609375 15.53125 22.484375 10.953125 
Q 26.375 6.390625 33.015625 6.390625 
Q 39.65625 6.390625 43.53125 10.953125 
Q 47.40625 15.53125 47.40625 23.390625 
Q 47.40625 31.296875 43.53125 35.828125 
Q 39.65625 40.375 33.015625 40.375 
z
M 52.59375 71.296875 
L 52.59375 62.3125 
Q 48.875 64.0625 45.09375 64.984375 
Q 41.3125 65.921875 37.59375 65.921875 
Q 27.828125 65.921875 22.671875 59.328125 
Q 17.53125 52.734375 16.796875 39.40625 
Q 19.671875 43.65625 24.015625 45.921875 
Q 28.375 48.1875 33.59375 48.1875 
Q 44.578125 48.1875 50.953125 41.515625 
Q 57.328125 34.859375 57.328125 23.390625 
Q 57.328125 12.15625 50.6875 5.359375 
Q 44.046875 -1.421875 33.015625 -1.421875 
Q 20.359375 -1.421875 13.671875 8.265625 
Q 6.984375 17.96875 6.984375 36.375 
Q 6.984375 53.65625 15.1875 63.9375 
Q 23.390625 74.21875 37.203125 74.21875 
Q 40.921875 74.21875 44.703125 73.484375 
Q 48.484375 72.75 52.59375 71.296875 
z
" id="DejaVuSans-54"/>
       </defs>
       <use xlink:href="#DejaVuSans-54"/>
       <use x="63.623047" xlink:href="#DejaVuSans-48"/>
       <use x="127.246094" xlink:href="#DejaVuSans-48"/>
      </g>
     </g>
    </g>
    <g id="xtick_6">
     <g id="line2d_6">
      <g>
       <use style="stroke:#000000;stroke-width:0.8;" x="377.255455" xlink:href="#mf7998a88b2" y="192.24"/>
      </g>
     </g>
     <g id="text_6">
      <!-- 700 -->
      <g transform="translate(367.711705 206.838437)scale(0.1 -0.1)">
       <defs>
        <path d="M 8.203125 72.90625 
L 55.078125 72.90625 
L 55.078125 68.703125 
L 28.609375 0 
L 18.3125 0 
L 43.21875 64.59375 
L 8.203125 64.59375 
z
" id="DejaVuSans-55"/>
       </defs>
       <use xlink:href="#DejaVuSans-55"/>
       <use x="63.623047" xlink:href="#DejaVuSans-48"/>
       <use x="127.246094" xlink:href="#DejaVuSans-48"/>
      </g>
     </g>
    </g>
    <g id="xtick_7">
     <g id="line2d_7">
      <g>
       <use style="stroke:#000000;stroke-width:0.8;" x="436.437273" xlink:href="#mf7998a88b2" y="192.24"/>
      </g>
     </g>
     <g id="text_7">
      <!-- 800 -->
      <g transform="translate(426.893523 206.838437)scale(0.1 -0.1)">
       <defs>
        <path d="M 31.78125 34.625 
Q 24.75 34.625 20.71875 30.859375 
Q 16.703125 27.09375 16.703125 20.515625 
Q 16.703125 13.921875 20.71875 10.15625 
Q 24.75 6.390625 31.78125 6.390625 
Q 38.8125 6.390625 42.859375 10.171875 
Q 46.921875 13.96875 46.921875 20.515625 
Q 46.921875 27.09375 42.890625 30.859375 
Q 38.875 34.625 31.78125 34.625 
z
M 21.921875 38.8125 
Q 15.578125 40.375 12.03125 44.71875 
Q 8.5 49.078125 8.5 55.328125 
Q 8.5 64.0625 14.71875 69.140625 
Q 20.953125 74.21875 31.78125 74.21875 
Q 42.671875 74.21875 48.875 69.140625 
Q 55.078125 64.0625 55.078125 55.328125 
Q 55.078125 49.078125 51.53125 44.71875 
Q 48 40.375 41.703125 38.8125 
Q 48.828125 37.15625 52.796875 32.3125 
Q 56.78125 27.484375 56.78125 20.515625 
Q 56.78125 9.90625 50.3125 4.234375 
Q 43.84375 -1.421875 31.78125 -1.421875 
Q 19.734375 -1.421875 13.25 4.234375 
Q 6.78125 9.90625 6.78125 20.515625 
Q 6.78125 27.484375 10.78125 32.3125 
Q 14.796875 37.15625 21.921875 38.8125 
z
M 18.3125 54.390625 
Q 18.3125 48.734375 21.84375 45.5625 
Q 25.390625 42.390625 31.78125 42.390625 
Q 38.140625 42.390625 41.71875 45.5625 
Q 45.3125 48.734375 45.3125 54.390625 
Q 45.3125 60.0625 41.71875 63.234375 
Q 38.140625 66.40625 31.78125 66.40625 
Q 25.390625 66.40625 21.84375 63.234375 
Q 18.3125 60.0625 18.3125 54.390625 
z
" id="DejaVuSans-56"/>
       </defs>
       <use xlink:href="#DejaVuSans-56"/>
       <use x="63.623047" xlink:href="#DejaVuSans-48"/>
       <use x="127.246094" xlink:href="#DejaVuSans-48"/>
      </g>
     </g>
    </g>
    <g id="text_8">
     <!-- time -->
     <g transform="translate(247.003906 220.516562)scale(0.1 -0.1)">
      <defs>
       <path d="M 18.3125 70.21875 
L 18.3125 54.6875 
L 36.8125 54.6875 
L 36.8125 47.703125 
L 18.3125 47.703125 
L 18.3125 18.015625 
Q 18.3125 11.328125 20.140625 9.421875 
Q 21.96875 7.515625 27.59375 7.515625 
L 36.8125 7.515625 
L 36.8125 0 
L 27.59375 0 
Q 17.1875 0 13.234375 3.875 
Q 9.28125 7.765625 9.28125 18.015625 
L 9.28125 47.703125 
L 2.6875 47.703125 
L 2.6875 54.6875 
L 9.28125 54.6875 
L 9.28125 70.21875 
z
" id="DejaVuSans-116"/>
       <path d="M 9.421875 54.6875 
L 18.40625 54.6875 
L 18.40625 0 
L 9.421875 0 
z
M 9.421875 75.984375 
L 18.40625 75.984375 
L 18.40625 64.59375 
L 9.421875 64.59375 
z
" id="DejaVuSans-105"/>
       <path d="M 52 44.1875 
Q 55.375 50.25 60.0625 53.125 
Q 64.75 56 71.09375 56 
Q 79.640625 56 84.28125 50.015625 
Q 88.921875 44.046875 88.921875 33.015625 
L 88.921875 0 
L 79.890625 0 
L 79.890625 32.71875 
Q 79.890625 40.578125 77.09375 44.375 
Q 74.3125 48.1875 68.609375 48.1875 
Q 61.625 48.1875 57.5625 43.546875 
Q 53.515625 38.921875 53.515625 30.90625 
L 53.515625 0 
L 44.484375 0 
L 44.484375 32.71875 
Q 44.484375 40.625 41.703125 44.40625 
Q 38.921875 48.1875 33.109375 48.1875 
Q 26.21875 48.1875 22.15625 43.53125 
Q 18.109375 38.875 18.109375 30.90625 
L 18.109375 0 
L 9.078125 0 
L 9.078125 54.6875 
L 18.109375 54.6875 
L 18.109375 46.1875 
Q 21.1875 51.21875 25.484375 53.609375 
Q 29.78125 56 35.6875 56 
Q 41.65625 56 45.828125 52.96875 
Q 50 49.953125 52 44.1875 
z
" id="DejaVuSans-109"/>
       <path d="M 56.203125 29.59375 
L 56.203125 25.203125 
L 14.890625 25.203125 
Q 15.484375 15.921875 20.484375 11.0625 
Q 25.484375 6.203125 34.421875 6.203125 
Q 39.59375 6.203125 44.453125 7.46875 
Q 49.3125 8.734375 54.109375 11.28125 
L 54.109375 2.78125 
Q 49.265625 0.734375 44.1875 -0.34375 
Q 39.109375 -1.421875 33.890625 -1.421875 
Q 20.796875 -1.421875 13.15625 6.1875 
Q 5.515625 13.8125 5.515625 26.8125 
Q 5.515625 40.234375 12.765625 48.109375 
Q 20.015625 56 32.328125 56 
Q 43.359375 56 49.78125 48.890625 
Q 56.203125 41.796875 56.203125 29.59375 
z
M 47.21875 32.234375 
Q 47.125 39.59375 43.09375 43.984375 
Q 39.0625 48.390625 32.421875 48.390625 
Q 24.90625 48.390625 20.390625 44.140625 
Q 15.875 39.890625 15.1875 32.171875 
z
" id="DejaVuSans-101"/>
      </defs>
      <use xlink:href="#DejaVuSans-116"/>
      <use x="39.208984" xlink:href="#DejaVuSans-105"/>
      <use x="66.992188" xlink:href="#DejaVuSans-109"/>
      <use x="164.404297" xlink:href="#DejaVuSans-101"/>
     </g>
    </g>
   </g>
   <g id="matplotlib.axis_2">
    <g id="ytick_1">
     <g id="line2d_8">
      <defs>
       <path d="M 0 0 
L -3.5 0 
" id="m573747baa9" style="stroke:#000000;stroke-width:0.8;"/>
      </defs>
      <g>
       <use style="stroke:#000000;stroke-width:0.8;" x="63" xlink:href="#m573747baa9" y="192.24"/>
      </g>
     </g>
     <g id="text_9">
      <!-- 0.0 -->
      <g transform="translate(40.096875 196.039219)scale(0.1 -0.1)">
       <defs>
        <path d="M 10.6875 12.40625 
L 21 12.40625 
L 21 0 
L 10.6875 0 
z
" id="DejaVuSans-46"/>
       </defs>
       <use xlink:href="#DejaVuSans-48"/>
       <use x="63.623047" xlink:href="#DejaVuSans-46"/>
       <use x="95.410156" xlink:href="#DejaVuSans-48"/>
      </g>
     </g>
    </g>
    <g id="ytick_2">
     <g id="line2d_9">
      <g>
       <use style="stroke:#000000;stroke-width:0.8;" x="63" xlink:href="#m573747baa9" y="155.28"/>
      </g>
     </g>
     <g id="text_10">
      <!-- 0.1 -->
      <g transform="translate(40.096875 159.079219)scale(0.1 -0.1)">
       <defs>
        <path d="M 12.40625 8.296875 
L 28.515625 8.296875 
L 28.515625 63.921875 
L 10.984375 60.40625 
L 10.984375 69.390625 
L 28.421875 72.90625 
L 38.28125 72.90625 
L 38.28125 8.296875 
L 54.390625 8.296875 
L 54.390625 0 
L 12.40625 0 
z
" id="DejaVuSans-49"/>
       </defs>
       <use xlink:href="#DejaVuSans-48"/>
       <use x="63.623047" xlink:href="#DejaVuSans-46"/>
       <use x="95.410156" xlink:href="#DejaVuSans-49"/>
      </g>
     </g>
    </g>
    <g id="ytick_3">
     <g id="line2d_10">
      <g>
       <use style="stroke:#000000;stroke-width:0.8;" x="63" xlink:href="#m573747baa9" y="118.32"/>
      </g>
     </g>
     <g id="text_11">
      <!-- 0.2 -->
      <g transform="translate(40.096875 122.119219)scale(0.1 -0.1)">
       <use xlink:href="#DejaVuSans-48"/>
       <use x="63.623047" xlink:href="#DejaVuSans-46"/>
       <use x="95.410156" xlink:href="#DejaVuSans-50"/>
      </g>
     </g>
    </g>
    <g id="ytick_4">
     <g id="line2d_11">
      <g>
       <use style="stroke:#000000;stroke-width:0.8;" x="63" xlink:href="#m573747baa9" y="81.36"/>
      </g>
     </g>
     <g id="text_12">
      <!-- 0.3 -->
      <g transform="translate(40.096875 85.159219)scale(0.1 -0.1)">
       <use xlink:href="#DejaVuSans-48"/>
       <use x="63.623047" xlink:href="#DejaVuSans-46"/>
       <use x="95.410156" xlink:href="#DejaVuSans-51"/>
      </g>
     </g>
    </g>
    <g id="ytick_5">
     <g id="line2d_12">
      <g>
       <use style="stroke:#000000;stroke-width:0.8;" x="63" xlink:href="#m573747baa9" y="44.4"/>
      </g>
     </g>
     <g id="text_13">
      <!-- 0.4 -->
      <g transform="translate(40.096875 48.199219)scale(0.1 -0.1)">
       <use xlink:href="#DejaVuSans-48"/>
       <use x="63.623047" xlink:href="#DejaVuSans-46"/>
       <use x="95.410156" xlink:href="#DejaVuSans-52"/>
      </g>
     </g>
    </g>
    <g id="text_14">
     <!-- BGSD -->
     <g transform="translate(34.017187 123.321406)rotate(-90)scale(0.1 -0.1)">
      <defs>
       <path d="M 19.671875 34.8125 
L 19.671875 8.109375 
L 35.5 8.109375 
Q 43.453125 8.109375 47.28125 11.40625 
Q 51.125 14.703125 51.125 21.484375 
Q 51.125 28.328125 47.28125 31.5625 
Q 43.453125 34.8125 35.5 34.8125 
z
M 19.671875 64.796875 
L 19.671875 42.828125 
L 34.28125 42.828125 
Q 41.5 42.828125 45.03125 45.53125 
Q 48.578125 48.25 48.578125 53.8125 
Q 48.578125 59.328125 45.03125 62.0625 
Q 41.5 64.796875 34.28125 64.796875 
z
M 9.8125 72.90625 
L 35.015625 72.90625 
Q 46.296875 72.90625 52.390625 68.21875 
Q 58.5 63.53125 58.5 54.890625 
Q 58.5 48.1875 55.375 44.234375 
Q 52.25 40.28125 46.1875 39.3125 
Q 53.46875 37.75 57.5 32.78125 
Q 61.53125 27.828125 61.53125 20.40625 
Q 61.53125 10.640625 54.890625 5.3125 
Q 48.25 0 35.984375 0 
L 9.8125 0 
z
" id="DejaVuSans-66"/>
       <path d="M 59.515625 10.40625 
L 59.515625 29.984375 
L 43.40625 29.984375 
L 43.40625 38.09375 
L 69.28125 38.09375 
L 69.28125 6.78125 
Q 63.578125 2.734375 56.6875 0.65625 
Q 49.8125 -1.421875 42 -1.421875 
Q 24.90625 -1.421875 15.25 8.5625 
Q 5.609375 18.5625 5.609375 36.375 
Q 5.609375 54.25 15.25 64.234375 
Q 24.90625 74.21875 42 74.21875 
Q 49.125 74.21875 55.546875 72.453125 
Q 61.96875 70.703125 67.390625 67.28125 
L 67.390625 56.78125 
Q 61.921875 61.421875 55.765625 63.765625 
Q 49.609375 66.109375 42.828125 66.109375 
Q 29.4375 66.109375 22.71875 58.640625 
Q 16.015625 51.171875 16.015625 36.375 
Q 16.015625 21.625 22.71875 14.15625 
Q 29.4375 6.6875 42.828125 6.6875 
Q 48.046875 6.6875 52.140625 7.59375 
Q 56.25 8.5 59.515625 10.40625 
z
" id="DejaVuSans-71"/>
       <path d="M 53.515625 70.515625 
L 53.515625 60.890625 
Q 47.90625 63.578125 42.921875 64.890625 
Q 37.9375 66.21875 33.296875 66.21875 
Q 25.25 66.21875 20.875 63.09375 
Q 16.5 59.96875 16.5 54.203125 
Q 16.5 49.359375 19.40625 46.890625 
Q 22.3125 44.4375 30.421875 42.921875 
L 36.375 41.703125 
Q 47.40625 39.59375 52.65625 34.296875 
Q 57.90625 29 57.90625 20.125 
Q 57.90625 9.515625 50.796875 4.046875 
Q 43.703125 -1.421875 29.984375 -1.421875 
Q 24.8125 -1.421875 18.96875 -0.25 
Q 13.140625 0.921875 6.890625 3.21875 
L 6.890625 13.375 
Q 12.890625 10.015625 18.65625 8.296875 
Q 24.421875 6.59375 29.984375 6.59375 
Q 38.421875 6.59375 43.015625 9.90625 
Q 47.609375 13.234375 47.609375 19.390625 
Q 47.609375 24.75 44.3125 27.78125 
Q 41.015625 30.8125 33.5 32.328125 
L 27.484375 33.5 
Q 16.453125 35.6875 11.515625 40.375 
Q 6.59375 45.0625 6.59375 53.421875 
Q 6.59375 63.09375 13.40625 68.65625 
Q 20.21875 74.21875 32.171875 74.21875 
Q 37.3125 74.21875 42.625 73.28125 
Q 47.953125 72.359375 53.515625 70.515625 
z
" id="DejaVuSans-83"/>
       <path d="M 19.671875 64.796875 
L 19.671875 8.109375 
L 31.59375 8.109375 
Q 46.6875 8.109375 53.6875 14.9375 
Q 60.6875 21.78125 60.6875 36.53125 
Q 60.6875 51.171875 53.6875 57.984375 
Q 46.6875 64.796875 31.59375 64.796875 
z
M 9.8125 72.90625 
L 30.078125 72.90625 
Q 51.265625 72.90625 61.171875 64.09375 
Q 71.09375 55.28125 71.09375 36.53125 
Q 71.09375 17.671875 61.125 8.828125 
Q 51.171875 0 30.078125 0 
L 9.8125 0 
z
" id="DejaVuSans-68"/>
      </defs>
      <use xlink:href="#DejaVuSans-66"/>
      <use x="66.853516" xlink:href="#DejaVuSans-71"/>
      <use x="144.34375" xlink:href="#DejaVuSans-83"/>
      <use x="207.820312" xlink:href="#DejaVuSans-68"/>
     </g>
    </g>
   </g>
   <g id="line2d_13">
    <path clip-path="url(#p1a987dac01)" d="M 80.754545 52.144868 
L 81.346364 67.457381 
L 81.938182 53.439845 
L 82.53 49.719809 
L 83.121818 38.883163 
L 83.713636 36.25773 
L 84.305455 40.971547 
L 84.897273 47.22275 
L 85.489091 49.454797 
L 86.080909 54.075364 
L 86.672727 46.321487 
L 87.264545 48.653052 
L 87.856364 50.148965 
L 88.448182 51.059023 
L 89.04 58.106316 
L 89.631818 52.85574 
L 90.223636 60.484536 
L 90.815455 56.992221 
L 91.407273 50.802331 
L 91.999091 56.33231 
L 92.590909 56.334008 
L 93.182727 52.027956 
L 94.366364 63.919425 
L 94.958182 57.532414 
L 95.55 62.435553 
L 96.141818 54.391933 
L 96.733636 58.618082 
L 97.325455 58.56431 
L 97.917273 64.258329 
L 98.509091 48.901784 
L 99.692727 62.993162 
L 100.284545 55.808417 
L 100.876364 61.435699 
L 101.468182 58.340129 
L 102.06 62.663561 
L 102.651818 65.540177 
L 103.243636 60.877944 
L 103.835455 61.783752 
L 104.427273 53.880858 
L 105.019091 54.25345 
L 105.610909 56.699585 
L 106.202727 66.399967 
L 107.386364 45.328361 
L 107.978182 53.910572 
L 108.57 58.65612 
L 109.161818 66.095197 
L 109.753636 60.409499 
L 110.345455 56.599772 
L 110.937273 64.275353 
L 111.529091 56.107446 
L 112.120909 61.873779 
L 112.712727 59.044715 
L 113.304545 66.074519 
L 113.896364 57.849632 
L 114.488182 51.33622 
L 115.08 56.425621 
L 115.671818 60.192611 
L 116.263636 66.82873 
L 116.855455 59.355634 
L 117.447273 56.274473 
L 118.039091 61.009148 
L 118.630909 56.019731 
L 119.222727 55.634672 
L 119.814545 60.50807 
L 120.406364 62.727552 
L 120.998182 58.967156 
L 121.59 61.286422 
L 122.773636 47.63738 
L 123.957273 64.865707 
L 124.549091 61.213889 
L 125.140909 67.191153 
L 125.732727 59.802472 
L 126.324545 57.058223 
L 126.916364 65.068233 
L 127.508182 70.423682 
L 128.1 71.717745 
L 128.691818 61.455044 
L 129.283636 61.004688 
L 129.875455 55.71189 
L 130.467273 48.907634 
L 131.059091 61.680191 
L 131.650909 57.348561 
L 132.242727 56.405698 
L 132.834545 60.32245 
L 133.426364 60.438551 
L 134.018182 64.658125 
L 134.61 73.943744 
L 135.201818 73.807051 
L 135.793636 52.621472 
L 136.385455 69.573728 
L 136.977273 74.748837 
L 137.569091 71.428449 
L 138.160909 65.094937 
L 138.752727 64.988402 
L 139.344545 69.088978 
L 139.936364 63.201922 
L 140.528182 49.989625 
L 141.12 57.033166 
L 141.711818 59.616739 
L 142.303636 52.596497 
L 142.895455 57.205815 
L 143.487273 54.350294 
L 144.079091 60.918727 
L 144.670909 53.062724 
L 145.262727 59.094485 
L 145.854545 59.211546 
L 146.446364 53.351422 
L 147.038182 54.235017 
L 147.63 51.688849 
L 148.813636 53.888718 
L 149.405455 57.55304 
L 149.997273 51.325705 
L 150.589091 47.250394 
L 151.180909 51.918866 
L 151.772727 64.394977 
L 152.364545 59.056032 
L 152.956364 61.909336 
L 153.548182 65.606724 
L 154.14 63.852021 
L 154.731818 62.506517 
L 155.323636 66.649795 
L 155.915455 65.471324 
L 156.507273 62.309094 
L 157.099091 67.746061 
L 158.282727 55.490503 
L 158.874545 51.045171 
L 159.466364 54.241172 
L 160.058182 59.044387 
L 160.65 49.494421 
L 161.241818 49.761644 
L 161.833636 58.681226 
L 163.017273 60.020005 
L 163.609091 67.318107 
L 164.200909 59.392378 
L 164.792727 64.853514 
L 165.384545 63.769992 
L 165.976364 62.400353 
L 166.568182 59.538155 
L 167.16 62.334338 
L 168.343636 58.900052 
L 168.935455 54.37594 
L 169.527273 65.235423 
L 170.119091 52.964344 
L 170.710909 63.330227 
L 171.302727 58.936963 
L 171.894545 57.570228 
L 172.486364 57.637362 
L 173.078182 61.400322 
L 173.67 68.792327 
L 174.261818 68.334355 
L 174.853636 66.55769 
L 175.445455 69.811169 
L 176.037273 66.237854 
L 176.629091 73.52892 
L 177.220909 62.494703 
L 177.812727 67.665433 
L 178.404545 65.100689 
L 178.996364 64.458566 
L 180.771818 70.941803 
L 181.363636 68.145368 
L 181.955455 71.833529 
L 182.547273 52.802687 
L 183.139091 59.434476 
L 183.730909 54.677878 
L 184.322727 66.489889 
L 184.914545 65.661128 
L 185.506364 56.369561 
L 186.098182 64.284101 
L 186.69 69.693558 
L 187.281818 73.936439 
L 187.873636 62.221927 
L 188.465455 57.611431 
L 189.057273 54.487348 
L 189.649091 61.634561 
L 190.240909 56.259298 
L 190.832727 55.131907 
L 191.424545 58.414402 
L 192.016364 57.720053 
L 192.608182 50.800346 
L 193.2 69.532085 
L 193.791818 65.064039 
L 194.383636 52.390478 
L 194.975455 63.682227 
L 195.567273 53.409843 
L 196.159091 56.123813 
L 196.750909 55.13821 
L 197.342727 52.680792 
L 197.934545 58.119354 
L 198.526364 50.268548 
L 199.118182 60.154972 
L 199.71 55.865637 
L 200.301818 63.770532 
L 200.893636 57.874545 
L 201.485455 63.864769 
L 202.077273 63.251277 
L 202.669091 63.196075 
L 203.260909 57.95598 
L 203.852727 64.570125 
L 204.444545 55.052298 
L 205.036364 60.404159 
L 205.628182 62.715065 
L 206.22 74.780088 
L 206.811818 65.262153 
L 207.403636 72.194518 
L 207.995455 63.887354 
L 208.587273 59.289988 
L 209.179091 55.567863 
L 209.770909 57.153186 
L 210.362727 56.628641 
L 210.954545 66.227565 
L 211.546364 57.157345 
L 212.138182 61.137413 
L 212.73 54.416987 
L 213.321818 64.984057 
L 213.913636 63.066498 
L 214.505455 64.961012 
L 215.097273 64.002406 
L 215.689091 73.022018 
L 216.280909 70.852655 
L 216.872727 50.987094 
L 217.464545 60.312202 
L 218.056364 58.929633 
L 218.648182 58.067084 
L 219.24 66.840278 
L 219.831818 59.157633 
L 220.423636 65.686118 
L 221.015455 59.50905 
L 221.607273 62.74562 
L 222.199091 60.042113 
L 222.790909 59.369451 
L 223.382727 59.257794 
L 223.974545 52.75024 
L 224.566364 58.394688 
L 225.158182 52.936968 
L 225.75 50.902245 
L 226.341818 64.034524 
L 226.933636 62.843703 
L 227.525455 65.103976 
L 228.117273 69.937741 
L 228.709091 65.322027 
L 229.300909 61.822154 
L 229.892727 53.85493 
L 230.484545 57.535788 
L 231.076364 53.587842 
L 231.668182 51.02721 
L 232.26 52.805869 
L 232.851818 57.159142 
L 233.443636 51.34398 
L 234.035455 52.269514 
L 234.627273 55.002464 
L 235.219091 51.224219 
L 235.810909 51.446195 
L 236.402727 58.166861 
L 236.994545 58.882422 
L 237.586364 54.683801 
L 238.178182 54.017808 
L 238.77 52.519254 
L 239.361818 56.838043 
L 239.953636 52.951313 
L 240.545455 50.676849 
L 241.137273 51.180892 
L 241.729091 45.376528 
L 242.320909 58.130595 
L 242.912727 53.762192 
L 243.504545 50.837999 
L 244.096364 52.178018 
L 244.688182 51.254013 
L 245.28 59.01181 
L 245.871818 57.407634 
L 246.463636 49.371958 
L 247.055455 62.750165 
L 247.647273 59.722367 
L 248.239091 54.116616 
L 248.830909 60.324756 
L 249.422727 53.316365 
L 250.014545 53.033263 
L 250.606364 60.285721 
L 251.198182 59.435605 
L 251.79 55.643415 
L 252.381818 57.307994 
L 252.973636 57.209528 
L 253.565455 56.839059 
L 254.157273 49.343585 
L 254.749091 44.135807 
L 255.932727 48.508337 
L 256.524545 55.722449 
L 257.116364 49.519402 
L 257.708182 49.2232 
L 258.3 56.318172 
L 258.891818 57.456831 
L 259.483636 57.190407 
L 260.075455 50.569204 
L 260.667273 54.093509 
L 261.259091 54.548023 
L 261.850909 54.21868 
L 262.442727 63.339948 
L 263.034545 55.240328 
L 263.626364 59.29208 
L 264.218182 61.899776 
L 264.81 55.357307 
L 265.401818 55.179907 
L 265.993636 55.186269 
L 266.585455 59.253515 
L 267.769091 51.490238 
L 268.360909 49.228691 
L 268.952727 62.020177 
L 269.544545 62.485183 
L 270.136364 64.718214 
L 270.728182 66.340994 
L 271.32 58.266169 
L 271.911818 58.159936 
L 272.503636 60.68091 
L 273.095455 61.653722 
L 273.687273 61.757101 
L 274.279091 54.076488 
L 274.870909 60.100256 
L 275.462727 63.097367 
L 276.054545 61.411015 
L 276.646364 56.780768 
L 277.238182 63.669116 
L 277.83 57.731757 
L 278.421818 72.36799 
L 279.013636 59.20142 
L 279.605455 55.59529 
L 280.197273 55.815427 
L 280.789091 63.346186 
L 281.380909 59.947653 
L 281.972727 63.783027 
L 282.564545 63.115283 
L 283.156364 60.783292 
L 283.748182 50.432965 
L 284.34 60.313744 
L 284.931818 59.856041 
L 285.523636 66.824949 
L 286.115455 66.412148 
L 286.707273 63.906491 
L 287.299091 58.117763 
L 287.890909 64.600663 
L 288.482727 56.771313 
L 289.074545 55.59305 
L 289.666364 63.265957 
L 290.258182 65.021565 
L 290.85 65.565992 
L 291.441818 65.247885 
L 292.033636 68.485197 
L 292.625455 66.97434 
L 293.217273 68.878573 
L 293.809091 66.839063 
L 294.400909 58.640155 
L 294.992727 61.6345 
L 295.584545 59.840842 
L 296.176364 53.818446 
L 296.768182 62.990044 
L 297.36 60.157096 
L 297.951818 62.522205 
L 298.543636 54.082885 
L 299.135455 61.199006 
L 299.727273 62.957079 
L 300.319091 59.067679 
L 300.910909 62.919958 
L 301.502727 62.846994 
L 302.094545 65.164567 
L 302.686364 52.403657 
L 303.278182 57.215455 
L 303.87 59.682547 
L 304.461818 60.463147 
L 305.053636 64.261131 
L 305.645455 70.226301 
L 306.829091 58.669427 
L 307.420909 61.691268 
L 308.012727 58.439925 
L 308.604545 59.284187 
L 309.196364 63.625186 
L 309.788182 64.119732 
L 310.38 73.44711 
L 310.971818 69.493701 
L 311.563636 59.911969 
L 312.155455 62.170446 
L 312.747273 61.19561 
L 313.339091 63.889563 
L 313.930909 65.388485 
L 314.522727 54.964577 
L 315.114545 55.856372 
L 315.706364 52.35442 
L 316.298182 51.203843 
L 316.89 57.220315 
L 317.481818 60.940734 
L 318.073636 55.631064 
L 318.665455 61.31419 
L 319.849091 66.175049 
L 320.440909 62.497328 
L 321.032727 64.336832 
L 321.624545 60.862558 
L 322.216364 56.010465 
L 322.808182 65.74945 
L 323.4 71.34718 
L 323.991818 68.713305 
L 324.583636 59.107874 
L 325.767273 62.567743 
L 326.359091 55.932149 
L 326.950909 57.137332 
L 327.542727 57.676769 
L 328.134545 64.682165 
L 328.726364 65.385878 
L 329.318182 61.971051 
L 329.91 57.31257 
L 330.501818 62.460766 
L 331.093636 65.451335 
L 331.685455 64.033054 
L 332.277273 56.967171 
L 333.460909 57.749382 
L 334.052727 52.863395 
L 334.644545 55.706127 
L 335.236364 68.028021 
L 335.828182 58.872598 
L 336.42 55.999278 
L 337.011818 59.752372 
L 337.603636 57.991295 
L 338.195455 69.21128 
L 338.787273 63.338032 
L 339.379091 65.429293 
L 339.970909 60.189222 
L 340.562727 59.891264 
L 341.154545 63.981999 
L 341.746364 60.695537 
L 342.338182 60.417274 
L 342.93 55.39755 
L 343.521818 63.905625 
L 344.113636 68.162376 
L 344.705455 66.964411 
L 345.297273 66.127787 
L 345.889091 57.28681 
L 346.480909 66.76927 
L 347.072727 71.034088 
L 348.256364 63.558743 
L 348.848182 65.917329 
L 349.44 61.303257 
L 350.031818 62.112367 
L 350.623636 65.133739 
L 351.215455 59.289327 
L 351.807273 70.026538 
L 352.399091 66.199292 
L 352.990909 69.561834 
L 353.582727 71.479724 
L 354.174545 62.145509 
L 354.766364 60.394067 
L 355.358182 68.485312 
L 356.541818 65.646744 
L 357.133636 60.383175 
L 357.725455 60.423451 
L 358.317273 61.031857 
L 358.909091 61.166496 
L 359.500909 54.584235 
L 360.092727 62.135286 
L 361.276364 63.195668 
L 361.868182 59.85895 
L 362.46 72.689055 
L 363.051818 67.713209 
L 363.643636 65.442624 
L 364.235455 60.824782 
L 364.827273 73.502809 
L 365.419091 74.764373 
L 366.010909 64.234157 
L 366.602727 62.926169 
L 367.194545 62.824906 
L 367.786364 67.72434 
L 368.378182 63.818058 
L 368.97 59.083172 
L 369.561818 68.103526 
L 370.153636 57.089047 
L 370.745455 62.431943 
L 371.337273 63.305132 
L 371.929091 61.896953 
L 372.520909 61.90575 
L 373.112727 58.213755 
L 373.704545 66.728476 
L 374.296364 59.560301 
L 374.888182 55.646986 
L 375.48 57.944446 
L 376.071818 51.003435 
L 376.663636 58.298036 
L 377.255455 63.412741 
L 377.847273 65.932747 
L 379.030909 56.349087 
L 379.622727 56.68614 
L 380.214545 56.527407 
L 380.806364 61.326519 
L 381.398182 58.347475 
L 381.99 54.774611 
L 382.581818 64.046904 
L 383.173636 55.304723 
L 383.765455 64.230424 
L 384.357273 61.933765 
L 384.949091 64.217659 
L 385.540909 59.556359 
L 386.132727 52.042315 
L 386.724545 60.952228 
L 387.316364 65.159209 
L 387.908182 55.812048 
L 388.5 61.949138 
L 389.091818 55.051223 
L 389.683636 61.127027 
L 390.275455 54.958341 
L 390.867273 57.048059 
L 391.459091 55.888756 
L 392.050909 59.977723 
L 392.642727 54.911477 
L 393.234545 53.248652 
L 394.418182 59.569764 
L 395.01 59.900411 
L 395.601818 56.955981 
L 396.193636 60.774775 
L 396.785455 61.801662 
L 397.377273 58.896079 
L 397.969091 63.746217 
L 398.560909 67.132431 
L 399.152727 59.61103 
L 399.744545 67.533701 
L 400.336364 67.988221 
L 400.928182 60.661111 
L 401.52 62.088546 
L 402.111818 55.959826 
L 402.703636 62.754401 
L 403.295455 59.412269 
L 403.887273 64.169496 
L 404.479091 60.339455 
L 405.070909 63.722001 
L 405.662727 58.618021 
L 406.254545 60.60575 
L 406.846364 57.192935 
L 407.438182 61.236104 
L 408.03 67.49553 
L 408.621818 64.676699 
L 409.213636 65.185279 
L 409.805455 67.354171 
L 410.989091 59.973586 
L 411.580909 58.191338 
L 412.172727 65.349205 
L 412.764545 66.783698 
L 413.356364 62.889401 
L 413.948182 55.961473 
L 414.54 57.815657 
L 415.131818 61.821552 
L 415.723636 61.157217 
L 416.315455 66.458442 
L 416.907273 64.650568 
L 417.499091 58.503819 
L 418.090909 68.38682 
L 418.682727 64.283108 
L 419.274545 62.751222 
L 419.866364 60.727582 
L 420.458182 61.860208 
L 421.05 60.854637 
L 421.641818 56.469702 
L 422.233636 62.20027 
L 422.825455 63.636398 
L 423.417273 61.094122 
L 424.009091 60.05757 
L 424.600909 61.845718 
L 425.192727 54.249751 
L 425.784545 58.113749 
L 426.376364 65.725369 
L 426.968182 54.966122 
L 427.56 62.6457 
L 428.151818 59.336649 
L 428.743636 57.754165 
L 429.335455 65.358975 
L 429.927273 59.441093 
L 430.519091 56.394961 
L 431.110909 59.095602 
L 431.702727 58.504545 
L 432.294545 64.224061 
L 432.886364 59.516461 
L 433.478182 66.689455 
L 434.07 65.495803 
L 434.661818 66.764461 
L 435.253636 63.151488 
L 435.845455 55.332931 
L 435.845455 55.332931 
" style="fill:none;stroke:#1f77b4;stroke-linecap:square;stroke-width:1.5;"/>
   </g>
   <g id="line2d_14">
    <path clip-path="url(#p1a987dac01)" d="M 80.754545 63.402004 
L 81.346364 66.757418 
L 81.938182 27.146474 
L 82.53 41.301128 
L 83.121818 39.874717 
L 83.713636 49.040031 
L 84.305455 37.391452 
L 84.897273 41.925077 
L 85.489091 39.102879 
L 86.080909 41.794419 
L 86.672727 43.888633 
L 87.264545 37.061867 
L 87.856364 41.834836 
L 88.448182 51.184556 
L 89.04 42.09138 
L 89.631818 45.022864 
L 90.223636 34.142896 
L 90.815455 40.502475 
L 91.407273 51.869612 
L 91.999091 52.91378 
L 92.590909 48.020018 
L 93.182727 48.222762 
L 93.774545 56.234432 
L 94.366364 56.327631 
L 94.958182 43.063271 
L 95.55 44.230738 
L 96.141818 54.910304 
L 96.733636 53.143306 
L 97.325455 53.132331 
L 97.917273 52.653075 
L 98.509091 53.707408 
L 99.100909 61.302358 
L 99.692727 47.095988 
L 100.284545 54.96814 
L 100.876364 53.387869 
L 101.468182 56.661548 
L 102.06 57.405429 
L 102.651818 64.916191 
L 103.243636 70.531155 
L 103.835455 60.112466 
L 104.427273 57.135972 
L 105.019091 58.544742 
L 105.610909 56.398534 
L 106.202727 61.806405 
L 106.794545 70.075376 
L 107.386364 59.527039 
L 107.978182 62.549343 
L 108.57 56.26207 
L 109.161818 52.337767 
L 109.753636 52.366154 
L 110.345455 50.176038 
L 110.937273 45.853997 
L 111.529091 60.645769 
L 112.712727 62.81397 
L 113.304545 55.67205 
L 113.896364 61.598028 
L 114.488182 65.918305 
L 115.08 68.466246 
L 115.671818 66.922001 
L 116.263636 67.378321 
L 116.855455 63.127586 
L 117.447273 67.317103 
L 118.039091 63.808749 
L 118.630909 66.199159 
L 119.222727 67.720983 
L 119.814545 68.0654 
L 120.406364 64.874991 
L 120.998182 74.421382 
L 121.59 63.61839 
L 122.181818 62.752175 
L 122.773636 69.797684 
L 123.365455 62.334259 
L 123.957273 72.842789 
L 124.549091 68.616266 
L 125.140909 66.984792 
L 125.732727 69.534616 
L 126.324545 60.93809 
L 126.916364 64.005546 
L 127.508182 65.033119 
L 128.1 62.63698 
L 128.691818 54.975902 
L 129.283636 68.871426 
L 129.875455 66.558447 
L 130.467273 74.648375 
L 131.059091 79.24223 
L 131.650909 69.741883 
L 132.242727 70.131808 
L 132.834545 59.509035 
L 133.426364 67.211741 
L 134.018182 67.588013 
L 134.61 62.497702 
L 135.793636 71.851089 
L 136.385455 61.354895 
L 137.569091 63.745598 
L 138.160909 61.686259 
L 138.752727 67.241074 
L 139.344545 58.241543 
L 139.936364 63.417506 
L 140.528182 64.788719 
L 141.12 74.099181 
L 141.711818 56.470019 
L 142.303636 61.446992 
L 142.895455 67.711141 
L 143.487273 58.437434 
L 144.079091 63.947993 
L 144.670909 63.498812 
L 145.262727 60.266803 
L 146.446364 62.067654 
L 147.038182 59.823579 
L 147.63 58.224354 
L 148.221818 56.05251 
L 148.813636 61.792552 
L 149.405455 71.427096 
L 149.997273 63.461393 
L 150.589091 52.431991 
L 151.180909 65.348037 
L 151.772727 62.679719 
L 152.364545 53.1251 
L 152.956364 52.045152 
L 153.548182 52.504199 
L 154.14 49.822006 
L 154.731818 62.170037 
L 155.323636 68.496233 
L 155.915455 61.974868 
L 156.507273 63.244983 
L 157.099091 69.857241 
L 157.690909 74.361469 
L 158.282727 68.628259 
L 158.874545 70.565664 
L 159.466364 60.301325 
L 160.058182 65.933817 
L 160.65 64.17281 
L 161.241818 61.64526 
L 161.833636 67.372985 
L 162.425455 75.205005 
L 163.017273 65.645628 
L 163.609091 69.031022 
L 164.200909 62.358502 
L 164.792727 74.420852 
L 165.384545 61.324893 
L 165.976364 71.740744 
L 166.568182 71.732753 
L 167.16 72.739945 
L 167.751818 70.132641 
L 168.343636 69.697865 
L 168.935455 72.988286 
L 169.527273 63.020396 
L 170.119091 68.667169 
L 170.710909 64.056676 
L 171.302727 58.39272 
L 171.894545 65.767204 
L 172.486364 55.885233 
L 173.078182 61.946321 
L 173.67 66.027038 
L 174.261818 58.166553 
L 174.853636 62.813806 
L 175.445455 60.863791 
L 176.037273 62.677699 
L 176.629091 58.246533 
L 177.812727 67.139027 
L 178.404545 66.181625 
L 178.996364 78.858695 
L 179.588182 67.703973 
L 180.18 67.664498 
L 180.771818 76.721761 
L 181.363636 75.251961 
L 181.955455 65.548066 
L 182.547273 69.772105 
L 183.139091 65.284221 
L 183.730909 62.357519 
L 184.322727 61.647725 
L 184.914545 72.711822 
L 185.506364 72.404976 
L 186.098182 65.65248 
L 186.69 64.970799 
L 187.281818 72.456944 
L 187.873636 62.184547 
L 188.465455 68.042048 
L 189.057273 66.496586 
L 189.649091 56.864327 
L 190.240909 71.839959 
L 190.832727 72.093619 
L 191.424545 70.550753 
L 192.016364 70.153737 
L 192.608182 66.375351 
L 193.791818 60.41739 
L 194.383636 53.36135 
L 194.975455 61.313119 
L 195.567273 64.422769 
L 196.159091 64.108847 
L 196.750909 71.309826 
L 197.342727 71.651849 
L 197.934545 62.30862 
L 198.526364 66.708803 
L 199.118182 66.662532 
L 199.71 76.320153 
L 200.301818 62.79293 
L 200.893636 74.874686 
L 201.485455 75.119391 
L 202.077273 78.501215 
L 203.260909 81.97061 
L 204.444545 68.517804 
L 205.628182 71.854738 
L 206.22 74.761736 
L 206.811818 82.260898 
L 207.403636 79.05782 
L 207.995455 77.887919 
L 208.587273 71.322019 
L 209.179091 75.170288 
L 209.770909 80.748524 
L 210.954545 86.410882 
L 211.546364 85.097192 
L 212.138182 86.550542 
L 212.73 74.479903 
L 213.321818 79.054169 
L 213.913636 86.011113 
L 214.505455 79.911242 
L 215.097273 89.852227 
L 215.689091 86.034889 
L 216.280909 93.980855 
L 216.872727 79.512062 
L 217.464545 81.224375 
L 218.056364 82.200101 
L 218.648182 85.215158 
L 219.24 85.594925 
L 219.831818 85.271637 
L 220.423636 87.942992 
L 221.015455 68.083679 
L 221.607273 85.380652 
L 222.199091 84.926744 
L 222.790909 85.874222 
L 223.382727 85.446417 
L 223.974545 89.338789 
L 224.566364 97.159692 
L 225.158182 81.139279 
L 225.75 88.486464 
L 226.341818 88.106382 
L 226.933636 81.968487 
L 227.525455 89.100869 
L 228.117273 90.483682 
L 228.709091 82.315289 
L 229.300909 81.987726 
L 229.892727 87.571131 
L 230.484545 90.02614 
L 231.076364 92.97728 
L 231.668182 92.471308 
L 232.26 92.291223 
L 232.851818 92.349334 
L 233.443636 79.969026 
L 234.035455 78.680219 
L 234.627273 77.775268 
L 235.219091 95.604129 
L 235.810909 90.77181 
L 236.402727 93.190621 
L 236.994545 96.593253 
L 237.586364 91.113712 
L 238.178182 93.284828 
L 238.77 97.09357 
L 239.361818 99.728602 
L 239.953636 100.307089 
L 241.137273 85.832768 
L 241.729091 80.568536 
L 242.320909 90.208717 
L 242.912727 92.766195 
L 243.504545 90.833931 
L 244.096364 95.313678 
L 244.688182 90.24135 
L 245.28 100.263336 
L 245.871818 85.767949 
L 246.463636 87.588564 
L 247.055455 99.681118 
L 247.647273 94.409833 
L 248.239091 100.29085 
L 248.830909 97.698722 
L 249.422727 98.670723 
L 250.014545 86.797666 
L 250.606364 94.784794 
L 251.198182 98.736561 
L 252.381818 101.786442 
L 252.973636 99.53598 
L 253.565455 102.428463 
L 254.157273 91.043951 
L 254.749091 104.454247 
L 255.340909 98.358795 
L 255.932727 95.763066 
L 256.524545 94.603022 
L 257.116364 97.865442 
L 257.708182 100.24859 
L 258.3 96.077102 
L 258.891818 108.138133 
L 259.483636 106.466204 
L 260.075455 99.593288 
L 260.667273 97.576929 
L 261.259091 100.474764 
L 261.850909 104.763109 
L 262.442727 83.26067 
L 263.034545 90.630613 
L 263.626364 103.671975 
L 264.218182 101.446174 
L 264.81 96.376832 
L 265.401818 95.331153 
L 265.993636 97.956863 
L 266.585455 86.572251 
L 267.177273 92.870434 
L 267.769091 96.758473 
L 268.360909 92.794586 
L 268.952727 98.771984 
L 269.544545 95.953559 
L 270.136364 94.73932 
L 270.728182 96.626476 
L 271.32 93.761021 
L 271.911818 94.96097 
L 272.503636 97.528868 
L 273.095455 88.647211 
L 273.687273 90.804063 
L 274.279091 91.778427 
L 274.870909 87.415941 
L 275.462727 92.134674 
L 276.054545 99.531085 
L 276.646364 100.820452 
L 277.238182 102.425806 
L 278.421818 93.930057 
L 279.013636 93.137237 
L 279.605455 100.041854 
L 280.197273 95.557022 
L 280.789091 96.642261 
L 281.380909 96.95446 
L 281.972727 99.38627 
L 282.564545 94.760683 
L 283.156364 99.854179 
L 284.34 101.432133 
L 284.931818 94.413321 
L 285.523636 90.436215 
L 286.115455 99.783093 
L 286.707273 100.911088 
L 287.299091 96.757117 
L 287.890909 99.919872 
L 288.482727 98.426815 
L 289.074545 96.417172 
L 289.666364 99.886993 
L 290.258182 94.250595 
L 290.85 95.38409 
L 291.441818 91.387154 
L 292.033636 99.118334 
L 292.625455 102.675212 
L 293.217273 99.150479 
L 293.809091 100.149058 
L 294.992727 98.38587 
L 295.584545 99.676565 
L 296.176364 91.969039 
L 296.768182 95.130549 
L 297.36 99.408286 
L 297.951818 96.06682 
L 298.543636 103.141779 
L 299.135455 100.115034 
L 299.727273 102.66185 
L 300.319091 103.20081 
L 300.910909 104.468164 
L 301.502727 101.581006 
L 302.094545 99.441124 
L 302.686364 102.098169 
L 303.278182 99.103051 
L 303.87 92.159076 
L 304.461818 101.164921 
L 305.053636 98.349889 
L 305.645455 93.218924 
L 306.237273 96.611737 
L 306.829091 98.938379 
L 307.420909 91.977494 
L 308.012727 94.882897 
L 308.604545 93.000839 
L 309.196364 89.012009 
L 309.788182 102.200368 
L 310.38 105.704737 
L 310.971818 98.672021 
L 311.563636 99.661546 
L 312.155455 96.903154 
L 312.747273 96.291624 
L 313.339091 92.511422 
L 313.930909 93.118759 
L 315.114545 97.494506 
L 315.706364 95.82932 
L 316.298182 94.886762 
L 316.89 91.018702 
L 318.073636 103.707857 
L 318.665455 94.292067 
L 319.257273 95.651358 
L 320.440909 99.58399 
L 321.032727 102.888542 
L 321.624545 98.165732 
L 322.216364 98.751032 
L 322.808182 100.908796 
L 323.4 98.846604 
L 323.991818 94.116064 
L 324.583636 94.53037 
L 325.175455 96.35936 
L 325.767273 97.221959 
L 326.359091 92.396349 
L 326.950909 94.853056 
L 327.542727 95.756923 
L 328.134545 97.630785 
L 328.726364 98.128439 
L 329.318182 96.351346 
L 329.91 92.288267 
L 330.501818 93.804972 
L 331.093636 90.436481 
L 331.685455 95.665449 
L 332.277273 93.63186 
L 332.869091 90.591313 
L 333.460909 92.153073 
L 334.052727 89.948486 
L 334.644545 94.778633 
L 335.236364 84.848894 
L 335.828182 97.16791 
L 336.42 88.847589 
L 337.011818 88.198859 
L 337.603636 97.113285 
L 338.195455 94.475823 
L 338.787273 96.684935 
L 339.379091 102.555923 
L 339.970909 102.147751 
L 340.562727 98.994851 
L 341.154545 93.349641 
L 341.746364 98.031244 
L 342.338182 95.880256 
L 342.93 105.795687 
L 344.113636 100.961197 
L 344.705455 91.56973 
L 345.297273 97.650035 
L 345.889091 101.453401 
L 346.480909 97.068535 
L 347.072727 91.581089 
L 347.664545 97.260521 
L 348.256364 99.160185 
L 348.848182 98.712493 
L 349.44 91.668101 
L 350.031818 86.655977 
L 350.623636 91.645941 
L 351.215455 97.888622 
L 351.807273 98.895042 
L 352.399091 96.514609 
L 352.990909 89.171425 
L 353.582727 90.168402 
L 354.174545 93.977269 
L 354.766364 91.246586 
L 355.358182 92.392824 
L 355.95 92.164768 
L 356.541818 93.130224 
L 357.725455 91.561583 
L 358.317273 92.878754 
L 358.909091 89.47007 
L 359.500909 90.650291 
L 360.092727 99.99894 
L 360.684545 96.192355 
L 361.276364 100.491031 
L 361.868182 99.701376 
L 362.46 107.475589 
L 363.051818 102.2237 
L 363.643636 101.456193 
L 364.235455 96.002423 
L 364.827273 98.694589 
L 365.419091 99.377905 
L 366.010909 96.042262 
L 366.602727 95.242062 
L 367.194545 96.026803 
L 367.786364 93.751343 
L 368.378182 92.251698 
L 368.97 96.459562 
L 369.561818 88.856911 
L 370.153636 89.859292 
L 370.745455 93.745347 
L 371.337273 101.525699 
L 371.929091 89.571036 
L 372.520909 91.770142 
L 373.112727 86.382259 
L 373.704545 92.734689 
L 374.296364 93.742913 
L 374.888182 96.724132 
L 375.48 94.790805 
L 376.071818 94.419057 
L 376.663636 101.817152 
L 377.847273 93.737001 
L 378.439091 94.22593 
L 379.030909 97.497859 
L 379.622727 107.431554 
L 380.214545 96.00007 
L 380.806364 96.833697 
L 381.398182 85.580832 
L 381.99 94.036567 
L 382.581818 91.190345 
L 383.173636 100.200967 
L 383.765455 95.713219 
L 384.357273 94.694425 
L 384.949091 93.356716 
L 385.540909 98.340446 
L 386.132727 90.963041 
L 386.724545 91.100962 
L 387.316364 93.871855 
L 387.908182 94.479516 
L 388.5 101.28502 
L 389.091818 94.353549 
L 389.683636 94.692063 
L 390.275455 93.431922 
L 390.867273 88.570339 
L 391.459091 90.703827 
L 392.050909 93.314856 
L 392.642727 97.519778 
L 393.234545 95.494906 
L 393.826364 89.279202 
L 394.418182 92.44036 
L 395.01 105.374431 
L 395.601818 93.502556 
L 396.193636 92.774551 
L 396.785455 93.706316 
L 397.969091 106.215736 
L 398.560909 98.752539 
L 399.152727 98.281026 
L 399.744545 92.257784 
L 400.336364 92.008389 
L 400.928182 90.74927 
L 401.52 88.609658 
L 402.111818 95.982859 
L 402.703636 95.325389 
L 403.295455 96.13251 
L 403.887273 100.463444 
L 404.479091 91.488501 
L 405.070909 91.012952 
L 405.662727 88.71927 
L 406.254545 94.456016 
L 406.846364 93.913408 
L 407.438182 95.526113 
L 408.03 95.347191 
L 408.621818 95.751477 
L 409.213636 93.934133 
L 409.805455 93.108337 
L 410.397273 94.85427 
L 410.989091 95.703092 
L 411.580909 93.889994 
L 412.172727 99.479746 
L 412.764545 96.179528 
L 413.356364 98.212987 
L 413.948182 96.180597 
L 414.54 93.047043 
L 415.131818 98.685008 
L 416.315455 94.461119 
L 416.907273 90.199275 
L 417.499091 88.418525 
L 418.090909 96.606288 
L 418.682727 97.597278 
L 419.274545 103.056614 
L 419.866364 95.999609 
L 420.458182 98.942145 
L 421.05 96.022684 
L 421.641818 100.323678 
L 422.233636 97.005272 
L 422.825455 99.698776 
L 423.417273 104.47258 
L 424.009091 104.185513 
L 424.600909 102.897879 
L 425.192727 97.340781 
L 425.784545 96.352857 
L 426.376364 101.14729 
L 426.968182 98.195291 
L 427.56 103.794527 
L 428.151818 99.449433 
L 428.743636 102.6286 
L 429.335455 98.024043 
L 429.927273 95.248054 
L 430.519091 100.803984 
L 431.110909 92.786363 
L 431.702727 92.223456 
L 432.294545 90.862812 
L 432.886364 93.937024 
L 433.478182 98.706326 
L 434.07 96.584027 
L 434.661818 102.614626 
L 435.253636 103.395399 
L 435.845455 101.168081 
L 435.845455 101.168081 
" style="fill:none;stroke:#ff7f0e;stroke-linecap:square;stroke-width:1.5;"/>
   </g>
   <g id="line2d_15">
    <path clip-path="url(#p1a987dac01)" d="M 80.754545 71.148619 
L 81.346364 68.48408 
L 81.938182 51.755307 
L 82.53 47.421925 
L 83.121818 39.202755 
L 83.713636 39.210281 
L 84.305455 42.637211 
L 84.897273 43.095396 
L 85.489091 44.222958 
L 86.672727 48.721226 
L 87.264545 51.70554 
L 87.856364 44.3443 
L 88.448182 55.795424 
L 89.04 50.827545 
L 89.631818 53.868944 
L 90.223636 54.283307 
L 90.815455 53.278679 
L 91.407273 50.533253 
L 91.999091 54.454284 
L 92.590909 51.484349 
L 93.182727 55.136553 
L 93.774545 52.348012 
L 94.366364 62.556729 
L 94.958182 62.146643 
L 95.55 57.04818 
L 96.141818 57.167109 
L 96.733636 53.394636 
L 97.325455 65.422559 
L 97.917273 65.697501 
L 98.509091 73.010286 
L 99.100909 74.669039 
L 99.692727 70.283595 
L 100.284545 71.991598 
L 100.876364 64.364021 
L 101.468182 65.70672 
L 102.06 62.995291 
L 102.651818 64.056 
L 103.243636 66.904878 
L 103.835455 74.705551 
L 104.427273 75.693442 
L 105.019091 62.858682 
L 105.610909 63.579932 
L 106.202727 66.039443 
L 106.794545 53.597728 
L 107.386364 60.549973 
L 107.978182 63.041493 
L 108.57 63.928553 
L 109.161818 60.793156 
L 109.753636 66.417899 
L 110.345455 66.669855 
L 110.937273 55.054549 
L 111.529091 66.866025 
L 112.120909 60.639887 
L 112.712727 60.06606 
L 113.304545 66.671558 
L 113.896364 61.959604 
L 115.08 66.599252 
L 115.671818 58.02593 
L 116.263636 69.945081 
L 116.855455 67.146758 
L 117.447273 65.976665 
L 118.039091 68.862627 
L 118.630909 58.030606 
L 119.222727 63.466733 
L 119.814545 52.939382 
L 120.406364 67.960891 
L 120.998182 56.168577 
L 121.59 47.680528 
L 122.181818 62.859885 
L 122.773636 60.648714 
L 123.365455 66.022431 
L 123.957273 55.224355 
L 124.549091 56.604265 
L 125.140909 53.234137 
L 125.732727 58.390118 
L 126.324545 58.50374 
L 126.916364 64.833409 
L 127.508182 55.82814 
L 128.1 58.962493 
L 128.691818 61.209575 
L 129.283636 64.815246 
L 129.875455 64.077107 
L 130.467273 60.99503 
L 131.059091 53.845243 
L 131.650909 57.070823 
L 132.242727 57.827929 
L 132.834545 56.334037 
L 133.426364 65.456609 
L 134.018182 66.91046 
L 134.61 66.438722 
L 135.201818 52.507561 
L 135.793636 61.83395 
L 136.385455 68.666386 
L 136.977273 65.541413 
L 137.569091 63.562348 
L 138.160909 65.553241 
L 138.752727 55.32493 
L 139.344545 54.457472 
L 139.936364 46.463821 
L 141.12 55.499733 
L 141.711818 54.718735 
L 142.303636 55.616204 
L 142.895455 53.272984 
L 143.487273 54.399399 
L 144.079091 66.008818 
L 144.670909 61.12115 
L 145.262727 46.900083 
L 146.446364 56.83053 
L 147.038182 44.764953 
L 148.221818 62.805075 
L 148.813636 42.497517 
L 149.405455 57.510953 
L 149.997273 57.389673 
L 150.589091 51.997345 
L 151.180909 58.183266 
L 151.772727 56.622322 
L 152.364545 55.939038 
L 152.956364 56.575088 
L 153.548182 51.062329 
L 154.14 60.438377 
L 154.731818 56.781585 
L 155.323636 54.807571 
L 155.915455 53.810299 
L 156.507273 65.683172 
L 157.099091 64.518386 
L 157.690909 50.587209 
L 158.282727 53.994267 
L 158.874545 58.133027 
L 159.466364 49.179801 
L 160.65 58.578291 
L 161.241818 58.747629 
L 161.833636 61.892783 
L 162.425455 70.053365 
L 163.017273 63.190944 
L 163.609091 47.909767 
L 164.200909 52.115879 
L 164.792727 59.065279 
L 165.384545 57.298108 
L 165.976364 46.81012 
L 166.568182 50.066517 
L 167.16 45.152636 
L 167.751818 56.723726 
L 168.343636 52.894964 
L 168.935455 59.996452 
L 169.527273 57.645411 
L 170.710909 44.832861 
L 171.302727 59.991055 
L 171.894545 41.598612 
L 172.486364 54.931754 
L 173.078182 45.338557 
L 173.67 51.694775 
L 174.261818 46.210511 
L 174.853636 47.043784 
L 175.445455 61.347998 
L 176.037273 54.413583 
L 176.629091 62.868664 
L 177.220909 56.599017 
L 177.812727 59.549561 
L 178.404545 54.383167 
L 178.996364 53.328495 
L 179.588182 47.192558 
L 180.771818 50.095484 
L 181.363636 50.296518 
L 181.955455 48.044516 
L 182.547273 58.18073 
L 183.139091 60.436524 
L 183.730909 58.420481 
L 184.914545 64.736658 
L 185.506364 66.277379 
L 186.098182 47.677947 
L 186.69 52.9213 
L 187.281818 56.352492 
L 187.873636 57.322579 
L 189.057273 58.450895 
L 189.649091 64.539354 
L 190.240909 56.887582 
L 190.832727 56.066121 
L 191.424545 50.25356 
L 192.016364 50.364753 
L 192.608182 51.461659 
L 193.2 54.231279 
L 193.791818 48.035837 
L 194.383636 57.727031 
L 194.975455 53.494642 
L 196.159091 50.943704 
L 196.750909 54.347989 
L 197.342727 54.189993 
L 197.934545 55.280017 
L 198.526364 55.037752 
L 199.118182 58.512968 
L 199.71 57.520873 
L 200.301818 61.657786 
L 200.893636 61.528046 
L 201.485455 68.368385 
L 202.077273 65.208692 
L 202.669091 66.111284 
L 203.260909 71.468751 
L 203.852727 60.883297 
L 204.444545 53.471738 
L 205.036364 52.527562 
L 205.628182 56.236221 
L 206.22 62.844994 
L 206.811818 76.673736 
L 207.403636 78.680663 
L 207.995455 67.361146 
L 208.587273 52.12324 
L 209.770909 78.910137 
L 210.362727 66.668156 
L 210.954545 70.753124 
L 211.546364 68.184607 
L 212.138182 68.524298 
L 212.73 60.348733 
L 213.321818 60.417076 
L 213.913636 59.564462 
L 214.505455 59.160472 
L 215.097273 61.315851 
L 215.689091 67.936732 
L 216.280909 68.331031 
L 216.872727 57.265483 
L 217.464545 59.758265 
L 218.056364 73.065303 
L 218.648182 57.98896 
L 219.24 62.499752 
L 219.831818 60.833576 
L 220.423636 71.056655 
L 221.015455 57.880279 
L 221.607273 61.389977 
L 222.199091 64.114541 
L 222.790909 51.780212 
L 223.382727 64.866905 
L 223.974545 62.896469 
L 224.566364 69.811625 
L 225.158182 49.71175 
L 225.75 57.734417 
L 226.341818 60.845364 
L 226.933636 62.510945 
L 227.525455 57.143933 
L 228.117273 58.22302 
L 228.709091 68.662184 
L 229.300909 59.577798 
L 229.892727 65.796008 
L 230.484545 57.857469 
L 231.076364 64.456803 
L 231.668182 66.645785 
L 232.26 67.006997 
L 232.851818 71.930453 
L 233.443636 68.798467 
L 234.035455 75.430231 
L 234.627273 63.291806 
L 235.219091 54.908588 
L 235.810909 63.816928 
L 236.402727 66.125448 
L 236.994545 73.001065 
L 237.586364 72.727039 
L 238.178182 66.094006 
L 238.77 62.210678 
L 239.361818 55.365858 
L 239.953636 60.867257 
L 240.545455 57.806747 
L 241.137273 63.485684 
L 241.729091 58.060136 
L 242.320909 58.814214 
L 242.912727 55.163833 
L 243.504545 64.488956 
L 244.096364 67.924534 
L 244.688182 56.608993 
L 245.28 50.191787 
L 245.871818 58.902521 
L 246.463636 61.55326 
L 247.055455 60.289095 
L 247.647273 57.299289 
L 248.239091 61.164354 
L 248.830909 60.956679 
L 249.422727 58.397759 
L 250.014545 56.746698 
L 250.606364 54.180232 
L 251.198182 59.112974 
L 251.79 61.761215 
L 252.381818 58.814699 
L 252.973636 65.667511 
L 253.565455 59.287247 
L 254.157273 68.994292 
L 254.749091 62.372474 
L 255.340909 63.233469 
L 255.932727 56.602072 
L 257.116364 65.173797 
L 257.708182 60.954504 
L 258.3 59.385045 
L 258.891818 61.243874 
L 259.483636 53.799536 
L 260.667273 66.410967 
L 261.259091 58.074624 
L 261.850909 66.268753 
L 262.442727 60.757535 
L 263.034545 57.385508 
L 263.626364 63.763815 
L 264.218182 52.891855 
L 264.81 62.270778 
L 265.401818 60.795388 
L 265.993636 56.93796 
L 266.585455 60.935342 
L 267.177273 60.242445 
L 267.769091 54.575311 
L 268.360909 60.222178 
L 268.952727 62.666635 
L 269.544545 63.251371 
L 270.136364 65.830703 
L 270.728182 62.472984 
L 271.32 68.202488 
L 271.911818 67.467576 
L 272.503636 66.238262 
L 273.095455 67.008984 
L 273.687273 63.272982 
L 274.279091 63.411352 
L 274.870909 66.524403 
L 275.462727 55.955305 
L 276.054545 62.077572 
L 276.646364 58.984881 
L 277.238182 54.329646 
L 278.421818 59.002111 
L 279.013636 52.343809 
L 279.605455 48.79066 
L 280.197273 49.422328 
L 280.789091 53.404094 
L 281.380909 53.922273 
L 281.972727 59.272986 
L 282.564545 56.771663 
L 283.156364 50.424979 
L 283.748182 55.315749 
L 284.34 50.804312 
L 284.931818 55.606255 
L 285.523636 62.416046 
L 286.115455 62.603237 
L 286.707273 60.701045 
L 287.299091 53.244513 
L 287.890909 61.146847 
L 288.482727 61.492335 
L 289.074545 64.589014 
L 289.666364 59.548267 
L 290.258182 58.711036 
L 290.85 60.866348 
L 291.441818 55.096587 
L 292.033636 56.854772 
L 292.625455 62.622236 
L 293.217273 59.97861 
L 293.809091 61.21751 
L 294.400909 61.921956 
L 294.992727 60.877831 
L 295.584545 63.106902 
L 296.176364 51.575713 
L 296.768182 49.145023 
L 297.36 53.759697 
L 297.951818 54.76136 
L 298.543636 57.042354 
L 299.135455 61.540415 
L 300.319091 67.125299 
L 300.910909 58.991088 
L 301.502727 59.193864 
L 302.094545 58.950091 
L 302.686364 69.062283 
L 303.278182 61.305606 
L 303.87 57.540625 
L 304.461818 56.577797 
L 305.053636 55.313193 
L 305.645455 54.591339 
L 306.237273 65.39145 
L 306.829091 68.491448 
L 307.420909 59.391194 
L 308.012727 55.726655 
L 308.604545 56.785171 
L 309.196364 58.21417 
L 309.788182 54.268423 
L 310.38 49.172558 
L 310.971818 56.886376 
L 311.563636 55.704415 
L 312.155455 58.419038 
L 312.747273 66.349419 
L 313.339091 65.985346 
L 313.930909 68.275348 
L 314.522727 65.468258 
L 315.114545 58.888634 
L 315.706364 59.559291 
L 316.298182 64.986191 
L 316.89 61.642113 
L 317.481818 59.906386 
L 318.073636 61.803229 
L 318.665455 61.032287 
L 319.257273 52.153898 
L 319.849091 53.069051 
L 320.440909 51.885338 
L 321.032727 57.932012 
L 321.624545 54.540966 
L 322.216364 56.694273 
L 322.808182 57.50853 
L 323.4 58.034667 
L 323.991818 62.204275 
L 324.583636 55.543499 
L 325.175455 62.496869 
L 325.767273 53.148265 
L 326.359091 56.381133 
L 326.950909 56.063251 
L 327.542727 54.086828 
L 328.134545 56.799679 
L 328.726364 69.891376 
L 329.318182 61.899657 
L 329.91 63.452816 
L 330.501818 67.596511 
L 331.093636 65.431351 
L 331.685455 69.783837 
L 332.277273 60.998053 
L 332.869091 61.394561 
L 333.460909 60.760777 
L 334.052727 65.575069 
L 334.644545 64.007875 
L 335.236364 65.079299 
L 335.828182 61.025296 
L 336.42 59.243414 
L 337.011818 71.00508 
L 337.603636 60.388688 
L 338.195455 64.257612 
L 338.787273 57.29065 
L 339.379091 57.393372 
L 339.970909 61.710704 
L 340.562727 63.352344 
L 341.154545 59.863367 
L 341.746364 60.859261 
L 342.338182 60.410984 
L 342.93 62.528045 
L 343.521818 63.830068 
L 344.113636 63.56012 
L 344.705455 59.965915 
L 345.297273 57.671852 
L 345.889091 57.344226 
L 346.480909 54.692383 
L 347.072727 61.617856 
L 347.664545 57.876003 
L 348.256364 59.14391 
L 348.848182 55.82044 
L 349.44 58.299561 
L 350.031818 57.425439 
L 350.623636 49.39517 
L 351.215455 58.143248 
L 351.807273 57.62974 
L 352.399091 59.677871 
L 352.990909 60.416551 
L 353.582727 56.749489 
L 354.174545 63.017928 
L 354.766364 61.197241 
L 355.358182 60.742394 
L 355.95 64.734979 
L 356.541818 58.276083 
L 357.133636 63.238669 
L 357.725455 62.416536 
L 358.909091 50.667871 
L 359.500909 51.539777 
L 360.092727 51.879468 
L 361.276364 55.921424 
L 361.868182 60.654215 
L 362.46 55.56158 
L 363.051818 63.418623 
L 363.643636 58.036237 
L 364.235455 51.297736 
L 364.827273 56.391279 
L 365.419091 55.692437 
L 366.010909 51.047359 
L 366.602727 58.14219 
L 367.194545 50.67187 
L 367.786364 53.75955 
L 368.378182 53.606841 
L 368.97 45.481715 
L 369.561818 58.231786 
L 370.153636 63.611035 
L 370.745455 66.341213 
L 371.337273 51.063624 
L 371.929091 58.049289 
L 372.520909 53.103844 
L 373.112727 53.511036 
L 373.704545 57.49769 
L 374.296364 55.49648 
L 374.888182 55.288257 
L 375.48 61.866448 
L 376.071818 61.740819 
L 376.663636 65.720939 
L 377.255455 64.049318 
L 377.847273 63.205843 
L 378.439091 65.483083 
L 379.030909 64.611087 
L 380.214545 67.479475 
L 380.806364 67.569508 
L 381.398182 72.213014 
L 381.99 67.035418 
L 382.581818 69.085947 
L 383.173636 67.81649 
L 383.765455 63.303387 
L 384.357273 66.564006 
L 384.949091 72.461033 
L 385.540909 72.654392 
L 386.724545 62.194602 
L 387.316364 63.821255 
L 387.908182 64.475493 
L 388.5 61.507112 
L 389.091818 61.596233 
L 389.683636 69.27339 
L 390.275455 61.766683 
L 390.867273 64.283162 
L 391.459091 57.841383 
L 392.050909 59.491435 
L 392.642727 58.518466 
L 393.234545 56.805548 
L 393.826364 55.8423 
L 395.01 69.820771 
L 395.601818 63.629106 
L 396.193636 58.814049 
L 396.785455 59.013429 
L 397.377273 64.041694 
L 397.969091 63.847501 
L 398.560909 62.016404 
L 399.152727 65.800932 
L 399.744545 64.941027 
L 400.336364 67.87773 
L 400.928182 61.810093 
L 401.52 59.628429 
L 402.111818 65.818447 
L 402.703636 64.2455 
L 403.295455 66.356178 
L 404.479091 58.703899 
L 405.070909 64.751754 
L 405.662727 60.577874 
L 406.254545 58.680083 
L 406.846364 63.894011 
L 407.438182 66.490642 
L 408.03 68.380946 
L 408.621818 60.887856 
L 409.213636 62.33255 
L 409.805455 67.057571 
L 410.397273 66.549787 
L 410.989091 71.258119 
L 411.580909 73.614341 
L 412.172727 67.735634 
L 412.764545 66.358316 
L 413.356364 63.853175 
L 413.948182 63.487219 
L 414.54 71.084488 
L 415.131818 61.195358 
L 415.723636 58.88515 
L 416.315455 62.231021 
L 416.907273 69.687212 
L 417.499091 68.69856 
L 418.090909 68.679003 
L 418.682727 63.487378 
L 419.274545 63.726653 
L 419.866364 61.553233 
L 420.458182 64.825808 
L 421.05 66.422483 
L 421.641818 72.088816 
L 422.233636 64.039453 
L 422.825455 64.276996 
L 423.417273 68.377176 
L 424.009091 59.589682 
L 424.600909 66.876631 
L 425.192727 67.643242 
L 425.784545 70.074953 
L 426.376364 67.305896 
L 426.968182 70.478064 
L 427.56 63.218405 
L 428.151818 61.945439 
L 428.743636 68.441235 
L 429.927273 61.905117 
L 430.519091 69.437559 
L 431.110909 67.684295 
L 431.702727 59.827569 
L 432.294545 58.988316 
L 432.886364 68.555312 
L 433.478182 63.702005 
L 434.07 62.404626 
L 434.661818 52.943276 
L 435.253636 61.790624 
L 435.845455 66.981677 
L 435.845455 66.981677 
" style="fill:none;stroke:#2ca02c;stroke-linecap:square;stroke-width:1.5;"/>
   </g>
   <g id="line2d_16">
    <path clip-path="url(#p1a987dac01)" d="M 80.754545 81.785328 
L 82.53 41.141745 
L 83.121818 44.760659 
L 84.305455 37.800152 
L 84.897273 50.252367 
L 85.489091 51.781534 
L 86.080909 49.026411 
L 86.672727 49.428799 
L 87.264545 50.211305 
L 87.856364 41.270258 
L 88.448182 46.851183 
L 89.04 42.22416 
L 89.631818 50.544768 
L 90.223636 49.87666 
L 90.815455 55.169694 
L 91.407273 52.734715 
L 91.999091 46.966379 
L 92.590909 46.950017 
L 93.182727 54.940043 
L 93.774545 54.172359 
L 94.366364 48.132904 
L 94.958182 48.854904 
L 95.55 53.335718 
L 96.141818 52.785729 
L 96.733636 57.465977 
L 97.325455 58.149475 
L 97.917273 50.268287 
L 98.509091 60.360115 
L 99.100909 63.367587 
L 99.692727 63.230785 
L 100.284545 50.672366 
L 100.876364 42.603362 
L 101.468182 56.005387 
L 102.06 64.276312 
L 103.243636 53.277437 
L 103.835455 62.624853 
L 104.427273 61.842168 
L 105.610909 66.717563 
L 106.202727 47.661836 
L 106.794545 53.923302 
L 107.386364 56.961053 
L 107.978182 68.980471 
L 108.57 56.611558 
L 109.161818 47.646994 
L 109.753636 56.031557 
L 110.345455 62.483821 
L 110.937273 59.76579 
L 111.529091 59.485771 
L 112.120909 53.609573 
L 112.712727 54.396001 
L 113.304545 58.93624 
L 113.896364 50.369398 
L 114.488182 51.091271 
L 115.08 58.016216 
L 115.671818 54.091301 
L 116.263636 66.318048 
L 116.855455 60.958888 
L 117.447273 63.580401 
L 118.039091 56.947377 
L 118.630909 60.23416 
L 119.222727 56.064132 
L 119.814545 57.510687 
L 120.406364 60.973068 
L 120.998182 56.940992 
L 121.59 66.768587 
L 122.181818 61.394098 
L 122.773636 57.484328 
L 123.365455 59.69144 
L 123.957273 57.390124 
L 124.549091 58.399376 
L 125.140909 62.722643 
L 125.732727 59.804585 
L 126.324545 59.773326 
L 126.916364 55.157936 
L 127.508182 60.29266 
L 128.1 62.454669 
L 128.691818 66.526205 
L 129.283636 65.858046 
L 129.875455 65.416343 
L 130.467273 61.570591 
L 131.059091 54.932982 
L 131.650909 57.88867 
L 132.242727 63.696007 
L 132.834545 56.944607 
L 133.426364 65.002791 
L 134.018182 63.864877 
L 134.61 58.35154 
L 135.201818 59.231858 
L 135.793636 58.436316 
L 136.385455 53.301624 
L 136.977273 65.648137 
L 137.569091 59.19435 
L 138.160909 54.844101 
L 138.752727 61.622056 
L 139.344545 61.161705 
L 139.936364 62.517541 
L 140.528182 59.430498 
L 141.12 63.367239 
L 141.711818 64.485774 
L 142.303636 53.905092 
L 142.895455 61.181822 
L 143.487273 55.947469 
L 144.079091 56.527712 
L 144.670909 60.283173 
L 145.262727 55.058553 
L 145.854545 57.248476 
L 146.446364 60.090833 
L 147.038182 54.178381 
L 147.63 68.671043 
L 148.221818 54.101032 
L 148.813636 57.398257 
L 149.405455 66.502914 
L 149.997273 57.573745 
L 150.589091 58.560014 
L 151.180909 49.41856 
L 151.772727 55.807166 
L 152.364545 59.09389 
L 152.956364 69.627911 
L 153.548182 55.25242 
L 154.14 57.829303 
L 154.731818 59.043928 
L 155.323636 57.127196 
L 155.915455 51.297971 
L 156.507273 58.68243 
L 157.099091 61.831909 
L 157.690909 62.464693 
L 158.282727 56.663066 
L 159.466364 58.203502 
L 160.058182 51.890051 
L 160.65 52.511379 
L 161.241818 58.653173 
L 161.833636 59.141547 
L 162.425455 56.94132 
L 163.017273 53.449866 
L 163.609091 53.980375 
L 164.200909 51.222857 
L 164.792727 49.405522 
L 165.384545 51.891327 
L 165.976364 55.914416 
L 166.568182 58.190709 
L 167.16 47.392487 
L 167.751818 57.193204 
L 168.343636 64.566723 
L 169.527273 46.885295 
L 170.119091 60.073597 
L 170.710909 57.530529 
L 171.302727 63.093378 
L 171.894545 52.492734 
L 172.486364 56.122076 
L 173.078182 62.811133 
L 173.67 64.792863 
L 174.261818 70.300955 
L 174.853636 63.070743 
L 175.445455 63.147556 
L 176.037273 54.674901 
L 176.629091 60.143567 
L 177.220909 59.150138 
L 177.812727 56.188474 
L 178.996364 53.0425 
L 179.588182 62.270101 
L 180.18 60.484806 
L 180.771818 56.298667 
L 181.363636 57.496502 
L 181.955455 54.655398 
L 182.547273 59.899212 
L 183.139091 56.045827 
L 183.730909 50.174025 
L 184.914545 67.691599 
L 185.506364 63.798779 
L 186.098182 64.990923 
L 186.69 65.499171 
L 187.281818 61.393161 
L 187.873636 60.756115 
L 188.465455 51.418375 
L 189.057273 58.024163 
L 189.649091 62.971032 
L 190.240909 59.97613 
L 190.832727 64.990424 
L 191.424545 61.804128 
L 192.016364 56.520799 
L 192.608182 67.545352 
L 193.2 58.440224 
L 193.791818 53.614273 
L 194.383636 59.289825 
L 194.975455 59.456822 
L 195.567273 60.362531 
L 196.159091 65.38665 
L 196.750909 60.607344 
L 197.342727 60.289266 
L 197.934545 56.581145 
L 198.526364 57.108351 
L 199.118182 58.030413 
L 199.71 40.36586 
L 200.301818 57.633339 
L 200.893636 56.33227 
L 202.077273 64.259208 
L 202.669091 65.935454 
L 203.260909 63.916879 
L 203.852727 72.597847 
L 204.444545 50.292143 
L 205.036364 65.398451 
L 205.628182 62.381465 
L 206.22 51.953118 
L 206.811818 59.669697 
L 207.403636 64.408596 
L 207.995455 63.623569 
L 208.587273 51.287346 
L 209.179091 53.049738 
L 209.770909 59.050513 
L 210.362727 61.25902 
L 210.954545 66.639532 
L 211.546364 63.316265 
L 212.138182 62.67832 
L 212.73 54.333635 
L 213.321818 53.620317 
L 213.913636 65.346956 
L 214.505455 63.315911 
L 215.097273 60.57022 
L 215.689091 55.827137 
L 216.280909 61.440439 
L 216.872727 55.779252 
L 217.464545 56.040706 
L 218.056364 55.833539 
L 218.648182 66.704811 
L 219.24 61.105089 
L 219.831818 66.32539 
L 220.423636 65.846059 
L 221.015455 46.165881 
L 221.607273 50.940003 
L 222.199091 67.673731 
L 222.790909 63.603917 
L 223.382727 61.287882 
L 223.974545 60.696204 
L 224.566364 58.351093 
L 225.158182 53.726125 
L 225.75 55.415772 
L 226.341818 60.596274 
L 226.933636 55.803333 
L 227.525455 60.199973 
L 228.117273 62.182839 
L 228.709091 62.047845 
L 229.300909 66.845067 
L 229.892727 56.713794 
L 230.484545 63.665555 
L 231.076364 67.296147 
L 231.668182 59.475152 
L 232.26 64.30041 
L 232.851818 54.850749 
L 233.443636 52.81183 
L 234.035455 53.730276 
L 234.627273 57.202564 
L 235.219091 59.465778 
L 235.810909 66.133888 
L 236.402727 56.148557 
L 236.994545 55.952234 
L 237.586364 56.692866 
L 238.178182 54.203316 
L 238.77 62.701156 
L 239.361818 68.682369 
L 239.953636 56.425465 
L 240.545455 61.52706 
L 241.729091 55.111794 
L 242.320909 53.951681 
L 242.912727 48.387252 
L 243.504545 54.688666 
L 244.688182 41.85717 
L 245.28 45.522235 
L 245.871818 43.261903 
L 246.463636 53.371479 
L 247.055455 61.05203 
L 247.647273 50.567431 
L 248.239091 63.755495 
L 248.830909 59.38207 
L 249.422727 59.94783 
L 250.014545 51.864414 
L 250.606364 61.037251 
L 251.198182 44.966344 
L 251.79 55.256777 
L 252.381818 48.525465 
L 252.973636 55.690343 
L 253.565455 48.614314 
L 254.157273 49.170002 
L 254.749091 49.326052 
L 255.340909 37.495591 
L 255.932727 44.112605 
L 256.524545 52.778399 
L 257.116364 47.269574 
L 257.708182 43.724489 
L 258.3 53.642604 
L 258.891818 52.878838 
L 259.483636 54.92113 
L 260.075455 59.388552 
L 260.667273 53.423256 
L 261.259091 49.229967 
L 261.850909 54.560445 
L 262.442727 57.50515 
L 263.034545 52.399297 
L 263.626364 58.047251 
L 264.218182 56.424139 
L 264.81 51.291932 
L 265.401818 56.26335 
L 265.993636 46.365759 
L 266.585455 48.720965 
L 267.177273 47.916271 
L 267.769091 55.866712 
L 268.360909 54.186941 
L 268.952727 55.064697 
L 269.544545 53.841875 
L 270.136364 52.32573 
L 270.728182 51.627093 
L 271.32 56.653752 
L 271.911818 53.21308 
L 272.503636 63.146098 
L 273.095455 57.002229 
L 273.687273 57.034298 
L 274.279091 53.186135 
L 274.870909 47.05682 
L 275.462727 56.45273 
L 276.054545 57.587371 
L 276.646364 54.290775 
L 277.238182 60.668333 
L 277.83 58.824263 
L 278.421818 57.459613 
L 279.013636 56.428852 
L 279.605455 52.29594 
L 280.197273 56.846568 
L 280.789091 66.013547 
L 281.380909 65.046895 
L 281.972727 53.841938 
L 282.564545 51.137194 
L 283.156364 56.162982 
L 283.748182 60.074915 
L 284.34 65.418576 
L 284.931818 63.29648 
L 285.523636 56.803901 
L 286.115455 53.784615 
L 286.707273 51.360988 
L 287.299091 56.059676 
L 287.890909 56.566107 
L 288.482727 50.222953 
L 289.074545 49.098055 
L 289.666364 44.87953 
L 290.258182 41.853179 
L 290.85 44.614117 
L 291.441818 52.486649 
L 292.033636 56.961726 
L 293.217273 48.582802 
L 293.809091 51.123668 
L 294.400909 55.002861 
L 294.992727 52.890141 
L 295.584545 47.107179 
L 296.176364 49.670808 
L 296.768182 53.618718 
L 297.36 56.007602 
L 297.951818 54.216578 
L 298.543636 57.796316 
L 299.135455 65.427987 
L 300.319091 53.66133 
L 300.910909 55.511612 
L 301.502727 58.589697 
L 302.094545 61.041459 
L 302.686364 58.806013 
L 303.278182 61.595287 
L 303.87 58.622812 
L 304.461818 67.177817 
L 305.053636 57.069218 
L 305.645455 62.693205 
L 306.237273 64.279568 
L 306.829091 59.459559 
L 307.420909 65.737019 
L 308.012727 58.484894 
L 308.604545 54.887218 
L 309.196364 61.021949 
L 309.788182 61.110796 
L 310.38 54.098808 
L 310.971818 62.873749 
L 311.563636 57.786452 
L 312.155455 57.871717 
L 312.747273 61.716111 
L 313.339091 57.047979 
L 313.930909 46.538513 
L 314.522727 52.144019 
L 315.114545 65.82367 
L 315.706364 68.191414 
L 316.298182 63.883465 
L 316.89 54.918972 
L 317.481818 72.29541 
L 318.073636 58.511892 
L 318.665455 60.830881 
L 319.257273 55.200357 
L 319.849091 54.072878 
L 320.440909 58.49934 
L 321.032727 57.233598 
L 321.624545 57.52398 
L 322.216364 62.850789 
L 322.808182 60.992319 
L 323.4 54.240795 
L 323.991818 67.643475 
L 324.583636 55.771504 
L 325.175455 67.00979 
L 325.767273 60.921323 
L 326.359091 61.451228 
L 326.950909 58.318768 
L 327.542727 58.188665 
L 328.134545 60.470947 
L 328.726364 50.725256 
L 329.318182 61.764535 
L 329.91 62.389446 
L 330.501818 66.533952 
L 331.093636 64.858385 
L 331.685455 57.77583 
L 332.277273 59.729154 
L 332.869091 62.643043 
L 333.460909 63.10572 
L 334.052727 65.09785 
L 334.644545 71.950704 
L 335.236364 65.17668 
L 335.828182 63.917885 
L 337.011818 57.235445 
L 337.603636 54.097761 
L 338.787273 68.368542 
L 339.379091 62.379016 
L 339.970909 63.806014 
L 340.562727 67.35025 
L 341.154545 66.186857 
L 341.746364 58.824239 
L 342.338182 68.482636 
L 342.93 68.680685 
L 343.521818 67.880898 
L 344.113636 63.726311 
L 344.705455 67.522423 
L 345.297273 58.916171 
L 345.889091 70.864319 
L 346.480909 67.311212 
L 347.072727 68.668634 
L 347.664545 64.997327 
L 348.256364 59.977681 
L 348.848182 67.497451 
L 349.44 69.128745 
L 350.031818 73.77013 
L 350.623636 61.677825 
L 351.215455 69.843911 
L 351.807273 61.7442 
L 352.399091 58.172668 
L 352.990909 65.167256 
L 353.582727 62.8508 
L 354.174545 64.453607 
L 354.766364 64.930073 
L 355.358182 66.454036 
L 355.95 65.976663 
L 356.541818 58.874124 
L 357.133636 57.120635 
L 357.725455 65.302938 
L 358.317273 65.427299 
L 358.909091 59.302418 
L 359.500909 59.354869 
L 360.092727 68.300469 
L 360.684545 65.329551 
L 361.276364 64.524317 
L 361.868182 61.145632 
L 362.46 59.357321 
L 363.051818 65.586539 
L 363.643636 67.65779 
L 364.235455 68.388465 
L 364.827273 66.866833 
L 365.419091 59.522914 
L 366.010909 67.249095 
L 366.602727 57.521354 
L 367.194545 63.145427 
L 367.786364 65.877628 
L 368.378182 67.336751 
L 368.97 74.502997 
L 369.561818 66.549054 
L 370.153636 67.400053 
L 370.745455 63.285305 
L 371.337273 55.979519 
L 371.929091 53.633311 
L 372.520909 59.061598 
L 373.112727 60.749051 
L 373.704545 53.582273 
L 374.296364 62.981964 
L 374.888182 58.64668 
L 375.48 64.681045 
L 376.071818 63.307949 
L 376.663636 65.888289 
L 377.255455 71.045398 
L 377.847273 66.760716 
L 378.439091 74.012908 
L 379.030909 73.929875 
L 379.622727 67.565529 
L 380.214545 76.299311 
L 380.806364 70.221155 
L 381.398182 65.864153 
L 381.99 65.499923 
L 382.581818 61.042047 
L 383.173636 58.785489 
L 384.357273 66.328285 
L 384.949091 62.991183 
L 385.540909 61.172936 
L 386.724545 69.649945 
L 387.316364 59.798312 
L 387.908182 64.513153 
L 388.5 61.530163 
L 389.091818 63.988946 
L 389.683636 64.828678 
L 390.275455 70.627767 
L 390.867273 69.632325 
L 391.459091 67.904788 
L 392.050909 67.455957 
L 392.642727 69.075773 
L 393.234545 65.244258 
L 393.826364 59.80219 
L 394.418182 61.885117 
L 395.01 65.621474 
L 395.601818 55.053949 
L 396.193636 63.249035 
L 396.785455 57.916734 
L 397.377273 62.029084 
L 397.969091 64.646125 
L 398.560909 62.171897 
L 399.152727 64.232141 
L 399.744545 53.720772 
L 400.336364 53.854287 
L 400.928182 57.541813 
L 401.52 56.879525 
L 402.111818 63.996261 
L 402.703636 63.721674 
L 403.295455 61.508391 
L 403.887273 66.148538 
L 404.479091 67.007035 
L 405.070909 69.986181 
L 405.662727 65.79564 
L 406.254545 71.82571 
L 406.846364 68.377006 
L 407.438182 66.953118 
L 408.03 64.041535 
L 408.621818 61.71482 
L 409.213636 66.579755 
L 409.805455 65.180654 
L 410.397273 65.060769 
L 410.989091 61.136502 
L 411.580909 62.099718 
L 412.172727 58.899054 
L 412.764545 59.845192 
L 413.356364 60.511311 
L 413.948182 57.821333 
L 414.54 57.387569 
L 415.131818 63.807025 
L 415.723636 56.101179 
L 416.315455 53.615315 
L 416.907273 57.831304 
L 417.499091 56.377425 
L 418.090909 58.084089 
L 418.682727 61.621829 
L 419.274545 59.429871 
L 419.866364 61.117183 
L 420.458182 54.465406 
L 421.641818 65.167921 
L 422.825455 58.124564 
L 423.417273 52.119532 
L 424.009091 53.303364 
L 424.600909 58.025812 
L 425.192727 51.921691 
L 425.784545 55.228197 
L 426.968182 59.087401 
L 427.56 58.008194 
L 428.743636 66.399405 
L 429.335455 55.41524 
L 429.927273 55.694435 
L 430.519091 60.125101 
L 431.110909 58.298766 
L 431.702727 66.047782 
L 432.294545 61.501838 
L 432.886364 53.784683 
L 433.478182 56.150933 
L 434.07 56.954402 
L 434.661818 53.116281 
L 435.253636 58.23142 
L 435.845455 60.460439 
L 435.845455 60.460439 
" style="fill:none;stroke:#d62728;stroke-linecap:square;stroke-width:1.5;"/>
   </g>
   <g id="line2d_17"/>
   <g id="line2d_18"/>
   <g id="line2d_19"/>
   <g id="line2d_20"/>
   <g id="patch_3">
    <path d="M 63 192.24 
L 63 25.92 
" style="fill:none;stroke:#000000;stroke-linecap:square;stroke-linejoin:miter;stroke-width:0.8;"/>
   </g>
   <g id="patch_4">
    <path d="M 63 192.24 
L 453.6 192.24 
" style="fill:none;stroke:#000000;stroke-linecap:square;stroke-linejoin:miter;stroke-width:0.8;"/>
   </g>
   <g id="text_15">
    <!-- modeltype=base, labormarket=biased -->
    <g transform="translate(141.785625 19.92)scale(0.12 -0.12)">
     <defs>
      <path d="M 30.609375 48.390625 
Q 23.390625 48.390625 19.1875 42.75 
Q 14.984375 37.109375 14.984375 27.296875 
Q 14.984375 17.484375 19.15625 11.84375 
Q 23.34375 6.203125 30.609375 6.203125 
Q 37.796875 6.203125 41.984375 11.859375 
Q 46.1875 17.53125 46.1875 27.296875 
Q 46.1875 37.015625 41.984375 42.703125 
Q 37.796875 48.390625 30.609375 48.390625 
z
M 30.609375 56 
Q 42.328125 56 49.015625 48.375 
Q 55.71875 40.765625 55.71875 27.296875 
Q 55.71875 13.875 49.015625 6.21875 
Q 42.328125 -1.421875 30.609375 -1.421875 
Q 18.84375 -1.421875 12.171875 6.21875 
Q 5.515625 13.875 5.515625 27.296875 
Q 5.515625 40.765625 12.171875 48.375 
Q 18.84375 56 30.609375 56 
z
" id="DejaVuSans-111"/>
      <path d="M 45.40625 46.390625 
L 45.40625 75.984375 
L 54.390625 75.984375 
L 54.390625 0 
L 45.40625 0 
L 45.40625 8.203125 
Q 42.578125 3.328125 38.25 0.953125 
Q 33.9375 -1.421875 27.875 -1.421875 
Q 17.96875 -1.421875 11.734375 6.484375 
Q 5.515625 14.40625 5.515625 27.296875 
Q 5.515625 40.1875 11.734375 48.09375 
Q 17.96875 56 27.875 56 
Q 33.9375 56 38.25 53.625 
Q 42.578125 51.265625 45.40625 46.390625 
z
M 14.796875 27.296875 
Q 14.796875 17.390625 18.875 11.75 
Q 22.953125 6.109375 30.078125 6.109375 
Q 37.203125 6.109375 41.296875 11.75 
Q 45.40625 17.390625 45.40625 27.296875 
Q 45.40625 37.203125 41.296875 42.84375 
Q 37.203125 48.484375 30.078125 48.484375 
Q 22.953125 48.484375 18.875 42.84375 
Q 14.796875 37.203125 14.796875 27.296875 
z
" id="DejaVuSans-100"/>
      <path d="M 9.421875 75.984375 
L 18.40625 75.984375 
L 18.40625 0 
L 9.421875 0 
z
" id="DejaVuSans-108"/>
      <path d="M 32.171875 -5.078125 
Q 28.375 -14.84375 24.75 -17.8125 
Q 21.140625 -20.796875 15.09375 -20.796875 
L 7.90625 -20.796875 
L 7.90625 -13.28125 
L 13.1875 -13.28125 
Q 16.890625 -13.28125 18.9375 -11.515625 
Q 21 -9.765625 23.484375 -3.21875 
L 25.09375 0.875 
L 2.984375 54.6875 
L 12.5 54.6875 
L 29.59375 11.921875 
L 46.6875 54.6875 
L 56.203125 54.6875 
z
" id="DejaVuSans-121"/>
      <path d="M 18.109375 8.203125 
L 18.109375 -20.796875 
L 9.078125 -20.796875 
L 9.078125 54.6875 
L 18.109375 54.6875 
L 18.109375 46.390625 
Q 20.953125 51.265625 25.265625 53.625 
Q 29.59375 56 35.59375 56 
Q 45.5625 56 51.78125 48.09375 
Q 58.015625 40.1875 58.015625 27.296875 
Q 58.015625 14.40625 51.78125 6.484375 
Q 45.5625 -1.421875 35.59375 -1.421875 
Q 29.59375 -1.421875 25.265625 0.953125 
Q 20.953125 3.328125 18.109375 8.203125 
z
M 48.6875 27.296875 
Q 48.6875 37.203125 44.609375 42.84375 
Q 40.53125 48.484375 33.40625 48.484375 
Q 26.265625 48.484375 22.1875 42.84375 
Q 18.109375 37.203125 18.109375 27.296875 
Q 18.109375 17.390625 22.1875 11.75 
Q 26.265625 6.109375 33.40625 6.109375 
Q 40.53125 6.109375 44.609375 11.75 
Q 48.6875 17.390625 48.6875 27.296875 
z
" id="DejaVuSans-112"/>
      <path d="M 10.59375 45.40625 
L 73.1875 45.40625 
L 73.1875 37.203125 
L 10.59375 37.203125 
z
M 10.59375 25.484375 
L 73.1875 25.484375 
L 73.1875 17.1875 
L 10.59375 17.1875 
z
" id="DejaVuSans-61"/>
      <path d="M 48.6875 27.296875 
Q 48.6875 37.203125 44.609375 42.84375 
Q 40.53125 48.484375 33.40625 48.484375 
Q 26.265625 48.484375 22.1875 42.84375 
Q 18.109375 37.203125 18.109375 27.296875 
Q 18.109375 17.390625 22.1875 11.75 
Q 26.265625 6.109375 33.40625 6.109375 
Q 40.53125 6.109375 44.609375 11.75 
Q 48.6875 17.390625 48.6875 27.296875 
z
M 18.109375 46.390625 
Q 20.953125 51.265625 25.265625 53.625 
Q 29.59375 56 35.59375 56 
Q 45.5625 56 51.78125 48.09375 
Q 58.015625 40.1875 58.015625 27.296875 
Q 58.015625 14.40625 51.78125 6.484375 
Q 45.5625 -1.421875 35.59375 -1.421875 
Q 29.59375 -1.421875 25.265625 0.953125 
Q 20.953125 3.328125 18.109375 8.203125 
L 18.109375 0 
L 9.078125 0 
L 9.078125 75.984375 
L 18.109375 75.984375 
z
" id="DejaVuSans-98"/>
      <path d="M 34.28125 27.484375 
Q 23.390625 27.484375 19.1875 25 
Q 14.984375 22.515625 14.984375 16.5 
Q 14.984375 11.71875 18.140625 8.90625 
Q 21.296875 6.109375 26.703125 6.109375 
Q 34.1875 6.109375 38.703125 11.40625 
Q 43.21875 16.703125 43.21875 25.484375 
L 43.21875 27.484375 
z
M 52.203125 31.203125 
L 52.203125 0 
L 43.21875 0 
L 43.21875 8.296875 
Q 40.140625 3.328125 35.546875 0.953125 
Q 30.953125 -1.421875 24.3125 -1.421875 
Q 15.921875 -1.421875 10.953125 3.296875 
Q 6 8.015625 6 15.921875 
Q 6 25.140625 12.171875 29.828125 
Q 18.359375 34.515625 30.609375 34.515625 
L 43.21875 34.515625 
L 43.21875 35.40625 
Q 43.21875 41.609375 39.140625 45 
Q 35.0625 48.390625 27.6875 48.390625 
Q 23 48.390625 18.546875 47.265625 
Q 14.109375 46.140625 10.015625 43.890625 
L 10.015625 52.203125 
Q 14.9375 54.109375 19.578125 55.046875 
Q 24.21875 56 28.609375 56 
Q 40.484375 56 46.34375 49.84375 
Q 52.203125 43.703125 52.203125 31.203125 
z
" id="DejaVuSans-97"/>
      <path d="M 44.28125 53.078125 
L 44.28125 44.578125 
Q 40.484375 46.53125 36.375 47.5 
Q 32.28125 48.484375 27.875 48.484375 
Q 21.1875 48.484375 17.84375 46.4375 
Q 14.5 44.390625 14.5 40.28125 
Q 14.5 37.15625 16.890625 35.375 
Q 19.28125 33.59375 26.515625 31.984375 
L 29.59375 31.296875 
Q 39.15625 29.25 43.1875 25.515625 
Q 47.21875 21.78125 47.21875 15.09375 
Q 47.21875 7.46875 41.1875 3.015625 
Q 35.15625 -1.421875 24.609375 -1.421875 
Q 20.21875 -1.421875 15.453125 -0.5625 
Q 10.6875 0.296875 5.421875 2 
L 5.421875 11.28125 
Q 10.40625 8.6875 15.234375 7.390625 
Q 20.0625 6.109375 24.8125 6.109375 
Q 31.15625 6.109375 34.5625 8.28125 
Q 37.984375 10.453125 37.984375 14.40625 
Q 37.984375 18.0625 35.515625 20.015625 
Q 33.0625 21.96875 24.703125 23.78125 
L 21.578125 24.515625 
Q 13.234375 26.265625 9.515625 29.90625 
Q 5.8125 33.546875 5.8125 39.890625 
Q 5.8125 47.609375 11.28125 51.796875 
Q 16.75 56 26.8125 56 
Q 31.78125 56 36.171875 55.265625 
Q 40.578125 54.546875 44.28125 53.078125 
z
" id="DejaVuSans-115"/>
      <path d="M 11.71875 12.40625 
L 22.015625 12.40625 
L 22.015625 4 
L 14.015625 -11.625 
L 7.71875 -11.625 
L 11.71875 4 
z
" id="DejaVuSans-44"/>
      <path id="DejaVuSans-32"/>
      <path d="M 41.109375 46.296875 
Q 39.59375 47.171875 37.8125 47.578125 
Q 36.03125 48 33.890625 48 
Q 26.265625 48 22.1875 43.046875 
Q 18.109375 38.09375 18.109375 28.8125 
L 18.109375 0 
L 9.078125 0 
L 9.078125 54.6875 
L 18.109375 54.6875 
L 18.109375 46.1875 
Q 20.953125 51.171875 25.484375 53.578125 
Q 30.03125 56 36.53125 56 
Q 37.453125 56 38.578125 55.875 
Q 39.703125 55.765625 41.0625 55.515625 
z
" id="DejaVuSans-114"/>
      <path d="M 9.078125 75.984375 
L 18.109375 75.984375 
L 18.109375 31.109375 
L 44.921875 54.6875 
L 56.390625 54.6875 
L 27.390625 29.109375 
L 57.625 0 
L 45.90625 0 
L 18.109375 26.703125 
L 18.109375 0 
L 9.078125 0 
z
" id="DejaVuSans-107"/>
     </defs>
     <use xlink:href="#DejaVuSans-109"/>
     <use x="97.412109" xlink:href="#DejaVuSans-111"/>
     <use x="158.59375" xlink:href="#DejaVuSans-100"/>
     <use x="222.070312" xlink:href="#DejaVuSans-101"/>
     <use x="283.59375" xlink:href="#DejaVuSans-108"/>
     <use x="311.376953" xlink:href="#DejaVuSans-116"/>
     <use x="350.585938" xlink:href="#DejaVuSans-121"/>
     <use x="409.765625" xlink:href="#DejaVuSans-112"/>
     <use x="473.242188" xlink:href="#DejaVuSans-101"/>
     <use x="534.765625" xlink:href="#DejaVuSans-61"/>
     <use x="618.554688" xlink:href="#DejaVuSans-98"/>
     <use x="682.03125" xlink:href="#DejaVuSans-97"/>
     <use x="743.310547" xlink:href="#DejaVuSans-115"/>
     <use x="795.410156" xlink:href="#DejaVuSans-101"/>
     <use x="856.933594" xlink:href="#DejaVuSans-44"/>
     <use x="888.720703" xlink:href="#DejaVuSans-32"/>
     <use x="920.507812" xlink:href="#DejaVuSans-108"/>
     <use x="948.291016" xlink:href="#DejaVuSans-97"/>
     <use x="1009.570312" xlink:href="#DejaVuSans-98"/>
     <use x="1073.046875" xlink:href="#DejaVuSans-111"/>
     <use x="1134.228516" xlink:href="#DejaVuSans-114"/>
     <use x="1173.591797" xlink:href="#DejaVuSans-109"/>
     <use x="1271.003906" xlink:href="#DejaVuSans-97"/>
     <use x="1332.283203" xlink:href="#DejaVuSans-114"/>
     <use x="1373.396484" xlink:href="#DejaVuSans-107"/>
     <use x="1427.681641" xlink:href="#DejaVuSans-101"/>
     <use x="1489.205078" xlink:href="#DejaVuSans-116"/>
     <use x="1528.414062" xlink:href="#DejaVuSans-61"/>
     <use x="1612.203125" xlink:href="#DejaVuSans-98"/>
     <use x="1675.679688" xlink:href="#DejaVuSans-105"/>
     <use x="1703.462891" xlink:href="#DejaVuSans-97"/>
     <use x="1764.742188" xlink:href="#DejaVuSans-115"/>
     <use x="1816.841797" xlink:href="#DejaVuSans-101"/>
     <use x="1878.365234" xlink:href="#DejaVuSans-100"/>
    </g>
   </g>
   <g id="legend_1">
    <g id="patch_5">
     <path d="M 70 187.24 
L 235.407813 187.24 
Q 237.407813 187.24 237.407813 185.24 
L 237.407813 112.57125 
Q 237.407813 110.57125 235.407813 110.57125 
L 70 110.57125 
Q 68 110.57125 68 112.57125 
L 68 185.24 
Q 68 187.24 70 187.24 
z
" style="fill:#ffffff;opacity:0.8;stroke:#cccccc;stroke-linejoin:miter;"/>
    </g>
    <g id="text_16">
     <!-- scenario -->
     <g transform="translate(131.536719 122.169687)scale(0.1 -0.1)">
      <defs>
       <path d="M 48.78125 52.59375 
L 48.78125 44.1875 
Q 44.96875 46.296875 41.140625 47.34375 
Q 37.3125 48.390625 33.40625 48.390625 
Q 24.65625 48.390625 19.8125 42.84375 
Q 14.984375 37.3125 14.984375 27.296875 
Q 14.984375 17.28125 19.8125 11.734375 
Q 24.65625 6.203125 33.40625 6.203125 
Q 37.3125 6.203125 41.140625 7.25 
Q 44.96875 8.296875 48.78125 10.40625 
L 48.78125 2.09375 
Q 45.015625 0.34375 40.984375 -0.53125 
Q 36.96875 -1.421875 32.421875 -1.421875 
Q 20.0625 -1.421875 12.78125 6.34375 
Q 5.515625 14.109375 5.515625 27.296875 
Q 5.515625 40.671875 12.859375 48.328125 
Q 20.21875 56 33.015625 56 
Q 37.15625 56 41.109375 55.140625 
Q 45.0625 54.296875 48.78125 52.59375 
z
" id="DejaVuSans-99"/>
       <path d="M 54.890625 33.015625 
L 54.890625 0 
L 45.90625 0 
L 45.90625 32.71875 
Q 45.90625 40.484375 42.875 44.328125 
Q 39.84375 48.1875 33.796875 48.1875 
Q 26.515625 48.1875 22.3125 43.546875 
Q 18.109375 38.921875 18.109375 30.90625 
L 18.109375 0 
L 9.078125 0 
L 9.078125 54.6875 
L 18.109375 54.6875 
L 18.109375 46.1875 
Q 21.34375 51.125 25.703125 53.5625 
Q 30.078125 56 35.796875 56 
Q 45.21875 56 50.046875 50.171875 
Q 54.890625 44.34375 54.890625 33.015625 
z
" id="DejaVuSans-110"/>
      </defs>
      <use xlink:href="#DejaVuSans-115"/>
      <use x="52.099609" xlink:href="#DejaVuSans-99"/>
      <use x="107.080078" xlink:href="#DejaVuSans-101"/>
      <use x="168.603516" xlink:href="#DejaVuSans-110"/>
      <use x="231.982422" xlink:href="#DejaVuSans-97"/>
      <use x="293.261719" xlink:href="#DejaVuSans-114"/>
      <use x="334.375" xlink:href="#DejaVuSans-105"/>
      <use x="362.158203" xlink:href="#DejaVuSans-111"/>
     </g>
    </g>
    <g id="line2d_21">
     <path d="M 72 133.347812 
L 92 133.347812 
" style="fill:none;stroke:#1f77b4;stroke-linecap:square;stroke-width:1.5;"/>
    </g>
    <g id="line2d_22"/>
    <g id="text_17">
     <!-- onlylow -->
     <g transform="translate(100 136.847812)scale(0.1 -0.1)">
      <defs>
       <path d="M 4.203125 54.6875 
L 13.1875 54.6875 
L 24.421875 12.015625 
L 35.59375 54.6875 
L 46.1875 54.6875 
L 57.421875 12.015625 
L 68.609375 54.6875 
L 77.59375 54.6875 
L 63.28125 0 
L 52.6875 0 
L 40.921875 44.828125 
L 29.109375 0 
L 18.5 0 
z
" id="DejaVuSans-119"/>
      </defs>
      <use xlink:href="#DejaVuSans-111"/>
      <use x="61.181641" xlink:href="#DejaVuSans-110"/>
      <use x="124.560547" xlink:href="#DejaVuSans-108"/>
      <use x="152.34375" xlink:href="#DejaVuSans-121"/>
      <use x="211.523438" xlink:href="#DejaVuSans-108"/>
      <use x="239.306641" xlink:href="#DejaVuSans-111"/>
      <use x="300.488281" xlink:href="#DejaVuSans-119"/>
     </g>
    </g>
    <g id="line2d_23">
     <path d="M 72 148.025937 
L 92 148.025937 
" style="fill:none;stroke:#ff7f0e;stroke-linecap:square;stroke-width:1.5;"/>
    </g>
    <g id="line2d_24"/>
    <g id="text_18">
     <!-- onlyhigh -->
     <g transform="translate(100 151.525937)scale(0.1 -0.1)">
      <defs>
       <path d="M 54.890625 33.015625 
L 54.890625 0 
L 45.90625 0 
L 45.90625 32.71875 
Q 45.90625 40.484375 42.875 44.328125 
Q 39.84375 48.1875 33.796875 48.1875 
Q 26.515625 48.1875 22.3125 43.546875 
Q 18.109375 38.921875 18.109375 30.90625 
L 18.109375 0 
L 9.078125 0 
L 9.078125 75.984375 
L 18.109375 75.984375 
L 18.109375 46.1875 
Q 21.34375 51.125 25.703125 53.5625 
Q 30.078125 56 35.796875 56 
Q 45.21875 56 50.046875 50.171875 
Q 54.890625 44.34375 54.890625 33.015625 
z
" id="DejaVuSans-104"/>
       <path d="M 45.40625 27.984375 
Q 45.40625 37.75 41.375 43.109375 
Q 37.359375 48.484375 30.078125 48.484375 
Q 22.859375 48.484375 18.828125 43.109375 
Q 14.796875 37.75 14.796875 27.984375 
Q 14.796875 18.265625 18.828125 12.890625 
Q 22.859375 7.515625 30.078125 7.515625 
Q 37.359375 7.515625 41.375 12.890625 
Q 45.40625 18.265625 45.40625 27.984375 
z
M 54.390625 6.78125 
Q 54.390625 -7.171875 48.1875 -13.984375 
Q 42 -20.796875 29.203125 -20.796875 
Q 24.46875 -20.796875 20.265625 -20.09375 
Q 16.0625 -19.390625 12.109375 -17.921875 
L 12.109375 -9.1875 
Q 16.0625 -11.328125 19.921875 -12.34375 
Q 23.78125 -13.375 27.78125 -13.375 
Q 36.625 -13.375 41.015625 -8.765625 
Q 45.40625 -4.15625 45.40625 5.171875 
L 45.40625 9.625 
Q 42.625 4.78125 38.28125 2.390625 
Q 33.9375 0 27.875 0 
Q 17.828125 0 11.671875 7.65625 
Q 5.515625 15.328125 5.515625 27.984375 
Q 5.515625 40.671875 11.671875 48.328125 
Q 17.828125 56 27.875 56 
Q 33.9375 56 38.28125 53.609375 
Q 42.625 51.21875 45.40625 46.390625 
L 45.40625 54.6875 
L 54.390625 54.6875 
z
" id="DejaVuSans-103"/>
      </defs>
      <use xlink:href="#DejaVuSans-111"/>
      <use x="61.181641" xlink:href="#DejaVuSans-110"/>
      <use x="124.560547" xlink:href="#DejaVuSans-108"/>
      <use x="152.34375" xlink:href="#DejaVuSans-121"/>
      <use x="211.523438" xlink:href="#DejaVuSans-104"/>
      <use x="274.902344" xlink:href="#DejaVuSans-105"/>
      <use x="302.685547" xlink:href="#DejaVuSans-103"/>
      <use x="366.162109" xlink:href="#DejaVuSans-104"/>
     </g>
    </g>
    <g id="line2d_25">
     <path d="M 72 162.704062 
L 92 162.704062 
" style="fill:none;stroke:#2ca02c;stroke-linecap:square;stroke-width:1.5;"/>
    </g>
    <g id="line2d_26"/>
    <g id="text_19">
     <!-- balanced -->
     <g transform="translate(100 166.204062)scale(0.1 -0.1)">
      <use xlink:href="#DejaVuSans-98"/>
      <use x="63.476562" xlink:href="#DejaVuSans-97"/>
      <use x="124.755859" xlink:href="#DejaVuSans-108"/>
      <use x="152.539062" xlink:href="#DejaVuSans-97"/>
      <use x="213.818359" xlink:href="#DejaVuSans-110"/>
      <use x="277.197266" xlink:href="#DejaVuSans-99"/>
      <use x="332.177734" xlink:href="#DejaVuSans-101"/>
      <use x="393.701172" xlink:href="#DejaVuSans-100"/>
     </g>
    </g>
    <g id="line2d_27">
     <path d="M 72 177.382187 
L 92 177.382187 
" style="fill:none;stroke:#d62728;stroke-linecap:square;stroke-width:1.5;"/>
    </g>
    <g id="line2d_28"/>
    <g id="text_20">
     <!-- balanced_errors_penalized -->
     <g transform="translate(100 180.882187)scale(0.1 -0.1)">
      <defs>
       <path d="M 50.984375 -16.609375 
L 50.984375 -23.578125 
L -0.984375 -23.578125 
L -0.984375 -16.609375 
z
" id="DejaVuSans-95"/>
       <path d="M 5.515625 54.6875 
L 48.1875 54.6875 
L 48.1875 46.484375 
L 14.40625 7.171875 
L 48.1875 7.171875 
L 48.1875 0 
L 4.296875 0 
L 4.296875 8.203125 
L 38.09375 47.515625 
L 5.515625 47.515625 
z
" id="DejaVuSans-122"/>
      </defs>
      <use xlink:href="#DejaVuSans-98"/>
      <use x="63.476562" xlink:href="#DejaVuSans-97"/>
      <use x="124.755859" xlink:href="#DejaVuSans-108"/>
      <use x="152.539062" xlink:href="#DejaVuSans-97"/>
      <use x="213.818359" xlink:href="#DejaVuSans-110"/>
      <use x="277.197266" xlink:href="#DejaVuSans-99"/>
      <use x="332.177734" xlink:href="#DejaVuSans-101"/>
      <use x="393.701172" xlink:href="#DejaVuSans-100"/>
      <use x="457.177734" xlink:href="#DejaVuSans-95"/>
      <use x="507.177734" xlink:href="#DejaVuSans-101"/>
      <use x="568.701172" xlink:href="#DejaVuSans-114"/>
      <use x="608.064453" xlink:href="#DejaVuSans-114"/>
      <use x="646.927734" xlink:href="#DejaVuSans-111"/>
      <use x="708.109375" xlink:href="#DejaVuSans-114"/>
      <use x="749.222656" xlink:href="#DejaVuSans-115"/>
      <use x="801.322266" xlink:href="#DejaVuSans-95"/>
      <use x="851.322266" xlink:href="#DejaVuSans-112"/>
      <use x="914.798828" xlink:href="#DejaVuSans-101"/>
      <use x="976.322266" xlink:href="#DejaVuSans-110"/>
      <use x="1039.701172" xlink:href="#DejaVuSans-97"/>
      <use x="1100.980469" xlink:href="#DejaVuSans-108"/>
      <use x="1128.763672" xlink:href="#DejaVuSans-105"/>
      <use x="1156.546875" xlink:href="#DejaVuSans-122"/>
      <use x="1209.037109" xlink:href="#DejaVuSans-101"/>
      <use x="1270.560547" xlink:href="#DejaVuSans-100"/>
     </g>
    </g>
   </g>
  </g>
 </g>
 <defs>
  <clipPath id="p1a987dac01">
   <rect height="166.32" width="390.6" x="63" y="25.92"/>
  </clipPath>
 </defs>
</svg>
