<?xml version="1.0" encoding="utf-8" standalone="no"?>
<!DOCTYPE svg PUBLIC "-//W3C//DTD SVG 1.1//EN"
  "http://www.w3.org/Graphics/SVG/1.1/DTD/svg11.dtd">
<!-- Created with matplotlib (https://matplotlib.org/) -->
<svg height="216pt" version="1.1" viewBox="0 0 504 216" width="504pt" xmlns="http://www.w3.org/2000/svg" xmlns:xlink="http://www.w3.org/1999/xlink">
 <metadata>
  <rdf:RDF xmlns:cc="http://creativecommons.org/ns#" xmlns:dc="http://purl.org/dc/elements/1.1/" xmlns:rdf="http://www.w3.org/1999/02/22-rdf-syntax-ns#">
   <cc:Work>
    <dc:type rdf:resource="http://purl.org/dc/dcmitype/StillImage"/>
    <dc:date>2022-01-19T13:51:29.830284</dc:date>
    <dc:format>image/svg+xml</dc:format>
    <dc:creator>
     <cc:Agent>
      <dc:title>Matplotlib v3.3.4, https://matplotlib.org/</dc:title>
     </cc:Agent>
    </dc:creator>
   </cc:Work>
  </rdf:RDF>
 </metadata>
 <defs>
  <style type="text/css">*{stroke-linecap:butt;stroke-linejoin:round;}</style>
 </defs>
 <g id="figure_1">
  <g id="patch_1">
   <path d="M 0 216 
L 504 216 
L 504 0 
L 0 0 
z
" style="fill:#ffffff;"/>
  </g>
  <g id="axes_1">
   <g id="patch_2">
    <path d="M 63 192.24 
L 453.6 192.24 
L 453.6 25.92 
L 63 25.92 
z
" style="fill:#ffffff;"/>
   </g>
   <g id="matplotlib.axis_1">
    <g id="xtick_1">
     <g id="line2d_1">
      <defs>
       <path d="M 0 0 
L 0 3.5 
" id="m12c8c8444a" style="stroke:#000000;stroke-width:0.8;"/>
      </defs>
      <g>
       <use style="stroke:#000000;stroke-width:0.8;" x="81.346364" xlink:href="#m12c8c8444a" y="192.24"/>
      </g>
     </g>
     <g id="text_1">
      <!-- 200 -->
      <g transform="translate(71.802614 206.838437)scale(0.1 -0.1)">
       <defs>
        <path d="M 19.1875 8.296875 
L 53.609375 8.296875 
L 53.609375 0 
L 7.328125 0 
L 7.328125 8.296875 
Q 12.9375 14.109375 22.625 23.890625 
Q 32.328125 33.6875 34.8125 36.53125 
Q 39.546875 41.84375 41.421875 45.53125 
Q 43.3125 49.21875 43.3125 52.78125 
Q 43.3125 58.59375 39.234375 62.25 
Q 35.15625 65.921875 28.609375 65.921875 
Q 23.96875 65.921875 18.8125 64.3125 
Q 13.671875 62.703125 7.8125 59.421875 
L 7.8125 69.390625 
Q 13.765625 71.78125 18.9375 73 
Q 24.125 74.21875 28.421875 74.21875 
Q 39.75 74.21875 46.484375 68.546875 
Q 53.21875 62.890625 53.21875 53.421875 
Q 53.21875 48.921875 51.53125 44.890625 
Q 49.859375 40.875 45.40625 35.40625 
Q 44.1875 33.984375 37.640625 27.21875 
Q 31.109375 20.453125 19.1875 8.296875 
z
" id="DejaVuSans-50"/>
        <path d="M 31.78125 66.40625 
Q 24.171875 66.40625 20.328125 58.90625 
Q 16.5 51.421875 16.5 36.375 
Q 16.5 21.390625 20.328125 13.890625 
Q 24.171875 6.390625 31.78125 6.390625 
Q 39.453125 6.390625 43.28125 13.890625 
Q 47.125 21.390625 47.125 36.375 
Q 47.125 51.421875 43.28125 58.90625 
Q 39.453125 66.40625 31.78125 66.40625 
z
M 31.78125 74.21875 
Q 44.046875 74.21875 50.515625 64.515625 
Q 56.984375 54.828125 56.984375 36.375 
Q 56.984375 17.96875 50.515625 8.265625 
Q 44.046875 -1.421875 31.78125 -1.421875 
Q 19.53125 -1.421875 13.0625 8.265625 
Q 6.59375 17.96875 6.59375 36.375 
Q 6.59375 54.828125 13.0625 64.515625 
Q 19.53125 74.21875 31.78125 74.21875 
z
" id="DejaVuSans-48"/>
       </defs>
       <use xlink:href="#DejaVuSans-50"/>
       <use x="63.623047" xlink:href="#DejaVuSans-48"/>
       <use x="127.246094" xlink:href="#DejaVuSans-48"/>
      </g>
     </g>
    </g>
    <g id="xtick_2">
     <g id="line2d_2">
      <g>
       <use style="stroke:#000000;stroke-width:0.8;" x="140.528182" xlink:href="#m12c8c8444a" y="192.24"/>
      </g>
     </g>
     <g id="text_2">
      <!-- 300 -->
      <g transform="translate(130.984432 206.838437)scale(0.1 -0.1)">
       <defs>
        <path d="M 40.578125 39.3125 
Q 47.65625 37.796875 51.625 33 
Q 55.609375 28.21875 55.609375 21.1875 
Q 55.609375 10.40625 48.1875 4.484375 
Q 40.765625 -1.421875 27.09375 -1.421875 
Q 22.515625 -1.421875 17.65625 -0.515625 
Q 12.796875 0.390625 7.625 2.203125 
L 7.625 11.71875 
Q 11.71875 9.328125 16.59375 8.109375 
Q 21.484375 6.890625 26.8125 6.890625 
Q 36.078125 6.890625 40.9375 10.546875 
Q 45.796875 14.203125 45.796875 21.1875 
Q 45.796875 27.640625 41.28125 31.265625 
Q 36.765625 34.90625 28.71875 34.90625 
L 20.21875 34.90625 
L 20.21875 43.015625 
L 29.109375 43.015625 
Q 36.375 43.015625 40.234375 45.921875 
Q 44.09375 48.828125 44.09375 54.296875 
Q 44.09375 59.90625 40.109375 62.90625 
Q 36.140625 65.921875 28.71875 65.921875 
Q 24.65625 65.921875 20.015625 65.03125 
Q 15.375 64.15625 9.8125 62.3125 
L 9.8125 71.09375 
Q 15.4375 72.65625 20.34375 73.4375 
Q 25.25 74.21875 29.59375 74.21875 
Q 40.828125 74.21875 47.359375 69.109375 
Q 53.90625 64.015625 53.90625 55.328125 
Q 53.90625 49.265625 50.4375 45.09375 
Q 46.96875 40.921875 40.578125 39.3125 
z
" id="DejaVuSans-51"/>
       </defs>
       <use xlink:href="#DejaVuSans-51"/>
       <use x="63.623047" xlink:href="#DejaVuSans-48"/>
       <use x="127.246094" xlink:href="#DejaVuSans-48"/>
      </g>
     </g>
    </g>
    <g id="xtick_3">
     <g id="line2d_3">
      <g>
       <use style="stroke:#000000;stroke-width:0.8;" x="199.71" xlink:href="#m12c8c8444a" y="192.24"/>
      </g>
     </g>
     <g id="text_3">
      <!-- 400 -->
      <g transform="translate(190.16625 206.838437)scale(0.1 -0.1)">
       <defs>
        <path d="M 37.796875 64.3125 
L 12.890625 25.390625 
L 37.796875 25.390625 
z
M 35.203125 72.90625 
L 47.609375 72.90625 
L 47.609375 25.390625 
L 58.015625 25.390625 
L 58.015625 17.1875 
L 47.609375 17.1875 
L 47.609375 0 
L 37.796875 0 
L 37.796875 17.1875 
L 4.890625 17.1875 
L 4.890625 26.703125 
z
" id="DejaVuSans-52"/>
       </defs>
       <use xlink:href="#DejaVuSans-52"/>
       <use x="63.623047" xlink:href="#DejaVuSans-48"/>
       <use x="127.246094" xlink:href="#DejaVuSans-48"/>
      </g>
     </g>
    </g>
    <g id="xtick_4">
     <g id="line2d_4">
      <g>
       <use style="stroke:#000000;stroke-width:0.8;" x="258.891818" xlink:href="#m12c8c8444a" y="192.24"/>
      </g>
     </g>
     <g id="text_4">
      <!-- 500 -->
      <g transform="translate(249.348068 206.838437)scale(0.1 -0.1)">
       <defs>
        <path d="M 10.796875 72.90625 
L 49.515625 72.90625 
L 49.515625 64.59375 
L 19.828125 64.59375 
L 19.828125 46.734375 
Q 21.96875 47.46875 24.109375 47.828125 
Q 26.265625 48.1875 28.421875 48.1875 
Q 40.625 48.1875 47.75 41.5 
Q 54.890625 34.8125 54.890625 23.390625 
Q 54.890625 11.625 47.5625 5.09375 
Q 40.234375 -1.421875 26.90625 -1.421875 
Q 22.3125 -1.421875 17.546875 -0.640625 
Q 12.796875 0.140625 7.71875 1.703125 
L 7.71875 11.625 
Q 12.109375 9.234375 16.796875 8.0625 
Q 21.484375 6.890625 26.703125 6.890625 
Q 35.15625 6.890625 40.078125 11.328125 
Q 45.015625 15.765625 45.015625 23.390625 
Q 45.015625 31 40.078125 35.4375 
Q 35.15625 39.890625 26.703125 39.890625 
Q 22.75 39.890625 18.8125 39.015625 
Q 14.890625 38.140625 10.796875 36.28125 
z
" id="DejaVuSans-53"/>
       </defs>
       <use xlink:href="#DejaVuSans-53"/>
       <use x="63.623047" xlink:href="#DejaVuSans-48"/>
       <use x="127.246094" xlink:href="#DejaVuSans-48"/>
      </g>
     </g>
    </g>
    <g id="xtick_5">
     <g id="line2d_5">
      <g>
       <use style="stroke:#000000;stroke-width:0.8;" x="318.073636" xlink:href="#m12c8c8444a" y="192.24"/>
      </g>
     </g>
     <g id="text_5">
      <!-- 600 -->
      <g transform="translate(308.529886 206.838437)scale(0.1 -0.1)">
       <defs>
        <path d="M 33.015625 40.375 
Q 26.375 40.375 22.484375 35.828125 
Q 18.609375 31.296875 18.609375 23.390625 
Q 18.609375 15.53125 22.484375 10.953125 
Q 26.375 6.390625 33.015625 6.390625 
Q 39.65625 6.390625 43.53125 10.953125 
Q 47.40625 15.53125 47.40625 23.390625 
Q 47.40625 31.296875 43.53125 35.828125 
Q 39.65625 40.375 33.015625 40.375 
z
M 52.59375 71.296875 
L 52.59375 62.3125 
Q 48.875 64.0625 45.09375 64.984375 
Q 41.3125 65.921875 37.59375 65.921875 
Q 27.828125 65.921875 22.671875 59.328125 
Q 17.53125 52.734375 16.796875 39.40625 
Q 19.671875 43.65625 24.015625 45.921875 
Q 28.375 48.1875 33.59375 48.1875 
Q 44.578125 48.1875 50.953125 41.515625 
Q 57.328125 34.859375 57.328125 23.390625 
Q 57.328125 12.15625 50.6875 5.359375 
Q 44.046875 -1.421875 33.015625 -1.421875 
Q 20.359375 -1.421875 13.671875 8.265625 
Q 6.984375 17.96875 6.984375 36.375 
Q 6.984375 53.65625 15.1875 63.9375 
Q 23.390625 74.21875 37.203125 74.21875 
Q 40.921875 74.21875 44.703125 73.484375 
Q 48.484375 72.75 52.59375 71.296875 
z
" id="DejaVuSans-54"/>
       </defs>
       <use xlink:href="#DejaVuSans-54"/>
       <use x="63.623047" xlink:href="#DejaVuSans-48"/>
       <use x="127.246094" xlink:href="#DejaVuSans-48"/>
      </g>
     </g>
    </g>
    <g id="xtick_6">
     <g id="line2d_6">
      <g>
       <use style="stroke:#000000;stroke-width:0.8;" x="377.255455" xlink:href="#m12c8c8444a" y="192.24"/>
      </g>
     </g>
     <g id="text_6">
      <!-- 700 -->
      <g transform="translate(367.711705 206.838437)scale(0.1 -0.1)">
       <defs>
        <path d="M 8.203125 72.90625 
L 55.078125 72.90625 
L 55.078125 68.703125 
L 28.609375 0 
L 18.3125 0 
L 43.21875 64.59375 
L 8.203125 64.59375 
z
" id="DejaVuSans-55"/>
       </defs>
       <use xlink:href="#DejaVuSans-55"/>
       <use x="63.623047" xlink:href="#DejaVuSans-48"/>
       <use x="127.246094" xlink:href="#DejaVuSans-48"/>
      </g>
     </g>
    </g>
    <g id="xtick_7">
     <g id="line2d_7">
      <g>
       <use style="stroke:#000000;stroke-width:0.8;" x="436.437273" xlink:href="#m12c8c8444a" y="192.24"/>
      </g>
     </g>
     <g id="text_7">
      <!-- 800 -->
      <g transform="translate(426.893523 206.838437)scale(0.1 -0.1)">
       <defs>
        <path d="M 31.78125 34.625 
Q 24.75 34.625 20.71875 30.859375 
Q 16.703125 27.09375 16.703125 20.515625 
Q 16.703125 13.921875 20.71875 10.15625 
Q 24.75 6.390625 31.78125 6.390625 
Q 38.8125 6.390625 42.859375 10.171875 
Q 46.921875 13.96875 46.921875 20.515625 
Q 46.921875 27.09375 42.890625 30.859375 
Q 38.875 34.625 31.78125 34.625 
z
M 21.921875 38.8125 
Q 15.578125 40.375 12.03125 44.71875 
Q 8.5 49.078125 8.5 55.328125 
Q 8.5 64.0625 14.71875 69.140625 
Q 20.953125 74.21875 31.78125 74.21875 
Q 42.671875 74.21875 48.875 69.140625 
Q 55.078125 64.0625 55.078125 55.328125 
Q 55.078125 49.078125 51.53125 44.71875 
Q 48 40.375 41.703125 38.8125 
Q 48.828125 37.15625 52.796875 32.3125 
Q 56.78125 27.484375 56.78125 20.515625 
Q 56.78125 9.90625 50.3125 4.234375 
Q 43.84375 -1.421875 31.78125 -1.421875 
Q 19.734375 -1.421875 13.25 4.234375 
Q 6.78125 9.90625 6.78125 20.515625 
Q 6.78125 27.484375 10.78125 32.3125 
Q 14.796875 37.15625 21.921875 38.8125 
z
M 18.3125 54.390625 
Q 18.3125 48.734375 21.84375 45.5625 
Q 25.390625 42.390625 31.78125 42.390625 
Q 38.140625 42.390625 41.71875 45.5625 
Q 45.3125 48.734375 45.3125 54.390625 
Q 45.3125 60.0625 41.71875 63.234375 
Q 38.140625 66.40625 31.78125 66.40625 
Q 25.390625 66.40625 21.84375 63.234375 
Q 18.3125 60.0625 18.3125 54.390625 
z
" id="DejaVuSans-56"/>
       </defs>
       <use xlink:href="#DejaVuSans-56"/>
       <use x="63.623047" xlink:href="#DejaVuSans-48"/>
       <use x="127.246094" xlink:href="#DejaVuSans-48"/>
      </g>
     </g>
    </g>
    <g id="text_8">
     <!-- time -->
     <g transform="translate(247.003906 220.516562)scale(0.1 -0.1)">
      <defs>
       <path d="M 18.3125 70.21875 
L 18.3125 54.6875 
L 36.8125 54.6875 
L 36.8125 47.703125 
L 18.3125 47.703125 
L 18.3125 18.015625 
Q 18.3125 11.328125 20.140625 9.421875 
Q 21.96875 7.515625 27.59375 7.515625 
L 36.8125 7.515625 
L 36.8125 0 
L 27.59375 0 
Q 17.1875 0 13.234375 3.875 
Q 9.28125 7.765625 9.28125 18.015625 
L 9.28125 47.703125 
L 2.6875 47.703125 
L 2.6875 54.6875 
L 9.28125 54.6875 
L 9.28125 70.21875 
z
" id="DejaVuSans-116"/>
       <path d="M 9.421875 54.6875 
L 18.40625 54.6875 
L 18.40625 0 
L 9.421875 0 
z
M 9.421875 75.984375 
L 18.40625 75.984375 
L 18.40625 64.59375 
L 9.421875 64.59375 
z
" id="DejaVuSans-105"/>
       <path d="M 52 44.1875 
Q 55.375 50.25 60.0625 53.125 
Q 64.75 56 71.09375 56 
Q 79.640625 56 84.28125 50.015625 
Q 88.921875 44.046875 88.921875 33.015625 
L 88.921875 0 
L 79.890625 0 
L 79.890625 32.71875 
Q 79.890625 40.578125 77.09375 44.375 
Q 74.3125 48.1875 68.609375 48.1875 
Q 61.625 48.1875 57.5625 43.546875 
Q 53.515625 38.921875 53.515625 30.90625 
L 53.515625 0 
L 44.484375 0 
L 44.484375 32.71875 
Q 44.484375 40.625 41.703125 44.40625 
Q 38.921875 48.1875 33.109375 48.1875 
Q 26.21875 48.1875 22.15625 43.53125 
Q 18.109375 38.875 18.109375 30.90625 
L 18.109375 0 
L 9.078125 0 
L 9.078125 54.6875 
L 18.109375 54.6875 
L 18.109375 46.1875 
Q 21.1875 51.21875 25.484375 53.609375 
Q 29.78125 56 35.6875 56 
Q 41.65625 56 45.828125 52.96875 
Q 50 49.953125 52 44.1875 
z
" id="DejaVuSans-109"/>
       <path d="M 56.203125 29.59375 
L 56.203125 25.203125 
L 14.890625 25.203125 
Q 15.484375 15.921875 20.484375 11.0625 
Q 25.484375 6.203125 34.421875 6.203125 
Q 39.59375 6.203125 44.453125 7.46875 
Q 49.3125 8.734375 54.109375 11.28125 
L 54.109375 2.78125 
Q 49.265625 0.734375 44.1875 -0.34375 
Q 39.109375 -1.421875 33.890625 -1.421875 
Q 20.796875 -1.421875 13.15625 6.1875 
Q 5.515625 13.8125 5.515625 26.8125 
Q 5.515625 40.234375 12.765625 48.109375 
Q 20.015625 56 32.328125 56 
Q 43.359375 56 49.78125 48.890625 
Q 56.203125 41.796875 56.203125 29.59375 
z
M 47.21875 32.234375 
Q 47.125 39.59375 43.09375 43.984375 
Q 39.0625 48.390625 32.421875 48.390625 
Q 24.90625 48.390625 20.390625 44.140625 
Q 15.875 39.890625 15.1875 32.171875 
z
" id="DejaVuSans-101"/>
      </defs>
      <use xlink:href="#DejaVuSans-116"/>
      <use x="39.208984" xlink:href="#DejaVuSans-105"/>
      <use x="66.992188" xlink:href="#DejaVuSans-109"/>
      <use x="164.404297" xlink:href="#DejaVuSans-101"/>
     </g>
    </g>
   </g>
   <g id="matplotlib.axis_2">
    <g id="ytick_1">
     <g id="line2d_8">
      <defs>
       <path d="M 0 0 
L -3.5 0 
" id="m1fd0b5e127" style="stroke:#000000;stroke-width:0.8;"/>
      </defs>
      <g>
       <use style="stroke:#000000;stroke-width:0.8;" x="63" xlink:href="#m1fd0b5e127" y="192.24"/>
      </g>
     </g>
     <g id="text_9">
      <!-- 0.0 -->
      <g transform="translate(40.096875 196.039219)scale(0.1 -0.1)">
       <defs>
        <path d="M 10.6875 12.40625 
L 21 12.40625 
L 21 0 
L 10.6875 0 
z
" id="DejaVuSans-46"/>
       </defs>
       <use xlink:href="#DejaVuSans-48"/>
       <use x="63.623047" xlink:href="#DejaVuSans-46"/>
       <use x="95.410156" xlink:href="#DejaVuSans-48"/>
      </g>
     </g>
    </g>
    <g id="ytick_2">
     <g id="line2d_9">
      <g>
       <use style="stroke:#000000;stroke-width:0.8;" x="63" xlink:href="#m1fd0b5e127" y="155.28"/>
      </g>
     </g>
     <g id="text_10">
      <!-- 0.1 -->
      <g transform="translate(40.096875 159.079219)scale(0.1 -0.1)">
       <defs>
        <path d="M 12.40625 8.296875 
L 28.515625 8.296875 
L 28.515625 63.921875 
L 10.984375 60.40625 
L 10.984375 69.390625 
L 28.421875 72.90625 
L 38.28125 72.90625 
L 38.28125 8.296875 
L 54.390625 8.296875 
L 54.390625 0 
L 12.40625 0 
z
" id="DejaVuSans-49"/>
       </defs>
       <use xlink:href="#DejaVuSans-48"/>
       <use x="63.623047" xlink:href="#DejaVuSans-46"/>
       <use x="95.410156" xlink:href="#DejaVuSans-49"/>
      </g>
     </g>
    </g>
    <g id="ytick_3">
     <g id="line2d_10">
      <g>
       <use style="stroke:#000000;stroke-width:0.8;" x="63" xlink:href="#m1fd0b5e127" y="118.32"/>
      </g>
     </g>
     <g id="text_11">
      <!-- 0.2 -->
      <g transform="translate(40.096875 122.119219)scale(0.1 -0.1)">
       <use xlink:href="#DejaVuSans-48"/>
       <use x="63.623047" xlink:href="#DejaVuSans-46"/>
       <use x="95.410156" xlink:href="#DejaVuSans-50"/>
      </g>
     </g>
    </g>
    <g id="ytick_4">
     <g id="line2d_11">
      <g>
       <use style="stroke:#000000;stroke-width:0.8;" x="63" xlink:href="#m1fd0b5e127" y="81.36"/>
      </g>
     </g>
     <g id="text_12">
      <!-- 0.3 -->
      <g transform="translate(40.096875 85.159219)scale(0.1 -0.1)">
       <use xlink:href="#DejaVuSans-48"/>
       <use x="63.623047" xlink:href="#DejaVuSans-46"/>
       <use x="95.410156" xlink:href="#DejaVuSans-51"/>
      </g>
     </g>
    </g>
    <g id="ytick_5">
     <g id="line2d_12">
      <g>
       <use style="stroke:#000000;stroke-width:0.8;" x="63" xlink:href="#m1fd0b5e127" y="44.4"/>
      </g>
     </g>
     <g id="text_13">
      <!-- 0.4 -->
      <g transform="translate(40.096875 48.199219)scale(0.1 -0.1)">
       <use xlink:href="#DejaVuSans-48"/>
       <use x="63.623047" xlink:href="#DejaVuSans-46"/>
       <use x="95.410156" xlink:href="#DejaVuSans-52"/>
      </g>
     </g>
    </g>
    <g id="text_14">
     <!-- BGSD -->
     <g transform="translate(34.017187 123.321406)rotate(-90)scale(0.1 -0.1)">
      <defs>
       <path d="M 19.671875 34.8125 
L 19.671875 8.109375 
L 35.5 8.109375 
Q 43.453125 8.109375 47.28125 11.40625 
Q 51.125 14.703125 51.125 21.484375 
Q 51.125 28.328125 47.28125 31.5625 
Q 43.453125 34.8125 35.5 34.8125 
z
M 19.671875 64.796875 
L 19.671875 42.828125 
L 34.28125 42.828125 
Q 41.5 42.828125 45.03125 45.53125 
Q 48.578125 48.25 48.578125 53.8125 
Q 48.578125 59.328125 45.03125 62.0625 
Q 41.5 64.796875 34.28125 64.796875 
z
M 9.8125 72.90625 
L 35.015625 72.90625 
Q 46.296875 72.90625 52.390625 68.21875 
Q 58.5 63.53125 58.5 54.890625 
Q 58.5 48.1875 55.375 44.234375 
Q 52.25 40.28125 46.1875 39.3125 
Q 53.46875 37.75 57.5 32.78125 
Q 61.53125 27.828125 61.53125 20.40625 
Q 61.53125 10.640625 54.890625 5.3125 
Q 48.25 0 35.984375 0 
L 9.8125 0 
z
" id="DejaVuSans-66"/>
       <path d="M 59.515625 10.40625 
L 59.515625 29.984375 
L 43.40625 29.984375 
L 43.40625 38.09375 
L 69.28125 38.09375 
L 69.28125 6.78125 
Q 63.578125 2.734375 56.6875 0.65625 
Q 49.8125 -1.421875 42 -1.421875 
Q 24.90625 -1.421875 15.25 8.5625 
Q 5.609375 18.5625 5.609375 36.375 
Q 5.609375 54.25 15.25 64.234375 
Q 24.90625 74.21875 42 74.21875 
Q 49.125 74.21875 55.546875 72.453125 
Q 61.96875 70.703125 67.390625 67.28125 
L 67.390625 56.78125 
Q 61.921875 61.421875 55.765625 63.765625 
Q 49.609375 66.109375 42.828125 66.109375 
Q 29.4375 66.109375 22.71875 58.640625 
Q 16.015625 51.171875 16.015625 36.375 
Q 16.015625 21.625 22.71875 14.15625 
Q 29.4375 6.6875 42.828125 6.6875 
Q 48.046875 6.6875 52.140625 7.59375 
Q 56.25 8.5 59.515625 10.40625 
z
" id="DejaVuSans-71"/>
       <path d="M 53.515625 70.515625 
L 53.515625 60.890625 
Q 47.90625 63.578125 42.921875 64.890625 
Q 37.9375 66.21875 33.296875 66.21875 
Q 25.25 66.21875 20.875 63.09375 
Q 16.5 59.96875 16.5 54.203125 
Q 16.5 49.359375 19.40625 46.890625 
Q 22.3125 44.4375 30.421875 42.921875 
L 36.375 41.703125 
Q 47.40625 39.59375 52.65625 34.296875 
Q 57.90625 29 57.90625 20.125 
Q 57.90625 9.515625 50.796875 4.046875 
Q 43.703125 -1.421875 29.984375 -1.421875 
Q 24.8125 -1.421875 18.96875 -0.25 
Q 13.140625 0.921875 6.890625 3.21875 
L 6.890625 13.375 
Q 12.890625 10.015625 18.65625 8.296875 
Q 24.421875 6.59375 29.984375 6.59375 
Q 38.421875 6.59375 43.015625 9.90625 
Q 47.609375 13.234375 47.609375 19.390625 
Q 47.609375 24.75 44.3125 27.78125 
Q 41.015625 30.8125 33.5 32.328125 
L 27.484375 33.5 
Q 16.453125 35.6875 11.515625 40.375 
Q 6.59375 45.0625 6.59375 53.421875 
Q 6.59375 63.09375 13.40625 68.65625 
Q 20.21875 74.21875 32.171875 74.21875 
Q 37.3125 74.21875 42.625 73.28125 
Q 47.953125 72.359375 53.515625 70.515625 
z
" id="DejaVuSans-83"/>
       <path d="M 19.671875 64.796875 
L 19.671875 8.109375 
L 31.59375 8.109375 
Q 46.6875 8.109375 53.6875 14.9375 
Q 60.6875 21.78125 60.6875 36.53125 
Q 60.6875 51.171875 53.6875 57.984375 
Q 46.6875 64.796875 31.59375 64.796875 
z
M 9.8125 72.90625 
L 30.078125 72.90625 
Q 51.265625 72.90625 61.171875 64.09375 
Q 71.09375 55.28125 71.09375 36.53125 
Q 71.09375 17.671875 61.125 8.828125 
Q 51.171875 0 30.078125 0 
L 9.8125 0 
z
" id="DejaVuSans-68"/>
      </defs>
      <use xlink:href="#DejaVuSans-66"/>
      <use x="66.853516" xlink:href="#DejaVuSans-71"/>
      <use x="144.34375" xlink:href="#DejaVuSans-83"/>
      <use x="207.820312" xlink:href="#DejaVuSans-68"/>
     </g>
    </g>
   </g>
   <g id="line2d_13">
    <path clip-path="url(#pf53e5c61cf)" d="M 80.754545 52.144868 
L 81.346364 67.457381 
L 81.938182 53.439845 
L 82.53 49.719809 
L 83.121818 38.883163 
L 83.713636 36.25773 
L 84.305455 40.971547 
L 84.897273 47.22275 
L 85.489091 49.454797 
L 86.080909 54.075364 
L 86.672727 46.321487 
L 87.264545 48.653052 
L 87.856364 50.148965 
L 88.448182 51.059023 
L 89.04 58.106316 
L 89.631818 52.85574 
L 90.223636 60.484536 
L 90.815455 56.992221 
L 91.407273 50.802331 
L 91.999091 56.33231 
L 92.590909 56.334008 
L 93.182727 52.027956 
L 94.366364 63.919425 
L 94.958182 57.532414 
L 95.55 62.435553 
L 96.141818 54.391933 
L 96.733636 58.618082 
L 97.325455 58.56431 
L 97.917273 64.258329 
L 98.509091 48.901784 
L 99.692727 62.993162 
L 100.284545 55.808417 
L 100.876364 61.435699 
L 101.468182 58.340129 
L 102.06 62.663561 
L 102.651818 65.540177 
L 103.243636 60.877944 
L 103.835455 61.783752 
L 104.427273 53.880858 
L 105.019091 54.25345 
L 105.610909 56.699585 
L 106.202727 66.399967 
L 107.386364 45.328361 
L 107.978182 53.910572 
L 108.57 58.65612 
L 109.161818 66.095197 
L 109.753636 60.409499 
L 110.345455 56.599772 
L 110.937273 64.275353 
L 111.529091 56.107446 
L 112.120909 61.873779 
L 112.712727 59.044715 
L 113.304545 66.074519 
L 113.896364 57.849632 
L 114.488182 51.33622 
L 115.08 56.425621 
L 115.671818 60.192611 
L 116.263636 66.82873 
L 116.855455 59.355634 
L 117.447273 56.274473 
L 118.039091 61.009148 
L 118.630909 56.019731 
L 119.222727 55.634672 
L 119.814545 60.50807 
L 120.406364 62.727552 
L 120.998182 58.967156 
L 121.59 61.286422 
L 122.773636 47.63738 
L 123.957273 64.865707 
L 124.549091 61.213889 
L 125.140909 67.191153 
L 125.732727 59.802472 
L 126.324545 57.058223 
L 126.916364 65.068233 
L 127.508182 70.423682 
L 128.1 71.717745 
L 128.691818 61.455044 
L 129.283636 61.004688 
L 129.875455 55.71189 
L 130.467273 48.907634 
L 131.059091 61.680191 
L 131.650909 57.348561 
L 132.242727 56.405698 
L 132.834545 60.32245 
L 133.426364 60.438551 
L 134.018182 64.658125 
L 134.61 73.943744 
L 135.201818 73.807051 
L 135.793636 52.621472 
L 136.385455 69.573728 
L 136.977273 74.748837 
L 137.569091 71.428449 
L 138.160909 65.094937 
L 138.752727 64.988402 
L 139.344545 69.088978 
L 139.936364 63.201922 
L 140.528182 49.989625 
L 141.12 57.033166 
L 141.711818 59.616739 
L 142.303636 52.596497 
L 142.895455 57.205815 
L 143.487273 54.350294 
L 144.079091 60.918727 
L 144.670909 53.062724 
L 145.262727 59.094485 
L 145.854545 59.211546 
L 146.446364 53.351422 
L 147.038182 54.235017 
L 147.63 51.688849 
L 148.813636 53.888718 
L 149.405455 57.55304 
L 149.997273 51.325705 
L 150.589091 47.250394 
L 151.180909 51.918866 
L 151.772727 64.394977 
L 152.364545 59.056032 
L 152.956364 61.909336 
L 153.548182 65.606724 
L 154.14 63.852021 
L 154.731818 62.506517 
L 155.323636 66.649795 
L 155.915455 65.471324 
L 156.507273 62.309094 
L 157.099091 67.746061 
L 158.282727 55.490503 
L 158.874545 51.045171 
L 159.466364 54.241172 
L 160.058182 59.044387 
L 160.65 49.494421 
L 161.241818 49.761644 
L 161.833636 58.681226 
L 163.017273 60.020005 
L 163.609091 67.318107 
L 164.200909 59.392378 
L 164.792727 64.853514 
L 165.384545 63.769992 
L 165.976364 62.400353 
L 166.568182 59.538155 
L 167.16 62.334338 
L 168.343636 58.900052 
L 168.935455 54.37594 
L 169.527273 65.235423 
L 170.119091 52.964344 
L 170.710909 63.330227 
L 171.302727 58.936963 
L 171.894545 57.570228 
L 172.486364 57.637362 
L 173.078182 61.400322 
L 173.67 68.792327 
L 174.261818 68.334355 
L 174.853636 66.55769 
L 175.445455 69.811169 
L 176.037273 66.237854 
L 176.629091 73.52892 
L 177.220909 62.494703 
L 177.812727 67.665433 
L 178.404545 65.100689 
L 178.996364 64.458566 
L 180.771818 70.941803 
L 181.363636 68.145368 
L 181.955455 71.833529 
L 182.547273 52.802687 
L 183.139091 59.434476 
L 183.730909 54.677878 
L 184.322727 66.489889 
L 184.914545 65.661128 
L 185.506364 56.369561 
L 186.098182 64.284101 
L 186.69 69.693558 
L 187.281818 73.936439 
L 187.873636 62.221927 
L 188.465455 57.611431 
L 189.057273 54.487348 
L 189.649091 61.634561 
L 190.240909 56.259298 
L 190.832727 55.131907 
L 191.424545 58.414402 
L 192.016364 57.720053 
L 192.608182 50.800346 
L 193.2 69.532085 
L 193.791818 65.064039 
L 194.383636 52.390478 
L 194.975455 63.682227 
L 195.567273 53.409843 
L 196.159091 56.123813 
L 196.750909 55.13821 
L 197.342727 52.680792 
L 197.934545 58.119354 
L 198.526364 50.268548 
L 199.118182 60.154972 
L 199.71 55.865637 
L 200.301818 75.656985 
L 200.893636 85.186462 
L 201.485455 100.166844 
L 202.077273 106.116864 
L 202.669091 109.557229 
L 203.260909 103.157148 
L 203.852727 109.130432 
L 204.444545 59.65698 
L 205.036364 82.578249 
L 205.628182 86.754484 
L 206.22 106.641696 
L 206.811818 112.02597 
L 207.403636 112.225225 
L 207.995455 125.155553 
L 208.587273 63.413725 
L 209.179091 84.701697 
L 210.362727 116.534986 
L 210.954545 132.228716 
L 211.546364 128.955857 
L 212.138182 135.278668 
L 212.73 64.30263 
L 213.321818 97.908008 
L 213.913636 116.479903 
L 214.505455 123.581565 
L 215.097273 117.982272 
L 215.689091 132.110898 
L 216.280909 134.764529 
L 216.872727 73.6656 
L 217.464545 97.612151 
L 218.056364 111.305265 
L 218.648182 114.810293 
L 219.24 128.542684 
L 219.831818 124.579337 
L 220.423636 128.362151 
L 221.015455 73.780854 
L 222.199091 133.740961 
L 222.790909 143.894856 
L 223.382727 151.220057 
L 223.974545 156.628057 
L 224.566364 143.480027 
L 225.158182 78.261325 
L 226.341818 125.336022 
L 226.933636 135.48387 
L 227.525455 135.285044 
L 228.709091 149.791174 
L 229.300909 93.146322 
L 229.892727 113.578678 
L 231.076364 137.930188 
L 231.668182 142.312461 
L 232.26 156.686426 
L 232.851818 155.002283 
L 233.443636 80.396294 
L 234.035455 117.946098 
L 234.627273 131.393979 
L 235.219091 131.734726 
L 235.810909 144.134072 
L 236.402727 142.263922 
L 236.994545 148.153123 
L 237.586364 88.507667 
L 238.77 127.172471 
L 239.361818 135.178123 
L 239.953636 135.678406 
L 240.545455 152.231404 
L 241.137273 142.85929 
L 241.729091 80.613246 
L 242.320909 111.150579 
L 242.912727 120.19929 
L 243.504545 122.505395 
L 244.096364 132.818484 
L 244.688182 137.084611 
L 245.28 148.749646 
L 245.871818 81.570443 
L 246.463636 109.598109 
L 247.055455 126.375929 
L 247.647273 128.72873 
L 248.239091 135.712613 
L 248.830909 137.138631 
L 249.422727 135.158105 
L 250.014545 76.662525 
L 250.606364 105.063943 
L 251.198182 121.341477 
L 251.79 134.197336 
L 252.381818 142.195917 
L 252.973636 139.271061 
L 253.565455 140.682337 
L 254.157273 92.767468 
L 254.749091 110.659718 
L 255.932727 136.377166 
L 256.524545 127.117214 
L 257.116364 135.193036 
L 257.708182 141.181505 
L 258.3 88.472349 
L 258.891818 120.547627 
L 259.483636 137.597062 
L 260.075455 144.147196 
L 260.667273 142.188835 
L 261.259091 149.968887 
L 261.850909 145.279291 
L 262.442727 95.868414 
L 263.034545 123.258612 
L 263.626364 139.187585 
L 264.218182 139.589798 
L 264.81 138.028084 
L 265.401818 153.815485 
L 265.993636 138.411093 
L 266.585455 98.313433 
L 267.769091 142.281862 
L 268.360909 141.38804 
L 268.952727 149.15747 
L 269.544545 146.597331 
L 270.136364 146.488409 
L 270.728182 113.226569 
L 271.32 123.881374 
L 271.911818 139.673312 
L 272.503636 130.168591 
L 273.095455 133.63902 
L 273.687273 141.852227 
L 274.279091 141.275777 
L 274.870909 151.723361 
L 275.462727 137.710532 
L 276.054545 137.802695 
L 276.646364 138.429103 
L 277.238182 145.722262 
L 277.83 144.065487 
L 278.421818 147.302026 
L 279.013636 157.081798 
L 279.605455 146.592512 
L 280.197273 141.761582 
L 280.789091 149.066679 
L 281.380909 144.314339 
L 281.972727 147.146052 
L 282.564545 144.840646 
L 283.156364 150.37212 
L 283.748182 138.949146 
L 284.34 138.548704 
L 284.931818 134.121194 
L 285.523636 148.93966 
L 286.115455 145.417773 
L 286.707273 147.246072 
L 287.299091 137.809776 
L 287.890909 131.031862 
L 288.482727 140.270184 
L 289.074545 141.696046 
L 289.666364 148.164212 
L 290.258182 139.449837 
L 290.85 161.036055 
L 291.441818 150.624154 
L 292.033636 146.869461 
L 292.625455 137.227885 
L 293.217273 142.838247 
L 293.809091 142.557809 
L 294.400909 145.473874 
L 294.992727 135.720594 
L 295.584545 146.52863 
L 296.176364 153.136639 
L 296.768182 148.989395 
L 297.36 150.059867 
L 297.951818 147.784985 
L 298.543636 140.594646 
L 299.135455 154.618801 
L 299.727273 159.348662 
L 300.319091 153.981954 
L 300.910909 151.964031 
L 301.502727 140.578852 
L 302.094545 147.106108 
L 302.686364 145.573841 
L 303.278182 147.474063 
L 303.87 147.529766 
L 304.461818 139.099777 
L 305.053636 145.953842 
L 305.645455 150.532276 
L 306.237273 146.516409 
L 306.829091 161.734496 
L 307.420909 160.950871 
L 308.012727 163.159381 
L 309.196364 138.150147 
L 309.788182 143.421063 
L 310.38 152.11678 
L 310.971818 147.665073 
L 311.563636 148.976342 
L 312.155455 164.717677 
L 313.339091 159.788386 
L 313.930909 159.080095 
L 314.522727 164.059534 
L 315.114545 159.302562 
L 315.706364 157.880314 
L 316.298182 153.89801 
L 316.89 153.132028 
L 317.481818 150.434388 
L 318.073636 164.514476 
L 318.665455 154.932823 
L 319.257273 170.160656 
L 319.849091 162.812524 
L 320.440909 152.150796 
L 321.032727 149.784439 
L 321.624545 150.265088 
L 322.216364 146.268995 
L 322.808182 156.048802 
L 323.991818 169.463578 
L 324.583636 169.051634 
L 325.175455 150.762172 
L 325.767273 149.336091 
L 326.359091 163.519111 
L 326.950909 148.958448 
L 327.542727 148.633705 
L 328.134545 146.579548 
L 328.726364 151.390901 
L 329.318182 151.470513 
L 329.91 141.217689 
L 330.501818 146.555462 
L 331.093636 143.037361 
L 331.685455 155.510682 
L 332.277273 150.450478 
L 332.869091 156.628199 
L 333.460909 148.409896 
L 334.052727 146.618874 
L 334.644545 149.055146 
L 335.236364 149.157094 
L 335.828182 145.39963 
L 336.42 149.530502 
L 337.011818 149.064405 
L 337.603636 145.290315 
L 338.195455 161.007087 
L 338.787273 142.455589 
L 339.379091 141.909578 
L 339.970909 147.164475 
L 340.562727 147.976284 
L 341.154545 159.322688 
L 341.746364 152.126448 
L 342.338182 155.804644 
L 342.93 145.504544 
L 343.521818 150.498156 
L 344.113636 150.429459 
L 344.705455 154.946582 
L 345.297273 153.881845 
L 345.889091 154.869811 
L 346.480909 156.924695 
L 347.072727 147.955795 
L 347.664545 151.113422 
L 348.256364 160.233512 
L 348.848182 146.910861 
L 349.44 141.914071 
L 350.031818 147.778698 
L 350.623636 150.76156 
L 351.215455 148.093476 
L 351.807273 151.829815 
L 352.399091 153.464851 
L 352.990909 161.566161 
L 353.582727 158.456248 
L 354.174545 160.014614 
L 354.766364 143.073687 
L 355.358182 143.027856 
L 355.95 144.835204 
L 356.541818 132.494032 
L 357.133636 146.594574 
L 357.725455 145.62226 
L 358.909091 137.688025 
L 359.500909 139.881347 
L 360.092727 142.602188 
L 360.684545 142.968065 
L 361.276364 141.331198 
L 362.46 148.457085 
L 363.051818 146.303529 
L 364.235455 137.188563 
L 364.827273 157.224036 
L 365.419091 155.095032 
L 366.010909 145.61992 
L 366.602727 151.648579 
L 367.194545 161.094193 
L 367.786364 139.051918 
L 368.378182 150.159363 
L 368.97 137.829451 
L 369.561818 144.364033 
L 370.153636 145.304086 
L 370.745455 158.198151 
L 371.337273 157.342291 
L 371.929091 164.659877 
L 372.520909 152.172215 
L 373.112727 151.397819 
L 373.704545 142.295362 
L 374.296364 137.467077 
L 374.888182 145.975941 
L 375.48 145.402052 
L 376.071818 147.149717 
L 376.663636 143.34129 
L 377.255455 152.470162 
L 377.847273 140.435495 
L 378.439091 153.637163 
L 379.030909 142.916746 
L 379.622727 149.407416 
L 380.214545 151.862052 
L 380.806364 149.005566 
L 381.398182 148.091676 
L 381.99 149.901298 
L 382.581818 150.151085 
L 383.173636 153.75638 
L 383.765455 155.062591 
L 384.357273 153.142437 
L 384.949091 147.408306 
L 385.540909 147.526514 
L 386.132727 145.715189 
L 386.724545 153.566222 
L 387.316364 144.286711 
L 387.908182 143.767143 
L 388.5 134.370567 
L 389.091818 128.960138 
L 389.683636 146.619756 
L 390.275455 145.355015 
L 390.867273 140.733948 
L 391.459091 153.53481 
L 392.050909 144.945027 
L 392.642727 138.424372 
L 393.234545 142.864728 
L 393.826364 144.865109 
L 394.418182 162.06215 
L 395.01 149.770531 
L 395.601818 142.229537 
L 396.193636 141.331334 
L 396.785455 128.286361 
L 397.377273 138.798111 
L 397.969091 146.36252 
L 398.560909 151.31593 
L 399.152727 157.625162 
L 399.744545 146.385496 
L 400.336364 141.659557 
L 400.928182 143.019985 
L 401.52 143.173434 
L 402.111818 148.271825 
L 402.703636 139.273379 
L 403.295455 152.653056 
L 403.887273 136.444393 
L 404.479091 136.408608 
L 405.070909 144.728017 
L 405.662727 145.497692 
L 406.254545 135.215284 
L 406.846364 141.949829 
L 407.438182 140.889715 
L 408.03 138.586061 
L 408.621818 141.163363 
L 409.213636 140.935346 
L 409.805455 142.73111 
L 410.397273 145.382867 
L 410.989091 144.612254 
L 411.580909 145.429125 
L 412.172727 139.159515 
L 412.764545 143.989033 
L 413.356364 153.462893 
L 413.948182 142.36376 
L 414.54 150.675599 
L 415.131818 143.622382 
L 415.723636 147.946903 
L 416.315455 147.003419 
L 416.907273 131.88409 
L 417.499091 142.338313 
L 418.090909 134.959526 
L 418.682727 147.446259 
L 419.274545 149.918876 
L 419.866364 148.030008 
L 420.458182 160.905296 
L 421.05 146.692127 
L 421.641818 147.62271 
L 422.233636 138.232978 
L 422.825455 145.281868 
L 423.417273 145.347695 
L 424.009091 144.342101 
L 424.600909 149.332643 
L 425.192727 158.13837 
L 425.784545 148.028017 
L 426.376364 141.265602 
L 426.968182 143.355819 
L 427.56 144.505109 
L 428.151818 148.29937 
L 428.743636 148.107018 
L 429.335455 153.328245 
L 429.927273 141.698175 
L 430.519091 152.927593 
L 431.110909 157.63423 
L 431.702727 153.082077 
L 432.294545 155.573539 
L 432.886364 147.725391 
L 433.478182 159.124371 
L 434.661818 161.364537 
L 435.253636 148.844418 
L 435.845455 148.672721 
L 435.845455 148.672721 
" style="fill:none;stroke:#1f77b4;stroke-linecap:square;stroke-width:1.5;"/>
   </g>
   <g id="line2d_14">
    <path clip-path="url(#pf53e5c61cf)" d="M 80.754545 62.466861 
L 81.346364 55.313975 
L 82.53 36.366896 
L 83.121818 28.934474 
L 84.305455 53.753283 
L 84.897273 53.06636 
L 85.489091 44.072092 
L 86.080909 53.654926 
L 86.672727 43.842009 
L 87.264545 40.337158 
L 87.856364 38.837573 
L 88.448182 46.374847 
L 89.04 41.811276 
L 90.223636 45.202231 
L 90.815455 49.811828 
L 91.407273 47.583423 
L 91.999091 50.893704 
L 92.590909 45.021289 
L 93.182727 47.218809 
L 93.774545 48.336061 
L 94.366364 38.956609 
L 94.958182 37.556875 
L 95.55 53.770733 
L 96.141818 40.158918 
L 96.733636 56.60252 
L 97.325455 66.972478 
L 97.917273 57.841995 
L 98.509091 54.694155 
L 99.100909 57.361804 
L 99.692727 56.277785 
L 100.284545 54.218687 
L 100.876364 45.03838 
L 101.468182 52.439139 
L 102.06 47.080599 
L 102.651818 54.792577 
L 103.243636 55.492659 
L 103.835455 49.898061 
L 104.427273 49.63607 
L 105.019091 50.572966 
L 105.610909 52.966941 
L 106.202727 52.304701 
L 106.794545 52.54796 
L 107.386364 48.44491 
L 108.57 57.680033 
L 109.161818 45.425008 
L 109.753636 54.989565 
L 110.345455 45.121381 
L 110.937273 44.334864 
L 111.529091 46.40858 
L 112.120909 44.511076 
L 112.712727 47.221161 
L 113.304545 52.187909 
L 113.896364 44.136164 
L 114.488182 52.080679 
L 115.08 53.2503 
L 115.671818 57.77765 
L 116.263636 63.331165 
L 116.855455 53.409428 
L 117.447273 51.634522 
L 118.039091 61.682522 
L 118.630909 67.777012 
L 119.222727 65.232004 
L 119.814545 55.586106 
L 120.406364 59.186132 
L 120.998182 53.44641 
L 121.59 53.35735 
L 122.181818 60.457721 
L 122.773636 53.908753 
L 123.365455 65.707807 
L 123.957273 66.76516 
L 124.549091 67.299582 
L 125.140909 65.160778 
L 125.732727 60.732144 
L 126.324545 70.974151 
L 126.916364 64.482628 
L 127.508182 65.60888 
L 128.1 65.91811 
L 128.691818 64.074927 
L 129.283636 71.511011 
L 129.875455 70.546126 
L 130.467273 61.380437 
L 131.059091 61.900188 
L 131.650909 51.493434 
L 132.242727 53.992634 
L 132.834545 60.610733 
L 133.426364 56.33592 
L 134.018182 60.779109 
L 134.61 60.191076 
L 135.201818 58.187824 
L 135.793636 65.183289 
L 136.385455 63.029075 
L 136.977273 70.989275 
L 137.569091 62.530026 
L 138.160909 71.213157 
L 139.344545 66.697118 
L 139.936364 59.525782 
L 140.528182 77.097574 
L 141.12 73.068206 
L 141.711818 55.004912 
L 142.303636 49.002251 
L 142.895455 55.605932 
L 143.487273 60.564738 
L 144.079091 54.762045 
L 144.670909 58.84493 
L 145.262727 51.933092 
L 145.854545 60.74828 
L 146.446364 55.860691 
L 147.038182 53.666161 
L 147.63 48.483949 
L 148.221818 65.188031 
L 148.813636 50.475964 
L 149.405455 45.729031 
L 149.997273 55.848968 
L 150.589091 61.224318 
L 151.180909 63.729978 
L 151.772727 56.457446 
L 152.364545 54.513125 
L 152.956364 57.43702 
L 153.548182 65.344376 
L 154.14 63.829684 
L 154.731818 67.152082 
L 155.323636 57.407145 
L 155.915455 68.333656 
L 156.507273 70.214404 
L 157.099091 66.439667 
L 157.690909 61.104289 
L 158.282727 61.223393 
L 158.874545 54.073089 
L 159.466364 44.81767 
L 160.058182 57.097316 
L 160.65 52.418477 
L 161.241818 60.762865 
L 161.833636 58.610045 
L 162.425455 65.022814 
L 163.017273 67.96727 
L 163.609091 61.356946 
L 164.200909 61.843998 
L 164.792727 71.018097 
L 165.384545 67.845524 
L 165.976364 67.536211 
L 166.568182 57.685794 
L 167.16 66.47488 
L 167.751818 64.268518 
L 168.343636 57.18621 
L 168.935455 54.566927 
L 169.527273 60.314675 
L 170.119091 62.893259 
L 170.710909 72.180594 
L 171.302727 59.128481 
L 171.894545 62.045464 
L 172.486364 57.206431 
L 173.078182 65.254559 
L 174.261818 57.597797 
L 174.853636 68.469445 
L 175.445455 55.11407 
L 176.037273 60.521803 
L 176.629091 72.332976 
L 177.220909 70.157413 
L 177.812727 63.885435 
L 178.404545 62.201831 
L 178.996364 65.300977 
L 179.588182 65.801052 
L 180.18 60.569653 
L 180.771818 72.051957 
L 181.363636 77.714423 
L 182.547273 67.330251 
L 183.139091 63.102511 
L 183.730909 62.937619 
L 184.322727 63.287044 
L 184.914545 73.829497 
L 185.506364 70.259879 
L 186.098182 70.726017 
L 186.69 64.182339 
L 187.281818 67.947333 
L 187.873636 66.673094 
L 188.465455 60.152875 
L 189.057273 59.08114 
L 189.649091 59.409943 
L 190.240909 72.872294 
L 190.832727 74.35942 
L 191.424545 68.865329 
L 192.016364 69.860462 
L 192.608182 70.329259 
L 193.2 68.012148 
L 193.791818 71.188524 
L 194.383636 70.48492 
L 194.975455 70.5338 
L 195.567273 65.909201 
L 196.159091 70.383773 
L 196.750909 50.38764 
L 197.342727 67.45815 
L 197.934545 53.556699 
L 199.118182 70.71639 
L 199.71 67.721776 
L 200.301818 68.674648 
L 201.485455 92.649818 
L 202.077273 95.201205 
L 202.669091 92.381808 
L 203.260909 94.360675 
L 203.852727 112.9248 
L 204.444545 50.802037 
L 205.036364 82.352021 
L 205.628182 89.439981 
L 206.22 94.326058 
L 206.811818 92.217778 
L 207.403636 98.271994 
L 207.995455 114.36389 
L 208.587273 55.82633 
L 209.770909 94.517123 
L 210.362727 102.428424 
L 210.954545 99.32851 
L 211.546364 102.263655 
L 212.138182 104.4373 
L 212.73 49.263902 
L 213.321818 76.689095 
L 213.913636 92.263006 
L 214.505455 97.771631 
L 215.097273 110.634159 
L 215.689091 109.74835 
L 216.280909 122.768737 
L 216.872727 41.217316 
L 217.464545 80.726971 
L 219.24 114.194729 
L 219.831818 127.245588 
L 220.423636 117.394121 
L 221.015455 40.084325 
L 221.607273 68.425914 
L 222.790909 105.868484 
L 223.382727 108.540156 
L 223.974545 114.648352 
L 224.566364 116.114848 
L 225.158182 49.12369 
L 226.933636 100.577888 
L 227.525455 99.496127 
L 228.117273 102.56079 
L 228.709091 110.054566 
L 229.300909 49.971697 
L 229.892727 76.345461 
L 230.484545 85.532737 
L 231.076364 104.974792 
L 231.668182 100.08933 
L 232.26 108.917825 
L 232.851818 104.804111 
L 233.443636 37.062707 
L 234.035455 69.177355 
L 234.627273 82.872455 
L 235.219091 85.793319 
L 235.810909 107.505612 
L 236.402727 96.671234 
L 236.994545 109.238418 
L 237.586364 38.151465 
L 238.178182 76.527669 
L 238.77 81.302254 
L 239.361818 85.044389 
L 240.545455 103.333253 
L 241.137273 113.341195 
L 241.729091 47.791404 
L 242.320909 73.857549 
L 242.912727 90.50323 
L 243.504545 103.068307 
L 244.096364 102.958698 
L 244.688182 106.85382 
L 245.28 117.164507 
L 245.871818 45.824366 
L 247.055455 97.278373 
L 247.647273 97.269588 
L 248.239091 105.872587 
L 248.830909 112.10427 
L 249.422727 116.063678 
L 250.014545 30.859396 
L 250.606364 63.39219 
L 251.198182 77.95023 
L 251.79 84.296662 
L 252.381818 92.855286 
L 253.565455 115.969257 
L 254.157273 41.758059 
L 254.749091 78.715271 
L 255.340909 85.000223 
L 257.116364 112.71151 
L 257.708182 109.883768 
L 258.3 31.829706 
L 258.891818 69.048848 
L 259.483636 97.399054 
L 260.075455 100.95187 
L 260.667273 102.565677 
L 261.259091 100.266318 
L 261.850909 109.699079 
L 262.442727 44.123472 
L 263.034545 76.368666 
L 263.626364 85.402694 
L 264.218182 92.308553 
L 264.81 101.190114 
L 265.401818 113.745722 
L 265.993636 116.659117 
L 266.585455 50.912601 
L 267.177273 83.033753 
L 268.360909 117.94612 
L 268.952727 108.448622 
L 270.136364 119.408943 
L 270.728182 63.984703 
L 271.32 73.853102 
L 271.911818 73.305393 
L 272.503636 78.035947 
L 273.095455 84.450289 
L 273.687273 84.948722 
L 274.279091 94.249365 
L 274.870909 95.766505 
L 275.462727 84.236281 
L 276.054545 81.604473 
L 276.646364 94.082912 
L 277.238182 100.088204 
L 277.83 90.851228 
L 278.421818 96.187608 
L 279.013636 99.067903 
L 279.605455 86.29503 
L 280.197273 98.149787 
L 280.789091 88.22261 
L 281.380909 96.560076 
L 281.972727 107.761019 
L 282.564545 103.700938 
L 283.156364 96.892353 
L 283.748182 83.64679 
L 284.34 83.833841 
L 284.931818 90.400464 
L 285.523636 94.483224 
L 286.115455 109.325832 
L 286.707273 112.614291 
L 287.299091 115.119597 
L 287.890909 104.600957 
L 288.482727 102.435416 
L 289.074545 93.121823 
L 289.666364 101.07659 
L 290.258182 105.941721 
L 290.85 97.443277 
L 291.441818 113.61069 
L 292.033636 83.718579 
L 292.625455 92.785011 
L 293.217273 93.841179 
L 293.809091 90.084763 
L 294.400909 99.467417 
L 294.992727 99.015449 
L 295.584545 99.821033 
L 296.176364 91.904524 
L 296.768182 104.216751 
L 297.36 88.390817 
L 297.951818 89.168288 
L 298.543636 86.1855 
L 299.135455 89.60828 
L 299.727273 101.982939 
L 300.319091 92.196421 
L 300.910909 84.508818 
L 301.502727 88.96392 
L 302.094545 103.857838 
L 302.686364 111.955798 
L 303.278182 110.654489 
L 303.87 102.624828 
L 305.053636 90.438911 
L 305.645455 82.132731 
L 306.237273 94.633818 
L 306.829091 82.464288 
L 307.420909 105.684602 
L 308.012727 97.323233 
L 308.604545 91.062608 
L 309.196364 87.329392 
L 309.788182 90.043826 
L 310.38 100.928339 
L 311.563636 104.786981 
L 312.155455 110.045416 
L 313.339091 85.896199 
L 313.930909 80.954311 
L 314.522727 103.002286 
L 315.114545 100.244556 
L 315.706364 100.529877 
L 316.298182 98.794565 
L 316.89 77.692554 
L 318.073636 101.466909 
L 318.665455 94.006921 
L 319.257273 82.190902 
L 319.849091 93.346656 
L 320.440909 98.915381 
L 321.032727 87.059658 
L 321.624545 102.604408 
L 322.216364 90.694731 
L 322.808182 98.77527 
L 323.4 96.51869 
L 323.991818 95.411704 
L 324.583636 92.813159 
L 325.175455 81.919194 
L 325.767273 81.733538 
L 326.359091 87.650385 
L 326.950909 89.25552 
L 327.542727 87.765187 
L 328.134545 93.426048 
L 328.726364 108.433869 
L 329.318182 100.371691 
L 329.91 96.542642 
L 330.501818 82.926238 
L 331.093636 89.335159 
L 331.685455 102.145871 
L 332.277273 96.126256 
L 332.869091 95.878424 
L 333.460909 89.823169 
L 334.052727 92.723525 
L 334.644545 82.053635 
L 335.236364 103.706679 
L 335.828182 97.667459 
L 336.42 105.238671 
L 337.011818 97.789849 
L 337.603636 72.216907 
L 338.195455 77.880057 
L 338.787273 80.846775 
L 340.562727 92.803925 
L 341.154545 100.995062 
L 341.746364 91.142059 
L 342.338182 91.402355 
L 342.93 82.796165 
L 343.521818 88.910533 
L 344.113636 86.900066 
L 344.705455 96.488154 
L 345.297273 85.489365 
L 345.889091 94.419971 
L 346.480909 92.464215 
L 347.072727 78.205702 
L 347.664545 83.190315 
L 348.256364 85.449318 
L 348.848182 91.591067 
L 349.44 104.953125 
L 350.031818 96.560032 
L 350.623636 101.069903 
L 351.215455 114.049608 
L 351.807273 94.808762 
L 352.399091 87.754492 
L 352.990909 90.477926 
L 353.582727 90.846103 
L 354.174545 89.679908 
L 354.766364 98.426575 
L 355.358182 95.384917 
L 355.95 96.668173 
L 356.541818 87.308884 
L 357.133636 87.698672 
L 357.725455 90.615492 
L 358.317273 101.75058 
L 358.909091 93.538184 
L 359.500909 91.601357 
L 360.092727 95.078071 
L 360.684545 103.545442 
L 361.276364 92.160102 
L 361.868182 99.138516 
L 362.46 94.063017 
L 363.051818 94.958534 
L 363.643636 95.481993 
L 364.235455 101.448162 
L 364.827273 97.261825 
L 365.419091 90.307561 
L 366.010909 90.380782 
L 366.602727 92.746692 
L 367.194545 100.269572 
L 367.786364 96.632575 
L 368.378182 103.648675 
L 368.97 105.535963 
L 370.153636 83.461319 
L 371.337273 88.812097 
L 372.520909 80.975561 
L 373.112727 81.707306 
L 373.704545 82.015686 
L 374.296364 84.118861 
L 374.888182 93.804986 
L 375.48 90.011282 
L 376.071818 91.624862 
L 376.663636 86.067895 
L 377.255455 96.936818 
L 377.847273 95.504414 
L 378.439091 94.464645 
L 379.030909 100.101831 
L 379.622727 83.58811 
L 380.214545 96.997698 
L 380.806364 90.88986 
L 381.398182 89.478528 
L 381.99 86.194495 
L 382.581818 96.924176 
L 383.173636 104.762918 
L 383.765455 86.078423 
L 384.949091 97.568477 
L 385.540909 99.863965 
L 386.132727 99.201227 
L 386.724545 103.863313 
L 387.316364 101.703972 
L 387.908182 95.562603 
L 388.5 101.59564 
L 389.091818 98.440344 
L 389.683636 112.74286 
L 390.275455 109.039563 
L 390.867273 108.857523 
L 391.459091 105.577236 
L 392.050909 98.084524 
L 392.642727 93.9611 
L 393.234545 97.804306 
L 393.826364 102.612057 
L 394.418182 99.541384 
L 395.01 109.850758 
L 395.601818 112.931646 
L 396.193636 105.206011 
L 396.785455 104.507144 
L 397.377273 108.425273 
L 397.969091 103.93701 
L 398.560909 107.210839 
L 399.152727 109.217642 
L 399.744545 109.643382 
L 400.336364 109.077648 
L 400.928182 91.251861 
L 401.52 93.292716 
L 402.111818 100.833383 
L 402.703636 94.78883 
L 403.295455 101.058837 
L 403.887273 99.803734 
L 404.479091 109.022591 
L 405.070909 95.770944 
L 405.662727 106.551945 
L 406.254545 104.866823 
L 406.846364 98.954321 
L 407.438182 97.656243 
L 408.03 102.535757 
L 408.621818 93.549145 
L 409.213636 103.73932 
L 409.805455 101.706604 
L 410.397273 96.491052 
L 410.989091 99.573061 
L 411.580909 96.033833 
L 412.172727 102.002743 
L 412.764545 92.514878 
L 413.356364 103.143878 
L 413.948182 97.559165 
L 414.54 95.337784 
L 415.131818 90.113497 
L 415.723636 91.201857 
L 416.315455 94.975665 
L 416.907273 90.349143 
L 417.499091 95.669354 
L 418.090909 98.97149 
L 418.682727 95.825888 
L 419.274545 94.719563 
L 419.866364 96.344458 
L 420.458182 104.601872 
L 421.05 101.553048 
L 421.641818 92.48006 
L 422.233636 88.602179 
L 422.825455 102.098794 
L 423.417273 107.19787 
L 424.009091 96.923916 
L 424.600909 98.100374 
L 425.192727 92.731338 
L 425.784545 105.467362 
L 426.376364 97.065508 
L 426.968182 100.410784 
L 427.56 96.420429 
L 428.151818 99.563445 
L 428.743636 89.929791 
L 429.335455 99.43731 
L 429.927273 102.578732 
L 430.519091 95.10187 
L 431.110909 98.01138 
L 431.702727 96.987859 
L 432.294545 104.423251 
L 432.886364 109.709702 
L 433.478182 95.822836 
L 434.07 98.377065 
L 434.661818 92.697636 
L 435.253636 103.981555 
L 435.845455 96.163759 
L 435.845455 96.163759 
" style="fill:none;stroke:#ff7f0e;stroke-linecap:square;stroke-width:1.5;"/>
   </g>
   <g id="line2d_15">
    <path clip-path="url(#pf53e5c61cf)" d="M 80.754545 58.309891 
L 81.346364 50.538063 
L 81.938182 52.257607 
L 82.53 37.770074 
L 83.121818 34.021204 
L 83.713636 33.7935 
L 84.305455 44.485007 
L 84.897273 40.058052 
L 85.489091 39.948217 
L 86.080909 34.667032 
L 86.672727 25.595149 
L 87.264545 36.580589 
L 87.856364 41.687998 
L 88.448182 39.426773 
L 89.04 45.23972 
L 89.631818 47.309033 
L 90.223636 45.257412 
L 90.815455 49.928512 
L 91.407273 50.565602 
L 91.999091 53.921893 
L 92.590909 50.606463 
L 93.774545 38.302959 
L 94.366364 50.571593 
L 94.958182 55.248751 
L 95.55 46.382565 
L 96.141818 50.635088 
L 96.733636 53.6008 
L 97.325455 49.637002 
L 97.917273 57.391395 
L 98.509091 62.425336 
L 99.100909 61.318025 
L 99.692727 56.097633 
L 100.284545 57.694582 
L 100.876364 64.945616 
L 101.468182 57.796282 
L 102.06 67.98889 
L 102.651818 59.295042 
L 103.243636 66.00684 
L 103.835455 59.723807 
L 104.427273 50.496729 
L 105.019091 59.548524 
L 105.610909 59.164256 
L 106.202727 55.669104 
L 106.794545 55.011081 
L 107.386364 55.776299 
L 107.978182 54.975267 
L 108.57 58.768325 
L 109.161818 57.306355 
L 109.753636 62.114983 
L 110.345455 60.446514 
L 110.937273 58.240655 
L 111.529091 71.393819 
L 112.120909 53.283921 
L 112.712727 55.737127 
L 113.896364 59.739573 
L 114.488182 55.786741 
L 115.08 63.529911 
L 115.671818 57.262175 
L 116.263636 62.445604 
L 116.855455 53.868397 
L 117.447273 61.080808 
L 118.039091 60.91125 
L 118.630909 56.718762 
L 119.222727 66.99478 
L 119.814545 59.487969 
L 120.406364 60.91963 
L 120.998182 57.66778 
L 121.59 62.4201 
L 122.181818 62.465059 
L 122.773636 68.233544 
L 123.365455 51.001524 
L 123.957273 57.764453 
L 124.549091 55.797717 
L 125.140909 56.517528 
L 125.732727 50.463857 
L 126.324545 53.40221 
L 126.916364 48.416802 
L 127.508182 52.808467 
L 128.1 52.026721 
L 128.691818 44.313077 
L 129.283636 38.359868 
L 131.059091 62.367897 
L 131.650909 57.697036 
L 132.242727 56.453781 
L 132.834545 57.511457 
L 133.426364 58.82245 
L 134.018182 57.070943 
L 134.61 59.990098 
L 135.201818 60.91139 
L 135.793636 44.710184 
L 136.385455 58.321164 
L 136.977273 56.707526 
L 137.569091 53.001792 
L 138.160909 57.366124 
L 138.752727 53.043221 
L 139.344545 54.628188 
L 139.936364 49.436962 
L 140.528182 53.824994 
L 141.12 51.978175 
L 141.711818 49.085783 
L 142.303636 62.899319 
L 142.895455 60.111919 
L 143.487273 53.590848 
L 144.079091 58.475921 
L 144.670909 50.883258 
L 145.262727 55.63626 
L 145.854545 54.31333 
L 146.446364 55.398232 
L 147.038182 48.304653 
L 147.63 50.944595 
L 148.221818 52.696222 
L 148.813636 63.651346 
L 149.405455 62.391526 
L 150.589091 55.458549 
L 151.180909 49.749138 
L 151.772727 56.564564 
L 152.364545 56.724161 
L 152.956364 53.220393 
L 153.548182 61.725729 
L 154.14 60.839871 
L 154.731818 60.29302 
L 155.323636 57.059052 
L 155.915455 47.541389 
L 156.507273 50.081293 
L 157.099091 58.633633 
L 157.690909 64.674216 
L 158.282727 60.494837 
L 158.874545 57.547764 
L 159.466364 52.767491 
L 160.058182 50.32793 
L 160.65 50.327968 
L 161.241818 59.145418 
L 161.833636 53.829638 
L 162.425455 56.235135 
L 163.017273 68.598738 
L 163.609091 55.460564 
L 164.200909 46.790762 
L 165.384545 59.809269 
L 165.976364 50.97684 
L 166.568182 53.30473 
L 167.16 55.164014 
L 167.751818 48.933515 
L 168.343636 50.987393 
L 168.935455 49.054126 
L 169.527273 53.316292 
L 170.119091 67.86783 
L 170.710909 54.267982 
L 171.302727 57.123251 
L 171.894545 51.021252 
L 172.486364 52.71178 
L 173.078182 52.623076 
L 173.67 54.328357 
L 174.261818 57.48697 
L 174.853636 65.481427 
L 175.445455 61.400443 
L 176.037273 60.429165 
L 176.629091 53.26191 
L 177.812727 69.423009 
L 178.404545 57.999966 
L 178.996364 61.601963 
L 179.588182 68.51431 
L 180.18 65.524533 
L 180.771818 70.931756 
L 181.363636 63.367547 
L 181.955455 66.721982 
L 182.547273 60.671028 
L 183.139091 63.848297 
L 183.730909 65.286648 
L 184.322727 58.581612 
L 184.914545 63.444446 
L 185.506364 70.86461 
L 186.098182 63.397282 
L 186.69 63.616685 
L 187.281818 62.07653 
L 187.873636 62.272643 
L 188.465455 58.864228 
L 189.649091 66.381039 
L 190.240909 60.742898 
L 190.832727 67.832322 
L 191.424545 62.300473 
L 192.016364 66.45861 
L 193.2 57.747518 
L 193.791818 67.586001 
L 194.383636 67.637934 
L 194.975455 65.860551 
L 196.159091 54.087555 
L 196.750909 63.102197 
L 197.342727 57.687261 
L 197.934545 63.08755 
L 198.526364 56.797619 
L 199.71 62.883681 
L 200.301818 69.066999 
L 200.893636 79.014827 
L 201.485455 96.018197 
L 202.077273 100.091556 
L 203.260909 102.464913 
L 203.852727 107.51336 
L 204.444545 63.112127 
L 205.036364 84.49746 
L 205.628182 99.579602 
L 207.403636 122.670578 
L 207.995455 125.983614 
L 208.587273 75.015946 
L 209.179091 105.752864 
L 209.770909 105.648426 
L 210.362727 111.14448 
L 210.954545 131.427858 
L 211.546364 117.764183 
L 212.138182 134.224042 
L 212.73 69.049654 
L 213.321818 97.280579 
L 213.913636 108.895504 
L 214.505455 115.672814 
L 215.689091 137.485001 
L 216.280909 129.583389 
L 216.872727 76.077366 
L 217.464545 102.629815 
L 218.648182 128.366707 
L 219.24 126.546897 
L 219.831818 133.12122 
L 220.423636 137.507802 
L 221.015455 85.701147 
L 221.607273 103.631016 
L 222.199091 115.419654 
L 222.790909 124.5792 
L 223.382727 139.142177 
L 223.974545 132.944265 
L 224.566364 143.513466 
L 225.158182 92.924109 
L 225.75 101.400271 
L 226.341818 125.041362 
L 226.933636 132.923168 
L 227.525455 120.64678 
L 228.117273 133.926561 
L 228.709091 144.481089 
L 229.300909 77.819056 
L 229.892727 114.369145 
L 230.484545 128.195291 
L 231.076364 126.574579 
L 231.668182 135.597242 
L 232.26 127.60238 
L 232.851818 132.551795 
L 233.443636 71.268497 
L 234.035455 106.029604 
L 234.627273 122.20156 
L 235.219091 130.324815 
L 235.810909 133.041078 
L 236.402727 153.72271 
L 236.994545 151.884912 
L 237.586364 86.848839 
L 238.178182 121.423977 
L 238.77 127.35981 
L 239.361818 128.664225 
L 239.953636 136.365334 
L 240.545455 141.161508 
L 241.137273 140.655682 
L 241.729091 86.279746 
L 242.320909 112.47989 
L 242.912727 128.710307 
L 243.504545 135.657737 
L 244.096364 137.959121 
L 244.688182 139.282251 
L 245.28 138.394496 
L 245.871818 96.511437 
L 246.463636 116.725139 
L 247.055455 126.469758 
L 247.647273 131.063938 
L 248.830909 148.642484 
L 249.422727 140.653972 
L 250.014545 81.195198 
L 250.606364 105.657294 
L 251.198182 121.646941 
L 251.79 134.390242 
L 252.381818 142.988332 
L 252.973636 145.440422 
L 253.565455 149.951755 
L 254.157273 97.140802 
L 254.749091 115.972743 
L 255.340909 148.085437 
L 255.932727 143.848879 
L 257.708182 156.435753 
L 258.3 100.82831 
L 258.891818 123.040748 
L 259.483636 140.758807 
L 260.075455 143.932066 
L 260.667273 152.434886 
L 261.259091 149.845294 
L 261.850909 160.807884 
L 262.442727 101.210438 
L 263.034545 121.650432 
L 264.218182 142.950932 
L 265.401818 149.513103 
L 265.993636 148.232161 
L 266.585455 103.585743 
L 267.177273 126.975374 
L 267.769091 142.789891 
L 268.360909 148.988725 
L 268.952727 144.136028 
L 269.544545 149.27862 
L 270.136364 158.436187 
L 270.728182 130.264613 
L 271.32 138.279804 
L 271.911818 141.072451 
L 272.503636 140.085107 
L 273.095455 132.02229 
L 273.687273 134.83513 
L 274.279091 145.385343 
L 274.870909 141.700095 
L 275.462727 135.950961 
L 276.054545 139.601383 
L 276.646364 139.067016 
L 277.238182 146.429457 
L 277.83 150.925174 
L 278.421818 152.378306 
L 279.013636 147.044442 
L 279.605455 134.240271 
L 280.789091 147.547272 
L 281.972727 152.614482 
L 282.564545 161.596828 
L 283.156364 151.120486 
L 283.748182 143.447238 
L 284.34 133.799165 
L 284.931818 145.642441 
L 285.523636 142.917918 
L 286.115455 141.767529 
L 286.707273 143.679906 
L 287.299091 143.205178 
L 287.890909 134.268242 
L 288.482727 131.569296 
L 289.074545 137.566322 
L 289.666364 140.792344 
L 290.258182 144.757503 
L 290.85 147.061556 
L 291.441818 145.775544 
L 292.033636 130.140374 
L 292.625455 134.446606 
L 293.217273 146.372356 
L 293.809091 141.711186 
L 294.992727 156.789625 
L 295.584545 156.064572 
L 296.176364 136.671116 
L 296.768182 135.41406 
L 297.36 143.807415 
L 297.951818 147.249123 
L 298.543636 137.582757 
L 299.135455 139.286501 
L 299.727273 147.275936 
L 300.319091 134.234937 
L 300.910909 136.393915 
L 301.502727 131.896188 
L 302.094545 142.143666 
L 302.686364 135.554378 
L 303.278182 147.06066 
L 303.87 141.71259 
L 304.461818 138.466438 
L 305.053636 148.907341 
L 305.645455 139.146564 
L 306.237273 139.778999 
L 306.829091 154.543991 
L 307.420909 146.867491 
L 308.012727 141.673982 
L 308.604545 139.919818 
L 309.196364 138.989178 
L 309.788182 135.763555 
L 310.38 152.139642 
L 310.971818 143.581793 
L 311.563636 142.086971 
L 312.155455 144.697933 
L 312.747273 127.711919 
L 313.339091 133.947241 
L 313.930909 137.222216 
L 314.522727 141.800754 
L 315.114545 149.468606 
L 315.706364 145.474844 
L 316.298182 151.751998 
L 316.89 129.025823 
L 318.073636 139.800956 
L 318.665455 139.938222 
L 319.257273 134.769525 
L 320.440909 149.318223 
L 321.032727 132.879411 
L 321.624545 143.539259 
L 322.216364 144.444177 
L 322.808182 132.165069 
L 323.4 136.038635 
L 323.991818 135.485712 
L 324.583636 136.684658 
L 325.175455 142.498521 
L 325.767273 145.581906 
L 326.359091 138.610054 
L 326.950909 128.381793 
L 327.542727 142.151885 
L 328.134545 139.26726 
L 328.726364 142.977624 
L 329.318182 134.093859 
L 329.91 138.374051 
L 330.501818 126.507281 
L 331.093636 136.834599 
L 331.685455 138.900108 
L 332.277273 142.118342 
L 332.869091 137.949675 
L 333.460909 142.071489 
L 334.052727 142.221773 
L 334.644545 149.141089 
L 335.236364 143.567687 
L 335.828182 148.031428 
L 336.42 142.373219 
L 337.011818 146.936945 
L 337.603636 128.92156 
L 338.195455 136.733187 
L 338.787273 147.276679 
L 339.379091 151.041436 
L 339.970909 141.305992 
L 340.562727 141.2828 
L 341.154545 139.620699 
L 341.746364 151.665192 
L 342.338182 148.662129 
L 342.93 150.620562 
L 343.521818 150.053861 
L 344.113636 135.378717 
L 344.705455 143.889997 
L 345.297273 148.51104 
L 345.889091 145.004694 
L 346.480909 151.412767 
L 347.072727 160.221729 
L 347.664545 156.229676 
L 348.256364 156.163417 
L 348.848182 154.995808 
L 349.44 155.672492 
L 350.031818 155.993474 
L 350.623636 155.602996 
L 351.215455 153.412473 
L 351.807273 156.140367 
L 352.399091 162.092926 
L 352.990909 154.328005 
L 353.582727 156.869923 
L 354.174545 167.608902 
L 354.766364 163.667859 
L 355.358182 164.27386 
L 356.541818 137.308227 
L 357.133636 156.076711 
L 357.725455 159.553582 
L 358.317273 155.414386 
L 358.909091 149.580764 
L 359.500909 151.125256 
L 360.092727 148.360886 
L 360.684545 142.663976 
L 361.276364 153.314394 
L 361.868182 154.71699 
L 362.46 160.322622 
L 363.051818 154.656522 
L 363.643636 154.835509 
L 364.235455 146.131161 
L 364.827273 152.202811 
L 365.419091 150.627466 
L 366.010909 139.794716 
L 366.602727 157.18292 
L 367.194545 150.366332 
L 367.786364 138.305437 
L 368.378182 138.295045 
L 368.97 145.088303 
L 369.561818 143.876565 
L 370.153636 139.918055 
L 370.745455 138.563483 
L 371.337273 147.600532 
L 371.929091 146.351098 
L 372.520909 156.179267 
L 373.112727 151.204039 
L 373.704545 143.673482 
L 374.296364 145.617996 
L 374.888182 149.185369 
L 375.48 135.188529 
L 376.071818 139.272518 
L 376.663636 151.04752 
L 377.255455 143.009898 
L 377.847273 153.628656 
L 378.439091 152.223556 
L 379.030909 145.752633 
L 379.622727 140.961999 
L 380.214545 149.469889 
L 380.806364 141.639165 
L 381.398182 146.547703 
L 381.99 148.508456 
L 382.581818 155.474691 
L 383.173636 148.251731 
L 383.765455 152.405105 
L 384.357273 150.896064 
L 384.949091 146.681061 
L 385.540909 147.94311 
L 386.132727 148.375481 
L 386.724545 150.392686 
L 387.316364 163.156792 
L 387.908182 155.320835 
L 389.091818 151.998007 
L 389.683636 155.133531 
L 390.275455 145.81451 
L 390.867273 145.661923 
L 391.459091 143.750386 
L 392.050909 144.42842 
L 392.642727 139.601881 
L 393.234545 136.497432 
L 393.826364 138.364576 
L 394.418182 148.151446 
L 395.01 137.992613 
L 395.601818 134.109953 
L 396.193636 132.328164 
L 396.785455 138.719888 
L 397.377273 132.532285 
L 397.969091 137.978644 
L 398.560909 151.647874 
L 399.152727 155.373722 
L 399.744545 149.832483 
L 400.336364 137.368958 
L 400.928182 153.673784 
L 401.52 139.217585 
L 402.111818 148.999488 
L 403.295455 137.026029 
L 403.887273 137.291508 
L 405.070909 145.387139 
L 405.662727 143.676098 
L 406.254545 139.479799 
L 406.846364 142.13919 
L 407.438182 153.137684 
L 408.03 148.335841 
L 408.621818 145.94496 
L 409.213636 155.49984 
L 409.805455 154.799264 
L 410.397273 139.739544 
L 410.989091 131.738992 
L 411.580909 136.891778 
L 412.172727 139.642572 
L 412.764545 149.745792 
L 413.356364 156.044046 
L 413.948182 152.289916 
L 414.54 136.43063 
L 415.131818 142.407505 
L 415.723636 140.232158 
L 416.315455 137.360735 
L 416.907273 144.877617 
L 417.499091 148.059998 
L 418.090909 154.940244 
L 418.682727 150.441877 
L 419.274545 144.850085 
L 419.866364 131.686911 
L 420.458182 152.356037 
L 421.05 141.357523 
L 421.641818 143.627545 
L 422.233636 141.9939 
L 422.825455 147.972393 
L 423.417273 143.663815 
L 424.009091 154.268013 
L 424.600909 146.259253 
L 425.192727 139.840534 
L 425.784545 140.857946 
L 426.376364 141.571772 
L 426.968182 144.064034 
L 427.56 142.15989 
L 428.151818 143.94269 
L 428.743636 136.57838 
L 429.335455 140.69868 
L 429.927273 137.263961 
L 430.519091 139.141578 
L 431.110909 147.303473 
L 431.702727 143.508358 
L 432.886364 153.135741 
L 433.478182 136.156379 
L 434.07 138.035644 
L 434.661818 150.437908 
L 435.253636 135.300547 
L 435.845455 143.55382 
L 435.845455 143.55382 
" style="fill:none;stroke:#2ca02c;stroke-linecap:square;stroke-width:1.5;"/>
   </g>
   <g id="line2d_16">
    <path clip-path="url(#pf53e5c61cf)" d="M 80.754545 55.970023 
L 81.346364 63.152345 
L 81.938182 44.091798 
L 82.53 38.211901 
L 83.121818 30.546394 
L 84.305455 39.893636 
L 84.897273 29.749923 
L 85.489091 30.867383 
L 86.672727 41.113841 
L 87.264545 50.207398 
L 87.856364 56.608926 
L 88.448182 36.95511 
L 89.04 44.547299 
L 89.631818 57.214512 
L 90.223636 48.586871 
L 90.815455 46.460949 
L 91.407273 50.057492 
L 91.999091 49.053629 
L 92.590909 60.634284 
L 93.182727 54.572982 
L 93.774545 61.834111 
L 94.366364 54.315821 
L 94.958182 62.281398 
L 95.55 61.209974 
L 96.141818 59.756376 
L 96.733636 60.66401 
L 97.325455 64.175505 
L 97.917273 55.082805 
L 98.509091 63.033179 
L 99.100909 59.154243 
L 99.692727 59.505855 
L 100.284545 63.751155 
L 101.468182 53.5339 
L 102.06 62.628921 
L 103.243636 58.637291 
L 103.835455 65.418794 
L 104.427273 66.475862 
L 105.019091 64.399769 
L 105.610909 66.62318 
L 106.202727 56.938083 
L 106.794545 55.232148 
L 107.386364 50.884373 
L 107.978182 53.970793 
L 108.57 58.5465 
L 109.161818 56.162793 
L 109.753636 72.402082 
L 110.345455 59.437267 
L 110.937273 62.44008 
L 111.529091 55.448625 
L 112.120909 68.817314 
L 112.712727 67.846804 
L 113.304545 60.330201 
L 113.896364 71.822837 
L 114.488182 62.302116 
L 115.08 75.332894 
L 115.671818 73.79752 
L 116.263636 64.497982 
L 116.855455 73.694976 
L 117.447273 74.543525 
L 118.039091 70.883728 
L 118.630909 70.233559 
L 119.222727 61.722024 
L 120.406364 73.950615 
L 121.59 64.57643 
L 122.181818 65.303499 
L 122.773636 72.230454 
L 123.365455 64.991715 
L 123.957273 67.537827 
L 124.549091 66.972679 
L 125.140909 68.349607 
L 125.732727 84.236124 
L 126.324545 69.735561 
L 126.916364 65.778364 
L 127.508182 66.858079 
L 128.1 76.255868 
L 129.283636 69.921918 
L 129.875455 67.689785 
L 131.059091 75.200893 
L 131.650909 72.761728 
L 132.242727 68.789396 
L 132.834545 70.038479 
L 133.426364 65.401119 
L 134.018182 74.627676 
L 134.61 79.925597 
L 135.201818 77.300931 
L 135.793636 68.986007 
L 136.385455 76.083476 
L 136.977273 70.685819 
L 137.569091 72.820428 
L 138.160909 72.642816 
L 138.752727 74.540333 
L 139.936364 69.798601 
L 140.528182 60.062937 
L 141.12 66.689083 
L 141.711818 57.592701 
L 142.303636 57.635519 
L 142.895455 55.572879 
L 143.487273 58.196764 
L 144.079091 58.600601 
L 144.670909 67.808652 
L 145.262727 59.614972 
L 145.854545 56.775756 
L 146.446364 68.804237 
L 147.038182 65.433038 
L 147.63 68.931683 
L 148.221818 65.45596 
L 148.813636 59.908738 
L 149.405455 57.679371 
L 149.997273 52.534905 
L 150.589091 53.32277 
L 151.180909 51.45866 
L 151.772727 48.026708 
L 152.364545 41.864575 
L 152.956364 51.026957 
L 153.548182 55.967955 
L 154.14 48.456988 
L 154.731818 54.421764 
L 155.323636 64.112076 
L 155.915455 64.607046 
L 156.507273 57.863721 
L 157.099091 49.61538 
L 157.690909 58.198374 
L 158.282727 60.337923 
L 158.874545 49.130569 
L 159.466364 55.613075 
L 160.058182 57.278744 
L 160.65 64.012782 
L 161.241818 60.687476 
L 161.833636 52.072999 
L 162.425455 54.690962 
L 163.017273 48.529084 
L 163.609091 56.529572 
L 164.200909 53.63581 
L 164.792727 59.649944 
L 165.384545 63.810949 
L 165.976364 58.682614 
L 166.568182 60.063152 
L 167.16 60.286515 
L 167.751818 57.729415 
L 168.343636 60.924607 
L 168.935455 63.497024 
L 169.527273 54.507387 
L 170.119091 47.533736 
L 170.710909 54.465595 
L 171.302727 57.339043 
L 171.894545 50.952791 
L 172.486364 56.798958 
L 173.078182 66.480812 
L 173.67 56.756509 
L 174.261818 63.919716 
L 174.853636 62.077619 
L 175.445455 60.636866 
L 176.037273 65.336534 
L 176.629091 59.329087 
L 177.220909 59.298219 
L 177.812727 56.903717 
L 178.404545 72.190752 
L 178.996364 69.969818 
L 179.588182 73.092813 
L 180.18 58.196556 
L 180.771818 64.364097 
L 181.363636 58.383541 
L 181.955455 66.371763 
L 182.547273 67.928251 
L 183.139091 59.274681 
L 183.730909 55.464082 
L 184.322727 64.433637 
L 184.914545 59.383606 
L 185.506364 56.681598 
L 186.098182 60.269713 
L 186.69 66.669574 
L 187.281818 64.077041 
L 187.873636 67.207994 
L 188.465455 64.861483 
L 189.057273 57.983606 
L 189.649091 60.859284 
L 190.240909 65.763898 
L 190.832727 74.558353 
L 191.424545 66.590893 
L 192.016364 64.100068 
L 192.608182 66.189349 
L 193.2 57.463583 
L 193.791818 61.763324 
L 194.383636 59.05853 
L 194.975455 68.981377 
L 195.567273 60.502838 
L 196.750909 56.452481 
L 197.342727 60.898755 
L 197.934545 50.120355 
L 198.526364 56.839996 
L 199.118182 60.961235 
L 199.71 67.704951 
L 200.301818 64.460055 
L 200.893636 82.849824 
L 201.485455 89.374642 
L 202.077273 87.665136 
L 202.669091 99.956313 
L 203.852727 105.211466 
L 204.444545 69.150099 
L 205.036364 91.645017 
L 205.628182 104.832499 
L 206.22 105.660568 
L 207.403636 122.725161 
L 207.995455 123.771074 
L 208.587273 57.674897 
L 209.179091 91.58513 
L 209.770909 97.447055 
L 210.362727 111.777825 
L 210.954545 110.986072 
L 211.546364 115.42835 
L 212.138182 127.604769 
L 212.73 51.367822 
L 213.321818 88.32624 
L 213.913636 107.893275 
L 214.505455 115.818233 
L 215.097273 116.446375 
L 215.689091 112.216579 
L 216.280909 113.127289 
L 216.872727 72.058496 
L 217.464545 105.427039 
L 218.056364 120.97764 
L 218.648182 123.264559 
L 219.24 121.031432 
L 219.831818 134.674805 
L 220.423636 131.608531 
L 221.015455 74.339159 
L 221.607273 100.318704 
L 222.199091 114.633529 
L 222.790909 117.090434 
L 223.382727 132.939798 
L 223.974545 129.613615 
L 224.566364 129.790598 
L 225.158182 68.250416 
L 226.341818 124.203133 
L 227.525455 133.662271 
L 228.117273 131.65656 
L 228.709091 132.949335 
L 229.300909 71.101519 
L 230.484545 119.866416 
L 231.076364 127.038025 
L 231.668182 145.23381 
L 232.26 145.470822 
L 232.851818 154.278177 
L 233.443636 82.300015 
L 234.035455 117.212971 
L 234.627273 119.365635 
L 235.219091 131.704812 
L 235.810909 137.032472 
L 236.402727 141.316481 
L 236.994545 143.962219 
L 237.586364 82.272896 
L 238.178182 111.72881 
L 238.77 126.761841 
L 239.361818 131.406103 
L 239.953636 147.487081 
L 240.545455 154.347123 
L 241.137273 151.441547 
L 241.729091 94.662427 
L 242.320909 125.88063 
L 242.912727 133.662424 
L 243.504545 133.340532 
L 244.096364 141.568673 
L 244.688182 137.193788 
L 245.28 147.521308 
L 245.871818 88.523245 
L 246.463636 126.163274 
L 247.055455 121.217906 
L 247.647273 128.116928 
L 248.239091 131.915238 
L 248.830909 136.573928 
L 249.422727 139.072908 
L 250.014545 90.495892 
L 250.606364 124.779088 
L 251.198182 126.043481 
L 251.79 135.184772 
L 252.381818 137.012288 
L 252.973636 139.959901 
L 253.565455 149.342323 
L 254.157273 90.683693 
L 254.749091 119.732863 
L 255.340909 133.074056 
L 256.524545 154.999657 
L 257.116364 160.190496 
L 257.708182 151.125408 
L 258.3 91.303609 
L 258.891818 112.768142 
L 260.667273 143.912821 
L 261.259091 156.763265 
L 261.850909 163.012861 
L 262.442727 99.756813 
L 263.034545 125.928629 
L 263.626364 139.215002 
L 264.218182 135.268922 
L 264.81 143.535251 
L 265.401818 145.793628 
L 265.993636 158.267144 
L 266.585455 101.069625 
L 268.360909 156.853626 
L 268.952727 149.437151 
L 269.544545 155.66527 
L 270.136364 157.941915 
L 270.728182 129.12362 
L 271.32 134.611754 
L 271.911818 132.842669 
L 272.503636 138.605242 
L 273.095455 147.884213 
L 273.687273 150.953644 
L 274.279091 153.418307 
L 274.870909 149.810784 
L 275.462727 153.642574 
L 276.054545 149.409851 
L 276.646364 150.280711 
L 277.238182 143.133197 
L 277.83 155.841188 
L 278.421818 157.142864 
L 279.013636 156.776246 
L 279.605455 150.983611 
L 280.197273 159.610368 
L 280.789091 146.071488 
L 281.380909 154.398632 
L 281.972727 154.857983 
L 282.564545 158.347014 
L 283.156364 156.388356 
L 283.748182 159.724876 
L 284.34 146.319214 
L 284.931818 139.339349 
L 285.523636 156.895023 
L 286.115455 143.611854 
L 286.707273 158.110339 
L 287.299091 164.988658 
L 287.890909 146.41584 
L 288.482727 147.148152 
L 289.074545 146.797902 
L 289.666364 154.789378 
L 290.258182 150.710593 
L 290.85 148.186388 
L 291.441818 160.71733 
L 292.033636 145.544104 
L 292.625455 134.840863 
L 293.809091 159.550164 
L 294.400909 155.576504 
L 294.992727 164.171136 
L 295.584545 164.7391 
L 296.176364 145.483171 
L 296.768182 146.041351 
L 297.36 132.224535 
L 297.951818 140.743534 
L 298.543636 136.919717 
L 299.135455 152.969869 
L 299.727273 148.347497 
L 300.319091 130.116357 
L 300.910909 129.671972 
L 301.502727 132.762927 
L 302.094545 143.901497 
L 302.686364 138.005625 
L 303.278182 149.406408 
L 303.87 146.256835 
L 304.461818 139.492308 
L 305.053636 142.902758 
L 305.645455 140.559518 
L 306.237273 154.081515 
L 306.829091 147.194065 
L 307.420909 151.665673 
L 308.012727 159.969962 
L 309.196364 136.909424 
L 309.788182 143.592717 
L 310.38 132.353568 
L 311.563636 139.262818 
L 312.155455 148.016938 
L 312.747273 147.030116 
L 313.339091 139.409259 
L 313.930909 146.681722 
L 315.114545 139.765721 
L 315.706364 149.047037 
L 316.298182 142.329324 
L 316.89 140.466381 
L 317.481818 127.039664 
L 318.073636 138.114606 
L 318.665455 137.940081 
L 319.257273 140.140462 
L 319.849091 137.360878 
L 320.440909 139.192506 
L 321.032727 143.842601 
L 321.624545 129.329303 
L 322.216364 134.241046 
L 322.808182 128.685956 
L 323.4 121.545062 
L 323.991818 131.874074 
L 324.583636 148.427753 
L 325.175455 126.070758 
L 325.767273 140.970529 
L 326.359091 132.484914 
L 327.542727 140.156786 
L 328.134545 144.836185 
L 329.318182 138.156244 
L 329.91 141.406821 
L 330.501818 136.830773 
L 331.093636 138.842437 
L 331.685455 135.679422 
L 332.277273 134.971529 
L 332.869091 134.623728 
L 333.460909 126.516445 
L 334.052727 135.35778 
L 334.644545 138.556454 
L 335.236364 132.280821 
L 335.828182 138.628477 
L 336.42 142.920763 
L 337.011818 141.178681 
L 337.603636 134.626142 
L 338.195455 143.86651 
L 338.787273 144.041821 
L 339.379091 142.369066 
L 339.970909 139.331278 
L 340.562727 132.911106 
L 341.154545 143.543371 
L 341.746364 139.460878 
L 342.338182 145.624788 
L 342.93 156.464527 
L 343.521818 138.482096 
L 344.113636 124.341286 
L 344.705455 136.322215 
L 345.297273 137.275954 
L 345.889091 131.670684 
L 346.480909 133.327922 
L 347.072727 143.62566 
L 347.664545 140.820716 
L 348.256364 149.874317 
L 348.848182 136.237136 
L 350.031818 144.139107 
L 350.623636 141.023286 
L 351.215455 134.717928 
L 351.807273 149.055304 
L 352.399091 145.240251 
L 352.990909 139.38949 
L 353.582727 138.820768 
L 354.174545 134.815836 
L 354.766364 139.042561 
L 355.358182 134.725853 
L 355.95 143.621012 
L 356.541818 142.207063 
L 357.133636 144.005868 
L 357.725455 147.001906 
L 358.317273 132.670022 
L 358.909091 133.90983 
L 359.500909 149.398332 
L 360.092727 150.443365 
L 360.684545 148.041089 
L 361.276364 137.663195 
L 361.868182 149.489278 
L 362.46 135.717594 
L 363.051818 150.892006 
L 363.643636 140.412089 
L 364.235455 140.361235 
L 364.827273 141.896916 
L 365.419091 153.158535 
L 366.010909 157.326354 
L 366.602727 138.282599 
L 367.194545 146.574176 
L 367.786364 137.164203 
L 368.378182 135.783321 
L 368.97 147.841982 
L 369.561818 142.134906 
L 370.153636 145.233907 
L 370.745455 152.584582 
L 371.337273 150.818092 
L 371.929091 139.824275 
L 372.520909 142.987067 
L 373.112727 143.978074 
L 373.704545 146.034023 
L 374.296364 148.667872 
L 374.888182 147.68944 
L 375.48 151.383835 
L 376.071818 159.874975 
L 376.663636 147.695819 
L 377.255455 147.264794 
L 377.847273 138.870147 
L 378.439091 135.926136 
L 379.030909 141.478294 
L 379.622727 138.372883 
L 380.214545 136.068898 
L 380.806364 142.451855 
L 381.398182 146.622356 
L 381.99 142.271917 
L 382.581818 140.045487 
L 383.173636 159.444897 
L 384.357273 143.446296 
L 384.949091 139.29299 
L 385.540909 130.538929 
L 386.132727 142.093603 
L 386.724545 148.973631 
L 387.316364 143.60636 
L 387.908182 148.496665 
L 388.5 144.406278 
L 389.091818 141.759256 
L 389.683636 150.351899 
L 390.275455 152.125683 
L 390.867273 150.894015 
L 391.459091 137.76301 
L 392.050909 141.371535 
L 392.642727 149.865576 
L 393.234545 135.490518 
L 393.826364 140.619587 
L 394.418182 138.277987 
L 395.01 149.629405 
L 395.601818 129.882579 
L 396.193636 137.278602 
L 396.785455 137.591147 
L 397.377273 146.064338 
L 397.969091 144.893498 
L 398.560909 138.574375 
L 399.152727 146.859785 
L 399.744545 149.25572 
L 400.336364 145.512181 
L 400.928182 156.853744 
L 401.52 150.450741 
L 402.111818 140.833204 
L 402.703636 141.040496 
L 403.295455 148.202908 
L 403.887273 145.969606 
L 404.479091 153.071248 
L 405.662727 146.263962 
L 406.254545 139.897084 
L 406.846364 145.1659 
L 407.438182 148.661938 
L 408.03 144.096504 
L 408.621818 143.45952 
L 409.213636 147.014493 
L 409.805455 160.342991 
L 410.397273 151.803448 
L 410.989091 145.164544 
L 411.580909 153.499145 
L 412.172727 155.656789 
L 412.764545 156.024778 
L 413.356364 154.20101 
L 413.948182 147.28894 
L 415.131818 156.793109 
L 415.723636 153.077742 
L 416.315455 156.943998 
L 416.907273 152.614662 
L 417.499091 156.114251 
L 418.090909 161.980232 
L 418.682727 162.278017 
L 419.274545 152.691288 
L 419.866364 152.812219 
L 420.458182 157.012455 
L 421.05 149.287525 
L 421.641818 154.297258 
L 422.233636 162.095593 
L 422.825455 151.09722 
L 423.417273 155.425479 
L 424.009091 151.701449 
L 424.600909 143.612067 
L 425.784545 149.766473 
L 426.376364 159.751929 
L 426.968182 156.183545 
L 427.56 141.60034 
L 428.743636 148.188972 
L 429.335455 155.308992 
L 429.927273 148.23437 
L 430.519091 146.843346 
L 431.110909 152.342737 
L 431.702727 154.88277 
L 432.294545 146.266706 
L 432.886364 154.983674 
L 433.478182 147.633669 
L 434.07 156.272087 
L 434.661818 146.251756 
L 435.253636 139.200927 
L 435.845455 140.357111 
L 435.845455 140.357111 
" style="fill:none;stroke:#d62728;stroke-linecap:square;stroke-width:1.5;"/>
   </g>
   <g id="line2d_17"/>
   <g id="line2d_18"/>
   <g id="line2d_19"/>
   <g id="line2d_20"/>
   <g id="patch_3">
    <path d="M 63 192.24 
L 63 25.92 
" style="fill:none;stroke:#000000;stroke-linecap:square;stroke-linejoin:miter;stroke-width:0.8;"/>
   </g>
   <g id="patch_4">
    <path d="M 63 192.24 
L 453.6 192.24 
" style="fill:none;stroke:#000000;stroke-linecap:square;stroke-linejoin:miter;stroke-width:0.8;"/>
   </g>
   <g id="text_15">
    <!-- modeltype=full, labormarket=biased -->
    <g transform="translate(146.840625 19.92)scale(0.12 -0.12)">
     <defs>
      <path d="M 30.609375 48.390625 
Q 23.390625 48.390625 19.1875 42.75 
Q 14.984375 37.109375 14.984375 27.296875 
Q 14.984375 17.484375 19.15625 11.84375 
Q 23.34375 6.203125 30.609375 6.203125 
Q 37.796875 6.203125 41.984375 11.859375 
Q 46.1875 17.53125 46.1875 27.296875 
Q 46.1875 37.015625 41.984375 42.703125 
Q 37.796875 48.390625 30.609375 48.390625 
z
M 30.609375 56 
Q 42.328125 56 49.015625 48.375 
Q 55.71875 40.765625 55.71875 27.296875 
Q 55.71875 13.875 49.015625 6.21875 
Q 42.328125 -1.421875 30.609375 -1.421875 
Q 18.84375 -1.421875 12.171875 6.21875 
Q 5.515625 13.875 5.515625 27.296875 
Q 5.515625 40.765625 12.171875 48.375 
Q 18.84375 56 30.609375 56 
z
" id="DejaVuSans-111"/>
      <path d="M 45.40625 46.390625 
L 45.40625 75.984375 
L 54.390625 75.984375 
L 54.390625 0 
L 45.40625 0 
L 45.40625 8.203125 
Q 42.578125 3.328125 38.25 0.953125 
Q 33.9375 -1.421875 27.875 -1.421875 
Q 17.96875 -1.421875 11.734375 6.484375 
Q 5.515625 14.40625 5.515625 27.296875 
Q 5.515625 40.1875 11.734375 48.09375 
Q 17.96875 56 27.875 56 
Q 33.9375 56 38.25 53.625 
Q 42.578125 51.265625 45.40625 46.390625 
z
M 14.796875 27.296875 
Q 14.796875 17.390625 18.875 11.75 
Q 22.953125 6.109375 30.078125 6.109375 
Q 37.203125 6.109375 41.296875 11.75 
Q 45.40625 17.390625 45.40625 27.296875 
Q 45.40625 37.203125 41.296875 42.84375 
Q 37.203125 48.484375 30.078125 48.484375 
Q 22.953125 48.484375 18.875 42.84375 
Q 14.796875 37.203125 14.796875 27.296875 
z
" id="DejaVuSans-100"/>
      <path d="M 9.421875 75.984375 
L 18.40625 75.984375 
L 18.40625 0 
L 9.421875 0 
z
" id="DejaVuSans-108"/>
      <path d="M 32.171875 -5.078125 
Q 28.375 -14.84375 24.75 -17.8125 
Q 21.140625 -20.796875 15.09375 -20.796875 
L 7.90625 -20.796875 
L 7.90625 -13.28125 
L 13.1875 -13.28125 
Q 16.890625 -13.28125 18.9375 -11.515625 
Q 21 -9.765625 23.484375 -3.21875 
L 25.09375 0.875 
L 2.984375 54.6875 
L 12.5 54.6875 
L 29.59375 11.921875 
L 46.6875 54.6875 
L 56.203125 54.6875 
z
" id="DejaVuSans-121"/>
      <path d="M 18.109375 8.203125 
L 18.109375 -20.796875 
L 9.078125 -20.796875 
L 9.078125 54.6875 
L 18.109375 54.6875 
L 18.109375 46.390625 
Q 20.953125 51.265625 25.265625 53.625 
Q 29.59375 56 35.59375 56 
Q 45.5625 56 51.78125 48.09375 
Q 58.015625 40.1875 58.015625 27.296875 
Q 58.015625 14.40625 51.78125 6.484375 
Q 45.5625 -1.421875 35.59375 -1.421875 
Q 29.59375 -1.421875 25.265625 0.953125 
Q 20.953125 3.328125 18.109375 8.203125 
z
M 48.6875 27.296875 
Q 48.6875 37.203125 44.609375 42.84375 
Q 40.53125 48.484375 33.40625 48.484375 
Q 26.265625 48.484375 22.1875 42.84375 
Q 18.109375 37.203125 18.109375 27.296875 
Q 18.109375 17.390625 22.1875 11.75 
Q 26.265625 6.109375 33.40625 6.109375 
Q 40.53125 6.109375 44.609375 11.75 
Q 48.6875 17.390625 48.6875 27.296875 
z
" id="DejaVuSans-112"/>
      <path d="M 10.59375 45.40625 
L 73.1875 45.40625 
L 73.1875 37.203125 
L 10.59375 37.203125 
z
M 10.59375 25.484375 
L 73.1875 25.484375 
L 73.1875 17.1875 
L 10.59375 17.1875 
z
" id="DejaVuSans-61"/>
      <path d="M 37.109375 75.984375 
L 37.109375 68.5 
L 28.515625 68.5 
Q 23.6875 68.5 21.796875 66.546875 
Q 19.921875 64.59375 19.921875 59.515625 
L 19.921875 54.6875 
L 34.71875 54.6875 
L 34.71875 47.703125 
L 19.921875 47.703125 
L 19.921875 0 
L 10.890625 0 
L 10.890625 47.703125 
L 2.296875 47.703125 
L 2.296875 54.6875 
L 10.890625 54.6875 
L 10.890625 58.5 
Q 10.890625 67.625 15.140625 71.796875 
Q 19.390625 75.984375 28.609375 75.984375 
z
" id="DejaVuSans-102"/>
      <path d="M 8.5 21.578125 
L 8.5 54.6875 
L 17.484375 54.6875 
L 17.484375 21.921875 
Q 17.484375 14.15625 20.5 10.265625 
Q 23.53125 6.390625 29.59375 6.390625 
Q 36.859375 6.390625 41.078125 11.03125 
Q 45.3125 15.671875 45.3125 23.6875 
L 45.3125 54.6875 
L 54.296875 54.6875 
L 54.296875 0 
L 45.3125 0 
L 45.3125 8.40625 
Q 42.046875 3.421875 37.71875 1 
Q 33.40625 -1.421875 27.6875 -1.421875 
Q 18.265625 -1.421875 13.375 4.4375 
Q 8.5 10.296875 8.5 21.578125 
z
M 31.109375 56 
z
" id="DejaVuSans-117"/>
      <path d="M 11.71875 12.40625 
L 22.015625 12.40625 
L 22.015625 4 
L 14.015625 -11.625 
L 7.71875 -11.625 
L 11.71875 4 
z
" id="DejaVuSans-44"/>
      <path id="DejaVuSans-32"/>
      <path d="M 34.28125 27.484375 
Q 23.390625 27.484375 19.1875 25 
Q 14.984375 22.515625 14.984375 16.5 
Q 14.984375 11.71875 18.140625 8.90625 
Q 21.296875 6.109375 26.703125 6.109375 
Q 34.1875 6.109375 38.703125 11.40625 
Q 43.21875 16.703125 43.21875 25.484375 
L 43.21875 27.484375 
z
M 52.203125 31.203125 
L 52.203125 0 
L 43.21875 0 
L 43.21875 8.296875 
Q 40.140625 3.328125 35.546875 0.953125 
Q 30.953125 -1.421875 24.3125 -1.421875 
Q 15.921875 -1.421875 10.953125 3.296875 
Q 6 8.015625 6 15.921875 
Q 6 25.140625 12.171875 29.828125 
Q 18.359375 34.515625 30.609375 34.515625 
L 43.21875 34.515625 
L 43.21875 35.40625 
Q 43.21875 41.609375 39.140625 45 
Q 35.0625 48.390625 27.6875 48.390625 
Q 23 48.390625 18.546875 47.265625 
Q 14.109375 46.140625 10.015625 43.890625 
L 10.015625 52.203125 
Q 14.9375 54.109375 19.578125 55.046875 
Q 24.21875 56 28.609375 56 
Q 40.484375 56 46.34375 49.84375 
Q 52.203125 43.703125 52.203125 31.203125 
z
" id="DejaVuSans-97"/>
      <path d="M 48.6875 27.296875 
Q 48.6875 37.203125 44.609375 42.84375 
Q 40.53125 48.484375 33.40625 48.484375 
Q 26.265625 48.484375 22.1875 42.84375 
Q 18.109375 37.203125 18.109375 27.296875 
Q 18.109375 17.390625 22.1875 11.75 
Q 26.265625 6.109375 33.40625 6.109375 
Q 40.53125 6.109375 44.609375 11.75 
Q 48.6875 17.390625 48.6875 27.296875 
z
M 18.109375 46.390625 
Q 20.953125 51.265625 25.265625 53.625 
Q 29.59375 56 35.59375 56 
Q 45.5625 56 51.78125 48.09375 
Q 58.015625 40.1875 58.015625 27.296875 
Q 58.015625 14.40625 51.78125 6.484375 
Q 45.5625 -1.421875 35.59375 -1.421875 
Q 29.59375 -1.421875 25.265625 0.953125 
Q 20.953125 3.328125 18.109375 8.203125 
L 18.109375 0 
L 9.078125 0 
L 9.078125 75.984375 
L 18.109375 75.984375 
z
" id="DejaVuSans-98"/>
      <path d="M 41.109375 46.296875 
Q 39.59375 47.171875 37.8125 47.578125 
Q 36.03125 48 33.890625 48 
Q 26.265625 48 22.1875 43.046875 
Q 18.109375 38.09375 18.109375 28.8125 
L 18.109375 0 
L 9.078125 0 
L 9.078125 54.6875 
L 18.109375 54.6875 
L 18.109375 46.1875 
Q 20.953125 51.171875 25.484375 53.578125 
Q 30.03125 56 36.53125 56 
Q 37.453125 56 38.578125 55.875 
Q 39.703125 55.765625 41.0625 55.515625 
z
" id="DejaVuSans-114"/>
      <path d="M 9.078125 75.984375 
L 18.109375 75.984375 
L 18.109375 31.109375 
L 44.921875 54.6875 
L 56.390625 54.6875 
L 27.390625 29.109375 
L 57.625 0 
L 45.90625 0 
L 18.109375 26.703125 
L 18.109375 0 
L 9.078125 0 
z
" id="DejaVuSans-107"/>
      <path d="M 44.28125 53.078125 
L 44.28125 44.578125 
Q 40.484375 46.53125 36.375 47.5 
Q 32.28125 48.484375 27.875 48.484375 
Q 21.1875 48.484375 17.84375 46.4375 
Q 14.5 44.390625 14.5 40.28125 
Q 14.5 37.15625 16.890625 35.375 
Q 19.28125 33.59375 26.515625 31.984375 
L 29.59375 31.296875 
Q 39.15625 29.25 43.1875 25.515625 
Q 47.21875 21.78125 47.21875 15.09375 
Q 47.21875 7.46875 41.1875 3.015625 
Q 35.15625 -1.421875 24.609375 -1.421875 
Q 20.21875 -1.421875 15.453125 -0.5625 
Q 10.6875 0.296875 5.421875 2 
L 5.421875 11.28125 
Q 10.40625 8.6875 15.234375 7.390625 
Q 20.0625 6.109375 24.8125 6.109375 
Q 31.15625 6.109375 34.5625 8.28125 
Q 37.984375 10.453125 37.984375 14.40625 
Q 37.984375 18.0625 35.515625 20.015625 
Q 33.0625 21.96875 24.703125 23.78125 
L 21.578125 24.515625 
Q 13.234375 26.265625 9.515625 29.90625 
Q 5.8125 33.546875 5.8125 39.890625 
Q 5.8125 47.609375 11.28125 51.796875 
Q 16.75 56 26.8125 56 
Q 31.78125 56 36.171875 55.265625 
Q 40.578125 54.546875 44.28125 53.078125 
z
" id="DejaVuSans-115"/>
     </defs>
     <use xlink:href="#DejaVuSans-109"/>
     <use x="97.412109" xlink:href="#DejaVuSans-111"/>
     <use x="158.59375" xlink:href="#DejaVuSans-100"/>
     <use x="222.070312" xlink:href="#DejaVuSans-101"/>
     <use x="283.59375" xlink:href="#DejaVuSans-108"/>
     <use x="311.376953" xlink:href="#DejaVuSans-116"/>
     <use x="350.585938" xlink:href="#DejaVuSans-121"/>
     <use x="409.765625" xlink:href="#DejaVuSans-112"/>
     <use x="473.242188" xlink:href="#DejaVuSans-101"/>
     <use x="534.765625" xlink:href="#DejaVuSans-61"/>
     <use x="618.554688" xlink:href="#DejaVuSans-102"/>
     <use x="653.759766" xlink:href="#DejaVuSans-117"/>
     <use x="717.138672" xlink:href="#DejaVuSans-108"/>
     <use x="744.921875" xlink:href="#DejaVuSans-108"/>
     <use x="772.705078" xlink:href="#DejaVuSans-44"/>
     <use x="804.492188" xlink:href="#DejaVuSans-32"/>
     <use x="836.279297" xlink:href="#DejaVuSans-108"/>
     <use x="864.0625" xlink:href="#DejaVuSans-97"/>
     <use x="925.341797" xlink:href="#DejaVuSans-98"/>
     <use x="988.818359" xlink:href="#DejaVuSans-111"/>
     <use x="1050" xlink:href="#DejaVuSans-114"/>
     <use x="1089.363281" xlink:href="#DejaVuSans-109"/>
     <use x="1186.775391" xlink:href="#DejaVuSans-97"/>
     <use x="1248.054688" xlink:href="#DejaVuSans-114"/>
     <use x="1289.167969" xlink:href="#DejaVuSans-107"/>
     <use x="1343.453125" xlink:href="#DejaVuSans-101"/>
     <use x="1404.976562" xlink:href="#DejaVuSans-116"/>
     <use x="1444.185547" xlink:href="#DejaVuSans-61"/>
     <use x="1527.974609" xlink:href="#DejaVuSans-98"/>
     <use x="1591.451172" xlink:href="#DejaVuSans-105"/>
     <use x="1619.234375" xlink:href="#DejaVuSans-97"/>
     <use x="1680.513672" xlink:href="#DejaVuSans-115"/>
     <use x="1732.613281" xlink:href="#DejaVuSans-101"/>
     <use x="1794.136719" xlink:href="#DejaVuSans-100"/>
    </g>
   </g>
   <g id="legend_1">
    <g id="patch_5">
     <path d="M 70 187.24 
L 235.407813 187.24 
Q 237.407813 187.24 237.407813 185.24 
L 237.407813 112.57125 
Q 237.407813 110.57125 235.407813 110.57125 
L 70 110.57125 
Q 68 110.57125 68 112.57125 
L 68 185.24 
Q 68 187.24 70 187.24 
z
" style="fill:#ffffff;opacity:0.8;stroke:#cccccc;stroke-linejoin:miter;"/>
    </g>
    <g id="text_16">
     <!-- scenario -->
     <g transform="translate(131.536719 122.169687)scale(0.1 -0.1)">
      <defs>
       <path d="M 48.78125 52.59375 
L 48.78125 44.1875 
Q 44.96875 46.296875 41.140625 47.34375 
Q 37.3125 48.390625 33.40625 48.390625 
Q 24.65625 48.390625 19.8125 42.84375 
Q 14.984375 37.3125 14.984375 27.296875 
Q 14.984375 17.28125 19.8125 11.734375 
Q 24.65625 6.203125 33.40625 6.203125 
Q 37.3125 6.203125 41.140625 7.25 
Q 44.96875 8.296875 48.78125 10.40625 
L 48.78125 2.09375 
Q 45.015625 0.34375 40.984375 -0.53125 
Q 36.96875 -1.421875 32.421875 -1.421875 
Q 20.0625 -1.421875 12.78125 6.34375 
Q 5.515625 14.109375 5.515625 27.296875 
Q 5.515625 40.671875 12.859375 48.328125 
Q 20.21875 56 33.015625 56 
Q 37.15625 56 41.109375 55.140625 
Q 45.0625 54.296875 48.78125 52.59375 
z
" id="DejaVuSans-99"/>
       <path d="M 54.890625 33.015625 
L 54.890625 0 
L 45.90625 0 
L 45.90625 32.71875 
Q 45.90625 40.484375 42.875 44.328125 
Q 39.84375 48.1875 33.796875 48.1875 
Q 26.515625 48.1875 22.3125 43.546875 
Q 18.109375 38.921875 18.109375 30.90625 
L 18.109375 0 
L 9.078125 0 
L 9.078125 54.6875 
L 18.109375 54.6875 
L 18.109375 46.1875 
Q 21.34375 51.125 25.703125 53.5625 
Q 30.078125 56 35.796875 56 
Q 45.21875 56 50.046875 50.171875 
Q 54.890625 44.34375 54.890625 33.015625 
z
" id="DejaVuSans-110"/>
      </defs>
      <use xlink:href="#DejaVuSans-115"/>
      <use x="52.099609" xlink:href="#DejaVuSans-99"/>
      <use x="107.080078" xlink:href="#DejaVuSans-101"/>
      <use x="168.603516" xlink:href="#DejaVuSans-110"/>
      <use x="231.982422" xlink:href="#DejaVuSans-97"/>
      <use x="293.261719" xlink:href="#DejaVuSans-114"/>
      <use x="334.375" xlink:href="#DejaVuSans-105"/>
      <use x="362.158203" xlink:href="#DejaVuSans-111"/>
     </g>
    </g>
    <g id="line2d_21">
     <path d="M 72 133.347812 
L 92 133.347812 
" style="fill:none;stroke:#1f77b4;stroke-linecap:square;stroke-width:1.5;"/>
    </g>
    <g id="line2d_22"/>
    <g id="text_17">
     <!-- onlylow -->
     <g transform="translate(100 136.847812)scale(0.1 -0.1)">
      <defs>
       <path d="M 4.203125 54.6875 
L 13.1875 54.6875 
L 24.421875 12.015625 
L 35.59375 54.6875 
L 46.1875 54.6875 
L 57.421875 12.015625 
L 68.609375 54.6875 
L 77.59375 54.6875 
L 63.28125 0 
L 52.6875 0 
L 40.921875 44.828125 
L 29.109375 0 
L 18.5 0 
z
" id="DejaVuSans-119"/>
      </defs>
      <use xlink:href="#DejaVuSans-111"/>
      <use x="61.181641" xlink:href="#DejaVuSans-110"/>
      <use x="124.560547" xlink:href="#DejaVuSans-108"/>
      <use x="152.34375" xlink:href="#DejaVuSans-121"/>
      <use x="211.523438" xlink:href="#DejaVuSans-108"/>
      <use x="239.306641" xlink:href="#DejaVuSans-111"/>
      <use x="300.488281" xlink:href="#DejaVuSans-119"/>
     </g>
    </g>
    <g id="line2d_23">
     <path d="M 72 148.025937 
L 92 148.025937 
" style="fill:none;stroke:#ff7f0e;stroke-linecap:square;stroke-width:1.5;"/>
    </g>
    <g id="line2d_24"/>
    <g id="text_18">
     <!-- onlyhigh -->
     <g transform="translate(100 151.525937)scale(0.1 -0.1)">
      <defs>
       <path d="M 54.890625 33.015625 
L 54.890625 0 
L 45.90625 0 
L 45.90625 32.71875 
Q 45.90625 40.484375 42.875 44.328125 
Q 39.84375 48.1875 33.796875 48.1875 
Q 26.515625 48.1875 22.3125 43.546875 
Q 18.109375 38.921875 18.109375 30.90625 
L 18.109375 0 
L 9.078125 0 
L 9.078125 75.984375 
L 18.109375 75.984375 
L 18.109375 46.1875 
Q 21.34375 51.125 25.703125 53.5625 
Q 30.078125 56 35.796875 56 
Q 45.21875 56 50.046875 50.171875 
Q 54.890625 44.34375 54.890625 33.015625 
z
" id="DejaVuSans-104"/>
       <path d="M 45.40625 27.984375 
Q 45.40625 37.75 41.375 43.109375 
Q 37.359375 48.484375 30.078125 48.484375 
Q 22.859375 48.484375 18.828125 43.109375 
Q 14.796875 37.75 14.796875 27.984375 
Q 14.796875 18.265625 18.828125 12.890625 
Q 22.859375 7.515625 30.078125 7.515625 
Q 37.359375 7.515625 41.375 12.890625 
Q 45.40625 18.265625 45.40625 27.984375 
z
M 54.390625 6.78125 
Q 54.390625 -7.171875 48.1875 -13.984375 
Q 42 -20.796875 29.203125 -20.796875 
Q 24.46875 -20.796875 20.265625 -20.09375 
Q 16.0625 -19.390625 12.109375 -17.921875 
L 12.109375 -9.1875 
Q 16.0625 -11.328125 19.921875 -12.34375 
Q 23.78125 -13.375 27.78125 -13.375 
Q 36.625 -13.375 41.015625 -8.765625 
Q 45.40625 -4.15625 45.40625 5.171875 
L 45.40625 9.625 
Q 42.625 4.78125 38.28125 2.390625 
Q 33.9375 0 27.875 0 
Q 17.828125 0 11.671875 7.65625 
Q 5.515625 15.328125 5.515625 27.984375 
Q 5.515625 40.671875 11.671875 48.328125 
Q 17.828125 56 27.875 56 
Q 33.9375 56 38.28125 53.609375 
Q 42.625 51.21875 45.40625 46.390625 
L 45.40625 54.6875 
L 54.390625 54.6875 
z
" id="DejaVuSans-103"/>
      </defs>
      <use xlink:href="#DejaVuSans-111"/>
      <use x="61.181641" xlink:href="#DejaVuSans-110"/>
      <use x="124.560547" xlink:href="#DejaVuSans-108"/>
      <use x="152.34375" xlink:href="#DejaVuSans-121"/>
      <use x="211.523438" xlink:href="#DejaVuSans-104"/>
      <use x="274.902344" xlink:href="#DejaVuSans-105"/>
      <use x="302.685547" xlink:href="#DejaVuSans-103"/>
      <use x="366.162109" xlink:href="#DejaVuSans-104"/>
     </g>
    </g>
    <g id="line2d_25">
     <path d="M 72 162.704062 
L 92 162.704062 
" style="fill:none;stroke:#2ca02c;stroke-linecap:square;stroke-width:1.5;"/>
    </g>
    <g id="line2d_26"/>
    <g id="text_19">
     <!-- balanced -->
     <g transform="translate(100 166.204062)scale(0.1 -0.1)">
      <use xlink:href="#DejaVuSans-98"/>
      <use x="63.476562" xlink:href="#DejaVuSans-97"/>
      <use x="124.755859" xlink:href="#DejaVuSans-108"/>
      <use x="152.539062" xlink:href="#DejaVuSans-97"/>
      <use x="213.818359" xlink:href="#DejaVuSans-110"/>
      <use x="277.197266" xlink:href="#DejaVuSans-99"/>
      <use x="332.177734" xlink:href="#DejaVuSans-101"/>
      <use x="393.701172" xlink:href="#DejaVuSans-100"/>
     </g>
    </g>
    <g id="line2d_27">
     <path d="M 72 177.382187 
L 92 177.382187 
" style="fill:none;stroke:#d62728;stroke-linecap:square;stroke-width:1.5;"/>
    </g>
    <g id="line2d_28"/>
    <g id="text_20">
     <!-- balanced_errors_penalized -->
     <g transform="translate(100 180.882187)scale(0.1 -0.1)">
      <defs>
       <path d="M 50.984375 -16.609375 
L 50.984375 -23.578125 
L -0.984375 -23.578125 
L -0.984375 -16.609375 
z
" id="DejaVuSans-95"/>
       <path d="M 5.515625 54.6875 
L 48.1875 54.6875 
L 48.1875 46.484375 
L 14.40625 7.171875 
L 48.1875 7.171875 
L 48.1875 0 
L 4.296875 0 
L 4.296875 8.203125 
L 38.09375 47.515625 
L 5.515625 47.515625 
z
" id="DejaVuSans-122"/>
      </defs>
      <use xlink:href="#DejaVuSans-98"/>
      <use x="63.476562" xlink:href="#DejaVuSans-97"/>
      <use x="124.755859" xlink:href="#DejaVuSans-108"/>
      <use x="152.539062" xlink:href="#DejaVuSans-97"/>
      <use x="213.818359" xlink:href="#DejaVuSans-110"/>
      <use x="277.197266" xlink:href="#DejaVuSans-99"/>
      <use x="332.177734" xlink:href="#DejaVuSans-101"/>
      <use x="393.701172" xlink:href="#DejaVuSans-100"/>
      <use x="457.177734" xlink:href="#DejaVuSans-95"/>
      <use x="507.177734" xlink:href="#DejaVuSans-101"/>
      <use x="568.701172" xlink:href="#DejaVuSans-114"/>
      <use x="608.064453" xlink:href="#DejaVuSans-114"/>
      <use x="646.927734" xlink:href="#DejaVuSans-111"/>
      <use x="708.109375" xlink:href="#DejaVuSans-114"/>
      <use x="749.222656" xlink:href="#DejaVuSans-115"/>
      <use x="801.322266" xlink:href="#DejaVuSans-95"/>
      <use x="851.322266" xlink:href="#DejaVuSans-112"/>
      <use x="914.798828" xlink:href="#DejaVuSans-101"/>
      <use x="976.322266" xlink:href="#DejaVuSans-110"/>
      <use x="1039.701172" xlink:href="#DejaVuSans-97"/>
      <use x="1100.980469" xlink:href="#DejaVuSans-108"/>
      <use x="1128.763672" xlink:href="#DejaVuSans-105"/>
      <use x="1156.546875" xlink:href="#DejaVuSans-122"/>
      <use x="1209.037109" xlink:href="#DejaVuSans-101"/>
      <use x="1270.560547" xlink:href="#DejaVuSans-100"/>
     </g>
    </g>
   </g>
  </g>
 </g>
 <defs>
  <clipPath id="pf53e5c61cf">
   <rect height="166.32" width="390.6" x="63" y="25.92"/>
  </clipPath>
 </defs>
</svg>
