<?xml version="1.0" encoding="utf-8" standalone="no"?>
<!DOCTYPE svg PUBLIC "-//W3C//DTD SVG 1.1//EN"
  "http://www.w3.org/Graphics/SVG/1.1/DTD/svg11.dtd">
<!-- Created with matplotlib (https://matplotlib.org/) -->
<svg height="216pt" version="1.1" viewBox="0 0 504 216" width="504pt" xmlns="http://www.w3.org/2000/svg" xmlns:xlink="http://www.w3.org/1999/xlink">
 <metadata>
  <rdf:RDF xmlns:cc="http://creativecommons.org/ns#" xmlns:dc="http://purl.org/dc/elements/1.1/" xmlns:rdf="http://www.w3.org/1999/02/22-rdf-syntax-ns#">
   <cc:Work>
    <dc:type rdf:resource="http://purl.org/dc/dcmitype/StillImage"/>
    <dc:date>2022-01-19T13:53:35.048040</dc:date>
    <dc:format>image/svg+xml</dc:format>
    <dc:creator>
     <cc:Agent>
      <dc:title>Matplotlib v3.3.4, https://matplotlib.org/</dc:title>
     </cc:Agent>
    </dc:creator>
   </cc:Work>
  </rdf:RDF>
 </metadata>
 <defs>
  <style type="text/css">*{stroke-linecap:butt;stroke-linejoin:round;}</style>
 </defs>
 <g id="figure_1">
  <g id="patch_1">
   <path d="M 0 216 
L 504 216 
L 504 0 
L 0 0 
z
" style="fill:#ffffff;"/>
  </g>
  <g id="axes_1">
   <g id="patch_2">
    <path d="M 63 192.24 
L 453.6 192.24 
L 453.6 25.92 
L 63 25.92 
z
" style="fill:#ffffff;"/>
   </g>
   <g id="matplotlib.axis_1">
    <g id="xtick_1">
     <g id="line2d_1">
      <defs>
       <path d="M 0 0 
L 0 3.5 
" id="m798feb576f" style="stroke:#000000;stroke-width:0.8;"/>
      </defs>
      <g>
       <use style="stroke:#000000;stroke-width:0.8;" x="81.346364" xlink:href="#m798feb576f" y="192.24"/>
      </g>
     </g>
     <g id="text_1">
      <!-- 200 -->
      <g transform="translate(71.802614 206.838437)scale(0.1 -0.1)">
       <defs>
        <path d="M 19.1875 8.296875 
L 53.609375 8.296875 
L 53.609375 0 
L 7.328125 0 
L 7.328125 8.296875 
Q 12.9375 14.109375 22.625 23.890625 
Q 32.328125 33.6875 34.8125 36.53125 
Q 39.546875 41.84375 41.421875 45.53125 
Q 43.3125 49.21875 43.3125 52.78125 
Q 43.3125 58.59375 39.234375 62.25 
Q 35.15625 65.921875 28.609375 65.921875 
Q 23.96875 65.921875 18.8125 64.3125 
Q 13.671875 62.703125 7.8125 59.421875 
L 7.8125 69.390625 
Q 13.765625 71.78125 18.9375 73 
Q 24.125 74.21875 28.421875 74.21875 
Q 39.75 74.21875 46.484375 68.546875 
Q 53.21875 62.890625 53.21875 53.421875 
Q 53.21875 48.921875 51.53125 44.890625 
Q 49.859375 40.875 45.40625 35.40625 
Q 44.1875 33.984375 37.640625 27.21875 
Q 31.109375 20.453125 19.1875 8.296875 
z
" id="DejaVuSans-50"/>
        <path d="M 31.78125 66.40625 
Q 24.171875 66.40625 20.328125 58.90625 
Q 16.5 51.421875 16.5 36.375 
Q 16.5 21.390625 20.328125 13.890625 
Q 24.171875 6.390625 31.78125 6.390625 
Q 39.453125 6.390625 43.28125 13.890625 
Q 47.125 21.390625 47.125 36.375 
Q 47.125 51.421875 43.28125 58.90625 
Q 39.453125 66.40625 31.78125 66.40625 
z
M 31.78125 74.21875 
Q 44.046875 74.21875 50.515625 64.515625 
Q 56.984375 54.828125 56.984375 36.375 
Q 56.984375 17.96875 50.515625 8.265625 
Q 44.046875 -1.421875 31.78125 -1.421875 
Q 19.53125 -1.421875 13.0625 8.265625 
Q 6.59375 17.96875 6.59375 36.375 
Q 6.59375 54.828125 13.0625 64.515625 
Q 19.53125 74.21875 31.78125 74.21875 
z
" id="DejaVuSans-48"/>
       </defs>
       <use xlink:href="#DejaVuSans-50"/>
       <use x="63.623047" xlink:href="#DejaVuSans-48"/>
       <use x="127.246094" xlink:href="#DejaVuSans-48"/>
      </g>
     </g>
    </g>
    <g id="xtick_2">
     <g id="line2d_2">
      <g>
       <use style="stroke:#000000;stroke-width:0.8;" x="140.528182" xlink:href="#m798feb576f" y="192.24"/>
      </g>
     </g>
     <g id="text_2">
      <!-- 300 -->
      <g transform="translate(130.984432 206.838437)scale(0.1 -0.1)">
       <defs>
        <path d="M 40.578125 39.3125 
Q 47.65625 37.796875 51.625 33 
Q 55.609375 28.21875 55.609375 21.1875 
Q 55.609375 10.40625 48.1875 4.484375 
Q 40.765625 -1.421875 27.09375 -1.421875 
Q 22.515625 -1.421875 17.65625 -0.515625 
Q 12.796875 0.390625 7.625 2.203125 
L 7.625 11.71875 
Q 11.71875 9.328125 16.59375 8.109375 
Q 21.484375 6.890625 26.8125 6.890625 
Q 36.078125 6.890625 40.9375 10.546875 
Q 45.796875 14.203125 45.796875 21.1875 
Q 45.796875 27.640625 41.28125 31.265625 
Q 36.765625 34.90625 28.71875 34.90625 
L 20.21875 34.90625 
L 20.21875 43.015625 
L 29.109375 43.015625 
Q 36.375 43.015625 40.234375 45.921875 
Q 44.09375 48.828125 44.09375 54.296875 
Q 44.09375 59.90625 40.109375 62.90625 
Q 36.140625 65.921875 28.71875 65.921875 
Q 24.65625 65.921875 20.015625 65.03125 
Q 15.375 64.15625 9.8125 62.3125 
L 9.8125 71.09375 
Q 15.4375 72.65625 20.34375 73.4375 
Q 25.25 74.21875 29.59375 74.21875 
Q 40.828125 74.21875 47.359375 69.109375 
Q 53.90625 64.015625 53.90625 55.328125 
Q 53.90625 49.265625 50.4375 45.09375 
Q 46.96875 40.921875 40.578125 39.3125 
z
" id="DejaVuSans-51"/>
       </defs>
       <use xlink:href="#DejaVuSans-51"/>
       <use x="63.623047" xlink:href="#DejaVuSans-48"/>
       <use x="127.246094" xlink:href="#DejaVuSans-48"/>
      </g>
     </g>
    </g>
    <g id="xtick_3">
     <g id="line2d_3">
      <g>
       <use style="stroke:#000000;stroke-width:0.8;" x="199.71" xlink:href="#m798feb576f" y="192.24"/>
      </g>
     </g>
     <g id="text_3">
      <!-- 400 -->
      <g transform="translate(190.16625 206.838437)scale(0.1 -0.1)">
       <defs>
        <path d="M 37.796875 64.3125 
L 12.890625 25.390625 
L 37.796875 25.390625 
z
M 35.203125 72.90625 
L 47.609375 72.90625 
L 47.609375 25.390625 
L 58.015625 25.390625 
L 58.015625 17.1875 
L 47.609375 17.1875 
L 47.609375 0 
L 37.796875 0 
L 37.796875 17.1875 
L 4.890625 17.1875 
L 4.890625 26.703125 
z
" id="DejaVuSans-52"/>
       </defs>
       <use xlink:href="#DejaVuSans-52"/>
       <use x="63.623047" xlink:href="#DejaVuSans-48"/>
       <use x="127.246094" xlink:href="#DejaVuSans-48"/>
      </g>
     </g>
    </g>
    <g id="xtick_4">
     <g id="line2d_4">
      <g>
       <use style="stroke:#000000;stroke-width:0.8;" x="258.891818" xlink:href="#m798feb576f" y="192.24"/>
      </g>
     </g>
     <g id="text_4">
      <!-- 500 -->
      <g transform="translate(249.348068 206.838437)scale(0.1 -0.1)">
       <defs>
        <path d="M 10.796875 72.90625 
L 49.515625 72.90625 
L 49.515625 64.59375 
L 19.828125 64.59375 
L 19.828125 46.734375 
Q 21.96875 47.46875 24.109375 47.828125 
Q 26.265625 48.1875 28.421875 48.1875 
Q 40.625 48.1875 47.75 41.5 
Q 54.890625 34.8125 54.890625 23.390625 
Q 54.890625 11.625 47.5625 5.09375 
Q 40.234375 -1.421875 26.90625 -1.421875 
Q 22.3125 -1.421875 17.546875 -0.640625 
Q 12.796875 0.140625 7.71875 1.703125 
L 7.71875 11.625 
Q 12.109375 9.234375 16.796875 8.0625 
Q 21.484375 6.890625 26.703125 6.890625 
Q 35.15625 6.890625 40.078125 11.328125 
Q 45.015625 15.765625 45.015625 23.390625 
Q 45.015625 31 40.078125 35.4375 
Q 35.15625 39.890625 26.703125 39.890625 
Q 22.75 39.890625 18.8125 39.015625 
Q 14.890625 38.140625 10.796875 36.28125 
z
" id="DejaVuSans-53"/>
       </defs>
       <use xlink:href="#DejaVuSans-53"/>
       <use x="63.623047" xlink:href="#DejaVuSans-48"/>
       <use x="127.246094" xlink:href="#DejaVuSans-48"/>
      </g>
     </g>
    </g>
    <g id="xtick_5">
     <g id="line2d_5">
      <g>
       <use style="stroke:#000000;stroke-width:0.8;" x="318.073636" xlink:href="#m798feb576f" y="192.24"/>
      </g>
     </g>
     <g id="text_5">
      <!-- 600 -->
      <g transform="translate(308.529886 206.838437)scale(0.1 -0.1)">
       <defs>
        <path d="M 33.015625 40.375 
Q 26.375 40.375 22.484375 35.828125 
Q 18.609375 31.296875 18.609375 23.390625 
Q 18.609375 15.53125 22.484375 10.953125 
Q 26.375 6.390625 33.015625 6.390625 
Q 39.65625 6.390625 43.53125 10.953125 
Q 47.40625 15.53125 47.40625 23.390625 
Q 47.40625 31.296875 43.53125 35.828125 
Q 39.65625 40.375 33.015625 40.375 
z
M 52.59375 71.296875 
L 52.59375 62.3125 
Q 48.875 64.0625 45.09375 64.984375 
Q 41.3125 65.921875 37.59375 65.921875 
Q 27.828125 65.921875 22.671875 59.328125 
Q 17.53125 52.734375 16.796875 39.40625 
Q 19.671875 43.65625 24.015625 45.921875 
Q 28.375 48.1875 33.59375 48.1875 
Q 44.578125 48.1875 50.953125 41.515625 
Q 57.328125 34.859375 57.328125 23.390625 
Q 57.328125 12.15625 50.6875 5.359375 
Q 44.046875 -1.421875 33.015625 -1.421875 
Q 20.359375 -1.421875 13.671875 8.265625 
Q 6.984375 17.96875 6.984375 36.375 
Q 6.984375 53.65625 15.1875 63.9375 
Q 23.390625 74.21875 37.203125 74.21875 
Q 40.921875 74.21875 44.703125 73.484375 
Q 48.484375 72.75 52.59375 71.296875 
z
" id="DejaVuSans-54"/>
       </defs>
       <use xlink:href="#DejaVuSans-54"/>
       <use x="63.623047" xlink:href="#DejaVuSans-48"/>
       <use x="127.246094" xlink:href="#DejaVuSans-48"/>
      </g>
     </g>
    </g>
    <g id="xtick_6">
     <g id="line2d_6">
      <g>
       <use style="stroke:#000000;stroke-width:0.8;" x="377.255455" xlink:href="#m798feb576f" y="192.24"/>
      </g>
     </g>
     <g id="text_6">
      <!-- 700 -->
      <g transform="translate(367.711705 206.838437)scale(0.1 -0.1)">
       <defs>
        <path d="M 8.203125 72.90625 
L 55.078125 72.90625 
L 55.078125 68.703125 
L 28.609375 0 
L 18.3125 0 
L 43.21875 64.59375 
L 8.203125 64.59375 
z
" id="DejaVuSans-55"/>
       </defs>
       <use xlink:href="#DejaVuSans-55"/>
       <use x="63.623047" xlink:href="#DejaVuSans-48"/>
       <use x="127.246094" xlink:href="#DejaVuSans-48"/>
      </g>
     </g>
    </g>
    <g id="xtick_7">
     <g id="line2d_7">
      <g>
       <use style="stroke:#000000;stroke-width:0.8;" x="436.437273" xlink:href="#m798feb576f" y="192.24"/>
      </g>
     </g>
     <g id="text_7">
      <!-- 800 -->
      <g transform="translate(426.893523 206.838437)scale(0.1 -0.1)">
       <defs>
        <path d="M 31.78125 34.625 
Q 24.75 34.625 20.71875 30.859375 
Q 16.703125 27.09375 16.703125 20.515625 
Q 16.703125 13.921875 20.71875 10.15625 
Q 24.75 6.390625 31.78125 6.390625 
Q 38.8125 6.390625 42.859375 10.171875 
Q 46.921875 13.96875 46.921875 20.515625 
Q 46.921875 27.09375 42.890625 30.859375 
Q 38.875 34.625 31.78125 34.625 
z
M 21.921875 38.8125 
Q 15.578125 40.375 12.03125 44.71875 
Q 8.5 49.078125 8.5 55.328125 
Q 8.5 64.0625 14.71875 69.140625 
Q 20.953125 74.21875 31.78125 74.21875 
Q 42.671875 74.21875 48.875 69.140625 
Q 55.078125 64.0625 55.078125 55.328125 
Q 55.078125 49.078125 51.53125 44.71875 
Q 48 40.375 41.703125 38.8125 
Q 48.828125 37.15625 52.796875 32.3125 
Q 56.78125 27.484375 56.78125 20.515625 
Q 56.78125 9.90625 50.3125 4.234375 
Q 43.84375 -1.421875 31.78125 -1.421875 
Q 19.734375 -1.421875 13.25 4.234375 
Q 6.78125 9.90625 6.78125 20.515625 
Q 6.78125 27.484375 10.78125 32.3125 
Q 14.796875 37.15625 21.921875 38.8125 
z
M 18.3125 54.390625 
Q 18.3125 48.734375 21.84375 45.5625 
Q 25.390625 42.390625 31.78125 42.390625 
Q 38.140625 42.390625 41.71875 45.5625 
Q 45.3125 48.734375 45.3125 54.390625 
Q 45.3125 60.0625 41.71875 63.234375 
Q 38.140625 66.40625 31.78125 66.40625 
Q 25.390625 66.40625 21.84375 63.234375 
Q 18.3125 60.0625 18.3125 54.390625 
z
" id="DejaVuSans-56"/>
       </defs>
       <use xlink:href="#DejaVuSans-56"/>
       <use x="63.623047" xlink:href="#DejaVuSans-48"/>
       <use x="127.246094" xlink:href="#DejaVuSans-48"/>
      </g>
     </g>
    </g>
    <g id="text_8">
     <!-- time -->
     <g transform="translate(247.003906 220.516562)scale(0.1 -0.1)">
      <defs>
       <path d="M 18.3125 70.21875 
L 18.3125 54.6875 
L 36.8125 54.6875 
L 36.8125 47.703125 
L 18.3125 47.703125 
L 18.3125 18.015625 
Q 18.3125 11.328125 20.140625 9.421875 
Q 21.96875 7.515625 27.59375 7.515625 
L 36.8125 7.515625 
L 36.8125 0 
L 27.59375 0 
Q 17.1875 0 13.234375 3.875 
Q 9.28125 7.765625 9.28125 18.015625 
L 9.28125 47.703125 
L 2.6875 47.703125 
L 2.6875 54.6875 
L 9.28125 54.6875 
L 9.28125 70.21875 
z
" id="DejaVuSans-116"/>
       <path d="M 9.421875 54.6875 
L 18.40625 54.6875 
L 18.40625 0 
L 9.421875 0 
z
M 9.421875 75.984375 
L 18.40625 75.984375 
L 18.40625 64.59375 
L 9.421875 64.59375 
z
" id="DejaVuSans-105"/>
       <path d="M 52 44.1875 
Q 55.375 50.25 60.0625 53.125 
Q 64.75 56 71.09375 56 
Q 79.640625 56 84.28125 50.015625 
Q 88.921875 44.046875 88.921875 33.015625 
L 88.921875 0 
L 79.890625 0 
L 79.890625 32.71875 
Q 79.890625 40.578125 77.09375 44.375 
Q 74.3125 48.1875 68.609375 48.1875 
Q 61.625 48.1875 57.5625 43.546875 
Q 53.515625 38.921875 53.515625 30.90625 
L 53.515625 0 
L 44.484375 0 
L 44.484375 32.71875 
Q 44.484375 40.625 41.703125 44.40625 
Q 38.921875 48.1875 33.109375 48.1875 
Q 26.21875 48.1875 22.15625 43.53125 
Q 18.109375 38.875 18.109375 30.90625 
L 18.109375 0 
L 9.078125 0 
L 9.078125 54.6875 
L 18.109375 54.6875 
L 18.109375 46.1875 
Q 21.1875 51.21875 25.484375 53.609375 
Q 29.78125 56 35.6875 56 
Q 41.65625 56 45.828125 52.96875 
Q 50 49.953125 52 44.1875 
z
" id="DejaVuSans-109"/>
       <path d="M 56.203125 29.59375 
L 56.203125 25.203125 
L 14.890625 25.203125 
Q 15.484375 15.921875 20.484375 11.0625 
Q 25.484375 6.203125 34.421875 6.203125 
Q 39.59375 6.203125 44.453125 7.46875 
Q 49.3125 8.734375 54.109375 11.28125 
L 54.109375 2.78125 
Q 49.265625 0.734375 44.1875 -0.34375 
Q 39.109375 -1.421875 33.890625 -1.421875 
Q 20.796875 -1.421875 13.15625 6.1875 
Q 5.515625 13.8125 5.515625 26.8125 
Q 5.515625 40.234375 12.765625 48.109375 
Q 20.015625 56 32.328125 56 
Q 43.359375 56 49.78125 48.890625 
Q 56.203125 41.796875 56.203125 29.59375 
z
M 47.21875 32.234375 
Q 47.125 39.59375 43.09375 43.984375 
Q 39.0625 48.390625 32.421875 48.390625 
Q 24.90625 48.390625 20.390625 44.140625 
Q 15.875 39.890625 15.1875 32.171875 
z
" id="DejaVuSans-101"/>
      </defs>
      <use xlink:href="#DejaVuSans-116"/>
      <use x="39.208984" xlink:href="#DejaVuSans-105"/>
      <use x="66.992188" xlink:href="#DejaVuSans-109"/>
      <use x="164.404297" xlink:href="#DejaVuSans-101"/>
     </g>
    </g>
   </g>
   <g id="matplotlib.axis_2">
    <g id="ytick_1">
     <g id="line2d_8">
      <defs>
       <path d="M 0 0 
L -3.5 0 
" id="ma7ed864585" style="stroke:#000000;stroke-width:0.8;"/>
      </defs>
      <g>
       <use style="stroke:#000000;stroke-width:0.8;" x="63" xlink:href="#ma7ed864585" y="192.24"/>
      </g>
     </g>
     <g id="text_9">
      <!-- 0.0 -->
      <g transform="translate(40.096875 196.039219)scale(0.1 -0.1)">
       <defs>
        <path d="M 10.6875 12.40625 
L 21 12.40625 
L 21 0 
L 10.6875 0 
z
" id="DejaVuSans-46"/>
       </defs>
       <use xlink:href="#DejaVuSans-48"/>
       <use x="63.623047" xlink:href="#DejaVuSans-46"/>
       <use x="95.410156" xlink:href="#DejaVuSans-48"/>
      </g>
     </g>
    </g>
    <g id="ytick_2">
     <g id="line2d_9">
      <g>
       <use style="stroke:#000000;stroke-width:0.8;" x="63" xlink:href="#ma7ed864585" y="155.28"/>
      </g>
     </g>
     <g id="text_10">
      <!-- 0.1 -->
      <g transform="translate(40.096875 159.079219)scale(0.1 -0.1)">
       <defs>
        <path d="M 12.40625 8.296875 
L 28.515625 8.296875 
L 28.515625 63.921875 
L 10.984375 60.40625 
L 10.984375 69.390625 
L 28.421875 72.90625 
L 38.28125 72.90625 
L 38.28125 8.296875 
L 54.390625 8.296875 
L 54.390625 0 
L 12.40625 0 
z
" id="DejaVuSans-49"/>
       </defs>
       <use xlink:href="#DejaVuSans-48"/>
       <use x="63.623047" xlink:href="#DejaVuSans-46"/>
       <use x="95.410156" xlink:href="#DejaVuSans-49"/>
      </g>
     </g>
    </g>
    <g id="ytick_3">
     <g id="line2d_10">
      <g>
       <use style="stroke:#000000;stroke-width:0.8;" x="63" xlink:href="#ma7ed864585" y="118.32"/>
      </g>
     </g>
     <g id="text_11">
      <!-- 0.2 -->
      <g transform="translate(40.096875 122.119219)scale(0.1 -0.1)">
       <use xlink:href="#DejaVuSans-48"/>
       <use x="63.623047" xlink:href="#DejaVuSans-46"/>
       <use x="95.410156" xlink:href="#DejaVuSans-50"/>
      </g>
     </g>
    </g>
    <g id="ytick_4">
     <g id="line2d_11">
      <g>
       <use style="stroke:#000000;stroke-width:0.8;" x="63" xlink:href="#ma7ed864585" y="81.36"/>
      </g>
     </g>
     <g id="text_12">
      <!-- 0.3 -->
      <g transform="translate(40.096875 85.159219)scale(0.1 -0.1)">
       <use xlink:href="#DejaVuSans-48"/>
       <use x="63.623047" xlink:href="#DejaVuSans-46"/>
       <use x="95.410156" xlink:href="#DejaVuSans-51"/>
      </g>
     </g>
    </g>
    <g id="ytick_5">
     <g id="line2d_12">
      <g>
       <use style="stroke:#000000;stroke-width:0.8;" x="63" xlink:href="#ma7ed864585" y="44.4"/>
      </g>
     </g>
     <g id="text_13">
      <!-- 0.4 -->
      <g transform="translate(40.096875 48.199219)scale(0.1 -0.1)">
       <use xlink:href="#DejaVuSans-48"/>
       <use x="63.623047" xlink:href="#DejaVuSans-46"/>
       <use x="95.410156" xlink:href="#DejaVuSans-52"/>
      </g>
     </g>
    </g>
    <g id="text_14">
     <!-- BGSD -->
     <g transform="translate(34.017187 123.321406)rotate(-90)scale(0.1 -0.1)">
      <defs>
       <path d="M 19.671875 34.8125 
L 19.671875 8.109375 
L 35.5 8.109375 
Q 43.453125 8.109375 47.28125 11.40625 
Q 51.125 14.703125 51.125 21.484375 
Q 51.125 28.328125 47.28125 31.5625 
Q 43.453125 34.8125 35.5 34.8125 
z
M 19.671875 64.796875 
L 19.671875 42.828125 
L 34.28125 42.828125 
Q 41.5 42.828125 45.03125 45.53125 
Q 48.578125 48.25 48.578125 53.8125 
Q 48.578125 59.328125 45.03125 62.0625 
Q 41.5 64.796875 34.28125 64.796875 
z
M 9.8125 72.90625 
L 35.015625 72.90625 
Q 46.296875 72.90625 52.390625 68.21875 
Q 58.5 63.53125 58.5 54.890625 
Q 58.5 48.1875 55.375 44.234375 
Q 52.25 40.28125 46.1875 39.3125 
Q 53.46875 37.75 57.5 32.78125 
Q 61.53125 27.828125 61.53125 20.40625 
Q 61.53125 10.640625 54.890625 5.3125 
Q 48.25 0 35.984375 0 
L 9.8125 0 
z
" id="DejaVuSans-66"/>
       <path d="M 59.515625 10.40625 
L 59.515625 29.984375 
L 43.40625 29.984375 
L 43.40625 38.09375 
L 69.28125 38.09375 
L 69.28125 6.78125 
Q 63.578125 2.734375 56.6875 0.65625 
Q 49.8125 -1.421875 42 -1.421875 
Q 24.90625 -1.421875 15.25 8.5625 
Q 5.609375 18.5625 5.609375 36.375 
Q 5.609375 54.25 15.25 64.234375 
Q 24.90625 74.21875 42 74.21875 
Q 49.125 74.21875 55.546875 72.453125 
Q 61.96875 70.703125 67.390625 67.28125 
L 67.390625 56.78125 
Q 61.921875 61.421875 55.765625 63.765625 
Q 49.609375 66.109375 42.828125 66.109375 
Q 29.4375 66.109375 22.71875 58.640625 
Q 16.015625 51.171875 16.015625 36.375 
Q 16.015625 21.625 22.71875 14.15625 
Q 29.4375 6.6875 42.828125 6.6875 
Q 48.046875 6.6875 52.140625 7.59375 
Q 56.25 8.5 59.515625 10.40625 
z
" id="DejaVuSans-71"/>
       <path d="M 53.515625 70.515625 
L 53.515625 60.890625 
Q 47.90625 63.578125 42.921875 64.890625 
Q 37.9375 66.21875 33.296875 66.21875 
Q 25.25 66.21875 20.875 63.09375 
Q 16.5 59.96875 16.5 54.203125 
Q 16.5 49.359375 19.40625 46.890625 
Q 22.3125 44.4375 30.421875 42.921875 
L 36.375 41.703125 
Q 47.40625 39.59375 52.65625 34.296875 
Q 57.90625 29 57.90625 20.125 
Q 57.90625 9.515625 50.796875 4.046875 
Q 43.703125 -1.421875 29.984375 -1.421875 
Q 24.8125 -1.421875 18.96875 -0.25 
Q 13.140625 0.921875 6.890625 3.21875 
L 6.890625 13.375 
Q 12.890625 10.015625 18.65625 8.296875 
Q 24.421875 6.59375 29.984375 6.59375 
Q 38.421875 6.59375 43.015625 9.90625 
Q 47.609375 13.234375 47.609375 19.390625 
Q 47.609375 24.75 44.3125 27.78125 
Q 41.015625 30.8125 33.5 32.328125 
L 27.484375 33.5 
Q 16.453125 35.6875 11.515625 40.375 
Q 6.59375 45.0625 6.59375 53.421875 
Q 6.59375 63.09375 13.40625 68.65625 
Q 20.21875 74.21875 32.171875 74.21875 
Q 37.3125 74.21875 42.625 73.28125 
Q 47.953125 72.359375 53.515625 70.515625 
z
" id="DejaVuSans-83"/>
       <path d="M 19.671875 64.796875 
L 19.671875 8.109375 
L 31.59375 8.109375 
Q 46.6875 8.109375 53.6875 14.9375 
Q 60.6875 21.78125 60.6875 36.53125 
Q 60.6875 51.171875 53.6875 57.984375 
Q 46.6875 64.796875 31.59375 64.796875 
z
M 9.8125 72.90625 
L 30.078125 72.90625 
Q 51.265625 72.90625 61.171875 64.09375 
Q 71.09375 55.28125 71.09375 36.53125 
Q 71.09375 17.671875 61.125 8.828125 
Q 51.171875 0 30.078125 0 
L 9.8125 0 
z
" id="DejaVuSans-68"/>
      </defs>
      <use xlink:href="#DejaVuSans-66"/>
      <use x="66.853516" xlink:href="#DejaVuSans-71"/>
      <use x="144.34375" xlink:href="#DejaVuSans-83"/>
      <use x="207.820312" xlink:href="#DejaVuSans-68"/>
     </g>
    </g>
   </g>
   <g id="line2d_13">
    <path clip-path="url(#p9b930ae637)" d="M 80.754545 62.955899 
L 81.346364 56.062448 
L 81.938182 54.215792 
L 82.53 53.171605 
L 83.121818 50.251547 
L 83.713636 51.061348 
L 84.305455 54.944696 
L 84.897273 52.601517 
L 85.489091 49.732479 
L 86.080909 50.268974 
L 86.672727 52.3223 
L 87.264545 48.876168 
L 87.856364 44.356879 
L 88.448182 52.760708 
L 89.04 57.040009 
L 89.631818 53.802382 
L 90.223636 54.130521 
L 91.407273 55.374969 
L 91.999091 53.377403 
L 92.590909 49.552795 
L 93.182727 57.060118 
L 93.774545 63.099493 
L 94.366364 53.607488 
L 94.958182 56.224186 
L 95.55 56.519068 
L 96.141818 53.520616 
L 96.733636 52.284087 
L 97.325455 53.995611 
L 97.917273 54.884523 
L 98.509091 54.21372 
L 99.100909 51.110559 
L 99.692727 53.368702 
L 100.284545 52.644895 
L 100.876364 59.722056 
L 101.468182 54.087948 
L 102.06 52.606389 
L 102.651818 55.444983 
L 103.243636 52.934308 
L 103.835455 56.822831 
L 104.427273 56.421029 
L 105.019091 53.255675 
L 105.610909 46.873497 
L 106.202727 55.041108 
L 106.794545 52.044446 
L 107.386364 53.749151 
L 107.978182 53.071452 
L 108.57 54.187445 
L 109.161818 58.720526 
L 109.753636 55.600098 
L 110.345455 53.905851 
L 110.937273 48.350897 
L 111.529091 49.707762 
L 112.120909 52.030462 
L 112.712727 52.709898 
L 113.304545 54.311637 
L 113.896364 59.331152 
L 114.488182 50.408902 
L 115.08 54.911798 
L 115.671818 54.630537 
L 116.263636 52.027364 
L 116.855455 58.05215 
L 117.447273 55.798919 
L 118.039091 55.098025 
L 118.630909 58.124233 
L 119.222727 58.979063 
L 119.814545 59.419469 
L 120.406364 51.797868 
L 120.998182 56.614191 
L 121.59 54.495458 
L 122.181818 50.770748 
L 122.773636 51.965123 
L 123.365455 47.901931 
L 123.957273 50.918411 
L 124.549091 54.682622 
L 125.140909 48.329981 
L 125.732727 51.000524 
L 126.324545 59.269831 
L 126.916364 53.225818 
L 127.508182 54.637373 
L 128.1 55.388908 
L 128.691818 53.809642 
L 129.283636 47.819048 
L 129.875455 55.954748 
L 130.467273 53.45279 
L 131.059091 51.652284 
L 131.650909 52.991451 
L 132.242727 48.758869 
L 132.834545 51.57898 
L 133.426364 55.915966 
L 134.018182 55.507582 
L 134.61 51.144499 
L 135.201818 54.926897 
L 135.793636 53.33667 
L 136.385455 49.394201 
L 136.977273 52.066449 
L 137.569091 60.674976 
L 138.160909 58.166478 
L 138.752727 51.634703 
L 139.344545 55.962227 
L 139.936364 54.889249 
L 140.528182 48.983753 
L 141.12 54.49343 
L 141.711818 61.290682 
L 142.303636 51.906466 
L 142.895455 50.157089 
L 143.487273 55.118354 
L 144.079091 52.692914 
L 144.670909 56.157207 
L 145.262727 56.892247 
L 145.854545 54.206473 
L 146.446364 50.506452 
L 147.038182 52.107647 
L 147.63 56.090656 
L 148.221818 50.491484 
L 149.405455 46.758861 
L 149.997273 55.602127 
L 150.589091 55.80863 
L 151.180909 54.852991 
L 151.772727 50.952755 
L 152.364545 53.49246 
L 152.956364 50.011627 
L 153.548182 50.473294 
L 154.14 51.420575 
L 154.731818 54.135595 
L 155.323636 57.603499 
L 155.915455 48.033207 
L 156.507273 56.314741 
L 157.099091 56.827909 
L 157.690909 54.379176 
L 158.282727 53.761987 
L 158.874545 49.543672 
L 159.466364 55.78778 
L 160.058182 52.005402 
L 160.65 56.605059 
L 161.241818 56.844437 
L 161.833636 55.323927 
L 162.425455 58.269257 
L 163.017273 55.845234 
L 163.609091 56.578018 
L 164.200909 51.711562 
L 164.792727 53.994223 
L 165.384545 60.665288 
L 165.976364 56.114505 
L 166.568182 54.989732 
L 167.16 56.095442 
L 167.751818 54.626463 
L 168.343636 53.540391 
L 168.935455 53.998228 
L 169.527273 55.000334 
L 170.119091 53.126047 
L 170.710909 60.247279 
L 171.302727 58.135933 
L 171.894545 61.302035 
L 172.486364 56.1508 
L 173.078182 61.417517 
L 173.67 62.622022 
L 174.261818 61.072052 
L 174.853636 56.845201 
L 175.445455 54.439456 
L 176.037273 66.037852 
L 176.629091 54.300049 
L 177.220909 55.162473 
L 177.812727 59.094199 
L 178.404545 56.542433 
L 178.996364 60.691669 
L 179.588182 55.4034 
L 180.18 58.980154 
L 180.771818 56.940892 
L 181.363636 57.261566 
L 181.955455 59.041078 
L 182.547273 62.962921 
L 183.139091 65.12824 
L 183.730909 65.928076 
L 184.322727 53.35733 
L 184.914545 56.58737 
L 185.506364 62.336631 
L 186.098182 61.960785 
L 186.69 50.255984 
L 187.281818 55.093179 
L 187.873636 58.790707 
L 188.465455 56.943956 
L 189.057273 56.569871 
L 189.649091 61.477378 
L 190.240909 54.24374 
L 190.832727 55.067692 
L 191.424545 57.925096 
L 192.016364 55.872753 
L 192.608182 60.694059 
L 193.2 54.188831 
L 193.791818 59.059825 
L 194.383636 60.580735 
L 194.975455 60.421555 
L 195.567273 55.182636 
L 196.159091 59.630333 
L 196.750909 54.247912 
L 197.934545 60.249646 
L 198.526364 62.061197 
L 199.118182 55.293837 
L 199.71 60.034224 
L 200.301818 60.382614 
L 200.893636 58.224544 
L 201.485455 63.414774 
L 202.077273 66.741125 
L 202.669091 66.961187 
L 203.260909 65.494477 
L 203.852727 66.452795 
L 204.444545 51.91899 
L 205.036364 58.368703 
L 205.628182 61.463946 
L 206.22 65.183845 
L 206.811818 61.896247 
L 207.403636 65.356651 
L 207.995455 67.424802 
L 208.587273 57.327039 
L 209.179091 54.093367 
L 209.770909 57.965827 
L 210.362727 58.686138 
L 210.954545 61.31721 
L 211.546364 65.868461 
L 212.138182 63.687925 
L 212.73 50.763579 
L 213.321818 55.094835 
L 214.505455 61.409336 
L 215.097273 58.76056 
L 215.689091 61.822026 
L 216.280909 57.311713 
L 216.872727 47.891627 
L 217.464545 54.030795 
L 218.056364 54.850755 
L 218.648182 56.060619 
L 219.24 59.066422 
L 219.831818 58.128462 
L 220.423636 59.466148 
L 221.015455 45.063174 
L 222.199091 50.851114 
L 222.790909 54.707071 
L 223.382727 53.53918 
L 223.974545 54.238503 
L 224.566364 53.216441 
L 225.158182 45.454381 
L 225.75 50.916327 
L 226.341818 50.354068 
L 226.933636 53.721611 
L 227.525455 50.51015 
L 228.117273 52.587473 
L 228.709091 55.237689 
L 229.300909 44.52483 
L 229.892727 48.170358 
L 230.484545 49.854779 
L 231.076364 52.440409 
L 231.668182 50.812587 
L 232.26 54.285287 
L 232.851818 54.241579 
L 233.443636 44.508683 
L 234.035455 46.203977 
L 234.627273 53.553935 
L 235.219091 49.244426 
L 235.810909 49.571029 
L 236.402727 50.743361 
L 236.994545 53.914007 
L 237.586364 41.568404 
L 238.178182 45.171756 
L 238.77 48.086537 
L 239.361818 45.254426 
L 239.953636 47.013448 
L 240.545455 46.957605 
L 241.137273 48.748587 
L 241.729091 41.930885 
L 242.320909 44.069746 
L 242.912727 47.983685 
L 243.504545 49.853345 
L 244.096364 49.175853 
L 244.688182 49.129654 
L 245.28 50.085821 
L 245.871818 44.189032 
L 246.463636 47.673571 
L 247.055455 47.825513 
L 247.647273 45.863654 
L 248.239091 51.217946 
L 248.830909 52.200788 
L 249.422727 51.429987 
L 250.014545 46.679509 
L 250.606364 52.447043 
L 251.198182 50.651463 
L 251.79 53.844899 
L 252.381818 50.786306 
L 252.973636 54.559169 
L 253.565455 55.406887 
L 254.157273 47.060576 
L 254.749091 49.559428 
L 255.340909 50.559882 
L 255.932727 55.113636 
L 256.524545 49.61278 
L 257.116364 50.609637 
L 257.708182 49.485548 
L 258.3 45.276767 
L 259.483636 47.35164 
L 260.075455 50.959286 
L 260.667273 51.009377 
L 261.259091 48.431534 
L 261.850909 48.583454 
L 262.442727 51.885803 
L 263.034545 54.007559 
L 263.626364 50.598497 
L 264.218182 49.622851 
L 265.401818 52.901161 
L 265.993636 50.909423 
L 266.585455 51.870574 
L 267.177273 48.582237 
L 267.769091 52.46048 
L 268.360909 51.146799 
L 268.952727 52.983005 
L 269.544545 51.757434 
L 270.136364 53.038188 
L 270.728182 52.222142 
L 271.32 53.718777 
L 271.911818 51.763586 
L 272.503636 53.686025 
L 273.095455 56.023421 
L 273.687273 53.49703 
L 274.279091 54.715289 
L 274.870909 53.706141 
L 275.462727 54.693335 
L 276.054545 56.553078 
L 276.646364 53.350461 
L 277.238182 55.745531 
L 277.83 53.021834 
L 278.421818 54.722817 
L 279.013636 47.960274 
L 279.605455 51.34406 
L 280.197273 52.284245 
L 280.789091 48.181668 
L 281.380909 54.100279 
L 281.972727 57.001602 
L 282.564545 53.899024 
L 283.156364 48.775557 
L 283.748182 51.031477 
L 284.34 50.618141 
L 284.931818 46.629329 
L 285.523636 48.36754 
L 286.115455 51.414075 
L 287.299091 55.347883 
L 287.890909 47.966337 
L 288.482727 53.026985 
L 289.074545 50.02833 
L 289.666364 49.475419 
L 290.258182 53.030231 
L 290.85 49.453665 
L 291.441818 53.038066 
L 292.033636 52.605841 
L 292.625455 50.938412 
L 293.217273 48.569341 
L 293.809091 54.36626 
L 294.400909 52.277724 
L 294.992727 53.029736 
L 295.584545 48.754808 
L 296.176364 52.715415 
L 296.768182 49.18647 
L 297.36 46.707403 
L 297.951818 50.05815 
L 298.543636 50.886713 
L 299.135455 49.228463 
L 299.727273 50.90243 
L 300.319091 48.498943 
L 300.910909 51.55748 
L 301.502727 52.728832 
L 302.094545 48.075656 
L 302.686364 50.541347 
L 303.278182 55.724233 
L 303.87 53.550146 
L 304.461818 50.616226 
L 305.053636 51.411128 
L 305.645455 50.023761 
L 306.237273 49.845704 
L 306.829091 52.164502 
L 307.420909 49.321991 
L 308.012727 52.182824 
L 308.604545 47.235883 
L 309.196364 50.793348 
L 309.788182 50.516067 
L 310.38 51.332554 
L 310.971818 50.333937 
L 311.563636 51.121023 
L 312.155455 51.528324 
L 312.747273 47.410086 
L 313.339091 48.257207 
L 313.930909 49.960152 
L 314.522727 49.485113 
L 315.114545 51.334046 
L 315.706364 46.804964 
L 316.298182 46.858643 
L 316.89 49.686792 
L 317.481818 49.922597 
L 318.073636 48.291686 
L 318.665455 48.881035 
L 319.257273 48.091345 
L 319.849091 45.754629 
L 320.440909 48.95303 
L 321.032727 53.523787 
L 321.624545 49.97309 
L 322.216364 51.40928 
L 322.808182 50.001067 
L 323.4 47.607374 
L 323.991818 54.524478 
L 324.583636 51.792479 
L 325.175455 52.870894 
L 325.767273 51.472413 
L 326.359091 57.304678 
L 326.950909 52.13785 
L 327.542727 55.934171 
L 328.134545 51.429349 
L 328.726364 47.965358 
L 329.318182 50.539901 
L 329.91 48.95389 
L 331.093636 48.462767 
L 331.685455 53.808107 
L 332.277273 51.912952 
L 332.869091 50.426296 
L 333.460909 52.950845 
L 334.052727 54.339974 
L 334.644545 53.339161 
L 335.236364 54.323124 
L 337.011818 52.615621 
L 337.603636 52.869024 
L 338.195455 52.512238 
L 338.787273 53.011328 
L 339.379091 57.124611 
L 339.970909 51.664177 
L 340.562727 50.474482 
L 341.746364 54.525433 
L 342.338182 54.056588 
L 342.93 52.553046 
L 343.521818 48.874547 
L 344.113636 52.881785 
L 344.705455 48.765011 
L 345.297273 51.755363 
L 345.889091 48.972838 
L 346.480909 50.308629 
L 347.072727 55.040869 
L 348.256364 50.249908 
L 348.848182 53.429273 
L 349.44 51.776947 
L 350.031818 55.665781 
L 350.623636 55.543101 
L 351.215455 53.168456 
L 351.807273 51.739428 
L 352.399091 55.270317 
L 352.990909 56.575461 
L 353.582727 55.953508 
L 354.174545 50.830372 
L 354.766364 48.938016 
L 355.358182 51.026126 
L 355.95 52.043842 
L 356.541818 48.141629 
L 357.133636 48.063003 
L 357.725455 47.486376 
L 358.317273 45.51875 
L 358.909091 50.918029 
L 360.092727 56.86241 
L 360.684545 51.606288 
L 361.276364 53.580525 
L 361.868182 52.007419 
L 362.46 53.548629 
L 363.051818 51.178665 
L 363.643636 56.047953 
L 364.827273 54.472477 
L 365.419091 54.394917 
L 366.010909 54.509619 
L 366.602727 50.24192 
L 367.194545 53.323617 
L 367.786364 53.90308 
L 368.378182 51.03687 
L 368.97 51.797675 
L 369.561818 52.328127 
L 370.153636 53.047568 
L 370.745455 52.463734 
L 371.337273 50.276188 
L 371.929091 51.227293 
L 372.520909 51.073546 
L 373.112727 51.675572 
L 373.704545 54.586748 
L 374.296364 51.372308 
L 374.888182 54.513449 
L 375.48 54.542772 
L 376.071818 52.117622 
L 376.663636 53.120976 
L 377.255455 53.494834 
L 377.847273 54.080817 
L 378.439091 53.682041 
L 379.622727 54.794157 
L 380.214545 53.943135 
L 380.806364 53.851284 
L 381.398182 54.064301 
L 381.99 55.282108 
L 383.173636 58.829003 
L 383.765455 53.380754 
L 384.357273 53.521498 
L 384.949091 54.582348 
L 385.540909 51.356368 
L 386.132727 54.457091 
L 386.724545 50.16575 
L 387.316364 49.955916 
L 387.908182 50.019341 
L 388.5 52.886354 
L 389.091818 49.363177 
L 389.683636 54.234852 
L 390.275455 54.777927 
L 390.867273 54.499171 
L 391.459091 51.833981 
L 392.642727 51.954094 
L 393.234545 49.82085 
L 393.826364 53.809874 
L 394.418182 50.195852 
L 395.601818 54.852594 
L 396.193636 54.48726 
L 397.377273 50.026159 
L 397.969091 56.940368 
L 398.560909 54.797199 
L 399.152727 56.430839 
L 399.744545 55.009243 
L 400.336364 54.704314 
L 400.928182 51.810809 
L 401.52 50.512032 
L 402.111818 54.548337 
L 402.703636 50.887974 
L 403.295455 51.034599 
L 403.887273 55.339126 
L 404.479091 51.48377 
L 405.070909 49.727699 
L 405.662727 51.79268 
L 406.254545 49.585667 
L 407.438182 50.169978 
L 408.03 50.771292 
L 409.805455 55.406764 
L 410.397273 49.972271 
L 410.989091 53.873072 
L 411.580909 55.437505 
L 412.172727 56.543488 
L 413.356364 55.229804 
L 413.948182 51.353702 
L 414.54 52.708409 
L 415.131818 53.249583 
L 415.723636 53.055071 
L 416.315455 51.515322 
L 416.907273 56.11025 
L 417.499091 57.781219 
L 418.090909 55.168791 
L 418.682727 51.321561 
L 419.274545 52.827918 
L 419.866364 55.709125 
L 420.458182 54.108461 
L 421.05 56.745129 
L 421.641818 56.717359 
L 422.233636 59.15104 
L 423.417273 55.89617 
L 424.009091 53.605569 
L 424.600909 56.283687 
L 425.192727 56.32434 
L 425.784545 57.76756 
L 426.376364 55.773707 
L 426.968182 56.81315 
L 427.56 59.122557 
L 428.151818 58.348361 
L 428.743636 58.648328 
L 429.335455 57.317421 
L 429.927273 54.626316 
L 430.519091 57.011899 
L 431.110909 57.05752 
L 431.702727 59.142794 
L 432.294545 59.39889 
L 432.886364 57.688487 
L 433.478182 55.502595 
L 434.661818 61.435168 
L 435.253636 57.840693 
L 435.845455 54.995428 
L 435.845455 54.995428 
" style="fill:none;stroke:#1f77b4;stroke-linecap:square;stroke-width:1.5;"/>
   </g>
   <g id="line2d_14">
    <path clip-path="url(#p9b930ae637)" d="M 80.754545 52.59923 
L 81.346364 58.963598 
L 82.53 54.351868 
L 83.121818 48.56877 
L 83.713636 49.756794 
L 84.305455 46.67598 
L 84.897273 48.8307 
L 85.489091 45.254105 
L 86.080909 44.505215 
L 86.672727 46.152743 
L 87.264545 47.106136 
L 87.856364 51.698216 
L 88.448182 46.748057 
L 89.04 45.409045 
L 89.631818 44.413448 
L 90.223636 50.279823 
L 90.815455 49.23989 
L 91.407273 43.228016 
L 91.999091 51.86863 
L 92.590909 46.07095 
L 93.182727 50.549541 
L 93.774545 43.626157 
L 94.366364 48.033144 
L 94.958182 50.897466 
L 95.55 45.383957 
L 97.325455 56.210616 
L 97.917273 47.4399 
L 98.509091 47.580389 
L 99.100909 47.21625 
L 100.284545 56.445883 
L 100.876364 53.280067 
L 101.468182 49.370613 
L 102.06 42.770098 
L 102.651818 48.293857 
L 103.243636 52.075395 
L 103.835455 50.916906 
L 104.427273 52.22233 
L 105.019091 50.748699 
L 105.610909 51.33893 
L 106.202727 51.036227 
L 106.794545 53.759579 
L 107.978182 47.638398 
L 108.57 49.18676 
L 109.161818 50.150344 
L 110.345455 54.745856 
L 110.937273 56.932826 
L 111.529091 51.929086 
L 112.120909 51.242747 
L 112.712727 50.853096 
L 113.304545 48.38251 
L 113.896364 51.238575 
L 114.488182 51.996667 
L 115.08 53.472943 
L 115.671818 55.558498 
L 116.263636 54.116777 
L 116.855455 54.089566 
L 117.447273 59.338046 
L 118.039091 55.89004 
L 118.630909 57.303345 
L 119.222727 52.843235 
L 119.814545 57.46472 
L 120.406364 51.901695 
L 120.998182 56.656474 
L 121.59 52.268676 
L 122.181818 51.55898 
L 122.773636 59.308561 
L 123.365455 54.371043 
L 123.957273 59.354634 
L 124.549091 53.688656 
L 125.140909 56.394128 
L 125.732727 60.745674 
L 126.916364 53.198335 
L 127.508182 53.275489 
L 128.1 51.744481 
L 128.691818 56.273544 
L 129.875455 48.683584 
L 130.467273 55.30604 
L 131.059091 52.420105 
L 131.650909 50.808909 
L 132.242727 55.335386 
L 132.834545 50.562135 
L 133.426364 49.63901 
L 134.018182 53.003218 
L 134.61 47.260763 
L 135.201818 51.120271 
L 135.793636 51.479038 
L 136.385455 58.005441 
L 136.977273 56.124803 
L 137.569091 50.838567 
L 138.160909 55.253309 
L 138.752727 51.088473 
L 139.344545 54.513464 
L 139.936364 55.582976 
L 140.528182 50.313475 
L 141.12 52.236655 
L 141.711818 49.494523 
L 142.895455 55.023988 
L 143.487273 47.51677 
L 144.079091 47.076212 
L 144.670909 53.238925 
L 145.262727 47.636152 
L 145.854545 52.326378 
L 146.446364 51.298538 
L 147.038182 52.970476 
L 147.63 50.907765 
L 148.221818 52.301617 
L 148.813636 58.136747 
L 149.405455 57.308196 
L 149.997273 57.272498 
L 150.589091 52.829202 
L 151.180909 49.595472 
L 151.772727 52.541709 
L 152.364545 56.917693 
L 152.956364 57.078081 
L 153.548182 61.794165 
L 154.14 61.66323 
L 154.731818 53.976881 
L 155.323636 55.63496 
L 155.915455 51.535838 
L 157.099091 54.261036 
L 157.690909 53.658223 
L 158.282727 52.027229 
L 158.874545 52.514346 
L 159.466364 50.31242 
L 160.058182 56.594339 
L 160.65 52.04893 
L 161.241818 50.108218 
L 161.833636 52.915127 
L 162.425455 54.721509 
L 163.017273 51.275911 
L 163.609091 51.468234 
L 164.200909 53.014113 
L 164.792727 51.333222 
L 165.384545 52.268782 
L 165.976364 46.859261 
L 166.568182 50.608448 
L 167.16 56.241304 
L 167.751818 58.860867 
L 168.343636 60.206288 
L 168.935455 58.537379 
L 169.527273 55.038537 
L 170.119091 55.156152 
L 170.710909 53.471342 
L 171.302727 50.571888 
L 171.894545 57.683402 
L 172.486364 57.586367 
L 173.078182 55.054656 
L 173.67 53.344683 
L 174.261818 55.668404 
L 174.853636 51.43724 
L 176.037273 54.177805 
L 176.629091 53.046405 
L 177.220909 53.218484 
L 177.812727 54.317664 
L 178.404545 51.259097 
L 178.996364 47.316786 
L 179.588182 52.431672 
L 180.18 59.85551 
L 180.771818 57.206036 
L 181.363636 59.195536 
L 181.955455 59.749252 
L 182.547273 57.60946 
L 183.139091 53.618515 
L 183.730909 56.049572 
L 184.322727 55.343877 
L 184.914545 56.741382 
L 185.506364 56.047977 
L 186.098182 54.547262 
L 186.69 56.707614 
L 187.281818 53.759172 
L 187.873636 56.962482 
L 188.465455 57.339755 
L 189.649091 52.374771 
L 190.240909 51.805907 
L 190.832727 59.31996 
L 191.424545 49.203299 
L 192.016364 54.817661 
L 192.608182 56.608697 
L 193.2 49.384085 
L 193.791818 49.476385 
L 194.383636 52.459436 
L 194.975455 52.836581 
L 195.567273 55.060864 
L 196.159091 52.921383 
L 196.750909 55.912436 
L 197.342727 54.910824 
L 197.934545 49.776129 
L 199.118182 54.161149 
L 199.71 53.892367 
L 200.301818 56.009973 
L 200.893636 55.899028 
L 201.485455 56.405625 
L 202.077273 56.124848 
L 202.669091 60.994567 
L 203.260909 61.712116 
L 203.852727 55.895903 
L 204.444545 52.968101 
L 205.036364 55.792688 
L 205.628182 61.968782 
L 206.22 59.628018 
L 206.811818 63.954429 
L 207.403636 57.978264 
L 207.995455 64.349608 
L 208.587273 55.411802 
L 209.179091 63.164278 
L 209.770909 68.667925 
L 210.362727 62.11184 
L 210.954545 66.421472 
L 211.546364 67.884148 
L 212.138182 65.910479 
L 212.73 55.037561 
L 213.321818 58.971262 
L 213.913636 61.669433 
L 214.505455 66.461685 
L 215.097273 62.841868 
L 215.689091 67.935178 
L 216.280909 69.229829 
L 216.872727 55.512577 
L 217.464545 60.378176 
L 218.056364 68.818878 
L 218.648182 65.293968 
L 219.24 67.609053 
L 219.831818 65.59694 
L 220.423636 69.035272 
L 221.015455 56.501392 
L 221.607273 63.650584 
L 222.199091 67.53202 
L 222.790909 65.118452 
L 223.382727 65.70406 
L 223.974545 68.796883 
L 224.566364 67.038723 
L 225.158182 56.997082 
L 225.75 61.496456 
L 226.341818 67.74351 
L 226.933636 68.267117 
L 227.525455 70.448401 
L 228.117273 68.759266 
L 228.709091 65.88773 
L 229.300909 59.179789 
L 229.892727 67.6727 
L 230.484545 68.086084 
L 231.076364 66.847746 
L 231.668182 68.375985 
L 232.26 68.534654 
L 232.851818 67.255814 
L 233.443636 55.911196 
L 234.035455 58.622069 
L 234.627273 62.792233 
L 235.219091 69.078424 
L 235.810909 67.248772 
L 236.402727 69.366297 
L 236.994545 70.463614 
L 237.586364 64.281484 
L 238.178182 63.371176 
L 238.77 67.318657 
L 239.361818 69.42299 
L 239.953636 66.586398 
L 240.545455 67.318378 
L 241.137273 70.731016 
L 241.729091 53.406614 
L 242.320909 63.194076 
L 242.912727 66.159901 
L 244.096364 69.072557 
L 244.688182 71.528412 
L 245.28 71.554338 
L 245.871818 61.496188 
L 246.463636 67.347203 
L 247.055455 64.575677 
L 247.647273 67.969 
L 248.239091 70.697784 
L 248.830909 75.280411 
L 249.422727 72.015226 
L 250.014545 64.580121 
L 251.198182 69.729064 
L 251.79 70.89909 
L 252.381818 66.876253 
L 252.973636 67.259202 
L 253.565455 68.906206 
L 254.157273 60.374392 
L 254.749091 71.062968 
L 255.340909 69.691246 
L 255.932727 67.376423 
L 256.524545 69.961296 
L 257.116364 70.78724 
L 257.708182 69.094476 
L 258.3 64.596876 
L 258.891818 69.952353 
L 259.483636 67.306797 
L 260.075455 72.928691 
L 260.667273 75.274722 
L 261.259091 71.783716 
L 261.850909 72.378232 
L 262.442727 63.831151 
L 263.034545 69.948697 
L 263.626364 69.014236 
L 264.218182 68.737868 
L 264.81 70.115049 
L 265.401818 69.56867 
L 265.993636 74.101438 
L 266.585455 60.1381 
L 267.177273 66.406597 
L 267.769091 70.168877 
L 268.360909 69.276892 
L 268.952727 68.134564 
L 269.544545 74.286301 
L 270.136364 70.83203 
L 270.728182 65.798836 
L 271.32 67.461389 
L 271.911818 67.057862 
L 272.503636 67.885673 
L 273.095455 68.369426 
L 273.687273 66.967621 
L 274.279091 68.354706 
L 274.870909 67.994003 
L 275.462727 67.380465 
L 276.054545 67.99719 
L 276.646364 71.145927 
L 277.238182 72.175244 
L 277.83 65.931262 
L 278.421818 68.00059 
L 279.013636 72.6983 
L 279.605455 70.44377 
L 280.197273 66.727824 
L 280.789091 66.452791 
L 281.380909 67.00499 
L 281.972727 64.967584 
L 282.564545 67.439118 
L 283.156364 69.123971 
L 283.748182 64.693025 
L 284.34 68.211037 
L 284.931818 65.680206 
L 285.523636 73.536779 
L 286.115455 67.614129 
L 286.707273 68.205946 
L 287.299091 70.943892 
L 287.890909 70.338557 
L 288.482727 69.226786 
L 289.074545 68.377514 
L 289.666364 69.025175 
L 290.258182 67.188461 
L 290.85 69.527537 
L 291.441818 71.074098 
L 292.033636 68.809673 
L 292.625455 68.525695 
L 293.217273 69.642695 
L 293.809091 67.585815 
L 294.400909 68.301479 
L 294.992727 70.377552 
L 295.584545 66.549277 
L 296.176364 65.14106 
L 297.36 71.555612 
L 297.951818 68.083045 
L 298.543636 68.972998 
L 299.135455 64.552264 
L 299.727273 72.012307 
L 300.319091 67.804117 
L 300.910909 70.195847 
L 301.502727 70.961234 
L 302.094545 69.616116 
L 302.686364 70.727208 
L 303.278182 66.653166 
L 303.87 68.145878 
L 304.461818 67.215974 
L 305.053636 70.806476 
L 305.645455 70.115551 
L 306.237273 70.555346 
L 306.829091 69.733066 
L 307.420909 68.604597 
L 308.012727 70.478991 
L 308.604545 69.4776 
L 309.196364 69.891038 
L 309.788182 69.862443 
L 310.38 67.15727 
L 310.971818 66.460805 
L 311.563636 68.259142 
L 312.747273 61.9559 
L 313.339091 70.124234 
L 313.930909 65.990531 
L 314.522727 70.614131 
L 315.114545 71.028473 
L 315.706364 68.755794 
L 316.298182 72.186736 
L 316.89 64.684517 
L 317.481818 69.656882 
L 318.073636 69.581491 
L 319.257273 70.824275 
L 319.849091 68.098867 
L 320.440909 68.121232 
L 321.032727 67.671788 
L 321.624545 68.192194 
L 322.216364 65.867291 
L 322.808182 67.284302 
L 323.4 67.278369 
L 323.991818 69.776173 
L 324.583636 66.266123 
L 325.175455 66.656201 
L 325.767273 65.493073 
L 326.359091 63.804349 
L 326.950909 64.526412 
L 327.542727 70.802534 
L 328.134545 68.763045 
L 328.726364 67.201147 
L 329.318182 64.899894 
L 329.91 65.703772 
L 330.501818 64.790909 
L 331.093636 64.120768 
L 331.685455 65.877776 
L 332.277273 66.285107 
L 332.869091 68.897285 
L 333.460909 65.5405 
L 334.052727 64.687956 
L 334.644545 67.504654 
L 335.828182 68.687664 
L 336.42 66.85735 
L 337.011818 71.351212 
L 337.603636 64.915878 
L 338.195455 68.165375 
L 338.787273 69.571582 
L 339.379091 66.978852 
L 339.970909 67.500438 
L 340.562727 67.605562 
L 341.154545 63.646371 
L 341.746364 66.774635 
L 342.338182 64.016562 
L 342.93 64.438807 
L 343.521818 65.860179 
L 344.113636 62.536759 
L 344.705455 63.142191 
L 345.297273 61.973114 
L 345.889091 66.851419 
L 346.480909 64.945067 
L 347.072727 67.350254 
L 347.664545 68.166644 
L 348.256364 67.204577 
L 348.848182 67.287298 
L 349.44 65.565588 
L 350.031818 64.55522 
L 350.623636 64.755629 
L 351.215455 67.496009 
L 351.807273 67.991296 
L 352.399091 66.847585 
L 353.582727 68.159989 
L 354.174545 66.281083 
L 354.766364 69.184819 
L 355.358182 65.88095 
L 355.95 67.930554 
L 356.541818 65.990004 
L 357.133636 65.580734 
L 357.725455 68.157491 
L 358.317273 67.509697 
L 358.909091 68.593889 
L 359.500909 72.061915 
L 360.684545 65.927979 
L 361.276364 65.86581 
L 361.868182 69.05673 
L 362.46 66.018739 
L 363.051818 64.775558 
L 363.643636 64.932402 
L 364.235455 69.054819 
L 364.827273 63.583752 
L 366.010909 67.200913 
L 366.602727 63.996087 
L 367.194545 65.676897 
L 367.786364 65.623352 
L 368.378182 64.070323 
L 368.97 62.885029 
L 369.561818 62.907097 
L 370.153636 66.969147 
L 370.745455 68.04424 
L 371.337273 68.206196 
L 371.929091 63.330211 
L 372.520909 62.728497 
L 373.112727 63.06298 
L 373.704545 65.172741 
L 374.296364 69.603337 
L 375.48 61.035446 
L 376.071818 61.916314 
L 376.663636 61.754906 
L 377.255455 66.082036 
L 377.847273 64.165981 
L 378.439091 67.855733 
L 379.030909 67.510498 
L 379.622727 64.101833 
L 380.214545 63.989768 
L 380.806364 64.64976 
L 381.398182 67.959124 
L 382.581818 63.886567 
L 383.173636 64.830704 
L 383.765455 66.087707 
L 384.357273 66.997045 
L 384.949091 69.842778 
L 385.540909 63.946143 
L 386.132727 66.280206 
L 386.724545 62.577863 
L 387.316364 66.418366 
L 387.908182 63.447227 
L 388.5 63.701625 
L 389.091818 66.031119 
L 389.683636 62.587032 
L 390.867273 68.2528 
L 391.459091 65.888978 
L 392.050909 64.995984 
L 392.642727 67.260677 
L 393.234545 66.776766 
L 393.826364 60.534763 
L 394.418182 68.357744 
L 395.01 66.680073 
L 395.601818 65.788219 
L 396.193636 69.180679 
L 396.785455 63.549388 
L 397.377273 64.9109 
L 397.969091 64.683483 
L 398.560909 65.694243 
L 399.152727 62.610277 
L 399.744545 63.280231 
L 400.336364 64.305564 
L 400.928182 61.08171 
L 401.52 63.36802 
L 402.111818 69.137794 
L 402.703636 61.692264 
L 403.295455 63.904756 
L 403.887273 63.464331 
L 404.479091 64.972991 
L 405.070909 65.65403 
L 405.662727 68.486259 
L 406.254545 66.672446 
L 406.846364 63.93359 
L 407.438182 63.942836 
L 408.03 68.639986 
L 408.621818 67.420527 
L 409.213636 66.673256 
L 409.805455 61.19903 
L 410.397273 66.029576 
L 410.989091 64.025233 
L 411.580909 67.20707 
L 412.172727 63.504036 
L 412.764545 64.513976 
L 413.356364 66.019812 
L 413.948182 67.137176 
L 414.54 66.187861 
L 415.131818 63.70877 
L 415.723636 63.365384 
L 416.315455 64.464234 
L 416.907273 63.145391 
L 417.499091 63.000858 
L 418.090909 62.350834 
L 418.682727 67.474459 
L 419.274545 66.330733 
L 419.866364 67.101777 
L 420.458182 63.533451 
L 421.05 66.219229 
L 421.641818 64.729285 
L 422.233636 66.067919 
L 422.825455 64.700983 
L 423.417273 62.573826 
L 424.009091 65.011176 
L 424.600909 58.666409 
L 425.192727 62.474665 
L 425.784545 64.411457 
L 426.376364 62.46811 
L 426.968182 58.781489 
L 427.56 63.997536 
L 428.151818 63.578914 
L 428.743636 68.349799 
L 429.335455 68.061801 
L 429.927273 63.924483 
L 430.519091 63.051029 
L 431.110909 64.662053 
L 431.702727 64.111557 
L 432.294545 62.415597 
L 432.886364 62.718292 
L 433.478182 63.222315 
L 434.07 64.311077 
L 434.661818 64.179329 
L 435.253636 66.969099 
L 435.845455 66.698629 
L 435.845455 66.698629 
" style="fill:none;stroke:#ff7f0e;stroke-linecap:square;stroke-width:1.5;"/>
   </g>
   <g id="line2d_15">
    <path clip-path="url(#p9b930ae637)" d="M 80.754545 53.081341 
L 81.346364 56.652293 
L 81.938182 52.959317 
L 82.53 45.07526 
L 83.121818 51.160117 
L 83.713636 45.675375 
L 84.305455 48.145765 
L 84.897273 48.020574 
L 85.489091 47.067817 
L 86.080909 46.935979 
L 86.672727 50.642639 
L 87.264545 46.735995 
L 87.856364 50.561358 
L 88.448182 44.340589 
L 89.04 49.57214 
L 89.631818 52.133546 
L 90.223636 46.627457 
L 90.815455 48.195279 
L 91.407273 55.595822 
L 91.999091 46.346391 
L 92.590909 49.872432 
L 93.182727 51.529441 
L 93.774545 49.018735 
L 94.366364 52.843025 
L 94.958182 44.615257 
L 95.55 44.291969 
L 96.141818 47.033609 
L 96.733636 46.980252 
L 97.325455 43.984471 
L 97.917273 43.311906 
L 98.509091 46.927179 
L 99.100909 47.304485 
L 99.692727 48.8811 
L 100.284545 49.662676 
L 100.876364 45.110454 
L 101.468182 51.592339 
L 102.06 51.528142 
L 102.651818 43.333277 
L 103.243636 50.509 
L 103.835455 42.331238 
L 104.427273 39.562544 
L 105.019091 37.412574 
L 105.610909 47.439254 
L 106.202727 50.465646 
L 106.794545 41.622952 
L 107.978182 51.840424 
L 108.57 48.852403 
L 109.161818 47.323262 
L 109.753636 58.478912 
L 110.345455 51.117829 
L 110.937273 49.635403 
L 111.529091 50.519591 
L 112.120909 50.673137 
L 112.712727 47.805081 
L 113.304545 47.732965 
L 113.896364 50.763662 
L 114.488182 50.995851 
L 115.08 49.499517 
L 115.671818 46.59033 
L 116.263636 47.775319 
L 116.855455 55.968893 
L 117.447273 47.340858 
L 118.039091 46.548414 
L 118.630909 47.424963 
L 119.222727 49.403729 
L 119.814545 48.594269 
L 120.406364 50.95791 
L 120.998182 43.106403 
L 121.59 49.266243 
L 122.181818 50.187701 
L 122.773636 49.684322 
L 123.365455 49.668058 
L 123.957273 45.496586 
L 124.549091 50.423429 
L 125.732727 57.446992 
L 126.324545 57.843889 
L 126.916364 53.411648 
L 127.508182 50.21016 
L 128.1 51.150582 
L 128.691818 52.380806 
L 129.283636 50.960331 
L 129.875455 56.794518 
L 130.467273 56.481157 
L 131.059091 60.296927 
L 131.650909 55.493049 
L 132.242727 56.406435 
L 132.834545 54.784033 
L 133.426364 40.543833 
L 134.018182 45.286233 
L 134.61 51.488829 
L 135.201818 55.713105 
L 135.793636 51.918502 
L 136.385455 53.714283 
L 136.977273 55.943018 
L 137.569091 52.061355 
L 138.160909 55.227187 
L 138.752727 54.384269 
L 139.344545 57.412137 
L 139.936364 54.086064 
L 140.528182 53.290147 
L 141.12 52.907105 
L 141.711818 52.667863 
L 142.303636 51.584919 
L 142.895455 52.991221 
L 143.487273 51.847455 
L 144.079091 48.751637 
L 144.670909 55.104334 
L 145.262727 54.803077 
L 145.854545 51.574407 
L 146.446364 53.065069 
L 147.038182 57.208328 
L 147.63 55.115595 
L 148.221818 57.666635 
L 148.813636 58.727695 
L 149.405455 60.268942 
L 149.997273 55.520151 
L 150.589091 52.680783 
L 151.180909 50.734567 
L 152.956364 57.717616 
L 153.548182 51.955745 
L 154.14 57.686264 
L 154.731818 52.262224 
L 155.323636 54.45631 
L 155.915455 51.901258 
L 156.507273 50.947854 
L 157.099091 51.674475 
L 157.690909 51.922865 
L 158.282727 51.878425 
L 158.874545 50.457402 
L 159.466364 55.859627 
L 160.058182 62.50096 
L 160.65 54.113437 
L 161.241818 54.155257 
L 161.833636 56.845145 
L 162.425455 51.003539 
L 163.017273 52.528015 
L 163.609091 50.01782 
L 164.200909 57.034175 
L 164.792727 56.239889 
L 165.384545 58.035671 
L 165.976364 54.352681 
L 166.568182 56.473928 
L 167.16 53.997178 
L 167.751818 56.610369 
L 168.343636 60.116141 
L 168.935455 52.682571 
L 169.527273 49.554406 
L 170.119091 56.766992 
L 170.710909 56.881109 
L 171.302727 54.506091 
L 171.894545 51.456189 
L 172.486364 51.821475 
L 173.078182 49.532 
L 174.261818 58.77948 
L 174.853636 58.169897 
L 175.445455 66.163221 
L 176.037273 65.161224 
L 176.629091 62.024625 
L 177.220909 59.495448 
L 177.812727 58.937753 
L 178.404545 57.675549 
L 178.996364 54.090163 
L 179.588182 59.435808 
L 180.18 55.920204 
L 181.363636 50.756784 
L 181.955455 52.092159 
L 182.547273 52.030289 
L 183.139091 58.068554 
L 183.730909 56.29534 
L 184.322727 52.938354 
L 184.914545 45.153755 
L 185.506364 44.489191 
L 186.098182 45.873447 
L 186.69 56.666685 
L 187.281818 55.34524 
L 187.873636 50.706561 
L 188.465455 52.487994 
L 189.057273 51.201239 
L 190.240909 58.071955 
L 191.424545 50.222258 
L 192.016364 51.551372 
L 192.608182 45.571628 
L 193.2 51.709153 
L 193.791818 45.777333 
L 194.383636 52.120136 
L 194.975455 49.372594 
L 195.567273 51.936688 
L 196.159091 57.048324 
L 196.750909 51.254514 
L 197.342727 51.602713 
L 197.934545 49.35312 
L 198.526364 56.159606 
L 199.118182 54.780424 
L 199.71 54.503257 
L 200.301818 50.807094 
L 200.893636 61.167711 
L 201.485455 61.718694 
L 202.077273 61.15979 
L 202.669091 60.80872 
L 203.260909 62.377072 
L 203.852727 57.901955 
L 204.444545 51.399517 
L 205.036364 51.062518 
L 205.628182 49.535798 
L 206.22 53.26919 
L 206.811818 52.989039 
L 207.403636 54.615709 
L 207.995455 59.002419 
L 208.587273 46.433329 
L 209.179091 55.958063 
L 209.770909 57.596698 
L 210.362727 58.317577 
L 210.954545 56.690708 
L 211.546364 58.270188 
L 212.138182 57.358275 
L 212.73 54.710606 
L 213.321818 51.255334 
L 214.505455 57.722651 
L 215.097273 56.380686 
L 215.689091 63.462655 
L 216.280909 60.182661 
L 216.872727 45.405042 
L 217.464545 46.329566 
L 218.056364 51.122346 
L 218.648182 53.330441 
L 219.24 61.223644 
L 219.831818 55.379126 
L 220.423636 56.490541 
L 221.015455 46.012882 
L 221.607273 51.066131 
L 222.199091 51.714236 
L 222.790909 51.959672 
L 223.382727 57.111 
L 223.974545 55.125175 
L 224.566364 56.010252 
L 225.158182 42.978852 
L 225.75 50.882473 
L 226.341818 49.648569 
L 226.933636 50.926223 
L 227.525455 52.911353 
L 228.117273 53.016074 
L 228.709091 52.457131 
L 229.300909 47.862563 
L 229.892727 56.715047 
L 230.484545 52.067328 
L 231.076364 49.739223 
L 231.668182 49.792733 
L 232.26 53.483309 
L 232.851818 50.997624 
L 233.443636 44.183583 
L 234.627273 52.971109 
L 235.810909 50.608156 
L 236.402727 51.547802 
L 236.994545 51.971228 
L 237.586364 42.838747 
L 238.178182 45.719813 
L 238.77 54.162937 
L 239.361818 49.992626 
L 239.953636 49.351052 
L 240.545455 55.675569 
L 241.137273 56.07553 
L 241.729091 43.190932 
L 242.320909 48.991291 
L 242.912727 49.526994 
L 243.504545 52.048347 
L 244.096364 50.365413 
L 244.688182 50.699739 
L 245.28 48.981014 
L 245.871818 49.694494 
L 246.463636 49.966192 
L 247.055455 46.884373 
L 247.647273 47.926801 
L 248.239091 51.57904 
L 248.830909 52.796953 
L 249.422727 54.818473 
L 250.014545 50.524413 
L 250.606364 50.395296 
L 251.198182 54.025805 
L 251.79 50.513117 
L 252.973636 50.330716 
L 253.565455 47.943291 
L 254.157273 43.465665 
L 254.749091 51.719909 
L 255.340909 51.61805 
L 255.932727 52.162222 
L 256.524545 50.136787 
L 257.116364 51.657485 
L 257.708182 53.763738 
L 258.3 48.073219 
L 258.891818 49.776284 
L 259.483636 52.946414 
L 260.075455 57.268082 
L 260.667273 54.47418 
L 261.259091 51.066152 
L 261.850909 49.512068 
L 262.442727 51.493596 
L 263.034545 52.197066 
L 263.626364 53.255345 
L 264.218182 54.987392 
L 264.81 52.240121 
L 265.401818 48.468326 
L 265.993636 50.041846 
L 266.585455 47.071461 
L 267.177273 50.721047 
L 267.769091 50.539837 
L 268.360909 51.860014 
L 268.952727 49.496165 
L 269.544545 52.626484 
L 270.136364 53.202822 
L 270.728182 47.320299 
L 271.32 51.210685 
L 271.911818 56.193495 
L 272.503636 52.798215 
L 273.095455 52.348539 
L 273.687273 53.372954 
L 274.279091 55.1306 
L 274.870909 53.644809 
L 275.462727 53.486716 
L 276.054545 52.816381 
L 276.646364 51.66342 
L 277.83 54.591866 
L 278.421818 50.233834 
L 279.013636 52.650658 
L 279.605455 47.462391 
L 280.789091 53.94475 
L 281.380909 50.550661 
L 281.972727 49.533218 
L 282.564545 53.146514 
L 283.156364 50.936492 
L 283.748182 55.951578 
L 284.34 49.56077 
L 284.931818 46.525025 
L 285.523636 49.266015 
L 286.115455 50.752459 
L 286.707273 49.712617 
L 287.299091 50.996349 
L 287.890909 50.018078 
L 288.482727 51.394225 
L 289.074545 49.579462 
L 289.666364 48.671434 
L 290.258182 51.836245 
L 290.85 49.819795 
L 291.441818 50.35333 
L 292.033636 50.126439 
L 292.625455 48.714941 
L 293.217273 50.08093 
L 293.809091 49.088872 
L 294.400909 52.85174 
L 294.992727 49.470699 
L 295.584545 51.980484 
L 296.176364 56.275563 
L 297.36 52.786137 
L 297.951818 55.70004 
L 298.543636 54.52104 
L 299.135455 56.033009 
L 299.727273 55.808654 
L 300.319091 57.176317 
L 300.910909 57.411368 
L 301.502727 56.745965 
L 302.094545 54.448314 
L 302.686364 54.362476 
L 303.278182 56.257528 
L 303.87 53.895004 
L 304.461818 57.811403 
L 305.053636 57.319087 
L 305.645455 54.894308 
L 306.237273 56.698901 
L 306.829091 54.064021 
L 308.012727 54.236498 
L 308.604545 54.878575 
L 309.196364 56.164503 
L 309.788182 56.175844 
L 310.38 55.293598 
L 311.563636 57.605539 
L 312.155455 55.540287 
L 312.747273 52.786648 
L 313.339091 47.868771 
L 313.930909 47.918035 
L 314.522727 52.962013 
L 315.114545 52.486441 
L 315.706364 52.388745 
L 316.298182 49.894283 
L 316.89 53.806954 
L 317.481818 56.124288 
L 318.073636 55.345239 
L 319.257273 51.043521 
L 319.849091 53.563449 
L 320.440909 51.87366 
L 321.032727 52.703803 
L 321.624545 48.419175 
L 322.216364 52.671882 
L 322.808182 48.668535 
L 323.4 52.132725 
L 323.991818 51.400021 
L 324.583636 53.005712 
L 325.175455 55.594288 
L 325.767273 55.07492 
L 326.359091 55.722207 
L 326.950909 52.21366 
L 327.542727 50.387216 
L 328.134545 54.243921 
L 329.318182 51.786909 
L 329.91 48.59414 
L 330.501818 48.860727 
L 331.093636 54.18374 
L 331.685455 56.575636 
L 332.277273 52.643996 
L 332.869091 56.44421 
L 333.460909 56.212022 
L 334.052727 53.890512 
L 335.236364 51.746538 
L 335.828182 53.503663 
L 336.42 50.980521 
L 337.011818 56.551464 
L 337.603636 53.205135 
L 338.195455 51.433611 
L 338.787273 54.814245 
L 339.379091 52.296659 
L 339.970909 55.061379 
L 340.562727 55.549158 
L 341.154545 55.670618 
L 341.746364 51.558156 
L 342.338182 54.354268 
L 342.93 47.939533 
L 343.521818 51.803562 
L 344.113636 53.82813 
L 344.705455 55.317279 
L 345.297273 55.773858 
L 345.889091 57.715189 
L 346.480909 56.201559 
L 347.072727 53.759357 
L 347.664545 53.244837 
L 348.256364 51.243662 
L 348.848182 53.259915 
L 349.44 51.841191 
L 350.031818 55.106538 
L 350.623636 53.796152 
L 351.807273 52.965271 
L 352.399091 54.559872 
L 352.990909 57.078731 
L 353.582727 57.900804 
L 354.174545 56.687366 
L 354.766364 56.764015 
L 355.358182 56.501131 
L 355.95 55.931455 
L 356.541818 53.788398 
L 357.725455 59.200548 
L 358.317273 56.025131 
L 358.909091 57.603231 
L 360.092727 52.834175 
L 360.684545 55.390193 
L 361.276364 54.783993 
L 361.868182 50.45573 
L 362.46 55.319423 
L 363.051818 51.340817 
L 363.643636 51.288008 
L 364.235455 53.71602 
L 364.827273 55.117076 
L 365.419091 50.236527 
L 366.010909 54.738846 
L 366.602727 53.215824 
L 367.194545 52.842666 
L 367.786364 54.960532 
L 368.97 48.611059 
L 369.561818 50.866438 
L 370.153636 51.209374 
L 370.745455 52.269993 
L 371.337273 52.481833 
L 371.929091 48.74623 
L 372.520909 50.239134 
L 373.112727 48.239406 
L 373.704545 50.218632 
L 374.296364 53.850419 
L 374.888182 59.156425 
L 375.48 54.859153 
L 376.071818 57.180284 
L 376.663636 55.721659 
L 377.255455 57.21226 
L 377.847273 57.582982 
L 378.439091 54.224748 
L 379.622727 53.174061 
L 380.214545 50.855008 
L 380.806364 49.256473 
L 381.99 56.01332 
L 382.581818 56.844915 
L 383.173636 55.253726 
L 383.765455 51.9749 
L 384.357273 56.544713 
L 384.949091 54.958715 
L 385.540909 57.23117 
L 386.724545 53.442445 
L 387.316364 49.609993 
L 387.908182 51.667492 
L 388.5 59.554554 
L 389.091818 59.094565 
L 389.683636 55.26355 
L 390.275455 56.217317 
L 390.867273 53.698931 
L 391.459091 57.420154 
L 392.050909 55.048855 
L 394.418182 54.486387 
L 395.01 53.585757 
L 395.601818 55.363241 
L 396.785455 50.408626 
L 397.377273 53.917857 
L 397.969091 54.423929 
L 398.560909 57.564307 
L 399.152727 55.369073 
L 399.744545 54.11422 
L 400.336364 53.126497 
L 400.928182 54.687876 
L 401.52 54.279616 
L 402.111818 51.195855 
L 402.703636 50.976782 
L 403.295455 57.039213 
L 403.887273 59.354252 
L 404.479091 57.212254 
L 405.070909 55.729624 
L 405.662727 58.245561 
L 406.254545 54.066372 
L 406.846364 53.634076 
L 407.438182 53.76939 
L 408.03 54.298614 
L 408.621818 54.277733 
L 409.213636 54.685499 
L 409.805455 53.36813 
L 410.397273 54.507972 
L 410.989091 52.03296 
L 411.580909 57.037538 
L 412.172727 56.997271 
L 412.764545 59.610402 
L 413.356364 59.734827 
L 413.948182 53.959413 
L 414.54 54.765814 
L 415.131818 54.180057 
L 415.723636 55.260437 
L 416.315455 57.555222 
L 416.907273 55.517516 
L 417.499091 54.672505 
L 418.090909 54.804474 
L 418.682727 56.655193 
L 419.274545 54.027932 
L 420.458182 55.362965 
L 421.05 54.610795 
L 421.641818 53.520955 
L 422.233636 57.912498 
L 422.825455 55.151228 
L 423.417273 56.016879 
L 424.009091 57.287517 
L 424.600909 56.446735 
L 425.192727 58.831254 
L 425.784545 58.960698 
L 426.376364 56.538417 
L 426.968182 58.083586 
L 427.56 57.044638 
L 428.151818 55.302397 
L 428.743636 56.366886 
L 429.335455 52.219615 
L 429.927273 56.514729 
L 430.519091 62.188962 
L 431.110909 55.449052 
L 431.702727 57.749905 
L 432.294545 51.438703 
L 432.886364 54.092446 
L 433.478182 52.792959 
L 434.07 56.046492 
L 434.661818 54.716367 
L 435.253636 55.425784 
L 435.845455 55.933607 
L 435.845455 55.933607 
" style="fill:none;stroke:#2ca02c;stroke-linecap:square;stroke-width:1.5;"/>
   </g>
   <g id="line2d_16">
    <path clip-path="url(#p9b930ae637)" d="M 80.754545 57.603414 
L 81.346364 60.237698 
L 81.938182 49.974283 
L 82.53 51.817928 
L 83.121818 51.036844 
L 83.713636 52.108435 
L 84.305455 54.808702 
L 84.897273 48.075461 
L 85.489091 48.590782 
L 86.080909 53.89313 
L 86.672727 52.63768 
L 87.264545 51.992998 
L 87.856364 56.194577 
L 88.448182 50.814041 
L 89.04 57.344444 
L 89.631818 55.673726 
L 90.223636 57.880102 
L 90.815455 52.556961 
L 91.407273 51.691361 
L 92.590909 55.15401 
L 93.182727 50.114261 
L 93.774545 46.701977 
L 94.366364 53.686813 
L 94.958182 53.629265 
L 95.55 59.174642 
L 96.141818 59.824381 
L 96.733636 49.21623 
L 97.325455 50.460949 
L 97.917273 47.608 
L 98.509091 50.122965 
L 99.100909 58.784109 
L 99.692727 60.358311 
L 100.876364 57.466595 
L 101.468182 50.266983 
L 102.06 45.336488 
L 102.651818 52.769678 
L 103.243636 52.761618 
L 103.835455 48.39227 
L 104.427273 53.161472 
L 105.019091 51.540741 
L 105.610909 55.433526 
L 106.202727 56.917355 
L 106.794545 50.534144 
L 107.386364 56.671578 
L 107.978182 55.700317 
L 108.57 53.809948 
L 109.161818 49.507573 
L 109.753636 52.232269 
L 110.345455 58.704641 
L 110.937273 60.976304 
L 111.529091 57.482436 
L 112.712727 56.182458 
L 113.304545 51.025517 
L 113.896364 53.563591 
L 114.488182 55.386608 
L 115.08 63.400793 
L 115.671818 57.938217 
L 116.263636 58.973679 
L 116.855455 56.405617 
L 117.447273 62.844113 
L 118.039091 64.061119 
L 118.630909 53.710543 
L 119.222727 51.314272 
L 119.814545 57.169452 
L 120.406364 57.592765 
L 120.998182 55.4167 
L 121.59 57.789142 
L 122.181818 56.357705 
L 122.773636 59.755879 
L 123.365455 57.258707 
L 123.957273 59.343975 
L 124.549091 55.100473 
L 125.140909 60.234473 
L 125.732727 54.546389 
L 126.324545 62.578272 
L 126.916364 63.045834 
L 127.508182 61.12547 
L 128.1 63.448455 
L 128.691818 54.223524 
L 129.283636 55.697659 
L 129.875455 53.569866 
L 130.467273 54.5801 
L 131.059091 53.049643 
L 131.650909 55.888187 
L 132.242727 52.052259 
L 132.834545 56.509361 
L 133.426364 57.729317 
L 134.018182 59.37969 
L 134.61 58.490232 
L 135.201818 55.524432 
L 135.793636 57.285842 
L 136.385455 57.579744 
L 136.977273 59.302616 
L 137.569091 58.70533 
L 138.160909 59.027139 
L 138.752727 54.542124 
L 139.936364 60.168892 
L 140.528182 58.202348 
L 141.12 58.543078 
L 141.711818 56.368543 
L 142.303636 58.893042 
L 142.895455 62.417414 
L 143.487273 56.907063 
L 144.079091 56.499335 
L 144.670909 49.57198 
L 145.262727 55.924755 
L 145.854545 53.510177 
L 146.446364 57.537892 
L 147.038182 53.227055 
L 147.63 54.515564 
L 148.221818 52.875133 
L 148.813636 52.393293 
L 149.405455 50.613818 
L 149.997273 54.13682 
L 150.589091 56.42508 
L 151.180909 54.946135 
L 151.772727 52.109518 
L 152.364545 51.671318 
L 152.956364 57.585016 
L 153.548182 54.834304 
L 154.731818 59.903389 
L 155.323636 57.516726 
L 155.915455 58.827835 
L 156.507273 58.112234 
L 157.099091 59.790625 
L 158.282727 56.070807 
L 158.874545 58.956943 
L 160.058182 62.380879 
L 161.241818 54.47825 
L 161.833636 60.408077 
L 162.425455 59.045338 
L 163.017273 56.364857 
L 164.200909 58.283386 
L 164.792727 55.134889 
L 165.384545 57.047662 
L 166.568182 60.0281 
L 167.16 57.75278 
L 167.751818 58.65308 
L 168.343636 60.910968 
L 168.935455 64.861909 
L 169.527273 58.545922 
L 170.119091 54.29836 
L 170.710909 59.475526 
L 171.302727 54.307255 
L 171.894545 60.131172 
L 172.486364 61.27945 
L 173.078182 52.625291 
L 173.67 59.202329 
L 174.261818 53.395782 
L 174.853636 61.772562 
L 175.445455 56.799548 
L 176.037273 61.452686 
L 176.629091 61.837509 
L 177.220909 58.952274 
L 177.812727 58.840575 
L 178.404545 59.715825 
L 178.996364 62.852803 
L 179.588182 59.134606 
L 180.18 63.883653 
L 180.771818 60.819609 
L 181.363636 51.198848 
L 181.955455 54.535065 
L 182.547273 52.691611 
L 183.139091 59.09545 
L 183.730909 54.593052 
L 184.322727 55.655512 
L 184.914545 58.140936 
L 185.506364 53.410812 
L 186.098182 54.276665 
L 186.69 51.147408 
L 187.281818 55.913827 
L 187.873636 59.285828 
L 188.465455 59.620404 
L 189.057273 56.992486 
L 189.649091 55.41773 
L 190.240909 59.854826 
L 190.832727 56.091527 
L 192.016364 51.812575 
L 192.608182 56.779528 
L 193.2 60.09835 
L 193.791818 55.67705 
L 194.383636 52.71839 
L 194.975455 54.868963 
L 195.567273 53.589821 
L 196.159091 59.442046 
L 196.750909 55.36323 
L 197.342727 53.261925 
L 197.934545 54.630868 
L 198.526364 58.265544 
L 199.71 54.30083 
L 200.301818 51.557783 
L 200.893636 62.08128 
L 201.485455 63.321785 
L 202.077273 68.348363 
L 202.669091 67.465514 
L 203.260909 61.101135 
L 203.852727 62.178059 
L 204.444545 46.708517 
L 205.036364 56.24224 
L 206.22 62.488234 
L 206.811818 61.30427 
L 207.403636 59.105735 
L 207.995455 64.358332 
L 208.587273 49.006443 
L 209.179091 52.454302 
L 209.770909 57.252585 
L 210.362727 58.99786 
L 210.954545 61.288504 
L 211.546364 56.171968 
L 212.138182 60.152452 
L 212.73 52.730584 
L 213.321818 56.647108 
L 213.913636 57.802979 
L 214.505455 56.746205 
L 215.097273 56.438286 
L 215.689091 58.858968 
L 216.280909 60.428319 
L 216.872727 49.713525 
L 217.464545 52.891709 
L 218.056364 52.562704 
L 218.648182 54.854547 
L 219.24 55.906064 
L 219.831818 54.924054 
L 220.423636 59.251776 
L 221.015455 47.291436 
L 221.607273 50.617728 
L 222.199091 51.601226 
L 222.790909 57.040204 
L 223.382727 55.719895 
L 223.974545 51.213776 
L 224.566364 56.182686 
L 225.158182 47.971621 
L 225.75 53.088103 
L 226.341818 55.301055 
L 226.933636 55.974651 
L 227.525455 54.583422 
L 228.117273 53.626436 
L 228.709091 57.325501 
L 229.300909 48.085584 
L 229.892727 53.179455 
L 230.484545 52.865816 
L 231.076364 55.829935 
L 231.668182 51.869615 
L 232.26 54.748535 
L 232.851818 54.426103 
L 233.443636 44.13324 
L 234.627273 59.61968 
L 235.219091 50.519647 
L 235.810909 52.098368 
L 236.402727 47.748456 
L 236.994545 55.671774 
L 237.586364 51.464039 
L 238.178182 52.180688 
L 238.77 48.823339 
L 239.953636 54.466829 
L 240.545455 51.693129 
L 241.137273 54.178942 
L 241.729091 50.8988 
L 242.320909 46.270539 
L 242.912727 53.428094 
L 243.504545 55.195019 
L 244.096364 54.568858 
L 244.688182 54.461964 
L 245.28 54.216112 
L 245.871818 47.933166 
L 246.463636 51.885262 
L 247.055455 51.534707 
L 247.647273 57.045878 
L 248.239091 53.953792 
L 248.830909 55.659578 
L 249.422727 51.098868 
L 250.014545 51.051419 
L 250.606364 49.944028 
L 251.198182 52.118425 
L 251.79 51.331756 
L 252.381818 53.872168 
L 252.973636 50.726324 
L 253.565455 54.412954 
L 254.157273 49.820062 
L 254.749091 48.569702 
L 255.340909 50.939016 
L 255.932727 49.835271 
L 256.524545 51.531739 
L 257.116364 51.771295 
L 257.708182 51.730272 
L 258.3 47.282883 
L 258.891818 49.0972 
L 260.075455 57.640937 
L 260.667273 58.829796 
L 261.259091 52.694637 
L 261.850909 52.983936 
L 262.442727 52.209929 
L 263.034545 51.809277 
L 263.626364 51.619171 
L 264.218182 50.643729 
L 264.81 53.961069 
L 265.401818 54.599587 
L 265.993636 54.052853 
L 266.585455 52.066435 
L 267.177273 56.723193 
L 267.769091 58.309511 
L 268.360909 51.721178 
L 268.952727 53.482502 
L 269.544545 57.025992 
L 270.136364 57.161717 
L 270.728182 53.005061 
L 271.32 53.608761 
L 271.911818 52.651634 
L 272.503636 55.76624 
L 273.095455 55.415998 
L 273.687273 53.25499 
L 274.279091 52.777063 
L 274.870909 56.106096 
L 275.462727 52.594845 
L 276.054545 52.447806 
L 276.646364 52.538531 
L 277.238182 56.9921 
L 277.83 55.841878 
L 278.421818 53.645174 
L 279.013636 55.304398 
L 279.605455 58.462866 
L 280.197273 55.933083 
L 280.789091 56.853623 
L 281.380909 54.711358 
L 281.972727 50.38549 
L 282.564545 55.768731 
L 283.156364 51.972204 
L 283.748182 53.231406 
L 284.34 53.923562 
L 284.931818 53.710842 
L 285.523636 53.787083 
L 286.115455 57.051827 
L 286.707273 55.71695 
L 287.299091 56.463153 
L 287.890909 53.965478 
L 288.482727 52.473309 
L 289.074545 54.375387 
L 289.666364 57.013204 
L 290.258182 58.877805 
L 290.85 56.079684 
L 291.441818 54.861435 
L 292.033636 60.332184 
L 292.625455 60.151985 
L 293.217273 56.168121 
L 293.809091 53.750749 
L 294.400909 55.802967 
L 295.584545 57.696163 
L 296.176364 56.204969 
L 296.768182 57.116718 
L 297.36 56.964345 
L 297.951818 55.137601 
L 298.543636 57.315184 
L 299.135455 54.219453 
L 299.727273 59.947624 
L 300.319091 56.217793 
L 300.910909 57.991935 
L 301.502727 56.834412 
L 302.094545 57.105022 
L 302.686364 55.335086 
L 303.278182 57.599201 
L 303.87 57.422222 
L 304.461818 56.852601 
L 305.053636 55.156902 
L 306.237273 59.381447 
L 306.829091 54.805663 
L 307.420909 57.369229 
L 308.012727 56.975181 
L 308.604545 60.521284 
L 309.196364 56.920997 
L 309.788182 54.604092 
L 310.38 56.591809 
L 310.971818 52.951016 
L 311.563636 52.786677 
L 312.155455 54.704408 
L 312.747273 55.048349 
L 313.339091 58.620485 
L 313.930909 57.386501 
L 314.522727 55.151138 
L 315.114545 54.014867 
L 315.706364 57.118329 
L 316.298182 56.359728 
L 316.89 56.439467 
L 317.481818 57.248869 
L 318.073636 53.893452 
L 318.665455 55.961001 
L 319.257273 55.816757 
L 319.849091 55.418334 
L 320.440909 55.227604 
L 321.032727 58.704183 
L 321.624545 60.437516 
L 322.216364 58.973306 
L 323.4 56.413783 
L 323.991818 55.831207 
L 324.583636 52.517119 
L 325.175455 56.529701 
L 326.359091 55.037964 
L 326.950909 57.47889 
L 327.542727 57.234184 
L 328.134545 60.27353 
L 328.726364 57.860079 
L 329.318182 54.433463 
L 329.91 58.756317 
L 330.501818 54.594638 
L 331.093636 54.781849 
L 331.685455 56.138484 
L 332.277273 60.791593 
L 332.869091 59.422823 
L 333.460909 61.593566 
L 334.052727 55.555925 
L 334.644545 58.252178 
L 335.236364 53.442716 
L 335.828182 56.306187 
L 336.42 55.961925 
L 337.603636 58.538892 
L 338.195455 57.101941 
L 338.787273 57.051723 
L 339.379091 55.149402 
L 339.970909 59.690448 
L 340.562727 62.949683 
L 341.154545 58.269574 
L 341.746364 62.110538 
L 342.338182 61.463047 
L 342.93 57.841216 
L 343.521818 61.739295 
L 344.113636 58.060405 
L 344.705455 57.774969 
L 345.297273 58.57923 
L 345.889091 60.384749 
L 346.480909 57.908158 
L 347.072727 58.286143 
L 347.664545 58.515211 
L 348.256364 58.091492 
L 348.848182 54.865108 
L 349.44 59.732793 
L 350.031818 59.849773 
L 350.623636 56.31816 
L 351.215455 58.985583 
L 351.807273 55.532331 
L 352.399091 56.074474 
L 352.990909 58.229111 
L 353.582727 59.038497 
L 354.174545 56.587412 
L 354.766364 57.716836 
L 355.358182 58.422132 
L 355.95 59.612614 
L 356.541818 56.705076 
L 357.133636 61.858123 
L 357.725455 56.859682 
L 358.909091 59.64525 
L 359.500909 61.953669 
L 360.092727 61.215242 
L 360.684545 59.4291 
L 361.276364 62.332405 
L 361.868182 61.280146 
L 362.46 57.158761 
L 363.051818 60.507876 
L 363.643636 59.445917 
L 364.235455 56.905617 
L 364.827273 58.634672 
L 365.419091 56.83992 
L 366.010909 58.718847 
L 366.602727 59.059074 
L 367.194545 56.015078 
L 368.378182 57.8661 
L 368.97 59.69994 
L 369.561818 59.694182 
L 370.153636 59.421927 
L 370.745455 56.939684 
L 371.337273 60.665194 
L 371.929091 56.303031 
L 372.520909 59.085608 
L 373.112727 56.397987 
L 373.704545 60.737615 
L 374.296364 56.145864 
L 374.888182 58.745533 
L 375.48 59.465583 
L 376.663636 57.012207 
L 377.255455 61.397867 
L 378.439091 57.256835 
L 379.030909 58.212532 
L 379.622727 57.461306 
L 380.214545 59.128936 
L 380.806364 57.806341 
L 381.398182 58.860917 
L 381.99 56.760517 
L 382.581818 56.217626 
L 383.173636 57.488215 
L 384.357273 55.606938 
L 384.949091 60.53437 
L 385.540909 58.049973 
L 386.132727 56.366714 
L 386.724545 53.646614 
L 387.316364 52.725394 
L 387.908182 54.314647 
L 388.5 55.311093 
L 389.091818 55.686334 
L 389.683636 59.67995 
L 390.275455 57.337508 
L 390.867273 59.022923 
L 391.459091 58.960213 
L 392.050909 59.441862 
L 392.642727 58.322783 
L 393.826364 61.653184 
L 394.418182 62.532782 
L 395.01 58.872748 
L 395.601818 57.744086 
L 396.193636 54.866776 
L 396.785455 55.738532 
L 397.377273 57.680579 
L 397.969091 57.622408 
L 398.560909 59.355256 
L 399.152727 58.565774 
L 399.744545 57.47401 
L 400.336364 60.302656 
L 400.928182 57.23813 
L 401.52 55.201833 
L 402.111818 61.738568 
L 403.295455 55.194973 
L 403.887273 58.45685 
L 404.479091 56.742093 
L 405.070909 53.942239 
L 405.662727 58.69446 
L 406.254545 62.407607 
L 406.846364 58.429841 
L 407.438182 59.789821 
L 408.03 60.242046 
L 408.621818 57.951633 
L 409.213636 64.853479 
L 410.397273 56.933571 
L 410.989091 57.790673 
L 411.580909 56.503635 
L 412.172727 59.616407 
L 412.764545 57.38084 
L 413.356364 60.640441 
L 413.948182 61.003385 
L 414.54 62.491166 
L 415.131818 60.999387 
L 415.723636 62.243945 
L 416.315455 59.08258 
L 416.907273 54.124711 
L 417.499091 57.148361 
L 418.090909 59.133668 
L 418.682727 60.391227 
L 419.274545 58.938846 
L 419.866364 61.159523 
L 420.458182 60.062895 
L 421.05 59.565586 
L 421.641818 61.151938 
L 422.233636 60.397989 
L 422.825455 63.491261 
L 423.417273 61.194162 
L 424.009091 59.598845 
L 424.600909 64.063673 
L 425.192727 60.503855 
L 425.784545 61.983301 
L 426.376364 60.72592 
L 426.968182 60.876008 
L 427.56 62.216834 
L 428.743636 58.361555 
L 429.927273 64.789909 
L 430.519091 59.327735 
L 431.110909 61.261087 
L 431.702727 63.864808 
L 432.294545 62.626016 
L 432.886364 61.807063 
L 433.478182 59.025196 
L 434.07 60.645641 
L 434.661818 57.742097 
L 435.253636 62.0397 
L 435.845455 61.523766 
L 435.845455 61.523766 
" style="fill:none;stroke:#d62728;stroke-linecap:square;stroke-width:1.5;"/>
   </g>
   <g id="line2d_17"/>
   <g id="line2d_18"/>
   <g id="line2d_19"/>
   <g id="line2d_20"/>
   <g id="patch_3">
    <path d="M 63 192.24 
L 63 25.92 
" style="fill:none;stroke:#000000;stroke-linecap:square;stroke-linejoin:miter;stroke-width:0.8;"/>
   </g>
   <g id="patch_4">
    <path d="M 63 192.24 
L 453.6 192.24 
" style="fill:none;stroke:#000000;stroke-linecap:square;stroke-linejoin:miter;stroke-width:0.8;"/>
   </g>
   <g id="text_15">
    <!-- modeltype=base, labormarket=unbiased -->
    <g transform="translate(134.180625 19.92)scale(0.12 -0.12)">
     <defs>
      <path d="M 30.609375 48.390625 
Q 23.390625 48.390625 19.1875 42.75 
Q 14.984375 37.109375 14.984375 27.296875 
Q 14.984375 17.484375 19.15625 11.84375 
Q 23.34375 6.203125 30.609375 6.203125 
Q 37.796875 6.203125 41.984375 11.859375 
Q 46.1875 17.53125 46.1875 27.296875 
Q 46.1875 37.015625 41.984375 42.703125 
Q 37.796875 48.390625 30.609375 48.390625 
z
M 30.609375 56 
Q 42.328125 56 49.015625 48.375 
Q 55.71875 40.765625 55.71875 27.296875 
Q 55.71875 13.875 49.015625 6.21875 
Q 42.328125 -1.421875 30.609375 -1.421875 
Q 18.84375 -1.421875 12.171875 6.21875 
Q 5.515625 13.875 5.515625 27.296875 
Q 5.515625 40.765625 12.171875 48.375 
Q 18.84375 56 30.609375 56 
z
" id="DejaVuSans-111"/>
      <path d="M 45.40625 46.390625 
L 45.40625 75.984375 
L 54.390625 75.984375 
L 54.390625 0 
L 45.40625 0 
L 45.40625 8.203125 
Q 42.578125 3.328125 38.25 0.953125 
Q 33.9375 -1.421875 27.875 -1.421875 
Q 17.96875 -1.421875 11.734375 6.484375 
Q 5.515625 14.40625 5.515625 27.296875 
Q 5.515625 40.1875 11.734375 48.09375 
Q 17.96875 56 27.875 56 
Q 33.9375 56 38.25 53.625 
Q 42.578125 51.265625 45.40625 46.390625 
z
M 14.796875 27.296875 
Q 14.796875 17.390625 18.875 11.75 
Q 22.953125 6.109375 30.078125 6.109375 
Q 37.203125 6.109375 41.296875 11.75 
Q 45.40625 17.390625 45.40625 27.296875 
Q 45.40625 37.203125 41.296875 42.84375 
Q 37.203125 48.484375 30.078125 48.484375 
Q 22.953125 48.484375 18.875 42.84375 
Q 14.796875 37.203125 14.796875 27.296875 
z
" id="DejaVuSans-100"/>
      <path d="M 9.421875 75.984375 
L 18.40625 75.984375 
L 18.40625 0 
L 9.421875 0 
z
" id="DejaVuSans-108"/>
      <path d="M 32.171875 -5.078125 
Q 28.375 -14.84375 24.75 -17.8125 
Q 21.140625 -20.796875 15.09375 -20.796875 
L 7.90625 -20.796875 
L 7.90625 -13.28125 
L 13.1875 -13.28125 
Q 16.890625 -13.28125 18.9375 -11.515625 
Q 21 -9.765625 23.484375 -3.21875 
L 25.09375 0.875 
L 2.984375 54.6875 
L 12.5 54.6875 
L 29.59375 11.921875 
L 46.6875 54.6875 
L 56.203125 54.6875 
z
" id="DejaVuSans-121"/>
      <path d="M 18.109375 8.203125 
L 18.109375 -20.796875 
L 9.078125 -20.796875 
L 9.078125 54.6875 
L 18.109375 54.6875 
L 18.109375 46.390625 
Q 20.953125 51.265625 25.265625 53.625 
Q 29.59375 56 35.59375 56 
Q 45.5625 56 51.78125 48.09375 
Q 58.015625 40.1875 58.015625 27.296875 
Q 58.015625 14.40625 51.78125 6.484375 
Q 45.5625 -1.421875 35.59375 -1.421875 
Q 29.59375 -1.421875 25.265625 0.953125 
Q 20.953125 3.328125 18.109375 8.203125 
z
M 48.6875 27.296875 
Q 48.6875 37.203125 44.609375 42.84375 
Q 40.53125 48.484375 33.40625 48.484375 
Q 26.265625 48.484375 22.1875 42.84375 
Q 18.109375 37.203125 18.109375 27.296875 
Q 18.109375 17.390625 22.1875 11.75 
Q 26.265625 6.109375 33.40625 6.109375 
Q 40.53125 6.109375 44.609375 11.75 
Q 48.6875 17.390625 48.6875 27.296875 
z
" id="DejaVuSans-112"/>
      <path d="M 10.59375 45.40625 
L 73.1875 45.40625 
L 73.1875 37.203125 
L 10.59375 37.203125 
z
M 10.59375 25.484375 
L 73.1875 25.484375 
L 73.1875 17.1875 
L 10.59375 17.1875 
z
" id="DejaVuSans-61"/>
      <path d="M 48.6875 27.296875 
Q 48.6875 37.203125 44.609375 42.84375 
Q 40.53125 48.484375 33.40625 48.484375 
Q 26.265625 48.484375 22.1875 42.84375 
Q 18.109375 37.203125 18.109375 27.296875 
Q 18.109375 17.390625 22.1875 11.75 
Q 26.265625 6.109375 33.40625 6.109375 
Q 40.53125 6.109375 44.609375 11.75 
Q 48.6875 17.390625 48.6875 27.296875 
z
M 18.109375 46.390625 
Q 20.953125 51.265625 25.265625 53.625 
Q 29.59375 56 35.59375 56 
Q 45.5625 56 51.78125 48.09375 
Q 58.015625 40.1875 58.015625 27.296875 
Q 58.015625 14.40625 51.78125 6.484375 
Q 45.5625 -1.421875 35.59375 -1.421875 
Q 29.59375 -1.421875 25.265625 0.953125 
Q 20.953125 3.328125 18.109375 8.203125 
L 18.109375 0 
L 9.078125 0 
L 9.078125 75.984375 
L 18.109375 75.984375 
z
" id="DejaVuSans-98"/>
      <path d="M 34.28125 27.484375 
Q 23.390625 27.484375 19.1875 25 
Q 14.984375 22.515625 14.984375 16.5 
Q 14.984375 11.71875 18.140625 8.90625 
Q 21.296875 6.109375 26.703125 6.109375 
Q 34.1875 6.109375 38.703125 11.40625 
Q 43.21875 16.703125 43.21875 25.484375 
L 43.21875 27.484375 
z
M 52.203125 31.203125 
L 52.203125 0 
L 43.21875 0 
L 43.21875 8.296875 
Q 40.140625 3.328125 35.546875 0.953125 
Q 30.953125 -1.421875 24.3125 -1.421875 
Q 15.921875 -1.421875 10.953125 3.296875 
Q 6 8.015625 6 15.921875 
Q 6 25.140625 12.171875 29.828125 
Q 18.359375 34.515625 30.609375 34.515625 
L 43.21875 34.515625 
L 43.21875 35.40625 
Q 43.21875 41.609375 39.140625 45 
Q 35.0625 48.390625 27.6875 48.390625 
Q 23 48.390625 18.546875 47.265625 
Q 14.109375 46.140625 10.015625 43.890625 
L 10.015625 52.203125 
Q 14.9375 54.109375 19.578125 55.046875 
Q 24.21875 56 28.609375 56 
Q 40.484375 56 46.34375 49.84375 
Q 52.203125 43.703125 52.203125 31.203125 
z
" id="DejaVuSans-97"/>
      <path d="M 44.28125 53.078125 
L 44.28125 44.578125 
Q 40.484375 46.53125 36.375 47.5 
Q 32.28125 48.484375 27.875 48.484375 
Q 21.1875 48.484375 17.84375 46.4375 
Q 14.5 44.390625 14.5 40.28125 
Q 14.5 37.15625 16.890625 35.375 
Q 19.28125 33.59375 26.515625 31.984375 
L 29.59375 31.296875 
Q 39.15625 29.25 43.1875 25.515625 
Q 47.21875 21.78125 47.21875 15.09375 
Q 47.21875 7.46875 41.1875 3.015625 
Q 35.15625 -1.421875 24.609375 -1.421875 
Q 20.21875 -1.421875 15.453125 -0.5625 
Q 10.6875 0.296875 5.421875 2 
L 5.421875 11.28125 
Q 10.40625 8.6875 15.234375 7.390625 
Q 20.0625 6.109375 24.8125 6.109375 
Q 31.15625 6.109375 34.5625 8.28125 
Q 37.984375 10.453125 37.984375 14.40625 
Q 37.984375 18.0625 35.515625 20.015625 
Q 33.0625 21.96875 24.703125 23.78125 
L 21.578125 24.515625 
Q 13.234375 26.265625 9.515625 29.90625 
Q 5.8125 33.546875 5.8125 39.890625 
Q 5.8125 47.609375 11.28125 51.796875 
Q 16.75 56 26.8125 56 
Q 31.78125 56 36.171875 55.265625 
Q 40.578125 54.546875 44.28125 53.078125 
z
" id="DejaVuSans-115"/>
      <path d="M 11.71875 12.40625 
L 22.015625 12.40625 
L 22.015625 4 
L 14.015625 -11.625 
L 7.71875 -11.625 
L 11.71875 4 
z
" id="DejaVuSans-44"/>
      <path id="DejaVuSans-32"/>
      <path d="M 41.109375 46.296875 
Q 39.59375 47.171875 37.8125 47.578125 
Q 36.03125 48 33.890625 48 
Q 26.265625 48 22.1875 43.046875 
Q 18.109375 38.09375 18.109375 28.8125 
L 18.109375 0 
L 9.078125 0 
L 9.078125 54.6875 
L 18.109375 54.6875 
L 18.109375 46.1875 
Q 20.953125 51.171875 25.484375 53.578125 
Q 30.03125 56 36.53125 56 
Q 37.453125 56 38.578125 55.875 
Q 39.703125 55.765625 41.0625 55.515625 
z
" id="DejaVuSans-114"/>
      <path d="M 9.078125 75.984375 
L 18.109375 75.984375 
L 18.109375 31.109375 
L 44.921875 54.6875 
L 56.390625 54.6875 
L 27.390625 29.109375 
L 57.625 0 
L 45.90625 0 
L 18.109375 26.703125 
L 18.109375 0 
L 9.078125 0 
z
" id="DejaVuSans-107"/>
      <path d="M 8.5 21.578125 
L 8.5 54.6875 
L 17.484375 54.6875 
L 17.484375 21.921875 
Q 17.484375 14.15625 20.5 10.265625 
Q 23.53125 6.390625 29.59375 6.390625 
Q 36.859375 6.390625 41.078125 11.03125 
Q 45.3125 15.671875 45.3125 23.6875 
L 45.3125 54.6875 
L 54.296875 54.6875 
L 54.296875 0 
L 45.3125 0 
L 45.3125 8.40625 
Q 42.046875 3.421875 37.71875 1 
Q 33.40625 -1.421875 27.6875 -1.421875 
Q 18.265625 -1.421875 13.375 4.4375 
Q 8.5 10.296875 8.5 21.578125 
z
M 31.109375 56 
z
" id="DejaVuSans-117"/>
      <path d="M 54.890625 33.015625 
L 54.890625 0 
L 45.90625 0 
L 45.90625 32.71875 
Q 45.90625 40.484375 42.875 44.328125 
Q 39.84375 48.1875 33.796875 48.1875 
Q 26.515625 48.1875 22.3125 43.546875 
Q 18.109375 38.921875 18.109375 30.90625 
L 18.109375 0 
L 9.078125 0 
L 9.078125 54.6875 
L 18.109375 54.6875 
L 18.109375 46.1875 
Q 21.34375 51.125 25.703125 53.5625 
Q 30.078125 56 35.796875 56 
Q 45.21875 56 50.046875 50.171875 
Q 54.890625 44.34375 54.890625 33.015625 
z
" id="DejaVuSans-110"/>
     </defs>
     <use xlink:href="#DejaVuSans-109"/>
     <use x="97.412109" xlink:href="#DejaVuSans-111"/>
     <use x="158.59375" xlink:href="#DejaVuSans-100"/>
     <use x="222.070312" xlink:href="#DejaVuSans-101"/>
     <use x="283.59375" xlink:href="#DejaVuSans-108"/>
     <use x="311.376953" xlink:href="#DejaVuSans-116"/>
     <use x="350.585938" xlink:href="#DejaVuSans-121"/>
     <use x="409.765625" xlink:href="#DejaVuSans-112"/>
     <use x="473.242188" xlink:href="#DejaVuSans-101"/>
     <use x="534.765625" xlink:href="#DejaVuSans-61"/>
     <use x="618.554688" xlink:href="#DejaVuSans-98"/>
     <use x="682.03125" xlink:href="#DejaVuSans-97"/>
     <use x="743.310547" xlink:href="#DejaVuSans-115"/>
     <use x="795.410156" xlink:href="#DejaVuSans-101"/>
     <use x="856.933594" xlink:href="#DejaVuSans-44"/>
     <use x="888.720703" xlink:href="#DejaVuSans-32"/>
     <use x="920.507812" xlink:href="#DejaVuSans-108"/>
     <use x="948.291016" xlink:href="#DejaVuSans-97"/>
     <use x="1009.570312" xlink:href="#DejaVuSans-98"/>
     <use x="1073.046875" xlink:href="#DejaVuSans-111"/>
     <use x="1134.228516" xlink:href="#DejaVuSans-114"/>
     <use x="1173.591797" xlink:href="#DejaVuSans-109"/>
     <use x="1271.003906" xlink:href="#DejaVuSans-97"/>
     <use x="1332.283203" xlink:href="#DejaVuSans-114"/>
     <use x="1373.396484" xlink:href="#DejaVuSans-107"/>
     <use x="1427.681641" xlink:href="#DejaVuSans-101"/>
     <use x="1489.205078" xlink:href="#DejaVuSans-116"/>
     <use x="1528.414062" xlink:href="#DejaVuSans-61"/>
     <use x="1612.203125" xlink:href="#DejaVuSans-117"/>
     <use x="1675.582031" xlink:href="#DejaVuSans-110"/>
     <use x="1738.960938" xlink:href="#DejaVuSans-98"/>
     <use x="1802.4375" xlink:href="#DejaVuSans-105"/>
     <use x="1830.220703" xlink:href="#DejaVuSans-97"/>
     <use x="1891.5" xlink:href="#DejaVuSans-115"/>
     <use x="1943.599609" xlink:href="#DejaVuSans-101"/>
     <use x="2005.123047" xlink:href="#DejaVuSans-100"/>
    </g>
   </g>
   <g id="legend_1">
    <g id="patch_5">
     <path d="M 70 187.24 
L 235.407813 187.24 
Q 237.407813 187.24 237.407813 185.24 
L 237.407813 112.57125 
Q 237.407813 110.57125 235.407813 110.57125 
L 70 110.57125 
Q 68 110.57125 68 112.57125 
L 68 185.24 
Q 68 187.24 70 187.24 
z
" style="fill:#ffffff;opacity:0.8;stroke:#cccccc;stroke-linejoin:miter;"/>
    </g>
    <g id="text_16">
     <!-- scenario -->
     <g transform="translate(131.536719 122.169687)scale(0.1 -0.1)">
      <defs>
       <path d="M 48.78125 52.59375 
L 48.78125 44.1875 
Q 44.96875 46.296875 41.140625 47.34375 
Q 37.3125 48.390625 33.40625 48.390625 
Q 24.65625 48.390625 19.8125 42.84375 
Q 14.984375 37.3125 14.984375 27.296875 
Q 14.984375 17.28125 19.8125 11.734375 
Q 24.65625 6.203125 33.40625 6.203125 
Q 37.3125 6.203125 41.140625 7.25 
Q 44.96875 8.296875 48.78125 10.40625 
L 48.78125 2.09375 
Q 45.015625 0.34375 40.984375 -0.53125 
Q 36.96875 -1.421875 32.421875 -1.421875 
Q 20.0625 -1.421875 12.78125 6.34375 
Q 5.515625 14.109375 5.515625 27.296875 
Q 5.515625 40.671875 12.859375 48.328125 
Q 20.21875 56 33.015625 56 
Q 37.15625 56 41.109375 55.140625 
Q 45.0625 54.296875 48.78125 52.59375 
z
" id="DejaVuSans-99"/>
      </defs>
      <use xlink:href="#DejaVuSans-115"/>
      <use x="52.099609" xlink:href="#DejaVuSans-99"/>
      <use x="107.080078" xlink:href="#DejaVuSans-101"/>
      <use x="168.603516" xlink:href="#DejaVuSans-110"/>
      <use x="231.982422" xlink:href="#DejaVuSans-97"/>
      <use x="293.261719" xlink:href="#DejaVuSans-114"/>
      <use x="334.375" xlink:href="#DejaVuSans-105"/>
      <use x="362.158203" xlink:href="#DejaVuSans-111"/>
     </g>
    </g>
    <g id="line2d_21">
     <path d="M 72 133.347812 
L 92 133.347812 
" style="fill:none;stroke:#1f77b4;stroke-linecap:square;stroke-width:1.5;"/>
    </g>
    <g id="line2d_22"/>
    <g id="text_17">
     <!-- onlylow -->
     <g transform="translate(100 136.847812)scale(0.1 -0.1)">
      <defs>
       <path d="M 4.203125 54.6875 
L 13.1875 54.6875 
L 24.421875 12.015625 
L 35.59375 54.6875 
L 46.1875 54.6875 
L 57.421875 12.015625 
L 68.609375 54.6875 
L 77.59375 54.6875 
L 63.28125 0 
L 52.6875 0 
L 40.921875 44.828125 
L 29.109375 0 
L 18.5 0 
z
" id="DejaVuSans-119"/>
      </defs>
      <use xlink:href="#DejaVuSans-111"/>
      <use x="61.181641" xlink:href="#DejaVuSans-110"/>
      <use x="124.560547" xlink:href="#DejaVuSans-108"/>
      <use x="152.34375" xlink:href="#DejaVuSans-121"/>
      <use x="211.523438" xlink:href="#DejaVuSans-108"/>
      <use x="239.306641" xlink:href="#DejaVuSans-111"/>
      <use x="300.488281" xlink:href="#DejaVuSans-119"/>
     </g>
    </g>
    <g id="line2d_23">
     <path d="M 72 148.025937 
L 92 148.025937 
" style="fill:none;stroke:#ff7f0e;stroke-linecap:square;stroke-width:1.5;"/>
    </g>
    <g id="line2d_24"/>
    <g id="text_18">
     <!-- onlyhigh -->
     <g transform="translate(100 151.525937)scale(0.1 -0.1)">
      <defs>
       <path d="M 54.890625 33.015625 
L 54.890625 0 
L 45.90625 0 
L 45.90625 32.71875 
Q 45.90625 40.484375 42.875 44.328125 
Q 39.84375 48.1875 33.796875 48.1875 
Q 26.515625 48.1875 22.3125 43.546875 
Q 18.109375 38.921875 18.109375 30.90625 
L 18.109375 0 
L 9.078125 0 
L 9.078125 75.984375 
L 18.109375 75.984375 
L 18.109375 46.1875 
Q 21.34375 51.125 25.703125 53.5625 
Q 30.078125 56 35.796875 56 
Q 45.21875 56 50.046875 50.171875 
Q 54.890625 44.34375 54.890625 33.015625 
z
" id="DejaVuSans-104"/>
       <path d="M 45.40625 27.984375 
Q 45.40625 37.75 41.375 43.109375 
Q 37.359375 48.484375 30.078125 48.484375 
Q 22.859375 48.484375 18.828125 43.109375 
Q 14.796875 37.75 14.796875 27.984375 
Q 14.796875 18.265625 18.828125 12.890625 
Q 22.859375 7.515625 30.078125 7.515625 
Q 37.359375 7.515625 41.375 12.890625 
Q 45.40625 18.265625 45.40625 27.984375 
z
M 54.390625 6.78125 
Q 54.390625 -7.171875 48.1875 -13.984375 
Q 42 -20.796875 29.203125 -20.796875 
Q 24.46875 -20.796875 20.265625 -20.09375 
Q 16.0625 -19.390625 12.109375 -17.921875 
L 12.109375 -9.1875 
Q 16.0625 -11.328125 19.921875 -12.34375 
Q 23.78125 -13.375 27.78125 -13.375 
Q 36.625 -13.375 41.015625 -8.765625 
Q 45.40625 -4.15625 45.40625 5.171875 
L 45.40625 9.625 
Q 42.625 4.78125 38.28125 2.390625 
Q 33.9375 0 27.875 0 
Q 17.828125 0 11.671875 7.65625 
Q 5.515625 15.328125 5.515625 27.984375 
Q 5.515625 40.671875 11.671875 48.328125 
Q 17.828125 56 27.875 56 
Q 33.9375 56 38.28125 53.609375 
Q 42.625 51.21875 45.40625 46.390625 
L 45.40625 54.6875 
L 54.390625 54.6875 
z
" id="DejaVuSans-103"/>
      </defs>
      <use xlink:href="#DejaVuSans-111"/>
      <use x="61.181641" xlink:href="#DejaVuSans-110"/>
      <use x="124.560547" xlink:href="#DejaVuSans-108"/>
      <use x="152.34375" xlink:href="#DejaVuSans-121"/>
      <use x="211.523438" xlink:href="#DejaVuSans-104"/>
      <use x="274.902344" xlink:href="#DejaVuSans-105"/>
      <use x="302.685547" xlink:href="#DejaVuSans-103"/>
      <use x="366.162109" xlink:href="#DejaVuSans-104"/>
     </g>
    </g>
    <g id="line2d_25">
     <path d="M 72 162.704062 
L 92 162.704062 
" style="fill:none;stroke:#2ca02c;stroke-linecap:square;stroke-width:1.5;"/>
    </g>
    <g id="line2d_26"/>
    <g id="text_19">
     <!-- balanced -->
     <g transform="translate(100 166.204062)scale(0.1 -0.1)">
      <use xlink:href="#DejaVuSans-98"/>
      <use x="63.476562" xlink:href="#DejaVuSans-97"/>
      <use x="124.755859" xlink:href="#DejaVuSans-108"/>
      <use x="152.539062" xlink:href="#DejaVuSans-97"/>
      <use x="213.818359" xlink:href="#DejaVuSans-110"/>
      <use x="277.197266" xlink:href="#DejaVuSans-99"/>
      <use x="332.177734" xlink:href="#DejaVuSans-101"/>
      <use x="393.701172" xlink:href="#DejaVuSans-100"/>
     </g>
    </g>
    <g id="line2d_27">
     <path d="M 72 177.382187 
L 92 177.382187 
" style="fill:none;stroke:#d62728;stroke-linecap:square;stroke-width:1.5;"/>
    </g>
    <g id="line2d_28"/>
    <g id="text_20">
     <!-- balanced_errors_penalized -->
     <g transform="translate(100 180.882187)scale(0.1 -0.1)">
      <defs>
       <path d="M 50.984375 -16.609375 
L 50.984375 -23.578125 
L -0.984375 -23.578125 
L -0.984375 -16.609375 
z
" id="DejaVuSans-95"/>
       <path d="M 5.515625 54.6875 
L 48.1875 54.6875 
L 48.1875 46.484375 
L 14.40625 7.171875 
L 48.1875 7.171875 
L 48.1875 0 
L 4.296875 0 
L 4.296875 8.203125 
L 38.09375 47.515625 
L 5.515625 47.515625 
z
" id="DejaVuSans-122"/>
      </defs>
      <use xlink:href="#DejaVuSans-98"/>
      <use x="63.476562" xlink:href="#DejaVuSans-97"/>
      <use x="124.755859" xlink:href="#DejaVuSans-108"/>
      <use x="152.539062" xlink:href="#DejaVuSans-97"/>
      <use x="213.818359" xlink:href="#DejaVuSans-110"/>
      <use x="277.197266" xlink:href="#DejaVuSans-99"/>
      <use x="332.177734" xlink:href="#DejaVuSans-101"/>
      <use x="393.701172" xlink:href="#DejaVuSans-100"/>
      <use x="457.177734" xlink:href="#DejaVuSans-95"/>
      <use x="507.177734" xlink:href="#DejaVuSans-101"/>
      <use x="568.701172" xlink:href="#DejaVuSans-114"/>
      <use x="608.064453" xlink:href="#DejaVuSans-114"/>
      <use x="646.927734" xlink:href="#DejaVuSans-111"/>
      <use x="708.109375" xlink:href="#DejaVuSans-114"/>
      <use x="749.222656" xlink:href="#DejaVuSans-115"/>
      <use x="801.322266" xlink:href="#DejaVuSans-95"/>
      <use x="851.322266" xlink:href="#DejaVuSans-112"/>
      <use x="914.798828" xlink:href="#DejaVuSans-101"/>
      <use x="976.322266" xlink:href="#DejaVuSans-110"/>
      <use x="1039.701172" xlink:href="#DejaVuSans-97"/>
      <use x="1100.980469" xlink:href="#DejaVuSans-108"/>
      <use x="1128.763672" xlink:href="#DejaVuSans-105"/>
      <use x="1156.546875" xlink:href="#DejaVuSans-122"/>
      <use x="1209.037109" xlink:href="#DejaVuSans-101"/>
      <use x="1270.560547" xlink:href="#DejaVuSans-100"/>
     </g>
    </g>
   </g>
  </g>
 </g>
 <defs>
  <clipPath id="p9b930ae637">
   <rect height="166.32" width="390.6" x="63" y="25.92"/>
  </clipPath>
 </defs>
</svg>
