<?xml version="1.0" encoding="utf-8" standalone="no"?>
<!DOCTYPE svg PUBLIC "-//W3C//DTD SVG 1.1//EN"
  "http://www.w3.org/Graphics/SVG/1.1/DTD/svg11.dtd">
<!-- Created with matplotlib (https://matplotlib.org/) -->
<svg height="216pt" version="1.1" viewBox="0 0 504 216" width="504pt" xmlns="http://www.w3.org/2000/svg" xmlns:xlink="http://www.w3.org/1999/xlink">
 <metadata>
  <rdf:RDF xmlns:cc="http://creativecommons.org/ns#" xmlns:dc="http://purl.org/dc/elements/1.1/" xmlns:rdf="http://www.w3.org/1999/02/22-rdf-syntax-ns#">
   <cc:Work>
    <dc:type rdf:resource="http://purl.org/dc/dcmitype/StillImage"/>
    <dc:date>2021-11-19T12:55:01.117765</dc:date>
    <dc:format>image/svg+xml</dc:format>
    <dc:creator>
     <cc:Agent>
      <dc:title>Matplotlib v3.3.4, https://matplotlib.org/</dc:title>
     </cc:Agent>
    </dc:creator>
   </cc:Work>
  </rdf:RDF>
 </metadata>
 <defs>
  <style type="text/css">*{stroke-linecap:butt;stroke-linejoin:round;}</style>
 </defs>
 <g id="figure_1">
  <g id="patch_1">
   <path d="M 0 216 
L 504 216 
L 504 0 
L 0 0 
z
" style="fill:#ffffff;"/>
  </g>
  <g id="axes_1">
   <g id="patch_2">
    <path d="M 63 192.24 
L 453.6 192.24 
L 453.6 25.92 
L 63 25.92 
z
" style="fill:#ffffff;"/>
   </g>
   <g id="matplotlib.axis_1">
    <g id="xtick_1">
     <g id="line2d_1">
      <defs>
       <path d="M 0 0 
L 0 3.5 
" id="mbd760cc96d" style="stroke:#000000;stroke-width:0.8;"/>
      </defs>
      <g>
       <use style="stroke:#000000;stroke-width:0.8;" x="81.346364" xlink:href="#mbd760cc96d" y="192.24"/>
      </g>
     </g>
     <g id="text_1">
      <!-- 200 -->
      <g transform="translate(71.802614 206.838437)scale(0.1 -0.1)">
       <defs>
        <path d="M 19.1875 8.296875 
L 53.609375 8.296875 
L 53.609375 0 
L 7.328125 0 
L 7.328125 8.296875 
Q 12.9375 14.109375 22.625 23.890625 
Q 32.328125 33.6875 34.8125 36.53125 
Q 39.546875 41.84375 41.421875 45.53125 
Q 43.3125 49.21875 43.3125 52.78125 
Q 43.3125 58.59375 39.234375 62.25 
Q 35.15625 65.921875 28.609375 65.921875 
Q 23.96875 65.921875 18.8125 64.3125 
Q 13.671875 62.703125 7.8125 59.421875 
L 7.8125 69.390625 
Q 13.765625 71.78125 18.9375 73 
Q 24.125 74.21875 28.421875 74.21875 
Q 39.75 74.21875 46.484375 68.546875 
Q 53.21875 62.890625 53.21875 53.421875 
Q 53.21875 48.921875 51.53125 44.890625 
Q 49.859375 40.875 45.40625 35.40625 
Q 44.1875 33.984375 37.640625 27.21875 
Q 31.109375 20.453125 19.1875 8.296875 
z
" id="DejaVuSans-50"/>
        <path d="M 31.78125 66.40625 
Q 24.171875 66.40625 20.328125 58.90625 
Q 16.5 51.421875 16.5 36.375 
Q 16.5 21.390625 20.328125 13.890625 
Q 24.171875 6.390625 31.78125 6.390625 
Q 39.453125 6.390625 43.28125 13.890625 
Q 47.125 21.390625 47.125 36.375 
Q 47.125 51.421875 43.28125 58.90625 
Q 39.453125 66.40625 31.78125 66.40625 
z
M 31.78125 74.21875 
Q 44.046875 74.21875 50.515625 64.515625 
Q 56.984375 54.828125 56.984375 36.375 
Q 56.984375 17.96875 50.515625 8.265625 
Q 44.046875 -1.421875 31.78125 -1.421875 
Q 19.53125 -1.421875 13.0625 8.265625 
Q 6.59375 17.96875 6.59375 36.375 
Q 6.59375 54.828125 13.0625 64.515625 
Q 19.53125 74.21875 31.78125 74.21875 
z
" id="DejaVuSans-48"/>
       </defs>
       <use xlink:href="#DejaVuSans-50"/>
       <use x="63.623047" xlink:href="#DejaVuSans-48"/>
       <use x="127.246094" xlink:href="#DejaVuSans-48"/>
      </g>
     </g>
    </g>
    <g id="xtick_2">
     <g id="line2d_2">
      <g>
       <use style="stroke:#000000;stroke-width:0.8;" x="140.528182" xlink:href="#mbd760cc96d" y="192.24"/>
      </g>
     </g>
     <g id="text_2">
      <!-- 300 -->
      <g transform="translate(130.984432 206.838437)scale(0.1 -0.1)">
       <defs>
        <path d="M 40.578125 39.3125 
Q 47.65625 37.796875 51.625 33 
Q 55.609375 28.21875 55.609375 21.1875 
Q 55.609375 10.40625 48.1875 4.484375 
Q 40.765625 -1.421875 27.09375 -1.421875 
Q 22.515625 -1.421875 17.65625 -0.515625 
Q 12.796875 0.390625 7.625 2.203125 
L 7.625 11.71875 
Q 11.71875 9.328125 16.59375 8.109375 
Q 21.484375 6.890625 26.8125 6.890625 
Q 36.078125 6.890625 40.9375 10.546875 
Q 45.796875 14.203125 45.796875 21.1875 
Q 45.796875 27.640625 41.28125 31.265625 
Q 36.765625 34.90625 28.71875 34.90625 
L 20.21875 34.90625 
L 20.21875 43.015625 
L 29.109375 43.015625 
Q 36.375 43.015625 40.234375 45.921875 
Q 44.09375 48.828125 44.09375 54.296875 
Q 44.09375 59.90625 40.109375 62.90625 
Q 36.140625 65.921875 28.71875 65.921875 
Q 24.65625 65.921875 20.015625 65.03125 
Q 15.375 64.15625 9.8125 62.3125 
L 9.8125 71.09375 
Q 15.4375 72.65625 20.34375 73.4375 
Q 25.25 74.21875 29.59375 74.21875 
Q 40.828125 74.21875 47.359375 69.109375 
Q 53.90625 64.015625 53.90625 55.328125 
Q 53.90625 49.265625 50.4375 45.09375 
Q 46.96875 40.921875 40.578125 39.3125 
z
" id="DejaVuSans-51"/>
       </defs>
       <use xlink:href="#DejaVuSans-51"/>
       <use x="63.623047" xlink:href="#DejaVuSans-48"/>
       <use x="127.246094" xlink:href="#DejaVuSans-48"/>
      </g>
     </g>
    </g>
    <g id="xtick_3">
     <g id="line2d_3">
      <g>
       <use style="stroke:#000000;stroke-width:0.8;" x="199.71" xlink:href="#mbd760cc96d" y="192.24"/>
      </g>
     </g>
     <g id="text_3">
      <!-- 400 -->
      <g transform="translate(190.16625 206.838437)scale(0.1 -0.1)">
       <defs>
        <path d="M 37.796875 64.3125 
L 12.890625 25.390625 
L 37.796875 25.390625 
z
M 35.203125 72.90625 
L 47.609375 72.90625 
L 47.609375 25.390625 
L 58.015625 25.390625 
L 58.015625 17.1875 
L 47.609375 17.1875 
L 47.609375 0 
L 37.796875 0 
L 37.796875 17.1875 
L 4.890625 17.1875 
L 4.890625 26.703125 
z
" id="DejaVuSans-52"/>
       </defs>
       <use xlink:href="#DejaVuSans-52"/>
       <use x="63.623047" xlink:href="#DejaVuSans-48"/>
       <use x="127.246094" xlink:href="#DejaVuSans-48"/>
      </g>
     </g>
    </g>
    <g id="xtick_4">
     <g id="line2d_4">
      <g>
       <use style="stroke:#000000;stroke-width:0.8;" x="258.891818" xlink:href="#mbd760cc96d" y="192.24"/>
      </g>
     </g>
     <g id="text_4">
      <!-- 500 -->
      <g transform="translate(249.348068 206.838437)scale(0.1 -0.1)">
       <defs>
        <path d="M 10.796875 72.90625 
L 49.515625 72.90625 
L 49.515625 64.59375 
L 19.828125 64.59375 
L 19.828125 46.734375 
Q 21.96875 47.46875 24.109375 47.828125 
Q 26.265625 48.1875 28.421875 48.1875 
Q 40.625 48.1875 47.75 41.5 
Q 54.890625 34.8125 54.890625 23.390625 
Q 54.890625 11.625 47.5625 5.09375 
Q 40.234375 -1.421875 26.90625 -1.421875 
Q 22.3125 -1.421875 17.546875 -0.640625 
Q 12.796875 0.140625 7.71875 1.703125 
L 7.71875 11.625 
Q 12.109375 9.234375 16.796875 8.0625 
Q 21.484375 6.890625 26.703125 6.890625 
Q 35.15625 6.890625 40.078125 11.328125 
Q 45.015625 15.765625 45.015625 23.390625 
Q 45.015625 31 40.078125 35.4375 
Q 35.15625 39.890625 26.703125 39.890625 
Q 22.75 39.890625 18.8125 39.015625 
Q 14.890625 38.140625 10.796875 36.28125 
z
" id="DejaVuSans-53"/>
       </defs>
       <use xlink:href="#DejaVuSans-53"/>
       <use x="63.623047" xlink:href="#DejaVuSans-48"/>
       <use x="127.246094" xlink:href="#DejaVuSans-48"/>
      </g>
     </g>
    </g>
    <g id="xtick_5">
     <g id="line2d_5">
      <g>
       <use style="stroke:#000000;stroke-width:0.8;" x="318.073636" xlink:href="#mbd760cc96d" y="192.24"/>
      </g>
     </g>
     <g id="text_5">
      <!-- 600 -->
      <g transform="translate(308.529886 206.838437)scale(0.1 -0.1)">
       <defs>
        <path d="M 33.015625 40.375 
Q 26.375 40.375 22.484375 35.828125 
Q 18.609375 31.296875 18.609375 23.390625 
Q 18.609375 15.53125 22.484375 10.953125 
Q 26.375 6.390625 33.015625 6.390625 
Q 39.65625 6.390625 43.53125 10.953125 
Q 47.40625 15.53125 47.40625 23.390625 
Q 47.40625 31.296875 43.53125 35.828125 
Q 39.65625 40.375 33.015625 40.375 
z
M 52.59375 71.296875 
L 52.59375 62.3125 
Q 48.875 64.0625 45.09375 64.984375 
Q 41.3125 65.921875 37.59375 65.921875 
Q 27.828125 65.921875 22.671875 59.328125 
Q 17.53125 52.734375 16.796875 39.40625 
Q 19.671875 43.65625 24.015625 45.921875 
Q 28.375 48.1875 33.59375 48.1875 
Q 44.578125 48.1875 50.953125 41.515625 
Q 57.328125 34.859375 57.328125 23.390625 
Q 57.328125 12.15625 50.6875 5.359375 
Q 44.046875 -1.421875 33.015625 -1.421875 
Q 20.359375 -1.421875 13.671875 8.265625 
Q 6.984375 17.96875 6.984375 36.375 
Q 6.984375 53.65625 15.1875 63.9375 
Q 23.390625 74.21875 37.203125 74.21875 
Q 40.921875 74.21875 44.703125 73.484375 
Q 48.484375 72.75 52.59375 71.296875 
z
" id="DejaVuSans-54"/>
       </defs>
       <use xlink:href="#DejaVuSans-54"/>
       <use x="63.623047" xlink:href="#DejaVuSans-48"/>
       <use x="127.246094" xlink:href="#DejaVuSans-48"/>
      </g>
     </g>
    </g>
    <g id="xtick_6">
     <g id="line2d_6">
      <g>
       <use style="stroke:#000000;stroke-width:0.8;" x="377.255455" xlink:href="#mbd760cc96d" y="192.24"/>
      </g>
     </g>
     <g id="text_6">
      <!-- 700 -->
      <g transform="translate(367.711705 206.838437)scale(0.1 -0.1)">
       <defs>
        <path d="M 8.203125 72.90625 
L 55.078125 72.90625 
L 55.078125 68.703125 
L 28.609375 0 
L 18.3125 0 
L 43.21875 64.59375 
L 8.203125 64.59375 
z
" id="DejaVuSans-55"/>
       </defs>
       <use xlink:href="#DejaVuSans-55"/>
       <use x="63.623047" xlink:href="#DejaVuSans-48"/>
       <use x="127.246094" xlink:href="#DejaVuSans-48"/>
      </g>
     </g>
    </g>
    <g id="xtick_7">
     <g id="line2d_7">
      <g>
       <use style="stroke:#000000;stroke-width:0.8;" x="436.437273" xlink:href="#mbd760cc96d" y="192.24"/>
      </g>
     </g>
     <g id="text_7">
      <!-- 800 -->
      <g transform="translate(426.893523 206.838437)scale(0.1 -0.1)">
       <defs>
        <path d="M 31.78125 34.625 
Q 24.75 34.625 20.71875 30.859375 
Q 16.703125 27.09375 16.703125 20.515625 
Q 16.703125 13.921875 20.71875 10.15625 
Q 24.75 6.390625 31.78125 6.390625 
Q 38.8125 6.390625 42.859375 10.171875 
Q 46.921875 13.96875 46.921875 20.515625 
Q 46.921875 27.09375 42.890625 30.859375 
Q 38.875 34.625 31.78125 34.625 
z
M 21.921875 38.8125 
Q 15.578125 40.375 12.03125 44.71875 
Q 8.5 49.078125 8.5 55.328125 
Q 8.5 64.0625 14.71875 69.140625 
Q 20.953125 74.21875 31.78125 74.21875 
Q 42.671875 74.21875 48.875 69.140625 
Q 55.078125 64.0625 55.078125 55.328125 
Q 55.078125 49.078125 51.53125 44.71875 
Q 48 40.375 41.703125 38.8125 
Q 48.828125 37.15625 52.796875 32.3125 
Q 56.78125 27.484375 56.78125 20.515625 
Q 56.78125 9.90625 50.3125 4.234375 
Q 43.84375 -1.421875 31.78125 -1.421875 
Q 19.734375 -1.421875 13.25 4.234375 
Q 6.78125 9.90625 6.78125 20.515625 
Q 6.78125 27.484375 10.78125 32.3125 
Q 14.796875 37.15625 21.921875 38.8125 
z
M 18.3125 54.390625 
Q 18.3125 48.734375 21.84375 45.5625 
Q 25.390625 42.390625 31.78125 42.390625 
Q 38.140625 42.390625 41.71875 45.5625 
Q 45.3125 48.734375 45.3125 54.390625 
Q 45.3125 60.0625 41.71875 63.234375 
Q 38.140625 66.40625 31.78125 66.40625 
Q 25.390625 66.40625 21.84375 63.234375 
Q 18.3125 60.0625 18.3125 54.390625 
z
" id="DejaVuSans-56"/>
       </defs>
       <use xlink:href="#DejaVuSans-56"/>
       <use x="63.623047" xlink:href="#DejaVuSans-48"/>
       <use x="127.246094" xlink:href="#DejaVuSans-48"/>
      </g>
     </g>
    </g>
    <g id="text_8">
     <!-- time -->
     <g transform="translate(247.003906 220.516562)scale(0.1 -0.1)">
      <defs>
       <path d="M 18.3125 70.21875 
L 18.3125 54.6875 
L 36.8125 54.6875 
L 36.8125 47.703125 
L 18.3125 47.703125 
L 18.3125 18.015625 
Q 18.3125 11.328125 20.140625 9.421875 
Q 21.96875 7.515625 27.59375 7.515625 
L 36.8125 7.515625 
L 36.8125 0 
L 27.59375 0 
Q 17.1875 0 13.234375 3.875 
Q 9.28125 7.765625 9.28125 18.015625 
L 9.28125 47.703125 
L 2.6875 47.703125 
L 2.6875 54.6875 
L 9.28125 54.6875 
L 9.28125 70.21875 
z
" id="DejaVuSans-116"/>
       <path d="M 9.421875 54.6875 
L 18.40625 54.6875 
L 18.40625 0 
L 9.421875 0 
z
M 9.421875 75.984375 
L 18.40625 75.984375 
L 18.40625 64.59375 
L 9.421875 64.59375 
z
" id="DejaVuSans-105"/>
       <path d="M 52 44.1875 
Q 55.375 50.25 60.0625 53.125 
Q 64.75 56 71.09375 56 
Q 79.640625 56 84.28125 50.015625 
Q 88.921875 44.046875 88.921875 33.015625 
L 88.921875 0 
L 79.890625 0 
L 79.890625 32.71875 
Q 79.890625 40.578125 77.09375 44.375 
Q 74.3125 48.1875 68.609375 48.1875 
Q 61.625 48.1875 57.5625 43.546875 
Q 53.515625 38.921875 53.515625 30.90625 
L 53.515625 0 
L 44.484375 0 
L 44.484375 32.71875 
Q 44.484375 40.625 41.703125 44.40625 
Q 38.921875 48.1875 33.109375 48.1875 
Q 26.21875 48.1875 22.15625 43.53125 
Q 18.109375 38.875 18.109375 30.90625 
L 18.109375 0 
L 9.078125 0 
L 9.078125 54.6875 
L 18.109375 54.6875 
L 18.109375 46.1875 
Q 21.1875 51.21875 25.484375 53.609375 
Q 29.78125 56 35.6875 56 
Q 41.65625 56 45.828125 52.96875 
Q 50 49.953125 52 44.1875 
z
" id="DejaVuSans-109"/>
       <path d="M 56.203125 29.59375 
L 56.203125 25.203125 
L 14.890625 25.203125 
Q 15.484375 15.921875 20.484375 11.0625 
Q 25.484375 6.203125 34.421875 6.203125 
Q 39.59375 6.203125 44.453125 7.46875 
Q 49.3125 8.734375 54.109375 11.28125 
L 54.109375 2.78125 
Q 49.265625 0.734375 44.1875 -0.34375 
Q 39.109375 -1.421875 33.890625 -1.421875 
Q 20.796875 -1.421875 13.15625 6.1875 
Q 5.515625 13.8125 5.515625 26.8125 
Q 5.515625 40.234375 12.765625 48.109375 
Q 20.015625 56 32.328125 56 
Q 43.359375 56 49.78125 48.890625 
Q 56.203125 41.796875 56.203125 29.59375 
z
M 47.21875 32.234375 
Q 47.125 39.59375 43.09375 43.984375 
Q 39.0625 48.390625 32.421875 48.390625 
Q 24.90625 48.390625 20.390625 44.140625 
Q 15.875 39.890625 15.1875 32.171875 
z
" id="DejaVuSans-101"/>
      </defs>
      <use xlink:href="#DejaVuSans-116"/>
      <use x="39.208984" xlink:href="#DejaVuSans-105"/>
      <use x="66.992188" xlink:href="#DejaVuSans-109"/>
      <use x="164.404297" xlink:href="#DejaVuSans-101"/>
     </g>
    </g>
   </g>
   <g id="matplotlib.axis_2">
    <g id="ytick_1">
     <g id="line2d_8">
      <defs>
       <path d="M 0 0 
L -3.5 0 
" id="me60a8cd615" style="stroke:#000000;stroke-width:0.8;"/>
      </defs>
      <g>
       <use style="stroke:#000000;stroke-width:0.8;" x="63" xlink:href="#me60a8cd615" y="192.24"/>
      </g>
     </g>
     <g id="text_9">
      <!-- 0.10 -->
      <g transform="translate(33.734375 196.039219)scale(0.1 -0.1)">
       <defs>
        <path d="M 10.6875 12.40625 
L 21 12.40625 
L 21 0 
L 10.6875 0 
z
" id="DejaVuSans-46"/>
        <path d="M 12.40625 8.296875 
L 28.515625 8.296875 
L 28.515625 63.921875 
L 10.984375 60.40625 
L 10.984375 69.390625 
L 28.421875 72.90625 
L 38.28125 72.90625 
L 38.28125 8.296875 
L 54.390625 8.296875 
L 54.390625 0 
L 12.40625 0 
z
" id="DejaVuSans-49"/>
       </defs>
       <use xlink:href="#DejaVuSans-48"/>
       <use x="63.623047" xlink:href="#DejaVuSans-46"/>
       <use x="95.410156" xlink:href="#DejaVuSans-49"/>
       <use x="159.033203" xlink:href="#DejaVuSans-48"/>
      </g>
     </g>
    </g>
    <g id="ytick_2">
     <g id="line2d_9">
      <g>
       <use style="stroke:#000000;stroke-width:0.8;" x="63" xlink:href="#me60a8cd615" y="168.48"/>
      </g>
     </g>
     <g id="text_10">
      <!-- 0.15 -->
      <g transform="translate(33.734375 172.279219)scale(0.1 -0.1)">
       <use xlink:href="#DejaVuSans-48"/>
       <use x="63.623047" xlink:href="#DejaVuSans-46"/>
       <use x="95.410156" xlink:href="#DejaVuSans-49"/>
       <use x="159.033203" xlink:href="#DejaVuSans-53"/>
      </g>
     </g>
    </g>
    <g id="ytick_3">
     <g id="line2d_10">
      <g>
       <use style="stroke:#000000;stroke-width:0.8;" x="63" xlink:href="#me60a8cd615" y="144.72"/>
      </g>
     </g>
     <g id="text_11">
      <!-- 0.20 -->
      <g transform="translate(33.734375 148.519219)scale(0.1 -0.1)">
       <use xlink:href="#DejaVuSans-48"/>
       <use x="63.623047" xlink:href="#DejaVuSans-46"/>
       <use x="95.410156" xlink:href="#DejaVuSans-50"/>
       <use x="159.033203" xlink:href="#DejaVuSans-48"/>
      </g>
     </g>
    </g>
    <g id="ytick_4">
     <g id="line2d_11">
      <g>
       <use style="stroke:#000000;stroke-width:0.8;" x="63" xlink:href="#me60a8cd615" y="120.96"/>
      </g>
     </g>
     <g id="text_12">
      <!-- 0.25 -->
      <g transform="translate(33.734375 124.759219)scale(0.1 -0.1)">
       <use xlink:href="#DejaVuSans-48"/>
       <use x="63.623047" xlink:href="#DejaVuSans-46"/>
       <use x="95.410156" xlink:href="#DejaVuSans-50"/>
       <use x="159.033203" xlink:href="#DejaVuSans-53"/>
      </g>
     </g>
    </g>
    <g id="ytick_5">
     <g id="line2d_12">
      <g>
       <use style="stroke:#000000;stroke-width:0.8;" x="63" xlink:href="#me60a8cd615" y="97.2"/>
      </g>
     </g>
     <g id="text_13">
      <!-- 0.30 -->
      <g transform="translate(33.734375 100.999219)scale(0.1 -0.1)">
       <use xlink:href="#DejaVuSans-48"/>
       <use x="63.623047" xlink:href="#DejaVuSans-46"/>
       <use x="95.410156" xlink:href="#DejaVuSans-51"/>
       <use x="159.033203" xlink:href="#DejaVuSans-48"/>
      </g>
     </g>
    </g>
    <g id="ytick_6">
     <g id="line2d_13">
      <g>
       <use style="stroke:#000000;stroke-width:0.8;" x="63" xlink:href="#me60a8cd615" y="73.44"/>
      </g>
     </g>
     <g id="text_14">
      <!-- 0.35 -->
      <g transform="translate(33.734375 77.239219)scale(0.1 -0.1)">
       <use xlink:href="#DejaVuSans-48"/>
       <use x="63.623047" xlink:href="#DejaVuSans-46"/>
       <use x="95.410156" xlink:href="#DejaVuSans-51"/>
       <use x="159.033203" xlink:href="#DejaVuSans-53"/>
      </g>
     </g>
    </g>
    <g id="ytick_7">
     <g id="line2d_14">
      <g>
       <use style="stroke:#000000;stroke-width:0.8;" x="63" xlink:href="#me60a8cd615" y="49.68"/>
      </g>
     </g>
     <g id="text_15">
      <!-- 0.40 -->
      <g transform="translate(33.734375 53.479219)scale(0.1 -0.1)">
       <use xlink:href="#DejaVuSans-48"/>
       <use x="63.623047" xlink:href="#DejaVuSans-46"/>
       <use x="95.410156" xlink:href="#DejaVuSans-52"/>
       <use x="159.033203" xlink:href="#DejaVuSans-48"/>
      </g>
     </g>
    </g>
    <g id="ytick_8">
     <g id="line2d_15">
      <g>
       <use style="stroke:#000000;stroke-width:0.8;" x="63" xlink:href="#me60a8cd615" y="25.92"/>
      </g>
     </g>
     <g id="text_16">
      <!-- 0.45 -->
      <g transform="translate(33.734375 29.719219)scale(0.1 -0.1)">
       <use xlink:href="#DejaVuSans-48"/>
       <use x="63.623047" xlink:href="#DejaVuSans-46"/>
       <use x="95.410156" xlink:href="#DejaVuSans-52"/>
       <use x="159.033203" xlink:href="#DejaVuSans-53"/>
      </g>
     </g>
    </g>
    <g id="text_17">
     <!-- BGSD -->
     <g transform="translate(27.654688 123.321406)rotate(-90)scale(0.1 -0.1)">
      <defs>
       <path d="M 19.671875 34.8125 
L 19.671875 8.109375 
L 35.5 8.109375 
Q 43.453125 8.109375 47.28125 11.40625 
Q 51.125 14.703125 51.125 21.484375 
Q 51.125 28.328125 47.28125 31.5625 
Q 43.453125 34.8125 35.5 34.8125 
z
M 19.671875 64.796875 
L 19.671875 42.828125 
L 34.28125 42.828125 
Q 41.5 42.828125 45.03125 45.53125 
Q 48.578125 48.25 48.578125 53.8125 
Q 48.578125 59.328125 45.03125 62.0625 
Q 41.5 64.796875 34.28125 64.796875 
z
M 9.8125 72.90625 
L 35.015625 72.90625 
Q 46.296875 72.90625 52.390625 68.21875 
Q 58.5 63.53125 58.5 54.890625 
Q 58.5 48.1875 55.375 44.234375 
Q 52.25 40.28125 46.1875 39.3125 
Q 53.46875 37.75 57.5 32.78125 
Q 61.53125 27.828125 61.53125 20.40625 
Q 61.53125 10.640625 54.890625 5.3125 
Q 48.25 0 35.984375 0 
L 9.8125 0 
z
" id="DejaVuSans-66"/>
       <path d="M 59.515625 10.40625 
L 59.515625 29.984375 
L 43.40625 29.984375 
L 43.40625 38.09375 
L 69.28125 38.09375 
L 69.28125 6.78125 
Q 63.578125 2.734375 56.6875 0.65625 
Q 49.8125 -1.421875 42 -1.421875 
Q 24.90625 -1.421875 15.25 8.5625 
Q 5.609375 18.5625 5.609375 36.375 
Q 5.609375 54.25 15.25 64.234375 
Q 24.90625 74.21875 42 74.21875 
Q 49.125 74.21875 55.546875 72.453125 
Q 61.96875 70.703125 67.390625 67.28125 
L 67.390625 56.78125 
Q 61.921875 61.421875 55.765625 63.765625 
Q 49.609375 66.109375 42.828125 66.109375 
Q 29.4375 66.109375 22.71875 58.640625 
Q 16.015625 51.171875 16.015625 36.375 
Q 16.015625 21.625 22.71875 14.15625 
Q 29.4375 6.6875 42.828125 6.6875 
Q 48.046875 6.6875 52.140625 7.59375 
Q 56.25 8.5 59.515625 10.40625 
z
" id="DejaVuSans-71"/>
       <path d="M 53.515625 70.515625 
L 53.515625 60.890625 
Q 47.90625 63.578125 42.921875 64.890625 
Q 37.9375 66.21875 33.296875 66.21875 
Q 25.25 66.21875 20.875 63.09375 
Q 16.5 59.96875 16.5 54.203125 
Q 16.5 49.359375 19.40625 46.890625 
Q 22.3125 44.4375 30.421875 42.921875 
L 36.375 41.703125 
Q 47.40625 39.59375 52.65625 34.296875 
Q 57.90625 29 57.90625 20.125 
Q 57.90625 9.515625 50.796875 4.046875 
Q 43.703125 -1.421875 29.984375 -1.421875 
Q 24.8125 -1.421875 18.96875 -0.25 
Q 13.140625 0.921875 6.890625 3.21875 
L 6.890625 13.375 
Q 12.890625 10.015625 18.65625 8.296875 
Q 24.421875 6.59375 29.984375 6.59375 
Q 38.421875 6.59375 43.015625 9.90625 
Q 47.609375 13.234375 47.609375 19.390625 
Q 47.609375 24.75 44.3125 27.78125 
Q 41.015625 30.8125 33.5 32.328125 
L 27.484375 33.5 
Q 16.453125 35.6875 11.515625 40.375 
Q 6.59375 45.0625 6.59375 53.421875 
Q 6.59375 63.09375 13.40625 68.65625 
Q 20.21875 74.21875 32.171875 74.21875 
Q 37.3125 74.21875 42.625 73.28125 
Q 47.953125 72.359375 53.515625 70.515625 
z
" id="DejaVuSans-83"/>
       <path d="M 19.671875 64.796875 
L 19.671875 8.109375 
L 31.59375 8.109375 
Q 46.6875 8.109375 53.6875 14.9375 
Q 60.6875 21.78125 60.6875 36.53125 
Q 60.6875 51.171875 53.6875 57.984375 
Q 46.6875 64.796875 31.59375 64.796875 
z
M 9.8125 72.90625 
L 30.078125 72.90625 
Q 51.265625 72.90625 61.171875 64.09375 
Q 71.09375 55.28125 71.09375 36.53125 
Q 71.09375 17.671875 61.125 8.828125 
Q 51.171875 0 30.078125 0 
L 9.8125 0 
z
" id="DejaVuSans-68"/>
      </defs>
      <use xlink:href="#DejaVuSans-66"/>
      <use x="66.853516" xlink:href="#DejaVuSans-71"/>
      <use x="144.34375" xlink:href="#DejaVuSans-83"/>
      <use x="207.820312" xlink:href="#DejaVuSans-68"/>
     </g>
    </g>
   </g>
   <g id="line2d_16">
    <path clip-path="url(#p38aa8b0c3e)" d="M 80.754545 27.870692 
L 81.938182 26.567119 
L 82.53 27.065744 
L 83.121818 30.86875 
L 83.713636 29.248911 
L 84.305455 32.35063 
L 84.897273 32.122309 
L 85.489091 33.762077 
L 86.080909 29.459878 
L 86.672727 22.325404 
L 87.264545 20.634662 
L 87.856364 21.481618 
L 88.448182 21.068378 
L 89.04 21.673233 
L 89.631818 24.663086 
L 90.223636 22.612903 
L 90.815455 27.332759 
L 91.407273 21.084259 
L 91.999091 20.983934 
L 92.590909 21.621439 
L 93.182727 21.471436 
L 93.774545 16.434194 
L 94.366364 24.071647 
L 94.958182 20.309437 
L 95.55 24.152583 
L 96.141818 24.665716 
L 97.325455 27.308896 
L 97.917273 21.874878 
L 98.509091 29.996104 
L 99.100909 24.561153 
L 99.692727 25.214809 
L 100.284545 28.436404 
L 100.876364 25.7765 
L 101.468182 28.516233 
L 102.06 22.796346 
L 102.651818 23.856703 
L 103.243636 26.105563 
L 103.835455 24.435335 
L 104.427273 20.373868 
L 105.019091 23.363406 
L 105.610909 23.337302 
L 106.202727 22.369756 
L 106.794545 24.739685 
L 107.386364 26.384877 
L 107.978182 25.206068 
L 108.57 23.103544 
L 109.161818 23.830441 
L 109.753636 31.325649 
L 110.345455 27.860528 
L 110.937273 29.102056 
L 111.529091 30.042564 
L 112.120909 18.48439 
L 112.712727 26.255844 
L 113.304545 23.337739 
L 113.896364 18.939086 
L 114.488182 22.093682 
L 115.08 20.513869 
L 116.263636 25.931397 
L 117.447273 20.627213 
L 118.039091 21.294408 
L 118.630909 21.311125 
L 119.222727 18.453994 
L 120.406364 21.862997 
L 120.998182 24.088209 
L 121.59 21.291521 
L 122.181818 21.90423 
L 122.773636 23.63057 
L 123.365455 26.322402 
L 123.957273 25.101214 
L 125.140909 20.128745 
L 125.732727 21.14323 
L 126.324545 27.400213 
L 126.916364 26.645668 
L 127.508182 22.309099 
L 128.1 25.087408 
L 128.691818 19.696474 
L 129.283636 22.466791 
L 129.875455 24.470951 
L 130.467273 24.752175 
L 131.059091 26.108767 
L 131.650909 28.44307 
L 132.242727 24.213107 
L 132.834545 22.770638 
L 133.426364 22.823152 
L 134.018182 25.090232 
L 134.61 24.682665 
L 135.201818 21.366505 
L 135.793636 21.220582 
L 136.385455 28.560121 
L 136.977273 18.29524 
L 137.569091 18.841857 
L 138.160909 24.546683 
L 138.752727 22.63094 
L 139.344545 16.403665 
L 139.936364 21.481455 
L 140.528182 22.833887 
L 141.12 22.288176 
L 141.711818 25.488269 
L 142.303636 22.809311 
L 142.895455 24.685546 
L 143.487273 18.923088 
L 144.079091 18.908616 
L 144.670909 20.332785 
L 145.262727 18.922311 
L 145.854545 23.687736 
L 146.446364 18.432387 
L 147.038182 22.681451 
L 147.63 16.312755 
L 148.221818 22.885348 
L 148.813636 21.830346 
L 149.405455 21.506907 
L 149.997273 17.361861 
L 150.589091 17.231705 
L 151.180909 18.350391 
L 151.772727 20.279358 
L 152.364545 21.055804 
L 152.956364 24.811641 
L 153.548182 25.015131 
L 154.14 18.138147 
L 154.731818 19.112106 
L 155.323636 23.366813 
L 155.915455 22.297166 
L 156.507273 23.58451 
L 157.099091 25.887617 
L 157.690909 25.863078 
L 158.282727 23.316002 
L 158.874545 25.330606 
L 159.466364 21.182688 
L 160.058182 23.920465 
L 160.65 17.882792 
L 162.425455 24.033337 
L 163.609091 25.81282 
L 164.200909 28.250467 
L 164.792727 26.445224 
L 165.384545 23.031328 
L 165.976364 25.400035 
L 166.568182 25.609308 
L 167.16 18.97773 
L 167.751818 19.401871 
L 168.343636 22.021003 
L 168.935455 19.712166 
L 169.527273 22.569525 
L 170.119091 23.972787 
L 170.710909 22.824301 
L 171.302727 24.297789 
L 171.894545 30.094705 
L 172.486364 27.186117 
L 173.078182 27.826782 
L 173.67 25.418201 
L 174.261818 24.794793 
L 174.853636 23.860157 
L 175.445455 22.280522 
L 176.037273 24.596439 
L 176.629091 24.289781 
L 177.220909 23.817232 
L 177.812727 25.386 
L 178.404545 23.24225 
L 178.996364 23.894877 
L 179.588182 22.049475 
L 180.18 25.570961 
L 180.771818 18.146473 
L 181.955455 25.389572 
L 182.547273 22.37872 
L 183.730909 20.312404 
L 184.322727 23.700977 
L 184.914545 30.418667 
L 185.506364 25.006778 
L 186.098182 25.979924 
L 186.69 28.399113 
L 187.281818 28.865493 
L 188.465455 20.402526 
L 189.057273 27.936069 
L 189.649091 24.869979 
L 190.240909 24.422383 
L 190.832727 24.766308 
L 191.424545 23.848017 
L 192.016364 29.390853 
L 192.608182 24.805296 
L 193.2 25.815296 
L 193.791818 22.481642 
L 194.383636 26.163443 
L 194.975455 23.611062 
L 195.567273 21.84148 
L 196.159091 25.839341 
L 196.750909 21.287388 
L 197.342727 23.876246 
L 197.934545 23.451717 
L 198.526364 27.508972 
L 199.118182 23.79825 
L 199.71 29.551191 
L 200.893636 21.041976 
L 201.485455 28.798107 
L 202.077273 25.818869 
L 202.669091 29.517039 
L 203.260909 30.128792 
L 203.852727 30.122201 
L 204.444545 27.181066 
L 205.036364 32.520416 
L 205.628182 34.209833 
L 206.22 34.227927 
L 206.811818 30.221073 
L 207.995455 32.794177 
L 208.587273 25.904818 
L 209.179091 27.636849 
L 209.770909 32.938017 
L 210.362727 32.228097 
L 210.954545 35.084723 
L 211.546364 30.25888 
L 212.138182 30.327136 
L 212.73 31.934294 
L 213.321818 37.657919 
L 213.913636 33.069863 
L 214.505455 32.087612 
L 215.097273 33.771472 
L 215.689091 33.180884 
L 216.280909 32.398972 
L 216.872727 28.44268 
L 217.464545 33.791953 
L 218.056364 34.141245 
L 218.648182 34.249914 
L 219.24 36.865522 
L 220.423636 35.187251 
L 221.015455 30.682659 
L 221.607273 29.122691 
L 222.199091 32.412226 
L 222.790909 32.536514 
L 223.382727 34.228349 
L 223.974545 33.611268 
L 224.566364 35.362977 
L 225.158182 30.019944 
L 225.75 30.91922 
L 226.341818 30.092321 
L 226.933636 31.768055 
L 227.525455 35.839403 
L 228.117273 32.872082 
L 228.709091 34.032974 
L 229.300909 32.575175 
L 229.892727 33.299592 
L 230.484545 35.292935 
L 231.076364 34.649756 
L 231.668182 34.843051 
L 232.26 33.237612 
L 232.851818 33.129004 
L 233.443636 29.94089 
L 234.035455 27.910679 
L 234.627273 31.654486 
L 235.219091 28.969549 
L 235.810909 29.379585 
L 236.402727 30.596759 
L 236.994545 29.792478 
L 237.586364 26.250072 
L 238.178182 24.583798 
L 238.77 24.849353 
L 239.361818 27.42384 
L 239.953636 28.067318 
L 240.545455 29.185485 
L 241.137273 27.984356 
L 241.729091 28.617913 
L 242.320909 31.099715 
L 242.912727 29.055365 
L 243.504545 29.130887 
L 244.096364 27.101668 
L 244.688182 30.982233 
L 245.28 29.621743 
L 245.871818 26.271732 
L 246.463636 27.332614 
L 247.647273 33.810023 
L 248.239091 31.582905 
L 248.830909 31.772897 
L 249.422727 28.328382 
L 250.014545 26.685676 
L 250.606364 30.505328 
L 251.198182 29.313682 
L 251.79 29.763834 
L 252.381818 26.69756 
L 252.973636 30.362609 
L 253.565455 32.220709 
L 254.157273 25.767185 
L 254.749091 22.506092 
L 255.340909 25.227257 
L 255.932727 25.697866 
L 256.524545 30.024435 
L 257.116364 26.506823 
L 257.708182 26.94678 
L 258.3 22.148215 
L 258.891818 26.947088 
L 259.483636 25.423191 
L 260.075455 25.300986 
L 260.667273 27.956666 
L 261.259091 25.121938 
L 261.850909 29.461857 
L 262.442727 23.995332 
L 263.034545 21.360965 
L 263.626364 29.76354 
L 264.218182 31.15197 
L 264.81 31.111967 
L 265.401818 27.62786 
L 265.993636 32.44541 
L 266.585455 27.506762 
L 267.769091 26.963424 
L 268.360909 26.876234 
L 268.952727 29.243074 
L 269.544545 26.617948 
L 270.136364 27.478008 
L 270.728182 26.843098 
L 271.32 25.968722 
L 271.911818 25.641033 
L 272.503636 25.46471 
L 273.095455 25.939567 
L 273.687273 26.779239 
L 274.279091 25.586202 
L 274.870909 26.432177 
L 275.462727 24.661455 
L 276.054545 27.505984 
L 276.646364 24.585152 
L 277.238182 23.688068 
L 277.83 26.618964 
L 278.421818 24.45004 
L 279.013636 26.311031 
L 279.605455 26.003973 
L 280.197273 27.061837 
L 280.789091 30.663548 
L 281.380909 26.674922 
L 281.972727 26.737132 
L 282.564545 28.727711 
L 283.156364 28.093451 
L 283.748182 27.795708 
L 284.34 26.643626 
L 284.931818 26.995976 
L 285.523636 26.819822 
L 286.115455 27.826998 
L 286.707273 31.157098 
L 287.299091 27.976847 
L 287.890909 28.439824 
L 288.482727 26.653606 
L 289.074545 26.033898 
L 289.666364 30.950215 
L 290.258182 26.840457 
L 290.85 29.243826 
L 291.441818 28.6987 
L 292.033636 32.807847 
L 292.625455 32.049259 
L 293.217273 28.564037 
L 293.809091 30.237242 
L 294.400909 29.803464 
L 294.992727 32.586942 
L 295.584545 29.849243 
L 296.176364 30.550453 
L 296.768182 27.898264 
L 297.36 29.491374 
L 297.951818 30.582125 
L 298.543636 30.610214 
L 299.135455 29.448687 
L 299.727273 31.362092 
L 300.319091 30.270775 
L 300.910909 30.40789 
L 301.502727 29.775441 
L 302.686364 32.909147 
L 303.278182 31.823954 
L 303.87 35.034718 
L 304.461818 30.517664 
L 305.053636 31.362605 
L 305.645455 31.051052 
L 306.237273 31.832249 
L 306.829091 33.381471 
L 307.420909 27.996645 
L 308.012727 28.1054 
L 308.604545 29.214407 
L 309.196364 31.770777 
L 309.788182 31.669247 
L 310.38 29.40144 
L 310.971818 26.01656 
L 311.563636 31.19315 
L 312.155455 30.536099 
L 312.747273 28.376654 
L 313.339091 27.828977 
L 313.930909 31.50502 
L 314.522727 31.241718 
L 315.114545 30.010798 
L 315.706364 31.718428 
L 316.89 29.223535 
L 317.481818 31.230873 
L 318.073636 32.002373 
L 318.665455 30.378793 
L 319.257273 28.114524 
L 319.849091 26.37005 
L 321.032727 28.552908 
L 321.624545 26.067312 
L 322.216364 27.673426 
L 322.808182 31.335218 
L 323.4 30.234546 
L 323.991818 31.575724 
L 324.583636 28.743607 
L 325.175455 28.81661 
L 325.767273 29.263355 
L 326.359091 26.366552 
L 326.950909 31.899782 
L 327.542727 26.924816 
L 328.134545 24.331196 
L 328.726364 23.31571 
L 329.318182 28.380201 
L 329.91 29.549023 
L 330.501818 31.444021 
L 331.093636 29.926731 
L 331.685455 26.792614 
L 332.277273 26.546604 
L 332.869091 27.931512 
L 333.460909 25.535171 
L 334.052727 25.855297 
L 334.644545 27.893464 
L 335.236364 27.667737 
L 335.828182 28.92608 
L 336.42 26.644023 
L 337.011818 26.912995 
L 337.603636 28.381793 
L 338.195455 30.283885 
L 338.787273 26.628455 
L 339.379091 29.068457 
L 339.970909 29.941814 
L 340.562727 27.239533 
L 341.154545 26.128991 
L 341.746364 27.345101 
L 342.338182 25.504086 
L 342.93 28.710935 
L 343.521818 24.551618 
L 344.113636 27.832012 
L 344.705455 30.23888 
L 345.297273 28.387217 
L 345.889091 32.404811 
L 346.480909 26.151199 
L 347.072727 28.313125 
L 347.664545 25.202475 
L 348.256364 28.406894 
L 348.848182 27.807827 
L 349.44 26.98159 
L 350.031818 31.580452 
L 350.623636 28.923125 
L 351.215455 31.874079 
L 351.807273 28.598589 
L 352.399091 34.675055 
L 352.990909 27.899217 
L 353.582727 29.860487 
L 354.174545 27.302532 
L 354.766364 30.677789 
L 355.358182 35.606683 
L 355.95 34.613474 
L 356.541818 31.427954 
L 357.133636 32.034779 
L 357.725455 31.545106 
L 358.317273 32.228573 
L 358.909091 29.690266 
L 359.500909 32.280293 
L 360.092727 32.964121 
L 360.684545 32.187042 
L 361.276364 32.602338 
L 361.868182 32.177114 
L 362.46 28.04468 
L 363.051818 28.368215 
L 363.643636 32.942515 
L 364.235455 36.356545 
L 364.827273 28.694389 
L 365.419091 27.506458 
L 366.602727 29.865375 
L 367.194545 29.54043 
L 367.786364 26.103576 
L 368.378182 29.059459 
L 368.97 27.549272 
L 369.561818 24.902495 
L 370.153636 25.18458 
L 370.745455 31.219255 
L 371.337273 28.83613 
L 371.929091 27.479007 
L 372.520909 27.660345 
L 373.112727 28.50138 
L 373.704545 28.947221 
L 374.296364 30.58593 
L 374.888182 29.774561 
L 375.48 30.653737 
L 376.071818 28.589041 
L 376.663636 32.177113 
L 377.255455 27.575703 
L 377.847273 28.958067 
L 378.439091 31.862131 
L 379.030909 28.591927 
L 379.622727 29.790946 
L 380.214545 27.47526 
L 380.806364 30.95148 
L 381.398182 26.016791 
L 381.99 29.560115 
L 383.173636 30.18045 
L 383.765455 30.216815 
L 384.357273 27.330523 
L 384.949091 27.312763 
L 385.540909 27.610239 
L 386.132727 31.885636 
L 387.316364 29.035254 
L 387.908182 29.538379 
L 388.5 29.593332 
L 389.091818 29.235043 
L 389.683636 30.068143 
L 390.275455 30.232418 
L 390.867273 29.781167 
L 391.459091 25.947248 
L 392.642727 31.924743 
L 393.826364 32.793712 
L 394.418182 29.217463 
L 395.01 29.051757 
L 396.193636 30.199531 
L 396.785455 30.154774 
L 397.377273 31.038479 
L 397.969091 27.513438 
L 398.560909 31.215496 
L 399.152727 29.671597 
L 399.744545 29.685935 
L 400.336364 29.978248 
L 400.928182 29.134749 
L 402.111818 28.658775 
L 402.703636 28.814011 
L 403.295455 28.380767 
L 403.887273 28.624621 
L 404.479091 31.810422 
L 405.070909 29.480176 
L 405.662727 32.4012 
L 406.254545 31.217782 
L 406.846364 28.963407 
L 407.438182 28.070409 
L 408.03 27.993265 
L 408.621818 28.278305 
L 409.213636 26.542698 
L 409.805455 26.898141 
L 410.397273 25.591833 
L 410.989091 28.810579 
L 411.580909 28.25486 
L 412.172727 26.948005 
L 412.764545 28.09361 
L 413.356364 25.492527 
L 413.948182 27.13997 
L 414.54 27.149059 
L 415.131818 25.363903 
L 415.723636 29.913131 
L 416.315455 27.201193 
L 416.907273 27.544427 
L 417.499091 30.637833 
L 418.090909 28.530812 
L 418.682727 27.576864 
L 419.274545 34.699033 
L 419.866364 31.280192 
L 420.458182 28.97555 
L 421.05 30.826723 
L 421.641818 26.378942 
L 422.233636 31.426882 
L 422.825455 28.598429 
L 423.417273 28.97961 
L 424.009091 28.229731 
L 424.600909 31.914058 
L 425.192727 31.067583 
L 425.784545 29.778554 
L 426.376364 24.810397 
L 426.968182 29.492334 
L 427.56 26.343279 
L 428.151818 27.361712 
L 428.743636 28.108279 
L 429.335455 29.893598 
L 429.927273 28.877637 
L 431.110909 30.882584 
L 431.702727 30.709723 
L 432.294545 29.284705 
L 432.886364 34.079084 
L 433.478182 27.992316 
L 434.07 30.12704 
L 434.661818 30.947583 
L 435.253636 30.806092 
L 435.845455 34.098504 
L 435.845455 34.098504 
" style="fill:none;stroke:#1f77b4;stroke-linecap:square;stroke-width:1.5;"/>
   </g>
   <g id="line2d_17">
    <path clip-path="url(#p38aa8b0c3e)" d="M 80.754545 26.049432 
L 81.346364 24.68627 
L 81.938182 26.256792 
L 82.53 24.602334 
L 83.121818 32.934588 
L 83.713636 32.752187 
L 84.305455 29.593425 
L 84.897273 25.548788 
L 85.489091 26.290115 
L 86.080909 27.803107 
L 86.672727 24.885198 
L 87.264545 27.619051 
L 87.856364 26.637158 
L 88.448182 26.854788 
L 89.04 27.871068 
L 89.631818 25.553539 
L 90.223636 21.699694 
L 90.815455 24.891082 
L 91.407273 25.138019 
L 91.999091 26.415801 
L 92.590909 24.234869 
L 93.182727 23.895831 
L 93.774545 23.375721 
L 94.958182 24.372825 
L 95.55 22.022842 
L 96.141818 18.904273 
L 96.733636 23.072898 
L 97.325455 19.45306 
L 97.917273 22.746951 
L 98.509091 21.26831 
L 99.100909 27.858602 
L 99.692727 21.488068 
L 100.284545 25.236332 
L 100.876364 21.432918 
L 102.06 33.700317 
L 102.651818 28.145458 
L 103.243636 27.733789 
L 103.835455 27.55635 
L 104.427273 25.901648 
L 105.019091 29.442037 
L 105.610909 25.793504 
L 106.202727 26.176391 
L 106.794545 25.418494 
L 107.386364 29.689886 
L 107.978182 23.769642 
L 108.57 28.313399 
L 109.161818 29.574833 
L 109.753636 24.754564 
L 110.937273 29.583188 
L 111.529091 27.077235 
L 112.120909 26.496257 
L 112.712727 28.568981 
L 113.304545 23.653735 
L 113.896364 30.410987 
L 114.488182 29.169503 
L 115.08 25.379172 
L 116.263636 28.855729 
L 116.855455 25.957921 
L 117.447273 28.572453 
L 118.039091 29.241045 
L 118.630909 29.214109 
L 119.222727 30.362167 
L 119.814545 28.696459 
L 120.406364 27.805639 
L 120.998182 27.838023 
L 121.59 30.796605 
L 122.773636 26.668947 
L 123.365455 27.196582 
L 123.957273 25.586295 
L 124.549091 28.032131 
L 125.140909 34.0645 
L 125.732727 31.945867 
L 126.324545 27.201382 
L 126.916364 26.829385 
L 127.508182 28.630824 
L 128.1 34.619368 
L 129.283636 30.154936 
L 129.875455 28.130766 
L 130.467273 31.746969 
L 131.059091 29.039158 
L 131.650909 28.871755 
L 132.242727 25.61221 
L 132.834545 31.279628 
L 133.426364 24.36134 
L 134.018182 23.057284 
L 134.61 24.637581 
L 135.201818 31.192368 
L 135.793636 27.567954 
L 136.385455 30.6309 
L 136.977273 27.790726 
L 137.569091 28.647027 
L 138.160909 32.738591 
L 138.752727 30.066786 
L 139.344545 29.44737 
L 139.936364 28.355697 
L 140.528182 30.488054 
L 141.12 34.228197 
L 141.711818 33.271343 
L 142.303636 33.185532 
L 142.895455 26.19119 
L 143.487273 36.578036 
L 144.079091 36.150853 
L 144.670909 33.978511 
L 145.262727 34.932804 
L 145.854545 31.560137 
L 146.446364 22.651207 
L 148.221818 31.927239 
L 148.813636 32.42184 
L 149.405455 35.659426 
L 149.997273 29.818389 
L 150.589091 27.166223 
L 151.180909 26.738472 
L 151.772727 28.144963 
L 152.364545 26.322594 
L 152.956364 30.12872 
L 153.548182 29.036933 
L 154.14 33.151595 
L 154.731818 26.515362 
L 155.323636 26.143138 
L 155.915455 21.287706 
L 156.507273 27.415608 
L 157.099091 26.848239 
L 157.690909 26.791565 
L 158.282727 28.862823 
L 158.874545 33.107708 
L 159.466364 29.573245 
L 160.058182 28.555856 
L 160.65 30.563803 
L 161.241818 31.209419 
L 161.833636 30.239256 
L 162.425455 29.933479 
L 163.017273 31.008577 
L 163.609091 28.539579 
L 164.200909 27.274859 
L 164.792727 32.072218 
L 165.384545 27.4332 
L 166.568182 26.313552 
L 167.16 31.253981 
L 167.751818 28.407453 
L 168.343636 23.349083 
L 169.527273 29.109543 
L 170.119091 26.193928 
L 170.710909 33.260234 
L 171.302727 30.248924 
L 171.894545 25.750605 
L 172.486364 26.065393 
L 173.078182 25.458919 
L 173.67 26.181557 
L 174.261818 28.715548 
L 174.853636 34.06644 
L 175.445455 34.121006 
L 176.037273 31.877266 
L 176.629091 33.554744 
L 177.812727 28.472722 
L 178.404545 28.470994 
L 178.996364 26.505522 
L 179.588182 26.246348 
L 180.18 29.590933 
L 180.771818 34.583092 
L 181.363636 31.710177 
L 181.955455 25.504225 
L 182.547273 32.994117 
L 183.139091 34.515656 
L 183.730909 26.914736 
L 184.322727 30.552748 
L 184.914545 30.709528 
L 185.506364 27.086933 
L 186.098182 28.551884 
L 186.69 29.422762 
L 187.281818 28.188228 
L 188.465455 21.137536 
L 189.057273 28.4478 
L 189.649091 26.494907 
L 190.832727 32.292397 
L 191.424545 31.497122 
L 192.016364 29.313938 
L 192.608182 29.347177 
L 193.2 30.23099 
L 193.791818 26.777225 
L 194.383636 27.177193 
L 194.975455 27.067194 
L 195.567273 26.738363 
L 196.159091 28.612985 
L 196.750909 27.342206 
L 197.342727 24.695953 
L 197.934545 30.228479 
L 198.526364 30.224093 
L 199.118182 26.165686 
L 199.71 28.499621 
L 200.301818 25.623101 
L 200.893636 30.83998 
L 201.485455 24.408866 
L 202.077273 25.976479 
L 202.669091 28.536235 
L 203.260909 32.255451 
L 203.852727 32.844164 
L 204.444545 31.07767 
L 205.036364 30.963826 
L 205.628182 34.017494 
L 206.22 33.842059 
L 206.811818 32.250284 
L 207.403636 32.738255 
L 207.995455 33.971478 
L 208.587273 28.146715 
L 209.179091 34.006838 
L 210.362727 30.231429 
L 210.954545 34.311474 
L 211.546364 29.361605 
L 212.138182 29.224571 
L 212.73 26.25968 
L 213.321818 31.832192 
L 213.913636 31.527259 
L 214.505455 32.584646 
L 215.689091 31.703738 
L 216.280909 27.89197 
L 216.872727 29.627236 
L 217.464545 32.340591 
L 218.056364 26.13175 
L 218.648182 34.398001 
L 219.24 28.606419 
L 219.831818 33.422289 
L 220.423636 33.030908 
L 221.015455 22.761571 
L 221.607273 24.926012 
L 222.199091 29.125781 
L 222.790909 31.127045 
L 223.382727 30.92491 
L 223.974545 31.52961 
L 224.566364 29.318628 
L 225.158182 23.724512 
L 225.75 25.47665 
L 226.341818 24.347302 
L 226.933636 28.480336 
L 227.525455 29.314287 
L 228.117273 28.865437 
L 228.709091 29.596422 
L 229.300909 25.387807 
L 229.892727 20.147412 
L 230.484545 23.037497 
L 231.076364 23.231291 
L 231.668182 26.827005 
L 232.26 25.544091 
L 232.851818 27.816896 
L 233.443636 18.85072 
L 234.035455 26.386487 
L 234.627273 23.365174 
L 235.219091 27.568303 
L 235.810909 26.705779 
L 236.402727 26.132576 
L 236.994545 28.644294 
L 237.586364 21.371653 
L 238.178182 21.704957 
L 238.77 22.968476 
L 239.361818 20.654299 
L 239.953636 24.068752 
L 240.545455 24.63488 
L 241.137273 28.073142 
L 241.729091 23.051203 
L 242.320909 22.472502 
L 242.912727 25.033409 
L 243.504545 21.580629 
L 244.096364 23.637891 
L 244.688182 30.441995 
L 245.28 27.823045 
L 245.871818 21.105608 
L 246.463636 23.816358 
L 247.055455 24.563851 
L 247.647273 25.881899 
L 248.239091 29.668257 
L 248.830909 29.145212 
L 249.422727 26.225171 
L 250.014545 22.427553 
L 250.606364 28.226987 
L 251.198182 27.668291 
L 251.79 24.261707 
L 252.381818 27.049617 
L 252.973636 22.050093 
L 253.565455 26.63569 
L 254.157273 20.376406 
L 254.749091 22.6101 
L 255.340909 19.74061 
L 255.932727 25.694088 
L 256.524545 26.581901 
L 257.116364 27.063189 
L 257.708182 18.443603 
L 258.3 21.115935 
L 258.891818 24.437336 
L 259.483636 25.775411 
L 260.075455 26.133439 
L 260.667273 24.618398 
L 261.259091 26.649098 
L 262.442727 20.003461 
L 263.034545 19.366126 
L 263.626364 25.703961 
L 264.218182 22.964302 
L 265.401818 25.5684 
L 265.993636 28.35704 
L 266.585455 22.840749 
L 267.177273 25.049005 
L 267.769091 28.115385 
L 268.360909 24.454984 
L 268.952727 25.370922 
L 269.544545 21.114406 
L 270.136364 21.713322 
L 271.32 20.991589 
L 271.911818 21.808108 
L 273.095455 28.585346 
L 273.687273 25.35693 
L 274.279091 24.164384 
L 274.870909 25.061471 
L 275.462727 28.233953 
L 276.054545 25.085313 
L 276.646364 23.859434 
L 277.238182 27.264592 
L 277.83 28.647665 
L 278.421818 25.09472 
L 279.013636 26.476201 
L 279.605455 21.816439 
L 280.789091 30.195833 
L 281.380909 32.180851 
L 281.972727 27.819442 
L 282.564545 32.238619 
L 283.156364 26.659593 
L 283.748182 26.334749 
L 284.34 24.52954 
L 284.931818 27.039414 
L 285.523636 21.738442 
L 286.115455 25.796918 
L 286.707273 22.925719 
L 287.299091 28.054154 
L 287.890909 21.672329 
L 288.482727 25.113068 
L 289.074545 26.703721 
L 289.666364 26.867303 
L 290.258182 25.583984 
L 290.85 29.292163 
L 291.441818 28.906108 
L 292.033636 28.216386 
L 292.625455 28.051068 
L 293.217273 28.157417 
L 293.809091 26.79656 
L 294.400909 26.010224 
L 294.992727 28.383225 
L 295.584545 27.073366 
L 296.176364 26.954643 
L 296.768182 26.322771 
L 297.36 26.968072 
L 297.951818 29.28569 
L 298.543636 30.669971 
L 299.135455 30.926772 
L 299.727273 28.760379 
L 300.319091 32.742377 
L 300.910909 28.016919 
L 301.502727 27.755716 
L 302.094545 29.096621 
L 302.686364 28.784442 
L 303.278182 25.198844 
L 303.87 25.739577 
L 304.461818 26.751847 
L 305.053636 23.17197 
L 305.645455 23.727142 
L 306.237273 28.928945 
L 306.829091 23.784604 
L 308.012727 22.417104 
L 308.604545 25.642269 
L 309.196364 31.011155 
L 309.788182 27.563363 
L 310.38 26.475581 
L 310.971818 29.809568 
L 311.563636 29.21134 
L 312.155455 33.456592 
L 312.747273 32.697408 
L 313.339091 30.062637 
L 313.930909 28.880982 
L 314.522727 29.905589 
L 315.114545 29.373374 
L 315.706364 28.311874 
L 316.298182 28.698719 
L 316.89 27.517952 
L 317.481818 26.826167 
L 318.073636 25.926621 
L 318.665455 27.864804 
L 319.257273 30.19705 
L 319.849091 25.85959 
L 320.440909 28.723543 
L 321.032727 28.135987 
L 321.624545 29.568381 
L 322.216364 28.335846 
L 322.808182 24.863106 
L 323.4 27.084337 
L 323.991818 27.653766 
L 324.583636 26.913372 
L 325.175455 29.190841 
L 325.767273 29.380208 
L 326.359091 29.027936 
L 326.950909 31.013616 
L 327.542727 26.939441 
L 328.134545 24.345089 
L 328.726364 26.744025 
L 329.318182 27.353099 
L 329.91 28.991391 
L 330.501818 30.060225 
L 331.093636 30.206486 
L 331.685455 24.204615 
L 332.277273 26.458711 
L 332.869091 25.74843 
L 333.460909 25.7807 
L 334.052727 27.144198 
L 334.644545 24.984257 
L 335.236364 25.792021 
L 336.42 20.782158 
L 337.011818 24.831981 
L 337.603636 22.982116 
L 338.195455 23.232949 
L 338.787273 25.177658 
L 339.379091 24.136877 
L 339.970909 25.674267 
L 340.562727 21.61796 
L 341.154545 21.844031 
L 341.746364 19.130835 
L 342.338182 22.480164 
L 342.93 22.405002 
L 343.521818 22.648987 
L 344.113636 21.731208 
L 344.705455 24.988811 
L 345.297273 26.033591 
L 345.889091 23.695438 
L 346.480909 26.779807 
L 347.072727 27.290527 
L 347.664545 24.702162 
L 348.256364 26.521585 
L 348.848182 29.085773 
L 349.44 28.107023 
L 350.031818 27.755341 
L 350.623636 22.870729 
L 351.215455 27.508298 
L 351.807273 28.317115 
L 352.399091 25.553675 
L 352.990909 28.23166 
L 353.582727 21.216875 
L 354.174545 24.084435 
L 354.766364 27.661141 
L 355.358182 24.138946 
L 355.95 27.236651 
L 356.541818 25.339619 
L 357.133636 20.227022 
L 357.725455 24.96064 
L 358.909091 21.495137 
L 359.500909 25.336965 
L 360.092727 20.768957 
L 360.684545 22.352282 
L 361.276364 24.70386 
L 361.868182 20.829648 
L 362.46 25.187541 
L 363.051818 23.675615 
L 363.643636 24.304658 
L 364.235455 22.22275 
L 364.827273 22.13463 
L 365.419091 23.601737 
L 366.010909 23.489779 
L 366.602727 24.538363 
L 367.194545 26.645137 
L 367.786364 26.111806 
L 368.378182 25.017046 
L 368.97 24.988269 
L 369.561818 23.912665 
L 370.153636 26.115442 
L 370.745455 22.663644 
L 371.337273 23.131244 
L 371.929091 25.76199 
L 373.112727 21.111308 
L 373.704545 25.199763 
L 374.296364 22.023632 
L 374.888182 24.619357 
L 375.48 22.44409 
L 376.071818 16.786939 
L 376.663636 20.529298 
L 377.255455 22.900043 
L 377.847273 21.661932 
L 378.439091 26.700425 
L 379.030909 23.740028 
L 379.622727 27.891285 
L 380.214545 23.841235 
L 380.806364 28.726093 
L 381.398182 27.838629 
L 381.99 24.108031 
L 382.581818 24.089256 
L 383.173636 27.760722 
L 383.765455 26.187509 
L 384.357273 25.976571 
L 384.949091 27.377814 
L 385.540909 26.940799 
L 386.132727 28.384006 
L 386.724545 26.312556 
L 387.316364 28.533503 
L 388.5 24.77338 
L 389.091818 26.678026 
L 389.683636 27.244097 
L 390.275455 24.632543 
L 390.867273 25.638743 
L 391.459091 25.058689 
L 392.050909 28.971239 
L 392.642727 27.478028 
L 393.234545 26.376515 
L 393.826364 25.525791 
L 394.418182 26.626931 
L 395.01 26.725885 
L 395.601818 28.280926 
L 396.785455 22.986661 
L 397.377273 26.726518 
L 397.969091 29.225355 
L 398.560909 25.783487 
L 399.152727 27.5577 
L 399.744545 28.617534 
L 400.336364 31.351455 
L 400.928182 30.137082 
L 401.52 25.996772 
L 402.111818 27.790744 
L 402.703636 28.735923 
L 403.295455 30.544661 
L 403.887273 26.540959 
L 404.479091 29.149413 
L 405.070909 24.198002 
L 405.662727 26.892209 
L 406.254545 25.239229 
L 406.846364 26.704747 
L 407.438182 27.052018 
L 408.03 29.360619 
L 408.621818 27.181557 
L 409.213636 28.843988 
L 409.805455 34.577813 
L 410.397273 31.892751 
L 410.989091 32.511947 
L 411.580909 29.087981 
L 412.172727 30.952336 
L 412.764545 29.023951 
L 413.356364 29.00995 
L 413.948182 27.676489 
L 414.54 30.800768 
L 415.131818 28.588754 
L 415.723636 31.17476 
L 416.315455 25.100797 
L 416.907273 26.723196 
L 417.499091 29.11617 
L 418.090909 29.217634 
L 418.682727 26.678001 
L 419.274545 27.087881 
L 419.866364 25.807124 
L 420.458182 27.175196 
L 421.05 29.532194 
L 421.641818 27.326457 
L 422.233636 27.426908 
L 422.825455 26.064305 
L 423.417273 26.848919 
L 424.009091 29.417632 
L 424.600909 24.544029 
L 425.192727 29.12555 
L 425.784545 31.346707 
L 426.376364 26.360555 
L 426.968182 23.0435 
L 427.56 29.90276 
L 428.151818 30.803294 
L 428.743636 30.326561 
L 429.335455 29.218337 
L 429.927273 26.542842 
L 430.519091 28.850802 
L 431.110909 24.527156 
L 431.702727 27.256157 
L 432.294545 33.225079 
L 432.886364 29.100902 
L 434.07 28.448025 
L 434.661818 29.01561 
L 435.253636 28.992458 
L 435.845455 30.121467 
L 435.845455 30.121467 
" style="fill:none;stroke:#ff7f0e;stroke-linecap:square;stroke-width:1.5;"/>
   </g>
   <g id="line2d_18">
    <path clip-path="url(#p38aa8b0c3e)" d="M 80.754545 30.535085 
L 81.346364 31.279037 
L 81.938182 25.235736 
L 82.53 24.164307 
L 83.121818 22.592825 
L 83.713636 23.627259 
L 84.305455 26.165245 
L 84.897273 27.172623 
L 85.489091 29.681572 
L 86.672727 23.067021 
L 87.264545 23.742869 
L 87.856364 26.849765 
L 88.448182 24.335206 
L 89.04 20.28124 
L 89.631818 23.805761 
L 90.223636 21.20733 
L 90.815455 23.757619 
L 91.407273 24.190122 
L 91.999091 22.845904 
L 92.590909 26.50465 
L 93.182727 24.451573 
L 93.774545 26.694523 
L 94.366364 23.583727 
L 94.958182 28.327417 
L 95.55 22.233284 
L 96.141818 29.278097 
L 96.733636 29.885327 
L 97.325455 25.583414 
L 97.917273 24.061387 
L 98.509091 25.343011 
L 99.100909 22.872449 
L 99.692727 24.179715 
L 100.284545 23.313376 
L 100.876364 25.813755 
L 101.468182 27.450934 
L 102.06 23.870651 
L 102.651818 29.517036 
L 103.243636 24.974575 
L 103.835455 28.781765 
L 104.427273 26.979658 
L 105.019091 31.472059 
L 105.610909 28.225098 
L 106.202727 26.036246 
L 106.794545 28.576044 
L 107.386364 27.196943 
L 107.978182 31.161684 
L 108.57 29.415353 
L 109.161818 26.653345 
L 109.753636 23.30563 
L 110.345455 28.242553 
L 110.937273 25.748742 
L 111.529091 24.507114 
L 112.120909 24.26944 
L 112.712727 19.91088 
L 113.896364 28.762455 
L 114.488182 30.759955 
L 115.08 27.626638 
L 115.671818 30.86778 
L 116.263636 33.087775 
L 116.855455 28.386777 
L 117.447273 19.340665 
L 118.039091 26.155021 
L 118.630909 29.401045 
L 119.222727 26.858466 
L 119.814545 26.433209 
L 120.406364 28.252286 
L 120.998182 27.468186 
L 121.59 28.235796 
L 122.181818 26.322422 
L 122.773636 34.480643 
L 123.365455 32.018806 
L 123.957273 32.040253 
L 124.549091 33.027677 
L 125.140909 32.800105 
L 125.732727 26.520012 
L 126.324545 22.641589 
L 126.916364 25.027867 
L 127.508182 24.557736 
L 128.691818 26.540982 
L 129.283636 29.501282 
L 129.875455 23.758357 
L 130.467273 27.245437 
L 131.059091 29.321449 
L 131.650909 23.582504 
L 132.242727 27.02782 
L 133.426364 24.588751 
L 134.018182 24.91167 
L 134.61 26.102626 
L 135.201818 31.514214 
L 135.793636 30.705236 
L 136.385455 32.090896 
L 136.977273 26.692365 
L 137.569091 28.179561 
L 138.160909 25.988476 
L 138.752727 26.199739 
L 139.344545 25.505502 
L 139.936364 25.343538 
L 140.528182 29.72225 
L 141.12 29.376593 
L 141.711818 26.380165 
L 142.895455 31.845319 
L 143.487273 32.340606 
L 144.079091 32.197086 
L 144.670909 23.986852 
L 145.262727 26.999874 
L 145.854545 25.904372 
L 146.446364 23.64739 
L 147.038182 24.045632 
L 147.63 22.945246 
L 148.221818 22.557124 
L 148.813636 28.11646 
L 149.405455 30.173274 
L 149.997273 23.149921 
L 150.589091 28.4612 
L 151.180909 29.761595 
L 151.772727 27.778566 
L 152.364545 27.786267 
L 152.956364 26.814636 
L 153.548182 27.299918 
L 154.14 26.64257 
L 154.731818 30.296857 
L 155.323636 29.466515 
L 155.915455 25.483847 
L 156.507273 30.571601 
L 157.099091 28.011787 
L 157.690909 29.851896 
L 158.282727 27.10889 
L 158.874545 25.791323 
L 159.466364 25.894615 
L 160.058182 21.964143 
L 160.65 26.116686 
L 161.241818 32.433702 
L 161.833636 31.719937 
L 162.425455 28.9589 
L 163.609091 36.786795 
L 164.200909 31.350041 
L 164.792727 29.743793 
L 165.384545 31.793851 
L 165.976364 28.534577 
L 166.568182 27.992596 
L 167.16 28.551891 
L 167.751818 27.20251 
L 168.343636 30.037823 
L 168.935455 26.367848 
L 169.527273 28.133224 
L 170.119091 27.292206 
L 170.710909 32.35558 
L 171.302727 27.765284 
L 171.894545 28.684088 
L 172.486364 25.930308 
L 173.078182 26.872078 
L 173.67 25.137818 
L 174.261818 27.720819 
L 174.853636 33.122336 
L 175.445455 28.162093 
L 176.037273 28.535487 
L 176.629091 28.536945 
L 177.220909 27.685092 
L 177.812727 26.382537 
L 178.404545 28.23323 
L 178.996364 28.085181 
L 179.588182 30.070143 
L 180.18 21.706982 
L 180.771818 25.563543 
L 181.363636 27.790744 
L 181.955455 28.803319 
L 182.547273 26.663533 
L 183.730909 28.023625 
L 184.322727 33.548141 
L 184.914545 32.824759 
L 185.506364 27.594611 
L 186.098182 28.514974 
L 186.69 28.285663 
L 187.281818 24.755548 
L 187.873636 26.146898 
L 188.465455 24.291157 
L 189.057273 25.040054 
L 189.649091 26.620526 
L 190.240909 24.427932 
L 190.832727 25.09511 
L 191.424545 24.128545 
L 192.016364 30.811935 
L 192.608182 27.65131 
L 193.2 25.351924 
L 193.791818 20.849453 
L 194.383636 21.175066 
L 194.975455 26.157914 
L 195.567273 26.06089 
L 196.159091 25.39256 
L 196.750909 23.067269 
L 197.342727 27.235703 
L 197.934545 29.859865 
L 198.526364 26.758891 
L 199.118182 26.180395 
L 199.71 28.080318 
L 200.301818 27.448617 
L 200.893636 26.212394 
L 201.485455 29.610996 
L 202.077273 29.393157 
L 202.669091 31.187275 
L 203.260909 28.000388 
L 203.852727 28.787498 
L 204.444545 24.150378 
L 205.628182 29.970103 
L 206.22 27.889992 
L 206.811818 24.938642 
L 207.403636 30.636605 
L 207.995455 32.322538 
L 208.587273 28.915982 
L 209.179091 27.073754 
L 209.770909 26.753978 
L 210.362727 32.064884 
L 210.954545 31.608574 
L 211.546364 29.976269 
L 212.138182 25.78213 
L 212.73 25.786134 
L 213.321818 27.222973 
L 213.913636 26.355812 
L 214.505455 28.9723 
L 215.097273 29.975462 
L 215.689091 30.423751 
L 216.280909 26.56623 
L 216.872727 24.023856 
L 217.464545 24.879618 
L 218.056364 28.177505 
L 218.648182 25.905981 
L 219.24 27.648754 
L 219.831818 28.641308 
L 220.423636 28.943833 
L 221.015455 22.308904 
L 221.607273 22.468508 
L 222.199091 24.878157 
L 222.790909 25.670063 
L 223.382727 33.515724 
L 223.974545 28.967037 
L 224.566364 29.65359 
L 225.158182 27.370375 
L 225.75 26.807757 
L 226.341818 27.96735 
L 226.933636 28.203718 
L 227.525455 28.120176 
L 228.117273 31.889515 
L 228.709091 30.555082 
L 229.300909 27.838844 
L 229.892727 26.426839 
L 231.076364 26.951987 
L 231.668182 23.224194 
L 232.26 28.180882 
L 232.851818 22.593599 
L 233.443636 23.69 
L 234.035455 27.762485 
L 234.627273 27.835201 
L 235.219091 27.186994 
L 235.810909 27.530149 
L 236.402727 24.341863 
L 236.994545 27.731665 
L 237.586364 29.159977 
L 238.178182 29.545578 
L 238.77 31.970947 
L 239.361818 30.911096 
L 239.953636 31.642346 
L 240.545455 33.845894 
L 241.137273 27.069082 
L 241.729091 28.549153 
L 242.320909 25.810656 
L 242.912727 30.257587 
L 243.504545 28.54207 
L 244.096364 24.550557 
L 244.688182 28.08016 
L 245.28 28.550107 
L 246.463636 22.43649 
L 247.055455 28.18388 
L 247.647273 25.608317 
L 248.239091 26.932468 
L 248.830909 29.932038 
L 249.422727 26.541462 
L 250.014545 28.260845 
L 250.606364 28.995755 
L 251.198182 27.307685 
L 251.79 24.421768 
L 252.381818 26.289425 
L 252.973636 25.196845 
L 253.565455 31.21916 
L 254.157273 23.944879 
L 254.749091 29.947063 
L 255.340909 27.663754 
L 255.932727 26.207876 
L 256.524545 25.14695 
L 257.116364 29.330846 
L 257.708182 28.796749 
L 258.3 25.016778 
L 259.483636 27.803304 
L 260.075455 30.780364 
L 260.667273 30.627762 
L 261.259091 26.197057 
L 261.850909 28.851449 
L 262.442727 26.404829 
L 263.034545 28.468337 
L 263.626364 27.111662 
L 264.218182 28.950547 
L 264.81 30.1279 
L 265.401818 28.205236 
L 265.993636 30.687045 
L 266.585455 23.071584 
L 267.177273 23.941662 
L 267.769091 28.193315 
L 268.360909 30.94389 
L 268.952727 29.997098 
L 269.544545 27.343364 
L 270.136364 27.449 
L 270.728182 28.677681 
L 271.32 26.457517 
L 271.911818 27.364224 
L 272.503636 27.392064 
L 273.095455 27.281493 
L 273.687273 29.039927 
L 274.279091 29.41855 
L 275.462727 32.423936 
L 276.054545 31.831723 
L 276.646364 31.457293 
L 277.83 29.859662 
L 278.421818 30.794434 
L 279.013636 27.420172 
L 279.605455 28.214998 
L 280.197273 31.413399 
L 280.789091 31.314268 
L 281.380909 29.435179 
L 281.972727 29.099087 
L 282.564545 31.04397 
L 283.156364 31.701605 
L 283.748182 27.726722 
L 284.34 28.186807 
L 284.931818 27.547143 
L 285.523636 29.866929 
L 286.115455 31.581259 
L 286.707273 32.394073 
L 287.299091 32.224208 
L 287.890909 27.380177 
L 288.482727 28.223689 
L 289.074545 28.836416 
L 289.666364 27.084288 
L 290.258182 30.42794 
L 290.85 30.414835 
L 291.441818 32.099555 
L 292.033636 32.693131 
L 292.625455 30.72928 
L 293.217273 30.145891 
L 293.809091 25.201673 
L 294.400909 27.589873 
L 294.992727 32.668868 
L 295.584545 26.936716 
L 296.176364 26.004845 
L 296.768182 27.088158 
L 297.36 29.324216 
L 297.951818 28.195395 
L 298.543636 29.71235 
L 299.135455 30.118721 
L 299.727273 28.769053 
L 300.319091 30.639206 
L 300.910909 30.269082 
L 301.502727 29.689266 
L 302.686364 30.633155 
L 303.278182 30.642181 
L 303.87 29.644542 
L 304.461818 31.420128 
L 305.053636 29.136928 
L 305.645455 28.026273 
L 306.237273 30.912128 
L 306.829091 31.578871 
L 307.420909 31.759907 
L 308.012727 34.08038 
L 308.604545 31.679333 
L 309.196364 30.190716 
L 309.788182 30.602853 
L 310.38 30.743562 
L 310.971818 32.911508 
L 311.563636 29.014938 
L 312.155455 29.82064 
L 312.747273 31.524129 
L 313.339091 28.919522 
L 313.930909 31.28712 
L 314.522727 28.97956 
L 315.114545 29.48964 
L 315.706364 30.227105 
L 316.89 23.864139 
L 318.665455 32.460264 
L 319.257273 33.019403 
L 319.849091 31.228138 
L 320.440909 28.075628 
L 321.624545 27.848772 
L 322.216364 27.997927 
L 322.808182 30.537645 
L 323.4 28.133938 
L 324.583636 27.477197 
L 325.175455 30.861325 
L 325.767273 24.828568 
L 326.359091 25.68992 
L 326.950909 30.434977 
L 327.542727 27.284329 
L 328.134545 27.356025 
L 328.726364 29.247434 
L 329.91 31.222579 
L 330.501818 30.216944 
L 331.093636 27.881316 
L 331.685455 27.241973 
L 332.277273 30.312048 
L 332.869091 29.652225 
L 333.460909 30.996383 
L 334.644545 30.348584 
L 335.236364 30.099661 
L 335.828182 30.695975 
L 336.42 26.749484 
L 337.011818 28.055215 
L 337.603636 28.244466 
L 338.195455 27.728597 
L 338.787273 30.382431 
L 339.379091 27.085924 
L 339.970909 24.54506 
L 340.562727 25.952964 
L 341.746364 33.553217 
L 342.338182 28.504444 
L 342.93 26.172785 
L 343.521818 31.013461 
L 344.113636 25.675212 
L 344.705455 28.412669 
L 345.297273 30.117539 
L 345.889091 24.371095 
L 346.480909 26.872216 
L 347.072727 28.639965 
L 347.664545 28.043062 
L 348.256364 25.958365 
L 348.848182 28.486268 
L 349.44 26.521276 
L 350.031818 27.919593 
L 350.623636 26.567564 
L 351.215455 24.347127 
L 351.807273 27.319457 
L 352.399091 27.699463 
L 352.990909 29.6454 
L 353.582727 26.10193 
L 354.174545 30.826937 
L 354.766364 25.790055 
L 355.95 29.894862 
L 356.541818 28.544822 
L 357.133636 24.960091 
L 357.725455 25.672976 
L 358.317273 28.094606 
L 358.909091 25.360237 
L 360.092727 26.85303 
L 360.684545 28.110724 
L 361.276364 25.316614 
L 361.868182 25.857052 
L 362.46 23.987223 
L 363.051818 25.38765 
L 363.643636 23.911174 
L 364.235455 25.898766 
L 364.827273 21.286554 
L 365.419091 23.481977 
L 366.010909 27.695328 
L 366.602727 22.352482 
L 367.194545 25.466454 
L 367.786364 21.781138 
L 368.378182 26.949752 
L 368.97 23.630868 
L 369.561818 26.706189 
L 370.153636 26.988715 
L 370.745455 27.490949 
L 371.337273 26.419778 
L 371.929091 26.608183 
L 372.520909 28.748288 
L 373.112727 27.071 
L 373.704545 27.937287 
L 374.296364 18.74864 
L 374.888182 25.776909 
L 375.48 21.893016 
L 376.071818 24.354616 
L 377.255455 26.466407 
L 377.847273 28.595157 
L 378.439091 25.328197 
L 379.030909 26.789121 
L 379.622727 25.094108 
L 380.214545 31.057113 
L 380.806364 22.001569 
L 381.398182 31.027778 
L 381.99 28.27353 
L 382.581818 27.405537 
L 383.173636 25.585127 
L 383.765455 30.837033 
L 384.357273 27.916284 
L 384.949091 27.700564 
L 385.540909 26.552072 
L 386.132727 30.76063 
L 386.724545 26.572453 
L 387.316364 31.083913 
L 387.908182 32.096347 
L 388.5 26.490996 
L 389.091818 25.372303 
L 389.683636 26.751174 
L 390.275455 26.952757 
L 390.867273 29.72712 
L 391.459091 33.621175 
L 392.050909 28.180725 
L 392.642727 27.707166 
L 393.234545 28.048319 
L 393.826364 26.883455 
L 394.418182 29.071729 
L 395.01 27.10101 
L 395.601818 32.171655 
L 396.193636 30.330508 
L 396.785455 32.643981 
L 397.377273 32.180729 
L 397.969091 31.180404 
L 399.152727 28.158396 
L 399.744545 29.491065 
L 400.336364 30.270598 
L 401.52 33.101417 
L 402.111818 34.300958 
L 402.703636 33.280737 
L 403.295455 33.760093 
L 403.887273 31.086839 
L 404.479091 31.916537 
L 405.070909 33.03566 
L 405.662727 35.831109 
L 406.254545 34.440471 
L 406.846364 38.601609 
L 407.438182 36.524269 
L 408.03 36.88125 
L 408.621818 34.327979 
L 409.213636 38.471109 
L 409.805455 32.539613 
L 410.397273 35.507435 
L 410.989091 35.112821 
L 411.580909 32.887335 
L 412.172727 31.754672 
L 412.764545 34.332827 
L 413.356364 32.654189 
L 413.948182 34.730012 
L 414.54 35.34197 
L 415.131818 33.458188 
L 415.723636 32.603206 
L 416.315455 29.819549 
L 416.907273 33.013771 
L 417.499091 34.790529 
L 418.090909 32.356694 
L 418.682727 33.132602 
L 419.274545 31.710454 
L 420.458182 35.917078 
L 421.05 37.069346 
L 421.641818 36.148814 
L 422.233636 32.748636 
L 422.825455 33.779085 
L 423.417273 36.113823 
L 424.009091 36.008534 
L 424.600909 37.178126 
L 425.192727 38.82034 
L 425.784545 35.349213 
L 426.376364 35.531258 
L 426.968182 35.834849 
L 428.151818 35.665397 
L 428.743636 36.625166 
L 429.335455 41.566834 
L 429.927273 40.018377 
L 430.519091 35.598163 
L 431.110909 37.37256 
L 431.702727 38.141103 
L 432.294545 39.411114 
L 432.886364 37.935334 
L 433.478182 34.471949 
L 434.07 37.330015 
L 434.661818 37.029351 
L 435.253636 37.753967 
L 435.845455 37.060289 
L 435.845455 37.060289 
" style="fill:none;stroke:#2ca02c;stroke-linecap:square;stroke-width:1.5;"/>
   </g>
   <g id="line2d_19">
    <path clip-path="url(#p38aa8b0c3e)" d="M 80.754545 21.562269 
L 81.346364 23.296375 
L 81.938182 22.035442 
L 83.121818 16.087148 
L 83.713636 19.080254 
L 84.305455 20.728465 
L 84.897273 25.435237 
L 85.489091 22.196169 
L 86.080909 22.003322 
L 86.672727 23.804453 
L 87.264545 22.084772 
L 87.856364 25.264229 
L 88.448182 27.222242 
L 89.04 21.792582 
L 89.631818 19.065935 
L 90.223636 19.719421 
L 90.815455 21.77423 
L 91.407273 25.369886 
L 91.999091 22.335663 
L 92.590909 26.558516 
L 93.182727 24.047594 
L 93.774545 20.556305 
L 94.366364 18.776992 
L 94.958182 21.134935 
L 95.55 19.646205 
L 96.141818 19.84843 
L 96.733636 21.101529 
L 97.325455 21.529668 
L 97.917273 23.21962 
L 98.509091 20.556829 
L 99.100909 25.520655 
L 99.692727 20.589671 
L 100.284545 23.622807 
L 100.876364 23.554843 
L 101.468182 22.916621 
L 102.06 22.634817 
L 102.651818 23.830017 
L 103.243636 20.007415 
L 103.835455 22.170498 
L 104.427273 24.942939 
L 105.019091 25.855922 
L 105.610909 27.415546 
L 106.202727 23.020322 
L 106.794545 24.531782 
L 107.386364 23.564809 
L 107.978182 18.353515 
L 108.57 24.22712 
L 109.753636 22.694141 
L 110.345455 21.179978 
L 110.937273 18.50374 
L 111.529091 26.149949 
L 112.120909 22.139355 
L 112.712727 21.033325 
L 113.304545 25.792782 
L 113.896364 25.953622 
L 114.488182 27.128528 
L 115.08 23.326717 
L 116.263636 25.391388 
L 116.855455 25.551401 
L 117.447273 27.979879 
L 118.039091 26.107091 
L 119.814545 26.570071 
L 120.406364 34.82009 
L 120.998182 29.417219 
L 121.59 29.262601 
L 122.181818 24.76329 
L 122.773636 28.39663 
L 123.365455 28.371398 
L 123.957273 31.95574 
L 124.549091 30.300896 
L 125.140909 31.765401 
L 125.732727 29.485837 
L 126.324545 33.266426 
L 126.916364 36.257569 
L 127.508182 29.35396 
L 128.691818 33.848527 
L 129.283636 37.72748 
L 129.875455 34.09788 
L 130.467273 36.445857 
L 131.059091 35.017681 
L 132.242727 28.76715 
L 132.834545 32.084685 
L 133.426364 30.383656 
L 134.018182 34.312042 
L 134.61 33.17681 
L 135.201818 33.80486 
L 135.793636 27.73905 
L 136.385455 30.798092 
L 136.977273 37.15622 
L 137.569091 28.932588 
L 138.160909 28.64865 
L 138.752727 32.59891 
L 139.344545 26.946334 
L 139.936364 27.687687 
L 140.528182 27.438963 
L 141.12 27.776503 
L 141.711818 27.926104 
L 142.303636 32.44556 
L 142.895455 26.717325 
L 143.487273 30.797744 
L 144.079091 26.57442 
L 144.670909 31.769991 
L 145.262727 30.85442 
L 145.854545 24.115847 
L 146.446364 22.393376 
L 147.038182 28.1343 
L 147.63 26.701401 
L 148.221818 27.078617 
L 148.813636 30.152007 
L 149.405455 31.986567 
L 149.997273 25.237684 
L 150.589091 23.734127 
L 151.180909 29.863199 
L 151.772727 27.849518 
L 152.364545 29.460311 
L 152.956364 26.512768 
L 153.548182 24.256608 
L 154.14 29.29678 
L 154.731818 31.358674 
L 155.323636 30.069185 
L 155.915455 30.211973 
L 156.507273 32.25874 
L 157.099091 33.205498 
L 157.690909 26.412751 
L 158.874545 29.210635 
L 159.466364 24.994936 
L 160.058182 25.934635 
L 160.65 28.881314 
L 161.241818 23.003148 
L 162.425455 26.491784 
L 163.017273 27.538772 
L 163.609091 24.720763 
L 164.200909 29.29312 
L 164.792727 30.162426 
L 165.384545 26.63188 
L 165.976364 29.019151 
L 166.568182 32.052271 
L 167.16 26.437942 
L 167.751818 31.994096 
L 168.343636 27.347944 
L 168.935455 33.943249 
L 169.527273 29.811264 
L 170.119091 34.10234 
L 170.710909 30.686461 
L 171.302727 35.725731 
L 172.486364 28.79991 
L 173.078182 28.37176 
L 173.67 24.939991 
L 174.261818 24.800741 
L 174.853636 31.840494 
L 175.445455 24.4364 
L 176.037273 28.329009 
L 176.629091 24.972865 
L 177.220909 27.548054 
L 177.812727 26.574233 
L 178.404545 31.878895 
L 178.996364 28.898477 
L 179.588182 27.022757 
L 180.18 25.92189 
L 180.771818 29.56464 
L 181.363636 27.940874 
L 182.547273 21.819882 
L 183.139091 26.67788 
L 183.730909 25.242128 
L 184.322727 25.833622 
L 184.914545 23.550468 
L 185.506364 25.371855 
L 186.098182 28.100937 
L 186.69 23.654149 
L 187.281818 25.062097 
L 187.873636 22.693364 
L 188.465455 27.507794 
L 189.057273 23.564486 
L 189.649091 27.798896 
L 190.240909 24.516002 
L 190.832727 24.79547 
L 191.424545 31.844555 
L 192.016364 29.896187 
L 192.608182 29.713775 
L 193.2 24.857188 
L 193.791818 34.277259 
L 194.383636 31.219423 
L 194.975455 33.019304 
L 195.567273 29.800907 
L 196.159091 32.777197 
L 196.750909 26.237379 
L 197.342727 31.748906 
L 197.934545 26.775532 
L 198.526364 26.714177 
L 199.118182 25.389502 
L 199.71 22.411151 
L 200.301818 28.84979 
L 200.893636 30.857482 
L 201.485455 28.434069 
L 202.077273 34.633166 
L 202.669091 30.647522 
L 203.260909 35.836599 
L 203.852727 33.508468 
L 204.444545 32.656822 
L 205.036364 30.586635 
L 205.628182 33.16802 
L 206.22 37.065581 
L 206.811818 36.757763 
L 207.403636 36.849118 
L 207.995455 38.301856 
L 208.587273 35.685307 
L 209.179091 34.573515 
L 209.770909 34.371398 
L 210.362727 36.999789 
L 210.954545 38.223327 
L 211.546364 37.45954 
L 212.138182 35.546412 
L 212.73 33.160344 
L 213.321818 36.445357 
L 213.913636 37.402306 
L 214.505455 41.992615 
L 215.097273 38.850714 
L 215.689091 37.359749 
L 216.280909 39.278248 
L 216.872727 36.626037 
L 217.464545 34.967357 
L 218.056364 32.579014 
L 218.648182 37.493623 
L 219.24 37.500745 
L 219.831818 40.952801 
L 220.423636 40.727355 
L 221.015455 37.723643 
L 221.607273 36.345864 
L 222.199091 40.225297 
L 222.790909 42.046965 
L 223.382727 38.671861 
L 223.974545 40.755147 
L 224.566364 38.877577 
L 225.158182 35.602133 
L 225.75 37.839198 
L 226.341818 38.824353 
L 226.933636 40.790846 
L 227.525455 40.325178 
L 228.117273 42.104219 
L 229.300909 34.046374 
L 229.892727 36.014301 
L 230.484545 36.566502 
L 231.076364 35.251908 
L 231.668182 38.779441 
L 232.26 33.276327 
L 232.851818 36.56982 
L 233.443636 37.117166 
L 234.035455 37.057942 
L 234.627273 39.657742 
L 235.219091 40.752357 
L 235.810909 38.071785 
L 236.402727 40.581456 
L 236.994545 37.157987 
L 237.586364 39.170909 
L 238.178182 39.018372 
L 238.77 41.127397 
L 239.361818 42.594002 
L 239.953636 44.657072 
L 240.545455 41.867552 
L 241.137273 45.916506 
L 241.729091 39.078639 
L 242.320909 40.05412 
L 242.912727 41.817167 
L 243.504545 40.623294 
L 244.096364 38.643467 
L 244.688182 40.474524 
L 245.28 41.749548 
L 245.871818 38.659317 
L 246.463636 39.311002 
L 247.055455 41.728561 
L 247.647273 35.328064 
L 248.239091 38.916204 
L 248.830909 38.865221 
L 249.422727 40.728804 
L 250.014545 35.710847 
L 250.606364 41.195709 
L 251.198182 36.538798 
L 251.79 33.751053 
L 252.381818 32.931037 
L 252.973636 38.584909 
L 253.565455 40.561086 
L 254.157273 35.018664 
L 254.749091 34.56267 
L 255.340909 36.538797 
L 255.932727 35.359504 
L 256.524545 35.144267 
L 257.116364 37.86901 
L 257.708182 39.369064 
L 258.3 34.841087 
L 258.891818 33.097361 
L 259.483636 37.513562 
L 260.075455 37.042878 
L 260.667273 37.896934 
L 261.259091 39.378552 
L 261.850909 39.409322 
L 262.442727 36.866616 
L 263.034545 38.459491 
L 263.626364 38.815852 
L 264.218182 41.344721 
L 264.81 41.145229 
L 265.401818 35.268277 
L 266.585455 39.900893 
L 267.177273 33.625521 
L 267.769091 32.094741 
L 268.360909 37.644786 
L 268.952727 39.468101 
L 269.544545 38.998517 
L 270.136364 40.732695 
L 270.728182 33.9821 
L 271.32 41.525622 
L 271.911818 38.734955 
L 272.503636 35.144538 
L 273.095455 36.444014 
L 273.687273 38.669023 
L 274.279091 37.65546 
L 274.870909 39.793996 
L 275.462727 41.280526 
L 276.054545 37.623617 
L 277.238182 40.369823 
L 277.83 38.18944 
L 278.421818 37.027417 
L 279.013636 41.316813 
L 279.605455 40.90162 
L 280.197273 42.256416 
L 280.789091 37.495152 
L 281.380909 37.361876 
L 281.972727 41.817342 
L 282.564545 39.343168 
L 283.156364 39.230164 
L 283.748182 34.566734 
L 284.34 40.708096 
L 284.931818 36.558913 
L 285.523636 37.443286 
L 286.115455 39.667531 
L 286.707273 39.97581 
L 287.299091 39.494721 
L 287.890909 41.419211 
L 288.482727 41.040118 
L 289.074545 38.774065 
L 289.666364 40.699938 
L 290.258182 41.910193 
L 291.441818 36.667292 
L 292.033636 39.877448 
L 292.625455 41.841891 
L 293.217273 39.725906 
L 293.809091 38.429356 
L 294.400909 40.001225 
L 294.992727 39.782212 
L 295.584545 42.782075 
L 296.176364 42.909483 
L 296.768182 41.01272 
L 297.36 40.98804 
L 297.951818 35.183714 
L 298.543636 40.854597 
L 299.135455 39.849986 
L 300.319091 41.446603 
L 300.910909 40.844834 
L 301.502727 38.614517 
L 302.094545 41.787171 
L 302.686364 42.543516 
L 303.278182 43.512738 
L 303.87 40.542208 
L 304.461818 39.729968 
L 305.053636 38.319965 
L 305.645455 41.155327 
L 306.237273 42.023664 
L 306.829091 42.241307 
L 307.420909 42.894271 
L 308.012727 42.456701 
L 308.604545 39.644847 
L 309.196364 45.102553 
L 309.788182 43.64162 
L 310.38 43.73196 
L 310.971818 43.201836 
L 311.563636 43.098723 
L 312.155455 42.617342 
L 312.747273 41.283493 
L 313.339091 43.933282 
L 313.930909 41.238527 
L 314.522727 41.779019 
L 315.114545 41.173868 
L 315.706364 41.481563 
L 316.298182 42.209016 
L 316.89 44.905169 
L 317.481818 43.039087 
L 318.073636 42.205602 
L 318.665455 42.351031 
L 319.257273 41.689483 
L 319.849091 38.158134 
L 321.032727 42.06389 
L 321.624545 40.235205 
L 322.216364 39.439205 
L 323.4 40.340193 
L 323.991818 41.065132 
L 324.583636 41.475143 
L 325.175455 41.308099 
L 325.767273 39.464797 
L 326.359091 42.221197 
L 326.950909 40.401585 
L 327.542727 40.909409 
L 328.134545 42.929848 
L 328.726364 40.328038 
L 329.91 42.20941 
L 330.501818 39.873274 
L 331.093636 39.515236 
L 331.685455 38.446052 
L 332.277273 40.547139 
L 332.869091 40.930306 
L 333.460909 40.671295 
L 334.052727 41.845039 
L 334.644545 40.554431 
L 335.236364 44.974386 
L 335.828182 39.220581 
L 336.42 43.428428 
L 337.011818 41.70519 
L 337.603636 42.771436 
L 338.195455 45.148072 
L 338.787273 35.946439 
L 339.970909 45.098282 
L 340.562727 38.274416 
L 341.154545 40.079059 
L 341.746364 46.472837 
L 342.338182 43.657424 
L 342.93 42.750968 
L 343.521818 39.092957 
L 344.113636 41.417555 
L 344.705455 41.105412 
L 345.297273 43.079763 
L 345.889091 40.319185 
L 346.480909 39.137867 
L 347.072727 40.094197 
L 347.664545 39.974632 
L 348.256364 40.560496 
L 348.848182 40.565527 
L 349.44 39.789638 
L 350.031818 41.679011 
L 350.623636 41.892261 
L 351.215455 42.995394 
L 351.807273 43.318779 
L 352.990909 42.125152 
L 353.582727 43.47862 
L 354.174545 42.104499 
L 354.766364 43.327762 
L 355.358182 45.633958 
L 355.95 43.258467 
L 356.541818 39.398637 
L 357.133636 40.199877 
L 358.317273 42.64483 
L 358.909091 41.994804 
L 359.500909 41.97559 
L 360.092727 39.598455 
L 360.684545 38.154487 
L 361.868182 38.621352 
L 362.46 42.176291 
L 363.051818 39.653807 
L 363.643636 42.145399 
L 364.235455 43.477135 
L 364.827273 41.006262 
L 365.419091 43.232584 
L 366.010909 44.191686 
L 366.602727 42.784942 
L 367.194545 42.139096 
L 367.786364 42.867104 
L 368.378182 42.79253 
L 368.97 42.095524 
L 369.561818 43.385031 
L 370.153636 40.437517 
L 370.745455 41.244598 
L 371.337273 39.98901 
L 371.929091 40.330106 
L 372.520909 38.613829 
L 373.112727 38.014277 
L 373.704545 41.949783 
L 374.296364 41.299369 
L 374.888182 39.398575 
L 375.48 40.905027 
L 376.071818 44.594738 
L 376.663636 40.37324 
L 377.255455 38.908335 
L 377.847273 42.820477 
L 379.030909 40.758249 
L 380.214545 40.312229 
L 380.806364 44.509164 
L 381.398182 41.362716 
L 381.99 47.206676 
L 382.581818 44.914843 
L 383.173636 40.475036 
L 383.765455 46.070889 
L 384.357273 44.62884 
L 384.949091 46.36274 
L 385.540909 45.808693 
L 386.132727 43.570722 
L 386.724545 46.493513 
L 387.316364 43.395834 
L 387.908182 38.787326 
L 388.5 42.386271 
L 389.091818 42.387171 
L 389.683636 43.715296 
L 390.275455 44.590143 
L 390.867273 40.453306 
L 391.459091 40.47054 
L 392.050909 42.589517 
L 392.642727 39.019831 
L 393.234545 42.479168 
L 393.826364 42.683029 
L 394.418182 44.779254 
L 395.01 44.214537 
L 395.601818 40.654908 
L 396.193636 44.674496 
L 396.785455 44.536086 
L 397.377273 40.914126 
L 397.969091 43.139318 
L 398.560909 44.770406 
L 399.152727 44.344015 
L 399.744545 40.311778 
L 400.336364 42.283022 
L 400.928182 38.443147 
L 401.52 42.770603 
L 402.111818 37.374724 
L 402.703636 37.674952 
L 403.295455 44.442187 
L 403.887273 41.694003 
L 405.070909 39.810434 
L 405.662727 42.533761 
L 406.254545 39.923814 
L 406.846364 44.811087 
L 407.438182 40.237169 
L 408.03 41.973187 
L 408.621818 39.792085 
L 409.213636 42.12335 
L 409.805455 40.536886 
L 410.397273 44.337919 
L 410.989091 45.053817 
L 411.580909 41.526991 
L 412.172727 41.755527 
L 412.764545 48.114617 
L 413.356364 41.756906 
L 413.948182 42.203815 
L 414.54 40.861598 
L 415.131818 41.801312 
L 415.723636 45.395952 
L 416.315455 47.243313 
L 416.907273 45.323083 
L 417.499091 39.083827 
L 418.090909 41.916986 
L 418.682727 41.384028 
L 419.274545 41.993182 
L 419.866364 41.716821 
L 420.458182 37.974066 
L 421.05 42.311267 
L 421.641818 37.632943 
L 422.233636 41.618502 
L 422.825455 42.053301 
L 423.417273 44.8782 
L 424.009091 45.153273 
L 424.600909 44.032582 
L 425.192727 43.404032 
L 425.784545 41.342244 
L 426.376364 42.793559 
L 426.968182 41.77017 
L 428.151818 46.668434 
L 428.743636 42.335535 
L 429.335455 42.205258 
L 429.927273 44.482323 
L 430.519091 41.810314 
L 431.110909 45.657864 
L 431.702727 43.549051 
L 432.294545 47.028144 
L 432.886364 45.782382 
L 433.478182 41.739239 
L 434.07 42.261582 
L 434.661818 45.428026 
L 435.253636 45.721126 
L 435.845455 48.789705 
L 435.845455 48.789705 
" style="fill:none;stroke:#d62728;stroke-linecap:square;stroke-width:1.5;"/>
   </g>
   <g id="line2d_20"/>
   <g id="line2d_21"/>
   <g id="line2d_22"/>
   <g id="line2d_23"/>
   <g id="patch_3">
    <path d="M 63 192.24 
L 63 25.92 
" style="fill:none;stroke:#000000;stroke-linecap:square;stroke-linejoin:miter;stroke-width:0.8;"/>
   </g>
   <g id="patch_4">
    <path d="M 63 192.24 
L 453.6 192.24 
" style="fill:none;stroke:#000000;stroke-linecap:square;stroke-linejoin:miter;stroke-width:0.8;"/>
   </g>
   <g id="text_18">
    <!-- modeltype=base -->
    <g transform="translate(206.880938 19.92)scale(0.12 -0.12)">
     <defs>
      <path d="M 30.609375 48.390625 
Q 23.390625 48.390625 19.1875 42.75 
Q 14.984375 37.109375 14.984375 27.296875 
Q 14.984375 17.484375 19.15625 11.84375 
Q 23.34375 6.203125 30.609375 6.203125 
Q 37.796875 6.203125 41.984375 11.859375 
Q 46.1875 17.53125 46.1875 27.296875 
Q 46.1875 37.015625 41.984375 42.703125 
Q 37.796875 48.390625 30.609375 48.390625 
z
M 30.609375 56 
Q 42.328125 56 49.015625 48.375 
Q 55.71875 40.765625 55.71875 27.296875 
Q 55.71875 13.875 49.015625 6.21875 
Q 42.328125 -1.421875 30.609375 -1.421875 
Q 18.84375 -1.421875 12.171875 6.21875 
Q 5.515625 13.875 5.515625 27.296875 
Q 5.515625 40.765625 12.171875 48.375 
Q 18.84375 56 30.609375 56 
z
" id="DejaVuSans-111"/>
      <path d="M 45.40625 46.390625 
L 45.40625 75.984375 
L 54.390625 75.984375 
L 54.390625 0 
L 45.40625 0 
L 45.40625 8.203125 
Q 42.578125 3.328125 38.25 0.953125 
Q 33.9375 -1.421875 27.875 -1.421875 
Q 17.96875 -1.421875 11.734375 6.484375 
Q 5.515625 14.40625 5.515625 27.296875 
Q 5.515625 40.1875 11.734375 48.09375 
Q 17.96875 56 27.875 56 
Q 33.9375 56 38.25 53.625 
Q 42.578125 51.265625 45.40625 46.390625 
z
M 14.796875 27.296875 
Q 14.796875 17.390625 18.875 11.75 
Q 22.953125 6.109375 30.078125 6.109375 
Q 37.203125 6.109375 41.296875 11.75 
Q 45.40625 17.390625 45.40625 27.296875 
Q 45.40625 37.203125 41.296875 42.84375 
Q 37.203125 48.484375 30.078125 48.484375 
Q 22.953125 48.484375 18.875 42.84375 
Q 14.796875 37.203125 14.796875 27.296875 
z
" id="DejaVuSans-100"/>
      <path d="M 9.421875 75.984375 
L 18.40625 75.984375 
L 18.40625 0 
L 9.421875 0 
z
" id="DejaVuSans-108"/>
      <path d="M 32.171875 -5.078125 
Q 28.375 -14.84375 24.75 -17.8125 
Q 21.140625 -20.796875 15.09375 -20.796875 
L 7.90625 -20.796875 
L 7.90625 -13.28125 
L 13.1875 -13.28125 
Q 16.890625 -13.28125 18.9375 -11.515625 
Q 21 -9.765625 23.484375 -3.21875 
L 25.09375 0.875 
L 2.984375 54.6875 
L 12.5 54.6875 
L 29.59375 11.921875 
L 46.6875 54.6875 
L 56.203125 54.6875 
z
" id="DejaVuSans-121"/>
      <path d="M 18.109375 8.203125 
L 18.109375 -20.796875 
L 9.078125 -20.796875 
L 9.078125 54.6875 
L 18.109375 54.6875 
L 18.109375 46.390625 
Q 20.953125 51.265625 25.265625 53.625 
Q 29.59375 56 35.59375 56 
Q 45.5625 56 51.78125 48.09375 
Q 58.015625 40.1875 58.015625 27.296875 
Q 58.015625 14.40625 51.78125 6.484375 
Q 45.5625 -1.421875 35.59375 -1.421875 
Q 29.59375 -1.421875 25.265625 0.953125 
Q 20.953125 3.328125 18.109375 8.203125 
z
M 48.6875 27.296875 
Q 48.6875 37.203125 44.609375 42.84375 
Q 40.53125 48.484375 33.40625 48.484375 
Q 26.265625 48.484375 22.1875 42.84375 
Q 18.109375 37.203125 18.109375 27.296875 
Q 18.109375 17.390625 22.1875 11.75 
Q 26.265625 6.109375 33.40625 6.109375 
Q 40.53125 6.109375 44.609375 11.75 
Q 48.6875 17.390625 48.6875 27.296875 
z
" id="DejaVuSans-112"/>
      <path d="M 10.59375 45.40625 
L 73.1875 45.40625 
L 73.1875 37.203125 
L 10.59375 37.203125 
z
M 10.59375 25.484375 
L 73.1875 25.484375 
L 73.1875 17.1875 
L 10.59375 17.1875 
z
" id="DejaVuSans-61"/>
      <path d="M 48.6875 27.296875 
Q 48.6875 37.203125 44.609375 42.84375 
Q 40.53125 48.484375 33.40625 48.484375 
Q 26.265625 48.484375 22.1875 42.84375 
Q 18.109375 37.203125 18.109375 27.296875 
Q 18.109375 17.390625 22.1875 11.75 
Q 26.265625 6.109375 33.40625 6.109375 
Q 40.53125 6.109375 44.609375 11.75 
Q 48.6875 17.390625 48.6875 27.296875 
z
M 18.109375 46.390625 
Q 20.953125 51.265625 25.265625 53.625 
Q 29.59375 56 35.59375 56 
Q 45.5625 56 51.78125 48.09375 
Q 58.015625 40.1875 58.015625 27.296875 
Q 58.015625 14.40625 51.78125 6.484375 
Q 45.5625 -1.421875 35.59375 -1.421875 
Q 29.59375 -1.421875 25.265625 0.953125 
Q 20.953125 3.328125 18.109375 8.203125 
L 18.109375 0 
L 9.078125 0 
L 9.078125 75.984375 
L 18.109375 75.984375 
z
" id="DejaVuSans-98"/>
      <path d="M 34.28125 27.484375 
Q 23.390625 27.484375 19.1875 25 
Q 14.984375 22.515625 14.984375 16.5 
Q 14.984375 11.71875 18.140625 8.90625 
Q 21.296875 6.109375 26.703125 6.109375 
Q 34.1875 6.109375 38.703125 11.40625 
Q 43.21875 16.703125 43.21875 25.484375 
L 43.21875 27.484375 
z
M 52.203125 31.203125 
L 52.203125 0 
L 43.21875 0 
L 43.21875 8.296875 
Q 40.140625 3.328125 35.546875 0.953125 
Q 30.953125 -1.421875 24.3125 -1.421875 
Q 15.921875 -1.421875 10.953125 3.296875 
Q 6 8.015625 6 15.921875 
Q 6 25.140625 12.171875 29.828125 
Q 18.359375 34.515625 30.609375 34.515625 
L 43.21875 34.515625 
L 43.21875 35.40625 
Q 43.21875 41.609375 39.140625 45 
Q 35.0625 48.390625 27.6875 48.390625 
Q 23 48.390625 18.546875 47.265625 
Q 14.109375 46.140625 10.015625 43.890625 
L 10.015625 52.203125 
Q 14.9375 54.109375 19.578125 55.046875 
Q 24.21875 56 28.609375 56 
Q 40.484375 56 46.34375 49.84375 
Q 52.203125 43.703125 52.203125 31.203125 
z
" id="DejaVuSans-97"/>
      <path d="M 44.28125 53.078125 
L 44.28125 44.578125 
Q 40.484375 46.53125 36.375 47.5 
Q 32.28125 48.484375 27.875 48.484375 
Q 21.1875 48.484375 17.84375 46.4375 
Q 14.5 44.390625 14.5 40.28125 
Q 14.5 37.15625 16.890625 35.375 
Q 19.28125 33.59375 26.515625 31.984375 
L 29.59375 31.296875 
Q 39.15625 29.25 43.1875 25.515625 
Q 47.21875 21.78125 47.21875 15.09375 
Q 47.21875 7.46875 41.1875 3.015625 
Q 35.15625 -1.421875 24.609375 -1.421875 
Q 20.21875 -1.421875 15.453125 -0.5625 
Q 10.6875 0.296875 5.421875 2 
L 5.421875 11.28125 
Q 10.40625 8.6875 15.234375 7.390625 
Q 20.0625 6.109375 24.8125 6.109375 
Q 31.15625 6.109375 34.5625 8.28125 
Q 37.984375 10.453125 37.984375 14.40625 
Q 37.984375 18.0625 35.515625 20.015625 
Q 33.0625 21.96875 24.703125 23.78125 
L 21.578125 24.515625 
Q 13.234375 26.265625 9.515625 29.90625 
Q 5.8125 33.546875 5.8125 39.890625 
Q 5.8125 47.609375 11.28125 51.796875 
Q 16.75 56 26.8125 56 
Q 31.78125 56 36.171875 55.265625 
Q 40.578125 54.546875 44.28125 53.078125 
z
" id="DejaVuSans-115"/>
     </defs>
     <use xlink:href="#DejaVuSans-109"/>
     <use x="97.412109" xlink:href="#DejaVuSans-111"/>
     <use x="158.59375" xlink:href="#DejaVuSans-100"/>
     <use x="222.070312" xlink:href="#DejaVuSans-101"/>
     <use x="283.59375" xlink:href="#DejaVuSans-108"/>
     <use x="311.376953" xlink:href="#DejaVuSans-116"/>
     <use x="350.585938" xlink:href="#DejaVuSans-121"/>
     <use x="409.765625" xlink:href="#DejaVuSans-112"/>
     <use x="473.242188" xlink:href="#DejaVuSans-101"/>
     <use x="534.765625" xlink:href="#DejaVuSans-61"/>
     <use x="618.554688" xlink:href="#DejaVuSans-98"/>
     <use x="682.03125" xlink:href="#DejaVuSans-97"/>
     <use x="743.310547" xlink:href="#DejaVuSans-115"/>
     <use x="795.410156" xlink:href="#DejaVuSans-101"/>
    </g>
   </g>
   <g id="legend_1">
    <g id="patch_5">
     <path d="M 70 187.24 
L 235.407813 187.24 
Q 237.407813 187.24 237.407813 185.24 
L 237.407813 112.57125 
Q 237.407813 110.57125 235.407813 110.57125 
L 70 110.57125 
Q 68 110.57125 68 112.57125 
L 68 185.24 
Q 68 187.24 70 187.24 
z
" style="fill:#ffffff;opacity:0.8;stroke:#cccccc;stroke-linejoin:miter;"/>
    </g>
    <g id="text_19">
     <!-- scenario -->
     <g transform="translate(131.536719 122.169687)scale(0.1 -0.1)">
      <defs>
       <path d="M 48.78125 52.59375 
L 48.78125 44.1875 
Q 44.96875 46.296875 41.140625 47.34375 
Q 37.3125 48.390625 33.40625 48.390625 
Q 24.65625 48.390625 19.8125 42.84375 
Q 14.984375 37.3125 14.984375 27.296875 
Q 14.984375 17.28125 19.8125 11.734375 
Q 24.65625 6.203125 33.40625 6.203125 
Q 37.3125 6.203125 41.140625 7.25 
Q 44.96875 8.296875 48.78125 10.40625 
L 48.78125 2.09375 
Q 45.015625 0.34375 40.984375 -0.53125 
Q 36.96875 -1.421875 32.421875 -1.421875 
Q 20.0625 -1.421875 12.78125 6.34375 
Q 5.515625 14.109375 5.515625 27.296875 
Q 5.515625 40.671875 12.859375 48.328125 
Q 20.21875 56 33.015625 56 
Q 37.15625 56 41.109375 55.140625 
Q 45.0625 54.296875 48.78125 52.59375 
z
" id="DejaVuSans-99"/>
       <path d="M 54.890625 33.015625 
L 54.890625 0 
L 45.90625 0 
L 45.90625 32.71875 
Q 45.90625 40.484375 42.875 44.328125 
Q 39.84375 48.1875 33.796875 48.1875 
Q 26.515625 48.1875 22.3125 43.546875 
Q 18.109375 38.921875 18.109375 30.90625 
L 18.109375 0 
L 9.078125 0 
L 9.078125 54.6875 
L 18.109375 54.6875 
L 18.109375 46.1875 
Q 21.34375 51.125 25.703125 53.5625 
Q 30.078125 56 35.796875 56 
Q 45.21875 56 50.046875 50.171875 
Q 54.890625 44.34375 54.890625 33.015625 
z
" id="DejaVuSans-110"/>
       <path d="M 41.109375 46.296875 
Q 39.59375 47.171875 37.8125 47.578125 
Q 36.03125 48 33.890625 48 
Q 26.265625 48 22.1875 43.046875 
Q 18.109375 38.09375 18.109375 28.8125 
L 18.109375 0 
L 9.078125 0 
L 9.078125 54.6875 
L 18.109375 54.6875 
L 18.109375 46.1875 
Q 20.953125 51.171875 25.484375 53.578125 
Q 30.03125 56 36.53125 56 
Q 37.453125 56 38.578125 55.875 
Q 39.703125 55.765625 41.0625 55.515625 
z
" id="DejaVuSans-114"/>
      </defs>
      <use xlink:href="#DejaVuSans-115"/>
      <use x="52.099609" xlink:href="#DejaVuSans-99"/>
      <use x="107.080078" xlink:href="#DejaVuSans-101"/>
      <use x="168.603516" xlink:href="#DejaVuSans-110"/>
      <use x="231.982422" xlink:href="#DejaVuSans-97"/>
      <use x="293.261719" xlink:href="#DejaVuSans-114"/>
      <use x="334.375" xlink:href="#DejaVuSans-105"/>
      <use x="362.158203" xlink:href="#DejaVuSans-111"/>
     </g>
    </g>
    <g id="line2d_24">
     <path d="M 72 133.347812 
L 92 133.347812 
" style="fill:none;stroke:#1f77b4;stroke-linecap:square;stroke-width:1.5;"/>
    </g>
    <g id="line2d_25"/>
    <g id="text_20">
     <!-- onlylow -->
     <g transform="translate(100 136.847812)scale(0.1 -0.1)">
      <defs>
       <path d="M 4.203125 54.6875 
L 13.1875 54.6875 
L 24.421875 12.015625 
L 35.59375 54.6875 
L 46.1875 54.6875 
L 57.421875 12.015625 
L 68.609375 54.6875 
L 77.59375 54.6875 
L 63.28125 0 
L 52.6875 0 
L 40.921875 44.828125 
L 29.109375 0 
L 18.5 0 
z
" id="DejaVuSans-119"/>
      </defs>
      <use xlink:href="#DejaVuSans-111"/>
      <use x="61.181641" xlink:href="#DejaVuSans-110"/>
      <use x="124.560547" xlink:href="#DejaVuSans-108"/>
      <use x="152.34375" xlink:href="#DejaVuSans-121"/>
      <use x="211.523438" xlink:href="#DejaVuSans-108"/>
      <use x="239.306641" xlink:href="#DejaVuSans-111"/>
      <use x="300.488281" xlink:href="#DejaVuSans-119"/>
     </g>
    </g>
    <g id="line2d_26">
     <path d="M 72 148.025937 
L 92 148.025937 
" style="fill:none;stroke:#ff7f0e;stroke-linecap:square;stroke-width:1.5;"/>
    </g>
    <g id="line2d_27"/>
    <g id="text_21">
     <!-- onlyhigh -->
     <g transform="translate(100 151.525937)scale(0.1 -0.1)">
      <defs>
       <path d="M 54.890625 33.015625 
L 54.890625 0 
L 45.90625 0 
L 45.90625 32.71875 
Q 45.90625 40.484375 42.875 44.328125 
Q 39.84375 48.1875 33.796875 48.1875 
Q 26.515625 48.1875 22.3125 43.546875 
Q 18.109375 38.921875 18.109375 30.90625 
L 18.109375 0 
L 9.078125 0 
L 9.078125 75.984375 
L 18.109375 75.984375 
L 18.109375 46.1875 
Q 21.34375 51.125 25.703125 53.5625 
Q 30.078125 56 35.796875 56 
Q 45.21875 56 50.046875 50.171875 
Q 54.890625 44.34375 54.890625 33.015625 
z
" id="DejaVuSans-104"/>
       <path d="M 45.40625 27.984375 
Q 45.40625 37.75 41.375 43.109375 
Q 37.359375 48.484375 30.078125 48.484375 
Q 22.859375 48.484375 18.828125 43.109375 
Q 14.796875 37.75 14.796875 27.984375 
Q 14.796875 18.265625 18.828125 12.890625 
Q 22.859375 7.515625 30.078125 7.515625 
Q 37.359375 7.515625 41.375 12.890625 
Q 45.40625 18.265625 45.40625 27.984375 
z
M 54.390625 6.78125 
Q 54.390625 -7.171875 48.1875 -13.984375 
Q 42 -20.796875 29.203125 -20.796875 
Q 24.46875 -20.796875 20.265625 -20.09375 
Q 16.0625 -19.390625 12.109375 -17.921875 
L 12.109375 -9.1875 
Q 16.0625 -11.328125 19.921875 -12.34375 
Q 23.78125 -13.375 27.78125 -13.375 
Q 36.625 -13.375 41.015625 -8.765625 
Q 45.40625 -4.15625 45.40625 5.171875 
L 45.40625 9.625 
Q 42.625 4.78125 38.28125 2.390625 
Q 33.9375 0 27.875 0 
Q 17.828125 0 11.671875 7.65625 
Q 5.515625 15.328125 5.515625 27.984375 
Q 5.515625 40.671875 11.671875 48.328125 
Q 17.828125 56 27.875 56 
Q 33.9375 56 38.28125 53.609375 
Q 42.625 51.21875 45.40625 46.390625 
L 45.40625 54.6875 
L 54.390625 54.6875 
z
" id="DejaVuSans-103"/>
      </defs>
      <use xlink:href="#DejaVuSans-111"/>
      <use x="61.181641" xlink:href="#DejaVuSans-110"/>
      <use x="124.560547" xlink:href="#DejaVuSans-108"/>
      <use x="152.34375" xlink:href="#DejaVuSans-121"/>
      <use x="211.523438" xlink:href="#DejaVuSans-104"/>
      <use x="274.902344" xlink:href="#DejaVuSans-105"/>
      <use x="302.685547" xlink:href="#DejaVuSans-103"/>
      <use x="366.162109" xlink:href="#DejaVuSans-104"/>
     </g>
    </g>
    <g id="line2d_28">
     <path d="M 72 162.704062 
L 92 162.704062 
" style="fill:none;stroke:#2ca02c;stroke-linecap:square;stroke-width:1.5;"/>
    </g>
    <g id="line2d_29"/>
    <g id="text_22">
     <!-- balanced -->
     <g transform="translate(100 166.204062)scale(0.1 -0.1)">
      <use xlink:href="#DejaVuSans-98"/>
      <use x="63.476562" xlink:href="#DejaVuSans-97"/>
      <use x="124.755859" xlink:href="#DejaVuSans-108"/>
      <use x="152.539062" xlink:href="#DejaVuSans-97"/>
      <use x="213.818359" xlink:href="#DejaVuSans-110"/>
      <use x="277.197266" xlink:href="#DejaVuSans-99"/>
      <use x="332.177734" xlink:href="#DejaVuSans-101"/>
      <use x="393.701172" xlink:href="#DejaVuSans-100"/>
     </g>
    </g>
    <g id="line2d_30">
     <path d="M 72 177.382187 
L 92 177.382187 
" style="fill:none;stroke:#d62728;stroke-linecap:square;stroke-width:1.5;"/>
    </g>
    <g id="line2d_31"/>
    <g id="text_23">
     <!-- balanced_errors_penalized -->
     <g transform="translate(100 180.882187)scale(0.1 -0.1)">
      <defs>
       <path d="M 50.984375 -16.609375 
L 50.984375 -23.578125 
L -0.984375 -23.578125 
L -0.984375 -16.609375 
z
" id="DejaVuSans-95"/>
       <path d="M 5.515625 54.6875 
L 48.1875 54.6875 
L 48.1875 46.484375 
L 14.40625 7.171875 
L 48.1875 7.171875 
L 48.1875 0 
L 4.296875 0 
L 4.296875 8.203125 
L 38.09375 47.515625 
L 5.515625 47.515625 
z
" id="DejaVuSans-122"/>
      </defs>
      <use xlink:href="#DejaVuSans-98"/>
      <use x="63.476562" xlink:href="#DejaVuSans-97"/>
      <use x="124.755859" xlink:href="#DejaVuSans-108"/>
      <use x="152.539062" xlink:href="#DejaVuSans-97"/>
      <use x="213.818359" xlink:href="#DejaVuSans-110"/>
      <use x="277.197266" xlink:href="#DejaVuSans-99"/>
      <use x="332.177734" xlink:href="#DejaVuSans-101"/>
      <use x="393.701172" xlink:href="#DejaVuSans-100"/>
      <use x="457.177734" xlink:href="#DejaVuSans-95"/>
      <use x="507.177734" xlink:href="#DejaVuSans-101"/>
      <use x="568.701172" xlink:href="#DejaVuSans-114"/>
      <use x="608.064453" xlink:href="#DejaVuSans-114"/>
      <use x="646.927734" xlink:href="#DejaVuSans-111"/>
      <use x="708.109375" xlink:href="#DejaVuSans-114"/>
      <use x="749.222656" xlink:href="#DejaVuSans-115"/>
      <use x="801.322266" xlink:href="#DejaVuSans-95"/>
      <use x="851.322266" xlink:href="#DejaVuSans-112"/>
      <use x="914.798828" xlink:href="#DejaVuSans-101"/>
      <use x="976.322266" xlink:href="#DejaVuSans-110"/>
      <use x="1039.701172" xlink:href="#DejaVuSans-97"/>
      <use x="1100.980469" xlink:href="#DejaVuSans-108"/>
      <use x="1128.763672" xlink:href="#DejaVuSans-105"/>
      <use x="1156.546875" xlink:href="#DejaVuSans-122"/>
      <use x="1209.037109" xlink:href="#DejaVuSans-101"/>
      <use x="1270.560547" xlink:href="#DejaVuSans-100"/>
     </g>
    </g>
   </g>
  </g>
 </g>
 <defs>
  <clipPath id="p38aa8b0c3e">
   <rect height="166.32" width="390.6" x="63" y="25.92"/>
  </clipPath>
 </defs>
</svg>
