<?xml version="1.0" encoding="utf-8" standalone="no"?>
<!DOCTYPE svg PUBLIC "-//W3C//DTD SVG 1.1//EN"
  "http://www.w3.org/Graphics/SVG/1.1/DTD/svg11.dtd">
<!-- Created with matplotlib (https://matplotlib.org/) -->
<svg height="216pt" version="1.1" viewBox="0 0 504 216" width="504pt" xmlns="http://www.w3.org/2000/svg" xmlns:xlink="http://www.w3.org/1999/xlink">
 <metadata>
  <rdf:RDF xmlns:cc="http://creativecommons.org/ns#" xmlns:dc="http://purl.org/dc/elements/1.1/" xmlns:rdf="http://www.w3.org/1999/02/22-rdf-syntax-ns#">
   <cc:Work>
    <dc:type rdf:resource="http://purl.org/dc/dcmitype/StillImage"/>
    <dc:date>2021-11-26T09:53:03.289029</dc:date>
    <dc:format>image/svg+xml</dc:format>
    <dc:creator>
     <cc:Agent>
      <dc:title>Matplotlib v3.3.4, https://matplotlib.org/</dc:title>
     </cc:Agent>
    </dc:creator>
   </cc:Work>
  </rdf:RDF>
 </metadata>
 <defs>
  <style type="text/css">*{stroke-linecap:butt;stroke-linejoin:round;}</style>
 </defs>
 <g id="figure_1">
  <g id="patch_1">
   <path d="M 0 216 
L 504 216 
L 504 0 
L 0 0 
z
" style="fill:#ffffff;"/>
  </g>
  <g id="axes_1">
   <g id="patch_2">
    <path d="M 63 192.24 
L 453.6 192.24 
L 453.6 25.92 
L 63 25.92 
z
" style="fill:#ffffff;"/>
   </g>
   <g id="matplotlib.axis_1">
    <g id="xtick_1">
     <g id="line2d_1">
      <defs>
       <path d="M 0 0 
L 0 3.5 
" id="m7b8424e771" style="stroke:#000000;stroke-width:0.8;"/>
      </defs>
      <g>
       <use style="stroke:#000000;stroke-width:0.8;" x="79.862357" xlink:href="#m7b8424e771" y="192.24"/>
      </g>
     </g>
     <g id="text_1">
      <!-- 400 -->
      <g transform="translate(70.318607 206.838437)scale(0.1 -0.1)">
       <defs>
        <path d="M 37.796875 64.3125 
L 12.890625 25.390625 
L 37.796875 25.390625 
z
M 35.203125 72.90625 
L 47.609375 72.90625 
L 47.609375 25.390625 
L 58.015625 25.390625 
L 58.015625 17.1875 
L 47.609375 17.1875 
L 47.609375 0 
L 37.796875 0 
L 37.796875 17.1875 
L 4.890625 17.1875 
L 4.890625 26.703125 
z
" id="DejaVuSans-52"/>
        <path d="M 31.78125 66.40625 
Q 24.171875 66.40625 20.328125 58.90625 
Q 16.5 51.421875 16.5 36.375 
Q 16.5 21.390625 20.328125 13.890625 
Q 24.171875 6.390625 31.78125 6.390625 
Q 39.453125 6.390625 43.28125 13.890625 
Q 47.125 21.390625 47.125 36.375 
Q 47.125 51.421875 43.28125 58.90625 
Q 39.453125 66.40625 31.78125 66.40625 
z
M 31.78125 74.21875 
Q 44.046875 74.21875 50.515625 64.515625 
Q 56.984375 54.828125 56.984375 36.375 
Q 56.984375 17.96875 50.515625 8.265625 
Q 44.046875 -1.421875 31.78125 -1.421875 
Q 19.53125 -1.421875 13.0625 8.265625 
Q 6.59375 17.96875 6.59375 36.375 
Q 6.59375 54.828125 13.0625 64.515625 
Q 19.53125 74.21875 31.78125 74.21875 
z
" id="DejaVuSans-48"/>
       </defs>
       <use xlink:href="#DejaVuSans-52"/>
       <use x="63.623047" xlink:href="#DejaVuSans-48"/>
       <use x="127.246094" xlink:href="#DejaVuSans-48"/>
      </g>
     </g>
    </g>
    <g id="xtick_2">
     <g id="line2d_2">
      <g>
       <use style="stroke:#000000;stroke-width:0.8;" x="124.471768" xlink:href="#m7b8424e771" y="192.24"/>
      </g>
     </g>
     <g id="text_2">
      <!-- 450 -->
      <g transform="translate(114.928018 206.838437)scale(0.1 -0.1)">
       <defs>
        <path d="M 10.796875 72.90625 
L 49.515625 72.90625 
L 49.515625 64.59375 
L 19.828125 64.59375 
L 19.828125 46.734375 
Q 21.96875 47.46875 24.109375 47.828125 
Q 26.265625 48.1875 28.421875 48.1875 
Q 40.625 48.1875 47.75 41.5 
Q 54.890625 34.8125 54.890625 23.390625 
Q 54.890625 11.625 47.5625 5.09375 
Q 40.234375 -1.421875 26.90625 -1.421875 
Q 22.3125 -1.421875 17.546875 -0.640625 
Q 12.796875 0.140625 7.71875 1.703125 
L 7.71875 11.625 
Q 12.109375 9.234375 16.796875 8.0625 
Q 21.484375 6.890625 26.703125 6.890625 
Q 35.15625 6.890625 40.078125 11.328125 
Q 45.015625 15.765625 45.015625 23.390625 
Q 45.015625 31 40.078125 35.4375 
Q 35.15625 39.890625 26.703125 39.890625 
Q 22.75 39.890625 18.8125 39.015625 
Q 14.890625 38.140625 10.796875 36.28125 
z
" id="DejaVuSans-53"/>
       </defs>
       <use xlink:href="#DejaVuSans-52"/>
       <use x="63.623047" xlink:href="#DejaVuSans-53"/>
       <use x="127.246094" xlink:href="#DejaVuSans-48"/>
      </g>
     </g>
    </g>
    <g id="xtick_3">
     <g id="line2d_3">
      <g>
       <use style="stroke:#000000;stroke-width:0.8;" x="169.081179" xlink:href="#m7b8424e771" y="192.24"/>
      </g>
     </g>
     <g id="text_3">
      <!-- 500 -->
      <g transform="translate(159.537429 206.838437)scale(0.1 -0.1)">
       <use xlink:href="#DejaVuSans-53"/>
       <use x="63.623047" xlink:href="#DejaVuSans-48"/>
       <use x="127.246094" xlink:href="#DejaVuSans-48"/>
      </g>
     </g>
    </g>
    <g id="xtick_4">
     <g id="line2d_4">
      <g>
       <use style="stroke:#000000;stroke-width:0.8;" x="213.690589" xlink:href="#m7b8424e771" y="192.24"/>
      </g>
     </g>
     <g id="text_4">
      <!-- 550 -->
      <g transform="translate(204.146839 206.838437)scale(0.1 -0.1)">
       <use xlink:href="#DejaVuSans-53"/>
       <use x="63.623047" xlink:href="#DejaVuSans-53"/>
       <use x="127.246094" xlink:href="#DejaVuSans-48"/>
      </g>
     </g>
    </g>
    <g id="xtick_5">
     <g id="line2d_5">
      <g>
       <use style="stroke:#000000;stroke-width:0.8;" x="258.3" xlink:href="#m7b8424e771" y="192.24"/>
      </g>
     </g>
     <g id="text_5">
      <!-- 600 -->
      <g transform="translate(248.75625 206.838437)scale(0.1 -0.1)">
       <defs>
        <path d="M 33.015625 40.375 
Q 26.375 40.375 22.484375 35.828125 
Q 18.609375 31.296875 18.609375 23.390625 
Q 18.609375 15.53125 22.484375 10.953125 
Q 26.375 6.390625 33.015625 6.390625 
Q 39.65625 6.390625 43.53125 10.953125 
Q 47.40625 15.53125 47.40625 23.390625 
Q 47.40625 31.296875 43.53125 35.828125 
Q 39.65625 40.375 33.015625 40.375 
z
M 52.59375 71.296875 
L 52.59375 62.3125 
Q 48.875 64.0625 45.09375 64.984375 
Q 41.3125 65.921875 37.59375 65.921875 
Q 27.828125 65.921875 22.671875 59.328125 
Q 17.53125 52.734375 16.796875 39.40625 
Q 19.671875 43.65625 24.015625 45.921875 
Q 28.375 48.1875 33.59375 48.1875 
Q 44.578125 48.1875 50.953125 41.515625 
Q 57.328125 34.859375 57.328125 23.390625 
Q 57.328125 12.15625 50.6875 5.359375 
Q 44.046875 -1.421875 33.015625 -1.421875 
Q 20.359375 -1.421875 13.671875 8.265625 
Q 6.984375 17.96875 6.984375 36.375 
Q 6.984375 53.65625 15.1875 63.9375 
Q 23.390625 74.21875 37.203125 74.21875 
Q 40.921875 74.21875 44.703125 73.484375 
Q 48.484375 72.75 52.59375 71.296875 
z
" id="DejaVuSans-54"/>
       </defs>
       <use xlink:href="#DejaVuSans-54"/>
       <use x="63.623047" xlink:href="#DejaVuSans-48"/>
       <use x="127.246094" xlink:href="#DejaVuSans-48"/>
      </g>
     </g>
    </g>
    <g id="xtick_6">
     <g id="line2d_6">
      <g>
       <use style="stroke:#000000;stroke-width:0.8;" x="302.909411" xlink:href="#m7b8424e771" y="192.24"/>
      </g>
     </g>
     <g id="text_6">
      <!-- 650 -->
      <g transform="translate(293.365661 206.838437)scale(0.1 -0.1)">
       <use xlink:href="#DejaVuSans-54"/>
       <use x="63.623047" xlink:href="#DejaVuSans-53"/>
       <use x="127.246094" xlink:href="#DejaVuSans-48"/>
      </g>
     </g>
    </g>
    <g id="xtick_7">
     <g id="line2d_7">
      <g>
       <use style="stroke:#000000;stroke-width:0.8;" x="347.518821" xlink:href="#m7b8424e771" y="192.24"/>
      </g>
     </g>
     <g id="text_7">
      <!-- 700 -->
      <g transform="translate(337.975071 206.838437)scale(0.1 -0.1)">
       <defs>
        <path d="M 8.203125 72.90625 
L 55.078125 72.90625 
L 55.078125 68.703125 
L 28.609375 0 
L 18.3125 0 
L 43.21875 64.59375 
L 8.203125 64.59375 
z
" id="DejaVuSans-55"/>
       </defs>
       <use xlink:href="#DejaVuSans-55"/>
       <use x="63.623047" xlink:href="#DejaVuSans-48"/>
       <use x="127.246094" xlink:href="#DejaVuSans-48"/>
      </g>
     </g>
    </g>
    <g id="xtick_8">
     <g id="line2d_8">
      <g>
       <use style="stroke:#000000;stroke-width:0.8;" x="392.128232" xlink:href="#m7b8424e771" y="192.24"/>
      </g>
     </g>
     <g id="text_8">
      <!-- 750 -->
      <g transform="translate(382.584482 206.838437)scale(0.1 -0.1)">
       <use xlink:href="#DejaVuSans-55"/>
       <use x="63.623047" xlink:href="#DejaVuSans-53"/>
       <use x="127.246094" xlink:href="#DejaVuSans-48"/>
      </g>
     </g>
    </g>
    <g id="xtick_9">
     <g id="line2d_9">
      <g>
       <use style="stroke:#000000;stroke-width:0.8;" x="436.737643" xlink:href="#m7b8424e771" y="192.24"/>
      </g>
     </g>
     <g id="text_9">
      <!-- 800 -->
      <g transform="translate(427.193893 206.838437)scale(0.1 -0.1)">
       <defs>
        <path d="M 31.78125 34.625 
Q 24.75 34.625 20.71875 30.859375 
Q 16.703125 27.09375 16.703125 20.515625 
Q 16.703125 13.921875 20.71875 10.15625 
Q 24.75 6.390625 31.78125 6.390625 
Q 38.8125 6.390625 42.859375 10.171875 
Q 46.921875 13.96875 46.921875 20.515625 
Q 46.921875 27.09375 42.890625 30.859375 
Q 38.875 34.625 31.78125 34.625 
z
M 21.921875 38.8125 
Q 15.578125 40.375 12.03125 44.71875 
Q 8.5 49.078125 8.5 55.328125 
Q 8.5 64.0625 14.71875 69.140625 
Q 20.953125 74.21875 31.78125 74.21875 
Q 42.671875 74.21875 48.875 69.140625 
Q 55.078125 64.0625 55.078125 55.328125 
Q 55.078125 49.078125 51.53125 44.71875 
Q 48 40.375 41.703125 38.8125 
Q 48.828125 37.15625 52.796875 32.3125 
Q 56.78125 27.484375 56.78125 20.515625 
Q 56.78125 9.90625 50.3125 4.234375 
Q 43.84375 -1.421875 31.78125 -1.421875 
Q 19.734375 -1.421875 13.25 4.234375 
Q 6.78125 9.90625 6.78125 20.515625 
Q 6.78125 27.484375 10.78125 32.3125 
Q 14.796875 37.15625 21.921875 38.8125 
z
M 18.3125 54.390625 
Q 18.3125 48.734375 21.84375 45.5625 
Q 25.390625 42.390625 31.78125 42.390625 
Q 38.140625 42.390625 41.71875 45.5625 
Q 45.3125 48.734375 45.3125 54.390625 
Q 45.3125 60.0625 41.71875 63.234375 
Q 38.140625 66.40625 31.78125 66.40625 
Q 25.390625 66.40625 21.84375 63.234375 
Q 18.3125 60.0625 18.3125 54.390625 
z
" id="DejaVuSans-56"/>
       </defs>
       <use xlink:href="#DejaVuSans-56"/>
       <use x="63.623047" xlink:href="#DejaVuSans-48"/>
       <use x="127.246094" xlink:href="#DejaVuSans-48"/>
      </g>
     </g>
    </g>
    <g id="text_10">
     <!-- time -->
     <g transform="translate(247.003906 220.516562)scale(0.1 -0.1)">
      <defs>
       <path d="M 18.3125 70.21875 
L 18.3125 54.6875 
L 36.8125 54.6875 
L 36.8125 47.703125 
L 18.3125 47.703125 
L 18.3125 18.015625 
Q 18.3125 11.328125 20.140625 9.421875 
Q 21.96875 7.515625 27.59375 7.515625 
L 36.8125 7.515625 
L 36.8125 0 
L 27.59375 0 
Q 17.1875 0 13.234375 3.875 
Q 9.28125 7.765625 9.28125 18.015625 
L 9.28125 47.703125 
L 2.6875 47.703125 
L 2.6875 54.6875 
L 9.28125 54.6875 
L 9.28125 70.21875 
z
" id="DejaVuSans-116"/>
       <path d="M 9.421875 54.6875 
L 18.40625 54.6875 
L 18.40625 0 
L 9.421875 0 
z
M 9.421875 75.984375 
L 18.40625 75.984375 
L 18.40625 64.59375 
L 9.421875 64.59375 
z
" id="DejaVuSans-105"/>
       <path d="M 52 44.1875 
Q 55.375 50.25 60.0625 53.125 
Q 64.75 56 71.09375 56 
Q 79.640625 56 84.28125 50.015625 
Q 88.921875 44.046875 88.921875 33.015625 
L 88.921875 0 
L 79.890625 0 
L 79.890625 32.71875 
Q 79.890625 40.578125 77.09375 44.375 
Q 74.3125 48.1875 68.609375 48.1875 
Q 61.625 48.1875 57.5625 43.546875 
Q 53.515625 38.921875 53.515625 30.90625 
L 53.515625 0 
L 44.484375 0 
L 44.484375 32.71875 
Q 44.484375 40.625 41.703125 44.40625 
Q 38.921875 48.1875 33.109375 48.1875 
Q 26.21875 48.1875 22.15625 43.53125 
Q 18.109375 38.875 18.109375 30.90625 
L 18.109375 0 
L 9.078125 0 
L 9.078125 54.6875 
L 18.109375 54.6875 
L 18.109375 46.1875 
Q 21.1875 51.21875 25.484375 53.609375 
Q 29.78125 56 35.6875 56 
Q 41.65625 56 45.828125 52.96875 
Q 50 49.953125 52 44.1875 
z
" id="DejaVuSans-109"/>
       <path d="M 56.203125 29.59375 
L 56.203125 25.203125 
L 14.890625 25.203125 
Q 15.484375 15.921875 20.484375 11.0625 
Q 25.484375 6.203125 34.421875 6.203125 
Q 39.59375 6.203125 44.453125 7.46875 
Q 49.3125 8.734375 54.109375 11.28125 
L 54.109375 2.78125 
Q 49.265625 0.734375 44.1875 -0.34375 
Q 39.109375 -1.421875 33.890625 -1.421875 
Q 20.796875 -1.421875 13.15625 6.1875 
Q 5.515625 13.8125 5.515625 26.8125 
Q 5.515625 40.234375 12.765625 48.109375 
Q 20.015625 56 32.328125 56 
Q 43.359375 56 49.78125 48.890625 
Q 56.203125 41.796875 56.203125 29.59375 
z
M 47.21875 32.234375 
Q 47.125 39.59375 43.09375 43.984375 
Q 39.0625 48.390625 32.421875 48.390625 
Q 24.90625 48.390625 20.390625 44.140625 
Q 15.875 39.890625 15.1875 32.171875 
z
" id="DejaVuSans-101"/>
      </defs>
      <use xlink:href="#DejaVuSans-116"/>
      <use x="39.208984" xlink:href="#DejaVuSans-105"/>
      <use x="66.992188" xlink:href="#DejaVuSans-109"/>
      <use x="164.404297" xlink:href="#DejaVuSans-101"/>
     </g>
    </g>
   </g>
   <g id="matplotlib.axis_2">
    <g id="ytick_1">
     <g id="line2d_10">
      <defs>
       <path d="M 0 0 
L -3.5 0 
" id="m84068ec3b2" style="stroke:#000000;stroke-width:0.8;"/>
      </defs>
      <g>
       <use style="stroke:#000000;stroke-width:0.8;" x="63" xlink:href="#m84068ec3b2" y="172.797017"/>
      </g>
     </g>
     <g id="text_11">
      <!-- 2.7 -->
      <g transform="translate(40.096875 176.596236)scale(0.1 -0.1)">
       <defs>
        <path d="M 19.1875 8.296875 
L 53.609375 8.296875 
L 53.609375 0 
L 7.328125 0 
L 7.328125 8.296875 
Q 12.9375 14.109375 22.625 23.890625 
Q 32.328125 33.6875 34.8125 36.53125 
Q 39.546875 41.84375 41.421875 45.53125 
Q 43.3125 49.21875 43.3125 52.78125 
Q 43.3125 58.59375 39.234375 62.25 
Q 35.15625 65.921875 28.609375 65.921875 
Q 23.96875 65.921875 18.8125 64.3125 
Q 13.671875 62.703125 7.8125 59.421875 
L 7.8125 69.390625 
Q 13.765625 71.78125 18.9375 73 
Q 24.125 74.21875 28.421875 74.21875 
Q 39.75 74.21875 46.484375 68.546875 
Q 53.21875 62.890625 53.21875 53.421875 
Q 53.21875 48.921875 51.53125 44.890625 
Q 49.859375 40.875 45.40625 35.40625 
Q 44.1875 33.984375 37.640625 27.21875 
Q 31.109375 20.453125 19.1875 8.296875 
z
" id="DejaVuSans-50"/>
        <path d="M 10.6875 12.40625 
L 21 12.40625 
L 21 0 
L 10.6875 0 
z
" id="DejaVuSans-46"/>
       </defs>
       <use xlink:href="#DejaVuSans-50"/>
       <use x="63.623047" xlink:href="#DejaVuSans-46"/>
       <use x="95.410156" xlink:href="#DejaVuSans-55"/>
      </g>
     </g>
    </g>
    <g id="ytick_2">
     <g id="line2d_11">
      <g>
       <use style="stroke:#000000;stroke-width:0.8;" x="63" xlink:href="#m84068ec3b2" y="151.255055"/>
      </g>
     </g>
     <g id="text_12">
      <!-- 2.8 -->
      <g transform="translate(40.096875 155.054274)scale(0.1 -0.1)">
       <use xlink:href="#DejaVuSans-50"/>
       <use x="63.623047" xlink:href="#DejaVuSans-46"/>
       <use x="95.410156" xlink:href="#DejaVuSans-56"/>
      </g>
     </g>
    </g>
    <g id="ytick_3">
     <g id="line2d_12">
      <g>
       <use style="stroke:#000000;stroke-width:0.8;" x="63" xlink:href="#m84068ec3b2" y="129.713093"/>
      </g>
     </g>
     <g id="text_13">
      <!-- 2.9 -->
      <g transform="translate(40.096875 133.512312)scale(0.1 -0.1)">
       <defs>
        <path d="M 10.984375 1.515625 
L 10.984375 10.5 
Q 14.703125 8.734375 18.5 7.8125 
Q 22.3125 6.890625 25.984375 6.890625 
Q 35.75 6.890625 40.890625 13.453125 
Q 46.046875 20.015625 46.78125 33.40625 
Q 43.953125 29.203125 39.59375 26.953125 
Q 35.25 24.703125 29.984375 24.703125 
Q 19.046875 24.703125 12.671875 31.3125 
Q 6.296875 37.9375 6.296875 49.421875 
Q 6.296875 60.640625 12.9375 67.421875 
Q 19.578125 74.21875 30.609375 74.21875 
Q 43.265625 74.21875 49.921875 64.515625 
Q 56.59375 54.828125 56.59375 36.375 
Q 56.59375 19.140625 48.40625 8.859375 
Q 40.234375 -1.421875 26.421875 -1.421875 
Q 22.703125 -1.421875 18.890625 -0.6875 
Q 15.09375 0.046875 10.984375 1.515625 
z
M 30.609375 32.421875 
Q 37.25 32.421875 41.125 36.953125 
Q 45.015625 41.5 45.015625 49.421875 
Q 45.015625 57.28125 41.125 61.84375 
Q 37.25 66.40625 30.609375 66.40625 
Q 23.96875 66.40625 20.09375 61.84375 
Q 16.21875 57.28125 16.21875 49.421875 
Q 16.21875 41.5 20.09375 36.953125 
Q 23.96875 32.421875 30.609375 32.421875 
z
" id="DejaVuSans-57"/>
       </defs>
       <use xlink:href="#DejaVuSans-50"/>
       <use x="63.623047" xlink:href="#DejaVuSans-46"/>
       <use x="95.410156" xlink:href="#DejaVuSans-57"/>
      </g>
     </g>
    </g>
    <g id="ytick_4">
     <g id="line2d_13">
      <g>
       <use style="stroke:#000000;stroke-width:0.8;" x="63" xlink:href="#m84068ec3b2" y="108.17113"/>
      </g>
     </g>
     <g id="text_14">
      <!-- 3.0 -->
      <g transform="translate(40.096875 111.970349)scale(0.1 -0.1)">
       <defs>
        <path d="M 40.578125 39.3125 
Q 47.65625 37.796875 51.625 33 
Q 55.609375 28.21875 55.609375 21.1875 
Q 55.609375 10.40625 48.1875 4.484375 
Q 40.765625 -1.421875 27.09375 -1.421875 
Q 22.515625 -1.421875 17.65625 -0.515625 
Q 12.796875 0.390625 7.625 2.203125 
L 7.625 11.71875 
Q 11.71875 9.328125 16.59375 8.109375 
Q 21.484375 6.890625 26.8125 6.890625 
Q 36.078125 6.890625 40.9375 10.546875 
Q 45.796875 14.203125 45.796875 21.1875 
Q 45.796875 27.640625 41.28125 31.265625 
Q 36.765625 34.90625 28.71875 34.90625 
L 20.21875 34.90625 
L 20.21875 43.015625 
L 29.109375 43.015625 
Q 36.375 43.015625 40.234375 45.921875 
Q 44.09375 48.828125 44.09375 54.296875 
Q 44.09375 59.90625 40.109375 62.90625 
Q 36.140625 65.921875 28.71875 65.921875 
Q 24.65625 65.921875 20.015625 65.03125 
Q 15.375 64.15625 9.8125 62.3125 
L 9.8125 71.09375 
Q 15.4375 72.65625 20.34375 73.4375 
Q 25.25 74.21875 29.59375 74.21875 
Q 40.828125 74.21875 47.359375 69.109375 
Q 53.90625 64.015625 53.90625 55.328125 
Q 53.90625 49.265625 50.4375 45.09375 
Q 46.96875 40.921875 40.578125 39.3125 
z
" id="DejaVuSans-51"/>
       </defs>
       <use xlink:href="#DejaVuSans-51"/>
       <use x="63.623047" xlink:href="#DejaVuSans-46"/>
       <use x="95.410156" xlink:href="#DejaVuSans-48"/>
      </g>
     </g>
    </g>
    <g id="ytick_5">
     <g id="line2d_14">
      <g>
       <use style="stroke:#000000;stroke-width:0.8;" x="63" xlink:href="#m84068ec3b2" y="86.629168"/>
      </g>
     </g>
     <g id="text_15">
      <!-- 3.1 -->
      <g transform="translate(40.096875 90.428387)scale(0.1 -0.1)">
       <defs>
        <path d="M 12.40625 8.296875 
L 28.515625 8.296875 
L 28.515625 63.921875 
L 10.984375 60.40625 
L 10.984375 69.390625 
L 28.421875 72.90625 
L 38.28125 72.90625 
L 38.28125 8.296875 
L 54.390625 8.296875 
L 54.390625 0 
L 12.40625 0 
z
" id="DejaVuSans-49"/>
       </defs>
       <use xlink:href="#DejaVuSans-51"/>
       <use x="63.623047" xlink:href="#DejaVuSans-46"/>
       <use x="95.410156" xlink:href="#DejaVuSans-49"/>
      </g>
     </g>
    </g>
    <g id="ytick_6">
     <g id="line2d_15">
      <g>
       <use style="stroke:#000000;stroke-width:0.8;" x="63" xlink:href="#m84068ec3b2" y="65.087206"/>
      </g>
     </g>
     <g id="text_16">
      <!-- 3.2 -->
      <g transform="translate(40.096875 68.886425)scale(0.1 -0.1)">
       <use xlink:href="#DejaVuSans-51"/>
       <use x="63.623047" xlink:href="#DejaVuSans-46"/>
       <use x="95.410156" xlink:href="#DejaVuSans-50"/>
      </g>
     </g>
    </g>
    <g id="ytick_7">
     <g id="line2d_16">
      <g>
       <use style="stroke:#000000;stroke-width:0.8;" x="63" xlink:href="#m84068ec3b2" y="43.545243"/>
      </g>
     </g>
     <g id="text_17">
      <!-- 3.3 -->
      <g transform="translate(40.096875 47.344462)scale(0.1 -0.1)">
       <use xlink:href="#DejaVuSans-51"/>
       <use x="63.623047" xlink:href="#DejaVuSans-46"/>
       <use x="95.410156" xlink:href="#DejaVuSans-51"/>
      </g>
     </g>
    </g>
    <g id="text_18">
     <!-- coef1 -->
     <g transform="translate(34.017187 122.906562)rotate(-90)scale(0.1 -0.1)">
      <defs>
       <path d="M 48.78125 52.59375 
L 48.78125 44.1875 
Q 44.96875 46.296875 41.140625 47.34375 
Q 37.3125 48.390625 33.40625 48.390625 
Q 24.65625 48.390625 19.8125 42.84375 
Q 14.984375 37.3125 14.984375 27.296875 
Q 14.984375 17.28125 19.8125 11.734375 
Q 24.65625 6.203125 33.40625 6.203125 
Q 37.3125 6.203125 41.140625 7.25 
Q 44.96875 8.296875 48.78125 10.40625 
L 48.78125 2.09375 
Q 45.015625 0.34375 40.984375 -0.53125 
Q 36.96875 -1.421875 32.421875 -1.421875 
Q 20.0625 -1.421875 12.78125 6.34375 
Q 5.515625 14.109375 5.515625 27.296875 
Q 5.515625 40.671875 12.859375 48.328125 
Q 20.21875 56 33.015625 56 
Q 37.15625 56 41.109375 55.140625 
Q 45.0625 54.296875 48.78125 52.59375 
z
" id="DejaVuSans-99"/>
       <path d="M 30.609375 48.390625 
Q 23.390625 48.390625 19.1875 42.75 
Q 14.984375 37.109375 14.984375 27.296875 
Q 14.984375 17.484375 19.15625 11.84375 
Q 23.34375 6.203125 30.609375 6.203125 
Q 37.796875 6.203125 41.984375 11.859375 
Q 46.1875 17.53125 46.1875 27.296875 
Q 46.1875 37.015625 41.984375 42.703125 
Q 37.796875 48.390625 30.609375 48.390625 
z
M 30.609375 56 
Q 42.328125 56 49.015625 48.375 
Q 55.71875 40.765625 55.71875 27.296875 
Q 55.71875 13.875 49.015625 6.21875 
Q 42.328125 -1.421875 30.609375 -1.421875 
Q 18.84375 -1.421875 12.171875 6.21875 
Q 5.515625 13.875 5.515625 27.296875 
Q 5.515625 40.765625 12.171875 48.375 
Q 18.84375 56 30.609375 56 
z
" id="DejaVuSans-111"/>
       <path d="M 37.109375 75.984375 
L 37.109375 68.5 
L 28.515625 68.5 
Q 23.6875 68.5 21.796875 66.546875 
Q 19.921875 64.59375 19.921875 59.515625 
L 19.921875 54.6875 
L 34.71875 54.6875 
L 34.71875 47.703125 
L 19.921875 47.703125 
L 19.921875 0 
L 10.890625 0 
L 10.890625 47.703125 
L 2.296875 47.703125 
L 2.296875 54.6875 
L 10.890625 54.6875 
L 10.890625 58.5 
Q 10.890625 67.625 15.140625 71.796875 
Q 19.390625 75.984375 28.609375 75.984375 
z
" id="DejaVuSans-102"/>
      </defs>
      <use xlink:href="#DejaVuSans-99"/>
      <use x="54.980469" xlink:href="#DejaVuSans-111"/>
      <use x="116.162109" xlink:href="#DejaVuSans-101"/>
      <use x="177.685547" xlink:href="#DejaVuSans-102"/>
      <use x="212.890625" xlink:href="#DejaVuSans-49"/>
     </g>
    </g>
   </g>
   <g id="line2d_17">
    <path clip-path="url(#p39b2ffc818)" d="M 80.754545 173.793514 
L 82.538922 174.118228 
L 83.43111 174.026224 
L 84.323298 174.376668 
L 86.107675 174.658626 
L 86.999863 174.365581 
L 87.892051 174.742079 
L 88.784239 174.900147 
L 89.676428 175.336319 
L 90.568616 175.386099 
L 92.352992 175.860446 
L 93.24518 175.088118 
L 94.137369 174.980605 
L 95.921745 174.426154 
L 96.813933 174.158321 
L 98.59831 174.407982 
L 99.490498 173.567666 
L 101.274874 173.150952 
L 102.167063 173.343412 
L 103.059251 173.0521 
L 103.951439 172.901377 
L 104.843627 172.928626 
L 105.735815 171.691113 
L 106.628004 171.089022 
L 107.520192 170.921571 
L 111.088945 169.73078 
L 111.981133 168.457786 
L 113.765509 167.263889 
L 114.657698 166.91728 
L 115.549886 166.312751 
L 116.442074 166.346137 
L 117.334262 165.972579 
L 118.22645 164.867221 
L 119.118639 164.552078 
L 120.010827 163.772766 
L 121.795203 163.018391 
L 122.687392 162.617033 
L 123.57958 162.338374 
L 124.471768 161.01369 
L 125.363956 160.390959 
L 126.256144 159.912378 
L 127.148333 159.565261 
L 128.040521 159.033457 
L 128.932709 158.763669 
L 129.824897 158.699746 
L 130.717085 157.537881 
L 131.609274 157.148939 
L 132.501462 157.018354 
L 134.285838 156.479728 
L 135.178026 156.215485 
L 136.070215 155.734251 
L 136.962403 154.56714 
L 137.854591 154.347777 
L 140.531156 152.380539 
L 141.423344 152.078444 
L 142.315532 151.911029 
L 143.20772 150.690437 
L 144.099909 149.867877 
L 144.992097 149.580227 
L 146.776473 148.280347 
L 147.668661 148.080998 
L 148.56085 147.707754 
L 149.453038 146.683879 
L 151.237414 145.402145 
L 154.806167 143.833185 
L 155.698355 142.80118 
L 158.37492 140.909 
L 161.051485 139.508862 
L 161.943673 138.527239 
L 163.728049 137.492895 
L 164.620238 136.615762 
L 167.296802 135.570892 
L 169.081179 134.030353 
L 169.973367 133.380905 
L 170.865555 132.894731 
L 171.757743 132.741294 
L 175.326496 130.38183 
L 176.218684 130.021745 
L 177.110873 130.013787 
L 178.003061 129.730342 
L 179.787437 128.891376 
L 180.679625 128.748896 
L 183.35619 127.354926 
L 184.248378 127.194856 
L 185.140566 126.858359 
L 186.032755 126.669238 
L 187.817131 125.733086 
L 190.493696 124.079596 
L 191.385884 123.760038 
L 192.278072 123.31966 
L 193.17026 123.038439 
L 197.631201 120.954957 
L 198.52339 120.853773 
L 205.660895 117.382215 
L 206.553084 116.62956 
L 207.445272 116.041781 
L 209.229648 115.216954 
L 210.121836 114.688632 
L 211.014025 114.418363 
L 211.906213 114.320967 
L 212.798401 113.676666 
L 213.690589 113.287277 
L 214.582778 113.195001 
L 215.474966 112.516377 
L 216.367154 112.216523 
L 217.259342 112.164385 
L 218.15153 111.562488 
L 222.612471 109.533693 
L 224.396848 108.800345 
L 225.289036 108.030317 
L 226.181224 107.550174 
L 227.965601 106.736255 
L 229.749977 106.002088 
L 230.642165 105.848414 
L 238.671859 102.082369 
L 239.564048 101.745432 
L 241.348424 100.658744 
L 242.240612 99.986273 
L 247.593741 97.534697 
L 248.48593 97.243598 
L 250.270306 96.19708 
L 251.162494 95.641574 
L 252.054683 95.241273 
L 252.946871 94.689324 
L 253.839059 94.333739 
L 255.623435 93.392862 
L 257.407812 92.505019 
L 260.084376 91.740642 
L 260.976565 91.511477 
L 261.868753 91.055192 
L 264.545317 90.049478 
L 265.437506 89.408987 
L 266.329694 89.117067 
L 267.221882 88.612235 
L 268.11407 88.2838 
L 269.006259 87.637908 
L 270.790635 86.904212 
L 271.682823 86.367324 
L 275.251576 84.839483 
L 277.928141 83.502722 
L 280.604705 82.446285 
L 281.496894 82.299714 
L 282.389082 81.766606 
L 283.28127 81.529184 
L 285.065646 80.581991 
L 286.850023 80.056709 
L 292.203152 77.959138 
L 293.09534 77.329656 
L 294.879717 76.704104 
L 295.771905 76.577394 
L 298.44847 75.417655 
L 299.340658 75.032986 
L 300.232846 74.942005 
L 302.017222 74.185934 
L 303.801599 73.272984 
L 305.585975 72.739339 
L 308.26254 72.139727 
L 309.154728 71.6897 
L 312.723481 70.457026 
L 313.615669 69.916476 
L 314.507857 69.753265 
L 316.292234 69.205331 
L 317.184422 69.104864 
L 318.07661 68.680243 
L 319.860987 68.302063 
L 321.645363 67.654488 
L 322.537551 67.528243 
L 324.321928 66.782393 
L 326.106304 66.027903 
L 326.998492 65.505657 
L 328.782869 64.782144 
L 329.675057 64.226169 
L 330.567245 64.06648 
L 331.459434 63.55742 
L 335.028186 62.29695 
L 335.920375 62.197435 
L 336.812563 61.850127 
L 337.704751 61.635821 
L 338.596939 61.247548 
L 340.381316 60.7022 
L 343.05788 59.938233 
L 343.950069 59.862919 
L 346.626633 58.665794 
L 348.41101 58.638407 
L 350.195386 57.804702 
L 351.979762 57.276795 
L 353.764139 57.06074 
L 354.656327 56.67826 
L 356.440704 56.068834 
L 358.22508 55.360071 
L 360.901645 54.140193 
L 361.793833 53.627066 
L 365.362586 52.341468 
L 367.146962 52.038044 
L 368.03915 51.652144 
L 371.607903 50.903995 
L 372.500091 50.405299 
L 373.39228 50.332492 
L 375.176656 49.87904 
L 376.068844 49.442109 
L 377.853221 48.953084 
L 380.529785 48.3338 
L 381.421974 48.410317 
L 382.314162 47.992445 
L 383.20635 47.781844 
L 384.098538 47.309028 
L 386.775103 46.646998 
L 387.667291 46.588214 
L 388.559479 46.142812 
L 390.343856 45.909945 
L 391.236044 45.6424 
L 392.128232 45.594092 
L 394.804797 44.886242 
L 395.696985 44.605885 
L 396.589173 44.739629 
L 399.265738 43.886012 
L 400.157926 43.996233 
L 401.942302 43.734499 
L 405.511055 42.614474 
L 406.403243 42.465806 
L 407.295432 42.20204 
L 408.18762 42.17333 
L 410.864185 40.893141 
L 411.756373 40.70585 
L 412.648561 40.235964 
L 418.00169 38.874664 
L 423.35482 36.993082 
L 429.600137 35.319954 
L 433.16889 34.189205 
L 434.953266 33.681636 
L 435.845455 33.48 
L 435.845455 33.48 
" style="fill:none;stroke:#1f77b4;stroke-linecap:square;stroke-width:1.5;"/>
   </g>
   <g id="line2d_18">
    <path clip-path="url(#p39b2ffc818)" d="M 80.754545 176.120277 
L 82.538922 175.918513 
L 83.43111 176.176289 
L 84.323298 176.087883 
L 85.215487 176.316764 
L 86.107675 176.223469 
L 87.892051 175.63189 
L 88.784239 175.857466 
L 89.676428 176.359563 
L 90.568616 176.687116 
L 91.460804 176.689708 
L 92.352992 177.049416 
L 94.137369 176.535624 
L 95.029557 176.303003 
L 95.921745 176.309082 
L 96.813933 176.604844 
L 98.59831 176.63338 
L 99.490498 175.953845 
L 101.274874 175.519776 
L 102.167063 175.437235 
L 104.843627 175.559838 
L 105.735815 175.000789 
L 106.628004 174.980361 
L 107.520192 174.808521 
L 110.196757 174.978503 
L 111.088945 175.292992 
L 111.981133 174.470158 
L 112.873321 174.288751 
L 113.765509 174.397851 
L 115.549886 174.184155 
L 117.334262 174.182519 
L 119.118639 173.610741 
L 120.010827 173.719166 
L 121.795203 173.519081 
L 122.687392 173.285549 
L 123.57958 172.926409 
L 127.148333 172.208335 
L 129.824897 172.093964 
L 130.717085 171.452379 
L 132.501462 171.067201 
L 133.39365 171.297046 
L 135.178026 171.067329 
L 136.070215 171.104733 
L 136.962403 170.714423 
L 141.423344 169.630836 
L 142.315532 169.602038 
L 144.992097 168.982646 
L 146.776473 168.541873 
L 148.56085 168.321087 
L 149.453038 167.733717 
L 150.345226 167.724108 
L 152.129603 166.906931 
L 153.021791 166.671233 
L 154.806167 166.693168 
L 155.698355 166.253338 
L 159.267108 165.55871 
L 160.159296 165.668304 
L 161.051485 165.550953 
L 161.943673 165.286738 
L 163.728049 165.121241 
L 165.512426 164.962646 
L 166.404614 164.761344 
L 167.296802 164.69004 
L 169.081179 164.163947 
L 172.649931 163.777032 
L 173.54212 163.692119 
L 174.434308 163.430544 
L 175.326496 162.952818 
L 176.218684 162.778146 
L 178.003061 162.658511 
L 180.679625 162.342718 
L 181.571814 161.920572 
L 182.464002 162.208734 
L 183.35619 161.745371 
L 184.248378 161.576517 
L 185.140566 161.644453 
L 186.924943 161.115169 
L 188.709319 160.180937 
L 190.493696 160.078181 
L 192.278072 159.99808 
L 194.062449 159.412612 
L 196.739013 159.372929 
L 197.631201 159.408754 
L 200.307766 158.719138 
L 201.199954 158.353824 
L 202.092143 158.412885 
L 202.984331 158.248248 
L 204.768707 158.164154 
L 205.660895 157.972836 
L 206.553084 157.625234 
L 207.445272 157.71872 
L 208.33746 157.447713 
L 210.121836 157.18146 
L 211.014025 157.042327 
L 211.906213 157.077743 
L 216.367154 156.331455 
L 217.259342 156.207779 
L 218.15153 156.254773 
L 219.043719 155.871086 
L 219.935907 155.657242 
L 220.828095 155.328761 
L 222.612471 155.102943 
L 223.50466 155.248639 
L 225.289036 154.700615 
L 227.073413 154.663626 
L 227.965601 154.463958 
L 229.749977 154.379167 
L 230.642165 154.102794 
L 232.426542 153.397075 
L 234.210918 152.981158 
L 235.103106 152.811821 
L 236.887483 152.704966 
L 239.564048 152.336531 
L 241.348424 152.278533 
L 242.240612 152.251532 
L 243.1328 151.937612 
L 244.024989 151.912996 
L 244.917177 151.764508 
L 245.809365 151.344185 
L 251.162494 150.090738 
L 252.054683 150.009601 
L 253.839059 149.54629 
L 254.731247 149.399181 
L 255.623435 149.444102 
L 256.515624 149.275714 
L 257.407812 149.373066 
L 260.976565 148.518866 
L 265.437506 148.238065 
L 266.329694 148.023422 
L 267.221882 147.649748 
L 268.11407 147.575531 
L 269.006259 147.633472 
L 271.682823 146.948751 
L 272.575011 146.875541 
L 273.4672 146.58555 
L 279.712517 145.831731 
L 280.604705 145.662917 
L 281.496894 145.66883 
L 282.389082 145.813469 
L 283.28127 145.488065 
L 285.065646 145.090026 
L 285.957835 145.093808 
L 286.850023 144.974007 
L 287.742211 144.65332 
L 289.526587 144.375694 
L 291.310964 143.960807 
L 293.09534 143.740635 
L 294.879717 143.427422 
L 296.664093 143.059879 
L 297.556281 143.142419 
L 298.44847 142.878084 
L 300.232846 142.818158 
L 301.125034 142.520899 
L 303.801599 142.19727 
L 304.693787 142.284253 
L 309.154728 141.898494 
L 310.939105 141.580091 
L 311.831293 141.592616 
L 314.507857 140.896569 
L 315.400046 140.512763 
L 316.292234 140.335056 
L 318.07661 139.842761 
L 318.968799 139.88547 
L 319.860987 139.635837 
L 321.645363 139.449125 
L 322.537551 139.485984 
L 323.42974 139.41006 
L 324.321928 139.622333 
L 326.998492 139.032894 
L 327.890681 139.018644 
L 329.675057 138.551805 
L 334.135998 138.113311 
L 335.920375 138.114088 
L 336.812563 138.001821 
L 338.596939 138.001128 
L 339.489127 137.981861 
L 341.273504 137.358069 
L 343.05788 137.183185 
L 344.842257 136.897379 
L 346.626633 136.645633 
L 347.518821 136.562121 
L 348.41101 136.645323 
L 350.195386 136.612227 
L 351.087574 136.25481 
L 351.979762 136.326957 
L 352.871951 136.256851 
L 354.656327 135.875101 
L 357.332892 135.508519 
L 359.117268 135.268162 
L 360.901645 135.136001 
L 365.362586 134.208075 
L 367.146962 134.002653 
L 368.931339 133.575247 
L 373.39228 133.012672 
L 375.176656 132.630907 
L 376.068844 132.614992 
L 376.961032 132.399313 
L 380.529785 132.142985 
L 381.421974 131.991593 
L 382.314162 131.973947 
L 383.20635 132.080215 
L 384.990726 131.80231 
L 386.775103 131.559533 
L 393.912608 131.152454 
L 394.804797 131.031553 
L 395.696985 131.16039 
L 398.37355 130.833998 
L 399.265738 130.780838 
L 400.157926 130.527669 
L 401.942302 130.336053 
L 403.726679 130.29122 
L 406.403243 129.85404 
L 408.18762 129.747905 
L 409.971996 129.415466 
L 411.756373 129.339461 
L 414.432937 128.779155 
L 415.325126 128.789897 
L 416.217314 128.527826 
L 418.893878 128.330452 
L 421.570443 128.121661 
L 422.462631 127.915598 
L 435.845455 126.83626 
L 435.845455 126.83626 
" style="fill:none;stroke:#ff7f0e;stroke-linecap:square;stroke-width:1.5;"/>
   </g>
   <g id="line2d_19">
    <path clip-path="url(#p39b2ffc818)" d="M 80.754545 178.088738 
L 81.646734 178.129398 
L 82.538922 178.420033 
L 84.323298 178.679096 
L 86.107675 179.048785 
L 86.999863 178.961702 
L 88.784239 179.352328 
L 89.676428 179.153892 
L 91.460804 179.920023 
L 92.352992 180.014921 
L 93.24518 179.080906 
L 95.029557 178.587706 
L 96.813933 178.713837 
L 97.706122 179.084716 
L 98.59831 179.031835 
L 99.490498 177.8321 
L 100.382686 177.845141 
L 103.059251 177.151488 
L 103.951439 176.804751 
L 104.843627 176.636923 
L 105.735815 175.404086 
L 106.628004 175.239681 
L 107.520192 174.902928 
L 108.41238 174.948051 
L 109.304568 174.439124 
L 110.196757 174.211174 
L 111.088945 174.202765 
L 111.981133 172.943147 
L 114.657698 171.93469 
L 117.334262 171.171377 
L 118.22645 169.783395 
L 120.903015 168.492388 
L 121.795203 168.388131 
L 122.687392 167.959224 
L 123.57958 167.815852 
L 124.471768 166.716457 
L 127.148333 165.286881 
L 128.040521 165.337327 
L 128.932709 164.66917 
L 129.824897 164.23295 
L 130.717085 163.048201 
L 131.609274 162.369102 
L 133.39365 161.636187 
L 134.285838 161.63893 
L 135.178026 161.212263 
L 136.070215 161.002649 
L 136.962403 159.961301 
L 141.423344 157.510249 
L 142.315532 157.436975 
L 143.20772 155.752837 
L 144.099909 154.96504 
L 145.884285 153.924313 
L 147.668661 153.407846 
L 148.56085 152.961116 
L 150.345226 151.372784 
L 151.237414 150.632556 
L 153.021791 149.566066 
L 153.913979 148.74878 
L 154.806167 148.236607 
L 155.698355 147.297943 
L 156.590544 147.053418 
L 158.37492 145.636203 
L 161.051485 144.057296 
L 161.943673 142.849923 
L 162.835861 142.231521 
L 166.404614 140.42502 
L 167.296802 140.08011 
L 170.865555 137.95579 
L 173.54212 136.972629 
L 176.218684 135.12566 
L 177.110873 134.466315 
L 181.571814 132.104791 
L 182.464002 131.887326 
L 183.35619 131.227157 
L 184.248378 131.070193 
L 186.032755 130.491006 
L 187.817131 129.100679 
L 189.601508 128.069935 
L 190.493696 127.492363 
L 193.17026 126.350302 
L 194.954637 125.105077 
L 197.631201 124.364595 
L 199.415578 123.636216 
L 200.307766 122.993671 
L 201.199954 122.607978 
L 202.092143 122.378057 
L 202.984331 121.982246 
L 203.876519 121.433378 
L 205.660895 120.69926 
L 206.553084 120.15871 
L 207.445272 120.021956 
L 209.229648 119.077198 
L 211.906213 118.240374 
L 213.690589 117.022293 
L 214.582778 116.715322 
L 216.367154 115.444843 
L 218.15153 114.953754 
L 219.043719 114.487127 
L 219.935907 114.201521 
L 220.828095 113.447164 
L 221.720283 112.937899 
L 222.612471 112.639569 
L 223.50466 112.20806 
L 224.396848 112.088118 
L 225.289036 111.414249 
L 226.181224 110.91317 
L 227.965601 110.097993 
L 229.749977 109.258656 
L 230.642165 109.029536 
L 234.210918 107.229767 
L 235.995295 105.994504 
L 236.887483 105.711606 
L 238.671859 104.816397 
L 239.564048 104.376798 
L 240.456236 103.731862 
L 241.348424 103.386517 
L 242.240612 102.719266 
L 243.1328 102.557793 
L 244.024989 102.273746 
L 244.917177 101.664325 
L 247.593741 100.709914 
L 249.378118 99.831822 
L 251.162494 98.685571 
L 252.054683 98.110875 
L 252.946871 97.735129 
L 253.839059 97.609795 
L 254.731247 96.991157 
L 256.515624 96.45232 
L 259.192188 94.973079 
L 260.084376 94.478411 
L 260.976565 94.13555 
L 263.653129 92.743148 
L 264.545317 92.640955 
L 266.329694 91.820695 
L 267.221882 91.568058 
L 269.006259 90.3547 
L 269.898447 89.888813 
L 270.790635 89.611707 
L 271.682823 88.964274 
L 274.359388 88.206274 
L 276.143764 87.535779 
L 279.712517 86.331912 
L 281.496894 85.991549 
L 282.389082 85.72248 
L 283.28127 85.161662 
L 285.065646 84.639723 
L 287.742211 83.351686 
L 288.634399 83.227468 
L 289.526587 82.955289 
L 291.310964 82.053541 
L 292.203152 82.021503 
L 293.09534 81.466777 
L 298.44847 79.476261 
L 300.232846 79.125991 
L 302.017222 78.294319 
L 302.909411 77.695475 
L 304.693787 76.971053 
L 305.585975 76.869204 
L 308.26254 75.722936 
L 312.723481 74.351234 
L 314.507857 73.537413 
L 315.400046 73.128837 
L 317.184422 72.862408 
L 320.753175 71.648935 
L 321.645363 71.703024 
L 323.42974 71.102827 
L 326.998492 69.895674 
L 327.890681 69.788557 
L 330.567245 68.580381 
L 331.459434 68.384815 
L 332.351622 68.012986 
L 333.24381 67.867519 
L 335.920375 66.821426 
L 337.704751 66.635233 
L 338.596939 66.28853 
L 339.489127 66.187287 
L 342.165692 65.226271 
L 343.950069 65.045451 
L 345.734445 64.59545 
L 346.626633 64.648947 
L 348.41101 64.278694 
L 349.303198 64.243779 
L 350.195386 63.791481 
L 351.979762 63.283756 
L 358.22508 61.328165 
L 360.009456 60.807818 
L 361.793833 60.063458 
L 364.470397 59.228692 
L 365.362586 59.273038 
L 366.254774 58.902302 
L 367.146962 58.752717 
L 368.931339 58.015826 
L 369.823527 57.688458 
L 372.500091 57.22159 
L 373.39228 56.907217 
L 374.284468 56.790108 
L 375.176656 56.844049 
L 376.068844 56.481473 
L 376.961032 56.301509 
L 378.745409 55.536081 
L 384.990726 54.034576 
L 385.882915 54.170398 
L 386.775103 54.04381 
L 392.128232 52.105181 
L 393.02042 51.932973 
L 393.912608 51.644957 
L 394.804797 51.675656 
L 397.481361 50.740775 
L 398.37355 50.676333 
L 399.265738 50.27929 
L 401.942302 49.58237 
L 402.834491 49.09231 
L 403.726679 48.755304 
L 408.18762 47.755899 
L 409.079808 47.433774 
L 410.864185 47.3033 
L 417.109502 45.749737 
L 418.00169 45.43166 
L 422.462631 44.4734 
L 423.35482 44.166433 
L 424.247008 44.072437 
L 426.031384 43.723824 
L 426.923572 43.759441 
L 427.815761 43.178301 
L 428.707949 42.831082 
L 430.492325 42.417412 
L 432.276702 42.120427 
L 434.953266 41.514176 
L 435.845455 41.160565 
L 435.845455 41.160565 
" style="fill:none;stroke:#2ca02c;stroke-linecap:square;stroke-width:1.5;"/>
   </g>
   <g id="line2d_20">
    <path clip-path="url(#p39b2ffc818)" d="M 80.754545 184.092211 
L 82.538922 184.007038 
L 83.43111 183.833192 
L 84.323298 184.218685 
L 85.215487 184.103116 
L 86.107675 184.475802 
L 86.999863 184.179687 
L 88.784239 184.290867 
L 89.676428 184.620212 
L 91.460804 184.655295 
L 92.352992 184.573424 
L 93.24518 183.812251 
L 94.137369 183.576772 
L 95.921745 183.536959 
L 96.813933 183.765906 
L 98.59831 183.816113 
L 99.490498 183.019143 
L 100.382686 182.905539 
L 102.167063 182.350285 
L 103.059251 182.36419 
L 103.951439 182.587297 
L 104.843627 182.381018 
L 105.735815 180.964436 
L 106.628004 180.371886 
L 107.520192 180.001461 
L 108.41238 179.886174 
L 110.196757 179.299909 
L 111.088945 179.215758 
L 111.981133 177.849893 
L 112.873321 177.510972 
L 113.765509 177.465513 
L 114.657698 177.212587 
L 116.442074 177.108635 
L 117.334262 176.887316 
L 118.22645 175.417495 
L 119.118639 175.085418 
L 120.903015 175.051683 
L 121.795203 174.702881 
L 122.687392 174.533925 
L 123.57958 174.077671 
L 124.471768 173.034353 
L 125.363956 172.505091 
L 127.148333 172.0039 
L 128.040521 171.649309 
L 128.932709 171.554323 
L 129.824897 171.655692 
L 130.717085 170.845292 
L 133.39365 169.580876 
L 134.285838 168.967022 
L 136.070215 168.398085 
L 136.962403 167.268803 
L 137.854591 166.710188 
L 140.531156 165.564787 
L 141.423344 165.279454 
L 142.315532 165.340357 
L 143.20772 164.121307 
L 144.099909 163.756252 
L 148.56085 161.194829 
L 149.453038 160.250568 
L 150.345226 159.575755 
L 151.237414 159.314173 
L 152.129603 158.701907 
L 153.913979 157.736922 
L 154.806167 157.42277 
L 156.590544 156.058562 
L 157.482732 155.525898 
L 160.159296 154.564957 
L 161.051485 154.100612 
L 161.943673 153.298159 
L 167.296802 151.355945 
L 168.18899 150.755077 
L 169.081179 150.339347 
L 170.865555 149.181864 
L 171.757743 149.072208 
L 172.649931 148.63237 
L 175.326496 146.74041 
L 177.110873 146.282213 
L 178.003061 145.596484 
L 178.895249 145.086422 
L 179.787437 144.722601 
L 180.679625 144.226245 
L 181.571814 143.48827 
L 182.464002 143.113171 
L 187.817131 139.857337 
L 188.709319 139.202923 
L 191.385884 138.257521 
L 196.739013 135.07274 
L 197.631201 135.036909 
L 199.415578 134.089445 
L 201.199954 132.652973 
L 203.876519 131.024159 
L 206.553084 129.585385 
L 209.229648 128.511586 
L 211.906213 127.232761 
L 215.474966 126.089515 
L 217.259342 125.083287 
L 218.15153 124.837697 
L 219.043719 124.192683 
L 220.828095 123.313456 
L 221.720283 122.5623 
L 224.396848 121.415046 
L 225.289036 120.615212 
L 227.073413 119.671614 
L 227.965601 119.254418 
L 228.857789 119.089822 
L 231.534354 117.863512 
L 232.426542 117.281833 
L 233.31873 116.917001 
L 235.995295 115.337321 
L 236.887483 115.056513 
L 237.779671 114.564676 
L 238.671859 114.330665 
L 239.564048 113.84909 
L 241.348424 113.173206 
L 242.240612 112.452878 
L 249.378118 109.766652 
L 251.162494 109.220088 
L 252.946871 108.53205 
L 253.839059 108.285877 
L 254.731247 107.909841 
L 255.623435 107.68475 
L 256.515624 107.24256 
L 257.407812 106.611732 
L 259.192188 106.246094 
L 260.976565 105.113765 
L 261.868753 104.569695 
L 263.653129 104.009205 
L 266.329694 102.648146 
L 268.11407 102.064705 
L 271.682823 101.182418 
L 273.4672 100.372409 
L 274.359388 100.232637 
L 275.251576 99.777339 
L 276.143764 99.658373 
L 277.928141 98.802789 
L 278.820329 98.264086 
L 279.712517 97.923916 
L 280.604705 97.851328 
L 281.496894 97.56278 
L 282.389082 97.09211 
L 283.28127 96.820487 
L 285.065646 96.035331 
L 286.850023 95.874201 
L 288.634399 95.32242 
L 290.418776 94.781984 
L 291.310964 94.219801 
L 293.987529 93.258465 
L 294.879717 93.022562 
L 295.771905 92.534165 
L 296.664093 92.286479 
L 297.556281 91.634995 
L 299.340658 90.915294 
L 302.017222 89.886874 
L 304.693787 88.72831 
L 306.478164 88.112375 
L 307.370352 87.97312 
L 308.26254 87.580194 
L 309.154728 87.060442 
L 310.046916 86.970449 
L 311.831293 85.825606 
L 314.507857 84.989575 
L 315.400046 84.770002 
L 316.292234 84.247056 
L 318.07661 83.912198 
L 319.860987 83.311371 
L 320.753175 83.173092 
L 324.321928 81.41375 
L 326.106304 80.789595 
L 327.890681 79.968706 
L 331.459434 78.611688 
L 334.135998 77.950625 
L 335.028186 77.704476 
L 336.812563 76.889478 
L 337.704751 76.799391 
L 340.381316 75.689783 
L 341.273504 75.556223 
L 343.05788 74.864864 
L 345.734445 73.847036 
L 347.518821 73.407168 
L 348.41101 73.032803 
L 349.303198 72.794859 
L 350.195386 72.414474 
L 351.979762 72.02199 
L 352.871951 71.77078 
L 353.764139 71.753001 
L 360.009456 69.766337 
L 362.686021 68.607877 
L 365.362586 67.688101 
L 371.607903 65.785361 
L 374.284468 65.107765 
L 375.176656 64.672744 
L 376.068844 64.375249 
L 376.961032 64.247589 
L 379.637597 63.376253 
L 381.421974 62.891333 
L 383.20635 62.225259 
L 385.882915 61.325324 
L 388.559479 60.757216 
L 389.451667 60.389017 
L 393.02042 59.613199 
L 396.589173 58.40822 
L 397.481361 58.317933 
L 399.265738 57.466742 
L 400.157926 57.091243 
L 401.942302 56.807572 
L 403.726679 56.018343 
L 404.618867 55.723255 
L 405.511055 55.610523 
L 409.079808 54.285431 
L 409.971996 54.197725 
L 410.864185 53.919839 
L 411.756373 53.901862 
L 412.648561 53.680575 
L 414.432937 52.88216 
L 415.325126 52.598471 
L 417.109502 52.260622 
L 418.00169 52.134726 
L 418.893878 51.880168 
L 419.786067 51.860649 
L 420.678255 51.628695 
L 422.462631 50.885868 
L 423.35482 50.681326 
L 425.139196 50.034106 
L 426.031384 49.872247 
L 426.923572 49.541164 
L 427.815761 49.348126 
L 428.707949 48.967394 
L 429.600137 48.730025 
L 431.384513 48.447443 
L 433.16889 48.011721 
L 434.061078 47.614272 
L 435.845455 47.129453 
L 435.845455 47.129453 
" style="fill:none;stroke:#d62728;stroke-linecap:square;stroke-width:1.5;"/>
   </g>
   <g id="line2d_21"/>
   <g id="line2d_22"/>
   <g id="line2d_23"/>
   <g id="line2d_24"/>
   <g id="patch_3">
    <path d="M 63 192.24 
L 63 25.92 
" style="fill:none;stroke:#000000;stroke-linecap:square;stroke-linejoin:miter;stroke-width:0.8;"/>
   </g>
   <g id="patch_4">
    <path d="M 63 192.24 
L 453.6 192.24 
" style="fill:none;stroke:#000000;stroke-linecap:square;stroke-linejoin:miter;stroke-width:0.8;"/>
   </g>
   <g id="text_19">
    <!-- modeltype=full, labormarket=unbiased -->
    <g transform="translate(139.235625 19.92)scale(0.12 -0.12)">
     <defs>
      <path d="M 45.40625 46.390625 
L 45.40625 75.984375 
L 54.390625 75.984375 
L 54.390625 0 
L 45.40625 0 
L 45.40625 8.203125 
Q 42.578125 3.328125 38.25 0.953125 
Q 33.9375 -1.421875 27.875 -1.421875 
Q 17.96875 -1.421875 11.734375 6.484375 
Q 5.515625 14.40625 5.515625 27.296875 
Q 5.515625 40.1875 11.734375 48.09375 
Q 17.96875 56 27.875 56 
Q 33.9375 56 38.25 53.625 
Q 42.578125 51.265625 45.40625 46.390625 
z
M 14.796875 27.296875 
Q 14.796875 17.390625 18.875 11.75 
Q 22.953125 6.109375 30.078125 6.109375 
Q 37.203125 6.109375 41.296875 11.75 
Q 45.40625 17.390625 45.40625 27.296875 
Q 45.40625 37.203125 41.296875 42.84375 
Q 37.203125 48.484375 30.078125 48.484375 
Q 22.953125 48.484375 18.875 42.84375 
Q 14.796875 37.203125 14.796875 27.296875 
z
" id="DejaVuSans-100"/>
      <path d="M 9.421875 75.984375 
L 18.40625 75.984375 
L 18.40625 0 
L 9.421875 0 
z
" id="DejaVuSans-108"/>
      <path d="M 32.171875 -5.078125 
Q 28.375 -14.84375 24.75 -17.8125 
Q 21.140625 -20.796875 15.09375 -20.796875 
L 7.90625 -20.796875 
L 7.90625 -13.28125 
L 13.1875 -13.28125 
Q 16.890625 -13.28125 18.9375 -11.515625 
Q 21 -9.765625 23.484375 -3.21875 
L 25.09375 0.875 
L 2.984375 54.6875 
L 12.5 54.6875 
L 29.59375 11.921875 
L 46.6875 54.6875 
L 56.203125 54.6875 
z
" id="DejaVuSans-121"/>
      <path d="M 18.109375 8.203125 
L 18.109375 -20.796875 
L 9.078125 -20.796875 
L 9.078125 54.6875 
L 18.109375 54.6875 
L 18.109375 46.390625 
Q 20.953125 51.265625 25.265625 53.625 
Q 29.59375 56 35.59375 56 
Q 45.5625 56 51.78125 48.09375 
Q 58.015625 40.1875 58.015625 27.296875 
Q 58.015625 14.40625 51.78125 6.484375 
Q 45.5625 -1.421875 35.59375 -1.421875 
Q 29.59375 -1.421875 25.265625 0.953125 
Q 20.953125 3.328125 18.109375 8.203125 
z
M 48.6875 27.296875 
Q 48.6875 37.203125 44.609375 42.84375 
Q 40.53125 48.484375 33.40625 48.484375 
Q 26.265625 48.484375 22.1875 42.84375 
Q 18.109375 37.203125 18.109375 27.296875 
Q 18.109375 17.390625 22.1875 11.75 
Q 26.265625 6.109375 33.40625 6.109375 
Q 40.53125 6.109375 44.609375 11.75 
Q 48.6875 17.390625 48.6875 27.296875 
z
" id="DejaVuSans-112"/>
      <path d="M 10.59375 45.40625 
L 73.1875 45.40625 
L 73.1875 37.203125 
L 10.59375 37.203125 
z
M 10.59375 25.484375 
L 73.1875 25.484375 
L 73.1875 17.1875 
L 10.59375 17.1875 
z
" id="DejaVuSans-61"/>
      <path d="M 8.5 21.578125 
L 8.5 54.6875 
L 17.484375 54.6875 
L 17.484375 21.921875 
Q 17.484375 14.15625 20.5 10.265625 
Q 23.53125 6.390625 29.59375 6.390625 
Q 36.859375 6.390625 41.078125 11.03125 
Q 45.3125 15.671875 45.3125 23.6875 
L 45.3125 54.6875 
L 54.296875 54.6875 
L 54.296875 0 
L 45.3125 0 
L 45.3125 8.40625 
Q 42.046875 3.421875 37.71875 1 
Q 33.40625 -1.421875 27.6875 -1.421875 
Q 18.265625 -1.421875 13.375 4.4375 
Q 8.5 10.296875 8.5 21.578125 
z
M 31.109375 56 
z
" id="DejaVuSans-117"/>
      <path d="M 11.71875 12.40625 
L 22.015625 12.40625 
L 22.015625 4 
L 14.015625 -11.625 
L 7.71875 -11.625 
L 11.71875 4 
z
" id="DejaVuSans-44"/>
      <path id="DejaVuSans-32"/>
      <path d="M 34.28125 27.484375 
Q 23.390625 27.484375 19.1875 25 
Q 14.984375 22.515625 14.984375 16.5 
Q 14.984375 11.71875 18.140625 8.90625 
Q 21.296875 6.109375 26.703125 6.109375 
Q 34.1875 6.109375 38.703125 11.40625 
Q 43.21875 16.703125 43.21875 25.484375 
L 43.21875 27.484375 
z
M 52.203125 31.203125 
L 52.203125 0 
L 43.21875 0 
L 43.21875 8.296875 
Q 40.140625 3.328125 35.546875 0.953125 
Q 30.953125 -1.421875 24.3125 -1.421875 
Q 15.921875 -1.421875 10.953125 3.296875 
Q 6 8.015625 6 15.921875 
Q 6 25.140625 12.171875 29.828125 
Q 18.359375 34.515625 30.609375 34.515625 
L 43.21875 34.515625 
L 43.21875 35.40625 
Q 43.21875 41.609375 39.140625 45 
Q 35.0625 48.390625 27.6875 48.390625 
Q 23 48.390625 18.546875 47.265625 
Q 14.109375 46.140625 10.015625 43.890625 
L 10.015625 52.203125 
Q 14.9375 54.109375 19.578125 55.046875 
Q 24.21875 56 28.609375 56 
Q 40.484375 56 46.34375 49.84375 
Q 52.203125 43.703125 52.203125 31.203125 
z
" id="DejaVuSans-97"/>
      <path d="M 48.6875 27.296875 
Q 48.6875 37.203125 44.609375 42.84375 
Q 40.53125 48.484375 33.40625 48.484375 
Q 26.265625 48.484375 22.1875 42.84375 
Q 18.109375 37.203125 18.109375 27.296875 
Q 18.109375 17.390625 22.1875 11.75 
Q 26.265625 6.109375 33.40625 6.109375 
Q 40.53125 6.109375 44.609375 11.75 
Q 48.6875 17.390625 48.6875 27.296875 
z
M 18.109375 46.390625 
Q 20.953125 51.265625 25.265625 53.625 
Q 29.59375 56 35.59375 56 
Q 45.5625 56 51.78125 48.09375 
Q 58.015625 40.1875 58.015625 27.296875 
Q 58.015625 14.40625 51.78125 6.484375 
Q 45.5625 -1.421875 35.59375 -1.421875 
Q 29.59375 -1.421875 25.265625 0.953125 
Q 20.953125 3.328125 18.109375 8.203125 
L 18.109375 0 
L 9.078125 0 
L 9.078125 75.984375 
L 18.109375 75.984375 
z
" id="DejaVuSans-98"/>
      <path d="M 41.109375 46.296875 
Q 39.59375 47.171875 37.8125 47.578125 
Q 36.03125 48 33.890625 48 
Q 26.265625 48 22.1875 43.046875 
Q 18.109375 38.09375 18.109375 28.8125 
L 18.109375 0 
L 9.078125 0 
L 9.078125 54.6875 
L 18.109375 54.6875 
L 18.109375 46.1875 
Q 20.953125 51.171875 25.484375 53.578125 
Q 30.03125 56 36.53125 56 
Q 37.453125 56 38.578125 55.875 
Q 39.703125 55.765625 41.0625 55.515625 
z
" id="DejaVuSans-114"/>
      <path d="M 9.078125 75.984375 
L 18.109375 75.984375 
L 18.109375 31.109375 
L 44.921875 54.6875 
L 56.390625 54.6875 
L 27.390625 29.109375 
L 57.625 0 
L 45.90625 0 
L 18.109375 26.703125 
L 18.109375 0 
L 9.078125 0 
z
" id="DejaVuSans-107"/>
      <path d="M 54.890625 33.015625 
L 54.890625 0 
L 45.90625 0 
L 45.90625 32.71875 
Q 45.90625 40.484375 42.875 44.328125 
Q 39.84375 48.1875 33.796875 48.1875 
Q 26.515625 48.1875 22.3125 43.546875 
Q 18.109375 38.921875 18.109375 30.90625 
L 18.109375 0 
L 9.078125 0 
L 9.078125 54.6875 
L 18.109375 54.6875 
L 18.109375 46.1875 
Q 21.34375 51.125 25.703125 53.5625 
Q 30.078125 56 35.796875 56 
Q 45.21875 56 50.046875 50.171875 
Q 54.890625 44.34375 54.890625 33.015625 
z
" id="DejaVuSans-110"/>
      <path d="M 44.28125 53.078125 
L 44.28125 44.578125 
Q 40.484375 46.53125 36.375 47.5 
Q 32.28125 48.484375 27.875 48.484375 
Q 21.1875 48.484375 17.84375 46.4375 
Q 14.5 44.390625 14.5 40.28125 
Q 14.5 37.15625 16.890625 35.375 
Q 19.28125 33.59375 26.515625 31.984375 
L 29.59375 31.296875 
Q 39.15625 29.25 43.1875 25.515625 
Q 47.21875 21.78125 47.21875 15.09375 
Q 47.21875 7.46875 41.1875 3.015625 
Q 35.15625 -1.421875 24.609375 -1.421875 
Q 20.21875 -1.421875 15.453125 -0.5625 
Q 10.6875 0.296875 5.421875 2 
L 5.421875 11.28125 
Q 10.40625 8.6875 15.234375 7.390625 
Q 20.0625 6.109375 24.8125 6.109375 
Q 31.15625 6.109375 34.5625 8.28125 
Q 37.984375 10.453125 37.984375 14.40625 
Q 37.984375 18.0625 35.515625 20.015625 
Q 33.0625 21.96875 24.703125 23.78125 
L 21.578125 24.515625 
Q 13.234375 26.265625 9.515625 29.90625 
Q 5.8125 33.546875 5.8125 39.890625 
Q 5.8125 47.609375 11.28125 51.796875 
Q 16.75 56 26.8125 56 
Q 31.78125 56 36.171875 55.265625 
Q 40.578125 54.546875 44.28125 53.078125 
z
" id="DejaVuSans-115"/>
     </defs>
     <use xlink:href="#DejaVuSans-109"/>
     <use x="97.412109" xlink:href="#DejaVuSans-111"/>
     <use x="158.59375" xlink:href="#DejaVuSans-100"/>
     <use x="222.070312" xlink:href="#DejaVuSans-101"/>
     <use x="283.59375" xlink:href="#DejaVuSans-108"/>
     <use x="311.376953" xlink:href="#DejaVuSans-116"/>
     <use x="350.585938" xlink:href="#DejaVuSans-121"/>
     <use x="409.765625" xlink:href="#DejaVuSans-112"/>
     <use x="473.242188" xlink:href="#DejaVuSans-101"/>
     <use x="534.765625" xlink:href="#DejaVuSans-61"/>
     <use x="618.554688" xlink:href="#DejaVuSans-102"/>
     <use x="653.759766" xlink:href="#DejaVuSans-117"/>
     <use x="717.138672" xlink:href="#DejaVuSans-108"/>
     <use x="744.921875" xlink:href="#DejaVuSans-108"/>
     <use x="772.705078" xlink:href="#DejaVuSans-44"/>
     <use x="804.492188" xlink:href="#DejaVuSans-32"/>
     <use x="836.279297" xlink:href="#DejaVuSans-108"/>
     <use x="864.0625" xlink:href="#DejaVuSans-97"/>
     <use x="925.341797" xlink:href="#DejaVuSans-98"/>
     <use x="988.818359" xlink:href="#DejaVuSans-111"/>
     <use x="1050" xlink:href="#DejaVuSans-114"/>
     <use x="1089.363281" xlink:href="#DejaVuSans-109"/>
     <use x="1186.775391" xlink:href="#DejaVuSans-97"/>
     <use x="1248.054688" xlink:href="#DejaVuSans-114"/>
     <use x="1289.167969" xlink:href="#DejaVuSans-107"/>
     <use x="1343.453125" xlink:href="#DejaVuSans-101"/>
     <use x="1404.976562" xlink:href="#DejaVuSans-116"/>
     <use x="1444.185547" xlink:href="#DejaVuSans-61"/>
     <use x="1527.974609" xlink:href="#DejaVuSans-117"/>
     <use x="1591.353516" xlink:href="#DejaVuSans-110"/>
     <use x="1654.732422" xlink:href="#DejaVuSans-98"/>
     <use x="1718.208984" xlink:href="#DejaVuSans-105"/>
     <use x="1745.992188" xlink:href="#DejaVuSans-97"/>
     <use x="1807.271484" xlink:href="#DejaVuSans-115"/>
     <use x="1859.371094" xlink:href="#DejaVuSans-101"/>
     <use x="1920.894531" xlink:href="#DejaVuSans-100"/>
    </g>
   </g>
   <g id="legend_1">
    <g id="patch_5">
     <path d="M 70 107.58875 
L 235.407813 107.58875 
Q 237.407813 107.58875 237.407813 105.58875 
L 237.407813 32.92 
Q 237.407813 30.92 235.407813 30.92 
L 70 30.92 
Q 68 30.92 68 32.92 
L 68 105.58875 
Q 68 107.58875 70 107.58875 
z
" style="fill:#ffffff;opacity:0.8;stroke:#cccccc;stroke-linejoin:miter;"/>
    </g>
    <g id="text_20">
     <!-- scenario -->
     <g transform="translate(131.536719 42.518438)scale(0.1 -0.1)">
      <use xlink:href="#DejaVuSans-115"/>
      <use x="52.099609" xlink:href="#DejaVuSans-99"/>
      <use x="107.080078" xlink:href="#DejaVuSans-101"/>
      <use x="168.603516" xlink:href="#DejaVuSans-110"/>
      <use x="231.982422" xlink:href="#DejaVuSans-97"/>
      <use x="293.261719" xlink:href="#DejaVuSans-114"/>
      <use x="334.375" xlink:href="#DejaVuSans-105"/>
      <use x="362.158203" xlink:href="#DejaVuSans-111"/>
     </g>
    </g>
    <g id="line2d_25">
     <path d="M 72 53.696562 
L 92 53.696562 
" style="fill:none;stroke:#1f77b4;stroke-linecap:square;stroke-width:1.5;"/>
    </g>
    <g id="line2d_26"/>
    <g id="text_21">
     <!-- onlylow -->
     <g transform="translate(100 57.196562)scale(0.1 -0.1)">
      <defs>
       <path d="M 4.203125 54.6875 
L 13.1875 54.6875 
L 24.421875 12.015625 
L 35.59375 54.6875 
L 46.1875 54.6875 
L 57.421875 12.015625 
L 68.609375 54.6875 
L 77.59375 54.6875 
L 63.28125 0 
L 52.6875 0 
L 40.921875 44.828125 
L 29.109375 0 
L 18.5 0 
z
" id="DejaVuSans-119"/>
      </defs>
      <use xlink:href="#DejaVuSans-111"/>
      <use x="61.181641" xlink:href="#DejaVuSans-110"/>
      <use x="124.560547" xlink:href="#DejaVuSans-108"/>
      <use x="152.34375" xlink:href="#DejaVuSans-121"/>
      <use x="211.523438" xlink:href="#DejaVuSans-108"/>
      <use x="239.306641" xlink:href="#DejaVuSans-111"/>
      <use x="300.488281" xlink:href="#DejaVuSans-119"/>
     </g>
    </g>
    <g id="line2d_27">
     <path d="M 72 68.374687 
L 92 68.374687 
" style="fill:none;stroke:#ff7f0e;stroke-linecap:square;stroke-width:1.5;"/>
    </g>
    <g id="line2d_28"/>
    <g id="text_22">
     <!-- onlyhigh -->
     <g transform="translate(100 71.874687)scale(0.1 -0.1)">
      <defs>
       <path d="M 54.890625 33.015625 
L 54.890625 0 
L 45.90625 0 
L 45.90625 32.71875 
Q 45.90625 40.484375 42.875 44.328125 
Q 39.84375 48.1875 33.796875 48.1875 
Q 26.515625 48.1875 22.3125 43.546875 
Q 18.109375 38.921875 18.109375 30.90625 
L 18.109375 0 
L 9.078125 0 
L 9.078125 75.984375 
L 18.109375 75.984375 
L 18.109375 46.1875 
Q 21.34375 51.125 25.703125 53.5625 
Q 30.078125 56 35.796875 56 
Q 45.21875 56 50.046875 50.171875 
Q 54.890625 44.34375 54.890625 33.015625 
z
" id="DejaVuSans-104"/>
       <path d="M 45.40625 27.984375 
Q 45.40625 37.75 41.375 43.109375 
Q 37.359375 48.484375 30.078125 48.484375 
Q 22.859375 48.484375 18.828125 43.109375 
Q 14.796875 37.75 14.796875 27.984375 
Q 14.796875 18.265625 18.828125 12.890625 
Q 22.859375 7.515625 30.078125 7.515625 
Q 37.359375 7.515625 41.375 12.890625 
Q 45.40625 18.265625 45.40625 27.984375 
z
M 54.390625 6.78125 
Q 54.390625 -7.171875 48.1875 -13.984375 
Q 42 -20.796875 29.203125 -20.796875 
Q 24.46875 -20.796875 20.265625 -20.09375 
Q 16.0625 -19.390625 12.109375 -17.921875 
L 12.109375 -9.1875 
Q 16.0625 -11.328125 19.921875 -12.34375 
Q 23.78125 -13.375 27.78125 -13.375 
Q 36.625 -13.375 41.015625 -8.765625 
Q 45.40625 -4.15625 45.40625 5.171875 
L 45.40625 9.625 
Q 42.625 4.78125 38.28125 2.390625 
Q 33.9375 0 27.875 0 
Q 17.828125 0 11.671875 7.65625 
Q 5.515625 15.328125 5.515625 27.984375 
Q 5.515625 40.671875 11.671875 48.328125 
Q 17.828125 56 27.875 56 
Q 33.9375 56 38.28125 53.609375 
Q 42.625 51.21875 45.40625 46.390625 
L 45.40625 54.6875 
L 54.390625 54.6875 
z
" id="DejaVuSans-103"/>
      </defs>
      <use xlink:href="#DejaVuSans-111"/>
      <use x="61.181641" xlink:href="#DejaVuSans-110"/>
      <use x="124.560547" xlink:href="#DejaVuSans-108"/>
      <use x="152.34375" xlink:href="#DejaVuSans-121"/>
      <use x="211.523438" xlink:href="#DejaVuSans-104"/>
      <use x="274.902344" xlink:href="#DejaVuSans-105"/>
      <use x="302.685547" xlink:href="#DejaVuSans-103"/>
      <use x="366.162109" xlink:href="#DejaVuSans-104"/>
     </g>
    </g>
    <g id="line2d_29">
     <path d="M 72 83.052813 
L 92 83.052813 
" style="fill:none;stroke:#2ca02c;stroke-linecap:square;stroke-width:1.5;"/>
    </g>
    <g id="line2d_30"/>
    <g id="text_23">
     <!-- balanced -->
     <g transform="translate(100 86.552813)scale(0.1 -0.1)">
      <use xlink:href="#DejaVuSans-98"/>
      <use x="63.476562" xlink:href="#DejaVuSans-97"/>
      <use x="124.755859" xlink:href="#DejaVuSans-108"/>
      <use x="152.539062" xlink:href="#DejaVuSans-97"/>
      <use x="213.818359" xlink:href="#DejaVuSans-110"/>
      <use x="277.197266" xlink:href="#DejaVuSans-99"/>
      <use x="332.177734" xlink:href="#DejaVuSans-101"/>
      <use x="393.701172" xlink:href="#DejaVuSans-100"/>
     </g>
    </g>
    <g id="line2d_31">
     <path d="M 72 97.730938 
L 92 97.730938 
" style="fill:none;stroke:#d62728;stroke-linecap:square;stroke-width:1.5;"/>
    </g>
    <g id="line2d_32"/>
    <g id="text_24">
     <!-- balanced_errors_penalized -->
     <g transform="translate(100 101.230938)scale(0.1 -0.1)">
      <defs>
       <path d="M 50.984375 -16.609375 
L 50.984375 -23.578125 
L -0.984375 -23.578125 
L -0.984375 -16.609375 
z
" id="DejaVuSans-95"/>
       <path d="M 5.515625 54.6875 
L 48.1875 54.6875 
L 48.1875 46.484375 
L 14.40625 7.171875 
L 48.1875 7.171875 
L 48.1875 0 
L 4.296875 0 
L 4.296875 8.203125 
L 38.09375 47.515625 
L 5.515625 47.515625 
z
" id="DejaVuSans-122"/>
      </defs>
      <use xlink:href="#DejaVuSans-98"/>
      <use x="63.476562" xlink:href="#DejaVuSans-97"/>
      <use x="124.755859" xlink:href="#DejaVuSans-108"/>
      <use x="152.539062" xlink:href="#DejaVuSans-97"/>
      <use x="213.818359" xlink:href="#DejaVuSans-110"/>
      <use x="277.197266" xlink:href="#DejaVuSans-99"/>
      <use x="332.177734" xlink:href="#DejaVuSans-101"/>
      <use x="393.701172" xlink:href="#DejaVuSans-100"/>
      <use x="457.177734" xlink:href="#DejaVuSans-95"/>
      <use x="507.177734" xlink:href="#DejaVuSans-101"/>
      <use x="568.701172" xlink:href="#DejaVuSans-114"/>
      <use x="608.064453" xlink:href="#DejaVuSans-114"/>
      <use x="646.927734" xlink:href="#DejaVuSans-111"/>
      <use x="708.109375" xlink:href="#DejaVuSans-114"/>
      <use x="749.222656" xlink:href="#DejaVuSans-115"/>
      <use x="801.322266" xlink:href="#DejaVuSans-95"/>
      <use x="851.322266" xlink:href="#DejaVuSans-112"/>
      <use x="914.798828" xlink:href="#DejaVuSans-101"/>
      <use x="976.322266" xlink:href="#DejaVuSans-110"/>
      <use x="1039.701172" xlink:href="#DejaVuSans-97"/>
      <use x="1100.980469" xlink:href="#DejaVuSans-108"/>
      <use x="1128.763672" xlink:href="#DejaVuSans-105"/>
      <use x="1156.546875" xlink:href="#DejaVuSans-122"/>
      <use x="1209.037109" xlink:href="#DejaVuSans-101"/>
      <use x="1270.560547" xlink:href="#DejaVuSans-100"/>
     </g>
    </g>
   </g>
  </g>
 </g>
 <defs>
  <clipPath id="p39b2ffc818">
   <rect height="166.32" width="390.6" x="63" y="25.92"/>
  </clipPath>
 </defs>
</svg>
