<?xml version="1.0" encoding="utf-8" standalone="no"?>
<!DOCTYPE svg PUBLIC "-//W3C//DTD SVG 1.1//EN"
  "http://www.w3.org/Graphics/SVG/1.1/DTD/svg11.dtd">
<!-- Created with matplotlib (https://matplotlib.org/) -->
<svg height="216pt" version="1.1" viewBox="0 0 504 216" width="504pt" xmlns="http://www.w3.org/2000/svg" xmlns:xlink="http://www.w3.org/1999/xlink">
 <metadata>
  <rdf:RDF xmlns:cc="http://creativecommons.org/ns#" xmlns:dc="http://purl.org/dc/elements/1.1/" xmlns:rdf="http://www.w3.org/1999/02/22-rdf-syntax-ns#">
   <cc:Work>
    <dc:type rdf:resource="http://purl.org/dc/dcmitype/StillImage"/>
    <dc:date>2021-11-26T09:53:04.580877</dc:date>
    <dc:format>image/svg+xml</dc:format>
    <dc:creator>
     <cc:Agent>
      <dc:title>Matplotlib v3.3.4, https://matplotlib.org/</dc:title>
     </cc:Agent>
    </dc:creator>
   </cc:Work>
  </rdf:RDF>
 </metadata>
 <defs>
  <style type="text/css">*{stroke-linecap:butt;stroke-linejoin:round;}</style>
 </defs>
 <g id="figure_1">
  <g id="patch_1">
   <path d="M 0 216 
L 504 216 
L 504 0 
L 0 0 
z
" style="fill:#ffffff;"/>
  </g>
  <g id="axes_1">
   <g id="patch_2">
    <path d="M 63 192.24 
L 453.6 192.24 
L 453.6 25.92 
L 63 25.92 
z
" style="fill:#ffffff;"/>
   </g>
   <g id="matplotlib.axis_1">
    <g id="xtick_1">
     <g id="line2d_1">
      <defs>
       <path d="M 0 0 
L 0 3.5 
" id="m1abae1ca49" style="stroke:#000000;stroke-width:0.8;"/>
      </defs>
      <g>
       <use style="stroke:#000000;stroke-width:0.8;" x="79.862357" xlink:href="#m1abae1ca49" y="192.24"/>
      </g>
     </g>
     <g id="text_1">
      <!-- 400 -->
      <g transform="translate(70.318607 206.838437)scale(0.1 -0.1)">
       <defs>
        <path d="M 37.796875 64.3125 
L 12.890625 25.390625 
L 37.796875 25.390625 
z
M 35.203125 72.90625 
L 47.609375 72.90625 
L 47.609375 25.390625 
L 58.015625 25.390625 
L 58.015625 17.1875 
L 47.609375 17.1875 
L 47.609375 0 
L 37.796875 0 
L 37.796875 17.1875 
L 4.890625 17.1875 
L 4.890625 26.703125 
z
" id="DejaVuSans-52"/>
        <path d="M 31.78125 66.40625 
Q 24.171875 66.40625 20.328125 58.90625 
Q 16.5 51.421875 16.5 36.375 
Q 16.5 21.390625 20.328125 13.890625 
Q 24.171875 6.390625 31.78125 6.390625 
Q 39.453125 6.390625 43.28125 13.890625 
Q 47.125 21.390625 47.125 36.375 
Q 47.125 51.421875 43.28125 58.90625 
Q 39.453125 66.40625 31.78125 66.40625 
z
M 31.78125 74.21875 
Q 44.046875 74.21875 50.515625 64.515625 
Q 56.984375 54.828125 56.984375 36.375 
Q 56.984375 17.96875 50.515625 8.265625 
Q 44.046875 -1.421875 31.78125 -1.421875 
Q 19.53125 -1.421875 13.0625 8.265625 
Q 6.59375 17.96875 6.59375 36.375 
Q 6.59375 54.828125 13.0625 64.515625 
Q 19.53125 74.21875 31.78125 74.21875 
z
" id="DejaVuSans-48"/>
       </defs>
       <use xlink:href="#DejaVuSans-52"/>
       <use x="63.623047" xlink:href="#DejaVuSans-48"/>
       <use x="127.246094" xlink:href="#DejaVuSans-48"/>
      </g>
     </g>
    </g>
    <g id="xtick_2">
     <g id="line2d_2">
      <g>
       <use style="stroke:#000000;stroke-width:0.8;" x="124.471768" xlink:href="#m1abae1ca49" y="192.24"/>
      </g>
     </g>
     <g id="text_2">
      <!-- 450 -->
      <g transform="translate(114.928018 206.838437)scale(0.1 -0.1)">
       <defs>
        <path d="M 10.796875 72.90625 
L 49.515625 72.90625 
L 49.515625 64.59375 
L 19.828125 64.59375 
L 19.828125 46.734375 
Q 21.96875 47.46875 24.109375 47.828125 
Q 26.265625 48.1875 28.421875 48.1875 
Q 40.625 48.1875 47.75 41.5 
Q 54.890625 34.8125 54.890625 23.390625 
Q 54.890625 11.625 47.5625 5.09375 
Q 40.234375 -1.421875 26.90625 -1.421875 
Q 22.3125 -1.421875 17.546875 -0.640625 
Q 12.796875 0.140625 7.71875 1.703125 
L 7.71875 11.625 
Q 12.109375 9.234375 16.796875 8.0625 
Q 21.484375 6.890625 26.703125 6.890625 
Q 35.15625 6.890625 40.078125 11.328125 
Q 45.015625 15.765625 45.015625 23.390625 
Q 45.015625 31 40.078125 35.4375 
Q 35.15625 39.890625 26.703125 39.890625 
Q 22.75 39.890625 18.8125 39.015625 
Q 14.890625 38.140625 10.796875 36.28125 
z
" id="DejaVuSans-53"/>
       </defs>
       <use xlink:href="#DejaVuSans-52"/>
       <use x="63.623047" xlink:href="#DejaVuSans-53"/>
       <use x="127.246094" xlink:href="#DejaVuSans-48"/>
      </g>
     </g>
    </g>
    <g id="xtick_3">
     <g id="line2d_3">
      <g>
       <use style="stroke:#000000;stroke-width:0.8;" x="169.081179" xlink:href="#m1abae1ca49" y="192.24"/>
      </g>
     </g>
     <g id="text_3">
      <!-- 500 -->
      <g transform="translate(159.537429 206.838437)scale(0.1 -0.1)">
       <use xlink:href="#DejaVuSans-53"/>
       <use x="63.623047" xlink:href="#DejaVuSans-48"/>
       <use x="127.246094" xlink:href="#DejaVuSans-48"/>
      </g>
     </g>
    </g>
    <g id="xtick_4">
     <g id="line2d_4">
      <g>
       <use style="stroke:#000000;stroke-width:0.8;" x="213.690589" xlink:href="#m1abae1ca49" y="192.24"/>
      </g>
     </g>
     <g id="text_4">
      <!-- 550 -->
      <g transform="translate(204.146839 206.838437)scale(0.1 -0.1)">
       <use xlink:href="#DejaVuSans-53"/>
       <use x="63.623047" xlink:href="#DejaVuSans-53"/>
       <use x="127.246094" xlink:href="#DejaVuSans-48"/>
      </g>
     </g>
    </g>
    <g id="xtick_5">
     <g id="line2d_5">
      <g>
       <use style="stroke:#000000;stroke-width:0.8;" x="258.3" xlink:href="#m1abae1ca49" y="192.24"/>
      </g>
     </g>
     <g id="text_5">
      <!-- 600 -->
      <g transform="translate(248.75625 206.838437)scale(0.1 -0.1)">
       <defs>
        <path d="M 33.015625 40.375 
Q 26.375 40.375 22.484375 35.828125 
Q 18.609375 31.296875 18.609375 23.390625 
Q 18.609375 15.53125 22.484375 10.953125 
Q 26.375 6.390625 33.015625 6.390625 
Q 39.65625 6.390625 43.53125 10.953125 
Q 47.40625 15.53125 47.40625 23.390625 
Q 47.40625 31.296875 43.53125 35.828125 
Q 39.65625 40.375 33.015625 40.375 
z
M 52.59375 71.296875 
L 52.59375 62.3125 
Q 48.875 64.0625 45.09375 64.984375 
Q 41.3125 65.921875 37.59375 65.921875 
Q 27.828125 65.921875 22.671875 59.328125 
Q 17.53125 52.734375 16.796875 39.40625 
Q 19.671875 43.65625 24.015625 45.921875 
Q 28.375 48.1875 33.59375 48.1875 
Q 44.578125 48.1875 50.953125 41.515625 
Q 57.328125 34.859375 57.328125 23.390625 
Q 57.328125 12.15625 50.6875 5.359375 
Q 44.046875 -1.421875 33.015625 -1.421875 
Q 20.359375 -1.421875 13.671875 8.265625 
Q 6.984375 17.96875 6.984375 36.375 
Q 6.984375 53.65625 15.1875 63.9375 
Q 23.390625 74.21875 37.203125 74.21875 
Q 40.921875 74.21875 44.703125 73.484375 
Q 48.484375 72.75 52.59375 71.296875 
z
" id="DejaVuSans-54"/>
       </defs>
       <use xlink:href="#DejaVuSans-54"/>
       <use x="63.623047" xlink:href="#DejaVuSans-48"/>
       <use x="127.246094" xlink:href="#DejaVuSans-48"/>
      </g>
     </g>
    </g>
    <g id="xtick_6">
     <g id="line2d_6">
      <g>
       <use style="stroke:#000000;stroke-width:0.8;" x="302.909411" xlink:href="#m1abae1ca49" y="192.24"/>
      </g>
     </g>
     <g id="text_6">
      <!-- 650 -->
      <g transform="translate(293.365661 206.838437)scale(0.1 -0.1)">
       <use xlink:href="#DejaVuSans-54"/>
       <use x="63.623047" xlink:href="#DejaVuSans-53"/>
       <use x="127.246094" xlink:href="#DejaVuSans-48"/>
      </g>
     </g>
    </g>
    <g id="xtick_7">
     <g id="line2d_7">
      <g>
       <use style="stroke:#000000;stroke-width:0.8;" x="347.518821" xlink:href="#m1abae1ca49" y="192.24"/>
      </g>
     </g>
     <g id="text_7">
      <!-- 700 -->
      <g transform="translate(337.975071 206.838437)scale(0.1 -0.1)">
       <defs>
        <path d="M 8.203125 72.90625 
L 55.078125 72.90625 
L 55.078125 68.703125 
L 28.609375 0 
L 18.3125 0 
L 43.21875 64.59375 
L 8.203125 64.59375 
z
" id="DejaVuSans-55"/>
       </defs>
       <use xlink:href="#DejaVuSans-55"/>
       <use x="63.623047" xlink:href="#DejaVuSans-48"/>
       <use x="127.246094" xlink:href="#DejaVuSans-48"/>
      </g>
     </g>
    </g>
    <g id="xtick_8">
     <g id="line2d_8">
      <g>
       <use style="stroke:#000000;stroke-width:0.8;" x="392.128232" xlink:href="#m1abae1ca49" y="192.24"/>
      </g>
     </g>
     <g id="text_8">
      <!-- 750 -->
      <g transform="translate(382.584482 206.838437)scale(0.1 -0.1)">
       <use xlink:href="#DejaVuSans-55"/>
       <use x="63.623047" xlink:href="#DejaVuSans-53"/>
       <use x="127.246094" xlink:href="#DejaVuSans-48"/>
      </g>
     </g>
    </g>
    <g id="xtick_9">
     <g id="line2d_9">
      <g>
       <use style="stroke:#000000;stroke-width:0.8;" x="436.737643" xlink:href="#m1abae1ca49" y="192.24"/>
      </g>
     </g>
     <g id="text_9">
      <!-- 800 -->
      <g transform="translate(427.193893 206.838437)scale(0.1 -0.1)">
       <defs>
        <path d="M 31.78125 34.625 
Q 24.75 34.625 20.71875 30.859375 
Q 16.703125 27.09375 16.703125 20.515625 
Q 16.703125 13.921875 20.71875 10.15625 
Q 24.75 6.390625 31.78125 6.390625 
Q 38.8125 6.390625 42.859375 10.171875 
Q 46.921875 13.96875 46.921875 20.515625 
Q 46.921875 27.09375 42.890625 30.859375 
Q 38.875 34.625 31.78125 34.625 
z
M 21.921875 38.8125 
Q 15.578125 40.375 12.03125 44.71875 
Q 8.5 49.078125 8.5 55.328125 
Q 8.5 64.0625 14.71875 69.140625 
Q 20.953125 74.21875 31.78125 74.21875 
Q 42.671875 74.21875 48.875 69.140625 
Q 55.078125 64.0625 55.078125 55.328125 
Q 55.078125 49.078125 51.53125 44.71875 
Q 48 40.375 41.703125 38.8125 
Q 48.828125 37.15625 52.796875 32.3125 
Q 56.78125 27.484375 56.78125 20.515625 
Q 56.78125 9.90625 50.3125 4.234375 
Q 43.84375 -1.421875 31.78125 -1.421875 
Q 19.734375 -1.421875 13.25 4.234375 
Q 6.78125 9.90625 6.78125 20.515625 
Q 6.78125 27.484375 10.78125 32.3125 
Q 14.796875 37.15625 21.921875 38.8125 
z
M 18.3125 54.390625 
Q 18.3125 48.734375 21.84375 45.5625 
Q 25.390625 42.390625 31.78125 42.390625 
Q 38.140625 42.390625 41.71875 45.5625 
Q 45.3125 48.734375 45.3125 54.390625 
Q 45.3125 60.0625 41.71875 63.234375 
Q 38.140625 66.40625 31.78125 66.40625 
Q 25.390625 66.40625 21.84375 63.234375 
Q 18.3125 60.0625 18.3125 54.390625 
z
" id="DejaVuSans-56"/>
       </defs>
       <use xlink:href="#DejaVuSans-56"/>
       <use x="63.623047" xlink:href="#DejaVuSans-48"/>
       <use x="127.246094" xlink:href="#DejaVuSans-48"/>
      </g>
     </g>
    </g>
    <g id="text_10">
     <!-- time -->
     <g transform="translate(247.003906 220.516562)scale(0.1 -0.1)">
      <defs>
       <path d="M 18.3125 70.21875 
L 18.3125 54.6875 
L 36.8125 54.6875 
L 36.8125 47.703125 
L 18.3125 47.703125 
L 18.3125 18.015625 
Q 18.3125 11.328125 20.140625 9.421875 
Q 21.96875 7.515625 27.59375 7.515625 
L 36.8125 7.515625 
L 36.8125 0 
L 27.59375 0 
Q 17.1875 0 13.234375 3.875 
Q 9.28125 7.765625 9.28125 18.015625 
L 9.28125 47.703125 
L 2.6875 47.703125 
L 2.6875 54.6875 
L 9.28125 54.6875 
L 9.28125 70.21875 
z
" id="DejaVuSans-116"/>
       <path d="M 9.421875 54.6875 
L 18.40625 54.6875 
L 18.40625 0 
L 9.421875 0 
z
M 9.421875 75.984375 
L 18.40625 75.984375 
L 18.40625 64.59375 
L 9.421875 64.59375 
z
" id="DejaVuSans-105"/>
       <path d="M 52 44.1875 
Q 55.375 50.25 60.0625 53.125 
Q 64.75 56 71.09375 56 
Q 79.640625 56 84.28125 50.015625 
Q 88.921875 44.046875 88.921875 33.015625 
L 88.921875 0 
L 79.890625 0 
L 79.890625 32.71875 
Q 79.890625 40.578125 77.09375 44.375 
Q 74.3125 48.1875 68.609375 48.1875 
Q 61.625 48.1875 57.5625 43.546875 
Q 53.515625 38.921875 53.515625 30.90625 
L 53.515625 0 
L 44.484375 0 
L 44.484375 32.71875 
Q 44.484375 40.625 41.703125 44.40625 
Q 38.921875 48.1875 33.109375 48.1875 
Q 26.21875 48.1875 22.15625 43.53125 
Q 18.109375 38.875 18.109375 30.90625 
L 18.109375 0 
L 9.078125 0 
L 9.078125 54.6875 
L 18.109375 54.6875 
L 18.109375 46.1875 
Q 21.1875 51.21875 25.484375 53.609375 
Q 29.78125 56 35.6875 56 
Q 41.65625 56 45.828125 52.96875 
Q 50 49.953125 52 44.1875 
z
" id="DejaVuSans-109"/>
       <path d="M 56.203125 29.59375 
L 56.203125 25.203125 
L 14.890625 25.203125 
Q 15.484375 15.921875 20.484375 11.0625 
Q 25.484375 6.203125 34.421875 6.203125 
Q 39.59375 6.203125 44.453125 7.46875 
Q 49.3125 8.734375 54.109375 11.28125 
L 54.109375 2.78125 
Q 49.265625 0.734375 44.1875 -0.34375 
Q 39.109375 -1.421875 33.890625 -1.421875 
Q 20.796875 -1.421875 13.15625 6.1875 
Q 5.515625 13.8125 5.515625 26.8125 
Q 5.515625 40.234375 12.765625 48.109375 
Q 20.015625 56 32.328125 56 
Q 43.359375 56 49.78125 48.890625 
Q 56.203125 41.796875 56.203125 29.59375 
z
M 47.21875 32.234375 
Q 47.125 39.59375 43.09375 43.984375 
Q 39.0625 48.390625 32.421875 48.390625 
Q 24.90625 48.390625 20.390625 44.140625 
Q 15.875 39.890625 15.1875 32.171875 
z
" id="DejaVuSans-101"/>
      </defs>
      <use xlink:href="#DejaVuSans-116"/>
      <use x="39.208984" xlink:href="#DejaVuSans-105"/>
      <use x="66.992188" xlink:href="#DejaVuSans-109"/>
      <use x="164.404297" xlink:href="#DejaVuSans-101"/>
     </g>
    </g>
   </g>
   <g id="matplotlib.axis_2">
    <g id="ytick_1">
     <g id="line2d_10">
      <defs>
       <path d="M 0 0 
L -3.5 0 
" id="mf12ff19f58" style="stroke:#000000;stroke-width:0.8;"/>
      </defs>
      <g>
       <use style="stroke:#000000;stroke-width:0.8;" x="63" xlink:href="#mf12ff19f58" y="190.035751"/>
      </g>
     </g>
     <g id="text_11">
      <!-- 2.6 -->
      <g transform="translate(40.096875 193.83497)scale(0.1 -0.1)">
       <defs>
        <path d="M 19.1875 8.296875 
L 53.609375 8.296875 
L 53.609375 0 
L 7.328125 0 
L 7.328125 8.296875 
Q 12.9375 14.109375 22.625 23.890625 
Q 32.328125 33.6875 34.8125 36.53125 
Q 39.546875 41.84375 41.421875 45.53125 
Q 43.3125 49.21875 43.3125 52.78125 
Q 43.3125 58.59375 39.234375 62.25 
Q 35.15625 65.921875 28.609375 65.921875 
Q 23.96875 65.921875 18.8125 64.3125 
Q 13.671875 62.703125 7.8125 59.421875 
L 7.8125 69.390625 
Q 13.765625 71.78125 18.9375 73 
Q 24.125 74.21875 28.421875 74.21875 
Q 39.75 74.21875 46.484375 68.546875 
Q 53.21875 62.890625 53.21875 53.421875 
Q 53.21875 48.921875 51.53125 44.890625 
Q 49.859375 40.875 45.40625 35.40625 
Q 44.1875 33.984375 37.640625 27.21875 
Q 31.109375 20.453125 19.1875 8.296875 
z
" id="DejaVuSans-50"/>
        <path d="M 10.6875 12.40625 
L 21 12.40625 
L 21 0 
L 10.6875 0 
z
" id="DejaVuSans-46"/>
       </defs>
       <use xlink:href="#DejaVuSans-50"/>
       <use x="63.623047" xlink:href="#DejaVuSans-46"/>
       <use x="95.410156" xlink:href="#DejaVuSans-54"/>
      </g>
     </g>
    </g>
    <g id="ytick_2">
     <g id="line2d_11">
      <g>
       <use style="stroke:#000000;stroke-width:0.8;" x="63" xlink:href="#mf12ff19f58" y="150.549231"/>
      </g>
     </g>
     <g id="text_12">
      <!-- 2.8 -->
      <g transform="translate(40.096875 154.34845)scale(0.1 -0.1)">
       <use xlink:href="#DejaVuSans-50"/>
       <use x="63.623047" xlink:href="#DejaVuSans-46"/>
       <use x="95.410156" xlink:href="#DejaVuSans-56"/>
      </g>
     </g>
    </g>
    <g id="ytick_3">
     <g id="line2d_12">
      <g>
       <use style="stroke:#000000;stroke-width:0.8;" x="63" xlink:href="#mf12ff19f58" y="111.062711"/>
      </g>
     </g>
     <g id="text_13">
      <!-- 3.0 -->
      <g transform="translate(40.096875 114.86193)scale(0.1 -0.1)">
       <defs>
        <path d="M 40.578125 39.3125 
Q 47.65625 37.796875 51.625 33 
Q 55.609375 28.21875 55.609375 21.1875 
Q 55.609375 10.40625 48.1875 4.484375 
Q 40.765625 -1.421875 27.09375 -1.421875 
Q 22.515625 -1.421875 17.65625 -0.515625 
Q 12.796875 0.390625 7.625 2.203125 
L 7.625 11.71875 
Q 11.71875 9.328125 16.59375 8.109375 
Q 21.484375 6.890625 26.8125 6.890625 
Q 36.078125 6.890625 40.9375 10.546875 
Q 45.796875 14.203125 45.796875 21.1875 
Q 45.796875 27.640625 41.28125 31.265625 
Q 36.765625 34.90625 28.71875 34.90625 
L 20.21875 34.90625 
L 20.21875 43.015625 
L 29.109375 43.015625 
Q 36.375 43.015625 40.234375 45.921875 
Q 44.09375 48.828125 44.09375 54.296875 
Q 44.09375 59.90625 40.109375 62.90625 
Q 36.140625 65.921875 28.71875 65.921875 
Q 24.65625 65.921875 20.015625 65.03125 
Q 15.375 64.15625 9.8125 62.3125 
L 9.8125 71.09375 
Q 15.4375 72.65625 20.34375 73.4375 
Q 25.25 74.21875 29.59375 74.21875 
Q 40.828125 74.21875 47.359375 69.109375 
Q 53.90625 64.015625 53.90625 55.328125 
Q 53.90625 49.265625 50.4375 45.09375 
Q 46.96875 40.921875 40.578125 39.3125 
z
" id="DejaVuSans-51"/>
       </defs>
       <use xlink:href="#DejaVuSans-51"/>
       <use x="63.623047" xlink:href="#DejaVuSans-46"/>
       <use x="95.410156" xlink:href="#DejaVuSans-48"/>
      </g>
     </g>
    </g>
    <g id="ytick_4">
     <g id="line2d_13">
      <g>
       <use style="stroke:#000000;stroke-width:0.8;" x="63" xlink:href="#mf12ff19f58" y="71.576191"/>
      </g>
     </g>
     <g id="text_14">
      <!-- 3.2 -->
      <g transform="translate(40.096875 75.37541)scale(0.1 -0.1)">
       <use xlink:href="#DejaVuSans-51"/>
       <use x="63.623047" xlink:href="#DejaVuSans-46"/>
       <use x="95.410156" xlink:href="#DejaVuSans-50"/>
      </g>
     </g>
    </g>
    <g id="ytick_5">
     <g id="line2d_14">
      <g>
       <use style="stroke:#000000;stroke-width:0.8;" x="63" xlink:href="#mf12ff19f58" y="32.089671"/>
      </g>
     </g>
     <g id="text_15">
      <!-- 3.4 -->
      <g transform="translate(40.096875 35.888889)scale(0.1 -0.1)">
       <use xlink:href="#DejaVuSans-51"/>
       <use x="63.623047" xlink:href="#DejaVuSans-46"/>
       <use x="95.410156" xlink:href="#DejaVuSans-52"/>
      </g>
     </g>
    </g>
    <g id="text_16">
     <!-- coef2 -->
     <g transform="translate(34.017187 122.906562)rotate(-90)scale(0.1 -0.1)">
      <defs>
       <path d="M 48.78125 52.59375 
L 48.78125 44.1875 
Q 44.96875 46.296875 41.140625 47.34375 
Q 37.3125 48.390625 33.40625 48.390625 
Q 24.65625 48.390625 19.8125 42.84375 
Q 14.984375 37.3125 14.984375 27.296875 
Q 14.984375 17.28125 19.8125 11.734375 
Q 24.65625 6.203125 33.40625 6.203125 
Q 37.3125 6.203125 41.140625 7.25 
Q 44.96875 8.296875 48.78125 10.40625 
L 48.78125 2.09375 
Q 45.015625 0.34375 40.984375 -0.53125 
Q 36.96875 -1.421875 32.421875 -1.421875 
Q 20.0625 -1.421875 12.78125 6.34375 
Q 5.515625 14.109375 5.515625 27.296875 
Q 5.515625 40.671875 12.859375 48.328125 
Q 20.21875 56 33.015625 56 
Q 37.15625 56 41.109375 55.140625 
Q 45.0625 54.296875 48.78125 52.59375 
z
" id="DejaVuSans-99"/>
       <path d="M 30.609375 48.390625 
Q 23.390625 48.390625 19.1875 42.75 
Q 14.984375 37.109375 14.984375 27.296875 
Q 14.984375 17.484375 19.15625 11.84375 
Q 23.34375 6.203125 30.609375 6.203125 
Q 37.796875 6.203125 41.984375 11.859375 
Q 46.1875 17.53125 46.1875 27.296875 
Q 46.1875 37.015625 41.984375 42.703125 
Q 37.796875 48.390625 30.609375 48.390625 
z
M 30.609375 56 
Q 42.328125 56 49.015625 48.375 
Q 55.71875 40.765625 55.71875 27.296875 
Q 55.71875 13.875 49.015625 6.21875 
Q 42.328125 -1.421875 30.609375 -1.421875 
Q 18.84375 -1.421875 12.171875 6.21875 
Q 5.515625 13.875 5.515625 27.296875 
Q 5.515625 40.765625 12.171875 48.375 
Q 18.84375 56 30.609375 56 
z
" id="DejaVuSans-111"/>
       <path d="M 37.109375 75.984375 
L 37.109375 68.5 
L 28.515625 68.5 
Q 23.6875 68.5 21.796875 66.546875 
Q 19.921875 64.59375 19.921875 59.515625 
L 19.921875 54.6875 
L 34.71875 54.6875 
L 34.71875 47.703125 
L 19.921875 47.703125 
L 19.921875 0 
L 10.890625 0 
L 10.890625 47.703125 
L 2.296875 47.703125 
L 2.296875 54.6875 
L 10.890625 54.6875 
L 10.890625 58.5 
Q 10.890625 67.625 15.140625 71.796875 
Q 19.390625 75.984375 28.609375 75.984375 
z
" id="DejaVuSans-102"/>
      </defs>
      <use xlink:href="#DejaVuSans-99"/>
      <use x="54.980469" xlink:href="#DejaVuSans-111"/>
      <use x="116.162109" xlink:href="#DejaVuSans-101"/>
      <use x="177.685547" xlink:href="#DejaVuSans-102"/>
      <use x="212.890625" xlink:href="#DejaVuSans-50"/>
     </g>
    </g>
   </g>
   <g id="line2d_15">
    <path clip-path="url(#p91ac6c6201)" d="M 80.754545 172.767071 
L 82.538922 172.711849 
L 83.43111 172.705759 
L 84.323298 173.0312 
L 86.107675 172.930848 
L 86.999863 172.414309 
L 87.892051 172.720849 
L 88.784239 172.470661 
L 90.568616 172.522485 
L 92.352992 172.999222 
L 93.24518 172.234529 
L 95.921745 171.933811 
L 96.813933 171.705799 
L 97.706122 171.972453 
L 98.59831 171.883685 
L 99.490498 170.507074 
L 100.382686 170.892606 
L 101.274874 170.703226 
L 102.167063 171.133313 
L 103.059251 170.928283 
L 103.951439 170.936067 
L 104.843627 170.567156 
L 105.735815 169.320627 
L 106.628004 169.250309 
L 107.520192 169.33722 
L 108.41238 169.156202 
L 109.304568 169.285019 
L 110.196757 169.023504 
L 111.088945 168.998326 
L 111.981133 167.547753 
L 113.765509 166.832879 
L 114.657698 165.894903 
L 115.549886 165.498005 
L 116.442074 165.575375 
L 117.334262 165.286394 
L 118.22645 163.769763 
L 119.118639 163.581894 
L 120.010827 162.947776 
L 120.903015 162.864898 
L 123.57958 161.827378 
L 124.471768 160.39924 
L 125.363956 159.875207 
L 126.256144 159.853322 
L 128.040521 158.855168 
L 128.932709 158.744679 
L 129.824897 158.887901 
L 130.717085 157.050024 
L 132.501462 156.223576 
L 134.285838 156.313318 
L 135.178026 156.080361 
L 136.070215 156.181687 
L 136.962403 154.769414 
L 138.746779 153.925912 
L 139.638968 153.87824 
L 140.531156 152.9917 
L 142.315532 152.163239 
L 143.20772 150.752018 
L 144.099909 150.202052 
L 144.992097 149.827457 
L 146.776473 148.358851 
L 147.668661 148.274078 
L 148.56085 147.803184 
L 149.453038 146.807233 
L 150.345226 146.029135 
L 152.129603 145.385915 
L 153.021791 144.86981 
L 153.913979 144.161208 
L 154.806167 143.838984 
L 155.698355 142.925002 
L 160.159296 140.349337 
L 161.943673 138.733689 
L 162.835861 137.779687 
L 165.512426 136.289942 
L 167.296802 135.675911 
L 168.18899 134.794415 
L 172.649931 132.232052 
L 173.54212 131.947033 
L 174.434308 131.062728 
L 178.003061 129.444078 
L 178.895249 129.477615 
L 182.464002 127.24861 
L 183.35619 126.839309 
L 184.248378 126.568311 
L 185.140566 126.505182 
L 186.032755 126.225699 
L 193.17026 122.118775 
L 194.954637 121.468861 
L 195.846825 120.911904 
L 196.739013 120.6895 
L 197.631201 120.346645 
L 199.415578 119.9993 
L 200.307766 119.759223 
L 201.199954 119.325979 
L 202.092143 118.696414 
L 203.876519 118.131836 
L 204.768707 117.485549 
L 205.660895 117.052391 
L 206.553084 116.345046 
L 210.121836 115.003853 
L 211.014025 114.397977 
L 211.906213 114.131642 
L 212.798401 113.388987 
L 214.582778 112.744778 
L 215.474966 112.072259 
L 216.367154 111.725834 
L 217.259342 111.672358 
L 218.15153 111.351441 
L 220.828095 109.776196 
L 221.720283 109.65491 
L 223.50466 108.935859 
L 224.396848 108.671898 
L 225.289036 108.02563 
L 227.073413 107.214065 
L 227.965601 106.981398 
L 229.749977 106.042111 
L 230.642165 105.779921 
L 231.534354 105.198292 
L 235.103106 103.548525 
L 235.995295 102.885903 
L 236.887483 102.537518 
L 237.779671 102.351777 
L 240.456236 100.961519 
L 241.348424 100.723637 
L 242.240612 100.124684 
L 243.1328 99.958535 
L 245.809365 98.457417 
L 246.701553 98.424747 
L 250.270306 96.455118 
L 251.162494 96.126367 
L 253.839059 94.441315 
L 254.731247 94.210787 
L 257.407812 92.726499 
L 258.3 92.428553 
L 259.192188 91.806002 
L 260.976565 91.457331 
L 261.868753 91.044993 
L 263.653129 90.80685 
L 265.437506 89.942852 
L 266.329694 89.603456 
L 267.221882 89.011701 
L 268.11407 88.633407 
L 269.006259 87.830141 
L 269.898447 87.389547 
L 271.682823 86.149039 
L 272.575011 85.949219 
L 274.359388 85.130267 
L 275.251576 85.068134 
L 276.143764 84.527431 
L 277.928141 83.833588 
L 280.604705 82.957905 
L 281.496894 83.079889 
L 285.065646 81.409444 
L 286.850023 80.774492 
L 289.526587 79.396275 
L 290.418776 79.257125 
L 292.203152 78.330929 
L 293.09534 77.685421 
L 294.879717 76.99578 
L 295.771905 77.007879 
L 297.556281 76.09214 
L 298.44847 75.609115 
L 299.340658 75.428581 
L 302.909411 73.754649 
L 303.801599 73.633047 
L 304.693787 73.387581 
L 306.478164 73.061609 
L 307.370352 72.842812 
L 313.615669 70.404668 
L 315.400046 69.639215 
L 316.292234 69.335742 
L 317.184422 69.177116 
L 318.07661 68.664952 
L 319.860987 68.531708 
L 320.753175 68.405401 
L 321.645363 68.061076 
L 322.537551 68.039421 
L 323.42974 67.70637 
L 325.214116 66.56117 
L 328.782869 65.174628 
L 330.567245 64.501741 
L 331.459434 63.976576 
L 332.351622 63.675264 
L 333.24381 63.216457 
L 335.028186 62.643537 
L 335.920375 62.161171 
L 337.704751 61.587675 
L 338.596939 61.583521 
L 340.381316 60.675015 
L 341.273504 60.365952 
L 342.165692 60.251944 
L 343.05788 59.894252 
L 343.950069 59.780859 
L 344.842257 59.498898 
L 347.518821 58.280157 
L 348.41101 58.346907 
L 349.303198 57.836994 
L 351.087574 57.265452 
L 351.979762 56.956386 
L 353.764139 56.759988 
L 354.656327 56.394478 
L 355.548515 56.25211 
L 357.332892 55.491964 
L 358.22508 55.258102 
L 359.117268 54.881588 
L 360.009456 54.704019 
L 360.901645 54.317263 
L 362.686021 53.761254 
L 365.362586 52.743977 
L 368.03915 52.125773 
L 370.715715 51.246957 
L 371.607903 51.018712 
L 373.39228 50.258105 
L 375.176656 49.846497 
L 376.068844 49.4845 
L 376.961032 49.515146 
L 377.853221 49.158076 
L 380.529785 48.798549 
L 381.421974 48.613464 
L 382.314162 48.253054 
L 383.20635 48.286736 
L 384.098538 47.810011 
L 385.882915 47.268709 
L 387.667291 46.800238 
L 388.559479 46.379902 
L 389.451667 46.125832 
L 390.343856 46.149395 
L 391.236044 45.788132 
L 393.912608 45.299524 
L 394.804797 44.837403 
L 395.696985 44.598334 
L 396.589173 44.474444 
L 399.265738 43.790635 
L 400.157926 43.95257 
L 401.050114 43.763754 
L 402.834491 43.249028 
L 406.403243 42.064833 
L 407.295432 41.653785 
L 408.18762 41.476101 
L 412.648561 40.06133 
L 413.540749 39.950915 
L 415.325126 39.425145 
L 419.786067 37.87724 
L 420.678255 37.781889 
L 426.923572 36.021632 
L 427.815761 35.709081 
L 428.707949 35.588148 
L 430.492325 35.187356 
L 432.276702 34.728197 
L 434.061078 33.817888 
L 434.953266 33.591046 
L 435.845455 33.48 
L 435.845455 33.48 
" style="fill:none;stroke:#1f77b4;stroke-linecap:square;stroke-width:1.5;"/>
   </g>
   <g id="line2d_16">
    <path clip-path="url(#p91ac6c6201)" d="M 80.754545 174.351636 
L 82.538922 173.908186 
L 84.323298 174.340076 
L 85.215487 174.290741 
L 86.107675 174.06241 
L 86.999863 174.363874 
L 87.892051 173.936899 
L 88.784239 174.044154 
L 89.676428 174.364165 
L 90.568616 174.459637 
L 92.352992 175.042985 
L 93.24518 175.176382 
L 94.137369 175.521227 
L 95.029557 175.222073 
L 95.921745 175.439623 
L 96.813933 175.400025 
L 98.59831 175.559695 
L 99.490498 174.879914 
L 100.382686 174.771958 
L 101.274874 175.071404 
L 104.843627 175.323572 
L 105.735815 174.831072 
L 106.628004 174.966807 
L 107.520192 174.936722 
L 108.41238 174.790597 
L 109.304568 174.99641 
L 110.196757 174.763229 
L 111.088945 175.027093 
L 111.981133 174.282545 
L 115.549886 172.959772 
L 117.334262 172.682631 
L 118.22645 172.179548 
L 119.118639 171.955128 
L 120.010827 171.913967 
L 120.903015 172.064127 
L 122.687392 171.824327 
L 123.57958 171.960412 
L 124.471768 171.855775 
L 126.256144 171.176142 
L 128.932709 171.044062 
L 129.824897 171.090477 
L 130.717085 170.369351 
L 131.609274 170.184008 
L 132.501462 170.351023 
L 133.39365 170.260497 
L 134.285838 170.01154 
L 135.178026 170.090432 
L 136.070215 170.032069 
L 136.962403 169.538719 
L 137.854591 169.471765 
L 138.746779 169.118374 
L 139.638968 169.078098 
L 140.531156 168.778059 
L 141.423344 168.693183 
L 142.315532 168.964296 
L 144.099909 168.659646 
L 145.884285 167.780773 
L 146.776473 167.52871 
L 147.668661 167.452298 
L 148.56085 167.563892 
L 149.453038 167.067551 
L 150.345226 167.193469 
L 151.237414 166.832241 
L 153.021791 166.631786 
L 153.913979 166.873278 
L 155.698355 166.801594 
L 156.590544 166.750619 
L 158.37492 166.148811 
L 159.267108 165.92512 
L 161.051485 165.653993 
L 161.943673 165.269009 
L 164.620238 165.002546 
L 165.512426 164.625255 
L 166.404614 164.63855 
L 167.296802 164.466951 
L 168.18899 164.456203 
L 169.081179 164.195838 
L 169.973367 164.06134 
L 170.865555 164.183422 
L 173.54212 164.036121 
L 174.434308 163.978194 
L 175.326496 163.604208 
L 176.218684 163.449517 
L 177.110873 163.698836 
L 178.895249 163.453209 
L 180.679625 163.445862 
L 181.571814 162.919047 
L 182.464002 163.204084 
L 184.248378 162.887628 
L 185.140566 162.79562 
L 187.817131 162.147191 
L 188.709319 161.81556 
L 190.493696 161.30316 
L 191.385884 160.993587 
L 193.17026 160.638758 
L 194.954637 160.15889 
L 195.846825 159.883925 
L 196.739013 160.108444 
L 198.52339 160.176796 
L 200.307766 159.625459 
L 201.199954 159.203597 
L 202.984331 158.700498 
L 203.876519 158.740659 
L 204.768707 158.512866 
L 205.660895 158.012844 
L 206.553084 157.827088 
L 207.445272 158.03272 
L 209.229648 157.741389 
L 213.690589 157.679728 
L 215.474966 156.97076 
L 219.043719 156.495985 
L 219.935907 156.653947 
L 221.720283 156.240709 
L 223.50466 156.209524 
L 224.396848 155.787438 
L 225.289036 155.686728 
L 226.181224 155.39699 
L 227.073413 155.369146 
L 228.857789 155.029249 
L 231.534354 154.405223 
L 232.426542 154.212639 
L 234.210918 154.120293 
L 235.103106 153.729126 
L 235.995295 153.961551 
L 236.887483 153.999519 
L 237.779671 153.91832 
L 238.671859 153.668477 
L 243.1328 153.154351 
L 244.024989 153.203026 
L 246.701553 152.639419 
L 247.593741 152.744843 
L 249.378118 152.508503 
L 251.162494 152.302859 
L 252.946871 152.074215 
L 253.839059 151.873432 
L 254.731247 151.532163 
L 255.623435 151.463488 
L 256.515624 151.635685 
L 257.407812 151.572917 
L 258.3 151.318385 
L 259.192188 150.939196 
L 260.084376 150.700371 
L 261.868753 150.621528 
L 263.653129 150.138423 
L 264.545317 149.843466 
L 265.437506 149.967071 
L 266.329694 149.889648 
L 270.790635 148.744517 
L 271.682823 148.362102 
L 272.575011 148.352417 
L 273.4672 148.202632 
L 274.359388 148.240896 
L 277.035952 147.70174 
L 277.928141 147.570839 
L 278.820329 147.299268 
L 280.604705 147.474339 
L 281.496894 147.191796 
L 282.389082 147.154987 
L 283.28127 146.686031 
L 285.065646 146.534257 
L 286.850023 146.621424 
L 287.742211 146.230144 
L 288.634399 146.217353 
L 289.526587 145.947605 
L 292.203152 145.739947 
L 297.556281 144.680833 
L 300.232846 144.685169 
L 302.017222 144.271068 
L 302.909411 144.368163 
L 303.801599 144.044293 
L 306.478164 144.467767 
L 308.26254 144.408864 
L 310.046916 144.02263 
L 311.831293 144.18946 
L 312.723481 143.97753 
L 314.507857 143.341449 
L 316.292234 142.931031 
L 317.184422 142.641902 
L 323.42974 142.511345 
L 324.321928 142.678908 
L 325.214116 142.544992 
L 326.998492 142.02401 
L 327.890681 142.112866 
L 329.675057 141.57958 
L 331.459434 141.583869 
L 333.24381 141.377573 
L 334.135998 141.096506 
L 338.596939 141.14987 
L 341.273504 140.575511 
L 342.165692 140.566033 
L 343.05788 140.408794 
L 343.950069 140.557316 
L 348.41101 140.106048 
L 349.303198 139.777964 
L 350.195386 139.614667 
L 351.087574 139.291624 
L 352.871951 139.466025 
L 353.764139 139.203344 
L 354.656327 139.058978 
L 355.548515 139.185978 
L 358.22508 138.741699 
L 360.009456 138.421575 
L 360.901645 138.356743 
L 361.793833 138.099089 
L 363.578209 137.878407 
L 364.470397 137.512953 
L 365.362586 137.368238 
L 366.254774 137.476803 
L 370.715715 136.635866 
L 371.607903 136.559904 
L 372.500091 136.248402 
L 374.284468 135.982055 
L 376.961032 135.498821 
L 377.853221 135.487371 
L 378.745409 135.630881 
L 383.20635 135.281372 
L 384.990726 135.24474 
L 386.775103 134.963205 
L 390.343856 134.907295 
L 393.912608 134.633176 
L 394.804797 134.420232 
L 395.696985 134.488092 
L 398.37355 134.161222 
L 399.265738 134.12469 
L 400.157926 133.823513 
L 406.403243 133.23725 
L 409.079808 133.0469 
L 409.971996 132.862894 
L 410.864185 132.937847 
L 411.756373 132.779024 
L 412.648561 132.801952 
L 416.217314 132.059896 
L 417.109502 132.067502 
L 418.00169 131.754595 
L 418.893878 131.703659 
L 419.786067 131.784623 
L 421.570443 131.592245 
L 423.35482 131.345292 
L 424.247008 131.247043 
L 425.139196 131.033045 
L 426.031384 131.183747 
L 426.923572 130.901856 
L 429.600137 130.81002 
L 430.492325 130.706971 
L 431.384513 130.727482 
L 433.16889 130.303432 
L 435.845455 129.983092 
L 435.845455 129.983092 
" style="fill:none;stroke:#ff7f0e;stroke-linecap:square;stroke-width:1.5;"/>
   </g>
   <g id="line2d_17">
    <path clip-path="url(#p91ac6c6201)" d="M 80.754545 178.413702 
L 81.646734 178.04256 
L 82.538922 178.071664 
L 84.323298 177.834675 
L 85.215487 178.083624 
L 86.107675 178.181058 
L 86.999863 178.027158 
L 87.892051 177.994423 
L 89.676428 177.180792 
L 90.568616 177.447043 
L 92.352992 177.275212 
L 93.24518 176.349211 
L 94.137369 175.800057 
L 95.029557 175.78725 
L 95.921745 175.980695 
L 96.813933 176.627301 
L 98.59831 176.844669 
L 99.490498 175.876743 
L 103.951439 174.866142 
L 104.843627 174.663785 
L 105.735815 173.213673 
L 106.628004 172.789998 
L 107.520192 172.898574 
L 109.304568 172.728237 
L 110.196757 172.381495 
L 111.088945 172.283388 
L 111.981133 171.287635 
L 113.765509 170.584166 
L 114.657698 170.391489 
L 115.549886 169.869449 
L 116.442074 169.912034 
L 117.334262 169.647481 
L 118.22645 168.415046 
L 119.118639 167.776939 
L 120.010827 167.829335 
L 121.795203 167.715612 
L 122.687392 167.271705 
L 123.57958 167.375468 
L 124.471768 166.299501 
L 125.363956 165.878231 
L 126.256144 165.133758 
L 127.148333 164.556235 
L 128.040521 164.600762 
L 128.932709 163.906879 
L 129.824897 164.019098 
L 130.717085 162.912387 
L 131.609274 162.249361 
L 132.501462 161.979177 
L 133.39365 161.932966 
L 135.178026 161.333827 
L 136.070215 160.966115 
L 136.962403 159.652486 
L 137.854591 158.973206 
L 138.746779 158.469572 
L 139.638968 157.796549 
L 140.531156 157.378411 
L 141.423344 157.121252 
L 142.315532 157.321801 
L 143.20772 155.904502 
L 144.992097 154.986559 
L 145.884285 154.898339 
L 146.776473 154.576458 
L 148.56085 154.124544 
L 149.453038 152.439543 
L 150.345226 151.591203 
L 152.129603 150.238463 
L 157.482732 147.63466 
L 158.37492 146.771876 
L 159.267108 146.211777 
L 160.159296 146.252192 
L 161.051485 145.62177 
L 161.943673 144.218272 
L 162.835861 143.296206 
L 164.620238 142.823723 
L 165.512426 142.106447 
L 166.404614 141.586183 
L 167.296802 141.300439 
L 168.18899 140.702678 
L 169.081179 140.259765 
L 169.973367 140.170291 
L 170.865555 139.912083 
L 173.54212 138.628552 
L 176.218684 136.65607 
L 177.110873 136.018519 
L 178.003061 135.750102 
L 178.895249 135.116808 
L 180.679625 134.202946 
L 181.571814 133.570002 
L 182.464002 133.463923 
L 183.35619 132.743412 
L 184.248378 132.336382 
L 185.140566 131.624509 
L 186.924943 130.795621 
L 187.817131 130.144631 
L 189.601508 129.48979 
L 191.385884 128.689969 
L 192.278072 128.170241 
L 193.17026 127.918597 
L 194.954637 126.89225 
L 195.846825 126.485868 
L 196.739013 125.91813 
L 197.631201 125.837086 
L 199.415578 124.90323 
L 201.199954 123.598451 
L 202.092143 123.242323 
L 202.984331 123.056268 
L 203.876519 122.373172 
L 209.229648 119.641597 
L 211.014025 118.152719 
L 211.906213 117.794151 
L 212.798401 117.264304 
L 214.582778 115.851189 
L 216.367154 114.713226 
L 217.259342 114.479095 
L 218.15153 114.492061 
L 219.043719 113.919823 
L 219.935907 113.556218 
L 220.828095 113.029231 
L 221.720283 112.253703 
L 222.612471 111.688443 
L 223.50466 111.327274 
L 224.396848 111.178415 
L 225.289036 110.71255 
L 226.181224 109.945973 
L 227.965601 108.767909 
L 228.857789 108.478931 
L 229.749977 107.90338 
L 232.426542 106.55947 
L 235.103106 105.048519 
L 239.564048 102.93726 
L 242.240612 101.39279 
L 243.1328 101.129841 
L 244.024989 100.643787 
L 244.917177 100.34495 
L 246.701553 99.341623 
L 248.48593 98.500693 
L 249.378118 98.182995 
L 251.162494 97.000232 
L 252.054683 96.664312 
L 252.946871 96.05255 
L 253.839059 95.87889 
L 254.731247 95.254779 
L 255.623435 94.973415 
L 256.515624 94.920151 
L 259.192188 93.280448 
L 261.868753 91.948481 
L 262.760941 91.631639 
L 263.653129 91.117412 
L 264.545317 91.176449 
L 265.437506 90.832571 
L 266.329694 90.301167 
L 267.221882 89.936798 
L 269.006259 88.81353 
L 270.790635 87.982507 
L 271.682823 87.32311 
L 275.251576 86.612246 
L 278.820329 84.815415 
L 279.712517 84.606259 
L 282.389082 83.506461 
L 284.173458 82.766321 
L 285.065646 82.537774 
L 287.742211 81.281502 
L 288.634399 80.97094 
L 289.526587 80.910408 
L 291.310964 79.863117 
L 292.203152 79.711214 
L 296.664093 77.872679 
L 297.556281 77.369908 
L 298.44847 77.34579 
L 302.017222 75.602083 
L 302.909411 75.046887 
L 304.693787 74.468982 
L 305.585975 74.322505 
L 306.478164 73.948001 
L 308.26254 73.472974 
L 309.154728 73.079766 
L 310.046916 72.942587 
L 310.939105 72.41906 
L 312.723481 71.860215 
L 313.615669 71.225461 
L 314.507857 71.069915 
L 315.400046 70.638396 
L 316.292234 70.527213 
L 320.753175 68.676627 
L 321.645363 68.829977 
L 322.537551 68.279111 
L 324.321928 67.623677 
L 326.106304 67.191178 
L 327.890681 66.453905 
L 330.567245 64.846468 
L 331.459434 64.777036 
L 332.351622 64.229723 
L 333.24381 64.194869 
L 334.135998 63.735592 
L 338.596939 62.296808 
L 339.489127 62.15952 
L 341.273504 61.184483 
L 342.165692 60.714875 
L 343.950069 60.42053 
L 344.842257 60.111901 
L 347.518821 59.89215 
L 348.41101 59.674391 
L 349.303198 59.668044 
L 352.871951 58.178751 
L 354.656327 57.747006 
L 355.548515 57.385229 
L 356.440704 57.253434 
L 358.22508 56.644643 
L 359.117268 56.525607 
L 360.009456 56.112538 
L 360.901645 55.533181 
L 361.793833 55.310237 
L 364.470397 54.258263 
L 365.362586 54.061338 
L 366.254774 53.681166 
L 367.146962 53.149567 
L 368.931339 52.301822 
L 369.823527 51.862537 
L 372.500091 51.229297 
L 373.39228 51.22607 
L 374.284468 51.065387 
L 375.176656 51.060828 
L 377.853221 49.785906 
L 379.637597 49.284007 
L 380.529785 48.841452 
L 381.421974 48.762533 
L 382.314162 48.545355 
L 383.20635 48.208081 
L 384.990726 47.828639 
L 385.882915 47.943121 
L 386.775103 47.783476 
L 390.343856 46.447389 
L 393.02042 45.423812 
L 393.912608 45.405619 
L 397.481361 44.498299 
L 400.157926 43.422869 
L 402.834491 42.882587 
L 407.295432 41.588519 
L 409.079808 41.120585 
L 409.971996 41.069762 
L 410.864185 40.888681 
L 411.756373 40.534662 
L 412.648561 40.364621 
L 413.540749 40.071097 
L 415.325126 39.899252 
L 417.109502 39.127229 
L 419.786067 38.164131 
L 420.678255 38.134999 
L 422.462631 37.65768 
L 423.35482 37.299358 
L 424.247008 37.110262 
L 425.139196 37.098259 
L 426.031384 36.888382 
L 426.923572 37.010982 
L 428.707949 36.214189 
L 429.600137 36.00939 
L 430.492325 35.675142 
L 433.16889 35.330802 
L 434.953266 35.164765 
L 435.845455 34.754176 
L 435.845455 34.754176 
" style="fill:none;stroke:#2ca02c;stroke-linecap:square;stroke-width:1.5;"/>
   </g>
   <g id="line2d_18">
    <path clip-path="url(#p91ac6c6201)" d="M 80.754545 184.661991 
L 81.646734 184.68 
L 84.323298 184.005624 
L 85.215487 183.667361 
L 86.107675 183.853359 
L 86.999863 183.836354 
L 88.784239 184.258465 
L 89.676428 184.40322 
L 91.460804 184.249456 
L 92.352992 184.350556 
L 93.24518 183.734529 
L 95.921745 183.473173 
L 97.706122 183.831331 
L 98.59831 183.683473 
L 99.490498 182.915722 
L 100.382686 182.917788 
L 101.274874 182.583995 
L 102.167063 182.090766 
L 103.951439 181.97309 
L 104.843627 182.327101 
L 105.735815 180.481433 
L 106.628004 179.799917 
L 109.304568 179.511756 
L 111.088945 178.840138 
L 111.981133 177.49331 
L 112.873321 177.233309 
L 113.765509 177.153076 
L 115.549886 176.433808 
L 116.442074 176.507982 
L 117.334262 176.252307 
L 118.22645 174.905953 
L 119.118639 174.58097 
L 120.010827 174.481838 
L 121.795203 173.892381 
L 122.687392 173.697151 
L 123.57958 173.092345 
L 124.471768 171.828622 
L 126.256144 171.068803 
L 127.148333 171.047972 
L 128.040521 170.864945 
L 128.932709 170.980293 
L 129.824897 170.964676 
L 130.717085 169.763366 
L 132.501462 169.505558 
L 135.178026 168.149687 
L 136.070215 168.156033 
L 136.962403 166.995332 
L 137.854591 166.290171 
L 140.531156 165.704598 
L 141.423344 165.448134 
L 142.315532 165.477812 
L 143.20772 164.405941 
L 144.099909 163.95555 
L 144.992097 162.950319 
L 145.884285 162.265095 
L 147.668661 161.334175 
L 148.56085 161.196329 
L 149.453038 160.220999 
L 150.345226 159.626447 
L 151.237414 159.25942 
L 153.021791 158.790866 
L 154.806167 158.265203 
L 157.482732 155.972048 
L 158.37492 155.476654 
L 159.267108 154.712687 
L 160.159296 154.600378 
L 161.051485 154.368576 
L 161.943673 153.190292 
L 162.835861 152.581769 
L 163.728049 152.131436 
L 164.620238 151.527492 
L 165.512426 151.245971 
L 166.404614 151.172958 
L 167.296802 150.709989 
L 168.18899 149.859288 
L 169.973367 149.295846 
L 170.865555 148.6469 
L 171.757743 148.328872 
L 172.649931 147.587303 
L 173.54212 147.312385 
L 174.434308 146.283794 
L 176.218684 145.612053 
L 177.110873 145.146203 
L 178.003061 144.522105 
L 179.787437 143.996187 
L 180.679625 143.30093 
L 181.571814 142.834031 
L 182.464002 142.112098 
L 184.248378 141.218265 
L 185.140566 141.045087 
L 186.924943 140.216951 
L 188.709319 138.808174 
L 191.385884 138.011313 
L 192.278072 137.759291 
L 193.17026 137.318597 
L 194.954637 136.155438 
L 196.739013 135.431039 
L 197.631201 135.340881 
L 198.52339 134.782177 
L 199.415578 134.434237 
L 200.307766 133.525711 
L 202.092143 132.542965 
L 202.984331 132.033687 
L 203.876519 131.691276 
L 204.768707 131.129287 
L 205.660895 130.763954 
L 206.553084 130.152218 
L 207.445272 129.707292 
L 208.33746 129.51739 
L 209.229648 129.150825 
L 210.121836 128.974769 
L 211.014025 128.589702 
L 211.906213 128.448228 
L 214.582778 127.187454 
L 216.367154 126.371895 
L 217.259342 125.757297 
L 218.15153 125.405484 
L 219.043719 124.564085 
L 219.935907 124.051196 
L 220.828095 123.676754 
L 221.720283 123.168112 
L 222.612471 122.856583 
L 223.50466 122.261918 
L 224.396848 121.813938 
L 225.289036 120.883267 
L 227.073413 119.933688 
L 227.965601 119.639411 
L 228.857789 119.466194 
L 229.749977 118.956233 
L 230.642165 118.644513 
L 231.534354 118.195149 
L 232.426542 117.555174 
L 241.348424 113.650518 
L 242.240612 113.128208 
L 243.1328 112.745508 
L 244.024989 112.572519 
L 244.917177 112.264002 
L 245.809365 111.533541 
L 246.701553 111.419772 
L 248.48593 110.531386 
L 249.378118 110.155262 
L 250.270306 109.997251 
L 251.162494 109.517112 
L 252.054683 108.77356 
L 256.515624 106.923497 
L 257.407812 106.290102 
L 258.3 105.987831 
L 259.192188 105.50587 
L 260.976565 104.31531 
L 262.760941 103.326139 
L 263.653129 103.015951 
L 264.545317 102.414445 
L 265.437506 102.180474 
L 266.329694 101.53515 
L 267.221882 101.186075 
L 268.11407 100.981403 
L 269.006259 101.04457 
L 272.575011 99.956672 
L 273.4672 99.898529 
L 274.359388 99.583371 
L 275.251576 99.069515 
L 277.035952 98.576554 
L 282.389082 95.981478 
L 283.28127 95.973177 
L 286.850023 94.390615 
L 287.742211 94.016277 
L 288.634399 93.836741 
L 289.526587 93.490846 
L 291.310964 93.0167 
L 292.203152 92.52559 
L 293.09534 92.217385 
L 293.987529 91.726485 
L 294.879717 91.614058 
L 295.771905 91.255388 
L 296.664093 91.121471 
L 297.556281 90.517182 
L 299.340658 89.625079 
L 300.232846 89.398629 
L 301.125034 88.942689 
L 302.017222 88.981729 
L 302.909411 88.567732 
L 303.801599 88.401232 
L 304.693787 87.977147 
L 308.26254 87.024418 
L 309.154728 86.396495 
L 310.046916 86.42479 
L 310.939105 86.071727 
L 311.831293 85.456218 
L 312.723481 85.208448 
L 314.507857 85.125312 
L 315.400046 84.962182 
L 316.292234 84.578977 
L 318.968799 83.916986 
L 320.753175 83.36889 
L 321.645363 83.18322 
L 322.537551 82.739105 
L 326.106304 81.528104 
L 329.675057 79.955324 
L 330.567245 79.976354 
L 331.459434 79.701958 
L 332.351622 79.199376 
L 334.135998 78.876083 
L 335.028186 78.716829 
L 336.812563 78.117527 
L 337.704751 78.040077 
L 338.596939 77.696318 
L 339.489127 77.176108 
L 341.273504 76.674822 
L 343.05788 76.380732 
L 346.626633 74.910162 
L 348.41101 74.505697 
L 349.303198 74.060589 
L 352.871951 73.05483 
L 353.764139 73.067629 
L 354.656327 72.877236 
L 355.548515 72.916966 
L 357.332892 72.142017 
L 358.22508 71.980572 
L 359.117268 71.701061 
L 361.793833 70.293257 
L 364.470397 69.486051 
L 365.362586 69.08233 
L 371.607903 67.298946 
L 372.500091 67.274038 
L 373.39228 67.064395 
L 374.284468 66.707121 
L 375.176656 66.207762 
L 377.853221 65.46639 
L 378.745409 65.160143 
L 381.421974 64.565076 
L 384.098538 63.507894 
L 384.990726 63.189766 
L 387.667291 62.800901 
L 388.559479 62.478314 
L 389.451667 61.846661 
L 393.02042 61.019251 
L 393.912608 60.642297 
L 394.804797 60.463263 
L 395.696985 60.448592 
L 397.481361 59.901622 
L 398.37355 59.440562 
L 399.265738 59.15824 
L 400.157926 58.677958 
L 401.942302 58.310231 
L 404.618867 57.298494 
L 405.511055 57.319905 
L 407.295432 56.650168 
L 410.864185 55.312601 
L 412.648561 54.885055 
L 414.432937 54.26187 
L 415.325126 54.008772 
L 417.109502 53.700741 
L 418.893878 53.228226 
L 419.786067 53.17636 
L 421.570443 52.626637 
L 422.462631 52.163177 
L 425.139196 51.359911 
L 426.031384 51.161612 
L 426.923572 50.71866 
L 427.815761 50.518866 
L 428.707949 50.130477 
L 429.600137 50.042942 
L 432.276702 49.163812 
L 433.16889 49.059905 
L 434.953266 48.369376 
L 435.845455 48.257373 
L 435.845455 48.257373 
" style="fill:none;stroke:#d62728;stroke-linecap:square;stroke-width:1.5;"/>
   </g>
   <g id="line2d_19"/>
   <g id="line2d_20"/>
   <g id="line2d_21"/>
   <g id="line2d_22"/>
   <g id="patch_3">
    <path d="M 63 192.24 
L 63 25.92 
" style="fill:none;stroke:#000000;stroke-linecap:square;stroke-linejoin:miter;stroke-width:0.8;"/>
   </g>
   <g id="patch_4">
    <path d="M 63 192.24 
L 453.6 192.24 
" style="fill:none;stroke:#000000;stroke-linecap:square;stroke-linejoin:miter;stroke-width:0.8;"/>
   </g>
   <g id="text_17">
    <!-- modeltype=full, labormarket=unbiased -->
    <g transform="translate(139.235625 19.92)scale(0.12 -0.12)">
     <defs>
      <path d="M 45.40625 46.390625 
L 45.40625 75.984375 
L 54.390625 75.984375 
L 54.390625 0 
L 45.40625 0 
L 45.40625 8.203125 
Q 42.578125 3.328125 38.25 0.953125 
Q 33.9375 -1.421875 27.875 -1.421875 
Q 17.96875 -1.421875 11.734375 6.484375 
Q 5.515625 14.40625 5.515625 27.296875 
Q 5.515625 40.1875 11.734375 48.09375 
Q 17.96875 56 27.875 56 
Q 33.9375 56 38.25 53.625 
Q 42.578125 51.265625 45.40625 46.390625 
z
M 14.796875 27.296875 
Q 14.796875 17.390625 18.875 11.75 
Q 22.953125 6.109375 30.078125 6.109375 
Q 37.203125 6.109375 41.296875 11.75 
Q 45.40625 17.390625 45.40625 27.296875 
Q 45.40625 37.203125 41.296875 42.84375 
Q 37.203125 48.484375 30.078125 48.484375 
Q 22.953125 48.484375 18.875 42.84375 
Q 14.796875 37.203125 14.796875 27.296875 
z
" id="DejaVuSans-100"/>
      <path d="M 9.421875 75.984375 
L 18.40625 75.984375 
L 18.40625 0 
L 9.421875 0 
z
" id="DejaVuSans-108"/>
      <path d="M 32.171875 -5.078125 
Q 28.375 -14.84375 24.75 -17.8125 
Q 21.140625 -20.796875 15.09375 -20.796875 
L 7.90625 -20.796875 
L 7.90625 -13.28125 
L 13.1875 -13.28125 
Q 16.890625 -13.28125 18.9375 -11.515625 
Q 21 -9.765625 23.484375 -3.21875 
L 25.09375 0.875 
L 2.984375 54.6875 
L 12.5 54.6875 
L 29.59375 11.921875 
L 46.6875 54.6875 
L 56.203125 54.6875 
z
" id="DejaVuSans-121"/>
      <path d="M 18.109375 8.203125 
L 18.109375 -20.796875 
L 9.078125 -20.796875 
L 9.078125 54.6875 
L 18.109375 54.6875 
L 18.109375 46.390625 
Q 20.953125 51.265625 25.265625 53.625 
Q 29.59375 56 35.59375 56 
Q 45.5625 56 51.78125 48.09375 
Q 58.015625 40.1875 58.015625 27.296875 
Q 58.015625 14.40625 51.78125 6.484375 
Q 45.5625 -1.421875 35.59375 -1.421875 
Q 29.59375 -1.421875 25.265625 0.953125 
Q 20.953125 3.328125 18.109375 8.203125 
z
M 48.6875 27.296875 
Q 48.6875 37.203125 44.609375 42.84375 
Q 40.53125 48.484375 33.40625 48.484375 
Q 26.265625 48.484375 22.1875 42.84375 
Q 18.109375 37.203125 18.109375 27.296875 
Q 18.109375 17.390625 22.1875 11.75 
Q 26.265625 6.109375 33.40625 6.109375 
Q 40.53125 6.109375 44.609375 11.75 
Q 48.6875 17.390625 48.6875 27.296875 
z
" id="DejaVuSans-112"/>
      <path d="M 10.59375 45.40625 
L 73.1875 45.40625 
L 73.1875 37.203125 
L 10.59375 37.203125 
z
M 10.59375 25.484375 
L 73.1875 25.484375 
L 73.1875 17.1875 
L 10.59375 17.1875 
z
" id="DejaVuSans-61"/>
      <path d="M 8.5 21.578125 
L 8.5 54.6875 
L 17.484375 54.6875 
L 17.484375 21.921875 
Q 17.484375 14.15625 20.5 10.265625 
Q 23.53125 6.390625 29.59375 6.390625 
Q 36.859375 6.390625 41.078125 11.03125 
Q 45.3125 15.671875 45.3125 23.6875 
L 45.3125 54.6875 
L 54.296875 54.6875 
L 54.296875 0 
L 45.3125 0 
L 45.3125 8.40625 
Q 42.046875 3.421875 37.71875 1 
Q 33.40625 -1.421875 27.6875 -1.421875 
Q 18.265625 -1.421875 13.375 4.4375 
Q 8.5 10.296875 8.5 21.578125 
z
M 31.109375 56 
z
" id="DejaVuSans-117"/>
      <path d="M 11.71875 12.40625 
L 22.015625 12.40625 
L 22.015625 4 
L 14.015625 -11.625 
L 7.71875 -11.625 
L 11.71875 4 
z
" id="DejaVuSans-44"/>
      <path id="DejaVuSans-32"/>
      <path d="M 34.28125 27.484375 
Q 23.390625 27.484375 19.1875 25 
Q 14.984375 22.515625 14.984375 16.5 
Q 14.984375 11.71875 18.140625 8.90625 
Q 21.296875 6.109375 26.703125 6.109375 
Q 34.1875 6.109375 38.703125 11.40625 
Q 43.21875 16.703125 43.21875 25.484375 
L 43.21875 27.484375 
z
M 52.203125 31.203125 
L 52.203125 0 
L 43.21875 0 
L 43.21875 8.296875 
Q 40.140625 3.328125 35.546875 0.953125 
Q 30.953125 -1.421875 24.3125 -1.421875 
Q 15.921875 -1.421875 10.953125 3.296875 
Q 6 8.015625 6 15.921875 
Q 6 25.140625 12.171875 29.828125 
Q 18.359375 34.515625 30.609375 34.515625 
L 43.21875 34.515625 
L 43.21875 35.40625 
Q 43.21875 41.609375 39.140625 45 
Q 35.0625 48.390625 27.6875 48.390625 
Q 23 48.390625 18.546875 47.265625 
Q 14.109375 46.140625 10.015625 43.890625 
L 10.015625 52.203125 
Q 14.9375 54.109375 19.578125 55.046875 
Q 24.21875 56 28.609375 56 
Q 40.484375 56 46.34375 49.84375 
Q 52.203125 43.703125 52.203125 31.203125 
z
" id="DejaVuSans-97"/>
      <path d="M 48.6875 27.296875 
Q 48.6875 37.203125 44.609375 42.84375 
Q 40.53125 48.484375 33.40625 48.484375 
Q 26.265625 48.484375 22.1875 42.84375 
Q 18.109375 37.203125 18.109375 27.296875 
Q 18.109375 17.390625 22.1875 11.75 
Q 26.265625 6.109375 33.40625 6.109375 
Q 40.53125 6.109375 44.609375 11.75 
Q 48.6875 17.390625 48.6875 27.296875 
z
M 18.109375 46.390625 
Q 20.953125 51.265625 25.265625 53.625 
Q 29.59375 56 35.59375 56 
Q 45.5625 56 51.78125 48.09375 
Q 58.015625 40.1875 58.015625 27.296875 
Q 58.015625 14.40625 51.78125 6.484375 
Q 45.5625 -1.421875 35.59375 -1.421875 
Q 29.59375 -1.421875 25.265625 0.953125 
Q 20.953125 3.328125 18.109375 8.203125 
L 18.109375 0 
L 9.078125 0 
L 9.078125 75.984375 
L 18.109375 75.984375 
z
" id="DejaVuSans-98"/>
      <path d="M 41.109375 46.296875 
Q 39.59375 47.171875 37.8125 47.578125 
Q 36.03125 48 33.890625 48 
Q 26.265625 48 22.1875 43.046875 
Q 18.109375 38.09375 18.109375 28.8125 
L 18.109375 0 
L 9.078125 0 
L 9.078125 54.6875 
L 18.109375 54.6875 
L 18.109375 46.1875 
Q 20.953125 51.171875 25.484375 53.578125 
Q 30.03125 56 36.53125 56 
Q 37.453125 56 38.578125 55.875 
Q 39.703125 55.765625 41.0625 55.515625 
z
" id="DejaVuSans-114"/>
      <path d="M 9.078125 75.984375 
L 18.109375 75.984375 
L 18.109375 31.109375 
L 44.921875 54.6875 
L 56.390625 54.6875 
L 27.390625 29.109375 
L 57.625 0 
L 45.90625 0 
L 18.109375 26.703125 
L 18.109375 0 
L 9.078125 0 
z
" id="DejaVuSans-107"/>
      <path d="M 54.890625 33.015625 
L 54.890625 0 
L 45.90625 0 
L 45.90625 32.71875 
Q 45.90625 40.484375 42.875 44.328125 
Q 39.84375 48.1875 33.796875 48.1875 
Q 26.515625 48.1875 22.3125 43.546875 
Q 18.109375 38.921875 18.109375 30.90625 
L 18.109375 0 
L 9.078125 0 
L 9.078125 54.6875 
L 18.109375 54.6875 
L 18.109375 46.1875 
Q 21.34375 51.125 25.703125 53.5625 
Q 30.078125 56 35.796875 56 
Q 45.21875 56 50.046875 50.171875 
Q 54.890625 44.34375 54.890625 33.015625 
z
" id="DejaVuSans-110"/>
      <path d="M 44.28125 53.078125 
L 44.28125 44.578125 
Q 40.484375 46.53125 36.375 47.5 
Q 32.28125 48.484375 27.875 48.484375 
Q 21.1875 48.484375 17.84375 46.4375 
Q 14.5 44.390625 14.5 40.28125 
Q 14.5 37.15625 16.890625 35.375 
Q 19.28125 33.59375 26.515625 31.984375 
L 29.59375 31.296875 
Q 39.15625 29.25 43.1875 25.515625 
Q 47.21875 21.78125 47.21875 15.09375 
Q 47.21875 7.46875 41.1875 3.015625 
Q 35.15625 -1.421875 24.609375 -1.421875 
Q 20.21875 -1.421875 15.453125 -0.5625 
Q 10.6875 0.296875 5.421875 2 
L 5.421875 11.28125 
Q 10.40625 8.6875 15.234375 7.390625 
Q 20.0625 6.109375 24.8125 6.109375 
Q 31.15625 6.109375 34.5625 8.28125 
Q 37.984375 10.453125 37.984375 14.40625 
Q 37.984375 18.0625 35.515625 20.015625 
Q 33.0625 21.96875 24.703125 23.78125 
L 21.578125 24.515625 
Q 13.234375 26.265625 9.515625 29.90625 
Q 5.8125 33.546875 5.8125 39.890625 
Q 5.8125 47.609375 11.28125 51.796875 
Q 16.75 56 26.8125 56 
Q 31.78125 56 36.171875 55.265625 
Q 40.578125 54.546875 44.28125 53.078125 
z
" id="DejaVuSans-115"/>
     </defs>
     <use xlink:href="#DejaVuSans-109"/>
     <use x="97.412109" xlink:href="#DejaVuSans-111"/>
     <use x="158.59375" xlink:href="#DejaVuSans-100"/>
     <use x="222.070312" xlink:href="#DejaVuSans-101"/>
     <use x="283.59375" xlink:href="#DejaVuSans-108"/>
     <use x="311.376953" xlink:href="#DejaVuSans-116"/>
     <use x="350.585938" xlink:href="#DejaVuSans-121"/>
     <use x="409.765625" xlink:href="#DejaVuSans-112"/>
     <use x="473.242188" xlink:href="#DejaVuSans-101"/>
     <use x="534.765625" xlink:href="#DejaVuSans-61"/>
     <use x="618.554688" xlink:href="#DejaVuSans-102"/>
     <use x="653.759766" xlink:href="#DejaVuSans-117"/>
     <use x="717.138672" xlink:href="#DejaVuSans-108"/>
     <use x="744.921875" xlink:href="#DejaVuSans-108"/>
     <use x="772.705078" xlink:href="#DejaVuSans-44"/>
     <use x="804.492188" xlink:href="#DejaVuSans-32"/>
     <use x="836.279297" xlink:href="#DejaVuSans-108"/>
     <use x="864.0625" xlink:href="#DejaVuSans-97"/>
     <use x="925.341797" xlink:href="#DejaVuSans-98"/>
     <use x="988.818359" xlink:href="#DejaVuSans-111"/>
     <use x="1050" xlink:href="#DejaVuSans-114"/>
     <use x="1089.363281" xlink:href="#DejaVuSans-109"/>
     <use x="1186.775391" xlink:href="#DejaVuSans-97"/>
     <use x="1248.054688" xlink:href="#DejaVuSans-114"/>
     <use x="1289.167969" xlink:href="#DejaVuSans-107"/>
     <use x="1343.453125" xlink:href="#DejaVuSans-101"/>
     <use x="1404.976562" xlink:href="#DejaVuSans-116"/>
     <use x="1444.185547" xlink:href="#DejaVuSans-61"/>
     <use x="1527.974609" xlink:href="#DejaVuSans-117"/>
     <use x="1591.353516" xlink:href="#DejaVuSans-110"/>
     <use x="1654.732422" xlink:href="#DejaVuSans-98"/>
     <use x="1718.208984" xlink:href="#DejaVuSans-105"/>
     <use x="1745.992188" xlink:href="#DejaVuSans-97"/>
     <use x="1807.271484" xlink:href="#DejaVuSans-115"/>
     <use x="1859.371094" xlink:href="#DejaVuSans-101"/>
     <use x="1920.894531" xlink:href="#DejaVuSans-100"/>
    </g>
   </g>
   <g id="legend_1">
    <g id="patch_5">
     <path d="M 70 107.58875 
L 235.407813 107.58875 
Q 237.407813 107.58875 237.407813 105.58875 
L 237.407813 32.92 
Q 237.407813 30.92 235.407813 30.92 
L 70 30.92 
Q 68 30.92 68 32.92 
L 68 105.58875 
Q 68 107.58875 70 107.58875 
z
" style="fill:#ffffff;opacity:0.8;stroke:#cccccc;stroke-linejoin:miter;"/>
    </g>
    <g id="text_18">
     <!-- scenario -->
     <g transform="translate(131.536719 42.518438)scale(0.1 -0.1)">
      <use xlink:href="#DejaVuSans-115"/>
      <use x="52.099609" xlink:href="#DejaVuSans-99"/>
      <use x="107.080078" xlink:href="#DejaVuSans-101"/>
      <use x="168.603516" xlink:href="#DejaVuSans-110"/>
      <use x="231.982422" xlink:href="#DejaVuSans-97"/>
      <use x="293.261719" xlink:href="#DejaVuSans-114"/>
      <use x="334.375" xlink:href="#DejaVuSans-105"/>
      <use x="362.158203" xlink:href="#DejaVuSans-111"/>
     </g>
    </g>
    <g id="line2d_23">
     <path d="M 72 53.696562 
L 92 53.696562 
" style="fill:none;stroke:#1f77b4;stroke-linecap:square;stroke-width:1.5;"/>
    </g>
    <g id="line2d_24"/>
    <g id="text_19">
     <!-- onlylow -->
     <g transform="translate(100 57.196562)scale(0.1 -0.1)">
      <defs>
       <path d="M 4.203125 54.6875 
L 13.1875 54.6875 
L 24.421875 12.015625 
L 35.59375 54.6875 
L 46.1875 54.6875 
L 57.421875 12.015625 
L 68.609375 54.6875 
L 77.59375 54.6875 
L 63.28125 0 
L 52.6875 0 
L 40.921875 44.828125 
L 29.109375 0 
L 18.5 0 
z
" id="DejaVuSans-119"/>
      </defs>
      <use xlink:href="#DejaVuSans-111"/>
      <use x="61.181641" xlink:href="#DejaVuSans-110"/>
      <use x="124.560547" xlink:href="#DejaVuSans-108"/>
      <use x="152.34375" xlink:href="#DejaVuSans-121"/>
      <use x="211.523438" xlink:href="#DejaVuSans-108"/>
      <use x="239.306641" xlink:href="#DejaVuSans-111"/>
      <use x="300.488281" xlink:href="#DejaVuSans-119"/>
     </g>
    </g>
    <g id="line2d_25">
     <path d="M 72 68.374687 
L 92 68.374687 
" style="fill:none;stroke:#ff7f0e;stroke-linecap:square;stroke-width:1.5;"/>
    </g>
    <g id="line2d_26"/>
    <g id="text_20">
     <!-- onlyhigh -->
     <g transform="translate(100 71.874687)scale(0.1 -0.1)">
      <defs>
       <path d="M 54.890625 33.015625 
L 54.890625 0 
L 45.90625 0 
L 45.90625 32.71875 
Q 45.90625 40.484375 42.875 44.328125 
Q 39.84375 48.1875 33.796875 48.1875 
Q 26.515625 48.1875 22.3125 43.546875 
Q 18.109375 38.921875 18.109375 30.90625 
L 18.109375 0 
L 9.078125 0 
L 9.078125 75.984375 
L 18.109375 75.984375 
L 18.109375 46.1875 
Q 21.34375 51.125 25.703125 53.5625 
Q 30.078125 56 35.796875 56 
Q 45.21875 56 50.046875 50.171875 
Q 54.890625 44.34375 54.890625 33.015625 
z
" id="DejaVuSans-104"/>
       <path d="M 45.40625 27.984375 
Q 45.40625 37.75 41.375 43.109375 
Q 37.359375 48.484375 30.078125 48.484375 
Q 22.859375 48.484375 18.828125 43.109375 
Q 14.796875 37.75 14.796875 27.984375 
Q 14.796875 18.265625 18.828125 12.890625 
Q 22.859375 7.515625 30.078125 7.515625 
Q 37.359375 7.515625 41.375 12.890625 
Q 45.40625 18.265625 45.40625 27.984375 
z
M 54.390625 6.78125 
Q 54.390625 -7.171875 48.1875 -13.984375 
Q 42 -20.796875 29.203125 -20.796875 
Q 24.46875 -20.796875 20.265625 -20.09375 
Q 16.0625 -19.390625 12.109375 -17.921875 
L 12.109375 -9.1875 
Q 16.0625 -11.328125 19.921875 -12.34375 
Q 23.78125 -13.375 27.78125 -13.375 
Q 36.625 -13.375 41.015625 -8.765625 
Q 45.40625 -4.15625 45.40625 5.171875 
L 45.40625 9.625 
Q 42.625 4.78125 38.28125 2.390625 
Q 33.9375 0 27.875 0 
Q 17.828125 0 11.671875 7.65625 
Q 5.515625 15.328125 5.515625 27.984375 
Q 5.515625 40.671875 11.671875 48.328125 
Q 17.828125 56 27.875 56 
Q 33.9375 56 38.28125 53.609375 
Q 42.625 51.21875 45.40625 46.390625 
L 45.40625 54.6875 
L 54.390625 54.6875 
z
" id="DejaVuSans-103"/>
      </defs>
      <use xlink:href="#DejaVuSans-111"/>
      <use x="61.181641" xlink:href="#DejaVuSans-110"/>
      <use x="124.560547" xlink:href="#DejaVuSans-108"/>
      <use x="152.34375" xlink:href="#DejaVuSans-121"/>
      <use x="211.523438" xlink:href="#DejaVuSans-104"/>
      <use x="274.902344" xlink:href="#DejaVuSans-105"/>
      <use x="302.685547" xlink:href="#DejaVuSans-103"/>
      <use x="366.162109" xlink:href="#DejaVuSans-104"/>
     </g>
    </g>
    <g id="line2d_27">
     <path d="M 72 83.052813 
L 92 83.052813 
" style="fill:none;stroke:#2ca02c;stroke-linecap:square;stroke-width:1.5;"/>
    </g>
    <g id="line2d_28"/>
    <g id="text_21">
     <!-- balanced -->
     <g transform="translate(100 86.552813)scale(0.1 -0.1)">
      <use xlink:href="#DejaVuSans-98"/>
      <use x="63.476562" xlink:href="#DejaVuSans-97"/>
      <use x="124.755859" xlink:href="#DejaVuSans-108"/>
      <use x="152.539062" xlink:href="#DejaVuSans-97"/>
      <use x="213.818359" xlink:href="#DejaVuSans-110"/>
      <use x="277.197266" xlink:href="#DejaVuSans-99"/>
      <use x="332.177734" xlink:href="#DejaVuSans-101"/>
      <use x="393.701172" xlink:href="#DejaVuSans-100"/>
     </g>
    </g>
    <g id="line2d_29">
     <path d="M 72 97.730938 
L 92 97.730938 
" style="fill:none;stroke:#d62728;stroke-linecap:square;stroke-width:1.5;"/>
    </g>
    <g id="line2d_30"/>
    <g id="text_22">
     <!-- balanced_errors_penalized -->
     <g transform="translate(100 101.230938)scale(0.1 -0.1)">
      <defs>
       <path d="M 50.984375 -16.609375 
L 50.984375 -23.578125 
L -0.984375 -23.578125 
L -0.984375 -16.609375 
z
" id="DejaVuSans-95"/>
       <path d="M 5.515625 54.6875 
L 48.1875 54.6875 
L 48.1875 46.484375 
L 14.40625 7.171875 
L 48.1875 7.171875 
L 48.1875 0 
L 4.296875 0 
L 4.296875 8.203125 
L 38.09375 47.515625 
L 5.515625 47.515625 
z
" id="DejaVuSans-122"/>
      </defs>
      <use xlink:href="#DejaVuSans-98"/>
      <use x="63.476562" xlink:href="#DejaVuSans-97"/>
      <use x="124.755859" xlink:href="#DejaVuSans-108"/>
      <use x="152.539062" xlink:href="#DejaVuSans-97"/>
      <use x="213.818359" xlink:href="#DejaVuSans-110"/>
      <use x="277.197266" xlink:href="#DejaVuSans-99"/>
      <use x="332.177734" xlink:href="#DejaVuSans-101"/>
      <use x="393.701172" xlink:href="#DejaVuSans-100"/>
      <use x="457.177734" xlink:href="#DejaVuSans-95"/>
      <use x="507.177734" xlink:href="#DejaVuSans-101"/>
      <use x="568.701172" xlink:href="#DejaVuSans-114"/>
      <use x="608.064453" xlink:href="#DejaVuSans-114"/>
      <use x="646.927734" xlink:href="#DejaVuSans-111"/>
      <use x="708.109375" xlink:href="#DejaVuSans-114"/>
      <use x="749.222656" xlink:href="#DejaVuSans-115"/>
      <use x="801.322266" xlink:href="#DejaVuSans-95"/>
      <use x="851.322266" xlink:href="#DejaVuSans-112"/>
      <use x="914.798828" xlink:href="#DejaVuSans-101"/>
      <use x="976.322266" xlink:href="#DejaVuSans-110"/>
      <use x="1039.701172" xlink:href="#DejaVuSans-97"/>
      <use x="1100.980469" xlink:href="#DejaVuSans-108"/>
      <use x="1128.763672" xlink:href="#DejaVuSans-105"/>
      <use x="1156.546875" xlink:href="#DejaVuSans-122"/>
      <use x="1209.037109" xlink:href="#DejaVuSans-101"/>
      <use x="1270.560547" xlink:href="#DejaVuSans-100"/>
     </g>
    </g>
   </g>
  </g>
 </g>
 <defs>
  <clipPath id="p91ac6c6201">
   <rect height="166.32" width="390.6" x="63" y="25.92"/>
  </clipPath>
 </defs>
</svg>
