<?xml version="1.0" encoding="utf-8" standalone="no"?>
<!DOCTYPE svg PUBLIC "-//W3C//DTD SVG 1.1//EN"
  "http://www.w3.org/Graphics/SVG/1.1/DTD/svg11.dtd">
<!-- Created with matplotlib (https://matplotlib.org/) -->
<svg height="216pt" version="1.1" viewBox="0 0 504 216" width="504pt" xmlns="http://www.w3.org/2000/svg" xmlns:xlink="http://www.w3.org/1999/xlink">
 <metadata>
  <rdf:RDF xmlns:cc="http://creativecommons.org/ns#" xmlns:dc="http://purl.org/dc/elements/1.1/" xmlns:rdf="http://www.w3.org/1999/02/22-rdf-syntax-ns#">
   <cc:Work>
    <dc:type rdf:resource="http://purl.org/dc/dcmitype/StillImage"/>
    <dc:date>2022-01-19T13:53:36.211175</dc:date>
    <dc:format>image/svg+xml</dc:format>
    <dc:creator>
     <cc:Agent>
      <dc:title>Matplotlib v3.3.4, https://matplotlib.org/</dc:title>
     </cc:Agent>
    </dc:creator>
   </cc:Work>
  </rdf:RDF>
 </metadata>
 <defs>
  <style type="text/css">*{stroke-linecap:butt;stroke-linejoin:round;}</style>
 </defs>
 <g id="figure_1">
  <g id="patch_1">
   <path d="M 0 216 
L 504 216 
L 504 0 
L 0 0 
z
" style="fill:#ffffff;"/>
  </g>
  <g id="axes_1">
   <g id="patch_2">
    <path d="M 63 192.24 
L 453.6 192.24 
L 453.6 25.92 
L 63 25.92 
z
" style="fill:#ffffff;"/>
   </g>
   <g id="matplotlib.axis_1">
    <g id="xtick_1">
     <g id="line2d_1">
      <defs>
       <path d="M 0 0 
L 0 3.5 
" id="m2336c2f028" style="stroke:#000000;stroke-width:0.8;"/>
      </defs>
      <g>
       <use style="stroke:#000000;stroke-width:0.8;" x="79.862357" xlink:href="#m2336c2f028" y="192.24"/>
      </g>
     </g>
     <g id="text_1">
      <!-- 400 -->
      <g transform="translate(70.318607 206.838437)scale(0.1 -0.1)">
       <defs>
        <path d="M 37.796875 64.3125 
L 12.890625 25.390625 
L 37.796875 25.390625 
z
M 35.203125 72.90625 
L 47.609375 72.90625 
L 47.609375 25.390625 
L 58.015625 25.390625 
L 58.015625 17.1875 
L 47.609375 17.1875 
L 47.609375 0 
L 37.796875 0 
L 37.796875 17.1875 
L 4.890625 17.1875 
L 4.890625 26.703125 
z
" id="DejaVuSans-52"/>
        <path d="M 31.78125 66.40625 
Q 24.171875 66.40625 20.328125 58.90625 
Q 16.5 51.421875 16.5 36.375 
Q 16.5 21.390625 20.328125 13.890625 
Q 24.171875 6.390625 31.78125 6.390625 
Q 39.453125 6.390625 43.28125 13.890625 
Q 47.125 21.390625 47.125 36.375 
Q 47.125 51.421875 43.28125 58.90625 
Q 39.453125 66.40625 31.78125 66.40625 
z
M 31.78125 74.21875 
Q 44.046875 74.21875 50.515625 64.515625 
Q 56.984375 54.828125 56.984375 36.375 
Q 56.984375 17.96875 50.515625 8.265625 
Q 44.046875 -1.421875 31.78125 -1.421875 
Q 19.53125 -1.421875 13.0625 8.265625 
Q 6.59375 17.96875 6.59375 36.375 
Q 6.59375 54.828125 13.0625 64.515625 
Q 19.53125 74.21875 31.78125 74.21875 
z
" id="DejaVuSans-48"/>
       </defs>
       <use xlink:href="#DejaVuSans-52"/>
       <use x="63.623047" xlink:href="#DejaVuSans-48"/>
       <use x="127.246094" xlink:href="#DejaVuSans-48"/>
      </g>
     </g>
    </g>
    <g id="xtick_2">
     <g id="line2d_2">
      <g>
       <use style="stroke:#000000;stroke-width:0.8;" x="124.471768" xlink:href="#m2336c2f028" y="192.24"/>
      </g>
     </g>
     <g id="text_2">
      <!-- 450 -->
      <g transform="translate(114.928018 206.838437)scale(0.1 -0.1)">
       <defs>
        <path d="M 10.796875 72.90625 
L 49.515625 72.90625 
L 49.515625 64.59375 
L 19.828125 64.59375 
L 19.828125 46.734375 
Q 21.96875 47.46875 24.109375 47.828125 
Q 26.265625 48.1875 28.421875 48.1875 
Q 40.625 48.1875 47.75 41.5 
Q 54.890625 34.8125 54.890625 23.390625 
Q 54.890625 11.625 47.5625 5.09375 
Q 40.234375 -1.421875 26.90625 -1.421875 
Q 22.3125 -1.421875 17.546875 -0.640625 
Q 12.796875 0.140625 7.71875 1.703125 
L 7.71875 11.625 
Q 12.109375 9.234375 16.796875 8.0625 
Q 21.484375 6.890625 26.703125 6.890625 
Q 35.15625 6.890625 40.078125 11.328125 
Q 45.015625 15.765625 45.015625 23.390625 
Q 45.015625 31 40.078125 35.4375 
Q 35.15625 39.890625 26.703125 39.890625 
Q 22.75 39.890625 18.8125 39.015625 
Q 14.890625 38.140625 10.796875 36.28125 
z
" id="DejaVuSans-53"/>
       </defs>
       <use xlink:href="#DejaVuSans-52"/>
       <use x="63.623047" xlink:href="#DejaVuSans-53"/>
       <use x="127.246094" xlink:href="#DejaVuSans-48"/>
      </g>
     </g>
    </g>
    <g id="xtick_3">
     <g id="line2d_3">
      <g>
       <use style="stroke:#000000;stroke-width:0.8;" x="169.081179" xlink:href="#m2336c2f028" y="192.24"/>
      </g>
     </g>
     <g id="text_3">
      <!-- 500 -->
      <g transform="translate(159.537429 206.838437)scale(0.1 -0.1)">
       <use xlink:href="#DejaVuSans-53"/>
       <use x="63.623047" xlink:href="#DejaVuSans-48"/>
       <use x="127.246094" xlink:href="#DejaVuSans-48"/>
      </g>
     </g>
    </g>
    <g id="xtick_4">
     <g id="line2d_4">
      <g>
       <use style="stroke:#000000;stroke-width:0.8;" x="213.690589" xlink:href="#m2336c2f028" y="192.24"/>
      </g>
     </g>
     <g id="text_4">
      <!-- 550 -->
      <g transform="translate(204.146839 206.838437)scale(0.1 -0.1)">
       <use xlink:href="#DejaVuSans-53"/>
       <use x="63.623047" xlink:href="#DejaVuSans-53"/>
       <use x="127.246094" xlink:href="#DejaVuSans-48"/>
      </g>
     </g>
    </g>
    <g id="xtick_5">
     <g id="line2d_5">
      <g>
       <use style="stroke:#000000;stroke-width:0.8;" x="258.3" xlink:href="#m2336c2f028" y="192.24"/>
      </g>
     </g>
     <g id="text_5">
      <!-- 600 -->
      <g transform="translate(248.75625 206.838437)scale(0.1 -0.1)">
       <defs>
        <path d="M 33.015625 40.375 
Q 26.375 40.375 22.484375 35.828125 
Q 18.609375 31.296875 18.609375 23.390625 
Q 18.609375 15.53125 22.484375 10.953125 
Q 26.375 6.390625 33.015625 6.390625 
Q 39.65625 6.390625 43.53125 10.953125 
Q 47.40625 15.53125 47.40625 23.390625 
Q 47.40625 31.296875 43.53125 35.828125 
Q 39.65625 40.375 33.015625 40.375 
z
M 52.59375 71.296875 
L 52.59375 62.3125 
Q 48.875 64.0625 45.09375 64.984375 
Q 41.3125 65.921875 37.59375 65.921875 
Q 27.828125 65.921875 22.671875 59.328125 
Q 17.53125 52.734375 16.796875 39.40625 
Q 19.671875 43.65625 24.015625 45.921875 
Q 28.375 48.1875 33.59375 48.1875 
Q 44.578125 48.1875 50.953125 41.515625 
Q 57.328125 34.859375 57.328125 23.390625 
Q 57.328125 12.15625 50.6875 5.359375 
Q 44.046875 -1.421875 33.015625 -1.421875 
Q 20.359375 -1.421875 13.671875 8.265625 
Q 6.984375 17.96875 6.984375 36.375 
Q 6.984375 53.65625 15.1875 63.9375 
Q 23.390625 74.21875 37.203125 74.21875 
Q 40.921875 74.21875 44.703125 73.484375 
Q 48.484375 72.75 52.59375 71.296875 
z
" id="DejaVuSans-54"/>
       </defs>
       <use xlink:href="#DejaVuSans-54"/>
       <use x="63.623047" xlink:href="#DejaVuSans-48"/>
       <use x="127.246094" xlink:href="#DejaVuSans-48"/>
      </g>
     </g>
    </g>
    <g id="xtick_6">
     <g id="line2d_6">
      <g>
       <use style="stroke:#000000;stroke-width:0.8;" x="302.909411" xlink:href="#m2336c2f028" y="192.24"/>
      </g>
     </g>
     <g id="text_6">
      <!-- 650 -->
      <g transform="translate(293.365661 206.838437)scale(0.1 -0.1)">
       <use xlink:href="#DejaVuSans-54"/>
       <use x="63.623047" xlink:href="#DejaVuSans-53"/>
       <use x="127.246094" xlink:href="#DejaVuSans-48"/>
      </g>
     </g>
    </g>
    <g id="xtick_7">
     <g id="line2d_7">
      <g>
       <use style="stroke:#000000;stroke-width:0.8;" x="347.518821" xlink:href="#m2336c2f028" y="192.24"/>
      </g>
     </g>
     <g id="text_7">
      <!-- 700 -->
      <g transform="translate(337.975071 206.838437)scale(0.1 -0.1)">
       <defs>
        <path d="M 8.203125 72.90625 
L 55.078125 72.90625 
L 55.078125 68.703125 
L 28.609375 0 
L 18.3125 0 
L 43.21875 64.59375 
L 8.203125 64.59375 
z
" id="DejaVuSans-55"/>
       </defs>
       <use xlink:href="#DejaVuSans-55"/>
       <use x="63.623047" xlink:href="#DejaVuSans-48"/>
       <use x="127.246094" xlink:href="#DejaVuSans-48"/>
      </g>
     </g>
    </g>
    <g id="xtick_8">
     <g id="line2d_8">
      <g>
       <use style="stroke:#000000;stroke-width:0.8;" x="392.128232" xlink:href="#m2336c2f028" y="192.24"/>
      </g>
     </g>
     <g id="text_8">
      <!-- 750 -->
      <g transform="translate(382.584482 206.838437)scale(0.1 -0.1)">
       <use xlink:href="#DejaVuSans-55"/>
       <use x="63.623047" xlink:href="#DejaVuSans-53"/>
       <use x="127.246094" xlink:href="#DejaVuSans-48"/>
      </g>
     </g>
    </g>
    <g id="xtick_9">
     <g id="line2d_9">
      <g>
       <use style="stroke:#000000;stroke-width:0.8;" x="436.737643" xlink:href="#m2336c2f028" y="192.24"/>
      </g>
     </g>
     <g id="text_9">
      <!-- 800 -->
      <g transform="translate(427.193893 206.838437)scale(0.1 -0.1)">
       <defs>
        <path d="M 31.78125 34.625 
Q 24.75 34.625 20.71875 30.859375 
Q 16.703125 27.09375 16.703125 20.515625 
Q 16.703125 13.921875 20.71875 10.15625 
Q 24.75 6.390625 31.78125 6.390625 
Q 38.8125 6.390625 42.859375 10.171875 
Q 46.921875 13.96875 46.921875 20.515625 
Q 46.921875 27.09375 42.890625 30.859375 
Q 38.875 34.625 31.78125 34.625 
z
M 21.921875 38.8125 
Q 15.578125 40.375 12.03125 44.71875 
Q 8.5 49.078125 8.5 55.328125 
Q 8.5 64.0625 14.71875 69.140625 
Q 20.953125 74.21875 31.78125 74.21875 
Q 42.671875 74.21875 48.875 69.140625 
Q 55.078125 64.0625 55.078125 55.328125 
Q 55.078125 49.078125 51.53125 44.71875 
Q 48 40.375 41.703125 38.8125 
Q 48.828125 37.15625 52.796875 32.3125 
Q 56.78125 27.484375 56.78125 20.515625 
Q 56.78125 9.90625 50.3125 4.234375 
Q 43.84375 -1.421875 31.78125 -1.421875 
Q 19.734375 -1.421875 13.25 4.234375 
Q 6.78125 9.90625 6.78125 20.515625 
Q 6.78125 27.484375 10.78125 32.3125 
Q 14.796875 37.15625 21.921875 38.8125 
z
M 18.3125 54.390625 
Q 18.3125 48.734375 21.84375 45.5625 
Q 25.390625 42.390625 31.78125 42.390625 
Q 38.140625 42.390625 41.71875 45.5625 
Q 45.3125 48.734375 45.3125 54.390625 
Q 45.3125 60.0625 41.71875 63.234375 
Q 38.140625 66.40625 31.78125 66.40625 
Q 25.390625 66.40625 21.84375 63.234375 
Q 18.3125 60.0625 18.3125 54.390625 
z
" id="DejaVuSans-56"/>
       </defs>
       <use xlink:href="#DejaVuSans-56"/>
       <use x="63.623047" xlink:href="#DejaVuSans-48"/>
       <use x="127.246094" xlink:href="#DejaVuSans-48"/>
      </g>
     </g>
    </g>
    <g id="text_10">
     <!-- time -->
     <g transform="translate(247.003906 220.516562)scale(0.1 -0.1)">
      <defs>
       <path d="M 18.3125 70.21875 
L 18.3125 54.6875 
L 36.8125 54.6875 
L 36.8125 47.703125 
L 18.3125 47.703125 
L 18.3125 18.015625 
Q 18.3125 11.328125 20.140625 9.421875 
Q 21.96875 7.515625 27.59375 7.515625 
L 36.8125 7.515625 
L 36.8125 0 
L 27.59375 0 
Q 17.1875 0 13.234375 3.875 
Q 9.28125 7.765625 9.28125 18.015625 
L 9.28125 47.703125 
L 2.6875 47.703125 
L 2.6875 54.6875 
L 9.28125 54.6875 
L 9.28125 70.21875 
z
" id="DejaVuSans-116"/>
       <path d="M 9.421875 54.6875 
L 18.40625 54.6875 
L 18.40625 0 
L 9.421875 0 
z
M 9.421875 75.984375 
L 18.40625 75.984375 
L 18.40625 64.59375 
L 9.421875 64.59375 
z
" id="DejaVuSans-105"/>
       <path d="M 52 44.1875 
Q 55.375 50.25 60.0625 53.125 
Q 64.75 56 71.09375 56 
Q 79.640625 56 84.28125 50.015625 
Q 88.921875 44.046875 88.921875 33.015625 
L 88.921875 0 
L 79.890625 0 
L 79.890625 32.71875 
Q 79.890625 40.578125 77.09375 44.375 
Q 74.3125 48.1875 68.609375 48.1875 
Q 61.625 48.1875 57.5625 43.546875 
Q 53.515625 38.921875 53.515625 30.90625 
L 53.515625 0 
L 44.484375 0 
L 44.484375 32.71875 
Q 44.484375 40.625 41.703125 44.40625 
Q 38.921875 48.1875 33.109375 48.1875 
Q 26.21875 48.1875 22.15625 43.53125 
Q 18.109375 38.875 18.109375 30.90625 
L 18.109375 0 
L 9.078125 0 
L 9.078125 54.6875 
L 18.109375 54.6875 
L 18.109375 46.1875 
Q 21.1875 51.21875 25.484375 53.609375 
Q 29.78125 56 35.6875 56 
Q 41.65625 56 45.828125 52.96875 
Q 50 49.953125 52 44.1875 
z
" id="DejaVuSans-109"/>
       <path d="M 56.203125 29.59375 
L 56.203125 25.203125 
L 14.890625 25.203125 
Q 15.484375 15.921875 20.484375 11.0625 
Q 25.484375 6.203125 34.421875 6.203125 
Q 39.59375 6.203125 44.453125 7.46875 
Q 49.3125 8.734375 54.109375 11.28125 
L 54.109375 2.78125 
Q 49.265625 0.734375 44.1875 -0.34375 
Q 39.109375 -1.421875 33.890625 -1.421875 
Q 20.796875 -1.421875 13.15625 6.1875 
Q 5.515625 13.8125 5.515625 26.8125 
Q 5.515625 40.234375 12.765625 48.109375 
Q 20.015625 56 32.328125 56 
Q 43.359375 56 49.78125 48.890625 
Q 56.203125 41.796875 56.203125 29.59375 
z
M 47.21875 32.234375 
Q 47.125 39.59375 43.09375 43.984375 
Q 39.0625 48.390625 32.421875 48.390625 
Q 24.90625 48.390625 20.390625 44.140625 
Q 15.875 39.890625 15.1875 32.171875 
z
" id="DejaVuSans-101"/>
      </defs>
      <use xlink:href="#DejaVuSans-116"/>
      <use x="39.208984" xlink:href="#DejaVuSans-105"/>
      <use x="66.992188" xlink:href="#DejaVuSans-109"/>
      <use x="164.404297" xlink:href="#DejaVuSans-101"/>
     </g>
    </g>
   </g>
   <g id="matplotlib.axis_2">
    <g id="ytick_1">
     <g id="line2d_10">
      <defs>
       <path d="M 0 0 
L -3.5 0 
" id="m3cf45797aa" style="stroke:#000000;stroke-width:0.8;"/>
      </defs>
      <g>
       <use style="stroke:#000000;stroke-width:0.8;" x="63" xlink:href="#m3cf45797aa" y="186.578882"/>
      </g>
     </g>
     <g id="text_11">
      <!-- 1.9 -->
      <g transform="translate(40.096875 190.378101)scale(0.1 -0.1)">
       <defs>
        <path d="M 12.40625 8.296875 
L 28.515625 8.296875 
L 28.515625 63.921875 
L 10.984375 60.40625 
L 10.984375 69.390625 
L 28.421875 72.90625 
L 38.28125 72.90625 
L 38.28125 8.296875 
L 54.390625 8.296875 
L 54.390625 0 
L 12.40625 0 
z
" id="DejaVuSans-49"/>
        <path d="M 10.6875 12.40625 
L 21 12.40625 
L 21 0 
L 10.6875 0 
z
" id="DejaVuSans-46"/>
        <path d="M 10.984375 1.515625 
L 10.984375 10.5 
Q 14.703125 8.734375 18.5 7.8125 
Q 22.3125 6.890625 25.984375 6.890625 
Q 35.75 6.890625 40.890625 13.453125 
Q 46.046875 20.015625 46.78125 33.40625 
Q 43.953125 29.203125 39.59375 26.953125 
Q 35.25 24.703125 29.984375 24.703125 
Q 19.046875 24.703125 12.671875 31.3125 
Q 6.296875 37.9375 6.296875 49.421875 
Q 6.296875 60.640625 12.9375 67.421875 
Q 19.578125 74.21875 30.609375 74.21875 
Q 43.265625 74.21875 49.921875 64.515625 
Q 56.59375 54.828125 56.59375 36.375 
Q 56.59375 19.140625 48.40625 8.859375 
Q 40.234375 -1.421875 26.421875 -1.421875 
Q 22.703125 -1.421875 18.890625 -0.6875 
Q 15.09375 0.046875 10.984375 1.515625 
z
M 30.609375 32.421875 
Q 37.25 32.421875 41.125 36.953125 
Q 45.015625 41.5 45.015625 49.421875 
Q 45.015625 57.28125 41.125 61.84375 
Q 37.25 66.40625 30.609375 66.40625 
Q 23.96875 66.40625 20.09375 61.84375 
Q 16.21875 57.28125 16.21875 49.421875 
Q 16.21875 41.5 20.09375 36.953125 
Q 23.96875 32.421875 30.609375 32.421875 
z
" id="DejaVuSans-57"/>
       </defs>
       <use xlink:href="#DejaVuSans-49"/>
       <use x="63.623047" xlink:href="#DejaVuSans-46"/>
       <use x="95.410156" xlink:href="#DejaVuSans-57"/>
      </g>
     </g>
    </g>
    <g id="ytick_2">
     <g id="line2d_11">
      <g>
       <use style="stroke:#000000;stroke-width:0.8;" x="63" xlink:href="#m3cf45797aa" y="150.822778"/>
      </g>
     </g>
     <g id="text_12">
      <!-- 2.0 -->
      <g transform="translate(40.096875 154.621997)scale(0.1 -0.1)">
       <defs>
        <path d="M 19.1875 8.296875 
L 53.609375 8.296875 
L 53.609375 0 
L 7.328125 0 
L 7.328125 8.296875 
Q 12.9375 14.109375 22.625 23.890625 
Q 32.328125 33.6875 34.8125 36.53125 
Q 39.546875 41.84375 41.421875 45.53125 
Q 43.3125 49.21875 43.3125 52.78125 
Q 43.3125 58.59375 39.234375 62.25 
Q 35.15625 65.921875 28.609375 65.921875 
Q 23.96875 65.921875 18.8125 64.3125 
Q 13.671875 62.703125 7.8125 59.421875 
L 7.8125 69.390625 
Q 13.765625 71.78125 18.9375 73 
Q 24.125 74.21875 28.421875 74.21875 
Q 39.75 74.21875 46.484375 68.546875 
Q 53.21875 62.890625 53.21875 53.421875 
Q 53.21875 48.921875 51.53125 44.890625 
Q 49.859375 40.875 45.40625 35.40625 
Q 44.1875 33.984375 37.640625 27.21875 
Q 31.109375 20.453125 19.1875 8.296875 
z
" id="DejaVuSans-50"/>
       </defs>
       <use xlink:href="#DejaVuSans-50"/>
       <use x="63.623047" xlink:href="#DejaVuSans-46"/>
       <use x="95.410156" xlink:href="#DejaVuSans-48"/>
      </g>
     </g>
    </g>
    <g id="ytick_3">
     <g id="line2d_12">
      <g>
       <use style="stroke:#000000;stroke-width:0.8;" x="63" xlink:href="#m3cf45797aa" y="115.066674"/>
      </g>
     </g>
     <g id="text_13">
      <!-- 2.1 -->
      <g transform="translate(40.096875 118.865893)scale(0.1 -0.1)">
       <use xlink:href="#DejaVuSans-50"/>
       <use x="63.623047" xlink:href="#DejaVuSans-46"/>
       <use x="95.410156" xlink:href="#DejaVuSans-49"/>
      </g>
     </g>
    </g>
    <g id="ytick_4">
     <g id="line2d_13">
      <g>
       <use style="stroke:#000000;stroke-width:0.8;" x="63" xlink:href="#m3cf45797aa" y="79.310571"/>
      </g>
     </g>
     <g id="text_14">
      <!-- 2.2 -->
      <g transform="translate(40.096875 83.109789)scale(0.1 -0.1)">
       <use xlink:href="#DejaVuSans-50"/>
       <use x="63.623047" xlink:href="#DejaVuSans-46"/>
       <use x="95.410156" xlink:href="#DejaVuSans-50"/>
      </g>
     </g>
    </g>
    <g id="ytick_5">
     <g id="line2d_14">
      <g>
       <use style="stroke:#000000;stroke-width:0.8;" x="63" xlink:href="#m3cf45797aa" y="43.554467"/>
      </g>
     </g>
     <g id="text_15">
      <!-- 2.3 -->
      <g transform="translate(40.096875 47.353686)scale(0.1 -0.1)">
       <defs>
        <path d="M 40.578125 39.3125 
Q 47.65625 37.796875 51.625 33 
Q 55.609375 28.21875 55.609375 21.1875 
Q 55.609375 10.40625 48.1875 4.484375 
Q 40.765625 -1.421875 27.09375 -1.421875 
Q 22.515625 -1.421875 17.65625 -0.515625 
Q 12.796875 0.390625 7.625 2.203125 
L 7.625 11.71875 
Q 11.71875 9.328125 16.59375 8.109375 
Q 21.484375 6.890625 26.8125 6.890625 
Q 36.078125 6.890625 40.9375 10.546875 
Q 45.796875 14.203125 45.796875 21.1875 
Q 45.796875 27.640625 41.28125 31.265625 
Q 36.765625 34.90625 28.71875 34.90625 
L 20.21875 34.90625 
L 20.21875 43.015625 
L 29.109375 43.015625 
Q 36.375 43.015625 40.234375 45.921875 
Q 44.09375 48.828125 44.09375 54.296875 
Q 44.09375 59.90625 40.109375 62.90625 
Q 36.140625 65.921875 28.71875 65.921875 
Q 24.65625 65.921875 20.015625 65.03125 
Q 15.375 64.15625 9.8125 62.3125 
L 9.8125 71.09375 
Q 15.4375 72.65625 20.34375 73.4375 
Q 25.25 74.21875 29.59375 74.21875 
Q 40.828125 74.21875 47.359375 69.109375 
Q 53.90625 64.015625 53.90625 55.328125 
Q 53.90625 49.265625 50.4375 45.09375 
Q 46.96875 40.921875 40.578125 39.3125 
z
" id="DejaVuSans-51"/>
       </defs>
       <use xlink:href="#DejaVuSans-50"/>
       <use x="63.623047" xlink:href="#DejaVuSans-46"/>
       <use x="95.410156" xlink:href="#DejaVuSans-51"/>
      </g>
     </g>
    </g>
    <g id="text_16">
     <!-- coef1 -->
     <g transform="translate(34.017187 122.906562)rotate(-90)scale(0.1 -0.1)">
      <defs>
       <path d="M 48.78125 52.59375 
L 48.78125 44.1875 
Q 44.96875 46.296875 41.140625 47.34375 
Q 37.3125 48.390625 33.40625 48.390625 
Q 24.65625 48.390625 19.8125 42.84375 
Q 14.984375 37.3125 14.984375 27.296875 
Q 14.984375 17.28125 19.8125 11.734375 
Q 24.65625 6.203125 33.40625 6.203125 
Q 37.3125 6.203125 41.140625 7.25 
Q 44.96875 8.296875 48.78125 10.40625 
L 48.78125 2.09375 
Q 45.015625 0.34375 40.984375 -0.53125 
Q 36.96875 -1.421875 32.421875 -1.421875 
Q 20.0625 -1.421875 12.78125 6.34375 
Q 5.515625 14.109375 5.515625 27.296875 
Q 5.515625 40.671875 12.859375 48.328125 
Q 20.21875 56 33.015625 56 
Q 37.15625 56 41.109375 55.140625 
Q 45.0625 54.296875 48.78125 52.59375 
z
" id="DejaVuSans-99"/>
       <path d="M 30.609375 48.390625 
Q 23.390625 48.390625 19.1875 42.75 
Q 14.984375 37.109375 14.984375 27.296875 
Q 14.984375 17.484375 19.15625 11.84375 
Q 23.34375 6.203125 30.609375 6.203125 
Q 37.796875 6.203125 41.984375 11.859375 
Q 46.1875 17.53125 46.1875 27.296875 
Q 46.1875 37.015625 41.984375 42.703125 
Q 37.796875 48.390625 30.609375 48.390625 
z
M 30.609375 56 
Q 42.328125 56 49.015625 48.375 
Q 55.71875 40.765625 55.71875 27.296875 
Q 55.71875 13.875 49.015625 6.21875 
Q 42.328125 -1.421875 30.609375 -1.421875 
Q 18.84375 -1.421875 12.171875 6.21875 
Q 5.515625 13.875 5.515625 27.296875 
Q 5.515625 40.765625 12.171875 48.375 
Q 18.84375 56 30.609375 56 
z
" id="DejaVuSans-111"/>
       <path d="M 37.109375 75.984375 
L 37.109375 68.5 
L 28.515625 68.5 
Q 23.6875 68.5 21.796875 66.546875 
Q 19.921875 64.59375 19.921875 59.515625 
L 19.921875 54.6875 
L 34.71875 54.6875 
L 34.71875 47.703125 
L 19.921875 47.703125 
L 19.921875 0 
L 10.890625 0 
L 10.890625 47.703125 
L 2.296875 47.703125 
L 2.296875 54.6875 
L 10.890625 54.6875 
L 10.890625 58.5 
Q 10.890625 67.625 15.140625 71.796875 
Q 19.390625 75.984375 28.609375 75.984375 
z
" id="DejaVuSans-102"/>
      </defs>
      <use xlink:href="#DejaVuSans-99"/>
      <use x="54.980469" xlink:href="#DejaVuSans-111"/>
      <use x="116.162109" xlink:href="#DejaVuSans-101"/>
      <use x="177.685547" xlink:href="#DejaVuSans-102"/>
      <use x="212.890625" xlink:href="#DejaVuSans-49"/>
     </g>
    </g>
   </g>
   <g id="line2d_15">
    <path clip-path="url(#p3086d45cc9)" d="M 80.754545 177.713403 
L 81.646734 177.525913 
L 82.538922 177.623962 
L 83.43111 177.519148 
L 84.323298 177.667539 
L 85.215487 177.947319 
L 86.107675 177.873608 
L 86.999863 176.907574 
L 87.892051 177.027083 
L 88.784239 177.409496 
L 89.676428 177.121325 
L 91.460804 177.532083 
L 92.352992 177.643716 
L 93.24518 176.322585 
L 95.029557 176.2698 
L 95.921745 175.980138 
L 96.813933 175.895367 
L 98.59831 175.944938 
L 99.490498 174.733767 
L 100.382686 174.582715 
L 101.274874 174.200849 
L 103.059251 174.482961 
L 104.843627 173.642243 
L 105.735815 172.685034 
L 106.628004 172.417482 
L 107.520192 172.382317 
L 108.41238 172.067007 
L 110.196757 171.627177 
L 111.088945 171.310494 
L 111.981133 170.297804 
L 113.765509 169.278434 
L 114.657698 168.812216 
L 115.549886 168.601188 
L 116.442074 168.108077 
L 117.334262 167.810479 
L 118.22645 166.424545 
L 120.010827 165.715795 
L 121.795203 165.409244 
L 122.687392 165.075036 
L 123.57958 165.122024 
L 124.471768 163.956366 
L 125.363956 163.472414 
L 126.256144 163.277791 
L 127.148333 162.902104 
L 128.932709 162.431823 
L 129.824897 162.364186 
L 130.717085 161.306061 
L 131.609274 160.98717 
L 132.501462 160.476404 
L 133.39365 160.14769 
L 134.285838 159.383796 
L 135.178026 158.9263 
L 136.070215 158.606039 
L 136.962403 156.965106 
L 137.854591 156.364096 
L 138.746779 155.57131 
L 139.638968 154.95311 
L 141.423344 153.328776 
L 142.315532 153.315504 
L 143.20772 152.189847 
L 144.992097 151.198834 
L 148.56085 149.131724 
L 149.453038 148.446993 
L 150.345226 148.090687 
L 151.237414 147.962333 
L 152.129603 147.240421 
L 153.021791 146.798 
L 153.913979 146.728272 
L 154.806167 146.440999 
L 155.698355 145.700963 
L 156.590544 145.149992 
L 157.482732 144.843638 
L 159.267108 143.940021 
L 161.943673 141.777706 
L 164.620238 140.665491 
L 165.512426 139.910815 
L 167.296802 139.374533 
L 169.081179 137.373071 
L 169.973367 136.687136 
L 170.865555 136.547874 
L 172.649931 135.72314 
L 173.54212 135.690473 
L 174.434308 134.889733 
L 175.326496 134.648959 
L 176.218684 134.019852 
L 177.110873 133.739848 
L 178.003061 132.970829 
L 179.787437 132.288301 
L 180.679625 131.545746 
L 181.571814 131.133167 
L 183.35619 129.70953 
L 184.248378 129.281996 
L 186.032755 128.168028 
L 186.924943 128.049242 
L 190.493696 126.044173 
L 191.385884 125.886276 
L 193.17026 124.7344 
L 194.954637 123.381691 
L 196.739013 122.2964 
L 197.631201 122.030883 
L 198.52339 121.156289 
L 199.415578 120.782063 
L 200.307766 120.147915 
L 201.199954 119.361882 
L 203.876519 118.398676 
L 204.768707 118.086067 
L 205.660895 117.548558 
L 206.553084 117.367536 
L 207.445272 117.030878 
L 208.33746 116.500851 
L 209.229648 116.350883 
L 211.014025 115.522333 
L 212.798401 114.561573 
L 214.582778 113.804652 
L 216.367154 112.31612 
L 218.15153 111.167626 
L 219.043719 110.733775 
L 219.935907 110.175807 
L 220.828095 109.294295 
L 222.612471 108.535762 
L 227.073413 105.638519 
L 228.857789 104.991862 
L 230.642165 104.351076 
L 231.534354 103.692349 
L 233.31873 102.762285 
L 234.210918 102.503852 
L 235.103106 101.835046 
L 235.995295 101.675386 
L 239.564048 100.562263 
L 240.456236 100.449962 
L 241.348424 100.218844 
L 242.240612 99.491375 
L 244.024989 98.509031 
L 244.917177 98.119235 
L 246.701553 96.979449 
L 248.48593 95.738927 
L 250.270306 94.884598 
L 251.162494 94.91659 
L 252.054683 94.455689 
L 253.839059 93.785793 
L 254.731247 93.143174 
L 256.515624 92.287928 
L 257.407812 91.726148 
L 260.084376 90.973018 
L 261.868753 90.851662 
L 262.760941 90.605075 
L 263.653129 90.161212 
L 264.545317 89.51264 
L 265.437506 89.001484 
L 266.329694 88.343886 
L 269.898447 86.691413 
L 270.790635 86.168503 
L 273.4672 85.029452 
L 275.251576 84.267255 
L 276.143764 84.108803 
L 278.820329 83.235345 
L 279.712517 82.717727 
L 281.496894 82.266868 
L 282.389082 81.704494 
L 285.957835 80.352392 
L 286.850023 80.296465 
L 288.634399 79.669758 
L 289.526587 79.699475 
L 290.418776 79.394111 
L 291.310964 78.954579 
L 293.09534 78.451642 
L 293.987529 78.077827 
L 294.879717 77.559928 
L 295.771905 77.617705 
L 296.664093 77.328682 
L 299.340658 75.930921 
L 300.232846 75.721882 
L 301.125034 75.295186 
L 302.017222 75.121858 
L 303.801599 74.446923 
L 304.693787 73.970204 
L 305.585975 73.889996 
L 306.478164 73.310505 
L 307.370352 73.399746 
L 308.26254 73.177938 
L 309.154728 72.584222 
L 311.831293 71.76887 
L 312.723481 71.698845 
L 314.507857 70.72852 
L 316.292234 70.384745 
L 317.184422 69.827859 
L 318.07661 69.667688 
L 318.968799 69.128424 
L 319.860987 68.814336 
L 320.753175 68.342784 
L 321.645363 68.300213 
L 323.42974 67.609781 
L 328.782869 65.327683 
L 329.675057 65.146485 
L 330.567245 64.848273 
L 331.459434 64.744997 
L 335.028186 63.350757 
L 335.920375 62.821975 
L 337.704751 62.236484 
L 339.489127 61.751286 
L 343.05788 60.493946 
L 346.626633 59.623998 
L 349.303198 58.720099 
L 350.195386 58.626826 
L 351.087574 58.104468 
L 353.764139 56.990743 
L 356.440704 56.028585 
L 357.332892 55.690029 
L 358.22508 55.613839 
L 359.117268 55.206084 
L 360.901645 54.738376 
L 361.793833 54.603989 
L 362.686021 54.352722 
L 365.362586 53.04916 
L 366.254774 52.821162 
L 367.146962 52.312989 
L 368.03915 51.973425 
L 368.931339 51.984537 
L 369.823527 51.640295 
L 370.715715 51.01427 
L 371.607903 50.761818 
L 372.500091 50.22136 
L 374.284468 49.746963 
L 375.176656 49.665599 
L 377.853221 49.0616 
L 378.745409 48.907659 
L 379.637597 48.885706 
L 380.529785 48.519021 
L 381.421974 47.968367 
L 383.20635 47.564596 
L 384.098538 47.130183 
L 386.775103 46.335436 
L 390.343856 45.467887 
L 391.236044 45.076061 
L 392.128232 44.965237 
L 393.02042 44.519538 
L 394.804797 44.126731 
L 396.589173 43.178842 
L 397.481361 43.1294 
L 398.37355 42.698296 
L 401.050114 42.172703 
L 402.834491 41.517307 
L 405.511055 41.042986 
L 408.18762 40.174166 
L 409.971996 39.800458 
L 410.864185 39.38133 
L 413.540749 38.606863 
L 414.432937 38.41773 
L 416.217314 38.227633 
L 417.109502 37.94077 
L 419.786067 37.446255 
L 421.570443 36.904698 
L 422.462631 36.95871 
L 426.923572 35.474213 
L 427.815761 35.364192 
L 428.707949 35.449667 
L 431.384513 34.776699 
L 433.16889 34.323197 
L 434.061078 34.208907 
L 435.845455 33.48 
L 435.845455 33.48 
" style="fill:none;stroke:#1f77b4;stroke-linecap:square;stroke-width:1.5;"/>
   </g>
   <g id="line2d_16">
    <path clip-path="url(#p3086d45cc9)" d="M 80.754545 176.478913 
L 81.646734 175.931624 
L 82.538922 175.827011 
L 84.323298 175.959648 
L 85.215487 175.660889 
L 86.107675 175.602803 
L 86.999863 175.02387 
L 87.892051 175.355153 
L 88.784239 175.52071 
L 89.676428 175.931019 
L 90.568616 175.332404 
L 92.352992 175.489238 
L 93.24518 174.622725 
L 94.137369 174.650779 
L 95.921745 175.231732 
L 98.59831 175.414935 
L 99.490498 174.583276 
L 100.382686 174.740732 
L 102.167063 174.862368 
L 104.843627 174.542511 
L 105.735815 173.841339 
L 107.520192 173.434917 
L 108.41238 173.533829 
L 109.304568 173.147511 
L 111.088945 173.24213 
L 111.981133 172.513821 
L 112.873321 172.860941 
L 113.765509 173.043096 
L 114.657698 172.745349 
L 115.549886 172.916872 
L 117.334262 172.850571 
L 118.22645 172.33083 
L 119.118639 172.058114 
L 120.010827 172.327329 
L 121.795203 171.882581 
L 123.57958 171.568935 
L 124.471768 170.828039 
L 125.363956 170.963045 
L 127.148333 170.384543 
L 128.040521 170.154129 
L 128.932709 170.516545 
L 129.824897 170.455847 
L 130.717085 170.00714 
L 135.178026 168.409814 
L 136.070215 168.425383 
L 136.962403 167.934977 
L 137.854591 167.784503 
L 138.746779 167.867162 
L 141.423344 167.3226 
L 142.315532 167.386329 
L 143.20772 166.631022 
L 144.099909 166.228959 
L 144.992097 166.071082 
L 146.776473 165.4701 
L 147.668661 165.35337 
L 148.56085 165.453016 
L 149.453038 164.874641 
L 151.237414 164.524466 
L 152.129603 164.744836 
L 153.021791 164.513547 
L 153.913979 164.154206 
L 154.806167 164.286538 
L 156.590544 163.770851 
L 158.37492 163.242652 
L 161.051485 163.856318 
L 161.943673 163.327015 
L 163.728049 162.880878 
L 164.620238 162.752251 
L 166.404614 162.227693 
L 168.18899 162.187333 
L 169.081179 161.923976 
L 169.973367 162.015983 
L 172.649931 161.554681 
L 174.434308 161.609437 
L 175.326496 161.124962 
L 176.218684 161.036882 
L 178.003061 160.563316 
L 178.895249 160.393775 
L 179.787437 160.624341 
L 180.679625 160.616688 
L 181.571814 160.785358 
L 182.464002 160.508746 
L 183.35619 160.575606 
L 185.140566 159.705934 
L 186.032755 159.449956 
L 186.924943 159.415238 
L 187.817131 158.890253 
L 188.709319 158.866198 
L 192.278072 157.743322 
L 193.17026 157.689041 
L 194.062449 157.39518 
L 196.739013 156.947155 
L 197.631201 156.70724 
L 199.415578 156.8164 
L 200.307766 156.805442 
L 201.199954 156.441061 
L 202.984331 156.323486 
L 203.876519 156.436511 
L 205.660895 156.10327 
L 206.553084 155.77281 
L 207.445272 155.586649 
L 209.229648 155.622571 
L 211.014025 154.94402 
L 211.906213 155.052789 
L 212.798401 154.929333 
L 213.690589 154.931448 
L 214.582778 155.110911 
L 215.474966 154.673476 
L 216.367154 154.650036 
L 217.259342 154.143522 
L 219.935907 153.82278 
L 221.720283 153.291897 
L 222.612471 153.118438 
L 223.50466 153.094037 
L 224.396848 153.212475 
L 227.965601 151.827434 
L 228.857789 151.662282 
L 229.749977 151.832794 
L 230.642165 151.52145 
L 231.534354 151.701534 
L 232.426542 151.59396 
L 233.31873 151.682691 
L 234.210918 151.201218 
L 235.995295 150.719867 
L 237.779671 149.919992 
L 239.564048 149.572456 
L 241.348424 149.643498 
L 242.240612 149.494178 
L 244.024989 148.783993 
L 244.917177 148.664981 
L 245.809365 148.319582 
L 246.701553 148.224643 
L 247.593741 148.378023 
L 249.378118 148.002364 
L 250.270306 148.132953 
L 251.162494 147.810962 
L 252.054683 147.781085 
L 252.946871 147.294588 
L 256.515624 146.22576 
L 258.3 146.16633 
L 260.084376 145.668884 
L 260.976565 145.485756 
L 263.653129 145.217535 
L 264.545317 145.02712 
L 265.437506 144.710336 
L 266.329694 144.526591 
L 267.221882 144.036296 
L 268.11407 143.840287 
L 270.790635 142.994997 
L 271.682823 143.096246 
L 272.575011 142.901259 
L 274.359388 142.967375 
L 275.251576 142.627082 
L 277.928141 142.304006 
L 278.820329 141.959901 
L 279.712517 141.8555 
L 281.496894 141.919605 
L 282.389082 141.692289 
L 284.173458 141.411227 
L 285.957835 140.967961 
L 287.742211 140.69574 
L 288.634399 140.553032 
L 289.526587 140.540215 
L 291.310964 139.948381 
L 295.771905 138.996673 
L 296.664093 138.568445 
L 298.44847 138.036487 
L 299.340658 137.868382 
L 300.232846 137.953432 
L 302.017222 137.825388 
L 302.909411 137.51714 
L 306.478164 137.049642 
L 307.370352 136.743351 
L 310.939105 136.362002 
L 315.400046 136.044369 
L 316.292234 136.206385 
L 318.07661 135.838376 
L 318.968799 135.80381 
L 319.860987 135.537657 
L 320.753175 135.824744 
L 321.645363 135.798942 
L 322.537551 135.423087 
L 323.42974 135.228562 
L 324.321928 135.300771 
L 325.214116 134.937407 
L 328.782869 134.599183 
L 329.675057 134.289087 
L 331.459434 134.07288 
L 334.135998 133.376542 
L 336.812563 132.897551 
L 337.704751 132.720238 
L 339.489127 132.726473 
L 340.381316 132.570246 
L 342.165692 132.636219 
L 343.05788 132.590611 
L 345.734445 132.002843 
L 346.626633 132.049645 
L 347.518821 131.881769 
L 348.41101 131.879659 
L 349.303198 131.754147 
L 351.087574 131.858688 
L 352.871951 131.48299 
L 354.656327 131.551816 
L 358.22508 131.3583 
L 359.117268 131.629057 
L 360.009456 131.704239 
L 360.901645 131.64023 
L 362.686021 131.710142 
L 364.470397 131.579575 
L 366.254774 131.206815 
L 367.146962 131.279162 
L 370.715715 130.915927 
L 371.607903 130.630272 
L 374.284468 130.717158 
L 375.176656 130.621637 
L 377.853221 129.733836 
L 378.745409 129.54192 
L 379.637597 129.657522 
L 381.421974 129.441476 
L 383.20635 129.522886 
L 384.098538 129.412155 
L 384.990726 129.131188 
L 387.667291 129.144691 
L 388.559479 128.844624 
L 389.451667 128.676338 
L 390.343856 128.830617 
L 391.236044 128.549979 
L 393.02042 128.428145 
L 394.804797 128.10001 
L 395.696985 128.156593 
L 396.589173 128.029829 
L 399.265738 128.061467 
L 401.050114 127.998156 
L 402.834491 127.980267 
L 409.079808 127.034757 
L 410.864185 126.802357 
L 411.756373 126.864859 
L 414.432937 126.727899 
L 415.325126 126.755113 
L 416.217314 126.488522 
L 417.109502 126.430642 
L 418.893878 126.02489 
L 420.678255 125.80965 
L 421.570443 125.917035 
L 422.462631 125.676567 
L 423.35482 125.56354 
L 424.247008 125.569312 
L 425.139196 125.448226 
L 426.031384 125.453684 
L 431.384513 124.738805 
L 432.276702 124.444418 
L 433.16889 124.366943 
L 434.953266 124.04149 
L 435.845455 123.900723 
L 435.845455 123.900723 
" style="fill:none;stroke:#ff7f0e;stroke-linecap:square;stroke-width:1.5;"/>
   </g>
   <g id="line2d_17">
    <path clip-path="url(#p3086d45cc9)" d="M 80.754545 180.650551 
L 81.646734 180.866475 
L 82.538922 180.780036 
L 83.43111 180.998326 
L 84.323298 181.094054 
L 86.107675 180.629684 
L 86.999863 179.763431 
L 87.892051 179.609269 
L 88.784239 179.946905 
L 89.676428 180.15471 
L 91.460804 180.218857 
L 92.352992 180.574317 
L 93.24518 179.690877 
L 94.137369 179.290387 
L 95.029557 179.31623 
L 95.921745 178.789586 
L 96.813933 178.874152 
L 97.706122 179.083253 
L 98.59831 179.050984 
L 99.490498 178.248733 
L 100.382686 178.175269 
L 102.167063 177.34802 
L 103.059251 177.294312 
L 103.951439 176.769742 
L 104.843627 176.611537 
L 105.735815 175.596237 
L 106.628004 175.570785 
L 108.41238 175.031693 
L 109.304568 174.57221 
L 110.196757 174.542323 
L 111.088945 174.332858 
L 111.981133 173.174452 
L 112.873321 173.457815 
L 113.765509 172.751176 
L 114.657698 172.746645 
L 115.549886 172.176773 
L 116.442074 172.320804 
L 117.334262 171.891392 
L 118.22645 170.464097 
L 119.118639 170.027762 
L 120.010827 169.418769 
L 120.903015 169.053668 
L 121.795203 168.565645 
L 123.57958 168.071117 
L 124.471768 166.920809 
L 125.363956 166.443545 
L 127.148333 165.922091 
L 128.932709 165.045384 
L 129.824897 164.442023 
L 130.717085 163.03613 
L 131.609274 162.388101 
L 132.501462 161.906933 
L 133.39365 161.998237 
L 135.178026 160.760389 
L 136.070215 160.522656 
L 136.962403 159.536129 
L 137.854591 158.823761 
L 138.746779 158.382234 
L 139.638968 157.807916 
L 142.315532 157.340711 
L 143.20772 156.271793 
L 144.099909 155.538238 
L 145.884285 154.809024 
L 146.776473 154.234148 
L 148.56085 153.532809 
L 149.453038 152.344911 
L 150.345226 151.792913 
L 151.237414 151.492653 
L 152.129603 150.979404 
L 153.913979 150.140416 
L 155.698355 148.548579 
L 156.590544 148.292873 
L 157.482732 147.706986 
L 158.37492 146.924289 
L 159.267108 146.709374 
L 160.159296 146.159718 
L 161.051485 145.899053 
L 161.943673 145.275673 
L 162.835861 144.468467 
L 163.728049 144.276343 
L 165.512426 143.401408 
L 166.404614 143.240505 
L 167.296802 142.810349 
L 168.18899 142.241934 
L 169.081179 141.537143 
L 169.973367 140.992986 
L 173.54212 139.365645 
L 174.434308 138.572313 
L 175.326496 138.145277 
L 176.218684 137.925426 
L 177.110873 138.133104 
L 179.787437 136.489546 
L 181.571814 135.541826 
L 184.248378 133.550868 
L 188.709319 131.1284 
L 189.601508 130.312934 
L 191.385884 129.386684 
L 193.17026 128.778376 
L 194.062449 128.205593 
L 194.954637 127.799454 
L 196.739013 126.672648 
L 198.52339 125.958038 
L 199.415578 125.69634 
L 200.307766 124.980785 
L 204.768707 123.800105 
L 208.33746 121.253207 
L 211.014025 120.459431 
L 212.798401 119.035131 
L 215.474966 117.706387 
L 216.367154 117.056758 
L 218.15153 116.067898 
L 219.043719 115.515123 
L 219.935907 115.14017 
L 220.828095 114.637805 
L 223.50466 113.926689 
L 224.396848 113.210773 
L 230.642165 109.958114 
L 233.31873 108.179736 
L 234.210918 107.706291 
L 235.103106 107.444308 
L 235.995295 107.577491 
L 236.887483 107.173672 
L 238.671859 106.04061 
L 239.564048 105.856431 
L 241.348424 105.256491 
L 243.1328 104.513154 
L 244.024989 103.730889 
L 244.917177 103.441652 
L 245.809365 103.277632 
L 247.593741 102.273116 
L 248.48593 101.942011 
L 250.270306 100.873188 
L 252.054683 100.100802 
L 253.839059 99.243096 
L 254.731247 99.097794 
L 257.407812 97.919007 
L 258.3 97.228732 
L 259.192188 96.755551 
L 261.868753 94.855063 
L 264.545317 93.749426 
L 265.437506 93.224541 
L 266.329694 92.889001 
L 267.221882 92.34538 
L 269.006259 91.568133 
L 269.898447 91.354493 
L 271.682823 90.630504 
L 272.575011 89.933359 
L 273.4672 89.729991 
L 274.359388 89.396962 
L 275.251576 89.191435 
L 276.143764 88.830927 
L 277.928141 87.805912 
L 278.820329 87.519982 
L 281.496894 86.051948 
L 282.389082 85.598141 
L 283.28127 85.633631 
L 284.173458 85.393097 
L 285.065646 85.028555 
L 285.957835 84.480122 
L 286.850023 84.148805 
L 287.742211 83.974287 
L 288.634399 83.647551 
L 289.526587 83.085178 
L 290.418776 82.668717 
L 291.310964 82.463693 
L 292.203152 82.421419 
L 293.987529 81.749606 
L 294.879717 81.600301 
L 295.771905 80.979969 
L 296.664093 80.654199 
L 297.556281 80.139147 
L 298.44847 79.819416 
L 299.340658 79.64013 
L 300.232846 79.285146 
L 301.125034 79.098476 
L 302.017222 79.187533 
L 302.909411 79.018195 
L 304.693787 78.304581 
L 305.585975 78.070526 
L 307.370352 77.226615 
L 309.154728 76.50846 
L 310.046916 76.106311 
L 310.939105 75.960769 
L 312.723481 75.47354 
L 313.615669 74.968593 
L 316.292234 73.935195 
L 318.07661 72.923478 
L 318.968799 72.923802 
L 321.645363 71.915223 
L 323.42974 71.027184 
L 327.890681 69.686159 
L 328.782869 69.249679 
L 330.567245 68.894564 
L 332.351622 68.247199 
L 333.24381 68.123888 
L 341.273504 65.583141 
L 343.05788 65.288589 
L 344.842257 64.67215 
L 345.734445 64.756171 
L 348.41101 63.587719 
L 349.303198 63.453087 
L 351.087574 62.562389 
L 354.656327 61.298648 
L 355.548515 61.160041 
L 357.332892 60.474192 
L 360.009456 60.164743 
L 360.901645 59.810956 
L 361.793833 59.725684 
L 362.686021 59.2776 
L 363.578209 58.983928 
L 364.470397 58.81056 
L 365.362586 58.284636 
L 366.254774 58.048016 
L 367.146962 57.531527 
L 368.931339 56.987652 
L 370.715715 56.414917 
L 371.607903 56.292256 
L 375.176656 55.106092 
L 376.068844 54.65062 
L 376.961032 54.557649 
L 378.745409 53.931814 
L 379.637597 53.580188 
L 381.421974 53.369251 
L 382.314162 52.747235 
L 383.20635 52.671217 
L 387.667291 51.744697 
L 388.559479 51.248797 
L 390.343856 50.722795 
L 391.236044 50.488105 
L 392.128232 50.460184 
L 393.02042 49.93262 
L 393.912608 49.855926 
L 395.696985 48.897093 
L 396.589173 48.616549 
L 398.37355 47.739098 
L 401.050114 46.945322 
L 401.942302 46.789567 
L 403.726679 46.23942 
L 407.295432 45.733555 
L 409.971996 44.542342 
L 410.864185 44.42411 
L 412.648561 43.777132 
L 413.540749 43.4476 
L 414.432937 43.35615 
L 415.325126 43.46488 
L 416.217314 43.352015 
L 417.109502 42.95082 
L 418.00169 42.833006 
L 418.893878 42.601899 
L 419.786067 42.163512 
L 420.678255 41.920021 
L 421.570443 41.416892 
L 424.247008 40.914011 
L 426.031384 40.486128 
L 429.600137 40.03758 
L 431.384513 39.45123 
L 433.16889 39.191717 
L 434.061078 38.618549 
L 435.845455 38.299794 
L 435.845455 38.299794 
" style="fill:none;stroke:#2ca02c;stroke-linecap:square;stroke-width:1.5;"/>
   </g>
   <g id="line2d_18">
    <path clip-path="url(#p3086d45cc9)" d="M 80.754545 184.668767 
L 82.538922 184.056376 
L 83.43111 184.27121 
L 84.323298 184.33958 
L 86.107675 184.68 
L 87.892051 183.954862 
L 89.676428 183.887215 
L 90.568616 183.827284 
L 91.460804 183.557474 
L 92.352992 183.461617 
L 93.24518 182.626997 
L 94.137369 182.585803 
L 95.921745 182.241579 
L 96.813933 182.493303 
L 97.706122 181.970254 
L 98.59831 182.111125 
L 99.490498 181.002373 
L 102.167063 180.551202 
L 104.843627 180.534042 
L 105.735815 179.355799 
L 107.520192 178.922826 
L 108.41238 178.250509 
L 109.304568 177.948574 
L 110.196757 177.315702 
L 111.088945 177.197547 
L 111.981133 176.076287 
L 112.873321 175.811727 
L 113.765509 175.329467 
L 115.549886 175.223801 
L 117.334262 174.50601 
L 118.22645 173.145508 
L 119.118639 172.925524 
L 120.010827 172.562392 
L 120.903015 172.037301 
L 121.795203 171.686875 
L 123.57958 171.360691 
L 124.471768 170.216896 
L 125.363956 169.956618 
L 126.256144 169.257288 
L 127.148333 168.739993 
L 128.932709 168.008875 
L 129.824897 167.780149 
L 130.717085 166.772468 
L 131.609274 166.272322 
L 133.39365 165.967588 
L 134.285838 165.659225 
L 136.070215 164.437198 
L 137.854591 162.729731 
L 138.746779 162.376842 
L 140.531156 161.931911 
L 141.423344 162.014132 
L 144.099909 160.479114 
L 144.992097 160.022716 
L 145.884285 159.843812 
L 146.776473 159.478497 
L 147.668661 158.785665 
L 148.56085 158.430785 
L 149.453038 157.464528 
L 151.237414 156.366017 
L 152.129603 155.378762 
L 153.021791 155.105374 
L 154.806167 154.224233 
L 155.698355 153.269686 
L 156.590544 152.584825 
L 158.37492 151.715122 
L 159.267108 151.455567 
L 161.051485 150.397467 
L 161.943673 149.67598 
L 162.835861 149.384328 
L 163.728049 148.862515 
L 164.620238 148.106312 
L 165.512426 147.730622 
L 166.404614 147.538055 
L 167.296802 146.712829 
L 168.18899 146.160601 
L 169.081179 145.323521 
L 170.865555 144.345039 
L 173.54212 143.435266 
L 175.326496 141.644219 
L 178.895249 139.19485 
L 179.787437 138.328102 
L 182.464002 137.066464 
L 184.248378 135.726681 
L 185.140566 135.606988 
L 186.032755 135.109398 
L 186.924943 134.849575 
L 187.817131 134.124846 
L 188.709319 133.860713 
L 189.601508 133.127481 
L 192.278072 131.493339 
L 197.631201 127.998321 
L 198.52339 127.453939 
L 199.415578 127.075598 
L 201.199954 125.747624 
L 202.984331 124.967368 
L 203.876519 124.126045 
L 204.768707 123.810115 
L 205.660895 123.645667 
L 207.445272 122.561864 
L 208.33746 121.741226 
L 209.229648 121.693967 
L 213.690589 119.526431 
L 214.582778 119.473901 
L 217.259342 118.528758 
L 219.935907 116.846787 
L 222.612471 115.833348 
L 223.50466 115.270662 
L 225.289036 114.587378 
L 226.181224 114.131172 
L 227.965601 113.666391 
L 228.857789 113.315073 
L 229.749977 112.701996 
L 231.534354 111.86262 
L 232.426542 111.49998 
L 233.31873 110.861867 
L 234.210918 110.645501 
L 235.995295 109.723752 
L 238.671859 108.36269 
L 239.564048 108.193305 
L 240.456236 107.799086 
L 241.348424 107.27498 
L 242.240612 107.065369 
L 243.1328 106.680137 
L 244.024989 106.506357 
L 244.917177 106.204852 
L 246.701553 105.343975 
L 247.593741 105.088114 
L 248.48593 104.353482 
L 249.378118 103.895673 
L 250.270306 103.573626 
L 251.162494 103.396546 
L 252.054683 102.87552 
L 252.946871 102.924892 
L 254.731247 102.263872 
L 255.623435 102.160399 
L 256.515624 101.834233 
L 257.407812 101.295174 
L 259.192188 100.668225 
L 260.084376 100.093739 
L 260.976565 99.933424 
L 261.868753 99.568987 
L 262.760941 99.416062 
L 263.653129 98.743549 
L 264.545317 98.647538 
L 266.329694 97.763488 
L 275.251576 93.806966 
L 276.143764 93.528112 
L 277.035952 93.51048 
L 277.928141 92.859671 
L 278.820329 92.48703 
L 279.712517 92.648725 
L 280.604705 92.174897 
L 283.28127 91.289266 
L 284.173458 90.871863 
L 285.065646 90.080059 
L 285.957835 89.741524 
L 286.850023 89.790271 
L 288.634399 88.628437 
L 292.203152 86.69728 
L 293.09534 86.440599 
L 293.987529 85.852941 
L 294.879717 85.589696 
L 295.771905 85.039774 
L 296.664093 84.869295 
L 297.556281 84.557363 
L 298.44847 84.058155 
L 299.340658 83.838288 
L 300.232846 83.474563 
L 301.125034 83.352182 
L 306.478164 81.280222 
L 307.370352 81.364995 
L 309.154728 80.464625 
L 310.046916 80.589179 
L 310.939105 80.324159 
L 311.831293 79.721886 
L 313.615669 79.199479 
L 314.507857 79.010441 
L 315.400046 78.596966 
L 316.292234 78.548952 
L 317.184422 78.138894 
L 318.07661 78.110925 
L 319.860987 77.47528 
L 320.753175 77.258804 
L 321.645363 76.818617 
L 322.537551 76.617149 
L 323.42974 76.712859 
L 326.998492 75.595378 
L 327.890681 75.180831 
L 329.675057 74.627185 
L 330.567245 74.212394 
L 331.459434 74.030121 
L 333.24381 73.352279 
L 335.028186 72.970167 
L 336.812563 72.180071 
L 340.381316 71.247157 
L 343.05788 70.323469 
L 343.950069 70.159141 
L 344.842257 69.811896 
L 346.626633 69.332225 
L 347.518821 69.000881 
L 348.41101 68.893513 
L 350.195386 68.462746 
L 351.979762 68.002807 
L 353.764139 67.315659 
L 355.548515 67.104289 
L 356.440704 66.656848 
L 357.332892 66.415515 
L 359.117268 65.78206 
L 360.901645 65.121436 
L 361.793833 65.023009 
L 364.470397 64.172625 
L 365.362586 63.637814 
L 368.03915 62.811429 
L 369.823527 62.460964 
L 371.607903 61.752137 
L 372.500091 61.540288 
L 374.284468 60.92805 
L 375.176656 60.794598 
L 376.068844 60.319077 
L 378.745409 59.873128 
L 380.529785 59.218717 
L 382.314162 58.772388 
L 383.20635 58.640609 
L 384.098538 58.234187 
L 387.667291 57.281169 
L 389.451667 56.631724 
L 391.236044 56.311135 
L 392.128232 55.854712 
L 393.02042 55.572823 
L 393.912608 55.134999 
L 394.804797 55.04036 
L 395.696985 54.773213 
L 396.589173 54.715645 
L 397.481361 54.436214 
L 399.265738 54.213466 
L 401.050114 53.485159 
L 403.726679 52.962907 
L 404.618867 52.564606 
L 405.511055 52.475314 
L 407.295432 51.897025 
L 408.18762 51.755672 
L 409.079808 51.358025 
L 410.864185 50.791529 
L 414.432937 49.53056 
L 415.325126 49.443247 
L 416.217314 49.080451 
L 418.893878 48.809703 
L 420.678255 48.234888 
L 422.462631 47.880667 
L 423.35482 47.553266 
L 424.247008 47.061593 
L 425.139196 46.945403 
L 426.031384 46.658956 
L 427.815761 46.815937 
L 428.707949 46.630225 
L 429.600137 46.594538 
L 430.492325 46.329809 
L 432.276702 45.977479 
L 433.16889 45.778375 
L 434.061078 45.444825 
L 435.845455 45.222427 
L 435.845455 45.222427 
" style="fill:none;stroke:#d62728;stroke-linecap:square;stroke-width:1.5;"/>
   </g>
   <g id="line2d_19"/>
   <g id="line2d_20"/>
   <g id="line2d_21"/>
   <g id="line2d_22"/>
   <g id="patch_3">
    <path d="M 63 192.24 
L 63 25.92 
" style="fill:none;stroke:#000000;stroke-linecap:square;stroke-linejoin:miter;stroke-width:0.8;"/>
   </g>
   <g id="patch_4">
    <path d="M 63 192.24 
L 453.6 192.24 
" style="fill:none;stroke:#000000;stroke-linecap:square;stroke-linejoin:miter;stroke-width:0.8;"/>
   </g>
   <g id="text_17">
    <!-- modeltype=base, labormarket=unbiased -->
    <g transform="translate(134.180625 19.92)scale(0.12 -0.12)">
     <defs>
      <path d="M 45.40625 46.390625 
L 45.40625 75.984375 
L 54.390625 75.984375 
L 54.390625 0 
L 45.40625 0 
L 45.40625 8.203125 
Q 42.578125 3.328125 38.25 0.953125 
Q 33.9375 -1.421875 27.875 -1.421875 
Q 17.96875 -1.421875 11.734375 6.484375 
Q 5.515625 14.40625 5.515625 27.296875 
Q 5.515625 40.1875 11.734375 48.09375 
Q 17.96875 56 27.875 56 
Q 33.9375 56 38.25 53.625 
Q 42.578125 51.265625 45.40625 46.390625 
z
M 14.796875 27.296875 
Q 14.796875 17.390625 18.875 11.75 
Q 22.953125 6.109375 30.078125 6.109375 
Q 37.203125 6.109375 41.296875 11.75 
Q 45.40625 17.390625 45.40625 27.296875 
Q 45.40625 37.203125 41.296875 42.84375 
Q 37.203125 48.484375 30.078125 48.484375 
Q 22.953125 48.484375 18.875 42.84375 
Q 14.796875 37.203125 14.796875 27.296875 
z
" id="DejaVuSans-100"/>
      <path d="M 9.421875 75.984375 
L 18.40625 75.984375 
L 18.40625 0 
L 9.421875 0 
z
" id="DejaVuSans-108"/>
      <path d="M 32.171875 -5.078125 
Q 28.375 -14.84375 24.75 -17.8125 
Q 21.140625 -20.796875 15.09375 -20.796875 
L 7.90625 -20.796875 
L 7.90625 -13.28125 
L 13.1875 -13.28125 
Q 16.890625 -13.28125 18.9375 -11.515625 
Q 21 -9.765625 23.484375 -3.21875 
L 25.09375 0.875 
L 2.984375 54.6875 
L 12.5 54.6875 
L 29.59375 11.921875 
L 46.6875 54.6875 
L 56.203125 54.6875 
z
" id="DejaVuSans-121"/>
      <path d="M 18.109375 8.203125 
L 18.109375 -20.796875 
L 9.078125 -20.796875 
L 9.078125 54.6875 
L 18.109375 54.6875 
L 18.109375 46.390625 
Q 20.953125 51.265625 25.265625 53.625 
Q 29.59375 56 35.59375 56 
Q 45.5625 56 51.78125 48.09375 
Q 58.015625 40.1875 58.015625 27.296875 
Q 58.015625 14.40625 51.78125 6.484375 
Q 45.5625 -1.421875 35.59375 -1.421875 
Q 29.59375 -1.421875 25.265625 0.953125 
Q 20.953125 3.328125 18.109375 8.203125 
z
M 48.6875 27.296875 
Q 48.6875 37.203125 44.609375 42.84375 
Q 40.53125 48.484375 33.40625 48.484375 
Q 26.265625 48.484375 22.1875 42.84375 
Q 18.109375 37.203125 18.109375 27.296875 
Q 18.109375 17.390625 22.1875 11.75 
Q 26.265625 6.109375 33.40625 6.109375 
Q 40.53125 6.109375 44.609375 11.75 
Q 48.6875 17.390625 48.6875 27.296875 
z
" id="DejaVuSans-112"/>
      <path d="M 10.59375 45.40625 
L 73.1875 45.40625 
L 73.1875 37.203125 
L 10.59375 37.203125 
z
M 10.59375 25.484375 
L 73.1875 25.484375 
L 73.1875 17.1875 
L 10.59375 17.1875 
z
" id="DejaVuSans-61"/>
      <path d="M 48.6875 27.296875 
Q 48.6875 37.203125 44.609375 42.84375 
Q 40.53125 48.484375 33.40625 48.484375 
Q 26.265625 48.484375 22.1875 42.84375 
Q 18.109375 37.203125 18.109375 27.296875 
Q 18.109375 17.390625 22.1875 11.75 
Q 26.265625 6.109375 33.40625 6.109375 
Q 40.53125 6.109375 44.609375 11.75 
Q 48.6875 17.390625 48.6875 27.296875 
z
M 18.109375 46.390625 
Q 20.953125 51.265625 25.265625 53.625 
Q 29.59375 56 35.59375 56 
Q 45.5625 56 51.78125 48.09375 
Q 58.015625 40.1875 58.015625 27.296875 
Q 58.015625 14.40625 51.78125 6.484375 
Q 45.5625 -1.421875 35.59375 -1.421875 
Q 29.59375 -1.421875 25.265625 0.953125 
Q 20.953125 3.328125 18.109375 8.203125 
L 18.109375 0 
L 9.078125 0 
L 9.078125 75.984375 
L 18.109375 75.984375 
z
" id="DejaVuSans-98"/>
      <path d="M 34.28125 27.484375 
Q 23.390625 27.484375 19.1875 25 
Q 14.984375 22.515625 14.984375 16.5 
Q 14.984375 11.71875 18.140625 8.90625 
Q 21.296875 6.109375 26.703125 6.109375 
Q 34.1875 6.109375 38.703125 11.40625 
Q 43.21875 16.703125 43.21875 25.484375 
L 43.21875 27.484375 
z
M 52.203125 31.203125 
L 52.203125 0 
L 43.21875 0 
L 43.21875 8.296875 
Q 40.140625 3.328125 35.546875 0.953125 
Q 30.953125 -1.421875 24.3125 -1.421875 
Q 15.921875 -1.421875 10.953125 3.296875 
Q 6 8.015625 6 15.921875 
Q 6 25.140625 12.171875 29.828125 
Q 18.359375 34.515625 30.609375 34.515625 
L 43.21875 34.515625 
L 43.21875 35.40625 
Q 43.21875 41.609375 39.140625 45 
Q 35.0625 48.390625 27.6875 48.390625 
Q 23 48.390625 18.546875 47.265625 
Q 14.109375 46.140625 10.015625 43.890625 
L 10.015625 52.203125 
Q 14.9375 54.109375 19.578125 55.046875 
Q 24.21875 56 28.609375 56 
Q 40.484375 56 46.34375 49.84375 
Q 52.203125 43.703125 52.203125 31.203125 
z
" id="DejaVuSans-97"/>
      <path d="M 44.28125 53.078125 
L 44.28125 44.578125 
Q 40.484375 46.53125 36.375 47.5 
Q 32.28125 48.484375 27.875 48.484375 
Q 21.1875 48.484375 17.84375 46.4375 
Q 14.5 44.390625 14.5 40.28125 
Q 14.5 37.15625 16.890625 35.375 
Q 19.28125 33.59375 26.515625 31.984375 
L 29.59375 31.296875 
Q 39.15625 29.25 43.1875 25.515625 
Q 47.21875 21.78125 47.21875 15.09375 
Q 47.21875 7.46875 41.1875 3.015625 
Q 35.15625 -1.421875 24.609375 -1.421875 
Q 20.21875 -1.421875 15.453125 -0.5625 
Q 10.6875 0.296875 5.421875 2 
L 5.421875 11.28125 
Q 10.40625 8.6875 15.234375 7.390625 
Q 20.0625 6.109375 24.8125 6.109375 
Q 31.15625 6.109375 34.5625 8.28125 
Q 37.984375 10.453125 37.984375 14.40625 
Q 37.984375 18.0625 35.515625 20.015625 
Q 33.0625 21.96875 24.703125 23.78125 
L 21.578125 24.515625 
Q 13.234375 26.265625 9.515625 29.90625 
Q 5.8125 33.546875 5.8125 39.890625 
Q 5.8125 47.609375 11.28125 51.796875 
Q 16.75 56 26.8125 56 
Q 31.78125 56 36.171875 55.265625 
Q 40.578125 54.546875 44.28125 53.078125 
z
" id="DejaVuSans-115"/>
      <path d="M 11.71875 12.40625 
L 22.015625 12.40625 
L 22.015625 4 
L 14.015625 -11.625 
L 7.71875 -11.625 
L 11.71875 4 
z
" id="DejaVuSans-44"/>
      <path id="DejaVuSans-32"/>
      <path d="M 41.109375 46.296875 
Q 39.59375 47.171875 37.8125 47.578125 
Q 36.03125 48 33.890625 48 
Q 26.265625 48 22.1875 43.046875 
Q 18.109375 38.09375 18.109375 28.8125 
L 18.109375 0 
L 9.078125 0 
L 9.078125 54.6875 
L 18.109375 54.6875 
L 18.109375 46.1875 
Q 20.953125 51.171875 25.484375 53.578125 
Q 30.03125 56 36.53125 56 
Q 37.453125 56 38.578125 55.875 
Q 39.703125 55.765625 41.0625 55.515625 
z
" id="DejaVuSans-114"/>
      <path d="M 9.078125 75.984375 
L 18.109375 75.984375 
L 18.109375 31.109375 
L 44.921875 54.6875 
L 56.390625 54.6875 
L 27.390625 29.109375 
L 57.625 0 
L 45.90625 0 
L 18.109375 26.703125 
L 18.109375 0 
L 9.078125 0 
z
" id="DejaVuSans-107"/>
      <path d="M 8.5 21.578125 
L 8.5 54.6875 
L 17.484375 54.6875 
L 17.484375 21.921875 
Q 17.484375 14.15625 20.5 10.265625 
Q 23.53125 6.390625 29.59375 6.390625 
Q 36.859375 6.390625 41.078125 11.03125 
Q 45.3125 15.671875 45.3125 23.6875 
L 45.3125 54.6875 
L 54.296875 54.6875 
L 54.296875 0 
L 45.3125 0 
L 45.3125 8.40625 
Q 42.046875 3.421875 37.71875 1 
Q 33.40625 -1.421875 27.6875 -1.421875 
Q 18.265625 -1.421875 13.375 4.4375 
Q 8.5 10.296875 8.5 21.578125 
z
M 31.109375 56 
z
" id="DejaVuSans-117"/>
      <path d="M 54.890625 33.015625 
L 54.890625 0 
L 45.90625 0 
L 45.90625 32.71875 
Q 45.90625 40.484375 42.875 44.328125 
Q 39.84375 48.1875 33.796875 48.1875 
Q 26.515625 48.1875 22.3125 43.546875 
Q 18.109375 38.921875 18.109375 30.90625 
L 18.109375 0 
L 9.078125 0 
L 9.078125 54.6875 
L 18.109375 54.6875 
L 18.109375 46.1875 
Q 21.34375 51.125 25.703125 53.5625 
Q 30.078125 56 35.796875 56 
Q 45.21875 56 50.046875 50.171875 
Q 54.890625 44.34375 54.890625 33.015625 
z
" id="DejaVuSans-110"/>
     </defs>
     <use xlink:href="#DejaVuSans-109"/>
     <use x="97.412109" xlink:href="#DejaVuSans-111"/>
     <use x="158.59375" xlink:href="#DejaVuSans-100"/>
     <use x="222.070312" xlink:href="#DejaVuSans-101"/>
     <use x="283.59375" xlink:href="#DejaVuSans-108"/>
     <use x="311.376953" xlink:href="#DejaVuSans-116"/>
     <use x="350.585938" xlink:href="#DejaVuSans-121"/>
     <use x="409.765625" xlink:href="#DejaVuSans-112"/>
     <use x="473.242188" xlink:href="#DejaVuSans-101"/>
     <use x="534.765625" xlink:href="#DejaVuSans-61"/>
     <use x="618.554688" xlink:href="#DejaVuSans-98"/>
     <use x="682.03125" xlink:href="#DejaVuSans-97"/>
     <use x="743.310547" xlink:href="#DejaVuSans-115"/>
     <use x="795.410156" xlink:href="#DejaVuSans-101"/>
     <use x="856.933594" xlink:href="#DejaVuSans-44"/>
     <use x="888.720703" xlink:href="#DejaVuSans-32"/>
     <use x="920.507812" xlink:href="#DejaVuSans-108"/>
     <use x="948.291016" xlink:href="#DejaVuSans-97"/>
     <use x="1009.570312" xlink:href="#DejaVuSans-98"/>
     <use x="1073.046875" xlink:href="#DejaVuSans-111"/>
     <use x="1134.228516" xlink:href="#DejaVuSans-114"/>
     <use x="1173.591797" xlink:href="#DejaVuSans-109"/>
     <use x="1271.003906" xlink:href="#DejaVuSans-97"/>
     <use x="1332.283203" xlink:href="#DejaVuSans-114"/>
     <use x="1373.396484" xlink:href="#DejaVuSans-107"/>
     <use x="1427.681641" xlink:href="#DejaVuSans-101"/>
     <use x="1489.205078" xlink:href="#DejaVuSans-116"/>
     <use x="1528.414062" xlink:href="#DejaVuSans-61"/>
     <use x="1612.203125" xlink:href="#DejaVuSans-117"/>
     <use x="1675.582031" xlink:href="#DejaVuSans-110"/>
     <use x="1738.960938" xlink:href="#DejaVuSans-98"/>
     <use x="1802.4375" xlink:href="#DejaVuSans-105"/>
     <use x="1830.220703" xlink:href="#DejaVuSans-97"/>
     <use x="1891.5" xlink:href="#DejaVuSans-115"/>
     <use x="1943.599609" xlink:href="#DejaVuSans-101"/>
     <use x="2005.123047" xlink:href="#DejaVuSans-100"/>
    </g>
   </g>
   <g id="legend_1">
    <g id="patch_5">
     <path d="M 70 107.58875 
L 235.407813 107.58875 
Q 237.407813 107.58875 237.407813 105.58875 
L 237.407813 32.92 
Q 237.407813 30.92 235.407813 30.92 
L 70 30.92 
Q 68 30.92 68 32.92 
L 68 105.58875 
Q 68 107.58875 70 107.58875 
z
" style="fill:#ffffff;opacity:0.8;stroke:#cccccc;stroke-linejoin:miter;"/>
    </g>
    <g id="text_18">
     <!-- scenario -->
     <g transform="translate(131.536719 42.518438)scale(0.1 -0.1)">
      <use xlink:href="#DejaVuSans-115"/>
      <use x="52.099609" xlink:href="#DejaVuSans-99"/>
      <use x="107.080078" xlink:href="#DejaVuSans-101"/>
      <use x="168.603516" xlink:href="#DejaVuSans-110"/>
      <use x="231.982422" xlink:href="#DejaVuSans-97"/>
      <use x="293.261719" xlink:href="#DejaVuSans-114"/>
      <use x="334.375" xlink:href="#DejaVuSans-105"/>
      <use x="362.158203" xlink:href="#DejaVuSans-111"/>
     </g>
    </g>
    <g id="line2d_23">
     <path d="M 72 53.696562 
L 92 53.696562 
" style="fill:none;stroke:#1f77b4;stroke-linecap:square;stroke-width:1.5;"/>
    </g>
    <g id="line2d_24"/>
    <g id="text_19">
     <!-- onlylow -->
     <g transform="translate(100 57.196562)scale(0.1 -0.1)">
      <defs>
       <path d="M 4.203125 54.6875 
L 13.1875 54.6875 
L 24.421875 12.015625 
L 35.59375 54.6875 
L 46.1875 54.6875 
L 57.421875 12.015625 
L 68.609375 54.6875 
L 77.59375 54.6875 
L 63.28125 0 
L 52.6875 0 
L 40.921875 44.828125 
L 29.109375 0 
L 18.5 0 
z
" id="DejaVuSans-119"/>
      </defs>
      <use xlink:href="#DejaVuSans-111"/>
      <use x="61.181641" xlink:href="#DejaVuSans-110"/>
      <use x="124.560547" xlink:href="#DejaVuSans-108"/>
      <use x="152.34375" xlink:href="#DejaVuSans-121"/>
      <use x="211.523438" xlink:href="#DejaVuSans-108"/>
      <use x="239.306641" xlink:href="#DejaVuSans-111"/>
      <use x="300.488281" xlink:href="#DejaVuSans-119"/>
     </g>
    </g>
    <g id="line2d_25">
     <path d="M 72 68.374687 
L 92 68.374687 
" style="fill:none;stroke:#ff7f0e;stroke-linecap:square;stroke-width:1.5;"/>
    </g>
    <g id="line2d_26"/>
    <g id="text_20">
     <!-- onlyhigh -->
     <g transform="translate(100 71.874687)scale(0.1 -0.1)">
      <defs>
       <path d="M 54.890625 33.015625 
L 54.890625 0 
L 45.90625 0 
L 45.90625 32.71875 
Q 45.90625 40.484375 42.875 44.328125 
Q 39.84375 48.1875 33.796875 48.1875 
Q 26.515625 48.1875 22.3125 43.546875 
Q 18.109375 38.921875 18.109375 30.90625 
L 18.109375 0 
L 9.078125 0 
L 9.078125 75.984375 
L 18.109375 75.984375 
L 18.109375 46.1875 
Q 21.34375 51.125 25.703125 53.5625 
Q 30.078125 56 35.796875 56 
Q 45.21875 56 50.046875 50.171875 
Q 54.890625 44.34375 54.890625 33.015625 
z
" id="DejaVuSans-104"/>
       <path d="M 45.40625 27.984375 
Q 45.40625 37.75 41.375 43.109375 
Q 37.359375 48.484375 30.078125 48.484375 
Q 22.859375 48.484375 18.828125 43.109375 
Q 14.796875 37.75 14.796875 27.984375 
Q 14.796875 18.265625 18.828125 12.890625 
Q 22.859375 7.515625 30.078125 7.515625 
Q 37.359375 7.515625 41.375 12.890625 
Q 45.40625 18.265625 45.40625 27.984375 
z
M 54.390625 6.78125 
Q 54.390625 -7.171875 48.1875 -13.984375 
Q 42 -20.796875 29.203125 -20.796875 
Q 24.46875 -20.796875 20.265625 -20.09375 
Q 16.0625 -19.390625 12.109375 -17.921875 
L 12.109375 -9.1875 
Q 16.0625 -11.328125 19.921875 -12.34375 
Q 23.78125 -13.375 27.78125 -13.375 
Q 36.625 -13.375 41.015625 -8.765625 
Q 45.40625 -4.15625 45.40625 5.171875 
L 45.40625 9.625 
Q 42.625 4.78125 38.28125 2.390625 
Q 33.9375 0 27.875 0 
Q 17.828125 0 11.671875 7.65625 
Q 5.515625 15.328125 5.515625 27.984375 
Q 5.515625 40.671875 11.671875 48.328125 
Q 17.828125 56 27.875 56 
Q 33.9375 56 38.28125 53.609375 
Q 42.625 51.21875 45.40625 46.390625 
L 45.40625 54.6875 
L 54.390625 54.6875 
z
" id="DejaVuSans-103"/>
      </defs>
      <use xlink:href="#DejaVuSans-111"/>
      <use x="61.181641" xlink:href="#DejaVuSans-110"/>
      <use x="124.560547" xlink:href="#DejaVuSans-108"/>
      <use x="152.34375" xlink:href="#DejaVuSans-121"/>
      <use x="211.523438" xlink:href="#DejaVuSans-104"/>
      <use x="274.902344" xlink:href="#DejaVuSans-105"/>
      <use x="302.685547" xlink:href="#DejaVuSans-103"/>
      <use x="366.162109" xlink:href="#DejaVuSans-104"/>
     </g>
    </g>
    <g id="line2d_27">
     <path d="M 72 83.052813 
L 92 83.052813 
" style="fill:none;stroke:#2ca02c;stroke-linecap:square;stroke-width:1.5;"/>
    </g>
    <g id="line2d_28"/>
    <g id="text_21">
     <!-- balanced -->
     <g transform="translate(100 86.552813)scale(0.1 -0.1)">
      <use xlink:href="#DejaVuSans-98"/>
      <use x="63.476562" xlink:href="#DejaVuSans-97"/>
      <use x="124.755859" xlink:href="#DejaVuSans-108"/>
      <use x="152.539062" xlink:href="#DejaVuSans-97"/>
      <use x="213.818359" xlink:href="#DejaVuSans-110"/>
      <use x="277.197266" xlink:href="#DejaVuSans-99"/>
      <use x="332.177734" xlink:href="#DejaVuSans-101"/>
      <use x="393.701172" xlink:href="#DejaVuSans-100"/>
     </g>
    </g>
    <g id="line2d_29">
     <path d="M 72 97.730938 
L 92 97.730938 
" style="fill:none;stroke:#d62728;stroke-linecap:square;stroke-width:1.5;"/>
    </g>
    <g id="line2d_30"/>
    <g id="text_22">
     <!-- balanced_errors_penalized -->
     <g transform="translate(100 101.230938)scale(0.1 -0.1)">
      <defs>
       <path d="M 50.984375 -16.609375 
L 50.984375 -23.578125 
L -0.984375 -23.578125 
L -0.984375 -16.609375 
z
" id="DejaVuSans-95"/>
       <path d="M 5.515625 54.6875 
L 48.1875 54.6875 
L 48.1875 46.484375 
L 14.40625 7.171875 
L 48.1875 7.171875 
L 48.1875 0 
L 4.296875 0 
L 4.296875 8.203125 
L 38.09375 47.515625 
L 5.515625 47.515625 
z
" id="DejaVuSans-122"/>
      </defs>
      <use xlink:href="#DejaVuSans-98"/>
      <use x="63.476562" xlink:href="#DejaVuSans-97"/>
      <use x="124.755859" xlink:href="#DejaVuSans-108"/>
      <use x="152.539062" xlink:href="#DejaVuSans-97"/>
      <use x="213.818359" xlink:href="#DejaVuSans-110"/>
      <use x="277.197266" xlink:href="#DejaVuSans-99"/>
      <use x="332.177734" xlink:href="#DejaVuSans-101"/>
      <use x="393.701172" xlink:href="#DejaVuSans-100"/>
      <use x="457.177734" xlink:href="#DejaVuSans-95"/>
      <use x="507.177734" xlink:href="#DejaVuSans-101"/>
      <use x="568.701172" xlink:href="#DejaVuSans-114"/>
      <use x="608.064453" xlink:href="#DejaVuSans-114"/>
      <use x="646.927734" xlink:href="#DejaVuSans-111"/>
      <use x="708.109375" xlink:href="#DejaVuSans-114"/>
      <use x="749.222656" xlink:href="#DejaVuSans-115"/>
      <use x="801.322266" xlink:href="#DejaVuSans-95"/>
      <use x="851.322266" xlink:href="#DejaVuSans-112"/>
      <use x="914.798828" xlink:href="#DejaVuSans-101"/>
      <use x="976.322266" xlink:href="#DejaVuSans-110"/>
      <use x="1039.701172" xlink:href="#DejaVuSans-97"/>
      <use x="1100.980469" xlink:href="#DejaVuSans-108"/>
      <use x="1128.763672" xlink:href="#DejaVuSans-105"/>
      <use x="1156.546875" xlink:href="#DejaVuSans-122"/>
      <use x="1209.037109" xlink:href="#DejaVuSans-101"/>
      <use x="1270.560547" xlink:href="#DejaVuSans-100"/>
     </g>
    </g>
   </g>
  </g>
 </g>
 <defs>
  <clipPath id="p3086d45cc9">
   <rect height="166.32" width="390.6" x="63" y="25.92"/>
  </clipPath>
 </defs>
</svg>
