<?xml version="1.0" encoding="utf-8" standalone="no"?>
<!DOCTYPE svg PUBLIC "-//W3C//DTD SVG 1.1//EN"
  "http://www.w3.org/Graphics/SVG/1.1/DTD/svg11.dtd">
<!-- Created with matplotlib (https://matplotlib.org/) -->
<svg height="216pt" version="1.1" viewBox="0 0 504 216" width="504pt" xmlns="http://www.w3.org/2000/svg" xmlns:xlink="http://www.w3.org/1999/xlink">
 <metadata>
  <rdf:RDF xmlns:cc="http://creativecommons.org/ns#" xmlns:dc="http://purl.org/dc/elements/1.1/" xmlns:rdf="http://www.w3.org/1999/02/22-rdf-syntax-ns#">
   <cc:Work>
    <dc:type rdf:resource="http://purl.org/dc/dcmitype/StillImage"/>
    <dc:date>2021-11-26T09:55:11.395347</dc:date>
    <dc:format>image/svg+xml</dc:format>
    <dc:creator>
     <cc:Agent>
      <dc:title>Matplotlib v3.3.4, https://matplotlib.org/</dc:title>
     </cc:Agent>
    </dc:creator>
   </cc:Work>
  </rdf:RDF>
 </metadata>
 <defs>
  <style type="text/css">*{stroke-linecap:butt;stroke-linejoin:round;}</style>
 </defs>
 <g id="figure_1">
  <g id="patch_1">
   <path d="M 0 216 
L 504 216 
L 504 0 
L 0 0 
z
" style="fill:#ffffff;"/>
  </g>
  <g id="axes_1">
   <g id="patch_2">
    <path d="M 63 192.24 
L 453.6 192.24 
L 453.6 25.92 
L 63 25.92 
z
" style="fill:#ffffff;"/>
   </g>
   <g id="matplotlib.axis_1">
    <g id="xtick_1">
     <g id="line2d_1">
      <defs>
       <path d="M 0 0 
L 0 3.5 
" id="m84f5a2c3d4" style="stroke:#000000;stroke-width:0.8;"/>
      </defs>
      <g>
       <use style="stroke:#000000;stroke-width:0.8;" x="79.862357" xlink:href="#m84f5a2c3d4" y="192.24"/>
      </g>
     </g>
     <g id="text_1">
      <!-- 400 -->
      <g transform="translate(70.318607 206.838437)scale(0.1 -0.1)">
       <defs>
        <path d="M 37.796875 64.3125 
L 12.890625 25.390625 
L 37.796875 25.390625 
z
M 35.203125 72.90625 
L 47.609375 72.90625 
L 47.609375 25.390625 
L 58.015625 25.390625 
L 58.015625 17.1875 
L 47.609375 17.1875 
L 47.609375 0 
L 37.796875 0 
L 37.796875 17.1875 
L 4.890625 17.1875 
L 4.890625 26.703125 
z
" id="DejaVuSans-52"/>
        <path d="M 31.78125 66.40625 
Q 24.171875 66.40625 20.328125 58.90625 
Q 16.5 51.421875 16.5 36.375 
Q 16.5 21.390625 20.328125 13.890625 
Q 24.171875 6.390625 31.78125 6.390625 
Q 39.453125 6.390625 43.28125 13.890625 
Q 47.125 21.390625 47.125 36.375 
Q 47.125 51.421875 43.28125 58.90625 
Q 39.453125 66.40625 31.78125 66.40625 
z
M 31.78125 74.21875 
Q 44.046875 74.21875 50.515625 64.515625 
Q 56.984375 54.828125 56.984375 36.375 
Q 56.984375 17.96875 50.515625 8.265625 
Q 44.046875 -1.421875 31.78125 -1.421875 
Q 19.53125 -1.421875 13.0625 8.265625 
Q 6.59375 17.96875 6.59375 36.375 
Q 6.59375 54.828125 13.0625 64.515625 
Q 19.53125 74.21875 31.78125 74.21875 
z
" id="DejaVuSans-48"/>
       </defs>
       <use xlink:href="#DejaVuSans-52"/>
       <use x="63.623047" xlink:href="#DejaVuSans-48"/>
       <use x="127.246094" xlink:href="#DejaVuSans-48"/>
      </g>
     </g>
    </g>
    <g id="xtick_2">
     <g id="line2d_2">
      <g>
       <use style="stroke:#000000;stroke-width:0.8;" x="124.471768" xlink:href="#m84f5a2c3d4" y="192.24"/>
      </g>
     </g>
     <g id="text_2">
      <!-- 450 -->
      <g transform="translate(114.928018 206.838437)scale(0.1 -0.1)">
       <defs>
        <path d="M 10.796875 72.90625 
L 49.515625 72.90625 
L 49.515625 64.59375 
L 19.828125 64.59375 
L 19.828125 46.734375 
Q 21.96875 47.46875 24.109375 47.828125 
Q 26.265625 48.1875 28.421875 48.1875 
Q 40.625 48.1875 47.75 41.5 
Q 54.890625 34.8125 54.890625 23.390625 
Q 54.890625 11.625 47.5625 5.09375 
Q 40.234375 -1.421875 26.90625 -1.421875 
Q 22.3125 -1.421875 17.546875 -0.640625 
Q 12.796875 0.140625 7.71875 1.703125 
L 7.71875 11.625 
Q 12.109375 9.234375 16.796875 8.0625 
Q 21.484375 6.890625 26.703125 6.890625 
Q 35.15625 6.890625 40.078125 11.328125 
Q 45.015625 15.765625 45.015625 23.390625 
Q 45.015625 31 40.078125 35.4375 
Q 35.15625 39.890625 26.703125 39.890625 
Q 22.75 39.890625 18.8125 39.015625 
Q 14.890625 38.140625 10.796875 36.28125 
z
" id="DejaVuSans-53"/>
       </defs>
       <use xlink:href="#DejaVuSans-52"/>
       <use x="63.623047" xlink:href="#DejaVuSans-53"/>
       <use x="127.246094" xlink:href="#DejaVuSans-48"/>
      </g>
     </g>
    </g>
    <g id="xtick_3">
     <g id="line2d_3">
      <g>
       <use style="stroke:#000000;stroke-width:0.8;" x="169.081179" xlink:href="#m84f5a2c3d4" y="192.24"/>
      </g>
     </g>
     <g id="text_3">
      <!-- 500 -->
      <g transform="translate(159.537429 206.838437)scale(0.1 -0.1)">
       <use xlink:href="#DejaVuSans-53"/>
       <use x="63.623047" xlink:href="#DejaVuSans-48"/>
       <use x="127.246094" xlink:href="#DejaVuSans-48"/>
      </g>
     </g>
    </g>
    <g id="xtick_4">
     <g id="line2d_4">
      <g>
       <use style="stroke:#000000;stroke-width:0.8;" x="213.690589" xlink:href="#m84f5a2c3d4" y="192.24"/>
      </g>
     </g>
     <g id="text_4">
      <!-- 550 -->
      <g transform="translate(204.146839 206.838437)scale(0.1 -0.1)">
       <use xlink:href="#DejaVuSans-53"/>
       <use x="63.623047" xlink:href="#DejaVuSans-53"/>
       <use x="127.246094" xlink:href="#DejaVuSans-48"/>
      </g>
     </g>
    </g>
    <g id="xtick_5">
     <g id="line2d_5">
      <g>
       <use style="stroke:#000000;stroke-width:0.8;" x="258.3" xlink:href="#m84f5a2c3d4" y="192.24"/>
      </g>
     </g>
     <g id="text_5">
      <!-- 600 -->
      <g transform="translate(248.75625 206.838437)scale(0.1 -0.1)">
       <defs>
        <path d="M 33.015625 40.375 
Q 26.375 40.375 22.484375 35.828125 
Q 18.609375 31.296875 18.609375 23.390625 
Q 18.609375 15.53125 22.484375 10.953125 
Q 26.375 6.390625 33.015625 6.390625 
Q 39.65625 6.390625 43.53125 10.953125 
Q 47.40625 15.53125 47.40625 23.390625 
Q 47.40625 31.296875 43.53125 35.828125 
Q 39.65625 40.375 33.015625 40.375 
z
M 52.59375 71.296875 
L 52.59375 62.3125 
Q 48.875 64.0625 45.09375 64.984375 
Q 41.3125 65.921875 37.59375 65.921875 
Q 27.828125 65.921875 22.671875 59.328125 
Q 17.53125 52.734375 16.796875 39.40625 
Q 19.671875 43.65625 24.015625 45.921875 
Q 28.375 48.1875 33.59375 48.1875 
Q 44.578125 48.1875 50.953125 41.515625 
Q 57.328125 34.859375 57.328125 23.390625 
Q 57.328125 12.15625 50.6875 5.359375 
Q 44.046875 -1.421875 33.015625 -1.421875 
Q 20.359375 -1.421875 13.671875 8.265625 
Q 6.984375 17.96875 6.984375 36.375 
Q 6.984375 53.65625 15.1875 63.9375 
Q 23.390625 74.21875 37.203125 74.21875 
Q 40.921875 74.21875 44.703125 73.484375 
Q 48.484375 72.75 52.59375 71.296875 
z
" id="DejaVuSans-54"/>
       </defs>
       <use xlink:href="#DejaVuSans-54"/>
       <use x="63.623047" xlink:href="#DejaVuSans-48"/>
       <use x="127.246094" xlink:href="#DejaVuSans-48"/>
      </g>
     </g>
    </g>
    <g id="xtick_6">
     <g id="line2d_6">
      <g>
       <use style="stroke:#000000;stroke-width:0.8;" x="302.909411" xlink:href="#m84f5a2c3d4" y="192.24"/>
      </g>
     </g>
     <g id="text_6">
      <!-- 650 -->
      <g transform="translate(293.365661 206.838437)scale(0.1 -0.1)">
       <use xlink:href="#DejaVuSans-54"/>
       <use x="63.623047" xlink:href="#DejaVuSans-53"/>
       <use x="127.246094" xlink:href="#DejaVuSans-48"/>
      </g>
     </g>
    </g>
    <g id="xtick_7">
     <g id="line2d_7">
      <g>
       <use style="stroke:#000000;stroke-width:0.8;" x="347.518821" xlink:href="#m84f5a2c3d4" y="192.24"/>
      </g>
     </g>
     <g id="text_7">
      <!-- 700 -->
      <g transform="translate(337.975071 206.838437)scale(0.1 -0.1)">
       <defs>
        <path d="M 8.203125 72.90625 
L 55.078125 72.90625 
L 55.078125 68.703125 
L 28.609375 0 
L 18.3125 0 
L 43.21875 64.59375 
L 8.203125 64.59375 
z
" id="DejaVuSans-55"/>
       </defs>
       <use xlink:href="#DejaVuSans-55"/>
       <use x="63.623047" xlink:href="#DejaVuSans-48"/>
       <use x="127.246094" xlink:href="#DejaVuSans-48"/>
      </g>
     </g>
    </g>
    <g id="xtick_8">
     <g id="line2d_8">
      <g>
       <use style="stroke:#000000;stroke-width:0.8;" x="392.128232" xlink:href="#m84f5a2c3d4" y="192.24"/>
      </g>
     </g>
     <g id="text_8">
      <!-- 750 -->
      <g transform="translate(382.584482 206.838437)scale(0.1 -0.1)">
       <use xlink:href="#DejaVuSans-55"/>
       <use x="63.623047" xlink:href="#DejaVuSans-53"/>
       <use x="127.246094" xlink:href="#DejaVuSans-48"/>
      </g>
     </g>
    </g>
    <g id="xtick_9">
     <g id="line2d_9">
      <g>
       <use style="stroke:#000000;stroke-width:0.8;" x="436.737643" xlink:href="#m84f5a2c3d4" y="192.24"/>
      </g>
     </g>
     <g id="text_9">
      <!-- 800 -->
      <g transform="translate(427.193893 206.838437)scale(0.1 -0.1)">
       <defs>
        <path d="M 31.78125 34.625 
Q 24.75 34.625 20.71875 30.859375 
Q 16.703125 27.09375 16.703125 20.515625 
Q 16.703125 13.921875 20.71875 10.15625 
Q 24.75 6.390625 31.78125 6.390625 
Q 38.8125 6.390625 42.859375 10.171875 
Q 46.921875 13.96875 46.921875 20.515625 
Q 46.921875 27.09375 42.890625 30.859375 
Q 38.875 34.625 31.78125 34.625 
z
M 21.921875 38.8125 
Q 15.578125 40.375 12.03125 44.71875 
Q 8.5 49.078125 8.5 55.328125 
Q 8.5 64.0625 14.71875 69.140625 
Q 20.953125 74.21875 31.78125 74.21875 
Q 42.671875 74.21875 48.875 69.140625 
Q 55.078125 64.0625 55.078125 55.328125 
Q 55.078125 49.078125 51.53125 44.71875 
Q 48 40.375 41.703125 38.8125 
Q 48.828125 37.15625 52.796875 32.3125 
Q 56.78125 27.484375 56.78125 20.515625 
Q 56.78125 9.90625 50.3125 4.234375 
Q 43.84375 -1.421875 31.78125 -1.421875 
Q 19.734375 -1.421875 13.25 4.234375 
Q 6.78125 9.90625 6.78125 20.515625 
Q 6.78125 27.484375 10.78125 32.3125 
Q 14.796875 37.15625 21.921875 38.8125 
z
M 18.3125 54.390625 
Q 18.3125 48.734375 21.84375 45.5625 
Q 25.390625 42.390625 31.78125 42.390625 
Q 38.140625 42.390625 41.71875 45.5625 
Q 45.3125 48.734375 45.3125 54.390625 
Q 45.3125 60.0625 41.71875 63.234375 
Q 38.140625 66.40625 31.78125 66.40625 
Q 25.390625 66.40625 21.84375 63.234375 
Q 18.3125 60.0625 18.3125 54.390625 
z
" id="DejaVuSans-56"/>
       </defs>
       <use xlink:href="#DejaVuSans-56"/>
       <use x="63.623047" xlink:href="#DejaVuSans-48"/>
       <use x="127.246094" xlink:href="#DejaVuSans-48"/>
      </g>
     </g>
    </g>
    <g id="text_10">
     <!-- time -->
     <g transform="translate(247.003906 220.516562)scale(0.1 -0.1)">
      <defs>
       <path d="M 18.3125 70.21875 
L 18.3125 54.6875 
L 36.8125 54.6875 
L 36.8125 47.703125 
L 18.3125 47.703125 
L 18.3125 18.015625 
Q 18.3125 11.328125 20.140625 9.421875 
Q 21.96875 7.515625 27.59375 7.515625 
L 36.8125 7.515625 
L 36.8125 0 
L 27.59375 0 
Q 17.1875 0 13.234375 3.875 
Q 9.28125 7.765625 9.28125 18.015625 
L 9.28125 47.703125 
L 2.6875 47.703125 
L 2.6875 54.6875 
L 9.28125 54.6875 
L 9.28125 70.21875 
z
" id="DejaVuSans-116"/>
       <path d="M 9.421875 54.6875 
L 18.40625 54.6875 
L 18.40625 0 
L 9.421875 0 
z
M 9.421875 75.984375 
L 18.40625 75.984375 
L 18.40625 64.59375 
L 9.421875 64.59375 
z
" id="DejaVuSans-105"/>
       <path d="M 52 44.1875 
Q 55.375 50.25 60.0625 53.125 
Q 64.75 56 71.09375 56 
Q 79.640625 56 84.28125 50.015625 
Q 88.921875 44.046875 88.921875 33.015625 
L 88.921875 0 
L 79.890625 0 
L 79.890625 32.71875 
Q 79.890625 40.578125 77.09375 44.375 
Q 74.3125 48.1875 68.609375 48.1875 
Q 61.625 48.1875 57.5625 43.546875 
Q 53.515625 38.921875 53.515625 30.90625 
L 53.515625 0 
L 44.484375 0 
L 44.484375 32.71875 
Q 44.484375 40.625 41.703125 44.40625 
Q 38.921875 48.1875 33.109375 48.1875 
Q 26.21875 48.1875 22.15625 43.53125 
Q 18.109375 38.875 18.109375 30.90625 
L 18.109375 0 
L 9.078125 0 
L 9.078125 54.6875 
L 18.109375 54.6875 
L 18.109375 46.1875 
Q 21.1875 51.21875 25.484375 53.609375 
Q 29.78125 56 35.6875 56 
Q 41.65625 56 45.828125 52.96875 
Q 50 49.953125 52 44.1875 
z
" id="DejaVuSans-109"/>
       <path d="M 56.203125 29.59375 
L 56.203125 25.203125 
L 14.890625 25.203125 
Q 15.484375 15.921875 20.484375 11.0625 
Q 25.484375 6.203125 34.421875 6.203125 
Q 39.59375 6.203125 44.453125 7.46875 
Q 49.3125 8.734375 54.109375 11.28125 
L 54.109375 2.78125 
Q 49.265625 0.734375 44.1875 -0.34375 
Q 39.109375 -1.421875 33.890625 -1.421875 
Q 20.796875 -1.421875 13.15625 6.1875 
Q 5.515625 13.8125 5.515625 26.8125 
Q 5.515625 40.234375 12.765625 48.109375 
Q 20.015625 56 32.328125 56 
Q 43.359375 56 49.78125 48.890625 
Q 56.203125 41.796875 56.203125 29.59375 
z
M 47.21875 32.234375 
Q 47.125 39.59375 43.09375 43.984375 
Q 39.0625 48.390625 32.421875 48.390625 
Q 24.90625 48.390625 20.390625 44.140625 
Q 15.875 39.890625 15.1875 32.171875 
z
" id="DejaVuSans-101"/>
      </defs>
      <use xlink:href="#DejaVuSans-116"/>
      <use x="39.208984" xlink:href="#DejaVuSans-105"/>
      <use x="66.992188" xlink:href="#DejaVuSans-109"/>
      <use x="164.404297" xlink:href="#DejaVuSans-101"/>
     </g>
    </g>
   </g>
   <g id="matplotlib.axis_2">
    <g id="ytick_1">
     <g id="line2d_10">
      <defs>
       <path d="M 0 0 
L -3.5 0 
" id="m3cc51fef0b" style="stroke:#000000;stroke-width:0.8;"/>
      </defs>
      <g>
       <use style="stroke:#000000;stroke-width:0.8;" x="63" xlink:href="#m3cc51fef0b" y="159.040153"/>
      </g>
     </g>
     <g id="text_11">
      <!-- 1.20 -->
      <g transform="translate(33.734375 162.839372)scale(0.1 -0.1)">
       <defs>
        <path d="M 12.40625 8.296875 
L 28.515625 8.296875 
L 28.515625 63.921875 
L 10.984375 60.40625 
L 10.984375 69.390625 
L 28.421875 72.90625 
L 38.28125 72.90625 
L 38.28125 8.296875 
L 54.390625 8.296875 
L 54.390625 0 
L 12.40625 0 
z
" id="DejaVuSans-49"/>
        <path d="M 10.6875 12.40625 
L 21 12.40625 
L 21 0 
L 10.6875 0 
z
" id="DejaVuSans-46"/>
        <path d="M 19.1875 8.296875 
L 53.609375 8.296875 
L 53.609375 0 
L 7.328125 0 
L 7.328125 8.296875 
Q 12.9375 14.109375 22.625 23.890625 
Q 32.328125 33.6875 34.8125 36.53125 
Q 39.546875 41.84375 41.421875 45.53125 
Q 43.3125 49.21875 43.3125 52.78125 
Q 43.3125 58.59375 39.234375 62.25 
Q 35.15625 65.921875 28.609375 65.921875 
Q 23.96875 65.921875 18.8125 64.3125 
Q 13.671875 62.703125 7.8125 59.421875 
L 7.8125 69.390625 
Q 13.765625 71.78125 18.9375 73 
Q 24.125 74.21875 28.421875 74.21875 
Q 39.75 74.21875 46.484375 68.546875 
Q 53.21875 62.890625 53.21875 53.421875 
Q 53.21875 48.921875 51.53125 44.890625 
Q 49.859375 40.875 45.40625 35.40625 
Q 44.1875 33.984375 37.640625 27.21875 
Q 31.109375 20.453125 19.1875 8.296875 
z
" id="DejaVuSans-50"/>
       </defs>
       <use xlink:href="#DejaVuSans-49"/>
       <use x="63.623047" xlink:href="#DejaVuSans-46"/>
       <use x="95.410156" xlink:href="#DejaVuSans-50"/>
       <use x="159.033203" xlink:href="#DejaVuSans-48"/>
      </g>
     </g>
    </g>
    <g id="ytick_2">
     <g id="line2d_11">
      <g>
       <use style="stroke:#000000;stroke-width:0.8;" x="63" xlink:href="#m3cc51fef0b" y="119.352759"/>
      </g>
     </g>
     <g id="text_12">
      <!-- 1.25 -->
      <g transform="translate(33.734375 123.151978)scale(0.1 -0.1)">
       <use xlink:href="#DejaVuSans-49"/>
       <use x="63.623047" xlink:href="#DejaVuSans-46"/>
       <use x="95.410156" xlink:href="#DejaVuSans-50"/>
       <use x="159.033203" xlink:href="#DejaVuSans-53"/>
      </g>
     </g>
    </g>
    <g id="ytick_3">
     <g id="line2d_12">
      <g>
       <use style="stroke:#000000;stroke-width:0.8;" x="63" xlink:href="#m3cc51fef0b" y="79.665366"/>
      </g>
     </g>
     <g id="text_13">
      <!-- 1.30 -->
      <g transform="translate(33.734375 83.464585)scale(0.1 -0.1)">
       <defs>
        <path d="M 40.578125 39.3125 
Q 47.65625 37.796875 51.625 33 
Q 55.609375 28.21875 55.609375 21.1875 
Q 55.609375 10.40625 48.1875 4.484375 
Q 40.765625 -1.421875 27.09375 -1.421875 
Q 22.515625 -1.421875 17.65625 -0.515625 
Q 12.796875 0.390625 7.625 2.203125 
L 7.625 11.71875 
Q 11.71875 9.328125 16.59375 8.109375 
Q 21.484375 6.890625 26.8125 6.890625 
Q 36.078125 6.890625 40.9375 10.546875 
Q 45.796875 14.203125 45.796875 21.1875 
Q 45.796875 27.640625 41.28125 31.265625 
Q 36.765625 34.90625 28.71875 34.90625 
L 20.21875 34.90625 
L 20.21875 43.015625 
L 29.109375 43.015625 
Q 36.375 43.015625 40.234375 45.921875 
Q 44.09375 48.828125 44.09375 54.296875 
Q 44.09375 59.90625 40.109375 62.90625 
Q 36.140625 65.921875 28.71875 65.921875 
Q 24.65625 65.921875 20.015625 65.03125 
Q 15.375 64.15625 9.8125 62.3125 
L 9.8125 71.09375 
Q 15.4375 72.65625 20.34375 73.4375 
Q 25.25 74.21875 29.59375 74.21875 
Q 40.828125 74.21875 47.359375 69.109375 
Q 53.90625 64.015625 53.90625 55.328125 
Q 53.90625 49.265625 50.4375 45.09375 
Q 46.96875 40.921875 40.578125 39.3125 
z
" id="DejaVuSans-51"/>
       </defs>
       <use xlink:href="#DejaVuSans-49"/>
       <use x="63.623047" xlink:href="#DejaVuSans-46"/>
       <use x="95.410156" xlink:href="#DejaVuSans-51"/>
       <use x="159.033203" xlink:href="#DejaVuSans-48"/>
      </g>
     </g>
    </g>
    <g id="ytick_4">
     <g id="line2d_13">
      <g>
       <use style="stroke:#000000;stroke-width:0.8;" x="63" xlink:href="#m3cc51fef0b" y="39.977972"/>
      </g>
     </g>
     <g id="text_14">
      <!-- 1.35 -->
      <g transform="translate(33.734375 43.777191)scale(0.1 -0.1)">
       <use xlink:href="#DejaVuSans-49"/>
       <use x="63.623047" xlink:href="#DejaVuSans-46"/>
       <use x="95.410156" xlink:href="#DejaVuSans-51"/>
       <use x="159.033203" xlink:href="#DejaVuSans-53"/>
      </g>
     </g>
    </g>
    <g id="text_15">
     <!-- coef1 -->
     <g transform="translate(27.654688 122.906562)rotate(-90)scale(0.1 -0.1)">
      <defs>
       <path d="M 48.78125 52.59375 
L 48.78125 44.1875 
Q 44.96875 46.296875 41.140625 47.34375 
Q 37.3125 48.390625 33.40625 48.390625 
Q 24.65625 48.390625 19.8125 42.84375 
Q 14.984375 37.3125 14.984375 27.296875 
Q 14.984375 17.28125 19.8125 11.734375 
Q 24.65625 6.203125 33.40625 6.203125 
Q 37.3125 6.203125 41.140625 7.25 
Q 44.96875 8.296875 48.78125 10.40625 
L 48.78125 2.09375 
Q 45.015625 0.34375 40.984375 -0.53125 
Q 36.96875 -1.421875 32.421875 -1.421875 
Q 20.0625 -1.421875 12.78125 6.34375 
Q 5.515625 14.109375 5.515625 27.296875 
Q 5.515625 40.671875 12.859375 48.328125 
Q 20.21875 56 33.015625 56 
Q 37.15625 56 41.109375 55.140625 
Q 45.0625 54.296875 48.78125 52.59375 
z
" id="DejaVuSans-99"/>
       <path d="M 30.609375 48.390625 
Q 23.390625 48.390625 19.1875 42.75 
Q 14.984375 37.109375 14.984375 27.296875 
Q 14.984375 17.484375 19.15625 11.84375 
Q 23.34375 6.203125 30.609375 6.203125 
Q 37.796875 6.203125 41.984375 11.859375 
Q 46.1875 17.53125 46.1875 27.296875 
Q 46.1875 37.015625 41.984375 42.703125 
Q 37.796875 48.390625 30.609375 48.390625 
z
M 30.609375 56 
Q 42.328125 56 49.015625 48.375 
Q 55.71875 40.765625 55.71875 27.296875 
Q 55.71875 13.875 49.015625 6.21875 
Q 42.328125 -1.421875 30.609375 -1.421875 
Q 18.84375 -1.421875 12.171875 6.21875 
Q 5.515625 13.875 5.515625 27.296875 
Q 5.515625 40.765625 12.171875 48.375 
Q 18.84375 56 30.609375 56 
z
" id="DejaVuSans-111"/>
       <path d="M 37.109375 75.984375 
L 37.109375 68.5 
L 28.515625 68.5 
Q 23.6875 68.5 21.796875 66.546875 
Q 19.921875 64.59375 19.921875 59.515625 
L 19.921875 54.6875 
L 34.71875 54.6875 
L 34.71875 47.703125 
L 19.921875 47.703125 
L 19.921875 0 
L 10.890625 0 
L 10.890625 47.703125 
L 2.296875 47.703125 
L 2.296875 54.6875 
L 10.890625 54.6875 
L 10.890625 58.5 
Q 10.890625 67.625 15.140625 71.796875 
Q 19.390625 75.984375 28.609375 75.984375 
z
" id="DejaVuSans-102"/>
      </defs>
      <use xlink:href="#DejaVuSans-99"/>
      <use x="54.980469" xlink:href="#DejaVuSans-111"/>
      <use x="116.162109" xlink:href="#DejaVuSans-101"/>
      <use x="177.685547" xlink:href="#DejaVuSans-102"/>
      <use x="212.890625" xlink:href="#DejaVuSans-49"/>
     </g>
    </g>
   </g>
   <g id="line2d_14">
    <path clip-path="url(#p10a87e5d89)" d="M 80.754545 176.166547 
L 81.646734 176.822023 
L 83.43111 175.879016 
L 84.323298 175.818597 
L 85.215487 175.583738 
L 86.107675 176.224174 
L 86.999863 176.227536 
L 87.892051 176.694651 
L 88.784239 177.3394 
L 89.676428 177.047925 
L 90.568616 177.338293 
L 91.460804 177.450195 
L 92.352992 176.854862 
L 93.24518 175.733818 
L 95.029557 175.474947 
L 95.921745 175.559798 
L 97.706122 174.881677 
L 99.490498 173.917057 
L 100.382686 173.381843 
L 101.274874 173.313119 
L 102.167063 172.834932 
L 103.059251 172.973969 
L 103.951439 172.603642 
L 104.843627 172.627558 
L 105.735815 170.947029 
L 106.628004 171.052698 
L 107.520192 170.504713 
L 108.41238 169.569578 
L 109.304568 169.456546 
L 110.196757 169.521515 
L 111.088945 169.183365 
L 111.981133 168.183675 
L 113.765509 168.03158 
L 115.549886 167.008952 
L 116.442074 166.330806 
L 117.334262 165.411259 
L 118.22645 164.27702 
L 120.010827 163.151419 
L 120.903015 162.434065 
L 121.795203 161.964923 
L 122.687392 162.075544 
L 123.57958 161.890482 
L 124.471768 160.687759 
L 125.363956 160.530559 
L 126.256144 159.375872 
L 127.148333 158.640006 
L 128.932709 158.242729 
L 129.824897 157.707872 
L 131.609274 158.281144 
L 132.501462 157.407934 
L 133.39365 157.618874 
L 134.285838 156.376415 
L 136.070215 155.296676 
L 136.962403 155.036499 
L 137.854591 155.115016 
L 138.746779 154.1346 
L 139.638968 154.581077 
L 140.531156 154.79202 
L 141.423344 154.738325 
L 142.315532 154.44963 
L 144.099909 152.17904 
L 144.992097 151.849465 
L 145.884285 150.730907 
L 146.776473 150.441422 
L 147.668661 149.726271 
L 148.56085 148.743652 
L 149.453038 148.645611 
L 150.345226 147.969745 
L 151.237414 147.477564 
L 152.129603 147.264109 
L 153.021791 146.931836 
L 153.913979 146.90478 
L 155.698355 145.774736 
L 156.590544 145.683799 
L 157.482732 145.068792 
L 158.37492 143.413529 
L 161.051485 142.455555 
L 161.943673 141.813212 
L 162.835861 141.610879 
L 164.620238 139.679657 
L 166.404614 140.070963 
L 168.18899 138.580523 
L 169.081179 139.048259 
L 169.973367 139.945916 
L 170.865555 139.404594 
L 171.757743 138.517827 
L 173.54212 137.149656 
L 174.434308 136.13018 
L 175.326496 135.718838 
L 176.218684 135.937722 
L 178.003061 134.573825 
L 179.787437 133.993205 
L 180.679625 133.055428 
L 181.571814 132.71037 
L 182.464002 132.105164 
L 183.35619 131.786714 
L 184.248378 130.830752 
L 186.924943 128.483262 
L 187.817131 128.178098 
L 188.709319 127.560575 
L 189.601508 127.465309 
L 190.493696 126.577887 
L 191.385884 126.164415 
L 192.278072 126.246522 
L 194.062449 124.907236 
L 194.954637 124.538303 
L 195.846825 123.714029 
L 197.631201 123.677775 
L 198.52339 123.589106 
L 200.307766 122.272082 
L 202.092143 121.397613 
L 202.984331 120.881008 
L 203.876519 120.774261 
L 204.768707 120.952995 
L 206.553084 120.665971 
L 207.445272 120.09747 
L 208.33746 119.179593 
L 209.229648 118.986848 
L 211.014025 118.379075 
L 211.906213 117.2959 
L 213.690589 116.622394 
L 214.582778 115.687285 
L 215.474966 115.843163 
L 216.367154 115.252896 
L 217.259342 114.931638 
L 219.043719 113.562141 
L 219.935907 113.25947 
L 222.612471 112.792026 
L 225.289036 112.270228 
L 226.181224 111.268022 
L 229.749977 108.485072 
L 230.642165 108.395392 
L 231.534354 107.847638 
L 233.31873 107.438449 
L 234.210918 107.794088 
L 235.103106 107.401416 
L 235.995295 106.400594 
L 236.887483 105.889647 
L 237.779671 105.810163 
L 238.671859 105.290497 
L 239.564048 104.376005 
L 240.456236 104.461445 
L 243.1328 102.878693 
L 244.024989 103.002505 
L 244.917177 102.048137 
L 245.809365 101.837658 
L 246.701553 101.268707 
L 247.593741 101.133357 
L 248.48593 101.361715 
L 249.378118 101.269579 
L 251.162494 100.041097 
L 252.054683 99.988733 
L 256.515624 98.047497 
L 257.407812 97.373998 
L 259.192188 97.236305 
L 260.084376 96.587693 
L 260.976565 96.759659 
L 261.868753 96.263285 
L 262.760941 95.570867 
L 263.653129 95.092232 
L 264.545317 94.969672 
L 265.437506 95.028286 
L 266.329694 94.474721 
L 267.221882 94.272426 
L 268.11407 93.734686 
L 269.006259 92.728879 
L 269.898447 92.190985 
L 270.790635 92.183676 
L 271.682823 91.994191 
L 272.575011 91.540648 
L 273.4672 91.608474 
L 274.359388 91.200203 
L 275.251576 90.454539 
L 276.143764 89.907265 
L 277.035952 89.579199 
L 277.928141 88.950579 
L 278.820329 88.812656 
L 279.712517 88.972917 
L 280.604705 88.820177 
L 282.389082 87.099662 
L 283.28127 86.833118 
L 284.173458 87.057823 
L 285.065646 86.962903 
L 285.957835 86.454643 
L 287.742211 85.812704 
L 288.634399 85.271264 
L 289.526587 84.254356 
L 290.418776 83.774821 
L 293.09534 83.158371 
L 293.987529 82.705905 
L 294.879717 82.596442 
L 295.771905 82.716871 
L 296.664093 82.956653 
L 298.44847 82.244126 
L 299.340658 82.321596 
L 301.125034 82.108109 
L 302.909411 82.257061 
L 303.801599 82.11981 
L 304.693787 81.599386 
L 306.478164 81.703545 
L 307.370352 82.041615 
L 309.154728 81.275923 
L 310.046916 80.609217 
L 310.939105 80.417162 
L 311.831293 79.896667 
L 312.723481 79.782878 
L 314.507857 79.297172 
L 315.400046 79.375033 
L 316.292234 79.049084 
L 317.184422 78.975603 
L 318.07661 78.572522 
L 318.968799 78.022181 
L 319.860987 77.864635 
L 320.753175 77.823549 
L 322.537551 76.883307 
L 323.42974 76.667683 
L 324.321928 76.612779 
L 325.214116 76.004752 
L 326.106304 75.840282 
L 326.998492 75.797345 
L 327.890681 75.277505 
L 328.782869 75.103167 
L 329.675057 75.353292 
L 330.567245 75.20954 
L 332.351622 74.411497 
L 333.24381 73.803314 
L 334.135998 73.383735 
L 335.028186 73.113897 
L 335.920375 72.676215 
L 336.812563 72.464788 
L 337.704751 72.120616 
L 338.596939 72.010185 
L 339.489127 71.599028 
L 340.381316 71.462572 
L 341.273504 71.123173 
L 342.165692 70.544179 
L 343.950069 69.817751 
L 344.842257 69.900853 
L 346.626633 69.40074 
L 347.518821 68.952116 
L 348.41101 68.893348 
L 349.303198 68.230573 
L 350.195386 68.101734 
L 351.087574 67.531287 
L 351.979762 67.17371 
L 352.871951 67.342453 
L 353.764139 66.775795 
L 354.656327 66.350455 
L 355.548515 66.393346 
L 356.440704 66.689742 
L 357.332892 66.334107 
L 358.22508 65.649071 
L 359.117268 65.790155 
L 360.009456 65.479603 
L 360.901645 64.858966 
L 362.686021 64.443758 
L 363.578209 63.97437 
L 364.470397 63.772383 
L 365.362586 63.358956 
L 366.254774 63.518993 
L 368.03915 63.259021 
L 368.931339 62.820036 
L 369.823527 62.762324 
L 370.715715 62.484762 
L 371.607903 62.438636 
L 373.39228 62.072224 
L 374.284468 62.14177 
L 375.176656 62.060911 
L 376.068844 61.559036 
L 376.961032 61.270211 
L 377.853221 61.105464 
L 378.745409 60.554871 
L 379.637597 60.539062 
L 380.529785 60.677483 
L 381.421974 60.380514 
L 383.20635 60.383602 
L 384.098538 60.208082 
L 384.990726 60.221336 
L 385.882915 59.780146 
L 386.775103 59.530027 
L 387.667291 59.452761 
L 389.451667 58.579219 
L 393.02042 57.879867 
L 393.912608 58.368028 
L 395.696985 58.696779 
L 396.589173 58.459631 
L 397.481361 58.056123 
L 398.37355 57.843354 
L 401.050114 57.613593 
L 401.942302 57.673987 
L 402.834491 57.490131 
L 404.618867 56.647108 
L 405.511055 56.405797 
L 406.403243 55.828978 
L 407.295432 55.491295 
L 408.18762 55.31692 
L 409.079808 54.295868 
L 409.971996 54.098068 
L 410.864185 54.140595 
L 412.648561 53.155996 
L 414.432937 53.172662 
L 416.217314 52.729588 
L 418.00169 51.568184 
L 420.678255 50.877917 
L 421.570443 50.37328 
L 422.462631 50.338018 
L 424.247008 49.818634 
L 425.139196 49.980776 
L 426.031384 49.432994 
L 426.923572 49.246844 
L 429.600137 48.289306 
L 430.492325 48.073267 
L 431.384513 47.358977 
L 432.276702 47.061986 
L 434.061078 46.741691 
L 434.953266 46.347306 
L 435.845455 45.829998 
L 435.845455 45.829998 
" style="fill:none;stroke:#1f77b4;stroke-linecap:square;stroke-width:1.5;"/>
   </g>
   <g id="line2d_15">
    <path clip-path="url(#p10a87e5d89)" d="M 80.754545 178.260139 
L 81.646734 178.392646 
L 82.538922 177.337655 
L 84.323298 177.691795 
L 85.215487 178.747973 
L 86.107675 179.066665 
L 86.999863 179.23946 
L 87.892051 179.14865 
L 88.784239 179.849097 
L 89.676428 180.261421 
L 90.568616 180.117474 
L 91.460804 179.64224 
L 92.352992 179.576397 
L 93.24518 179.019916 
L 94.137369 179.046751 
L 95.029557 179.486545 
L 95.921745 179.720774 
L 96.813933 180.971091 
L 97.706122 180.910584 
L 98.59831 181.419694 
L 99.490498 182.541563 
L 100.382686 182.478206 
L 101.274874 182.733034 
L 102.167063 182.449893 
L 103.059251 181.989639 
L 103.951439 181.167683 
L 104.843627 180.922507 
L 105.735815 180.154849 
L 107.520192 180.072379 
L 108.41238 179.649974 
L 109.304568 179.588949 
L 110.196757 180.076151 
L 111.088945 179.478941 
L 111.981133 178.444462 
L 112.873321 178.967607 
L 113.765509 178.674832 
L 114.657698 178.627184 
L 115.549886 179.034128 
L 116.442074 178.724442 
L 117.334262 178.571127 
L 118.22645 177.749147 
L 119.118639 177.715187 
L 120.010827 177.297278 
L 120.903015 177.188619 
L 121.795203 176.727804 
L 122.687392 177.03728 
L 123.57958 177.006824 
L 124.471768 176.773168 
L 125.363956 175.977638 
L 126.256144 175.879164 
L 127.148333 175.919889 
L 128.040521 176.079905 
L 128.932709 176.080765 
L 129.824897 175.850957 
L 130.717085 174.896448 
L 132.501462 174.945725 
L 133.39365 174.548909 
L 134.285838 173.342964 
L 135.178026 173.474894 
L 136.070215 173.104806 
L 136.962403 171.81392 
L 137.854591 171.681139 
L 140.531156 170.646621 
L 141.423344 170.680431 
L 142.315532 171.046813 
L 144.099909 170.022161 
L 144.992097 170.333007 
L 145.884285 171.083938 
L 146.776473 170.24696 
L 149.453038 169.411647 
L 150.345226 168.772351 
L 151.237414 167.696663 
L 152.129603 167.040688 
L 153.021791 167.179198 
L 153.913979 166.406104 
L 154.806167 166.089089 
L 155.698355 165.495274 
L 156.590544 165.797598 
L 157.482732 164.959667 
L 158.37492 164.72259 
L 159.267108 164.933573 
L 160.159296 164.315829 
L 161.051485 164.582538 
L 161.943673 164.402259 
L 162.835861 163.594855 
L 163.728049 163.671513 
L 164.620238 163.196536 
L 166.404614 163.284474 
L 167.296802 163.498491 
L 168.18899 163.149933 
L 169.081179 163.10656 
L 169.973367 162.880526 
L 170.865555 162.425216 
L 172.649931 161.884666 
L 173.54212 161.953931 
L 174.434308 161.462029 
L 175.326496 161.411705 
L 176.218684 161.734795 
L 177.110873 161.734448 
L 178.003061 161.585486 
L 178.895249 161.214024 
L 179.787437 160.348985 
L 180.679625 159.960405 
L 181.571814 159.336773 
L 182.464002 159.184623 
L 183.35619 158.397415 
L 184.248378 158.639445 
L 185.140566 158.458745 
L 186.032755 158.800812 
L 186.924943 158.093387 
L 187.817131 157.131026 
L 188.709319 156.943721 
L 190.493696 156.784228 
L 191.385884 156.649966 
L 192.278072 156.286712 
L 193.17026 155.773521 
L 194.062449 155.652431 
L 195.846825 154.621722 
L 196.739013 154.512281 
L 197.631201 154.114837 
L 198.52339 154.252613 
L 199.415578 153.548103 
L 200.307766 153.676117 
L 201.199954 153.360479 
L 202.092143 152.606742 
L 202.984331 152.272279 
L 203.876519 152.515565 
L 204.768707 152.341386 
L 206.553084 152.200414 
L 207.445272 151.698501 
L 208.33746 151.528451 
L 211.014025 150.441171 
L 211.906213 150.938512 
L 212.798401 151.016398 
L 213.690589 150.472386 
L 214.582778 150.343071 
L 215.474966 149.46236 
L 216.367154 149.547978 
L 217.259342 149.309971 
L 218.15153 149.712967 
L 219.043719 149.237995 
L 219.935907 149.295148 
L 220.828095 149.172329 
L 221.720283 149.420671 
L 222.612471 148.919333 
L 223.50466 148.629357 
L 224.396848 148.774225 
L 225.289036 149.296151 
L 227.965601 148.7568 
L 229.749977 147.906488 
L 230.642165 147.802943 
L 232.426542 147.388238 
L 233.31873 147.313104 
L 235.103106 146.142808 
L 235.995295 146.204348 
L 236.887483 145.790485 
L 237.779671 145.626438 
L 238.671859 145.794599 
L 239.564048 145.737647 
L 240.456236 145.152298 
L 242.240612 143.567963 
L 243.1328 143.996722 
L 244.024989 143.431392 
L 244.917177 143.04337 
L 245.809365 142.919709 
L 246.701553 142.011188 
L 247.593741 142.095991 
L 248.48593 142.002474 
L 249.378118 141.797028 
L 250.270306 141.758908 
L 251.162494 142.21978 
L 252.946871 142.647787 
L 253.839059 142.478086 
L 254.731247 142.009643 
L 255.623435 141.757948 
L 256.515624 142.614133 
L 257.407812 142.345489 
L 258.3 142.33595 
L 259.192188 142.510852 
L 260.084376 142.310306 
L 260.976565 142.664317 
L 261.868753 142.186903 
L 262.760941 142.3172 
L 264.545317 141.754941 
L 265.437506 141.91849 
L 266.329694 142.248299 
L 267.221882 141.57091 
L 268.11407 141.224315 
L 269.006259 140.711228 
L 269.898447 140.903037 
L 273.4672 140.606812 
L 274.359388 140.270836 
L 275.251576 140.158826 
L 276.143764 140.536766 
L 277.035952 140.587287 
L 277.928141 140.206494 
L 278.820329 140.20236 
L 280.604705 139.95498 
L 281.496894 140.124588 
L 282.389082 139.753929 
L 283.28127 139.623078 
L 285.957835 139.796235 
L 286.850023 139.98813 
L 287.742211 139.946307 
L 288.634399 139.686659 
L 290.418776 139.372045 
L 291.310964 139.168407 
L 292.203152 139.327465 
L 293.09534 138.860651 
L 295.771905 138.375846 
L 296.664093 138.517325 
L 297.556281 137.987425 
L 301.125034 136.876077 
L 302.909411 136.93285 
L 305.585975 136.151149 
L 306.478164 136.46333 
L 307.370352 136.255603 
L 308.26254 135.702719 
L 309.154728 135.826463 
L 310.046916 135.492625 
L 310.939105 135.376844 
L 312.723481 134.875298 
L 313.615669 134.685121 
L 314.507857 134.085494 
L 316.292234 134.188791 
L 317.184422 133.554794 
L 318.968799 132.90235 
L 320.753175 132.613651 
L 322.537551 132.313987 
L 323.42974 132.107885 
L 325.214116 131.454186 
L 326.106304 131.252923 
L 326.998492 131.440285 
L 327.890681 131.237047 
L 328.782869 130.666326 
L 329.675057 130.342321 
L 331.459434 130.4702 
L 333.24381 129.743741 
L 335.028186 129.74331 
L 335.920375 129.901391 
L 336.812563 129.502567 
L 338.596939 129.341501 
L 339.489127 129.645401 
L 340.381316 129.374101 
L 341.273504 129.721493 
L 343.05788 129.485585 
L 344.842257 128.543096 
L 345.734445 128.699766 
L 346.626633 128.663119 
L 347.518821 128.100229 
L 348.41101 127.67826 
L 349.303198 127.986595 
L 350.195386 127.769947 
L 351.087574 127.869969 
L 351.979762 127.491787 
L 352.871951 127.339283 
L 353.764139 126.582941 
L 355.548515 125.794401 
L 356.440704 125.871578 
L 357.332892 125.712653 
L 358.22508 126.060695 
L 360.009456 125.766549 
L 362.686021 125.634419 
L 363.578209 125.254472 
L 364.470397 125.241322 
L 365.362586 125.408637 
L 366.254774 124.923664 
L 367.146962 124.782767 
L 368.03915 124.140614 
L 369.823527 123.728614 
L 370.715715 124.290937 
L 371.607903 124.612525 
L 372.500091 124.421554 
L 374.284468 124.343113 
L 375.176656 124.080481 
L 376.068844 124.002576 
L 376.961032 123.647149 
L 377.853221 123.596778 
L 378.745409 123.393427 
L 380.529785 122.699363 
L 381.421974 122.730494 
L 382.314162 122.367555 
L 383.20635 122.218739 
L 384.098538 122.303265 
L 384.990726 121.672886 
L 385.882915 121.574777 
L 386.775103 121.679763 
L 387.667291 121.384292 
L 388.559479 121.345504 
L 389.451667 120.993818 
L 391.236044 120.637172 
L 392.128232 120.280051 
L 394.804797 120.45997 
L 395.696985 119.920565 
L 396.589173 120.008262 
L 398.37355 119.742866 
L 399.265738 119.518494 
L 401.050114 119.472955 
L 401.942302 119.288662 
L 402.834491 119.220713 
L 403.726679 118.817381 
L 405.511055 118.828007 
L 406.403243 118.436695 
L 407.295432 118.574524 
L 408.18762 118.544579 
L 409.079808 118.189182 
L 410.864185 117.904544 
L 411.756373 117.693661 
L 412.648561 117.323848 
L 413.540749 117.261452 
L 414.432937 117.629261 
L 416.217314 117.599612 
L 418.00169 117.497442 
L 424.247008 117.317608 
L 426.031384 116.561449 
L 426.923572 116.962825 
L 427.815761 117.05029 
L 428.707949 116.900783 
L 430.492325 116.896106 
L 432.276702 117.390914 
L 433.16889 116.572614 
L 434.061078 116.792476 
L 434.953266 116.738593 
L 435.845455 116.486792 
L 435.845455 116.486792 
" style="fill:none;stroke:#ff7f0e;stroke-linecap:square;stroke-width:1.5;"/>
   </g>
   <g id="line2d_16">
    <path clip-path="url(#p10a87e5d89)" d="M 80.754545 168.498538 
L 81.646734 168.908599 
L 82.538922 168.194681 
L 83.43111 169.120931 
L 84.323298 169.708084 
L 86.107675 168.996406 
L 86.999863 169.527097 
L 87.892051 168.872678 
L 88.784239 168.683822 
L 89.676428 168.219367 
L 90.568616 167.946967 
L 91.460804 168.044341 
L 92.352992 167.579158 
L 94.137369 167.368583 
L 95.029557 167.184931 
L 96.813933 167.482273 
L 97.706122 167.296251 
L 98.59831 166.799267 
L 99.490498 166.484667 
L 102.167063 165.042567 
L 103.059251 165.174087 
L 103.951439 165.524988 
L 104.843627 165.172362 
L 105.735815 163.840253 
L 106.628004 164.097981 
L 107.520192 163.092076 
L 108.41238 162.900583 
L 109.304568 161.860701 
L 111.088945 161.649823 
L 111.981133 160.841018 
L 112.873321 160.596423 
L 113.765509 159.845244 
L 114.657698 159.312311 
L 116.442074 159.191127 
L 117.334262 157.871528 
L 122.687392 153.036291 
L 123.57958 152.675145 
L 124.471768 152.10006 
L 125.363956 152.304404 
L 127.148333 149.300591 
L 128.040521 149.672495 
L 128.932709 149.489992 
L 129.824897 148.805686 
L 130.717085 147.614009 
L 133.39365 146.752929 
L 134.285838 146.233497 
L 135.178026 146.170228 
L 136.070215 145.079619 
L 136.962403 144.775285 
L 137.854591 144.099681 
L 138.746779 143.191748 
L 139.638968 143.112825 
L 140.531156 141.991338 
L 141.423344 141.347651 
L 142.315532 141.152715 
L 144.099909 138.919141 
L 144.992097 137.685073 
L 145.884285 137.658771 
L 146.776473 137.469976 
L 148.56085 136.702982 
L 149.453038 135.336073 
L 151.237414 133.947277 
L 152.129603 134.330754 
L 153.021791 133.884293 
L 153.913979 133.625232 
L 155.698355 132.316221 
L 156.590544 131.32893 
L 158.37492 129.735728 
L 159.267108 129.46615 
L 160.159296 128.897415 
L 161.051485 128.030251 
L 161.943673 127.904974 
L 162.835861 127.480512 
L 163.728049 126.885702 
L 164.620238 126.150995 
L 165.512426 125.848653 
L 166.404614 125.126434 
L 167.296802 125.106492 
L 168.18899 125.34261 
L 169.081179 124.518815 
L 169.973367 124.148029 
L 170.865555 123.455339 
L 171.757743 122.616096 
L 172.649931 122.170452 
L 173.54212 122.505137 
L 174.434308 121.570912 
L 175.326496 120.88944 
L 177.110873 118.257074 
L 178.895249 118.734127 
L 179.787437 118.200185 
L 180.679625 118.0268 
L 184.248378 116.045847 
L 185.140566 115.778743 
L 186.032755 115.188044 
L 186.924943 115.409745 
L 187.817131 114.395519 
L 188.709319 114.433492 
L 189.601508 113.440541 
L 190.493696 113.123585 
L 191.385884 113.455004 
L 192.278072 113.227367 
L 193.17026 111.798918 
L 194.062449 111.711138 
L 194.954637 111.078142 
L 195.846825 111.012761 
L 196.739013 110.647417 
L 197.631201 110.002156 
L 198.52339 109.593509 
L 199.415578 108.568157 
L 202.984331 107.231819 
L 203.876519 106.089921 
L 204.768707 105.727102 
L 205.660895 104.898498 
L 206.553084 104.605128 
L 207.445272 104.122737 
L 208.33746 103.940281 
L 209.229648 103.627631 
L 210.121836 102.869649 
L 211.014025 103.193775 
L 211.906213 103.222701 
L 212.798401 102.509608 
L 213.690589 102.283984 
L 216.367154 100.048788 
L 217.259342 99.628973 
L 218.15153 98.964704 
L 219.935907 98.890255 
L 220.828095 98.518499 
L 221.720283 97.820851 
L 223.50466 96.632753 
L 224.396848 96.346994 
L 227.073413 94.587052 
L 227.965601 94.476803 
L 228.857789 93.719078 
L 229.749977 93.594821 
L 230.642165 93.040416 
L 231.534354 93.21929 
L 232.426542 93.005061 
L 233.31873 92.619729 
L 234.210918 92.941597 
L 235.995295 91.71323 
L 236.887483 91.116426 
L 237.779671 90.864963 
L 238.671859 90.47163 
L 239.564048 89.838584 
L 240.456236 89.633097 
L 241.348424 89.622012 
L 242.240612 89.832391 
L 244.024989 89.1068 
L 244.917177 88.409978 
L 245.809365 88.108308 
L 248.48593 86.501998 
L 250.270306 85.333727 
L 252.054683 84.320972 
L 253.839059 83.661989 
L 254.731247 83.405393 
L 255.623435 82.815028 
L 256.515624 82.713114 
L 257.407812 82.30988 
L 258.3 81.491646 
L 259.192188 81.619596 
L 260.084376 81.613451 
L 260.976565 81.394944 
L 261.868753 81.304257 
L 262.760941 80.771699 
L 263.653129 80.534817 
L 264.545317 79.899699 
L 265.437506 79.639311 
L 266.329694 78.868218 
L 269.006259 77.834178 
L 269.898447 77.741984 
L 270.790635 77.094896 
L 271.682823 76.66011 
L 272.575011 76.356171 
L 273.4672 75.690081 
L 274.359388 74.845924 
L 275.251576 74.548358 
L 276.143764 74.394333 
L 277.035952 73.934079 
L 277.928141 73.184983 
L 278.820329 73.137942 
L 279.712517 72.80376 
L 280.604705 72.325528 
L 282.389082 71.522425 
L 283.28127 71.808254 
L 285.065646 71.49334 
L 285.957835 71.160655 
L 286.850023 71.141843 
L 287.742211 70.06574 
L 288.634399 69.572799 
L 289.526587 69.412072 
L 290.418776 68.869471 
L 293.09534 67.993885 
L 294.879717 67.554148 
L 296.664093 67.178542 
L 297.556281 67.5118 
L 298.44847 66.808846 
L 299.340658 66.470816 
L 300.232846 66.41319 
L 301.125034 65.603314 
L 302.017222 65.35161 
L 302.909411 65.277265 
L 303.801599 65.614739 
L 305.585975 64.835977 
L 307.370352 64.758649 
L 309.154728 64.42062 
L 310.939105 63.778879 
L 312.723481 62.084205 
L 314.507857 61.90284 
L 315.400046 62.143256 
L 316.292234 61.712523 
L 317.184422 61.702071 
L 318.07661 61.370938 
L 318.968799 61.598956 
L 319.860987 61.688289 
L 320.753175 61.052919 
L 321.645363 61.093646 
L 322.537551 60.688014 
L 323.42974 60.499151 
L 325.214116 60.984658 
L 327.890681 60.450503 
L 328.782869 60.540436 
L 330.567245 60.278245 
L 331.459434 60.353992 
L 333.24381 59.905908 
L 334.135998 59.1941 
L 335.920375 59.07067 
L 336.812563 59.138958 
L 337.704751 58.756052 
L 338.596939 57.95565 
L 339.489127 57.559003 
L 340.381316 56.921127 
L 341.273504 56.744665 
L 343.950069 55.727647 
L 344.842257 55.913027 
L 345.734445 55.597451 
L 346.626633 55.512753 
L 347.518821 55.036796 
L 349.303198 54.530871 
L 351.087574 53.613029 
L 351.979762 53.814825 
L 352.871951 53.259951 
L 353.764139 52.861061 
L 354.656327 52.626204 
L 355.548515 52.136303 
L 356.440704 52.068423 
L 358.22508 51.573205 
L 359.117268 51.578907 
L 362.686021 50.186701 
L 364.470397 49.780761 
L 365.362586 49.508649 
L 366.254774 49.019525 
L 367.146962 48.789342 
L 368.03915 48.82082 
L 368.931339 48.511834 
L 369.823527 48.0585 
L 370.715715 47.869813 
L 371.607903 47.175644 
L 372.500091 46.936184 
L 373.39228 46.911695 
L 375.176656 46.509736 
L 376.068844 46.675809 
L 376.961032 46.661501 
L 378.745409 46.093305 
L 380.529785 45.737041 
L 381.421974 45.23539 
L 383.20635 45.307476 
L 385.882915 44.998896 
L 386.775103 45.195899 
L 388.559479 45.287424 
L 390.343856 44.600117 
L 391.236044 44.602021 
L 394.804797 43.409427 
L 396.589173 43.072091 
L 398.37355 42.12409 
L 399.265738 41.666964 
L 401.050114 41.708868 
L 401.942302 41.667408 
L 402.834491 41.410545 
L 403.726679 41.334884 
L 405.511055 40.500822 
L 406.403243 40.404444 
L 407.295432 40.785127 
L 408.18762 40.672822 
L 409.079808 40.223938 
L 410.864185 40.113834 
L 411.756373 39.495829 
L 412.648561 39.552299 
L 413.540749 39.378433 
L 414.432937 38.993998 
L 416.217314 38.962144 
L 418.00169 38.051462 
L 418.893878 38.264715 
L 419.786067 37.989418 
L 420.678255 37.972934 
L 421.570443 37.798886 
L 423.35482 37.148276 
L 424.247008 37.280265 
L 425.139196 36.668573 
L 426.031384 36.358968 
L 426.923572 35.836413 
L 427.815761 35.766235 
L 429.600137 35.013991 
L 430.492325 34.911056 
L 431.384513 35.061939 
L 432.276702 34.721818 
L 433.16889 34.691695 
L 434.061078 33.978097 
L 435.845455 33.48 
L 435.845455 33.48 
" style="fill:none;stroke:#2ca02c;stroke-linecap:square;stroke-width:1.5;"/>
   </g>
   <g id="line2d_17">
    <path clip-path="url(#p10a87e5d89)" d="M 80.754545 183.735688 
L 81.646734 183.837416 
L 82.538922 184.252745 
L 83.43111 184.141296 
L 84.323298 184.68 
L 85.215487 184.213382 
L 86.107675 184.541999 
L 86.999863 184.086275 
L 87.892051 183.437368 
L 88.784239 183.701539 
L 90.568616 183.0222 
L 91.460804 182.922788 
L 92.352992 182.221051 
L 93.24518 180.501626 
L 94.137369 180.435883 
L 95.029557 180.224416 
L 95.921745 179.706402 
L 96.813933 179.868833 
L 97.706122 179.502184 
L 98.59831 178.991667 
L 99.490498 177.894871 
L 100.382686 177.43948 
L 101.274874 177.206197 
L 102.167063 177.376165 
L 103.059251 177.059713 
L 103.951439 177.447332 
L 104.843627 176.745995 
L 108.41238 174.516106 
L 109.304568 174.274495 
L 110.196757 173.774625 
L 111.088945 173.639624 
L 111.981133 172.837046 
L 112.873321 172.657787 
L 113.765509 172.810476 
L 114.657698 173.080971 
L 115.549886 172.583766 
L 116.442074 171.448199 
L 117.334262 171.71174 
L 118.22645 171.793577 
L 119.118639 171.260426 
L 120.010827 170.052766 
L 121.795203 167.959075 
L 122.687392 168.062784 
L 123.57958 167.201947 
L 124.471768 166.126044 
L 125.363956 166.221798 
L 126.256144 166.604036 
L 127.148333 166.335841 
L 128.932709 166.06971 
L 129.824897 165.799326 
L 130.717085 165.260924 
L 131.609274 165.110333 
L 132.501462 164.739288 
L 133.39365 163.981804 
L 134.285838 163.906933 
L 135.178026 163.21258 
L 136.070215 163.120189 
L 136.962403 162.835122 
L 137.854591 162.249258 
L 141.423344 160.67298 
L 142.315532 160.409117 
L 143.20772 159.808114 
L 144.099909 159.684597 
L 144.992097 158.828535 
L 145.884285 158.134775 
L 146.776473 157.631888 
L 147.668661 156.75378 
L 148.56085 156.064262 
L 149.453038 156.210833 
L 151.237414 154.230385 
L 152.129603 153.648346 
L 153.913979 153.310751 
L 154.806167 152.283829 
L 155.698355 152.228722 
L 156.590544 152.520711 
L 158.37492 150.643474 
L 159.267108 150.726214 
L 161.943673 148.624767 
L 162.835861 147.697936 
L 163.728049 147.468175 
L 164.620238 147.850826 
L 165.512426 146.574552 
L 166.404614 146.076789 
L 167.296802 145.782862 
L 168.18899 145.681332 
L 169.081179 145.029778 
L 169.973367 144.848669 
L 170.865555 144.496028 
L 171.757743 144.745648 
L 172.649931 144.561286 
L 173.54212 144.171236 
L 174.434308 144.611207 
L 177.110873 143.330516 
L 178.003061 142.978725 
L 178.895249 142.456792 
L 179.787437 142.816978 
L 180.679625 142.119168 
L 181.571814 142.259368 
L 182.464002 141.873194 
L 183.35619 142.436685 
L 184.248378 141.806564 
L 185.140566 141.561027 
L 186.032755 140.853267 
L 187.817131 139.726549 
L 188.709319 138.629718 
L 189.601508 138.233049 
L 190.493696 138.478976 
L 191.385884 137.627109 
L 192.278072 137.579931 
L 193.17026 137.275686 
L 194.062449 136.502542 
L 194.954637 136.12163 
L 195.846825 135.319022 
L 196.739013 135.383089 
L 198.52339 134.78348 
L 199.415578 133.972549 
L 200.307766 133.559905 
L 201.199954 132.901476 
L 202.092143 132.401988 
L 202.984331 132.250952 
L 203.876519 131.093544 
L 204.768707 130.973787 
L 205.660895 130.515845 
L 206.553084 129.890011 
L 208.33746 129.721544 
L 209.229648 129.030934 
L 211.014025 128.945344 
L 211.906213 128.125058 
L 213.690589 127.725842 
L 214.582778 126.551096 
L 215.474966 126.069915 
L 216.367154 125.90781 
L 218.15153 125.045199 
L 219.043719 124.78621 
L 219.935907 124.007106 
L 220.828095 122.691854 
L 221.720283 122.387243 
L 222.612471 121.542551 
L 224.396848 121.857266 
L 225.289036 121.707579 
L 226.181224 121.374341 
L 227.073413 121.293903 
L 227.965601 120.970385 
L 228.857789 120.503983 
L 229.749977 120.225631 
L 230.642165 119.621593 
L 231.534354 119.367773 
L 232.426542 118.721682 
L 235.103106 117.825525 
L 235.995295 117.061369 
L 236.887483 117.106366 
L 238.671859 116.422977 
L 240.456236 116.314693 
L 241.348424 115.74146 
L 242.240612 115.425298 
L 243.1328 114.493608 
L 244.024989 114.026242 
L 244.917177 113.805213 
L 245.809365 113.360593 
L 246.701553 113.248799 
L 247.593741 112.793653 
L 248.48593 112.076901 
L 249.378118 112.078134 
L 251.162494 111.205069 
L 252.946871 111.190867 
L 253.839059 110.993554 
L 254.731247 110.941081 
L 255.623435 110.77176 
L 256.515624 110.862074 
L 257.407812 110.303712 
L 259.192188 109.847189 
L 260.084376 109.288934 
L 260.976565 108.870056 
L 261.868753 108.730363 
L 262.760941 108.470765 
L 263.653129 107.619083 
L 264.545317 107.009091 
L 265.437506 107.019421 
L 266.329694 106.735124 
L 267.221882 106.710384 
L 269.006259 106.271432 
L 269.898447 105.685575 
L 270.790635 104.699828 
L 271.682823 104.360867 
L 272.575011 103.851132 
L 273.4672 103.823998 
L 275.251576 103.186196 
L 276.143764 102.934335 
L 277.928141 102.178774 
L 278.820329 101.46814 
L 279.712517 101.558095 
L 280.604705 100.850531 
L 282.389082 100.85947 
L 283.28127 100.214125 
L 284.173458 100.013819 
L 285.065646 99.466966 
L 286.850023 98.197304 
L 288.634399 97.33701 
L 289.526587 96.829551 
L 290.418776 96.687929 
L 291.310964 96.268324 
L 292.203152 96.257391 
L 293.09534 95.683241 
L 293.987529 95.749324 
L 294.879717 95.92988 
L 295.771905 95.931749 
L 296.664093 95.335765 
L 297.556281 95.013902 
L 298.44847 95.037136 
L 299.340658 94.70899 
L 300.232846 94.702223 
L 301.125034 94.82918 
L 303.801599 94.059662 
L 304.693787 94.226592 
L 306.478164 93.798886 
L 308.26254 93.804166 
L 310.939105 91.697213 
L 311.831293 91.561868 
L 312.723481 91.140835 
L 314.507857 91.027036 
L 315.400046 90.51415 
L 316.292234 90.360722 
L 317.184422 89.77228 
L 318.07661 89.325189 
L 318.968799 89.039769 
L 320.753175 88.760432 
L 323.42974 87.157697 
L 324.321928 87.579819 
L 325.214116 87.589242 
L 326.106304 87.234952 
L 327.890681 86.979179 
L 328.782869 86.962173 
L 329.675057 86.77749 
L 330.567245 86.745135 
L 332.351622 85.439454 
L 333.24381 85.091944 
L 334.135998 85.238967 
L 335.028186 84.939501 
L 335.920375 84.364177 
L 336.812563 84.421984 
L 337.704751 84.018143 
L 338.596939 84.320035 
L 339.489127 84.269447 
L 341.273504 83.405969 
L 342.165692 83.28296 
L 343.05788 82.646334 
L 343.950069 82.2278 
L 344.842257 81.664195 
L 345.734445 81.336226 
L 346.626633 80.855425 
L 351.979762 78.892878 
L 352.871951 79.108825 
L 353.764139 79.116347 
L 357.332892 78.03888 
L 358.22508 78.182521 
L 359.117268 77.545545 
L 360.009456 77.215461 
L 360.901645 77.009324 
L 361.793833 76.530976 
L 362.686021 76.457794 
L 363.578209 76.6464 
L 364.470397 76.351714 
L 365.362586 76.299142 
L 366.254774 76.059676 
L 367.146962 75.408642 
L 368.03915 75.367874 
L 369.823527 74.881898 
L 372.500091 73.837275 
L 373.39228 73.715415 
L 374.284468 73.410571 
L 375.176656 72.642664 
L 376.068844 72.537267 
L 376.961032 72.15676 
L 377.853221 71.619998 
L 381.421974 71.053386 
L 382.314162 70.62091 
L 383.20635 70.389418 
L 384.098538 70.015123 
L 385.882915 69.738441 
L 386.775103 69.53355 
L 387.667291 69.495113 
L 390.343856 69.08171 
L 391.236044 68.627575 
L 392.128232 68.827818 
L 395.696985 67.142064 
L 396.589173 66.746724 
L 398.37355 65.490081 
L 403.726679 64.402066 
L 404.618867 63.905852 
L 405.511055 63.984919 
L 406.403243 63.650856 
L 407.295432 62.904775 
L 408.18762 62.410136 
L 409.079808 62.197068 
L 411.756373 61.113911 
L 412.648561 61.255478 
L 413.540749 60.76535 
L 414.432937 60.560415 
L 415.325126 60.147243 
L 416.217314 59.896518 
L 417.109502 60.11852 
L 418.00169 59.741827 
L 419.786067 59.526909 
L 420.678255 58.966838 
L 425.139196 57.916363 
L 426.031384 57.589656 
L 426.923572 57.572537 
L 427.815761 57.335645 
L 429.600137 56.659321 
L 430.492325 56.393458 
L 432.276702 56.170555 
L 433.16889 55.604004 
L 434.953266 55.538171 
L 435.845455 55.243509 
L 435.845455 55.243509 
" style="fill:none;stroke:#d62728;stroke-linecap:square;stroke-width:1.5;"/>
   </g>
   <g id="line2d_18"/>
   <g id="line2d_19"/>
   <g id="line2d_20"/>
   <g id="line2d_21"/>
   <g id="patch_3">
    <path d="M 63 192.24 
L 63 25.92 
" style="fill:none;stroke:#000000;stroke-linecap:square;stroke-linejoin:miter;stroke-width:0.8;"/>
   </g>
   <g id="patch_4">
    <path d="M 63 192.24 
L 453.6 192.24 
" style="fill:none;stroke:#000000;stroke-linecap:square;stroke-linejoin:miter;stroke-width:0.8;"/>
   </g>
   <g id="text_16">
    <!-- modeltype=base, labormarket=biased -->
    <g transform="translate(141.785625 19.92)scale(0.12 -0.12)">
     <defs>
      <path d="M 45.40625 46.390625 
L 45.40625 75.984375 
L 54.390625 75.984375 
L 54.390625 0 
L 45.40625 0 
L 45.40625 8.203125 
Q 42.578125 3.328125 38.25 0.953125 
Q 33.9375 -1.421875 27.875 -1.421875 
Q 17.96875 -1.421875 11.734375 6.484375 
Q 5.515625 14.40625 5.515625 27.296875 
Q 5.515625 40.1875 11.734375 48.09375 
Q 17.96875 56 27.875 56 
Q 33.9375 56 38.25 53.625 
Q 42.578125 51.265625 45.40625 46.390625 
z
M 14.796875 27.296875 
Q 14.796875 17.390625 18.875 11.75 
Q 22.953125 6.109375 30.078125 6.109375 
Q 37.203125 6.109375 41.296875 11.75 
Q 45.40625 17.390625 45.40625 27.296875 
Q 45.40625 37.203125 41.296875 42.84375 
Q 37.203125 48.484375 30.078125 48.484375 
Q 22.953125 48.484375 18.875 42.84375 
Q 14.796875 37.203125 14.796875 27.296875 
z
" id="DejaVuSans-100"/>
      <path d="M 9.421875 75.984375 
L 18.40625 75.984375 
L 18.40625 0 
L 9.421875 0 
z
" id="DejaVuSans-108"/>
      <path d="M 32.171875 -5.078125 
Q 28.375 -14.84375 24.75 -17.8125 
Q 21.140625 -20.796875 15.09375 -20.796875 
L 7.90625 -20.796875 
L 7.90625 -13.28125 
L 13.1875 -13.28125 
Q 16.890625 -13.28125 18.9375 -11.515625 
Q 21 -9.765625 23.484375 -3.21875 
L 25.09375 0.875 
L 2.984375 54.6875 
L 12.5 54.6875 
L 29.59375 11.921875 
L 46.6875 54.6875 
L 56.203125 54.6875 
z
" id="DejaVuSans-121"/>
      <path d="M 18.109375 8.203125 
L 18.109375 -20.796875 
L 9.078125 -20.796875 
L 9.078125 54.6875 
L 18.109375 54.6875 
L 18.109375 46.390625 
Q 20.953125 51.265625 25.265625 53.625 
Q 29.59375 56 35.59375 56 
Q 45.5625 56 51.78125 48.09375 
Q 58.015625 40.1875 58.015625 27.296875 
Q 58.015625 14.40625 51.78125 6.484375 
Q 45.5625 -1.421875 35.59375 -1.421875 
Q 29.59375 -1.421875 25.265625 0.953125 
Q 20.953125 3.328125 18.109375 8.203125 
z
M 48.6875 27.296875 
Q 48.6875 37.203125 44.609375 42.84375 
Q 40.53125 48.484375 33.40625 48.484375 
Q 26.265625 48.484375 22.1875 42.84375 
Q 18.109375 37.203125 18.109375 27.296875 
Q 18.109375 17.390625 22.1875 11.75 
Q 26.265625 6.109375 33.40625 6.109375 
Q 40.53125 6.109375 44.609375 11.75 
Q 48.6875 17.390625 48.6875 27.296875 
z
" id="DejaVuSans-112"/>
      <path d="M 10.59375 45.40625 
L 73.1875 45.40625 
L 73.1875 37.203125 
L 10.59375 37.203125 
z
M 10.59375 25.484375 
L 73.1875 25.484375 
L 73.1875 17.1875 
L 10.59375 17.1875 
z
" id="DejaVuSans-61"/>
      <path d="M 48.6875 27.296875 
Q 48.6875 37.203125 44.609375 42.84375 
Q 40.53125 48.484375 33.40625 48.484375 
Q 26.265625 48.484375 22.1875 42.84375 
Q 18.109375 37.203125 18.109375 27.296875 
Q 18.109375 17.390625 22.1875 11.75 
Q 26.265625 6.109375 33.40625 6.109375 
Q 40.53125 6.109375 44.609375 11.75 
Q 48.6875 17.390625 48.6875 27.296875 
z
M 18.109375 46.390625 
Q 20.953125 51.265625 25.265625 53.625 
Q 29.59375 56 35.59375 56 
Q 45.5625 56 51.78125 48.09375 
Q 58.015625 40.1875 58.015625 27.296875 
Q 58.015625 14.40625 51.78125 6.484375 
Q 45.5625 -1.421875 35.59375 -1.421875 
Q 29.59375 -1.421875 25.265625 0.953125 
Q 20.953125 3.328125 18.109375 8.203125 
L 18.109375 0 
L 9.078125 0 
L 9.078125 75.984375 
L 18.109375 75.984375 
z
" id="DejaVuSans-98"/>
      <path d="M 34.28125 27.484375 
Q 23.390625 27.484375 19.1875 25 
Q 14.984375 22.515625 14.984375 16.5 
Q 14.984375 11.71875 18.140625 8.90625 
Q 21.296875 6.109375 26.703125 6.109375 
Q 34.1875 6.109375 38.703125 11.40625 
Q 43.21875 16.703125 43.21875 25.484375 
L 43.21875 27.484375 
z
M 52.203125 31.203125 
L 52.203125 0 
L 43.21875 0 
L 43.21875 8.296875 
Q 40.140625 3.328125 35.546875 0.953125 
Q 30.953125 -1.421875 24.3125 -1.421875 
Q 15.921875 -1.421875 10.953125 3.296875 
Q 6 8.015625 6 15.921875 
Q 6 25.140625 12.171875 29.828125 
Q 18.359375 34.515625 30.609375 34.515625 
L 43.21875 34.515625 
L 43.21875 35.40625 
Q 43.21875 41.609375 39.140625 45 
Q 35.0625 48.390625 27.6875 48.390625 
Q 23 48.390625 18.546875 47.265625 
Q 14.109375 46.140625 10.015625 43.890625 
L 10.015625 52.203125 
Q 14.9375 54.109375 19.578125 55.046875 
Q 24.21875 56 28.609375 56 
Q 40.484375 56 46.34375 49.84375 
Q 52.203125 43.703125 52.203125 31.203125 
z
" id="DejaVuSans-97"/>
      <path d="M 44.28125 53.078125 
L 44.28125 44.578125 
Q 40.484375 46.53125 36.375 47.5 
Q 32.28125 48.484375 27.875 48.484375 
Q 21.1875 48.484375 17.84375 46.4375 
Q 14.5 44.390625 14.5 40.28125 
Q 14.5 37.15625 16.890625 35.375 
Q 19.28125 33.59375 26.515625 31.984375 
L 29.59375 31.296875 
Q 39.15625 29.25 43.1875 25.515625 
Q 47.21875 21.78125 47.21875 15.09375 
Q 47.21875 7.46875 41.1875 3.015625 
Q 35.15625 -1.421875 24.609375 -1.421875 
Q 20.21875 -1.421875 15.453125 -0.5625 
Q 10.6875 0.296875 5.421875 2 
L 5.421875 11.28125 
Q 10.40625 8.6875 15.234375 7.390625 
Q 20.0625 6.109375 24.8125 6.109375 
Q 31.15625 6.109375 34.5625 8.28125 
Q 37.984375 10.453125 37.984375 14.40625 
Q 37.984375 18.0625 35.515625 20.015625 
Q 33.0625 21.96875 24.703125 23.78125 
L 21.578125 24.515625 
Q 13.234375 26.265625 9.515625 29.90625 
Q 5.8125 33.546875 5.8125 39.890625 
Q 5.8125 47.609375 11.28125 51.796875 
Q 16.75 56 26.8125 56 
Q 31.78125 56 36.171875 55.265625 
Q 40.578125 54.546875 44.28125 53.078125 
z
" id="DejaVuSans-115"/>
      <path d="M 11.71875 12.40625 
L 22.015625 12.40625 
L 22.015625 4 
L 14.015625 -11.625 
L 7.71875 -11.625 
L 11.71875 4 
z
" id="DejaVuSans-44"/>
      <path id="DejaVuSans-32"/>
      <path d="M 41.109375 46.296875 
Q 39.59375 47.171875 37.8125 47.578125 
Q 36.03125 48 33.890625 48 
Q 26.265625 48 22.1875 43.046875 
Q 18.109375 38.09375 18.109375 28.8125 
L 18.109375 0 
L 9.078125 0 
L 9.078125 54.6875 
L 18.109375 54.6875 
L 18.109375 46.1875 
Q 20.953125 51.171875 25.484375 53.578125 
Q 30.03125 56 36.53125 56 
Q 37.453125 56 38.578125 55.875 
Q 39.703125 55.765625 41.0625 55.515625 
z
" id="DejaVuSans-114"/>
      <path d="M 9.078125 75.984375 
L 18.109375 75.984375 
L 18.109375 31.109375 
L 44.921875 54.6875 
L 56.390625 54.6875 
L 27.390625 29.109375 
L 57.625 0 
L 45.90625 0 
L 18.109375 26.703125 
L 18.109375 0 
L 9.078125 0 
z
" id="DejaVuSans-107"/>
     </defs>
     <use xlink:href="#DejaVuSans-109"/>
     <use x="97.412109" xlink:href="#DejaVuSans-111"/>
     <use x="158.59375" xlink:href="#DejaVuSans-100"/>
     <use x="222.070312" xlink:href="#DejaVuSans-101"/>
     <use x="283.59375" xlink:href="#DejaVuSans-108"/>
     <use x="311.376953" xlink:href="#DejaVuSans-116"/>
     <use x="350.585938" xlink:href="#DejaVuSans-121"/>
     <use x="409.765625" xlink:href="#DejaVuSans-112"/>
     <use x="473.242188" xlink:href="#DejaVuSans-101"/>
     <use x="534.765625" xlink:href="#DejaVuSans-61"/>
     <use x="618.554688" xlink:href="#DejaVuSans-98"/>
     <use x="682.03125" xlink:href="#DejaVuSans-97"/>
     <use x="743.310547" xlink:href="#DejaVuSans-115"/>
     <use x="795.410156" xlink:href="#DejaVuSans-101"/>
     <use x="856.933594" xlink:href="#DejaVuSans-44"/>
     <use x="888.720703" xlink:href="#DejaVuSans-32"/>
     <use x="920.507812" xlink:href="#DejaVuSans-108"/>
     <use x="948.291016" xlink:href="#DejaVuSans-97"/>
     <use x="1009.570312" xlink:href="#DejaVuSans-98"/>
     <use x="1073.046875" xlink:href="#DejaVuSans-111"/>
     <use x="1134.228516" xlink:href="#DejaVuSans-114"/>
     <use x="1173.591797" xlink:href="#DejaVuSans-109"/>
     <use x="1271.003906" xlink:href="#DejaVuSans-97"/>
     <use x="1332.283203" xlink:href="#DejaVuSans-114"/>
     <use x="1373.396484" xlink:href="#DejaVuSans-107"/>
     <use x="1427.681641" xlink:href="#DejaVuSans-101"/>
     <use x="1489.205078" xlink:href="#DejaVuSans-116"/>
     <use x="1528.414062" xlink:href="#DejaVuSans-61"/>
     <use x="1612.203125" xlink:href="#DejaVuSans-98"/>
     <use x="1675.679688" xlink:href="#DejaVuSans-105"/>
     <use x="1703.462891" xlink:href="#DejaVuSans-97"/>
     <use x="1764.742188" xlink:href="#DejaVuSans-115"/>
     <use x="1816.841797" xlink:href="#DejaVuSans-101"/>
     <use x="1878.365234" xlink:href="#DejaVuSans-100"/>
    </g>
   </g>
   <g id="legend_1">
    <g id="patch_5">
     <path d="M 70 107.58875 
L 235.407813 107.58875 
Q 237.407813 107.58875 237.407813 105.58875 
L 237.407813 32.92 
Q 237.407813 30.92 235.407813 30.92 
L 70 30.92 
Q 68 30.92 68 32.92 
L 68 105.58875 
Q 68 107.58875 70 107.58875 
z
" style="fill:#ffffff;opacity:0.8;stroke:#cccccc;stroke-linejoin:miter;"/>
    </g>
    <g id="text_17">
     <!-- scenario -->
     <g transform="translate(131.536719 42.518438)scale(0.1 -0.1)">
      <defs>
       <path d="M 54.890625 33.015625 
L 54.890625 0 
L 45.90625 0 
L 45.90625 32.71875 
Q 45.90625 40.484375 42.875 44.328125 
Q 39.84375 48.1875 33.796875 48.1875 
Q 26.515625 48.1875 22.3125 43.546875 
Q 18.109375 38.921875 18.109375 30.90625 
L 18.109375 0 
L 9.078125 0 
L 9.078125 54.6875 
L 18.109375 54.6875 
L 18.109375 46.1875 
Q 21.34375 51.125 25.703125 53.5625 
Q 30.078125 56 35.796875 56 
Q 45.21875 56 50.046875 50.171875 
Q 54.890625 44.34375 54.890625 33.015625 
z
" id="DejaVuSans-110"/>
      </defs>
      <use xlink:href="#DejaVuSans-115"/>
      <use x="52.099609" xlink:href="#DejaVuSans-99"/>
      <use x="107.080078" xlink:href="#DejaVuSans-101"/>
      <use x="168.603516" xlink:href="#DejaVuSans-110"/>
      <use x="231.982422" xlink:href="#DejaVuSans-97"/>
      <use x="293.261719" xlink:href="#DejaVuSans-114"/>
      <use x="334.375" xlink:href="#DejaVuSans-105"/>
      <use x="362.158203" xlink:href="#DejaVuSans-111"/>
     </g>
    </g>
    <g id="line2d_22">
     <path d="M 72 53.696562 
L 92 53.696562 
" style="fill:none;stroke:#1f77b4;stroke-linecap:square;stroke-width:1.5;"/>
    </g>
    <g id="line2d_23"/>
    <g id="text_18">
     <!-- onlylow -->
     <g transform="translate(100 57.196562)scale(0.1 -0.1)">
      <defs>
       <path d="M 4.203125 54.6875 
L 13.1875 54.6875 
L 24.421875 12.015625 
L 35.59375 54.6875 
L 46.1875 54.6875 
L 57.421875 12.015625 
L 68.609375 54.6875 
L 77.59375 54.6875 
L 63.28125 0 
L 52.6875 0 
L 40.921875 44.828125 
L 29.109375 0 
L 18.5 0 
z
" id="DejaVuSans-119"/>
      </defs>
      <use xlink:href="#DejaVuSans-111"/>
      <use x="61.181641" xlink:href="#DejaVuSans-110"/>
      <use x="124.560547" xlink:href="#DejaVuSans-108"/>
      <use x="152.34375" xlink:href="#DejaVuSans-121"/>
      <use x="211.523438" xlink:href="#DejaVuSans-108"/>
      <use x="239.306641" xlink:href="#DejaVuSans-111"/>
      <use x="300.488281" xlink:href="#DejaVuSans-119"/>
     </g>
    </g>
    <g id="line2d_24">
     <path d="M 72 68.374687 
L 92 68.374687 
" style="fill:none;stroke:#ff7f0e;stroke-linecap:square;stroke-width:1.5;"/>
    </g>
    <g id="line2d_25"/>
    <g id="text_19">
     <!-- onlyhigh -->
     <g transform="translate(100 71.874687)scale(0.1 -0.1)">
      <defs>
       <path d="M 54.890625 33.015625 
L 54.890625 0 
L 45.90625 0 
L 45.90625 32.71875 
Q 45.90625 40.484375 42.875 44.328125 
Q 39.84375 48.1875 33.796875 48.1875 
Q 26.515625 48.1875 22.3125 43.546875 
Q 18.109375 38.921875 18.109375 30.90625 
L 18.109375 0 
L 9.078125 0 
L 9.078125 75.984375 
L 18.109375 75.984375 
L 18.109375 46.1875 
Q 21.34375 51.125 25.703125 53.5625 
Q 30.078125 56 35.796875 56 
Q 45.21875 56 50.046875 50.171875 
Q 54.890625 44.34375 54.890625 33.015625 
z
" id="DejaVuSans-104"/>
       <path d="M 45.40625 27.984375 
Q 45.40625 37.75 41.375 43.109375 
Q 37.359375 48.484375 30.078125 48.484375 
Q 22.859375 48.484375 18.828125 43.109375 
Q 14.796875 37.75 14.796875 27.984375 
Q 14.796875 18.265625 18.828125 12.890625 
Q 22.859375 7.515625 30.078125 7.515625 
Q 37.359375 7.515625 41.375 12.890625 
Q 45.40625 18.265625 45.40625 27.984375 
z
M 54.390625 6.78125 
Q 54.390625 -7.171875 48.1875 -13.984375 
Q 42 -20.796875 29.203125 -20.796875 
Q 24.46875 -20.796875 20.265625 -20.09375 
Q 16.0625 -19.390625 12.109375 -17.921875 
L 12.109375 -9.1875 
Q 16.0625 -11.328125 19.921875 -12.34375 
Q 23.78125 -13.375 27.78125 -13.375 
Q 36.625 -13.375 41.015625 -8.765625 
Q 45.40625 -4.15625 45.40625 5.171875 
L 45.40625 9.625 
Q 42.625 4.78125 38.28125 2.390625 
Q 33.9375 0 27.875 0 
Q 17.828125 0 11.671875 7.65625 
Q 5.515625 15.328125 5.515625 27.984375 
Q 5.515625 40.671875 11.671875 48.328125 
Q 17.828125 56 27.875 56 
Q 33.9375 56 38.28125 53.609375 
Q 42.625 51.21875 45.40625 46.390625 
L 45.40625 54.6875 
L 54.390625 54.6875 
z
" id="DejaVuSans-103"/>
      </defs>
      <use xlink:href="#DejaVuSans-111"/>
      <use x="61.181641" xlink:href="#DejaVuSans-110"/>
      <use x="124.560547" xlink:href="#DejaVuSans-108"/>
      <use x="152.34375" xlink:href="#DejaVuSans-121"/>
      <use x="211.523438" xlink:href="#DejaVuSans-104"/>
      <use x="274.902344" xlink:href="#DejaVuSans-105"/>
      <use x="302.685547" xlink:href="#DejaVuSans-103"/>
      <use x="366.162109" xlink:href="#DejaVuSans-104"/>
     </g>
    </g>
    <g id="line2d_26">
     <path d="M 72 83.052813 
L 92 83.052813 
" style="fill:none;stroke:#2ca02c;stroke-linecap:square;stroke-width:1.5;"/>
    </g>
    <g id="line2d_27"/>
    <g id="text_20">
     <!-- balanced -->
     <g transform="translate(100 86.552813)scale(0.1 -0.1)">
      <use xlink:href="#DejaVuSans-98"/>
      <use x="63.476562" xlink:href="#DejaVuSans-97"/>
      <use x="124.755859" xlink:href="#DejaVuSans-108"/>
      <use x="152.539062" xlink:href="#DejaVuSans-97"/>
      <use x="213.818359" xlink:href="#DejaVuSans-110"/>
      <use x="277.197266" xlink:href="#DejaVuSans-99"/>
      <use x="332.177734" xlink:href="#DejaVuSans-101"/>
      <use x="393.701172" xlink:href="#DejaVuSans-100"/>
     </g>
    </g>
    <g id="line2d_28">
     <path d="M 72 97.730938 
L 92 97.730938 
" style="fill:none;stroke:#d62728;stroke-linecap:square;stroke-width:1.5;"/>
    </g>
    <g id="line2d_29"/>
    <g id="text_21">
     <!-- balanced_errors_penalized -->
     <g transform="translate(100 101.230938)scale(0.1 -0.1)">
      <defs>
       <path d="M 50.984375 -16.609375 
L 50.984375 -23.578125 
L -0.984375 -23.578125 
L -0.984375 -16.609375 
z
" id="DejaVuSans-95"/>
       <path d="M 5.515625 54.6875 
L 48.1875 54.6875 
L 48.1875 46.484375 
L 14.40625 7.171875 
L 48.1875 7.171875 
L 48.1875 0 
L 4.296875 0 
L 4.296875 8.203125 
L 38.09375 47.515625 
L 5.515625 47.515625 
z
" id="DejaVuSans-122"/>
      </defs>
      <use xlink:href="#DejaVuSans-98"/>
      <use x="63.476562" xlink:href="#DejaVuSans-97"/>
      <use x="124.755859" xlink:href="#DejaVuSans-108"/>
      <use x="152.539062" xlink:href="#DejaVuSans-97"/>
      <use x="213.818359" xlink:href="#DejaVuSans-110"/>
      <use x="277.197266" xlink:href="#DejaVuSans-99"/>
      <use x="332.177734" xlink:href="#DejaVuSans-101"/>
      <use x="393.701172" xlink:href="#DejaVuSans-100"/>
      <use x="457.177734" xlink:href="#DejaVuSans-95"/>
      <use x="507.177734" xlink:href="#DejaVuSans-101"/>
      <use x="568.701172" xlink:href="#DejaVuSans-114"/>
      <use x="608.064453" xlink:href="#DejaVuSans-114"/>
      <use x="646.927734" xlink:href="#DejaVuSans-111"/>
      <use x="708.109375" xlink:href="#DejaVuSans-114"/>
      <use x="749.222656" xlink:href="#DejaVuSans-115"/>
      <use x="801.322266" xlink:href="#DejaVuSans-95"/>
      <use x="851.322266" xlink:href="#DejaVuSans-112"/>
      <use x="914.798828" xlink:href="#DejaVuSans-101"/>
      <use x="976.322266" xlink:href="#DejaVuSans-110"/>
      <use x="1039.701172" xlink:href="#DejaVuSans-97"/>
      <use x="1100.980469" xlink:href="#DejaVuSans-108"/>
      <use x="1128.763672" xlink:href="#DejaVuSans-105"/>
      <use x="1156.546875" xlink:href="#DejaVuSans-122"/>
      <use x="1209.037109" xlink:href="#DejaVuSans-101"/>
      <use x="1270.560547" xlink:href="#DejaVuSans-100"/>
     </g>
    </g>
   </g>
  </g>
 </g>
 <defs>
  <clipPath id="p10a87e5d89">
   <rect height="166.32" width="390.6" x="63" y="25.92"/>
  </clipPath>
 </defs>
</svg>
