<?xml version="1.0" encoding="utf-8" standalone="no"?>
<!DOCTYPE svg PUBLIC "-//W3C//DTD SVG 1.1//EN"
  "http://www.w3.org/Graphics/SVG/1.1/DTD/svg11.dtd">
<!-- Created with matplotlib (https://matplotlib.org/) -->
<svg height="216pt" version="1.1" viewBox="0 0 504 216" width="504pt" xmlns="http://www.w3.org/2000/svg" xmlns:xlink="http://www.w3.org/1999/xlink">
 <metadata>
  <rdf:RDF xmlns:cc="http://creativecommons.org/ns#" xmlns:dc="http://purl.org/dc/elements/1.1/" xmlns:rdf="http://www.w3.org/1999/02/22-rdf-syntax-ns#">
   <cc:Work>
    <dc:type rdf:resource="http://purl.org/dc/dcmitype/StillImage"/>
    <dc:date>2022-01-19T13:51:31.421028</dc:date>
    <dc:format>image/svg+xml</dc:format>
    <dc:creator>
     <cc:Agent>
      <dc:title>Matplotlib v3.3.4, https://matplotlib.org/</dc:title>
     </cc:Agent>
    </dc:creator>
   </cc:Work>
  </rdf:RDF>
 </metadata>
 <defs>
  <style type="text/css">*{stroke-linecap:butt;stroke-linejoin:round;}</style>
 </defs>
 <g id="figure_1">
  <g id="patch_1">
   <path d="M 0 216 
L 504 216 
L 504 0 
L 0 0 
z
" style="fill:#ffffff;"/>
  </g>
  <g id="axes_1">
   <g id="patch_2">
    <path d="M 63 192.24 
L 453.6 192.24 
L 453.6 25.92 
L 63 25.92 
z
" style="fill:#ffffff;"/>
   </g>
   <g id="matplotlib.axis_1">
    <g id="xtick_1">
     <g id="line2d_1">
      <defs>
       <path d="M 0 0 
L 0 3.5 
" id="m2a69d7a36a" style="stroke:#000000;stroke-width:0.8;"/>
      </defs>
      <g>
       <use style="stroke:#000000;stroke-width:0.8;" x="79.862357" xlink:href="#m2a69d7a36a" y="192.24"/>
      </g>
     </g>
     <g id="text_1">
      <!-- 400 -->
      <g transform="translate(70.318607 206.838437)scale(0.1 -0.1)">
       <defs>
        <path d="M 37.796875 64.3125 
L 12.890625 25.390625 
L 37.796875 25.390625 
z
M 35.203125 72.90625 
L 47.609375 72.90625 
L 47.609375 25.390625 
L 58.015625 25.390625 
L 58.015625 17.1875 
L 47.609375 17.1875 
L 47.609375 0 
L 37.796875 0 
L 37.796875 17.1875 
L 4.890625 17.1875 
L 4.890625 26.703125 
z
" id="DejaVuSans-52"/>
        <path d="M 31.78125 66.40625 
Q 24.171875 66.40625 20.328125 58.90625 
Q 16.5 51.421875 16.5 36.375 
Q 16.5 21.390625 20.328125 13.890625 
Q 24.171875 6.390625 31.78125 6.390625 
Q 39.453125 6.390625 43.28125 13.890625 
Q 47.125 21.390625 47.125 36.375 
Q 47.125 51.421875 43.28125 58.90625 
Q 39.453125 66.40625 31.78125 66.40625 
z
M 31.78125 74.21875 
Q 44.046875 74.21875 50.515625 64.515625 
Q 56.984375 54.828125 56.984375 36.375 
Q 56.984375 17.96875 50.515625 8.265625 
Q 44.046875 -1.421875 31.78125 -1.421875 
Q 19.53125 -1.421875 13.0625 8.265625 
Q 6.59375 17.96875 6.59375 36.375 
Q 6.59375 54.828125 13.0625 64.515625 
Q 19.53125 74.21875 31.78125 74.21875 
z
" id="DejaVuSans-48"/>
       </defs>
       <use xlink:href="#DejaVuSans-52"/>
       <use x="63.623047" xlink:href="#DejaVuSans-48"/>
       <use x="127.246094" xlink:href="#DejaVuSans-48"/>
      </g>
     </g>
    </g>
    <g id="xtick_2">
     <g id="line2d_2">
      <g>
       <use style="stroke:#000000;stroke-width:0.8;" x="124.471768" xlink:href="#m2a69d7a36a" y="192.24"/>
      </g>
     </g>
     <g id="text_2">
      <!-- 450 -->
      <g transform="translate(114.928018 206.838437)scale(0.1 -0.1)">
       <defs>
        <path d="M 10.796875 72.90625 
L 49.515625 72.90625 
L 49.515625 64.59375 
L 19.828125 64.59375 
L 19.828125 46.734375 
Q 21.96875 47.46875 24.109375 47.828125 
Q 26.265625 48.1875 28.421875 48.1875 
Q 40.625 48.1875 47.75 41.5 
Q 54.890625 34.8125 54.890625 23.390625 
Q 54.890625 11.625 47.5625 5.09375 
Q 40.234375 -1.421875 26.90625 -1.421875 
Q 22.3125 -1.421875 17.546875 -0.640625 
Q 12.796875 0.140625 7.71875 1.703125 
L 7.71875 11.625 
Q 12.109375 9.234375 16.796875 8.0625 
Q 21.484375 6.890625 26.703125 6.890625 
Q 35.15625 6.890625 40.078125 11.328125 
Q 45.015625 15.765625 45.015625 23.390625 
Q 45.015625 31 40.078125 35.4375 
Q 35.15625 39.890625 26.703125 39.890625 
Q 22.75 39.890625 18.8125 39.015625 
Q 14.890625 38.140625 10.796875 36.28125 
z
" id="DejaVuSans-53"/>
       </defs>
       <use xlink:href="#DejaVuSans-52"/>
       <use x="63.623047" xlink:href="#DejaVuSans-53"/>
       <use x="127.246094" xlink:href="#DejaVuSans-48"/>
      </g>
     </g>
    </g>
    <g id="xtick_3">
     <g id="line2d_3">
      <g>
       <use style="stroke:#000000;stroke-width:0.8;" x="169.081179" xlink:href="#m2a69d7a36a" y="192.24"/>
      </g>
     </g>
     <g id="text_3">
      <!-- 500 -->
      <g transform="translate(159.537429 206.838437)scale(0.1 -0.1)">
       <use xlink:href="#DejaVuSans-53"/>
       <use x="63.623047" xlink:href="#DejaVuSans-48"/>
       <use x="127.246094" xlink:href="#DejaVuSans-48"/>
      </g>
     </g>
    </g>
    <g id="xtick_4">
     <g id="line2d_4">
      <g>
       <use style="stroke:#000000;stroke-width:0.8;" x="213.690589" xlink:href="#m2a69d7a36a" y="192.24"/>
      </g>
     </g>
     <g id="text_4">
      <!-- 550 -->
      <g transform="translate(204.146839 206.838437)scale(0.1 -0.1)">
       <use xlink:href="#DejaVuSans-53"/>
       <use x="63.623047" xlink:href="#DejaVuSans-53"/>
       <use x="127.246094" xlink:href="#DejaVuSans-48"/>
      </g>
     </g>
    </g>
    <g id="xtick_5">
     <g id="line2d_5">
      <g>
       <use style="stroke:#000000;stroke-width:0.8;" x="258.3" xlink:href="#m2a69d7a36a" y="192.24"/>
      </g>
     </g>
     <g id="text_5">
      <!-- 600 -->
      <g transform="translate(248.75625 206.838437)scale(0.1 -0.1)">
       <defs>
        <path d="M 33.015625 40.375 
Q 26.375 40.375 22.484375 35.828125 
Q 18.609375 31.296875 18.609375 23.390625 
Q 18.609375 15.53125 22.484375 10.953125 
Q 26.375 6.390625 33.015625 6.390625 
Q 39.65625 6.390625 43.53125 10.953125 
Q 47.40625 15.53125 47.40625 23.390625 
Q 47.40625 31.296875 43.53125 35.828125 
Q 39.65625 40.375 33.015625 40.375 
z
M 52.59375 71.296875 
L 52.59375 62.3125 
Q 48.875 64.0625 45.09375 64.984375 
Q 41.3125 65.921875 37.59375 65.921875 
Q 27.828125 65.921875 22.671875 59.328125 
Q 17.53125 52.734375 16.796875 39.40625 
Q 19.671875 43.65625 24.015625 45.921875 
Q 28.375 48.1875 33.59375 48.1875 
Q 44.578125 48.1875 50.953125 41.515625 
Q 57.328125 34.859375 57.328125 23.390625 
Q 57.328125 12.15625 50.6875 5.359375 
Q 44.046875 -1.421875 33.015625 -1.421875 
Q 20.359375 -1.421875 13.671875 8.265625 
Q 6.984375 17.96875 6.984375 36.375 
Q 6.984375 53.65625 15.1875 63.9375 
Q 23.390625 74.21875 37.203125 74.21875 
Q 40.921875 74.21875 44.703125 73.484375 
Q 48.484375 72.75 52.59375 71.296875 
z
" id="DejaVuSans-54"/>
       </defs>
       <use xlink:href="#DejaVuSans-54"/>
       <use x="63.623047" xlink:href="#DejaVuSans-48"/>
       <use x="127.246094" xlink:href="#DejaVuSans-48"/>
      </g>
     </g>
    </g>
    <g id="xtick_6">
     <g id="line2d_6">
      <g>
       <use style="stroke:#000000;stroke-width:0.8;" x="302.909411" xlink:href="#m2a69d7a36a" y="192.24"/>
      </g>
     </g>
     <g id="text_6">
      <!-- 650 -->
      <g transform="translate(293.365661 206.838437)scale(0.1 -0.1)">
       <use xlink:href="#DejaVuSans-54"/>
       <use x="63.623047" xlink:href="#DejaVuSans-53"/>
       <use x="127.246094" xlink:href="#DejaVuSans-48"/>
      </g>
     </g>
    </g>
    <g id="xtick_7">
     <g id="line2d_7">
      <g>
       <use style="stroke:#000000;stroke-width:0.8;" x="347.518821" xlink:href="#m2a69d7a36a" y="192.24"/>
      </g>
     </g>
     <g id="text_7">
      <!-- 700 -->
      <g transform="translate(337.975071 206.838437)scale(0.1 -0.1)">
       <defs>
        <path d="M 8.203125 72.90625 
L 55.078125 72.90625 
L 55.078125 68.703125 
L 28.609375 0 
L 18.3125 0 
L 43.21875 64.59375 
L 8.203125 64.59375 
z
" id="DejaVuSans-55"/>
       </defs>
       <use xlink:href="#DejaVuSans-55"/>
       <use x="63.623047" xlink:href="#DejaVuSans-48"/>
       <use x="127.246094" xlink:href="#DejaVuSans-48"/>
      </g>
     </g>
    </g>
    <g id="xtick_8">
     <g id="line2d_8">
      <g>
       <use style="stroke:#000000;stroke-width:0.8;" x="392.128232" xlink:href="#m2a69d7a36a" y="192.24"/>
      </g>
     </g>
     <g id="text_8">
      <!-- 750 -->
      <g transform="translate(382.584482 206.838437)scale(0.1 -0.1)">
       <use xlink:href="#DejaVuSans-55"/>
       <use x="63.623047" xlink:href="#DejaVuSans-53"/>
       <use x="127.246094" xlink:href="#DejaVuSans-48"/>
      </g>
     </g>
    </g>
    <g id="xtick_9">
     <g id="line2d_9">
      <g>
       <use style="stroke:#000000;stroke-width:0.8;" x="436.737643" xlink:href="#m2a69d7a36a" y="192.24"/>
      </g>
     </g>
     <g id="text_9">
      <!-- 800 -->
      <g transform="translate(427.193893 206.838437)scale(0.1 -0.1)">
       <defs>
        <path d="M 31.78125 34.625 
Q 24.75 34.625 20.71875 30.859375 
Q 16.703125 27.09375 16.703125 20.515625 
Q 16.703125 13.921875 20.71875 10.15625 
Q 24.75 6.390625 31.78125 6.390625 
Q 38.8125 6.390625 42.859375 10.171875 
Q 46.921875 13.96875 46.921875 20.515625 
Q 46.921875 27.09375 42.890625 30.859375 
Q 38.875 34.625 31.78125 34.625 
z
M 21.921875 38.8125 
Q 15.578125 40.375 12.03125 44.71875 
Q 8.5 49.078125 8.5 55.328125 
Q 8.5 64.0625 14.71875 69.140625 
Q 20.953125 74.21875 31.78125 74.21875 
Q 42.671875 74.21875 48.875 69.140625 
Q 55.078125 64.0625 55.078125 55.328125 
Q 55.078125 49.078125 51.53125 44.71875 
Q 48 40.375 41.703125 38.8125 
Q 48.828125 37.15625 52.796875 32.3125 
Q 56.78125 27.484375 56.78125 20.515625 
Q 56.78125 9.90625 50.3125 4.234375 
Q 43.84375 -1.421875 31.78125 -1.421875 
Q 19.734375 -1.421875 13.25 4.234375 
Q 6.78125 9.90625 6.78125 20.515625 
Q 6.78125 27.484375 10.78125 32.3125 
Q 14.796875 37.15625 21.921875 38.8125 
z
M 18.3125 54.390625 
Q 18.3125 48.734375 21.84375 45.5625 
Q 25.390625 42.390625 31.78125 42.390625 
Q 38.140625 42.390625 41.71875 45.5625 
Q 45.3125 48.734375 45.3125 54.390625 
Q 45.3125 60.0625 41.71875 63.234375 
Q 38.140625 66.40625 31.78125 66.40625 
Q 25.390625 66.40625 21.84375 63.234375 
Q 18.3125 60.0625 18.3125 54.390625 
z
" id="DejaVuSans-56"/>
       </defs>
       <use xlink:href="#DejaVuSans-56"/>
       <use x="63.623047" xlink:href="#DejaVuSans-48"/>
       <use x="127.246094" xlink:href="#DejaVuSans-48"/>
      </g>
     </g>
    </g>
    <g id="text_10">
     <!-- time -->
     <g transform="translate(247.003906 220.516562)scale(0.1 -0.1)">
      <defs>
       <path d="M 18.3125 70.21875 
L 18.3125 54.6875 
L 36.8125 54.6875 
L 36.8125 47.703125 
L 18.3125 47.703125 
L 18.3125 18.015625 
Q 18.3125 11.328125 20.140625 9.421875 
Q 21.96875 7.515625 27.59375 7.515625 
L 36.8125 7.515625 
L 36.8125 0 
L 27.59375 0 
Q 17.1875 0 13.234375 3.875 
Q 9.28125 7.765625 9.28125 18.015625 
L 9.28125 47.703125 
L 2.6875 47.703125 
L 2.6875 54.6875 
L 9.28125 54.6875 
L 9.28125 70.21875 
z
" id="DejaVuSans-116"/>
       <path d="M 9.421875 54.6875 
L 18.40625 54.6875 
L 18.40625 0 
L 9.421875 0 
z
M 9.421875 75.984375 
L 18.40625 75.984375 
L 18.40625 64.59375 
L 9.421875 64.59375 
z
" id="DejaVuSans-105"/>
       <path d="M 52 44.1875 
Q 55.375 50.25 60.0625 53.125 
Q 64.75 56 71.09375 56 
Q 79.640625 56 84.28125 50.015625 
Q 88.921875 44.046875 88.921875 33.015625 
L 88.921875 0 
L 79.890625 0 
L 79.890625 32.71875 
Q 79.890625 40.578125 77.09375 44.375 
Q 74.3125 48.1875 68.609375 48.1875 
Q 61.625 48.1875 57.5625 43.546875 
Q 53.515625 38.921875 53.515625 30.90625 
L 53.515625 0 
L 44.484375 0 
L 44.484375 32.71875 
Q 44.484375 40.625 41.703125 44.40625 
Q 38.921875 48.1875 33.109375 48.1875 
Q 26.21875 48.1875 22.15625 43.53125 
Q 18.109375 38.875 18.109375 30.90625 
L 18.109375 0 
L 9.078125 0 
L 9.078125 54.6875 
L 18.109375 54.6875 
L 18.109375 46.1875 
Q 21.1875 51.21875 25.484375 53.609375 
Q 29.78125 56 35.6875 56 
Q 41.65625 56 45.828125 52.96875 
Q 50 49.953125 52 44.1875 
z
" id="DejaVuSans-109"/>
       <path d="M 56.203125 29.59375 
L 56.203125 25.203125 
L 14.890625 25.203125 
Q 15.484375 15.921875 20.484375 11.0625 
Q 25.484375 6.203125 34.421875 6.203125 
Q 39.59375 6.203125 44.453125 7.46875 
Q 49.3125 8.734375 54.109375 11.28125 
L 54.109375 2.78125 
Q 49.265625 0.734375 44.1875 -0.34375 
Q 39.109375 -1.421875 33.890625 -1.421875 
Q 20.796875 -1.421875 13.15625 6.1875 
Q 5.515625 13.8125 5.515625 26.8125 
Q 5.515625 40.234375 12.765625 48.109375 
Q 20.015625 56 32.328125 56 
Q 43.359375 56 49.78125 48.890625 
Q 56.203125 41.796875 56.203125 29.59375 
z
M 47.21875 32.234375 
Q 47.125 39.59375 43.09375 43.984375 
Q 39.0625 48.390625 32.421875 48.390625 
Q 24.90625 48.390625 20.390625 44.140625 
Q 15.875 39.890625 15.1875 32.171875 
z
" id="DejaVuSans-101"/>
      </defs>
      <use xlink:href="#DejaVuSans-116"/>
      <use x="39.208984" xlink:href="#DejaVuSans-105"/>
      <use x="66.992188" xlink:href="#DejaVuSans-109"/>
      <use x="164.404297" xlink:href="#DejaVuSans-101"/>
     </g>
    </g>
   </g>
   <g id="matplotlib.axis_2">
    <g id="ytick_1">
     <g id="line2d_10">
      <defs>
       <path d="M 0 0 
L -3.5 0 
" id="m638e48da4b" style="stroke:#000000;stroke-width:0.8;"/>
      </defs>
      <g>
       <use style="stroke:#000000;stroke-width:0.8;" x="63" xlink:href="#m638e48da4b" y="171.031169"/>
      </g>
     </g>
     <g id="text_11">
      <!-- 2.6 -->
      <g transform="translate(40.096875 174.830388)scale(0.1 -0.1)">
       <defs>
        <path d="M 19.1875 8.296875 
L 53.609375 8.296875 
L 53.609375 0 
L 7.328125 0 
L 7.328125 8.296875 
Q 12.9375 14.109375 22.625 23.890625 
Q 32.328125 33.6875 34.8125 36.53125 
Q 39.546875 41.84375 41.421875 45.53125 
Q 43.3125 49.21875 43.3125 52.78125 
Q 43.3125 58.59375 39.234375 62.25 
Q 35.15625 65.921875 28.609375 65.921875 
Q 23.96875 65.921875 18.8125 64.3125 
Q 13.671875 62.703125 7.8125 59.421875 
L 7.8125 69.390625 
Q 13.765625 71.78125 18.9375 73 
Q 24.125 74.21875 28.421875 74.21875 
Q 39.75 74.21875 46.484375 68.546875 
Q 53.21875 62.890625 53.21875 53.421875 
Q 53.21875 48.921875 51.53125 44.890625 
Q 49.859375 40.875 45.40625 35.40625 
Q 44.1875 33.984375 37.640625 27.21875 
Q 31.109375 20.453125 19.1875 8.296875 
z
" id="DejaVuSans-50"/>
        <path d="M 10.6875 12.40625 
L 21 12.40625 
L 21 0 
L 10.6875 0 
z
" id="DejaVuSans-46"/>
       </defs>
       <use xlink:href="#DejaVuSans-50"/>
       <use x="63.623047" xlink:href="#DejaVuSans-46"/>
       <use x="95.410156" xlink:href="#DejaVuSans-54"/>
      </g>
     </g>
    </g>
    <g id="ytick_2">
     <g id="line2d_11">
      <g>
       <use style="stroke:#000000;stroke-width:0.8;" x="63" xlink:href="#m638e48da4b" y="147.280907"/>
      </g>
     </g>
     <g id="text_12">
      <!-- 2.7 -->
      <g transform="translate(40.096875 151.080126)scale(0.1 -0.1)">
       <use xlink:href="#DejaVuSans-50"/>
       <use x="63.623047" xlink:href="#DejaVuSans-46"/>
       <use x="95.410156" xlink:href="#DejaVuSans-55"/>
      </g>
     </g>
    </g>
    <g id="ytick_3">
     <g id="line2d_12">
      <g>
       <use style="stroke:#000000;stroke-width:0.8;" x="63" xlink:href="#m638e48da4b" y="123.530645"/>
      </g>
     </g>
     <g id="text_13">
      <!-- 2.8 -->
      <g transform="translate(40.096875 127.329864)scale(0.1 -0.1)">
       <use xlink:href="#DejaVuSans-50"/>
       <use x="63.623047" xlink:href="#DejaVuSans-46"/>
       <use x="95.410156" xlink:href="#DejaVuSans-56"/>
      </g>
     </g>
    </g>
    <g id="ytick_4">
     <g id="line2d_13">
      <g>
       <use style="stroke:#000000;stroke-width:0.8;" x="63" xlink:href="#m638e48da4b" y="99.780383"/>
      </g>
     </g>
     <g id="text_14">
      <!-- 2.9 -->
      <g transform="translate(40.096875 103.579602)scale(0.1 -0.1)">
       <defs>
        <path d="M 10.984375 1.515625 
L 10.984375 10.5 
Q 14.703125 8.734375 18.5 7.8125 
Q 22.3125 6.890625 25.984375 6.890625 
Q 35.75 6.890625 40.890625 13.453125 
Q 46.046875 20.015625 46.78125 33.40625 
Q 43.953125 29.203125 39.59375 26.953125 
Q 35.25 24.703125 29.984375 24.703125 
Q 19.046875 24.703125 12.671875 31.3125 
Q 6.296875 37.9375 6.296875 49.421875 
Q 6.296875 60.640625 12.9375 67.421875 
Q 19.578125 74.21875 30.609375 74.21875 
Q 43.265625 74.21875 49.921875 64.515625 
Q 56.59375 54.828125 56.59375 36.375 
Q 56.59375 19.140625 48.40625 8.859375 
Q 40.234375 -1.421875 26.421875 -1.421875 
Q 22.703125 -1.421875 18.890625 -0.6875 
Q 15.09375 0.046875 10.984375 1.515625 
z
M 30.609375 32.421875 
Q 37.25 32.421875 41.125 36.953125 
Q 45.015625 41.5 45.015625 49.421875 
Q 45.015625 57.28125 41.125 61.84375 
Q 37.25 66.40625 30.609375 66.40625 
Q 23.96875 66.40625 20.09375 61.84375 
Q 16.21875 57.28125 16.21875 49.421875 
Q 16.21875 41.5 20.09375 36.953125 
Q 23.96875 32.421875 30.609375 32.421875 
z
" id="DejaVuSans-57"/>
       </defs>
       <use xlink:href="#DejaVuSans-50"/>
       <use x="63.623047" xlink:href="#DejaVuSans-46"/>
       <use x="95.410156" xlink:href="#DejaVuSans-57"/>
      </g>
     </g>
    </g>
    <g id="ytick_5">
     <g id="line2d_14">
      <g>
       <use style="stroke:#000000;stroke-width:0.8;" x="63" xlink:href="#m638e48da4b" y="76.030121"/>
      </g>
     </g>
     <g id="text_15">
      <!-- 3.0 -->
      <g transform="translate(40.096875 79.82934)scale(0.1 -0.1)">
       <defs>
        <path d="M 40.578125 39.3125 
Q 47.65625 37.796875 51.625 33 
Q 55.609375 28.21875 55.609375 21.1875 
Q 55.609375 10.40625 48.1875 4.484375 
Q 40.765625 -1.421875 27.09375 -1.421875 
Q 22.515625 -1.421875 17.65625 -0.515625 
Q 12.796875 0.390625 7.625 2.203125 
L 7.625 11.71875 
Q 11.71875 9.328125 16.59375 8.109375 
Q 21.484375 6.890625 26.8125 6.890625 
Q 36.078125 6.890625 40.9375 10.546875 
Q 45.796875 14.203125 45.796875 21.1875 
Q 45.796875 27.640625 41.28125 31.265625 
Q 36.765625 34.90625 28.71875 34.90625 
L 20.21875 34.90625 
L 20.21875 43.015625 
L 29.109375 43.015625 
Q 36.375 43.015625 40.234375 45.921875 
Q 44.09375 48.828125 44.09375 54.296875 
Q 44.09375 59.90625 40.109375 62.90625 
Q 36.140625 65.921875 28.71875 65.921875 
Q 24.65625 65.921875 20.015625 65.03125 
Q 15.375 64.15625 9.8125 62.3125 
L 9.8125 71.09375 
Q 15.4375 72.65625 20.34375 73.4375 
Q 25.25 74.21875 29.59375 74.21875 
Q 40.828125 74.21875 47.359375 69.109375 
Q 53.90625 64.015625 53.90625 55.328125 
Q 53.90625 49.265625 50.4375 45.09375 
Q 46.96875 40.921875 40.578125 39.3125 
z
" id="DejaVuSans-51"/>
       </defs>
       <use xlink:href="#DejaVuSans-51"/>
       <use x="63.623047" xlink:href="#DejaVuSans-46"/>
       <use x="95.410156" xlink:href="#DejaVuSans-48"/>
      </g>
     </g>
    </g>
    <g id="ytick_6">
     <g id="line2d_15">
      <g>
       <use style="stroke:#000000;stroke-width:0.8;" x="63" xlink:href="#m638e48da4b" y="52.279859"/>
      </g>
     </g>
     <g id="text_16">
      <!-- 3.1 -->
      <g transform="translate(40.096875 56.079078)scale(0.1 -0.1)">
       <defs>
        <path d="M 12.40625 8.296875 
L 28.515625 8.296875 
L 28.515625 63.921875 
L 10.984375 60.40625 
L 10.984375 69.390625 
L 28.421875 72.90625 
L 38.28125 72.90625 
L 38.28125 8.296875 
L 54.390625 8.296875 
L 54.390625 0 
L 12.40625 0 
z
" id="DejaVuSans-49"/>
       </defs>
       <use xlink:href="#DejaVuSans-51"/>
       <use x="63.623047" xlink:href="#DejaVuSans-46"/>
       <use x="95.410156" xlink:href="#DejaVuSans-49"/>
      </g>
     </g>
    </g>
    <g id="ytick_7">
     <g id="line2d_16">
      <g>
       <use style="stroke:#000000;stroke-width:0.8;" x="63" xlink:href="#m638e48da4b" y="28.529598"/>
      </g>
     </g>
     <g id="text_17">
      <!-- 3.2 -->
      <g transform="translate(40.096875 32.328816)scale(0.1 -0.1)">
       <use xlink:href="#DejaVuSans-51"/>
       <use x="63.623047" xlink:href="#DejaVuSans-46"/>
       <use x="95.410156" xlink:href="#DejaVuSans-50"/>
      </g>
     </g>
    </g>
    <g id="text_18">
     <!-- coef1 -->
     <g transform="translate(34.017187 122.906562)rotate(-90)scale(0.1 -0.1)">
      <defs>
       <path d="M 48.78125 52.59375 
L 48.78125 44.1875 
Q 44.96875 46.296875 41.140625 47.34375 
Q 37.3125 48.390625 33.40625 48.390625 
Q 24.65625 48.390625 19.8125 42.84375 
Q 14.984375 37.3125 14.984375 27.296875 
Q 14.984375 17.28125 19.8125 11.734375 
Q 24.65625 6.203125 33.40625 6.203125 
Q 37.3125 6.203125 41.140625 7.25 
Q 44.96875 8.296875 48.78125 10.40625 
L 48.78125 2.09375 
Q 45.015625 0.34375 40.984375 -0.53125 
Q 36.96875 -1.421875 32.421875 -1.421875 
Q 20.0625 -1.421875 12.78125 6.34375 
Q 5.515625 14.109375 5.515625 27.296875 
Q 5.515625 40.671875 12.859375 48.328125 
Q 20.21875 56 33.015625 56 
Q 37.15625 56 41.109375 55.140625 
Q 45.0625 54.296875 48.78125 52.59375 
z
" id="DejaVuSans-99"/>
       <path d="M 30.609375 48.390625 
Q 23.390625 48.390625 19.1875 42.75 
Q 14.984375 37.109375 14.984375 27.296875 
Q 14.984375 17.484375 19.15625 11.84375 
Q 23.34375 6.203125 30.609375 6.203125 
Q 37.796875 6.203125 41.984375 11.859375 
Q 46.1875 17.53125 46.1875 27.296875 
Q 46.1875 37.015625 41.984375 42.703125 
Q 37.796875 48.390625 30.609375 48.390625 
z
M 30.609375 56 
Q 42.328125 56 49.015625 48.375 
Q 55.71875 40.765625 55.71875 27.296875 
Q 55.71875 13.875 49.015625 6.21875 
Q 42.328125 -1.421875 30.609375 -1.421875 
Q 18.84375 -1.421875 12.171875 6.21875 
Q 5.515625 13.875 5.515625 27.296875 
Q 5.515625 40.765625 12.171875 48.375 
Q 18.84375 56 30.609375 56 
z
" id="DejaVuSans-111"/>
       <path d="M 37.109375 75.984375 
L 37.109375 68.5 
L 28.515625 68.5 
Q 23.6875 68.5 21.796875 66.546875 
Q 19.921875 64.59375 19.921875 59.515625 
L 19.921875 54.6875 
L 34.71875 54.6875 
L 34.71875 47.703125 
L 19.921875 47.703125 
L 19.921875 0 
L 10.890625 0 
L 10.890625 47.703125 
L 2.296875 47.703125 
L 2.296875 54.6875 
L 10.890625 54.6875 
L 10.890625 58.5 
Q 10.890625 67.625 15.140625 71.796875 
Q 19.390625 75.984375 28.609375 75.984375 
z
" id="DejaVuSans-102"/>
      </defs>
      <use xlink:href="#DejaVuSans-99"/>
      <use x="54.980469" xlink:href="#DejaVuSans-111"/>
      <use x="116.162109" xlink:href="#DejaVuSans-101"/>
      <use x="177.685547" xlink:href="#DejaVuSans-102"/>
      <use x="212.890625" xlink:href="#DejaVuSans-49"/>
     </g>
    </g>
   </g>
   <g id="line2d_17">
    <path clip-path="url(#pd9d3ad1a38)" d="M 80.754545 183.710056 
L 81.646734 183.627807 
L 82.538922 183.790919 
L 83.43111 183.642082 
L 84.323298 183.613508 
L 85.215487 183.850578 
L 86.107675 183.880851 
L 86.999863 182.918729 
L 87.892051 182.965162 
L 88.784239 182.655888 
L 89.676428 182.699274 
L 90.568616 183.199745 
L 91.460804 183.402094 
L 92.352992 183.381717 
L 93.24518 182.068072 
L 95.029557 181.772582 
L 95.921745 181.339386 
L 96.813933 181.227185 
L 97.706122 181.346073 
L 98.59831 181.249352 
L 99.490498 180.133433 
L 100.382686 179.846773 
L 102.167063 179.432224 
L 103.059251 179.216077 
L 104.843627 179.041123 
L 105.735815 178.255561 
L 106.628004 178.115171 
L 107.520192 177.53892 
L 109.304568 177.463706 
L 110.196757 177.069373 
L 111.088945 177.040385 
L 111.981133 175.619309 
L 112.873321 174.998317 
L 113.765509 174.790055 
L 114.657698 174.933732 
L 116.442074 174.32603 
L 117.334262 174.309055 
L 118.22645 172.59168 
L 119.118639 171.706074 
L 123.57958 169.781381 
L 124.471768 168.62468 
L 127.148333 167.065082 
L 128.040521 166.655578 
L 128.932709 166.527738 
L 129.824897 166.173401 
L 130.717085 164.490608 
L 131.609274 163.996348 
L 133.39365 163.43278 
L 134.285838 163.493464 
L 135.178026 162.845088 
L 136.070215 162.767401 
L 136.962403 161.470139 
L 139.638968 159.72853 
L 140.531156 159.461966 
L 141.423344 159.407523 
L 142.315532 158.997693 
L 143.20772 157.705397 
L 145.884285 156.043997 
L 146.776473 155.47489 
L 147.668661 155.304131 
L 148.56085 154.9566 
L 149.453038 153.777079 
L 151.237414 152.563812 
L 152.129603 152.518201 
L 153.021791 151.993817 
L 153.913979 151.991983 
L 154.806167 151.672685 
L 155.698355 150.143102 
L 156.590544 149.262692 
L 157.482732 148.941117 
L 160.159296 147.664235 
L 162.835861 146.566577 
L 164.620238 145.396852 
L 165.512426 145.039955 
L 167.296802 143.980407 
L 168.18899 143.241264 
L 169.081179 143.071772 
L 169.973367 142.518433 
L 170.865555 142.205399 
L 171.757743 141.736059 
L 172.649931 141.590502 
L 173.54212 141.561335 
L 176.218684 139.945616 
L 177.110873 139.146834 
L 179.787437 137.730709 
L 180.679625 137.154208 
L 181.571814 136.093456 
L 184.248378 134.925537 
L 185.140566 134.249781 
L 186.924943 133.368403 
L 187.817131 132.43938 
L 188.709319 131.911701 
L 189.601508 131.182121 
L 192.278072 129.715967 
L 193.17026 129.606719 
L 195.846825 128.153909 
L 196.739013 127.311249 
L 198.52339 126.422301 
L 199.415578 125.927895 
L 200.307766 125.20818 
L 203.876519 123.374243 
L 204.768707 123.120069 
L 205.660895 122.55393 
L 208.33746 121.261017 
L 211.906213 119.490891 
L 214.582778 118.660909 
L 216.367154 117.869614 
L 218.15153 117.301106 
L 219.043719 116.833356 
L 219.935907 116.180962 
L 220.828095 115.805495 
L 221.720283 115.15711 
L 222.612471 114.773123 
L 223.50466 114.111124 
L 226.181224 112.965085 
L 227.073413 112.520932 
L 227.965601 111.712638 
L 230.642165 110.487169 
L 233.31873 108.645007 
L 234.210918 108.580415 
L 235.103106 108.35936 
L 235.995295 107.718626 
L 237.779671 106.785212 
L 238.671859 106.477154 
L 240.456236 105.354591 
L 242.240612 104.904458 
L 244.024989 104.160986 
L 244.917177 103.561623 
L 245.809365 103.273191 
L 246.701553 102.778821 
L 247.593741 102.461347 
L 248.48593 102.328559 
L 251.162494 100.546125 
L 252.054683 100.279381 
L 253.839059 99.102849 
L 255.623435 98.15577 
L 258.3 96.225924 
L 259.192188 95.802075 
L 260.084376 95.146565 
L 260.976565 95.016856 
L 262.760941 94.37651 
L 264.545317 93.507394 
L 265.437506 93.075719 
L 267.221882 92.708523 
L 269.006259 92.361424 
L 270.790635 91.780768 
L 271.682823 90.931046 
L 272.575011 90.590703 
L 273.4672 90.093985 
L 274.359388 89.978357 
L 275.251576 89.539161 
L 276.143764 88.697306 
L 277.035952 88.274934 
L 277.928141 87.66658 
L 278.820329 87.331032 
L 279.712517 86.740972 
L 280.604705 86.642088 
L 282.389082 85.678836 
L 285.957835 84.29792 
L 287.742211 83.703119 
L 292.203152 81.081025 
L 294.879717 80.139834 
L 296.664093 79.049741 
L 299.340658 78.375087 
L 302.909411 77.145971 
L 303.801599 76.888797 
L 304.693787 76.171104 
L 306.478164 75.684775 
L 307.370352 75.213741 
L 309.154728 74.613148 
L 310.046916 74.012101 
L 310.939105 73.684934 
L 312.723481 72.726858 
L 313.615669 72.57351 
L 316.292234 71.081081 
L 318.07661 70.427846 
L 322.537551 68.631708 
L 323.42974 68.486813 
L 324.321928 68.174372 
L 326.106304 67.857642 
L 328.782869 66.7582 
L 334.135998 64.81191 
L 335.028186 64.313302 
L 336.812563 63.779652 
L 337.704751 63.802583 
L 338.596939 63.628532 
L 339.489127 63.314723 
L 340.381316 63.155944 
L 341.273504 62.676531 
L 342.165692 62.46161 
L 343.05788 62.105215 
L 345.734445 60.611615 
L 346.626633 60.437463 
L 348.41101 59.677359 
L 349.303198 59.57342 
L 350.195386 58.881037 
L 351.979762 58.255192 
L 352.871951 57.751568 
L 357.332892 56.134827 
L 358.22508 56.124966 
L 360.009456 55.361602 
L 360.901645 55.020362 
L 362.686021 54.774876 
L 364.470397 53.944111 
L 366.254774 53.323429 
L 367.146962 53.040263 
L 368.03915 52.905721 
L 369.823527 52.27903 
L 370.715715 51.766491 
L 371.607903 51.551607 
L 372.500091 51.464684 
L 374.284468 50.928425 
L 376.961032 50.403922 
L 378.745409 49.642414 
L 380.529785 49.232711 
L 381.421974 48.866621 
L 383.20635 47.921762 
L 384.990726 47.372512 
L 386.775103 46.781375 
L 387.667291 46.756167 
L 391.236044 45.338696 
L 392.128232 45.192515 
L 393.02042 44.814528 
L 393.912608 44.80501 
L 394.804797 44.653215 
L 395.696985 44.047453 
L 396.589173 43.861155 
L 397.481361 43.427314 
L 402.834491 42.519586 
L 404.618867 42.516382 
L 406.403243 41.720065 
L 407.295432 41.350174 
L 409.079808 41.146912 
L 409.971996 40.673728 
L 411.756373 40.113072 
L 413.540749 39.998616 
L 415.325126 39.631818 
L 416.217314 39.227976 
L 418.893878 38.506448 
L 419.786067 38.031023 
L 420.678255 37.690815 
L 421.570443 37.489932 
L 422.462631 36.983651 
L 424.247008 36.623744 
L 426.031384 35.842174 
L 426.923572 35.720191 
L 427.815761 35.373171 
L 430.492325 34.828032 
L 433.16889 33.853644 
L 434.953266 33.48 
L 435.845455 33.542795 
L 435.845455 33.542795 
" style="fill:none;stroke:#1f77b4;stroke-linecap:square;stroke-width:1.5;"/>
   </g>
   <g id="line2d_18">
    <path clip-path="url(#pd9d3ad1a38)" d="M 80.754545 172.762253 
L 81.646734 172.569097 
L 83.43111 172.546061 
L 84.323298 172.73842 
L 86.107675 172.519264 
L 86.999863 172.75214 
L 87.892051 172.637524 
L 88.784239 172.902765 
L 89.676428 172.815953 
L 90.568616 173.038141 
L 91.460804 172.885937 
L 92.352992 173.209254 
L 93.24518 172.894341 
L 94.137369 173.109502 
L 95.029557 172.996205 
L 96.813933 173.111604 
L 97.706122 173.567143 
L 98.59831 173.513576 
L 99.490498 172.863211 
L 103.059251 172.53311 
L 103.951439 172.25249 
L 104.843627 172.49383 
L 105.735815 171.556708 
L 107.520192 171.104671 
L 108.41238 170.923086 
L 109.304568 171.174493 
L 110.196757 171.012064 
L 111.088945 171.06936 
L 111.981133 170.505662 
L 112.873321 170.076304 
L 113.765509 170.060614 
L 114.657698 169.702091 
L 115.549886 169.647257 
L 116.442074 169.973009 
L 117.334262 169.910313 
L 118.22645 169.105781 
L 119.118639 168.706923 
L 120.903015 168.521888 
L 123.57958 168.048108 
L 124.471768 167.405843 
L 125.363956 167.049984 
L 127.148333 166.607603 
L 128.040521 166.647939 
L 129.824897 166.98275 
L 130.717085 166.274588 
L 131.609274 165.995667 
L 132.501462 166.006826 
L 133.39365 165.83221 
L 134.285838 166.104469 
L 135.178026 165.786103 
L 136.070215 165.975516 
L 138.746779 164.988378 
L 139.638968 164.459187 
L 141.423344 164.589648 
L 142.315532 164.540575 
L 143.20772 163.88028 
L 144.099909 163.760489 
L 147.668661 162.8798 
L 148.56085 162.912634 
L 149.453038 162.372783 
L 151.237414 162.07996 
L 152.129603 162.174505 
L 153.021791 161.742994 
L 153.913979 161.455552 
L 155.698355 161.07322 
L 156.590544 160.62252 
L 157.482732 160.472924 
L 158.37492 160.185122 
L 161.943673 159.802825 
L 162.835861 159.422805 
L 163.728049 158.708372 
L 164.620238 158.474011 
L 165.512426 158.624547 
L 166.404614 158.626364 
L 167.296802 158.50555 
L 169.081179 158.047005 
L 169.973367 157.976753 
L 170.865555 157.606557 
L 171.757743 157.775499 
L 174.434308 157.348873 
L 176.218684 156.87469 
L 177.110873 156.492399 
L 180.679625 156.13034 
L 181.571814 155.544885 
L 182.464002 155.39616 
L 183.35619 155.569338 
L 184.248378 155.176111 
L 186.924943 155.101603 
L 188.709319 154.216214 
L 191.385884 153.738553 
L 192.278072 153.786802 
L 193.17026 153.571174 
L 194.062449 152.991294 
L 194.954637 152.943199 
L 195.846825 152.692339 
L 196.739013 152.818105 
L 198.52339 152.692343 
L 199.415578 153.049817 
L 200.307766 152.7874 
L 201.199954 152.840561 
L 202.092143 152.684439 
L 202.984331 152.283063 
L 205.660895 151.846408 
L 206.553084 151.519861 
L 210.121836 150.75197 
L 211.014025 150.750866 
L 213.690589 150.021886 
L 214.582778 150.202633 
L 215.474966 149.890705 
L 217.259342 149.965487 
L 218.15153 149.709892 
L 219.043719 149.608033 
L 222.612471 148.464412 
L 223.50466 148.672147 
L 225.289036 148.185436 
L 226.181224 147.886226 
L 227.965601 148.008261 
L 229.749977 147.575237 
L 230.642165 147.604964 
L 231.534354 147.189834 
L 232.426542 147.108564 
L 233.31873 146.619057 
L 235.103106 146.114746 
L 235.995295 145.65132 
L 236.887483 145.400006 
L 239.564048 144.958003 
L 240.456236 144.761864 
L 241.348424 144.760322 
L 243.1328 144.30243 
L 244.024989 144.071688 
L 244.917177 143.581038 
L 245.809365 143.452746 
L 247.593741 143.02109 
L 248.48593 142.532742 
L 249.378118 142.712506 
L 251.162494 142.437375 
L 252.946871 141.894093 
L 253.839059 142.077934 
L 255.623435 141.729715 
L 256.515624 141.687321 
L 257.407812 141.528859 
L 258.3 141.66075 
L 259.192188 141.479346 
L 260.084376 141.426252 
L 260.976565 141.622861 
L 262.760941 141.486939 
L 263.653129 141.15477 
L 266.329694 140.699896 
L 267.221882 140.793251 
L 268.11407 140.627309 
L 269.006259 140.803796 
L 269.898447 140.27051 
L 274.359388 139.309674 
L 275.251576 138.980592 
L 276.143764 139.186411 
L 277.928141 138.750554 
L 280.604705 138.512687 
L 281.496894 138.877052 
L 283.28127 138.444629 
L 284.173458 138.328813 
L 285.957835 137.660742 
L 288.634399 137.182579 
L 290.418776 137.15938 
L 292.203152 136.897908 
L 293.09534 136.843581 
L 295.771905 136.365563 
L 296.664093 136.193153 
L 299.340658 135.341108 
L 301.125034 135.034274 
L 302.017222 134.530567 
L 303.801599 134.299807 
L 304.693787 134.294321 
L 306.478164 134.004548 
L 307.370352 133.685177 
L 308.26254 133.48825 
L 310.046916 132.909636 
L 314.507857 131.823289 
L 315.400046 131.47925 
L 316.292234 131.707604 
L 317.184422 131.374349 
L 319.860987 130.939505 
L 320.753175 130.620497 
L 321.645363 130.485553 
L 324.321928 129.723221 
L 326.106304 129.495078 
L 326.998492 129.609013 
L 331.459434 129.170635 
L 335.028186 128.442473 
L 336.812563 128.178615 
L 337.704751 127.773634 
L 338.596939 127.702463 
L 339.489127 127.420731 
L 340.381316 126.97663 
L 341.273504 126.92676 
L 342.165692 126.472672 
L 343.05788 126.228885 
L 345.734445 125.939116 
L 347.518821 125.979728 
L 350.195386 125.693707 
L 351.087574 125.979689 
L 351.979762 125.819149 
L 352.871951 125.888851 
L 355.548515 125.596729 
L 356.440704 125.79265 
L 357.332892 125.441248 
L 359.117268 125.357755 
L 360.009456 125.132201 
L 362.686021 124.914661 
L 363.578209 124.966947 
L 366.254774 124.70056 
L 367.146962 124.59192 
L 368.931339 124.063175 
L 369.823527 123.923658 
L 370.715715 124.199669 
L 372.500091 123.717961 
L 375.176656 123.431352 
L 376.961032 122.998998 
L 379.637597 122.167259 
L 381.421974 122.055173 
L 382.314162 121.770582 
L 387.667291 120.87105 
L 388.559479 120.804539 
L 389.451667 120.966526 
L 392.128232 120.583263 
L 394.804797 120.352943 
L 399.265738 119.609583 
L 401.942302 119.229985 
L 402.834491 118.956786 
L 403.726679 118.831004 
L 404.618867 118.50037 
L 405.511055 118.545832 
L 406.403243 118.269817 
L 407.295432 117.839022 
L 410.864185 117.016434 
L 412.648561 116.877658 
L 417.109502 116.234848 
L 418.00169 116.218885 
L 418.893878 115.915522 
L 419.786067 115.854584 
L 420.678255 115.676448 
L 421.570443 115.374746 
L 422.462631 115.260927 
L 423.35482 115.386419 
L 424.247008 115.214189 
L 425.139196 115.194388 
L 426.031384 114.97576 
L 427.815761 114.932061 
L 430.492325 114.591658 
L 431.384513 114.134224 
L 432.276702 114.065089 
L 433.16889 113.818917 
L 434.061078 113.847144 
L 435.845455 113.504045 
L 435.845455 113.504045 
" style="fill:none;stroke:#ff7f0e;stroke-linecap:square;stroke-width:1.5;"/>
   </g>
   <g id="line2d_19">
    <path clip-path="url(#pd9d3ad1a38)" d="M 80.754545 184.13893 
L 81.646734 184.097804 
L 82.538922 184.308234 
L 83.43111 184.68 
L 85.215487 184.332181 
L 86.107675 183.98526 
L 86.999863 183.317839 
L 87.892051 183.238931 
L 90.568616 183.612627 
L 91.460804 184.122924 
L 92.352992 183.986809 
L 93.24518 182.668681 
L 95.029557 181.866378 
L 95.921745 182.022974 
L 96.813933 181.602675 
L 98.59831 182.227541 
L 99.490498 180.958131 
L 100.382686 180.792508 
L 101.274874 181.006354 
L 102.167063 181.369115 
L 103.059251 180.956912 
L 103.951439 180.358703 
L 104.843627 180.339678 
L 105.735815 178.957616 
L 106.628004 178.420261 
L 107.520192 178.138416 
L 108.41238 177.338211 
L 109.304568 177.003115 
L 111.088945 177.138628 
L 111.981133 175.752834 
L 112.873321 175.382878 
L 113.765509 174.835566 
L 114.657698 174.859111 
L 116.442074 174.43721 
L 117.334262 174.324233 
L 118.22645 172.653777 
L 120.010827 171.448457 
L 121.795203 170.81284 
L 122.687392 170.942253 
L 123.57958 170.746887 
L 124.471768 169.615982 
L 127.148333 168.131982 
L 128.040521 167.634651 
L 129.824897 167.54919 
L 130.717085 165.575115 
L 132.501462 164.752091 
L 135.178026 164.119779 
L 136.070215 163.604634 
L 136.962403 162.464253 
L 137.854591 161.973974 
L 138.746779 162.023989 
L 139.638968 161.58524 
L 140.531156 161.453225 
L 141.423344 161.136972 
L 142.315532 161.048747 
L 143.20772 160.130213 
L 144.099909 159.952152 
L 144.992097 159.521801 
L 145.884285 158.966487 
L 146.776473 158.244227 
L 147.668661 157.733014 
L 148.56085 157.682476 
L 149.453038 156.430633 
L 150.345226 156.41471 
L 153.913979 154.898649 
L 154.806167 154.615195 
L 155.698355 153.459205 
L 156.590544 152.926536 
L 157.482732 152.243338 
L 161.051485 150.975372 
L 163.728049 148.852808 
L 165.512426 147.957031 
L 167.296802 147.286817 
L 168.18899 146.130417 
L 169.081179 145.367215 
L 170.865555 144.187974 
L 173.54212 143.2757 
L 175.326496 141.979432 
L 176.218684 141.090935 
L 178.003061 140.253435 
L 178.895249 139.845383 
L 179.787437 139.648867 
L 180.679625 138.534406 
L 181.571814 137.634198 
L 183.35619 136.142505 
L 185.140566 135.517769 
L 186.924943 135.156117 
L 187.817131 134.093308 
L 188.709319 133.506235 
L 189.601508 133.273327 
L 190.493696 132.529188 
L 191.385884 131.968157 
L 192.278072 131.849535 
L 193.17026 131.542033 
L 196.739013 129.740932 
L 197.631201 129.448603 
L 198.52339 128.922908 
L 199.415578 129.05388 
L 200.307766 128.127883 
L 201.199954 127.486377 
L 204.768707 126.654667 
L 206.553084 126.006168 
L 207.445272 125.690692 
L 208.33746 125.172426 
L 209.229648 124.511964 
L 210.121836 124.414708 
L 211.014025 123.934158 
L 211.906213 123.274652 
L 212.798401 123.022715 
L 214.582778 122.102473 
L 215.474966 121.966185 
L 217.259342 120.93999 
L 218.15153 120.516073 
L 219.043719 119.731671 
L 220.828095 118.51224 
L 221.720283 118.209287 
L 223.50466 117.210078 
L 224.396848 117.0683 
L 227.073413 115.46909 
L 227.965601 114.923784 
L 228.857789 114.742021 
L 230.642165 113.40592 
L 231.534354 113.119958 
L 232.426542 112.583664 
L 233.31873 112.183418 
L 234.210918 112.12925 
L 235.103106 111.454162 
L 235.995295 111.028285 
L 237.779671 110.639236 
L 238.671859 109.944337 
L 239.564048 109.706242 
L 240.456236 109.330197 
L 241.348424 109.290311 
L 243.1328 108.798474 
L 244.024989 108.350959 
L 244.917177 108.130768 
L 246.701553 106.88757 
L 249.378118 105.731017 
L 250.270306 105.646321 
L 251.162494 104.931945 
L 252.054683 104.725293 
L 252.946871 104.25294 
L 254.731247 103.759018 
L 255.623435 103.266757 
L 256.515624 102.537427 
L 258.3 101.51146 
L 259.192188 101.116695 
L 260.084376 100.886199 
L 260.976565 100.402902 
L 261.868753 100.15079 
L 262.760941 99.665364 
L 263.653129 99.307037 
L 264.545317 98.790732 
L 265.437506 98.537939 
L 266.329694 98.163177 
L 268.11407 96.598401 
L 269.006259 96.514967 
L 269.898447 96.563345 
L 270.790635 95.924076 
L 271.682823 95.683983 
L 273.4672 94.94165 
L 274.359388 94.75855 
L 275.251576 94.748777 
L 276.143764 94.080025 
L 277.928141 93.690444 
L 278.820329 92.881299 
L 280.604705 92.124955 
L 281.496894 91.663935 
L 282.389082 91.339098 
L 284.173458 90.20531 
L 285.065646 89.935873 
L 285.957835 89.343941 
L 291.310964 87.989378 
L 292.203152 87.744942 
L 294.879717 86.595246 
L 296.664093 86.191027 
L 298.44847 85.161537 
L 300.232846 84.334038 
L 303.801599 83.132469 
L 305.585975 82.00687 
L 308.26254 81.652871 
L 310.939105 80.714652 
L 311.831293 80.321868 
L 313.615669 79.672465 
L 314.507857 79.308714 
L 316.292234 78.287382 
L 317.184422 78.135679 
L 320.753175 76.13866 
L 321.645363 75.879379 
L 322.537551 75.41372 
L 323.42974 75.366957 
L 324.321928 75.55154 
L 326.998492 74.825539 
L 328.782869 73.943964 
L 330.567245 73.024039 
L 331.459434 72.894376 
L 336.812563 70.834627 
L 338.596939 69.617183 
L 342.165692 68.297064 
L 343.05788 68.113884 
L 343.950069 67.653128 
L 345.734445 67.292281 
L 351.087574 65.205382 
L 353.764139 64.484804 
L 354.656327 63.954914 
L 357.332892 62.931659 
L 358.22508 62.8343 
L 359.117268 62.36536 
L 360.901645 61.829172 
L 361.793833 61.407575 
L 363.578209 61.376886 
L 364.470397 61.100151 
L 367.146962 59.999388 
L 369.823527 59.250416 
L 371.607903 58.467132 
L 372.500091 58.312488 
L 374.284468 57.783502 
L 375.176656 57.685542 
L 376.068844 57.367846 
L 376.961032 57.324961 
L 378.745409 56.959572 
L 379.637597 56.612123 
L 380.529785 56.030985 
L 382.314162 55.220707 
L 383.20635 55.371526 
L 384.098538 55.383168 
L 384.990726 55.202377 
L 386.775103 54.618918 
L 387.667291 54.104256 
L 389.451667 53.942793 
L 391.236044 53.458867 
L 393.02042 52.715389 
L 393.912608 52.714254 
L 394.804797 52.251002 
L 396.589173 51.525275 
L 397.481361 51.045526 
L 398.37355 50.784516 
L 399.265738 50.644034 
L 401.050114 49.973613 
L 401.942302 49.687695 
L 402.834491 49.201505 
L 403.726679 48.918067 
L 404.618867 48.953637 
L 406.403243 48.599455 
L 409.971996 47.734142 
L 410.864185 47.266755 
L 411.756373 47.393902 
L 413.540749 47.180793 
L 414.432937 46.784508 
L 417.109502 46.064344 
L 418.00169 45.553141 
L 418.893878 45.622399 
L 419.786067 45.440139 
L 420.678255 45.05951 
L 421.570443 44.985067 
L 424.247008 43.959309 
L 426.031384 43.553392 
L 426.923572 43.054874 
L 427.815761 42.968979 
L 431.384513 42.119229 
L 432.276702 42.37857 
L 434.061078 42.132755 
L 434.953266 41.918407 
L 435.845455 41.924223 
L 435.845455 41.924223 
" style="fill:none;stroke:#2ca02c;stroke-linecap:square;stroke-width:1.5;"/>
   </g>
   <g id="line2d_20">
    <path clip-path="url(#pd9d3ad1a38)" d="M 80.754545 179.924652 
L 82.538922 179.761177 
L 83.43111 180.241414 
L 85.215487 180.101949 
L 86.107675 180.327248 
L 86.999863 179.944321 
L 87.892051 180.186074 
L 88.784239 180.027956 
L 91.460804 180.406464 
L 92.352992 180.275162 
L 93.24518 179.309566 
L 95.921745 179.040275 
L 96.813933 179.378089 
L 98.59831 179.513117 
L 99.490498 178.197824 
L 100.382686 178.176424 
L 101.274874 178.739726 
L 104.843627 178.462051 
L 105.735815 177.73053 
L 106.628004 177.765817 
L 107.520192 177.504485 
L 108.41238 177.483015 
L 109.304568 177.302759 
L 110.196757 176.918145 
L 111.088945 176.67676 
L 111.981133 175.613858 
L 113.765509 175.218883 
L 114.657698 174.693658 
L 115.549886 174.33414 
L 117.334262 174.266786 
L 118.22645 172.982474 
L 119.118639 172.578537 
L 120.903015 172.214868 
L 121.795203 172.014888 
L 122.687392 172.05097 
L 123.57958 171.681891 
L 124.471768 170.467055 
L 125.363956 169.656297 
L 126.256144 169.215824 
L 127.148333 168.647975 
L 128.932709 168.504671 
L 129.824897 168.055766 
L 130.717085 167.026549 
L 132.501462 166.0051 
L 133.39365 165.669942 
L 134.285838 165.582776 
L 135.178026 164.956636 
L 136.070215 164.862499 
L 136.962403 163.794481 
L 137.854591 163.26846 
L 138.746779 163.149622 
L 139.638968 162.764219 
L 140.531156 162.785014 
L 142.315532 162.580925 
L 146.776473 159.680826 
L 147.668661 160.353149 
L 148.56085 160.006382 
L 149.453038 158.702522 
L 150.345226 158.464301 
L 152.129603 157.023109 
L 153.021791 156.559613 
L 154.806167 156.643693 
L 155.698355 155.704037 
L 156.590544 155.159505 
L 157.482732 154.48122 
L 158.37492 154.21081 
L 159.267108 154.253506 
L 160.159296 154.000493 
L 161.051485 154.156266 
L 161.943673 153.189513 
L 163.728049 152.901147 
L 164.620238 152.504453 
L 167.296802 151.747128 
L 168.18899 151.289884 
L 169.081179 150.565519 
L 170.865555 149.851085 
L 171.757743 148.985941 
L 172.649931 148.807246 
L 173.54212 148.416879 
L 175.326496 147.17813 
L 176.218684 146.14349 
L 177.110873 145.442699 
L 178.895249 144.566914 
L 179.787437 144.589274 
L 180.679625 144.2778 
L 181.571814 143.239589 
L 182.464002 142.76701 
L 183.35619 142.429297 
L 185.140566 142.290324 
L 186.924943 142.100204 
L 187.817131 141.598522 
L 189.601508 141.024644 
L 191.385884 140.439813 
L 192.278072 139.875991 
L 194.062449 139.192033 
L 194.954637 138.608331 
L 195.846825 138.383527 
L 196.739013 138.030835 
L 197.631201 137.443792 
L 198.52339 137.347572 
L 199.415578 136.824986 
L 200.307766 136.022788 
L 201.199954 135.678044 
L 202.092143 134.760678 
L 202.984331 134.612357 
L 204.768707 133.861322 
L 205.660895 133.593346 
L 207.445272 132.687181 
L 209.229648 132.130256 
L 210.121836 131.86863 
L 211.906213 130.866566 
L 213.690589 130.215731 
L 215.474966 129.911268 
L 217.259342 129.146272 
L 218.15153 128.800265 
L 219.935907 127.248969 
L 220.828095 126.699111 
L 222.612471 126.23208 
L 223.50466 125.593625 
L 224.396848 125.461168 
L 225.289036 124.77566 
L 226.181224 124.441508 
L 227.073413 123.682623 
L 227.965601 123.276619 
L 228.857789 123.219102 
L 229.749977 123.040963 
L 230.642165 122.591415 
L 231.534354 121.849032 
L 232.426542 121.323319 
L 233.31873 121.327783 
L 234.210918 120.719639 
L 235.103106 120.550248 
L 236.887483 120.012222 
L 237.779671 119.951246 
L 238.671859 119.466315 
L 239.564048 119.389882 
L 241.348424 118.865314 
L 242.240612 118.713375 
L 243.1328 118.430424 
L 244.024989 118.306239 
L 244.917177 117.40771 
L 245.809365 117.018428 
L 249.378118 116.213837 
L 251.162494 115.387838 
L 254.731247 114.252331 
L 255.623435 113.884574 
L 256.515624 113.102908 
L 260.976565 111.094399 
L 261.868753 110.524537 
L 262.760941 110.225752 
L 263.653129 110.075264 
L 264.545317 109.557348 
L 265.437506 109.288438 
L 267.221882 108.617197 
L 268.11407 108.368295 
L 269.898447 107.31104 
L 270.790635 106.965309 
L 271.682823 106.265391 
L 272.575011 105.723212 
L 273.4672 105.514283 
L 274.359388 105.511968 
L 275.251576 105.315154 
L 276.143764 104.584676 
L 279.712517 103.270488 
L 280.604705 103.329559 
L 281.496894 103.065606 
L 283.28127 102.28126 
L 284.173458 101.719518 
L 285.065646 101.479597 
L 286.850023 100.651353 
L 288.634399 100.487253 
L 289.526587 99.874823 
L 291.310964 99.724183 
L 292.203152 99.540393 
L 293.09534 99.026056 
L 295.771905 98.158408 
L 296.664093 97.485953 
L 300.232846 96.205582 
L 302.017222 95.373134 
L 302.909411 94.813682 
L 303.801599 94.546139 
L 304.693787 93.965492 
L 306.478164 93.583475 
L 310.046916 92.429955 
L 311.831293 92.361316 
L 312.723481 92.260048 
L 313.615669 92.039875 
L 316.292234 90.869194 
L 318.968799 90.16487 
L 319.860987 89.572218 
L 320.753175 89.263824 
L 321.645363 88.763464 
L 322.537551 88.412467 
L 323.42974 88.351441 
L 325.214116 87.45922 
L 326.106304 87.215831 
L 326.998492 87.131691 
L 328.782869 86.58715 
L 332.351622 85.653845 
L 336.812563 83.909385 
L 337.704751 83.731008 
L 338.596939 83.338943 
L 339.489127 83.223423 
L 340.381316 82.883841 
L 342.165692 82.471871 
L 343.950069 81.59376 
L 346.626633 80.959399 
L 348.41101 80.401059 
L 349.303198 80.368087 
L 350.195386 80.175305 
L 351.087574 79.650051 
L 353.764139 78.546174 
L 354.656327 78.345133 
L 355.548515 78.331574 
L 356.440704 78.059349 
L 357.332892 77.934763 
L 358.22508 77.538882 
L 359.117268 77.339286 
L 360.009456 77.276483 
L 360.901645 76.930483 
L 363.578209 76.523272 
L 364.470397 76.106183 
L 366.254774 75.57132 
L 368.03915 75.422433 
L 368.931339 74.949225 
L 369.823527 74.701474 
L 372.500091 73.433121 
L 373.39228 73.285809 
L 379.637597 71.482236 
L 381.421974 70.551198 
L 383.20635 69.860061 
L 384.098538 69.681668 
L 385.882915 68.946437 
L 386.775103 68.829901 
L 387.667291 68.475908 
L 390.343856 67.78031 
L 391.236044 67.260292 
L 392.128232 67.268459 
L 393.912608 66.850995 
L 394.804797 66.757325 
L 397.481361 66.080198 
L 398.37355 66.037366 
L 399.265738 65.6704 
L 400.157926 65.472538 
L 401.942302 65.236335 
L 403.726679 64.790485 
L 404.618867 64.313606 
L 405.511055 64.409514 
L 406.403243 64.066825 
L 408.18762 63.607369 
L 409.971996 62.962836 
L 412.648561 62.265116 
L 416.217314 61.281021 
L 419.786067 60.115844 
L 420.678255 59.932714 
L 421.570443 59.6079 
L 422.462631 59.523971 
L 424.247008 58.693311 
L 425.139196 58.329591 
L 426.923572 58.318386 
L 427.815761 58.165809 
L 429.600137 57.479754 
L 430.492325 57.411823 
L 431.384513 56.875272 
L 432.276702 56.787427 
L 434.953266 56.190325 
L 435.845455 56.116342 
L 435.845455 56.116342 
" style="fill:none;stroke:#d62728;stroke-linecap:square;stroke-width:1.5;"/>
   </g>
   <g id="line2d_21"/>
   <g id="line2d_22"/>
   <g id="line2d_23"/>
   <g id="line2d_24"/>
   <g id="patch_3">
    <path d="M 63 192.24 
L 63 25.92 
" style="fill:none;stroke:#000000;stroke-linecap:square;stroke-linejoin:miter;stroke-width:0.8;"/>
   </g>
   <g id="patch_4">
    <path d="M 63 192.24 
L 453.6 192.24 
" style="fill:none;stroke:#000000;stroke-linecap:square;stroke-linejoin:miter;stroke-width:0.8;"/>
   </g>
   <g id="text_19">
    <!-- modeltype=full, labormarket=biased -->
    <g transform="translate(146.840625 19.92)scale(0.12 -0.12)">
     <defs>
      <path d="M 45.40625 46.390625 
L 45.40625 75.984375 
L 54.390625 75.984375 
L 54.390625 0 
L 45.40625 0 
L 45.40625 8.203125 
Q 42.578125 3.328125 38.25 0.953125 
Q 33.9375 -1.421875 27.875 -1.421875 
Q 17.96875 -1.421875 11.734375 6.484375 
Q 5.515625 14.40625 5.515625 27.296875 
Q 5.515625 40.1875 11.734375 48.09375 
Q 17.96875 56 27.875 56 
Q 33.9375 56 38.25 53.625 
Q 42.578125 51.265625 45.40625 46.390625 
z
M 14.796875 27.296875 
Q 14.796875 17.390625 18.875 11.75 
Q 22.953125 6.109375 30.078125 6.109375 
Q 37.203125 6.109375 41.296875 11.75 
Q 45.40625 17.390625 45.40625 27.296875 
Q 45.40625 37.203125 41.296875 42.84375 
Q 37.203125 48.484375 30.078125 48.484375 
Q 22.953125 48.484375 18.875 42.84375 
Q 14.796875 37.203125 14.796875 27.296875 
z
" id="DejaVuSans-100"/>
      <path d="M 9.421875 75.984375 
L 18.40625 75.984375 
L 18.40625 0 
L 9.421875 0 
z
" id="DejaVuSans-108"/>
      <path d="M 32.171875 -5.078125 
Q 28.375 -14.84375 24.75 -17.8125 
Q 21.140625 -20.796875 15.09375 -20.796875 
L 7.90625 -20.796875 
L 7.90625 -13.28125 
L 13.1875 -13.28125 
Q 16.890625 -13.28125 18.9375 -11.515625 
Q 21 -9.765625 23.484375 -3.21875 
L 25.09375 0.875 
L 2.984375 54.6875 
L 12.5 54.6875 
L 29.59375 11.921875 
L 46.6875 54.6875 
L 56.203125 54.6875 
z
" id="DejaVuSans-121"/>
      <path d="M 18.109375 8.203125 
L 18.109375 -20.796875 
L 9.078125 -20.796875 
L 9.078125 54.6875 
L 18.109375 54.6875 
L 18.109375 46.390625 
Q 20.953125 51.265625 25.265625 53.625 
Q 29.59375 56 35.59375 56 
Q 45.5625 56 51.78125 48.09375 
Q 58.015625 40.1875 58.015625 27.296875 
Q 58.015625 14.40625 51.78125 6.484375 
Q 45.5625 -1.421875 35.59375 -1.421875 
Q 29.59375 -1.421875 25.265625 0.953125 
Q 20.953125 3.328125 18.109375 8.203125 
z
M 48.6875 27.296875 
Q 48.6875 37.203125 44.609375 42.84375 
Q 40.53125 48.484375 33.40625 48.484375 
Q 26.265625 48.484375 22.1875 42.84375 
Q 18.109375 37.203125 18.109375 27.296875 
Q 18.109375 17.390625 22.1875 11.75 
Q 26.265625 6.109375 33.40625 6.109375 
Q 40.53125 6.109375 44.609375 11.75 
Q 48.6875 17.390625 48.6875 27.296875 
z
" id="DejaVuSans-112"/>
      <path d="M 10.59375 45.40625 
L 73.1875 45.40625 
L 73.1875 37.203125 
L 10.59375 37.203125 
z
M 10.59375 25.484375 
L 73.1875 25.484375 
L 73.1875 17.1875 
L 10.59375 17.1875 
z
" id="DejaVuSans-61"/>
      <path d="M 8.5 21.578125 
L 8.5 54.6875 
L 17.484375 54.6875 
L 17.484375 21.921875 
Q 17.484375 14.15625 20.5 10.265625 
Q 23.53125 6.390625 29.59375 6.390625 
Q 36.859375 6.390625 41.078125 11.03125 
Q 45.3125 15.671875 45.3125 23.6875 
L 45.3125 54.6875 
L 54.296875 54.6875 
L 54.296875 0 
L 45.3125 0 
L 45.3125 8.40625 
Q 42.046875 3.421875 37.71875 1 
Q 33.40625 -1.421875 27.6875 -1.421875 
Q 18.265625 -1.421875 13.375 4.4375 
Q 8.5 10.296875 8.5 21.578125 
z
M 31.109375 56 
z
" id="DejaVuSans-117"/>
      <path d="M 11.71875 12.40625 
L 22.015625 12.40625 
L 22.015625 4 
L 14.015625 -11.625 
L 7.71875 -11.625 
L 11.71875 4 
z
" id="DejaVuSans-44"/>
      <path id="DejaVuSans-32"/>
      <path d="M 34.28125 27.484375 
Q 23.390625 27.484375 19.1875 25 
Q 14.984375 22.515625 14.984375 16.5 
Q 14.984375 11.71875 18.140625 8.90625 
Q 21.296875 6.109375 26.703125 6.109375 
Q 34.1875 6.109375 38.703125 11.40625 
Q 43.21875 16.703125 43.21875 25.484375 
L 43.21875 27.484375 
z
M 52.203125 31.203125 
L 52.203125 0 
L 43.21875 0 
L 43.21875 8.296875 
Q 40.140625 3.328125 35.546875 0.953125 
Q 30.953125 -1.421875 24.3125 -1.421875 
Q 15.921875 -1.421875 10.953125 3.296875 
Q 6 8.015625 6 15.921875 
Q 6 25.140625 12.171875 29.828125 
Q 18.359375 34.515625 30.609375 34.515625 
L 43.21875 34.515625 
L 43.21875 35.40625 
Q 43.21875 41.609375 39.140625 45 
Q 35.0625 48.390625 27.6875 48.390625 
Q 23 48.390625 18.546875 47.265625 
Q 14.109375 46.140625 10.015625 43.890625 
L 10.015625 52.203125 
Q 14.9375 54.109375 19.578125 55.046875 
Q 24.21875 56 28.609375 56 
Q 40.484375 56 46.34375 49.84375 
Q 52.203125 43.703125 52.203125 31.203125 
z
" id="DejaVuSans-97"/>
      <path d="M 48.6875 27.296875 
Q 48.6875 37.203125 44.609375 42.84375 
Q 40.53125 48.484375 33.40625 48.484375 
Q 26.265625 48.484375 22.1875 42.84375 
Q 18.109375 37.203125 18.109375 27.296875 
Q 18.109375 17.390625 22.1875 11.75 
Q 26.265625 6.109375 33.40625 6.109375 
Q 40.53125 6.109375 44.609375 11.75 
Q 48.6875 17.390625 48.6875 27.296875 
z
M 18.109375 46.390625 
Q 20.953125 51.265625 25.265625 53.625 
Q 29.59375 56 35.59375 56 
Q 45.5625 56 51.78125 48.09375 
Q 58.015625 40.1875 58.015625 27.296875 
Q 58.015625 14.40625 51.78125 6.484375 
Q 45.5625 -1.421875 35.59375 -1.421875 
Q 29.59375 -1.421875 25.265625 0.953125 
Q 20.953125 3.328125 18.109375 8.203125 
L 18.109375 0 
L 9.078125 0 
L 9.078125 75.984375 
L 18.109375 75.984375 
z
" id="DejaVuSans-98"/>
      <path d="M 41.109375 46.296875 
Q 39.59375 47.171875 37.8125 47.578125 
Q 36.03125 48 33.890625 48 
Q 26.265625 48 22.1875 43.046875 
Q 18.109375 38.09375 18.109375 28.8125 
L 18.109375 0 
L 9.078125 0 
L 9.078125 54.6875 
L 18.109375 54.6875 
L 18.109375 46.1875 
Q 20.953125 51.171875 25.484375 53.578125 
Q 30.03125 56 36.53125 56 
Q 37.453125 56 38.578125 55.875 
Q 39.703125 55.765625 41.0625 55.515625 
z
" id="DejaVuSans-114"/>
      <path d="M 9.078125 75.984375 
L 18.109375 75.984375 
L 18.109375 31.109375 
L 44.921875 54.6875 
L 56.390625 54.6875 
L 27.390625 29.109375 
L 57.625 0 
L 45.90625 0 
L 18.109375 26.703125 
L 18.109375 0 
L 9.078125 0 
z
" id="DejaVuSans-107"/>
      <path d="M 44.28125 53.078125 
L 44.28125 44.578125 
Q 40.484375 46.53125 36.375 47.5 
Q 32.28125 48.484375 27.875 48.484375 
Q 21.1875 48.484375 17.84375 46.4375 
Q 14.5 44.390625 14.5 40.28125 
Q 14.5 37.15625 16.890625 35.375 
Q 19.28125 33.59375 26.515625 31.984375 
L 29.59375 31.296875 
Q 39.15625 29.25 43.1875 25.515625 
Q 47.21875 21.78125 47.21875 15.09375 
Q 47.21875 7.46875 41.1875 3.015625 
Q 35.15625 -1.421875 24.609375 -1.421875 
Q 20.21875 -1.421875 15.453125 -0.5625 
Q 10.6875 0.296875 5.421875 2 
L 5.421875 11.28125 
Q 10.40625 8.6875 15.234375 7.390625 
Q 20.0625 6.109375 24.8125 6.109375 
Q 31.15625 6.109375 34.5625 8.28125 
Q 37.984375 10.453125 37.984375 14.40625 
Q 37.984375 18.0625 35.515625 20.015625 
Q 33.0625 21.96875 24.703125 23.78125 
L 21.578125 24.515625 
Q 13.234375 26.265625 9.515625 29.90625 
Q 5.8125 33.546875 5.8125 39.890625 
Q 5.8125 47.609375 11.28125 51.796875 
Q 16.75 56 26.8125 56 
Q 31.78125 56 36.171875 55.265625 
Q 40.578125 54.546875 44.28125 53.078125 
z
" id="DejaVuSans-115"/>
     </defs>
     <use xlink:href="#DejaVuSans-109"/>
     <use x="97.412109" xlink:href="#DejaVuSans-111"/>
     <use x="158.59375" xlink:href="#DejaVuSans-100"/>
     <use x="222.070312" xlink:href="#DejaVuSans-101"/>
     <use x="283.59375" xlink:href="#DejaVuSans-108"/>
     <use x="311.376953" xlink:href="#DejaVuSans-116"/>
     <use x="350.585938" xlink:href="#DejaVuSans-121"/>
     <use x="409.765625" xlink:href="#DejaVuSans-112"/>
     <use x="473.242188" xlink:href="#DejaVuSans-101"/>
     <use x="534.765625" xlink:href="#DejaVuSans-61"/>
     <use x="618.554688" xlink:href="#DejaVuSans-102"/>
     <use x="653.759766" xlink:href="#DejaVuSans-117"/>
     <use x="717.138672" xlink:href="#DejaVuSans-108"/>
     <use x="744.921875" xlink:href="#DejaVuSans-108"/>
     <use x="772.705078" xlink:href="#DejaVuSans-44"/>
     <use x="804.492188" xlink:href="#DejaVuSans-32"/>
     <use x="836.279297" xlink:href="#DejaVuSans-108"/>
     <use x="864.0625" xlink:href="#DejaVuSans-97"/>
     <use x="925.341797" xlink:href="#DejaVuSans-98"/>
     <use x="988.818359" xlink:href="#DejaVuSans-111"/>
     <use x="1050" xlink:href="#DejaVuSans-114"/>
     <use x="1089.363281" xlink:href="#DejaVuSans-109"/>
     <use x="1186.775391" xlink:href="#DejaVuSans-97"/>
     <use x="1248.054688" xlink:href="#DejaVuSans-114"/>
     <use x="1289.167969" xlink:href="#DejaVuSans-107"/>
     <use x="1343.453125" xlink:href="#DejaVuSans-101"/>
     <use x="1404.976562" xlink:href="#DejaVuSans-116"/>
     <use x="1444.185547" xlink:href="#DejaVuSans-61"/>
     <use x="1527.974609" xlink:href="#DejaVuSans-98"/>
     <use x="1591.451172" xlink:href="#DejaVuSans-105"/>
     <use x="1619.234375" xlink:href="#DejaVuSans-97"/>
     <use x="1680.513672" xlink:href="#DejaVuSans-115"/>
     <use x="1732.613281" xlink:href="#DejaVuSans-101"/>
     <use x="1794.136719" xlink:href="#DejaVuSans-100"/>
    </g>
   </g>
   <g id="legend_1">
    <g id="patch_5">
     <path d="M 70 107.58875 
L 235.407813 107.58875 
Q 237.407813 107.58875 237.407813 105.58875 
L 237.407813 32.92 
Q 237.407813 30.92 235.407813 30.92 
L 70 30.92 
Q 68 30.92 68 32.92 
L 68 105.58875 
Q 68 107.58875 70 107.58875 
z
" style="fill:#ffffff;opacity:0.8;stroke:#cccccc;stroke-linejoin:miter;"/>
    </g>
    <g id="text_20">
     <!-- scenario -->
     <g transform="translate(131.536719 42.518438)scale(0.1 -0.1)">
      <defs>
       <path d="M 54.890625 33.015625 
L 54.890625 0 
L 45.90625 0 
L 45.90625 32.71875 
Q 45.90625 40.484375 42.875 44.328125 
Q 39.84375 48.1875 33.796875 48.1875 
Q 26.515625 48.1875 22.3125 43.546875 
Q 18.109375 38.921875 18.109375 30.90625 
L 18.109375 0 
L 9.078125 0 
L 9.078125 54.6875 
L 18.109375 54.6875 
L 18.109375 46.1875 
Q 21.34375 51.125 25.703125 53.5625 
Q 30.078125 56 35.796875 56 
Q 45.21875 56 50.046875 50.171875 
Q 54.890625 44.34375 54.890625 33.015625 
z
" id="DejaVuSans-110"/>
      </defs>
      <use xlink:href="#DejaVuSans-115"/>
      <use x="52.099609" xlink:href="#DejaVuSans-99"/>
      <use x="107.080078" xlink:href="#DejaVuSans-101"/>
      <use x="168.603516" xlink:href="#DejaVuSans-110"/>
      <use x="231.982422" xlink:href="#DejaVuSans-97"/>
      <use x="293.261719" xlink:href="#DejaVuSans-114"/>
      <use x="334.375" xlink:href="#DejaVuSans-105"/>
      <use x="362.158203" xlink:href="#DejaVuSans-111"/>
     </g>
    </g>
    <g id="line2d_25">
     <path d="M 72 53.696562 
L 92 53.696562 
" style="fill:none;stroke:#1f77b4;stroke-linecap:square;stroke-width:1.5;"/>
    </g>
    <g id="line2d_26"/>
    <g id="text_21">
     <!-- onlylow -->
     <g transform="translate(100 57.196562)scale(0.1 -0.1)">
      <defs>
       <path d="M 4.203125 54.6875 
L 13.1875 54.6875 
L 24.421875 12.015625 
L 35.59375 54.6875 
L 46.1875 54.6875 
L 57.421875 12.015625 
L 68.609375 54.6875 
L 77.59375 54.6875 
L 63.28125 0 
L 52.6875 0 
L 40.921875 44.828125 
L 29.109375 0 
L 18.5 0 
z
" id="DejaVuSans-119"/>
      </defs>
      <use xlink:href="#DejaVuSans-111"/>
      <use x="61.181641" xlink:href="#DejaVuSans-110"/>
      <use x="124.560547" xlink:href="#DejaVuSans-108"/>
      <use x="152.34375" xlink:href="#DejaVuSans-121"/>
      <use x="211.523438" xlink:href="#DejaVuSans-108"/>
      <use x="239.306641" xlink:href="#DejaVuSans-111"/>
      <use x="300.488281" xlink:href="#DejaVuSans-119"/>
     </g>
    </g>
    <g id="line2d_27">
     <path d="M 72 68.374687 
L 92 68.374687 
" style="fill:none;stroke:#ff7f0e;stroke-linecap:square;stroke-width:1.5;"/>
    </g>
    <g id="line2d_28"/>
    <g id="text_22">
     <!-- onlyhigh -->
     <g transform="translate(100 71.874687)scale(0.1 -0.1)">
      <defs>
       <path d="M 54.890625 33.015625 
L 54.890625 0 
L 45.90625 0 
L 45.90625 32.71875 
Q 45.90625 40.484375 42.875 44.328125 
Q 39.84375 48.1875 33.796875 48.1875 
Q 26.515625 48.1875 22.3125 43.546875 
Q 18.109375 38.921875 18.109375 30.90625 
L 18.109375 0 
L 9.078125 0 
L 9.078125 75.984375 
L 18.109375 75.984375 
L 18.109375 46.1875 
Q 21.34375 51.125 25.703125 53.5625 
Q 30.078125 56 35.796875 56 
Q 45.21875 56 50.046875 50.171875 
Q 54.890625 44.34375 54.890625 33.015625 
z
" id="DejaVuSans-104"/>
       <path d="M 45.40625 27.984375 
Q 45.40625 37.75 41.375 43.109375 
Q 37.359375 48.484375 30.078125 48.484375 
Q 22.859375 48.484375 18.828125 43.109375 
Q 14.796875 37.75 14.796875 27.984375 
Q 14.796875 18.265625 18.828125 12.890625 
Q 22.859375 7.515625 30.078125 7.515625 
Q 37.359375 7.515625 41.375 12.890625 
Q 45.40625 18.265625 45.40625 27.984375 
z
M 54.390625 6.78125 
Q 54.390625 -7.171875 48.1875 -13.984375 
Q 42 -20.796875 29.203125 -20.796875 
Q 24.46875 -20.796875 20.265625 -20.09375 
Q 16.0625 -19.390625 12.109375 -17.921875 
L 12.109375 -9.1875 
Q 16.0625 -11.328125 19.921875 -12.34375 
Q 23.78125 -13.375 27.78125 -13.375 
Q 36.625 -13.375 41.015625 -8.765625 
Q 45.40625 -4.15625 45.40625 5.171875 
L 45.40625 9.625 
Q 42.625 4.78125 38.28125 2.390625 
Q 33.9375 0 27.875 0 
Q 17.828125 0 11.671875 7.65625 
Q 5.515625 15.328125 5.515625 27.984375 
Q 5.515625 40.671875 11.671875 48.328125 
Q 17.828125 56 27.875 56 
Q 33.9375 56 38.28125 53.609375 
Q 42.625 51.21875 45.40625 46.390625 
L 45.40625 54.6875 
L 54.390625 54.6875 
z
" id="DejaVuSans-103"/>
      </defs>
      <use xlink:href="#DejaVuSans-111"/>
      <use x="61.181641" xlink:href="#DejaVuSans-110"/>
      <use x="124.560547" xlink:href="#DejaVuSans-108"/>
      <use x="152.34375" xlink:href="#DejaVuSans-121"/>
      <use x="211.523438" xlink:href="#DejaVuSans-104"/>
      <use x="274.902344" xlink:href="#DejaVuSans-105"/>
      <use x="302.685547" xlink:href="#DejaVuSans-103"/>
      <use x="366.162109" xlink:href="#DejaVuSans-104"/>
     </g>
    </g>
    <g id="line2d_29">
     <path d="M 72 83.052813 
L 92 83.052813 
" style="fill:none;stroke:#2ca02c;stroke-linecap:square;stroke-width:1.5;"/>
    </g>
    <g id="line2d_30"/>
    <g id="text_23">
     <!-- balanced -->
     <g transform="translate(100 86.552813)scale(0.1 -0.1)">
      <use xlink:href="#DejaVuSans-98"/>
      <use x="63.476562" xlink:href="#DejaVuSans-97"/>
      <use x="124.755859" xlink:href="#DejaVuSans-108"/>
      <use x="152.539062" xlink:href="#DejaVuSans-97"/>
      <use x="213.818359" xlink:href="#DejaVuSans-110"/>
      <use x="277.197266" xlink:href="#DejaVuSans-99"/>
      <use x="332.177734" xlink:href="#DejaVuSans-101"/>
      <use x="393.701172" xlink:href="#DejaVuSans-100"/>
     </g>
    </g>
    <g id="line2d_31">
     <path d="M 72 97.730938 
L 92 97.730938 
" style="fill:none;stroke:#d62728;stroke-linecap:square;stroke-width:1.5;"/>
    </g>
    <g id="line2d_32"/>
    <g id="text_24">
     <!-- balanced_errors_penalized -->
     <g transform="translate(100 101.230938)scale(0.1 -0.1)">
      <defs>
       <path d="M 50.984375 -16.609375 
L 50.984375 -23.578125 
L -0.984375 -23.578125 
L -0.984375 -16.609375 
z
" id="DejaVuSans-95"/>
       <path d="M 5.515625 54.6875 
L 48.1875 54.6875 
L 48.1875 46.484375 
L 14.40625 7.171875 
L 48.1875 7.171875 
L 48.1875 0 
L 4.296875 0 
L 4.296875 8.203125 
L 38.09375 47.515625 
L 5.515625 47.515625 
z
" id="DejaVuSans-122"/>
      </defs>
      <use xlink:href="#DejaVuSans-98"/>
      <use x="63.476562" xlink:href="#DejaVuSans-97"/>
      <use x="124.755859" xlink:href="#DejaVuSans-108"/>
      <use x="152.539062" xlink:href="#DejaVuSans-97"/>
      <use x="213.818359" xlink:href="#DejaVuSans-110"/>
      <use x="277.197266" xlink:href="#DejaVuSans-99"/>
      <use x="332.177734" xlink:href="#DejaVuSans-101"/>
      <use x="393.701172" xlink:href="#DejaVuSans-100"/>
      <use x="457.177734" xlink:href="#DejaVuSans-95"/>
      <use x="507.177734" xlink:href="#DejaVuSans-101"/>
      <use x="568.701172" xlink:href="#DejaVuSans-114"/>
      <use x="608.064453" xlink:href="#DejaVuSans-114"/>
      <use x="646.927734" xlink:href="#DejaVuSans-111"/>
      <use x="708.109375" xlink:href="#DejaVuSans-114"/>
      <use x="749.222656" xlink:href="#DejaVuSans-115"/>
      <use x="801.322266" xlink:href="#DejaVuSans-95"/>
      <use x="851.322266" xlink:href="#DejaVuSans-112"/>
      <use x="914.798828" xlink:href="#DejaVuSans-101"/>
      <use x="976.322266" xlink:href="#DejaVuSans-110"/>
      <use x="1039.701172" xlink:href="#DejaVuSans-97"/>
      <use x="1100.980469" xlink:href="#DejaVuSans-108"/>
      <use x="1128.763672" xlink:href="#DejaVuSans-105"/>
      <use x="1156.546875" xlink:href="#DejaVuSans-122"/>
      <use x="1209.037109" xlink:href="#DejaVuSans-101"/>
      <use x="1270.560547" xlink:href="#DejaVuSans-100"/>
     </g>
    </g>
   </g>
  </g>
 </g>
 <defs>
  <clipPath id="pd9d3ad1a38">
   <rect height="166.32" width="390.6" x="63" y="25.92"/>
  </clipPath>
 </defs>
</svg>
