<?xml version="1.0" encoding="utf-8" standalone="no"?>
<!DOCTYPE svg PUBLIC "-//W3C//DTD SVG 1.1//EN"
  "http://www.w3.org/Graphics/SVG/1.1/DTD/svg11.dtd">
<!-- Created with matplotlib (https://matplotlib.org/) -->
<svg height="216pt" version="1.1" viewBox="0 0 504 216" width="504pt" xmlns="http://www.w3.org/2000/svg" xmlns:xlink="http://www.w3.org/1999/xlink">
 <metadata>
  <rdf:RDF xmlns:cc="http://creativecommons.org/ns#" xmlns:dc="http://purl.org/dc/elements/1.1/" xmlns:rdf="http://www.w3.org/1999/02/22-rdf-syntax-ns#">
   <cc:Work>
    <dc:type rdf:resource="http://purl.org/dc/dcmitype/StillImage"/>
    <dc:date>2022-01-19T13:51:32.769253</dc:date>
    <dc:format>image/svg+xml</dc:format>
    <dc:creator>
     <cc:Agent>
      <dc:title>Matplotlib v3.3.4, https://matplotlib.org/</dc:title>
     </cc:Agent>
    </dc:creator>
   </cc:Work>
  </rdf:RDF>
 </metadata>
 <defs>
  <style type="text/css">*{stroke-linecap:butt;stroke-linejoin:round;}</style>
 </defs>
 <g id="figure_1">
  <g id="patch_1">
   <path d="M 0 216 
L 504 216 
L 504 0 
L 0 0 
z
" style="fill:#ffffff;"/>
  </g>
  <g id="axes_1">
   <g id="patch_2">
    <path d="M 63 192.24 
L 453.6 192.24 
L 453.6 25.92 
L 63 25.92 
z
" style="fill:#ffffff;"/>
   </g>
   <g id="matplotlib.axis_1">
    <g id="xtick_1">
     <g id="line2d_1">
      <defs>
       <path d="M 0 0 
L 0 3.5 
" id="m67358718cf" style="stroke:#000000;stroke-width:0.8;"/>
      </defs>
      <g>
       <use style="stroke:#000000;stroke-width:0.8;" x="79.862357" xlink:href="#m67358718cf" y="192.24"/>
      </g>
     </g>
     <g id="text_1">
      <!-- 400 -->
      <g transform="translate(70.318607 206.838437)scale(0.1 -0.1)">
       <defs>
        <path d="M 37.796875 64.3125 
L 12.890625 25.390625 
L 37.796875 25.390625 
z
M 35.203125 72.90625 
L 47.609375 72.90625 
L 47.609375 25.390625 
L 58.015625 25.390625 
L 58.015625 17.1875 
L 47.609375 17.1875 
L 47.609375 0 
L 37.796875 0 
L 37.796875 17.1875 
L 4.890625 17.1875 
L 4.890625 26.703125 
z
" id="DejaVuSans-52"/>
        <path d="M 31.78125 66.40625 
Q 24.171875 66.40625 20.328125 58.90625 
Q 16.5 51.421875 16.5 36.375 
Q 16.5 21.390625 20.328125 13.890625 
Q 24.171875 6.390625 31.78125 6.390625 
Q 39.453125 6.390625 43.28125 13.890625 
Q 47.125 21.390625 47.125 36.375 
Q 47.125 51.421875 43.28125 58.90625 
Q 39.453125 66.40625 31.78125 66.40625 
z
M 31.78125 74.21875 
Q 44.046875 74.21875 50.515625 64.515625 
Q 56.984375 54.828125 56.984375 36.375 
Q 56.984375 17.96875 50.515625 8.265625 
Q 44.046875 -1.421875 31.78125 -1.421875 
Q 19.53125 -1.421875 13.0625 8.265625 
Q 6.59375 17.96875 6.59375 36.375 
Q 6.59375 54.828125 13.0625 64.515625 
Q 19.53125 74.21875 31.78125 74.21875 
z
" id="DejaVuSans-48"/>
       </defs>
       <use xlink:href="#DejaVuSans-52"/>
       <use x="63.623047" xlink:href="#DejaVuSans-48"/>
       <use x="127.246094" xlink:href="#DejaVuSans-48"/>
      </g>
     </g>
    </g>
    <g id="xtick_2">
     <g id="line2d_2">
      <g>
       <use style="stroke:#000000;stroke-width:0.8;" x="124.471768" xlink:href="#m67358718cf" y="192.24"/>
      </g>
     </g>
     <g id="text_2">
      <!-- 450 -->
      <g transform="translate(114.928018 206.838437)scale(0.1 -0.1)">
       <defs>
        <path d="M 10.796875 72.90625 
L 49.515625 72.90625 
L 49.515625 64.59375 
L 19.828125 64.59375 
L 19.828125 46.734375 
Q 21.96875 47.46875 24.109375 47.828125 
Q 26.265625 48.1875 28.421875 48.1875 
Q 40.625 48.1875 47.75 41.5 
Q 54.890625 34.8125 54.890625 23.390625 
Q 54.890625 11.625 47.5625 5.09375 
Q 40.234375 -1.421875 26.90625 -1.421875 
Q 22.3125 -1.421875 17.546875 -0.640625 
Q 12.796875 0.140625 7.71875 1.703125 
L 7.71875 11.625 
Q 12.109375 9.234375 16.796875 8.0625 
Q 21.484375 6.890625 26.703125 6.890625 
Q 35.15625 6.890625 40.078125 11.328125 
Q 45.015625 15.765625 45.015625 23.390625 
Q 45.015625 31 40.078125 35.4375 
Q 35.15625 39.890625 26.703125 39.890625 
Q 22.75 39.890625 18.8125 39.015625 
Q 14.890625 38.140625 10.796875 36.28125 
z
" id="DejaVuSans-53"/>
       </defs>
       <use xlink:href="#DejaVuSans-52"/>
       <use x="63.623047" xlink:href="#DejaVuSans-53"/>
       <use x="127.246094" xlink:href="#DejaVuSans-48"/>
      </g>
     </g>
    </g>
    <g id="xtick_3">
     <g id="line2d_3">
      <g>
       <use style="stroke:#000000;stroke-width:0.8;" x="169.081179" xlink:href="#m67358718cf" y="192.24"/>
      </g>
     </g>
     <g id="text_3">
      <!-- 500 -->
      <g transform="translate(159.537429 206.838437)scale(0.1 -0.1)">
       <use xlink:href="#DejaVuSans-53"/>
       <use x="63.623047" xlink:href="#DejaVuSans-48"/>
       <use x="127.246094" xlink:href="#DejaVuSans-48"/>
      </g>
     </g>
    </g>
    <g id="xtick_4">
     <g id="line2d_4">
      <g>
       <use style="stroke:#000000;stroke-width:0.8;" x="213.690589" xlink:href="#m67358718cf" y="192.24"/>
      </g>
     </g>
     <g id="text_4">
      <!-- 550 -->
      <g transform="translate(204.146839 206.838437)scale(0.1 -0.1)">
       <use xlink:href="#DejaVuSans-53"/>
       <use x="63.623047" xlink:href="#DejaVuSans-53"/>
       <use x="127.246094" xlink:href="#DejaVuSans-48"/>
      </g>
     </g>
    </g>
    <g id="xtick_5">
     <g id="line2d_5">
      <g>
       <use style="stroke:#000000;stroke-width:0.8;" x="258.3" xlink:href="#m67358718cf" y="192.24"/>
      </g>
     </g>
     <g id="text_5">
      <!-- 600 -->
      <g transform="translate(248.75625 206.838437)scale(0.1 -0.1)">
       <defs>
        <path d="M 33.015625 40.375 
Q 26.375 40.375 22.484375 35.828125 
Q 18.609375 31.296875 18.609375 23.390625 
Q 18.609375 15.53125 22.484375 10.953125 
Q 26.375 6.390625 33.015625 6.390625 
Q 39.65625 6.390625 43.53125 10.953125 
Q 47.40625 15.53125 47.40625 23.390625 
Q 47.40625 31.296875 43.53125 35.828125 
Q 39.65625 40.375 33.015625 40.375 
z
M 52.59375 71.296875 
L 52.59375 62.3125 
Q 48.875 64.0625 45.09375 64.984375 
Q 41.3125 65.921875 37.59375 65.921875 
Q 27.828125 65.921875 22.671875 59.328125 
Q 17.53125 52.734375 16.796875 39.40625 
Q 19.671875 43.65625 24.015625 45.921875 
Q 28.375 48.1875 33.59375 48.1875 
Q 44.578125 48.1875 50.953125 41.515625 
Q 57.328125 34.859375 57.328125 23.390625 
Q 57.328125 12.15625 50.6875 5.359375 
Q 44.046875 -1.421875 33.015625 -1.421875 
Q 20.359375 -1.421875 13.671875 8.265625 
Q 6.984375 17.96875 6.984375 36.375 
Q 6.984375 53.65625 15.1875 63.9375 
Q 23.390625 74.21875 37.203125 74.21875 
Q 40.921875 74.21875 44.703125 73.484375 
Q 48.484375 72.75 52.59375 71.296875 
z
" id="DejaVuSans-54"/>
       </defs>
       <use xlink:href="#DejaVuSans-54"/>
       <use x="63.623047" xlink:href="#DejaVuSans-48"/>
       <use x="127.246094" xlink:href="#DejaVuSans-48"/>
      </g>
     </g>
    </g>
    <g id="xtick_6">
     <g id="line2d_6">
      <g>
       <use style="stroke:#000000;stroke-width:0.8;" x="302.909411" xlink:href="#m67358718cf" y="192.24"/>
      </g>
     </g>
     <g id="text_6">
      <!-- 650 -->
      <g transform="translate(293.365661 206.838437)scale(0.1 -0.1)">
       <use xlink:href="#DejaVuSans-54"/>
       <use x="63.623047" xlink:href="#DejaVuSans-53"/>
       <use x="127.246094" xlink:href="#DejaVuSans-48"/>
      </g>
     </g>
    </g>
    <g id="xtick_7">
     <g id="line2d_7">
      <g>
       <use style="stroke:#000000;stroke-width:0.8;" x="347.518821" xlink:href="#m67358718cf" y="192.24"/>
      </g>
     </g>
     <g id="text_7">
      <!-- 700 -->
      <g transform="translate(337.975071 206.838437)scale(0.1 -0.1)">
       <defs>
        <path d="M 8.203125 72.90625 
L 55.078125 72.90625 
L 55.078125 68.703125 
L 28.609375 0 
L 18.3125 0 
L 43.21875 64.59375 
L 8.203125 64.59375 
z
" id="DejaVuSans-55"/>
       </defs>
       <use xlink:href="#DejaVuSans-55"/>
       <use x="63.623047" xlink:href="#DejaVuSans-48"/>
       <use x="127.246094" xlink:href="#DejaVuSans-48"/>
      </g>
     </g>
    </g>
    <g id="xtick_8">
     <g id="line2d_8">
      <g>
       <use style="stroke:#000000;stroke-width:0.8;" x="392.128232" xlink:href="#m67358718cf" y="192.24"/>
      </g>
     </g>
     <g id="text_8">
      <!-- 750 -->
      <g transform="translate(382.584482 206.838437)scale(0.1 -0.1)">
       <use xlink:href="#DejaVuSans-55"/>
       <use x="63.623047" xlink:href="#DejaVuSans-53"/>
       <use x="127.246094" xlink:href="#DejaVuSans-48"/>
      </g>
     </g>
    </g>
    <g id="xtick_9">
     <g id="line2d_9">
      <g>
       <use style="stroke:#000000;stroke-width:0.8;" x="436.737643" xlink:href="#m67358718cf" y="192.24"/>
      </g>
     </g>
     <g id="text_9">
      <!-- 800 -->
      <g transform="translate(427.193893 206.838437)scale(0.1 -0.1)">
       <defs>
        <path d="M 31.78125 34.625 
Q 24.75 34.625 20.71875 30.859375 
Q 16.703125 27.09375 16.703125 20.515625 
Q 16.703125 13.921875 20.71875 10.15625 
Q 24.75 6.390625 31.78125 6.390625 
Q 38.8125 6.390625 42.859375 10.171875 
Q 46.921875 13.96875 46.921875 20.515625 
Q 46.921875 27.09375 42.890625 30.859375 
Q 38.875 34.625 31.78125 34.625 
z
M 21.921875 38.8125 
Q 15.578125 40.375 12.03125 44.71875 
Q 8.5 49.078125 8.5 55.328125 
Q 8.5 64.0625 14.71875 69.140625 
Q 20.953125 74.21875 31.78125 74.21875 
Q 42.671875 74.21875 48.875 69.140625 
Q 55.078125 64.0625 55.078125 55.328125 
Q 55.078125 49.078125 51.53125 44.71875 
Q 48 40.375 41.703125 38.8125 
Q 48.828125 37.15625 52.796875 32.3125 
Q 56.78125 27.484375 56.78125 20.515625 
Q 56.78125 9.90625 50.3125 4.234375 
Q 43.84375 -1.421875 31.78125 -1.421875 
Q 19.734375 -1.421875 13.25 4.234375 
Q 6.78125 9.90625 6.78125 20.515625 
Q 6.78125 27.484375 10.78125 32.3125 
Q 14.796875 37.15625 21.921875 38.8125 
z
M 18.3125 54.390625 
Q 18.3125 48.734375 21.84375 45.5625 
Q 25.390625 42.390625 31.78125 42.390625 
Q 38.140625 42.390625 41.71875 45.5625 
Q 45.3125 48.734375 45.3125 54.390625 
Q 45.3125 60.0625 41.71875 63.234375 
Q 38.140625 66.40625 31.78125 66.40625 
Q 25.390625 66.40625 21.84375 63.234375 
Q 18.3125 60.0625 18.3125 54.390625 
z
" id="DejaVuSans-56"/>
       </defs>
       <use xlink:href="#DejaVuSans-56"/>
       <use x="63.623047" xlink:href="#DejaVuSans-48"/>
       <use x="127.246094" xlink:href="#DejaVuSans-48"/>
      </g>
     </g>
    </g>
    <g id="text_10">
     <!-- time -->
     <g transform="translate(247.003906 220.516562)scale(0.1 -0.1)">
      <defs>
       <path d="M 18.3125 70.21875 
L 18.3125 54.6875 
L 36.8125 54.6875 
L 36.8125 47.703125 
L 18.3125 47.703125 
L 18.3125 18.015625 
Q 18.3125 11.328125 20.140625 9.421875 
Q 21.96875 7.515625 27.59375 7.515625 
L 36.8125 7.515625 
L 36.8125 0 
L 27.59375 0 
Q 17.1875 0 13.234375 3.875 
Q 9.28125 7.765625 9.28125 18.015625 
L 9.28125 47.703125 
L 2.6875 47.703125 
L 2.6875 54.6875 
L 9.28125 54.6875 
L 9.28125 70.21875 
z
" id="DejaVuSans-116"/>
       <path d="M 9.421875 54.6875 
L 18.40625 54.6875 
L 18.40625 0 
L 9.421875 0 
z
M 9.421875 75.984375 
L 18.40625 75.984375 
L 18.40625 64.59375 
L 9.421875 64.59375 
z
" id="DejaVuSans-105"/>
       <path d="M 52 44.1875 
Q 55.375 50.25 60.0625 53.125 
Q 64.75 56 71.09375 56 
Q 79.640625 56 84.28125 50.015625 
Q 88.921875 44.046875 88.921875 33.015625 
L 88.921875 0 
L 79.890625 0 
L 79.890625 32.71875 
Q 79.890625 40.578125 77.09375 44.375 
Q 74.3125 48.1875 68.609375 48.1875 
Q 61.625 48.1875 57.5625 43.546875 
Q 53.515625 38.921875 53.515625 30.90625 
L 53.515625 0 
L 44.484375 0 
L 44.484375 32.71875 
Q 44.484375 40.625 41.703125 44.40625 
Q 38.921875 48.1875 33.109375 48.1875 
Q 26.21875 48.1875 22.15625 43.53125 
Q 18.109375 38.875 18.109375 30.90625 
L 18.109375 0 
L 9.078125 0 
L 9.078125 54.6875 
L 18.109375 54.6875 
L 18.109375 46.1875 
Q 21.1875 51.21875 25.484375 53.609375 
Q 29.78125 56 35.6875 56 
Q 41.65625 56 45.828125 52.96875 
Q 50 49.953125 52 44.1875 
z
" id="DejaVuSans-109"/>
       <path d="M 56.203125 29.59375 
L 56.203125 25.203125 
L 14.890625 25.203125 
Q 15.484375 15.921875 20.484375 11.0625 
Q 25.484375 6.203125 34.421875 6.203125 
Q 39.59375 6.203125 44.453125 7.46875 
Q 49.3125 8.734375 54.109375 11.28125 
L 54.109375 2.78125 
Q 49.265625 0.734375 44.1875 -0.34375 
Q 39.109375 -1.421875 33.890625 -1.421875 
Q 20.796875 -1.421875 13.15625 6.1875 
Q 5.515625 13.8125 5.515625 26.8125 
Q 5.515625 40.234375 12.765625 48.109375 
Q 20.015625 56 32.328125 56 
Q 43.359375 56 49.78125 48.890625 
Q 56.203125 41.796875 56.203125 29.59375 
z
M 47.21875 32.234375 
Q 47.125 39.59375 43.09375 43.984375 
Q 39.0625 48.390625 32.421875 48.390625 
Q 24.90625 48.390625 20.390625 44.140625 
Q 15.875 39.890625 15.1875 32.171875 
z
" id="DejaVuSans-101"/>
      </defs>
      <use xlink:href="#DejaVuSans-116"/>
      <use x="39.208984" xlink:href="#DejaVuSans-105"/>
      <use x="66.992188" xlink:href="#DejaVuSans-109"/>
      <use x="164.404297" xlink:href="#DejaVuSans-101"/>
     </g>
    </g>
   </g>
   <g id="matplotlib.axis_2">
    <g id="ytick_1">
     <g id="line2d_10">
      <defs>
       <path d="M 0 0 
L -3.5 0 
" id="m98b6913752" style="stroke:#000000;stroke-width:0.8;"/>
      </defs>
      <g>
       <use style="stroke:#000000;stroke-width:0.8;" x="63" xlink:href="#m98b6913752" y="171.581307"/>
      </g>
     </g>
     <g id="text_11">
      <!-- 4.4 -->
      <g transform="translate(40.096875 175.380526)scale(0.1 -0.1)">
       <defs>
        <path d="M 10.6875 12.40625 
L 21 12.40625 
L 21 0 
L 10.6875 0 
z
" id="DejaVuSans-46"/>
       </defs>
       <use xlink:href="#DejaVuSans-52"/>
       <use x="63.623047" xlink:href="#DejaVuSans-46"/>
       <use x="95.410156" xlink:href="#DejaVuSans-52"/>
      </g>
     </g>
    </g>
    <g id="ytick_2">
     <g id="line2d_11">
      <g>
       <use style="stroke:#000000;stroke-width:0.8;" x="63" xlink:href="#m98b6913752" y="146.509514"/>
      </g>
     </g>
     <g id="text_12">
      <!-- 4.6 -->
      <g transform="translate(40.096875 150.308733)scale(0.1 -0.1)">
       <use xlink:href="#DejaVuSans-52"/>
       <use x="63.623047" xlink:href="#DejaVuSans-46"/>
       <use x="95.410156" xlink:href="#DejaVuSans-54"/>
      </g>
     </g>
    </g>
    <g id="ytick_3">
     <g id="line2d_12">
      <g>
       <use style="stroke:#000000;stroke-width:0.8;" x="63" xlink:href="#m98b6913752" y="121.437721"/>
      </g>
     </g>
     <g id="text_13">
      <!-- 4.8 -->
      <g transform="translate(40.096875 125.236939)scale(0.1 -0.1)">
       <use xlink:href="#DejaVuSans-52"/>
       <use x="63.623047" xlink:href="#DejaVuSans-46"/>
       <use x="95.410156" xlink:href="#DejaVuSans-56"/>
      </g>
     </g>
    </g>
    <g id="ytick_4">
     <g id="line2d_13">
      <g>
       <use style="stroke:#000000;stroke-width:0.8;" x="63" xlink:href="#m98b6913752" y="96.365927"/>
      </g>
     </g>
     <g id="text_14">
      <!-- 5.0 -->
      <g transform="translate(40.096875 100.165146)scale(0.1 -0.1)">
       <use xlink:href="#DejaVuSans-53"/>
       <use x="63.623047" xlink:href="#DejaVuSans-46"/>
       <use x="95.410156" xlink:href="#DejaVuSans-48"/>
      </g>
     </g>
    </g>
    <g id="ytick_5">
     <g id="line2d_14">
      <g>
       <use style="stroke:#000000;stroke-width:0.8;" x="63" xlink:href="#m98b6913752" y="71.294134"/>
      </g>
     </g>
     <g id="text_15">
      <!-- 5.2 -->
      <g transform="translate(40.096875 75.093352)scale(0.1 -0.1)">
       <defs>
        <path d="M 19.1875 8.296875 
L 53.609375 8.296875 
L 53.609375 0 
L 7.328125 0 
L 7.328125 8.296875 
Q 12.9375 14.109375 22.625 23.890625 
Q 32.328125 33.6875 34.8125 36.53125 
Q 39.546875 41.84375 41.421875 45.53125 
Q 43.3125 49.21875 43.3125 52.78125 
Q 43.3125 58.59375 39.234375 62.25 
Q 35.15625 65.921875 28.609375 65.921875 
Q 23.96875 65.921875 18.8125 64.3125 
Q 13.671875 62.703125 7.8125 59.421875 
L 7.8125 69.390625 
Q 13.765625 71.78125 18.9375 73 
Q 24.125 74.21875 28.421875 74.21875 
Q 39.75 74.21875 46.484375 68.546875 
Q 53.21875 62.890625 53.21875 53.421875 
Q 53.21875 48.921875 51.53125 44.890625 
Q 49.859375 40.875 45.40625 35.40625 
Q 44.1875 33.984375 37.640625 27.21875 
Q 31.109375 20.453125 19.1875 8.296875 
z
" id="DejaVuSans-50"/>
       </defs>
       <use xlink:href="#DejaVuSans-53"/>
       <use x="63.623047" xlink:href="#DejaVuSans-46"/>
       <use x="95.410156" xlink:href="#DejaVuSans-50"/>
      </g>
     </g>
    </g>
    <g id="ytick_6">
     <g id="line2d_15">
      <g>
       <use style="stroke:#000000;stroke-width:0.8;" x="63" xlink:href="#m98b6913752" y="46.22234"/>
      </g>
     </g>
     <g id="text_16">
      <!-- 5.4 -->
      <g transform="translate(40.096875 50.021559)scale(0.1 -0.1)">
       <use xlink:href="#DejaVuSans-53"/>
       <use x="63.623047" xlink:href="#DejaVuSans-46"/>
       <use x="95.410156" xlink:href="#DejaVuSans-52"/>
      </g>
     </g>
    </g>
    <g id="text_17">
     <!-- coef2 -->
     <g transform="translate(34.017187 122.906562)rotate(-90)scale(0.1 -0.1)">
      <defs>
       <path d="M 48.78125 52.59375 
L 48.78125 44.1875 
Q 44.96875 46.296875 41.140625 47.34375 
Q 37.3125 48.390625 33.40625 48.390625 
Q 24.65625 48.390625 19.8125 42.84375 
Q 14.984375 37.3125 14.984375 27.296875 
Q 14.984375 17.28125 19.8125 11.734375 
Q 24.65625 6.203125 33.40625 6.203125 
Q 37.3125 6.203125 41.140625 7.25 
Q 44.96875 8.296875 48.78125 10.40625 
L 48.78125 2.09375 
Q 45.015625 0.34375 40.984375 -0.53125 
Q 36.96875 -1.421875 32.421875 -1.421875 
Q 20.0625 -1.421875 12.78125 6.34375 
Q 5.515625 14.109375 5.515625 27.296875 
Q 5.515625 40.671875 12.859375 48.328125 
Q 20.21875 56 33.015625 56 
Q 37.15625 56 41.109375 55.140625 
Q 45.0625 54.296875 48.78125 52.59375 
z
" id="DejaVuSans-99"/>
       <path d="M 30.609375 48.390625 
Q 23.390625 48.390625 19.1875 42.75 
Q 14.984375 37.109375 14.984375 27.296875 
Q 14.984375 17.484375 19.15625 11.84375 
Q 23.34375 6.203125 30.609375 6.203125 
Q 37.796875 6.203125 41.984375 11.859375 
Q 46.1875 17.53125 46.1875 27.296875 
Q 46.1875 37.015625 41.984375 42.703125 
Q 37.796875 48.390625 30.609375 48.390625 
z
M 30.609375 56 
Q 42.328125 56 49.015625 48.375 
Q 55.71875 40.765625 55.71875 27.296875 
Q 55.71875 13.875 49.015625 6.21875 
Q 42.328125 -1.421875 30.609375 -1.421875 
Q 18.84375 -1.421875 12.171875 6.21875 
Q 5.515625 13.875 5.515625 27.296875 
Q 5.515625 40.765625 12.171875 48.375 
Q 18.84375 56 30.609375 56 
z
" id="DejaVuSans-111"/>
       <path d="M 37.109375 75.984375 
L 37.109375 68.5 
L 28.515625 68.5 
Q 23.6875 68.5 21.796875 66.546875 
Q 19.921875 64.59375 19.921875 59.515625 
L 19.921875 54.6875 
L 34.71875 54.6875 
L 34.71875 47.703125 
L 19.921875 47.703125 
L 19.921875 0 
L 10.890625 0 
L 10.890625 47.703125 
L 2.296875 47.703125 
L 2.296875 54.6875 
L 10.890625 54.6875 
L 10.890625 58.5 
Q 10.890625 67.625 15.140625 71.796875 
Q 19.390625 75.984375 28.609375 75.984375 
z
" id="DejaVuSans-102"/>
      </defs>
      <use xlink:href="#DejaVuSans-99"/>
      <use x="54.980469" xlink:href="#DejaVuSans-111"/>
      <use x="116.162109" xlink:href="#DejaVuSans-101"/>
      <use x="177.685547" xlink:href="#DejaVuSans-102"/>
      <use x="212.890625" xlink:href="#DejaVuSans-50"/>
     </g>
    </g>
   </g>
   <g id="line2d_16">
    <path clip-path="url(#p8ae4a5fa2b)" d="M 80.754545 181.086721 
L 81.646734 181.006455 
L 82.538922 181.246284 
L 83.43111 181.082182 
L 84.323298 181.208086 
L 85.215487 181.453163 
L 86.107675 181.286968 
L 86.999863 180.585594 
L 87.892051 180.222968 
L 88.784239 180.185948 
L 90.568616 180.407704 
L 91.460804 180.687586 
L 92.352992 180.839535 
L 93.24518 180.092059 
L 94.137369 179.960407 
L 95.029557 180.19545 
L 96.813933 179.712542 
L 97.706122 179.415796 
L 98.59831 179.493413 
L 99.490498 178.413596 
L 101.274874 178.134105 
L 102.167063 177.650136 
L 103.059251 177.668208 
L 103.951439 177.802046 
L 104.843627 177.640348 
L 105.735815 176.711746 
L 106.628004 176.44012 
L 107.520192 175.916423 
L 109.304568 176.110637 
L 110.196757 176.173252 
L 111.088945 175.973899 
L 111.981133 174.369839 
L 112.873321 174.014064 
L 114.657698 173.582321 
L 115.549886 173.140745 
L 117.334262 173.156964 
L 118.22645 171.504683 
L 120.010827 170.421425 
L 121.795203 169.889555 
L 122.687392 169.968887 
L 123.57958 169.658045 
L 124.471768 168.590182 
L 125.363956 168.367501 
L 126.256144 167.914949 
L 127.148333 167.68271 
L 128.932709 166.95558 
L 129.824897 166.693853 
L 130.717085 164.99557 
L 133.39365 163.676708 
L 134.285838 163.557006 
L 135.178026 163.089122 
L 136.070215 162.992913 
L 136.962403 161.772907 
L 137.854591 161.003833 
L 142.315532 159.236975 
L 143.20772 157.843018 
L 146.776473 155.900193 
L 147.668661 155.842771 
L 148.56085 155.576939 
L 150.345226 153.954139 
L 151.237414 153.303745 
L 152.129603 153.051109 
L 153.021791 152.475474 
L 153.913979 152.42836 
L 154.806167 151.981927 
L 155.698355 150.311519 
L 156.590544 149.410824 
L 161.943673 146.312778 
L 162.835861 145.972924 
L 163.728049 145.303741 
L 164.620238 144.873208 
L 165.512426 144.632319 
L 166.404614 143.973424 
L 167.296802 143.510759 
L 168.18899 142.822435 
L 169.081179 142.341033 
L 169.973367 141.649875 
L 170.865555 141.296382 
L 171.757743 140.668476 
L 172.649931 140.261048 
L 173.54212 140.057773 
L 175.326496 138.707502 
L 176.218684 138.438065 
L 177.110873 137.705555 
L 179.787437 137.068565 
L 180.679625 136.50378 
L 181.571814 135.448972 
L 185.140566 133.584931 
L 186.032755 133.288073 
L 186.924943 132.830857 
L 187.817131 132.048049 
L 189.601508 130.86538 
L 192.278072 129.209018 
L 193.17026 128.908539 
L 194.954637 127.846609 
L 196.739013 126.875188 
L 198.52339 125.967912 
L 199.415578 125.552066 
L 200.307766 124.769718 
L 202.092143 123.782784 
L 203.876519 122.782464 
L 205.660895 121.707421 
L 206.553084 121.410818 
L 208.33746 120.555812 
L 210.121836 119.888998 
L 211.014025 119.506947 
L 211.906213 118.951092 
L 212.798401 118.530136 
L 213.690589 118.353553 
L 214.582778 117.973965 
L 215.474966 117.34745 
L 216.367154 116.927909 
L 217.259342 116.658895 
L 218.15153 116.263863 
L 219.935907 114.855315 
L 220.828095 114.513793 
L 221.720283 113.873704 
L 222.612471 113.570797 
L 223.50466 112.915038 
L 224.396848 112.666013 
L 229.749977 109.457199 
L 231.534354 108.392534 
L 233.31873 107.087509 
L 234.210918 106.952899 
L 235.103106 106.6514 
L 236.887483 105.689207 
L 239.564048 104.008483 
L 240.456236 103.597997 
L 241.348424 103.831546 
L 242.240612 103.285208 
L 243.1328 102.929721 
L 244.917177 101.810542 
L 245.809365 101.62407 
L 249.378118 100.185034 
L 251.162494 98.780884 
L 253.839059 97.778578 
L 254.731247 97.386487 
L 255.623435 96.836515 
L 256.515624 96.111938 
L 257.407812 95.657726 
L 258.3 94.831358 
L 260.084376 93.78952 
L 261.868753 93.772417 
L 263.653129 93.230442 
L 264.545317 92.677553 
L 266.329694 92.141312 
L 267.221882 91.734258 
L 269.006259 91.298523 
L 270.790635 90.521562 
L 271.682823 89.945927 
L 274.359388 88.791012 
L 275.251576 88.365412 
L 276.143764 87.658651 
L 277.928141 86.706918 
L 278.820329 86.378447 
L 279.712517 85.90691 
L 280.604705 85.718248 
L 281.496894 85.132934 
L 284.173458 83.851487 
L 285.957835 83.295306 
L 287.742211 82.690789 
L 289.526587 81.878993 
L 290.418776 81.245949 
L 294.879717 79.813405 
L 299.340658 77.910917 
L 300.232846 77.728308 
L 302.017222 76.906915 
L 303.801599 76.596006 
L 304.693787 76.154868 
L 306.478164 75.830285 
L 308.26254 75.197791 
L 310.046916 74.303143 
L 312.723481 72.809518 
L 313.615669 72.818249 
L 314.507857 72.336864 
L 315.400046 71.640905 
L 316.292234 71.161709 
L 326.998492 67.580313 
L 327.890681 67.110189 
L 329.675057 66.75167 
L 332.351622 65.614988 
L 333.24381 65.279996 
L 335.920375 63.933921 
L 336.812563 63.595607 
L 337.704751 63.627534 
L 338.596939 63.457344 
L 339.489127 63.112064 
L 340.381316 62.979275 
L 342.165692 62.170838 
L 344.842257 61.074228 
L 345.734445 60.501291 
L 346.626633 60.393446 
L 347.518821 59.987847 
L 348.41101 59.709539 
L 349.303198 59.668992 
L 350.195386 59.01141 
L 351.087574 58.764916 
L 351.979762 58.400466 
L 352.871951 57.738834 
L 353.764139 57.368116 
L 354.656327 57.127445 
L 355.548515 56.767766 
L 356.440704 56.250505 
L 357.332892 56.143794 
L 358.22508 56.16676 
L 361.793833 55.026893 
L 362.686021 54.927919 
L 364.470397 53.864936 
L 365.362586 53.782888 
L 366.254774 53.578976 
L 367.146962 53.254752 
L 368.03915 53.093584 
L 368.931339 52.77624 
L 369.823527 52.713876 
L 370.715715 52.237166 
L 371.607903 52.059359 
L 372.500091 52.027233 
L 373.39228 51.718636 
L 375.176656 51.445606 
L 376.068844 51.352985 
L 377.853221 50.627343 
L 383.20635 48.304361 
L 384.098538 47.860172 
L 385.882915 47.501447 
L 386.775103 47.123831 
L 387.667291 47.002158 
L 388.559479 46.51846 
L 393.02042 44.722725 
L 394.804797 44.519758 
L 395.696985 43.96195 
L 396.589173 43.863096 
L 397.481361 43.41182 
L 398.37355 43.28894 
L 399.265738 43.011967 
L 400.157926 42.878103 
L 401.942302 42.441491 
L 405.511055 41.592999 
L 407.295432 40.919224 
L 409.079808 40.628637 
L 411.756373 39.66581 
L 413.540749 39.539143 
L 414.432937 39.288252 
L 415.325126 39.20368 
L 416.217314 38.818725 
L 418.00169 38.353676 
L 419.786067 37.910833 
L 422.462631 36.90101 
L 424.247008 36.52751 
L 426.923572 35.688464 
L 427.815761 35.320807 
L 428.707949 35.099126 
L 429.600137 35.027226 
L 431.384513 34.412867 
L 435.845455 33.48 
L 435.845455 33.48 
" style="fill:none;stroke:#1f77b4;stroke-linecap:square;stroke-width:1.5;"/>
   </g>
   <g id="line2d_17">
    <path clip-path="url(#p8ae4a5fa2b)" d="M 80.754545 180.565786 
L 81.646734 180.380606 
L 83.43111 180.235792 
L 85.215487 180.536195 
L 86.107675 180.502549 
L 86.999863 180.910458 
L 87.892051 180.725418 
L 88.784239 180.872429 
L 89.676428 180.749753 
L 90.568616 181.064586 
L 92.352992 181.301464 
L 93.24518 180.90168 
L 95.921745 181.011944 
L 97.706122 180.943287 
L 98.59831 181.176863 
L 99.490498 180.619351 
L 100.382686 180.664198 
L 101.274874 180.446266 
L 102.167063 180.861057 
L 103.059251 180.810061 
L 103.951439 180.899745 
L 104.843627 181.168406 
L 105.735815 180.407353 
L 108.41238 179.388984 
L 109.304568 179.367192 
L 110.196757 179.67637 
L 111.088945 179.817521 
L 112.873321 179.121285 
L 113.765509 178.971453 
L 115.549886 178.342643 
L 116.442074 178.846 
L 117.334262 178.996358 
L 118.22645 178.292471 
L 119.118639 178.012832 
L 120.010827 177.916511 
L 120.903015 177.574274 
L 122.687392 177.15286 
L 123.57958 177.264807 
L 124.471768 176.520521 
L 125.363956 176.191635 
L 126.256144 176.039189 
L 127.148333 176.049887 
L 128.040521 176.419973 
L 128.932709 176.400209 
L 129.824897 176.564671 
L 130.717085 175.839074 
L 131.609274 176.028187 
L 132.501462 175.900882 
L 133.39365 175.63356 
L 134.285838 175.910718 
L 136.070215 175.853528 
L 136.962403 175.232807 
L 137.854591 174.977402 
L 138.746779 174.938563 
L 139.638968 174.548914 
L 140.531156 174.702984 
L 141.423344 174.544333 
L 143.20772 173.883373 
L 144.099909 173.703765 
L 145.884285 172.954391 
L 146.776473 172.920267 
L 147.668661 172.755685 
L 148.56085 172.923341 
L 149.453038 172.5619 
L 150.345226 172.509871 
L 151.237414 172.211862 
L 152.129603 172.08671 
L 153.913979 171.603146 
L 154.806167 171.557857 
L 155.698355 171.261719 
L 156.590544 170.821284 
L 158.37492 170.870379 
L 160.159296 170.631387 
L 161.943673 170.227973 
L 162.835861 169.871427 
L 163.728049 169.393511 
L 166.404614 169.265477 
L 167.296802 169.108502 
L 169.081179 168.429672 
L 169.973367 168.367173 
L 170.865555 167.984103 
L 171.757743 168.189746 
L 173.54212 168.099748 
L 174.434308 167.831981 
L 176.218684 167.038401 
L 180.679625 166.523483 
L 181.571814 166.187532 
L 184.248378 165.989656 
L 187.817131 165.401825 
L 188.709319 164.981355 
L 191.385884 164.611438 
L 192.278072 164.675573 
L 193.17026 164.365034 
L 194.062449 163.91324 
L 194.954637 163.771658 
L 195.846825 163.510847 
L 197.631201 163.356548 
L 198.52339 163.05435 
L 199.415578 163.344227 
L 201.199954 162.969902 
L 202.092143 162.929455 
L 202.984331 162.515168 
L 203.876519 162.440245 
L 205.660895 162.037401 
L 206.553084 161.744553 
L 207.445272 161.573704 
L 209.229648 160.794229 
L 211.014025 160.63555 
L 212.798401 160.320337 
L 215.474966 159.978326 
L 216.367154 159.74879 
L 219.043719 159.416761 
L 220.828095 158.528297 
L 223.50466 158.734304 
L 224.396848 158.374078 
L 225.289036 158.240316 
L 226.181224 157.798514 
L 227.073413 157.718201 
L 229.749977 157.783156 
L 230.642165 157.706821 
L 231.534354 157.364734 
L 232.426542 157.160643 
L 233.31873 156.710085 
L 234.210918 156.505855 
L 235.995295 155.901565 
L 236.887483 155.589473 
L 237.779671 155.435394 
L 238.671859 155.427747 
L 240.456236 154.963743 
L 241.348424 155.066826 
L 243.1328 154.563158 
L 244.024989 154.449455 
L 245.809365 153.820677 
L 246.701553 153.607501 
L 247.593741 153.576256 
L 248.48593 153.330359 
L 249.378118 153.537545 
L 250.270306 153.504041 
L 252.054683 153.065709 
L 255.623435 152.645834 
L 257.407812 152.233466 
L 259.192188 152.0991 
L 260.084376 151.881266 
L 261.868753 151.895688 
L 262.760941 151.902358 
L 264.545317 151.482495 
L 266.329694 151.263147 
L 267.221882 151.370863 
L 268.11407 151.099746 
L 269.006259 151.270065 
L 269.898447 150.721828 
L 270.790635 150.754712 
L 271.682823 150.597323 
L 273.4672 150.579418 
L 274.359388 150.216155 
L 275.251576 150.019805 
L 277.035952 149.977415 
L 277.928141 149.641418 
L 279.712517 149.225358 
L 281.496894 149.329089 
L 282.389082 149.043441 
L 283.28127 148.958364 
L 286.850023 147.787366 
L 288.634399 147.378447 
L 289.526587 147.521402 
L 290.418776 147.541416 
L 291.310964 147.218146 
L 292.203152 147.251832 
L 293.09534 146.957895 
L 297.556281 146.12731 
L 298.44847 145.821075 
L 301.125034 145.27601 
L 302.017222 144.978263 
L 307.370352 144.009376 
L 310.939105 143.123406 
L 315.400046 142.407662 
L 316.292234 142.532753 
L 317.184422 142.3394 
L 318.968799 142.225425 
L 323.42974 141.455807 
L 324.321928 141.241292 
L 325.214116 141.146995 
L 326.106304 141.168198 
L 326.998492 140.97504 
L 329.675057 140.891107 
L 330.567245 140.474586 
L 334.135998 139.564276 
L 335.028186 139.475104 
L 335.920375 139.642136 
L 338.596939 139.133249 
L 340.381316 138.438593 
L 341.273504 138.350112 
L 342.165692 138.047439 
L 343.05788 137.622057 
L 344.842257 137.54925 
L 345.734445 137.381393 
L 346.626633 137.441532 
L 347.518821 137.367168 
L 348.41101 137.135002 
L 350.195386 136.891546 
L 351.087574 137.005427 
L 351.979762 136.843971 
L 353.764139 136.851523 
L 354.656327 136.675487 
L 356.440704 136.78349 
L 358.22508 136.535079 
L 360.009456 136.451866 
L 360.901645 136.332259 
L 362.686021 136.236688 
L 366.254774 135.93603 
L 369.823527 135.405414 
L 370.715715 135.399921 
L 372.500091 134.979125 
L 374.284468 134.968194 
L 376.068844 134.772377 
L 376.961032 134.606983 
L 378.745409 134.579648 
L 379.637597 134.303177 
L 381.421974 134.182528 
L 384.098538 133.608177 
L 386.775103 133.185329 
L 387.667291 133.237071 
L 388.559479 133.141993 
L 389.451667 133.163959 
L 391.236044 132.761396 
L 393.02042 132.60507 
L 396.589173 132.069869 
L 398.37355 131.734658 
L 401.050114 131.341821 
L 402.834491 130.957756 
L 406.403243 130.503529 
L 407.295432 130.227273 
L 412.648561 129.602218 
L 414.432937 129.520935 
L 415.325126 129.317963 
L 417.109502 129.284001 
L 418.00169 129.277836 
L 420.678255 128.813588 
L 423.35482 128.718053 
L 426.031384 128.127848 
L 426.923572 128.051438 
L 428.707949 127.716657 
L 429.600137 127.678528 
L 430.492325 127.477935 
L 431.384513 127.144402 
L 433.16889 126.782213 
L 434.061078 126.809769 
L 435.845455 126.361478 
L 435.845455 126.361478 
" style="fill:none;stroke:#ff7f0e;stroke-linecap:square;stroke-width:1.5;"/>
   </g>
   <g id="line2d_18">
    <path clip-path="url(#p8ae4a5fa2b)" d="M 80.754545 183.952209 
L 81.646734 183.903252 
L 82.538922 183.97815 
L 83.43111 184.238063 
L 84.323298 184.010268 
L 85.215487 184.435166 
L 86.107675 184.54334 
L 86.999863 183.802362 
L 87.892051 184.066708 
L 88.784239 183.904175 
L 89.676428 183.967141 
L 91.460804 184.68 
L 92.352992 184.515556 
L 93.24518 183.77646 
L 94.137369 183.694766 
L 95.921745 183.978267 
L 96.813933 183.941603 
L 97.706122 184.085511 
L 98.59831 184.396417 
L 99.490498 183.126191 
L 102.167063 182.651604 
L 103.951439 181.869605 
L 104.843627 181.844013 
L 105.735815 181.086826 
L 107.520192 179.991432 
L 108.41238 179.472806 
L 110.196757 179.298638 
L 111.088945 178.983065 
L 111.981133 177.909361 
L 114.657698 177.472262 
L 117.334262 177.273202 
L 118.22645 175.592503 
L 120.010827 174.790509 
L 123.57958 173.930992 
L 124.471768 172.924599 
L 126.256144 171.54999 
L 128.932709 170.719146 
L 129.824897 170.54634 
L 130.717085 169.105764 
L 131.609274 168.95021 
L 132.501462 168.623468 
L 134.285838 168.277903 
L 135.178026 167.978688 
L 136.070215 167.430068 
L 136.962403 166.100126 
L 137.854591 165.519492 
L 138.746779 165.415022 
L 139.638968 165.043253 
L 140.531156 164.930731 
L 142.315532 164.4384 
L 143.20772 163.389788 
L 145.884285 161.704813 
L 147.668661 160.277099 
L 148.56085 160.384961 
L 149.453038 158.816911 
L 150.345226 158.391635 
L 151.237414 157.636919 
L 152.129603 157.271701 
L 153.021791 157.110478 
L 153.913979 157.088544 
L 154.806167 156.58983 
L 155.698355 155.32958 
L 156.590544 154.550926 
L 157.482732 154.217949 
L 158.37492 153.62966 
L 159.267108 153.364725 
L 160.159296 152.942467 
L 161.051485 152.841177 
L 161.943673 151.736821 
L 162.835861 150.816024 
L 163.728049 150.144073 
L 164.620238 149.721413 
L 165.512426 149.5487 
L 166.404614 149.243234 
L 167.296802 148.728862 
L 168.18899 147.732782 
L 169.081179 147.361529 
L 171.757743 145.761405 
L 172.649931 145.468042 
L 173.54212 145.397245 
L 174.434308 144.49155 
L 175.326496 144.050707 
L 176.218684 143.201395 
L 177.110873 142.630607 
L 179.787437 141.423248 
L 180.679625 140.789263 
L 182.464002 139.118186 
L 183.35619 138.451202 
L 184.248378 137.990475 
L 186.924943 137.230811 
L 188.709319 135.876425 
L 193.17026 133.575475 
L 194.062449 132.91196 
L 196.739013 131.578293 
L 197.631201 131.381763 
L 198.52339 130.902287 
L 199.415578 130.761216 
L 200.307766 129.911379 
L 202.092143 128.915908 
L 203.876519 128.586798 
L 204.768707 128.28764 
L 205.660895 128.23825 
L 206.553084 127.584504 
L 208.33746 126.769307 
L 209.229648 126.22095 
L 210.121836 126.042538 
L 211.014025 125.616823 
L 211.906213 124.812526 
L 214.582778 123.580301 
L 215.474966 123.446687 
L 216.367154 122.74322 
L 217.259342 122.264622 
L 218.15153 121.928212 
L 219.935907 120.585964 
L 220.828095 120.165301 
L 221.720283 120.182654 
L 223.50466 118.9615 
L 224.396848 118.863752 
L 225.289036 118.228469 
L 226.181224 117.815461 
L 227.073413 117.269917 
L 228.857789 116.397901 
L 230.642165 115.205917 
L 231.534354 114.912178 
L 234.210918 113.642216 
L 235.995295 112.986264 
L 236.887483 112.635407 
L 238.671859 111.804524 
L 241.348424 110.734102 
L 243.1328 110.419484 
L 244.917177 109.787576 
L 245.809365 109.253132 
L 246.701553 108.858497 
L 247.593741 108.293292 
L 248.48593 107.89575 
L 249.378118 107.335581 
L 250.270306 107.082843 
L 251.162494 106.383739 
L 252.946871 105.514929 
L 253.839059 105.36066 
L 258.3 103.397538 
L 260.084376 102.476708 
L 262.760941 101.323891 
L 263.653129 101.141552 
L 264.545317 100.573873 
L 265.437506 100.337811 
L 266.329694 99.915607 
L 267.221882 99.353337 
L 268.11407 98.632248 
L 269.898447 98.204766 
L 270.790635 97.569097 
L 272.575011 96.903021 
L 273.4672 96.386541 
L 274.359388 95.998892 
L 275.251576 95.835676 
L 276.143764 95.410634 
L 277.035952 95.290235 
L 277.928141 94.915938 
L 278.820329 94.293497 
L 280.604705 93.647147 
L 284.173458 91.706918 
L 285.957835 91.143253 
L 286.850023 90.730789 
L 287.742211 90.619633 
L 290.418776 89.494427 
L 291.310964 89.059191 
L 293.09534 88.578596 
L 293.987529 88.146853 
L 296.664093 87.384899 
L 297.556281 86.905315 
L 299.340658 85.634657 
L 302.017222 84.534956 
L 303.801599 84.148072 
L 304.693787 83.740691 
L 305.585975 83.4564 
L 306.478164 83.301102 
L 309.154728 82.011958 
L 312.723481 81.108898 
L 314.507857 80.375214 
L 316.292234 79.682238 
L 317.184422 79.428219 
L 318.07661 78.913905 
L 318.968799 78.546113 
L 319.860987 78.049932 
L 323.42974 76.884027 
L 324.321928 76.943608 
L 327.890681 75.620002 
L 330.567245 74.136744 
L 331.459434 73.975075 
L 332.351622 73.529529 
L 335.028186 72.920748 
L 336.812563 72.113285 
L 337.704751 71.674623 
L 340.381316 70.75708 
L 341.273504 70.237145 
L 342.165692 70.188216 
L 343.05788 69.90316 
L 343.950069 69.441227 
L 347.518821 68.427002 
L 348.41101 68.099274 
L 351.087574 67.383115 
L 351.979762 66.927825 
L 353.764139 66.489386 
L 354.656327 66.008414 
L 357.332892 65.092347 
L 358.22508 65.063308 
L 360.009456 64.258823 
L 360.901645 64.017689 
L 361.793833 63.587933 
L 362.686021 63.607817 
L 364.470397 63.388124 
L 365.362586 63.010152 
L 366.254774 62.932835 
L 367.146962 62.678944 
L 368.931339 62.386893 
L 373.39228 60.969019 
L 374.284468 60.936613 
L 375.176656 60.757233 
L 376.068844 60.4039 
L 377.853221 60.058596 
L 378.745409 59.829038 
L 379.637597 59.482939 
L 381.421974 58.608655 
L 382.314162 58.254156 
L 383.20635 58.294809 
L 384.098538 58.215882 
L 384.990726 57.967446 
L 385.882915 57.865942 
L 386.775103 57.506314 
L 387.667291 57.004367 
L 388.559479 56.798569 
L 389.451667 56.462976 
L 391.236044 55.973021 
L 392.128232 55.598459 
L 393.912608 55.257158 
L 394.804797 54.713018 
L 399.265738 53.028247 
L 402.834491 51.773592 
L 403.726679 51.440397 
L 404.618867 51.477096 
L 405.511055 51.344651 
L 408.18762 50.544571 
L 409.079808 50.503083 
L 410.864185 49.663605 
L 411.756373 49.674111 
L 414.432937 49.052175 
L 416.217314 48.457468 
L 417.109502 48.168009 
L 418.00169 47.735357 
L 418.893878 47.763948 
L 419.786067 47.520287 
L 420.678255 47.024746 
L 421.570443 46.815851 
L 424.247008 45.865905 
L 426.031384 45.515878 
L 426.923572 45.135847 
L 427.815761 44.989957 
L 429.600137 44.509026 
L 431.384513 43.991702 
L 432.276702 44.077955 
L 435.845455 43.383846 
L 435.845455 43.383846 
" style="fill:none;stroke:#2ca02c;stroke-linecap:square;stroke-width:1.5;"/>
   </g>
   <g id="line2d_19">
    <path clip-path="url(#p8ae4a5fa2b)" d="M 80.754545 180.346904 
L 81.646734 180.353994 
L 82.538922 180.531788 
L 84.323298 180.60369 
L 86.107675 180.441702 
L 86.999863 179.944551 
L 87.892051 180.031848 
L 88.784239 180.40139 
L 89.676428 180.279864 
L 90.568616 180.484584 
L 91.460804 180.863456 
L 92.352992 181.119944 
L 93.24518 179.86921 
L 94.137369 179.456841 
L 95.921745 179.049607 
L 96.813933 179.846454 
L 98.59831 180.036787 
L 99.490498 179.042089 
L 100.382686 178.811862 
L 102.167063 178.865453 
L 103.059251 179.173171 
L 103.951439 178.884715 
L 104.843627 178.813749 
L 105.735815 177.808389 
L 106.628004 177.78807 
L 107.520192 177.58449 
L 108.41238 177.525936 
L 109.304568 177.616568 
L 110.196757 177.545724 
L 111.088945 177.770609 
L 111.981133 176.661991 
L 112.873321 176.333688 
L 113.765509 176.261997 
L 114.657698 175.88864 
L 115.549886 175.647567 
L 116.442074 175.833155 
L 117.334262 175.455987 
L 118.22645 174.129583 
L 119.118639 173.755516 
L 122.687392 172.937117 
L 123.57958 172.958493 
L 124.471768 171.727551 
L 125.363956 171.236381 
L 127.148333 170.62162 
L 128.932709 170.62652 
L 129.824897 170.405872 
L 130.717085 169.238735 
L 133.39365 167.571511 
L 134.285838 167.495079 
L 135.178026 166.983412 
L 136.070215 166.647999 
L 136.962403 165.405735 
L 137.854591 164.827748 
L 138.746779 164.732849 
L 139.638968 164.22718 
L 142.315532 163.494602 
L 144.099909 162.180793 
L 145.884285 161.391578 
L 146.776473 160.915742 
L 147.668661 161.225304 
L 148.56085 160.95841 
L 149.453038 159.806686 
L 150.345226 159.456086 
L 152.129603 158.456711 
L 153.021791 158.125372 
L 154.806167 157.793882 
L 155.698355 156.589805 
L 156.590544 155.951332 
L 158.37492 155.191599 
L 159.267108 155.151818 
L 161.051485 154.562438 
L 161.943673 153.575426 
L 163.728049 152.958931 
L 164.620238 152.41901 
L 166.404614 152.202014 
L 167.296802 151.842779 
L 168.18899 151.022984 
L 169.973367 149.981334 
L 170.865555 149.74179 
L 171.757743 149.103033 
L 172.649931 148.861995 
L 173.54212 148.450901 
L 176.218684 146.263499 
L 178.895249 145.096837 
L 179.787437 144.90019 
L 180.679625 144.253422 
L 182.464002 142.644406 
L 184.248378 142.007242 
L 185.140566 141.94822 
L 187.817131 141.132142 
L 188.709319 140.681303 
L 189.601508 140.357998 
L 190.493696 140.238359 
L 192.278072 139.329971 
L 193.17026 139.206117 
L 194.062449 138.596083 
L 195.846825 137.75788 
L 197.631201 136.969781 
L 198.52339 136.784573 
L 199.415578 136.29439 
L 200.307766 135.454628 
L 201.199954 135.137786 
L 202.092143 134.496757 
L 202.984331 134.040813 
L 205.660895 133.564796 
L 207.445272 132.619588 
L 208.33746 132.644177 
L 209.229648 132.319103 
L 210.121836 132.114211 
L 211.014025 131.778972 
L 213.690589 130.196252 
L 214.582778 130.158909 
L 217.259342 129.624384 
L 218.15153 129.250608 
L 219.043719 128.601574 
L 219.935907 128.241447 
L 220.828095 127.548698 
L 221.720283 127.30271 
L 222.612471 126.765193 
L 223.50466 126.641417 
L 224.396848 126.705617 
L 227.073413 124.864012 
L 227.965601 124.388232 
L 230.642165 123.695398 
L 231.534354 122.99273 
L 234.210918 122.174144 
L 235.103106 122.045698 
L 236.887483 121.474317 
L 242.240612 120.206769 
L 243.1328 119.926026 
L 244.024989 119.817567 
L 244.917177 119.213263 
L 247.593741 118.011079 
L 249.378118 117.756347 
L 250.270306 117.109207 
L 257.407812 114.392047 
L 258.3 113.948 
L 259.192188 113.337163 
L 260.084376 113.146369 
L 260.976565 112.617399 
L 263.653129 111.500259 
L 264.545317 110.957141 
L 265.437506 110.743708 
L 270.790635 108.544242 
L 272.575011 107.234666 
L 273.4672 107.031074 
L 274.359388 106.983556 
L 275.251576 106.761381 
L 276.143764 106.161737 
L 278.820329 105.49312 
L 279.712517 105.101181 
L 280.604705 104.907636 
L 281.496894 104.481022 
L 282.389082 104.251446 
L 284.173458 103.418906 
L 285.065646 103.411229 
L 288.634399 102.76016 
L 289.526587 102.247814 
L 290.418776 102.194354 
L 292.203152 101.806684 
L 293.09534 101.301401 
L 293.987529 101.181394 
L 295.771905 100.61694 
L 296.664093 100.071966 
L 302.017222 97.668657 
L 302.909411 96.956869 
L 303.801599 96.7364 
L 304.693787 96.333923 
L 307.370352 95.630629 
L 308.26254 95.360263 
L 309.154728 95.24524 
L 310.046916 94.922395 
L 310.939105 95.082165 
L 313.615669 94.642596 
L 315.400046 93.8149 
L 316.292234 93.486119 
L 318.07661 93.216192 
L 318.968799 92.977269 
L 319.860987 92.561732 
L 320.753175 92.268787 
L 321.645363 91.780132 
L 322.537551 91.502088 
L 323.42974 91.577427 
L 324.321928 91.328136 
L 325.214116 90.759865 
L 327.890681 90.089852 
L 328.782869 89.771977 
L 329.675057 89.641913 
L 333.24381 88.481565 
L 334.135998 88.151968 
L 335.028186 87.698621 
L 338.596939 86.775009 
L 339.489127 86.746249 
L 340.381316 86.221059 
L 345.734445 84.407117 
L 346.626633 84.28279 
L 347.518821 83.965758 
L 348.41101 83.847076 
L 349.303198 83.564394 
L 350.195386 83.678103 
L 352.871951 82.600112 
L 353.764139 82.26991 
L 355.548515 81.958401 
L 358.22508 81.00342 
L 360.009456 80.890369 
L 364.470397 80.024583 
L 366.254774 79.466775 
L 368.03915 79.082945 
L 368.931339 78.688538 
L 369.823527 78.4709 
L 372.500091 77.277331 
L 373.39228 76.987826 
L 374.284468 76.823595 
L 375.176656 76.419431 
L 376.068844 76.20592 
L 376.961032 75.775356 
L 377.853221 75.515238 
L 378.745409 75.03201 
L 379.637597 74.907655 
L 383.20635 73.557648 
L 384.098538 73.440094 
L 384.990726 73.136454 
L 385.882915 72.68641 
L 386.775103 72.564282 
L 387.667291 72.247279 
L 389.451667 72.033549 
L 391.236044 71.292889 
L 392.128232 71.282633 
L 395.696985 70.481328 
L 397.481361 70.017043 
L 398.37355 69.927964 
L 400.157926 69.185927 
L 402.834491 68.59452 
L 404.618867 67.838071 
L 405.511055 67.867719 
L 406.403243 67.541288 
L 409.971996 66.639745 
L 410.864185 66.409636 
L 411.756373 66.321228 
L 413.540749 65.66966 
L 415.325126 65.309425 
L 418.893878 63.997656 
L 419.786067 63.86414 
L 421.570443 63.171308 
L 422.462631 63.197324 
L 424.247008 62.60507 
L 426.031384 62.216367 
L 426.923572 62.129961 
L 427.815761 61.914446 
L 429.600137 61.364365 
L 430.492325 61.217101 
L 431.384513 60.733129 
L 434.061078 60.018915 
L 435.845455 59.406739 
L 435.845455 59.406739 
" style="fill:none;stroke:#d62728;stroke-linecap:square;stroke-width:1.5;"/>
   </g>
   <g id="line2d_20"/>
   <g id="line2d_21"/>
   <g id="line2d_22"/>
   <g id="line2d_23"/>
   <g id="patch_3">
    <path d="M 63 192.24 
L 63 25.92 
" style="fill:none;stroke:#000000;stroke-linecap:square;stroke-linejoin:miter;stroke-width:0.8;"/>
   </g>
   <g id="patch_4">
    <path d="M 63 192.24 
L 453.6 192.24 
" style="fill:none;stroke:#000000;stroke-linecap:square;stroke-linejoin:miter;stroke-width:0.8;"/>
   </g>
   <g id="text_18">
    <!-- modeltype=full, labormarket=biased -->
    <g transform="translate(146.840625 19.92)scale(0.12 -0.12)">
     <defs>
      <path d="M 45.40625 46.390625 
L 45.40625 75.984375 
L 54.390625 75.984375 
L 54.390625 0 
L 45.40625 0 
L 45.40625 8.203125 
Q 42.578125 3.328125 38.25 0.953125 
Q 33.9375 -1.421875 27.875 -1.421875 
Q 17.96875 -1.421875 11.734375 6.484375 
Q 5.515625 14.40625 5.515625 27.296875 
Q 5.515625 40.1875 11.734375 48.09375 
Q 17.96875 56 27.875 56 
Q 33.9375 56 38.25 53.625 
Q 42.578125 51.265625 45.40625 46.390625 
z
M 14.796875 27.296875 
Q 14.796875 17.390625 18.875 11.75 
Q 22.953125 6.109375 30.078125 6.109375 
Q 37.203125 6.109375 41.296875 11.75 
Q 45.40625 17.390625 45.40625 27.296875 
Q 45.40625 37.203125 41.296875 42.84375 
Q 37.203125 48.484375 30.078125 48.484375 
Q 22.953125 48.484375 18.875 42.84375 
Q 14.796875 37.203125 14.796875 27.296875 
z
" id="DejaVuSans-100"/>
      <path d="M 9.421875 75.984375 
L 18.40625 75.984375 
L 18.40625 0 
L 9.421875 0 
z
" id="DejaVuSans-108"/>
      <path d="M 32.171875 -5.078125 
Q 28.375 -14.84375 24.75 -17.8125 
Q 21.140625 -20.796875 15.09375 -20.796875 
L 7.90625 -20.796875 
L 7.90625 -13.28125 
L 13.1875 -13.28125 
Q 16.890625 -13.28125 18.9375 -11.515625 
Q 21 -9.765625 23.484375 -3.21875 
L 25.09375 0.875 
L 2.984375 54.6875 
L 12.5 54.6875 
L 29.59375 11.921875 
L 46.6875 54.6875 
L 56.203125 54.6875 
z
" id="DejaVuSans-121"/>
      <path d="M 18.109375 8.203125 
L 18.109375 -20.796875 
L 9.078125 -20.796875 
L 9.078125 54.6875 
L 18.109375 54.6875 
L 18.109375 46.390625 
Q 20.953125 51.265625 25.265625 53.625 
Q 29.59375 56 35.59375 56 
Q 45.5625 56 51.78125 48.09375 
Q 58.015625 40.1875 58.015625 27.296875 
Q 58.015625 14.40625 51.78125 6.484375 
Q 45.5625 -1.421875 35.59375 -1.421875 
Q 29.59375 -1.421875 25.265625 0.953125 
Q 20.953125 3.328125 18.109375 8.203125 
z
M 48.6875 27.296875 
Q 48.6875 37.203125 44.609375 42.84375 
Q 40.53125 48.484375 33.40625 48.484375 
Q 26.265625 48.484375 22.1875 42.84375 
Q 18.109375 37.203125 18.109375 27.296875 
Q 18.109375 17.390625 22.1875 11.75 
Q 26.265625 6.109375 33.40625 6.109375 
Q 40.53125 6.109375 44.609375 11.75 
Q 48.6875 17.390625 48.6875 27.296875 
z
" id="DejaVuSans-112"/>
      <path d="M 10.59375 45.40625 
L 73.1875 45.40625 
L 73.1875 37.203125 
L 10.59375 37.203125 
z
M 10.59375 25.484375 
L 73.1875 25.484375 
L 73.1875 17.1875 
L 10.59375 17.1875 
z
" id="DejaVuSans-61"/>
      <path d="M 8.5 21.578125 
L 8.5 54.6875 
L 17.484375 54.6875 
L 17.484375 21.921875 
Q 17.484375 14.15625 20.5 10.265625 
Q 23.53125 6.390625 29.59375 6.390625 
Q 36.859375 6.390625 41.078125 11.03125 
Q 45.3125 15.671875 45.3125 23.6875 
L 45.3125 54.6875 
L 54.296875 54.6875 
L 54.296875 0 
L 45.3125 0 
L 45.3125 8.40625 
Q 42.046875 3.421875 37.71875 1 
Q 33.40625 -1.421875 27.6875 -1.421875 
Q 18.265625 -1.421875 13.375 4.4375 
Q 8.5 10.296875 8.5 21.578125 
z
M 31.109375 56 
z
" id="DejaVuSans-117"/>
      <path d="M 11.71875 12.40625 
L 22.015625 12.40625 
L 22.015625 4 
L 14.015625 -11.625 
L 7.71875 -11.625 
L 11.71875 4 
z
" id="DejaVuSans-44"/>
      <path id="DejaVuSans-32"/>
      <path d="M 34.28125 27.484375 
Q 23.390625 27.484375 19.1875 25 
Q 14.984375 22.515625 14.984375 16.5 
Q 14.984375 11.71875 18.140625 8.90625 
Q 21.296875 6.109375 26.703125 6.109375 
Q 34.1875 6.109375 38.703125 11.40625 
Q 43.21875 16.703125 43.21875 25.484375 
L 43.21875 27.484375 
z
M 52.203125 31.203125 
L 52.203125 0 
L 43.21875 0 
L 43.21875 8.296875 
Q 40.140625 3.328125 35.546875 0.953125 
Q 30.953125 -1.421875 24.3125 -1.421875 
Q 15.921875 -1.421875 10.953125 3.296875 
Q 6 8.015625 6 15.921875 
Q 6 25.140625 12.171875 29.828125 
Q 18.359375 34.515625 30.609375 34.515625 
L 43.21875 34.515625 
L 43.21875 35.40625 
Q 43.21875 41.609375 39.140625 45 
Q 35.0625 48.390625 27.6875 48.390625 
Q 23 48.390625 18.546875 47.265625 
Q 14.109375 46.140625 10.015625 43.890625 
L 10.015625 52.203125 
Q 14.9375 54.109375 19.578125 55.046875 
Q 24.21875 56 28.609375 56 
Q 40.484375 56 46.34375 49.84375 
Q 52.203125 43.703125 52.203125 31.203125 
z
" id="DejaVuSans-97"/>
      <path d="M 48.6875 27.296875 
Q 48.6875 37.203125 44.609375 42.84375 
Q 40.53125 48.484375 33.40625 48.484375 
Q 26.265625 48.484375 22.1875 42.84375 
Q 18.109375 37.203125 18.109375 27.296875 
Q 18.109375 17.390625 22.1875 11.75 
Q 26.265625 6.109375 33.40625 6.109375 
Q 40.53125 6.109375 44.609375 11.75 
Q 48.6875 17.390625 48.6875 27.296875 
z
M 18.109375 46.390625 
Q 20.953125 51.265625 25.265625 53.625 
Q 29.59375 56 35.59375 56 
Q 45.5625 56 51.78125 48.09375 
Q 58.015625 40.1875 58.015625 27.296875 
Q 58.015625 14.40625 51.78125 6.484375 
Q 45.5625 -1.421875 35.59375 -1.421875 
Q 29.59375 -1.421875 25.265625 0.953125 
Q 20.953125 3.328125 18.109375 8.203125 
L 18.109375 0 
L 9.078125 0 
L 9.078125 75.984375 
L 18.109375 75.984375 
z
" id="DejaVuSans-98"/>
      <path d="M 41.109375 46.296875 
Q 39.59375 47.171875 37.8125 47.578125 
Q 36.03125 48 33.890625 48 
Q 26.265625 48 22.1875 43.046875 
Q 18.109375 38.09375 18.109375 28.8125 
L 18.109375 0 
L 9.078125 0 
L 9.078125 54.6875 
L 18.109375 54.6875 
L 18.109375 46.1875 
Q 20.953125 51.171875 25.484375 53.578125 
Q 30.03125 56 36.53125 56 
Q 37.453125 56 38.578125 55.875 
Q 39.703125 55.765625 41.0625 55.515625 
z
" id="DejaVuSans-114"/>
      <path d="M 9.078125 75.984375 
L 18.109375 75.984375 
L 18.109375 31.109375 
L 44.921875 54.6875 
L 56.390625 54.6875 
L 27.390625 29.109375 
L 57.625 0 
L 45.90625 0 
L 18.109375 26.703125 
L 18.109375 0 
L 9.078125 0 
z
" id="DejaVuSans-107"/>
      <path d="M 44.28125 53.078125 
L 44.28125 44.578125 
Q 40.484375 46.53125 36.375 47.5 
Q 32.28125 48.484375 27.875 48.484375 
Q 21.1875 48.484375 17.84375 46.4375 
Q 14.5 44.390625 14.5 40.28125 
Q 14.5 37.15625 16.890625 35.375 
Q 19.28125 33.59375 26.515625 31.984375 
L 29.59375 31.296875 
Q 39.15625 29.25 43.1875 25.515625 
Q 47.21875 21.78125 47.21875 15.09375 
Q 47.21875 7.46875 41.1875 3.015625 
Q 35.15625 -1.421875 24.609375 -1.421875 
Q 20.21875 -1.421875 15.453125 -0.5625 
Q 10.6875 0.296875 5.421875 2 
L 5.421875 11.28125 
Q 10.40625 8.6875 15.234375 7.390625 
Q 20.0625 6.109375 24.8125 6.109375 
Q 31.15625 6.109375 34.5625 8.28125 
Q 37.984375 10.453125 37.984375 14.40625 
Q 37.984375 18.0625 35.515625 20.015625 
Q 33.0625 21.96875 24.703125 23.78125 
L 21.578125 24.515625 
Q 13.234375 26.265625 9.515625 29.90625 
Q 5.8125 33.546875 5.8125 39.890625 
Q 5.8125 47.609375 11.28125 51.796875 
Q 16.75 56 26.8125 56 
Q 31.78125 56 36.171875 55.265625 
Q 40.578125 54.546875 44.28125 53.078125 
z
" id="DejaVuSans-115"/>
     </defs>
     <use xlink:href="#DejaVuSans-109"/>
     <use x="97.412109" xlink:href="#DejaVuSans-111"/>
     <use x="158.59375" xlink:href="#DejaVuSans-100"/>
     <use x="222.070312" xlink:href="#DejaVuSans-101"/>
     <use x="283.59375" xlink:href="#DejaVuSans-108"/>
     <use x="311.376953" xlink:href="#DejaVuSans-116"/>
     <use x="350.585938" xlink:href="#DejaVuSans-121"/>
     <use x="409.765625" xlink:href="#DejaVuSans-112"/>
     <use x="473.242188" xlink:href="#DejaVuSans-101"/>
     <use x="534.765625" xlink:href="#DejaVuSans-61"/>
     <use x="618.554688" xlink:href="#DejaVuSans-102"/>
     <use x="653.759766" xlink:href="#DejaVuSans-117"/>
     <use x="717.138672" xlink:href="#DejaVuSans-108"/>
     <use x="744.921875" xlink:href="#DejaVuSans-108"/>
     <use x="772.705078" xlink:href="#DejaVuSans-44"/>
     <use x="804.492188" xlink:href="#DejaVuSans-32"/>
     <use x="836.279297" xlink:href="#DejaVuSans-108"/>
     <use x="864.0625" xlink:href="#DejaVuSans-97"/>
     <use x="925.341797" xlink:href="#DejaVuSans-98"/>
     <use x="988.818359" xlink:href="#DejaVuSans-111"/>
     <use x="1050" xlink:href="#DejaVuSans-114"/>
     <use x="1089.363281" xlink:href="#DejaVuSans-109"/>
     <use x="1186.775391" xlink:href="#DejaVuSans-97"/>
     <use x="1248.054688" xlink:href="#DejaVuSans-114"/>
     <use x="1289.167969" xlink:href="#DejaVuSans-107"/>
     <use x="1343.453125" xlink:href="#DejaVuSans-101"/>
     <use x="1404.976562" xlink:href="#DejaVuSans-116"/>
     <use x="1444.185547" xlink:href="#DejaVuSans-61"/>
     <use x="1527.974609" xlink:href="#DejaVuSans-98"/>
     <use x="1591.451172" xlink:href="#DejaVuSans-105"/>
     <use x="1619.234375" xlink:href="#DejaVuSans-97"/>
     <use x="1680.513672" xlink:href="#DejaVuSans-115"/>
     <use x="1732.613281" xlink:href="#DejaVuSans-101"/>
     <use x="1794.136719" xlink:href="#DejaVuSans-100"/>
    </g>
   </g>
   <g id="legend_1">
    <g id="patch_5">
     <path d="M 70 107.58875 
L 235.407813 107.58875 
Q 237.407813 107.58875 237.407813 105.58875 
L 237.407813 32.92 
Q 237.407813 30.92 235.407813 30.92 
L 70 30.92 
Q 68 30.92 68 32.92 
L 68 105.58875 
Q 68 107.58875 70 107.58875 
z
" style="fill:#ffffff;opacity:0.8;stroke:#cccccc;stroke-linejoin:miter;"/>
    </g>
    <g id="text_19">
     <!-- scenario -->
     <g transform="translate(131.536719 42.518438)scale(0.1 -0.1)">
      <defs>
       <path d="M 54.890625 33.015625 
L 54.890625 0 
L 45.90625 0 
L 45.90625 32.71875 
Q 45.90625 40.484375 42.875 44.328125 
Q 39.84375 48.1875 33.796875 48.1875 
Q 26.515625 48.1875 22.3125 43.546875 
Q 18.109375 38.921875 18.109375 30.90625 
L 18.109375 0 
L 9.078125 0 
L 9.078125 54.6875 
L 18.109375 54.6875 
L 18.109375 46.1875 
Q 21.34375 51.125 25.703125 53.5625 
Q 30.078125 56 35.796875 56 
Q 45.21875 56 50.046875 50.171875 
Q 54.890625 44.34375 54.890625 33.015625 
z
" id="DejaVuSans-110"/>
      </defs>
      <use xlink:href="#DejaVuSans-115"/>
      <use x="52.099609" xlink:href="#DejaVuSans-99"/>
      <use x="107.080078" xlink:href="#DejaVuSans-101"/>
      <use x="168.603516" xlink:href="#DejaVuSans-110"/>
      <use x="231.982422" xlink:href="#DejaVuSans-97"/>
      <use x="293.261719" xlink:href="#DejaVuSans-114"/>
      <use x="334.375" xlink:href="#DejaVuSans-105"/>
      <use x="362.158203" xlink:href="#DejaVuSans-111"/>
     </g>
    </g>
    <g id="line2d_24">
     <path d="M 72 53.696562 
L 92 53.696562 
" style="fill:none;stroke:#1f77b4;stroke-linecap:square;stroke-width:1.5;"/>
    </g>
    <g id="line2d_25"/>
    <g id="text_20">
     <!-- onlylow -->
     <g transform="translate(100 57.196562)scale(0.1 -0.1)">
      <defs>
       <path d="M 4.203125 54.6875 
L 13.1875 54.6875 
L 24.421875 12.015625 
L 35.59375 54.6875 
L 46.1875 54.6875 
L 57.421875 12.015625 
L 68.609375 54.6875 
L 77.59375 54.6875 
L 63.28125 0 
L 52.6875 0 
L 40.921875 44.828125 
L 29.109375 0 
L 18.5 0 
z
" id="DejaVuSans-119"/>
      </defs>
      <use xlink:href="#DejaVuSans-111"/>
      <use x="61.181641" xlink:href="#DejaVuSans-110"/>
      <use x="124.560547" xlink:href="#DejaVuSans-108"/>
      <use x="152.34375" xlink:href="#DejaVuSans-121"/>
      <use x="211.523438" xlink:href="#DejaVuSans-108"/>
      <use x="239.306641" xlink:href="#DejaVuSans-111"/>
      <use x="300.488281" xlink:href="#DejaVuSans-119"/>
     </g>
    </g>
    <g id="line2d_26">
     <path d="M 72 68.374687 
L 92 68.374687 
" style="fill:none;stroke:#ff7f0e;stroke-linecap:square;stroke-width:1.5;"/>
    </g>
    <g id="line2d_27"/>
    <g id="text_21">
     <!-- onlyhigh -->
     <g transform="translate(100 71.874687)scale(0.1 -0.1)">
      <defs>
       <path d="M 54.890625 33.015625 
L 54.890625 0 
L 45.90625 0 
L 45.90625 32.71875 
Q 45.90625 40.484375 42.875 44.328125 
Q 39.84375 48.1875 33.796875 48.1875 
Q 26.515625 48.1875 22.3125 43.546875 
Q 18.109375 38.921875 18.109375 30.90625 
L 18.109375 0 
L 9.078125 0 
L 9.078125 75.984375 
L 18.109375 75.984375 
L 18.109375 46.1875 
Q 21.34375 51.125 25.703125 53.5625 
Q 30.078125 56 35.796875 56 
Q 45.21875 56 50.046875 50.171875 
Q 54.890625 44.34375 54.890625 33.015625 
z
" id="DejaVuSans-104"/>
       <path d="M 45.40625 27.984375 
Q 45.40625 37.75 41.375 43.109375 
Q 37.359375 48.484375 30.078125 48.484375 
Q 22.859375 48.484375 18.828125 43.109375 
Q 14.796875 37.75 14.796875 27.984375 
Q 14.796875 18.265625 18.828125 12.890625 
Q 22.859375 7.515625 30.078125 7.515625 
Q 37.359375 7.515625 41.375 12.890625 
Q 45.40625 18.265625 45.40625 27.984375 
z
M 54.390625 6.78125 
Q 54.390625 -7.171875 48.1875 -13.984375 
Q 42 -20.796875 29.203125 -20.796875 
Q 24.46875 -20.796875 20.265625 -20.09375 
Q 16.0625 -19.390625 12.109375 -17.921875 
L 12.109375 -9.1875 
Q 16.0625 -11.328125 19.921875 -12.34375 
Q 23.78125 -13.375 27.78125 -13.375 
Q 36.625 -13.375 41.015625 -8.765625 
Q 45.40625 -4.15625 45.40625 5.171875 
L 45.40625 9.625 
Q 42.625 4.78125 38.28125 2.390625 
Q 33.9375 0 27.875 0 
Q 17.828125 0 11.671875 7.65625 
Q 5.515625 15.328125 5.515625 27.984375 
Q 5.515625 40.671875 11.671875 48.328125 
Q 17.828125 56 27.875 56 
Q 33.9375 56 38.28125 53.609375 
Q 42.625 51.21875 45.40625 46.390625 
L 45.40625 54.6875 
L 54.390625 54.6875 
z
" id="DejaVuSans-103"/>
      </defs>
      <use xlink:href="#DejaVuSans-111"/>
      <use x="61.181641" xlink:href="#DejaVuSans-110"/>
      <use x="124.560547" xlink:href="#DejaVuSans-108"/>
      <use x="152.34375" xlink:href="#DejaVuSans-121"/>
      <use x="211.523438" xlink:href="#DejaVuSans-104"/>
      <use x="274.902344" xlink:href="#DejaVuSans-105"/>
      <use x="302.685547" xlink:href="#DejaVuSans-103"/>
      <use x="366.162109" xlink:href="#DejaVuSans-104"/>
     </g>
    </g>
    <g id="line2d_28">
     <path d="M 72 83.052813 
L 92 83.052813 
" style="fill:none;stroke:#2ca02c;stroke-linecap:square;stroke-width:1.5;"/>
    </g>
    <g id="line2d_29"/>
    <g id="text_22">
     <!-- balanced -->
     <g transform="translate(100 86.552813)scale(0.1 -0.1)">
      <use xlink:href="#DejaVuSans-98"/>
      <use x="63.476562" xlink:href="#DejaVuSans-97"/>
      <use x="124.755859" xlink:href="#DejaVuSans-108"/>
      <use x="152.539062" xlink:href="#DejaVuSans-97"/>
      <use x="213.818359" xlink:href="#DejaVuSans-110"/>
      <use x="277.197266" xlink:href="#DejaVuSans-99"/>
      <use x="332.177734" xlink:href="#DejaVuSans-101"/>
      <use x="393.701172" xlink:href="#DejaVuSans-100"/>
     </g>
    </g>
    <g id="line2d_30">
     <path d="M 72 97.730938 
L 92 97.730938 
" style="fill:none;stroke:#d62728;stroke-linecap:square;stroke-width:1.5;"/>
    </g>
    <g id="line2d_31"/>
    <g id="text_23">
     <!-- balanced_errors_penalized -->
     <g transform="translate(100 101.230938)scale(0.1 -0.1)">
      <defs>
       <path d="M 50.984375 -16.609375 
L 50.984375 -23.578125 
L -0.984375 -23.578125 
L -0.984375 -16.609375 
z
" id="DejaVuSans-95"/>
       <path d="M 5.515625 54.6875 
L 48.1875 54.6875 
L 48.1875 46.484375 
L 14.40625 7.171875 
L 48.1875 7.171875 
L 48.1875 0 
L 4.296875 0 
L 4.296875 8.203125 
L 38.09375 47.515625 
L 5.515625 47.515625 
z
" id="DejaVuSans-122"/>
      </defs>
      <use xlink:href="#DejaVuSans-98"/>
      <use x="63.476562" xlink:href="#DejaVuSans-97"/>
      <use x="124.755859" xlink:href="#DejaVuSans-108"/>
      <use x="152.539062" xlink:href="#DejaVuSans-97"/>
      <use x="213.818359" xlink:href="#DejaVuSans-110"/>
      <use x="277.197266" xlink:href="#DejaVuSans-99"/>
      <use x="332.177734" xlink:href="#DejaVuSans-101"/>
      <use x="393.701172" xlink:href="#DejaVuSans-100"/>
      <use x="457.177734" xlink:href="#DejaVuSans-95"/>
      <use x="507.177734" xlink:href="#DejaVuSans-101"/>
      <use x="568.701172" xlink:href="#DejaVuSans-114"/>
      <use x="608.064453" xlink:href="#DejaVuSans-114"/>
      <use x="646.927734" xlink:href="#DejaVuSans-111"/>
      <use x="708.109375" xlink:href="#DejaVuSans-114"/>
      <use x="749.222656" xlink:href="#DejaVuSans-115"/>
      <use x="801.322266" xlink:href="#DejaVuSans-95"/>
      <use x="851.322266" xlink:href="#DejaVuSans-112"/>
      <use x="914.798828" xlink:href="#DejaVuSans-101"/>
      <use x="976.322266" xlink:href="#DejaVuSans-110"/>
      <use x="1039.701172" xlink:href="#DejaVuSans-97"/>
      <use x="1100.980469" xlink:href="#DejaVuSans-108"/>
      <use x="1128.763672" xlink:href="#DejaVuSans-105"/>
      <use x="1156.546875" xlink:href="#DejaVuSans-122"/>
      <use x="1209.037109" xlink:href="#DejaVuSans-101"/>
      <use x="1270.560547" xlink:href="#DejaVuSans-100"/>
     </g>
    </g>
   </g>
  </g>
 </g>
 <defs>
  <clipPath id="p8ae4a5fa2b">
   <rect height="166.32" width="390.6" x="63" y="25.92"/>
  </clipPath>
 </defs>
</svg>
