<?xml version="1.0" encoding="utf-8" standalone="no"?>
<!DOCTYPE svg PUBLIC "-//W3C//DTD SVG 1.1//EN"
  "http://www.w3.org/Graphics/SVG/1.1/DTD/svg11.dtd">
<!-- Created with matplotlib (https://matplotlib.org/) -->
<svg height="216pt" version="1.1" viewBox="0 0 504 216" width="504pt" xmlns="http://www.w3.org/2000/svg" xmlns:xlink="http://www.w3.org/1999/xlink">
 <metadata>
  <rdf:RDF xmlns:cc="http://creativecommons.org/ns#" xmlns:dc="http://purl.org/dc/elements/1.1/" xmlns:rdf="http://www.w3.org/1999/02/22-rdf-syntax-ns#">
   <cc:Work>
    <dc:type rdf:resource="http://purl.org/dc/dcmitype/StillImage"/>
    <dc:date>2021-11-26T09:55:13.193473</dc:date>
    <dc:format>image/svg+xml</dc:format>
    <dc:creator>
     <cc:Agent>
      <dc:title>Matplotlib v3.3.4, https://matplotlib.org/</dc:title>
     </cc:Agent>
    </dc:creator>
   </cc:Work>
  </rdf:RDF>
 </metadata>
 <defs>
  <style type="text/css">*{stroke-linecap:butt;stroke-linejoin:round;}</style>
 </defs>
 <g id="figure_1">
  <g id="patch_1">
   <path d="M 0 216 
L 504 216 
L 504 0 
L 0 0 
z
" style="fill:#ffffff;"/>
  </g>
  <g id="axes_1">
   <g id="patch_2">
    <path d="M 63 192.24 
L 453.6 192.24 
L 453.6 25.92 
L 63 25.92 
z
" style="fill:#ffffff;"/>
   </g>
   <g id="matplotlib.axis_1">
    <g id="xtick_1">
     <g id="line2d_1">
      <defs>
       <path d="M 0 0 
L 0 3.5 
" id="m9a238ceaba" style="stroke:#000000;stroke-width:0.8;"/>
      </defs>
      <g>
       <use style="stroke:#000000;stroke-width:0.8;" x="79.862357" xlink:href="#m9a238ceaba" y="192.24"/>
      </g>
     </g>
     <g id="text_1">
      <!-- 400 -->
      <g transform="translate(70.318607 206.838437)scale(0.1 -0.1)">
       <defs>
        <path d="M 37.796875 64.3125 
L 12.890625 25.390625 
L 37.796875 25.390625 
z
M 35.203125 72.90625 
L 47.609375 72.90625 
L 47.609375 25.390625 
L 58.015625 25.390625 
L 58.015625 17.1875 
L 47.609375 17.1875 
L 47.609375 0 
L 37.796875 0 
L 37.796875 17.1875 
L 4.890625 17.1875 
L 4.890625 26.703125 
z
" id="DejaVuSans-52"/>
        <path d="M 31.78125 66.40625 
Q 24.171875 66.40625 20.328125 58.90625 
Q 16.5 51.421875 16.5 36.375 
Q 16.5 21.390625 20.328125 13.890625 
Q 24.171875 6.390625 31.78125 6.390625 
Q 39.453125 6.390625 43.28125 13.890625 
Q 47.125 21.390625 47.125 36.375 
Q 47.125 51.421875 43.28125 58.90625 
Q 39.453125 66.40625 31.78125 66.40625 
z
M 31.78125 74.21875 
Q 44.046875 74.21875 50.515625 64.515625 
Q 56.984375 54.828125 56.984375 36.375 
Q 56.984375 17.96875 50.515625 8.265625 
Q 44.046875 -1.421875 31.78125 -1.421875 
Q 19.53125 -1.421875 13.0625 8.265625 
Q 6.59375 17.96875 6.59375 36.375 
Q 6.59375 54.828125 13.0625 64.515625 
Q 19.53125 74.21875 31.78125 74.21875 
z
" id="DejaVuSans-48"/>
       </defs>
       <use xlink:href="#DejaVuSans-52"/>
       <use x="63.623047" xlink:href="#DejaVuSans-48"/>
       <use x="127.246094" xlink:href="#DejaVuSans-48"/>
      </g>
     </g>
    </g>
    <g id="xtick_2">
     <g id="line2d_2">
      <g>
       <use style="stroke:#000000;stroke-width:0.8;" x="124.471768" xlink:href="#m9a238ceaba" y="192.24"/>
      </g>
     </g>
     <g id="text_2">
      <!-- 450 -->
      <g transform="translate(114.928018 206.838437)scale(0.1 -0.1)">
       <defs>
        <path d="M 10.796875 72.90625 
L 49.515625 72.90625 
L 49.515625 64.59375 
L 19.828125 64.59375 
L 19.828125 46.734375 
Q 21.96875 47.46875 24.109375 47.828125 
Q 26.265625 48.1875 28.421875 48.1875 
Q 40.625 48.1875 47.75 41.5 
Q 54.890625 34.8125 54.890625 23.390625 
Q 54.890625 11.625 47.5625 5.09375 
Q 40.234375 -1.421875 26.90625 -1.421875 
Q 22.3125 -1.421875 17.546875 -0.640625 
Q 12.796875 0.140625 7.71875 1.703125 
L 7.71875 11.625 
Q 12.109375 9.234375 16.796875 8.0625 
Q 21.484375 6.890625 26.703125 6.890625 
Q 35.15625 6.890625 40.078125 11.328125 
Q 45.015625 15.765625 45.015625 23.390625 
Q 45.015625 31 40.078125 35.4375 
Q 35.15625 39.890625 26.703125 39.890625 
Q 22.75 39.890625 18.8125 39.015625 
Q 14.890625 38.140625 10.796875 36.28125 
z
" id="DejaVuSans-53"/>
       </defs>
       <use xlink:href="#DejaVuSans-52"/>
       <use x="63.623047" xlink:href="#DejaVuSans-53"/>
       <use x="127.246094" xlink:href="#DejaVuSans-48"/>
      </g>
     </g>
    </g>
    <g id="xtick_3">
     <g id="line2d_3">
      <g>
       <use style="stroke:#000000;stroke-width:0.8;" x="169.081179" xlink:href="#m9a238ceaba" y="192.24"/>
      </g>
     </g>
     <g id="text_3">
      <!-- 500 -->
      <g transform="translate(159.537429 206.838437)scale(0.1 -0.1)">
       <use xlink:href="#DejaVuSans-53"/>
       <use x="63.623047" xlink:href="#DejaVuSans-48"/>
       <use x="127.246094" xlink:href="#DejaVuSans-48"/>
      </g>
     </g>
    </g>
    <g id="xtick_4">
     <g id="line2d_4">
      <g>
       <use style="stroke:#000000;stroke-width:0.8;" x="213.690589" xlink:href="#m9a238ceaba" y="192.24"/>
      </g>
     </g>
     <g id="text_4">
      <!-- 550 -->
      <g transform="translate(204.146839 206.838437)scale(0.1 -0.1)">
       <use xlink:href="#DejaVuSans-53"/>
       <use x="63.623047" xlink:href="#DejaVuSans-53"/>
       <use x="127.246094" xlink:href="#DejaVuSans-48"/>
      </g>
     </g>
    </g>
    <g id="xtick_5">
     <g id="line2d_5">
      <g>
       <use style="stroke:#000000;stroke-width:0.8;" x="258.3" xlink:href="#m9a238ceaba" y="192.24"/>
      </g>
     </g>
     <g id="text_5">
      <!-- 600 -->
      <g transform="translate(248.75625 206.838437)scale(0.1 -0.1)">
       <defs>
        <path d="M 33.015625 40.375 
Q 26.375 40.375 22.484375 35.828125 
Q 18.609375 31.296875 18.609375 23.390625 
Q 18.609375 15.53125 22.484375 10.953125 
Q 26.375 6.390625 33.015625 6.390625 
Q 39.65625 6.390625 43.53125 10.953125 
Q 47.40625 15.53125 47.40625 23.390625 
Q 47.40625 31.296875 43.53125 35.828125 
Q 39.65625 40.375 33.015625 40.375 
z
M 52.59375 71.296875 
L 52.59375 62.3125 
Q 48.875 64.0625 45.09375 64.984375 
Q 41.3125 65.921875 37.59375 65.921875 
Q 27.828125 65.921875 22.671875 59.328125 
Q 17.53125 52.734375 16.796875 39.40625 
Q 19.671875 43.65625 24.015625 45.921875 
Q 28.375 48.1875 33.59375 48.1875 
Q 44.578125 48.1875 50.953125 41.515625 
Q 57.328125 34.859375 57.328125 23.390625 
Q 57.328125 12.15625 50.6875 5.359375 
Q 44.046875 -1.421875 33.015625 -1.421875 
Q 20.359375 -1.421875 13.671875 8.265625 
Q 6.984375 17.96875 6.984375 36.375 
Q 6.984375 53.65625 15.1875 63.9375 
Q 23.390625 74.21875 37.203125 74.21875 
Q 40.921875 74.21875 44.703125 73.484375 
Q 48.484375 72.75 52.59375 71.296875 
z
" id="DejaVuSans-54"/>
       </defs>
       <use xlink:href="#DejaVuSans-54"/>
       <use x="63.623047" xlink:href="#DejaVuSans-48"/>
       <use x="127.246094" xlink:href="#DejaVuSans-48"/>
      </g>
     </g>
    </g>
    <g id="xtick_6">
     <g id="line2d_6">
      <g>
       <use style="stroke:#000000;stroke-width:0.8;" x="302.909411" xlink:href="#m9a238ceaba" y="192.24"/>
      </g>
     </g>
     <g id="text_6">
      <!-- 650 -->
      <g transform="translate(293.365661 206.838437)scale(0.1 -0.1)">
       <use xlink:href="#DejaVuSans-54"/>
       <use x="63.623047" xlink:href="#DejaVuSans-53"/>
       <use x="127.246094" xlink:href="#DejaVuSans-48"/>
      </g>
     </g>
    </g>
    <g id="xtick_7">
     <g id="line2d_7">
      <g>
       <use style="stroke:#000000;stroke-width:0.8;" x="347.518821" xlink:href="#m9a238ceaba" y="192.24"/>
      </g>
     </g>
     <g id="text_7">
      <!-- 700 -->
      <g transform="translate(337.975071 206.838437)scale(0.1 -0.1)">
       <defs>
        <path d="M 8.203125 72.90625 
L 55.078125 72.90625 
L 55.078125 68.703125 
L 28.609375 0 
L 18.3125 0 
L 43.21875 64.59375 
L 8.203125 64.59375 
z
" id="DejaVuSans-55"/>
       </defs>
       <use xlink:href="#DejaVuSans-55"/>
       <use x="63.623047" xlink:href="#DejaVuSans-48"/>
       <use x="127.246094" xlink:href="#DejaVuSans-48"/>
      </g>
     </g>
    </g>
    <g id="xtick_8">
     <g id="line2d_8">
      <g>
       <use style="stroke:#000000;stroke-width:0.8;" x="392.128232" xlink:href="#m9a238ceaba" y="192.24"/>
      </g>
     </g>
     <g id="text_8">
      <!-- 750 -->
      <g transform="translate(382.584482 206.838437)scale(0.1 -0.1)">
       <use xlink:href="#DejaVuSans-55"/>
       <use x="63.623047" xlink:href="#DejaVuSans-53"/>
       <use x="127.246094" xlink:href="#DejaVuSans-48"/>
      </g>
     </g>
    </g>
    <g id="xtick_9">
     <g id="line2d_9">
      <g>
       <use style="stroke:#000000;stroke-width:0.8;" x="436.737643" xlink:href="#m9a238ceaba" y="192.24"/>
      </g>
     </g>
     <g id="text_9">
      <!-- 800 -->
      <g transform="translate(427.193893 206.838437)scale(0.1 -0.1)">
       <defs>
        <path d="M 31.78125 34.625 
Q 24.75 34.625 20.71875 30.859375 
Q 16.703125 27.09375 16.703125 20.515625 
Q 16.703125 13.921875 20.71875 10.15625 
Q 24.75 6.390625 31.78125 6.390625 
Q 38.8125 6.390625 42.859375 10.171875 
Q 46.921875 13.96875 46.921875 20.515625 
Q 46.921875 27.09375 42.890625 30.859375 
Q 38.875 34.625 31.78125 34.625 
z
M 21.921875 38.8125 
Q 15.578125 40.375 12.03125 44.71875 
Q 8.5 49.078125 8.5 55.328125 
Q 8.5 64.0625 14.71875 69.140625 
Q 20.953125 74.21875 31.78125 74.21875 
Q 42.671875 74.21875 48.875 69.140625 
Q 55.078125 64.0625 55.078125 55.328125 
Q 55.078125 49.078125 51.53125 44.71875 
Q 48 40.375 41.703125 38.8125 
Q 48.828125 37.15625 52.796875 32.3125 
Q 56.78125 27.484375 56.78125 20.515625 
Q 56.78125 9.90625 50.3125 4.234375 
Q 43.84375 -1.421875 31.78125 -1.421875 
Q 19.734375 -1.421875 13.25 4.234375 
Q 6.78125 9.90625 6.78125 20.515625 
Q 6.78125 27.484375 10.78125 32.3125 
Q 14.796875 37.15625 21.921875 38.8125 
z
M 18.3125 54.390625 
Q 18.3125 48.734375 21.84375 45.5625 
Q 25.390625 42.390625 31.78125 42.390625 
Q 38.140625 42.390625 41.71875 45.5625 
Q 45.3125 48.734375 45.3125 54.390625 
Q 45.3125 60.0625 41.71875 63.234375 
Q 38.140625 66.40625 31.78125 66.40625 
Q 25.390625 66.40625 21.84375 63.234375 
Q 18.3125 60.0625 18.3125 54.390625 
z
" id="DejaVuSans-56"/>
       </defs>
       <use xlink:href="#DejaVuSans-56"/>
       <use x="63.623047" xlink:href="#DejaVuSans-48"/>
       <use x="127.246094" xlink:href="#DejaVuSans-48"/>
      </g>
     </g>
    </g>
    <g id="text_10">
     <!-- time -->
     <g transform="translate(247.003906 220.516562)scale(0.1 -0.1)">
      <defs>
       <path d="M 18.3125 70.21875 
L 18.3125 54.6875 
L 36.8125 54.6875 
L 36.8125 47.703125 
L 18.3125 47.703125 
L 18.3125 18.015625 
Q 18.3125 11.328125 20.140625 9.421875 
Q 21.96875 7.515625 27.59375 7.515625 
L 36.8125 7.515625 
L 36.8125 0 
L 27.59375 0 
Q 17.1875 0 13.234375 3.875 
Q 9.28125 7.765625 9.28125 18.015625 
L 9.28125 47.703125 
L 2.6875 47.703125 
L 2.6875 54.6875 
L 9.28125 54.6875 
L 9.28125 70.21875 
z
" id="DejaVuSans-116"/>
       <path d="M 9.421875 54.6875 
L 18.40625 54.6875 
L 18.40625 0 
L 9.421875 0 
z
M 9.421875 75.984375 
L 18.40625 75.984375 
L 18.40625 64.59375 
L 9.421875 64.59375 
z
" id="DejaVuSans-105"/>
       <path d="M 52 44.1875 
Q 55.375 50.25 60.0625 53.125 
Q 64.75 56 71.09375 56 
Q 79.640625 56 84.28125 50.015625 
Q 88.921875 44.046875 88.921875 33.015625 
L 88.921875 0 
L 79.890625 0 
L 79.890625 32.71875 
Q 79.890625 40.578125 77.09375 44.375 
Q 74.3125 48.1875 68.609375 48.1875 
Q 61.625 48.1875 57.5625 43.546875 
Q 53.515625 38.921875 53.515625 30.90625 
L 53.515625 0 
L 44.484375 0 
L 44.484375 32.71875 
Q 44.484375 40.625 41.703125 44.40625 
Q 38.921875 48.1875 33.109375 48.1875 
Q 26.21875 48.1875 22.15625 43.53125 
Q 18.109375 38.875 18.109375 30.90625 
L 18.109375 0 
L 9.078125 0 
L 9.078125 54.6875 
L 18.109375 54.6875 
L 18.109375 46.1875 
Q 21.1875 51.21875 25.484375 53.609375 
Q 29.78125 56 35.6875 56 
Q 41.65625 56 45.828125 52.96875 
Q 50 49.953125 52 44.1875 
z
" id="DejaVuSans-109"/>
       <path d="M 56.203125 29.59375 
L 56.203125 25.203125 
L 14.890625 25.203125 
Q 15.484375 15.921875 20.484375 11.0625 
Q 25.484375 6.203125 34.421875 6.203125 
Q 39.59375 6.203125 44.453125 7.46875 
Q 49.3125 8.734375 54.109375 11.28125 
L 54.109375 2.78125 
Q 49.265625 0.734375 44.1875 -0.34375 
Q 39.109375 -1.421875 33.890625 -1.421875 
Q 20.796875 -1.421875 13.15625 6.1875 
Q 5.515625 13.8125 5.515625 26.8125 
Q 5.515625 40.234375 12.765625 48.109375 
Q 20.015625 56 32.328125 56 
Q 43.359375 56 49.78125 48.890625 
Q 56.203125 41.796875 56.203125 29.59375 
z
M 47.21875 32.234375 
Q 47.125 39.59375 43.09375 43.984375 
Q 39.0625 48.390625 32.421875 48.390625 
Q 24.90625 48.390625 20.390625 44.140625 
Q 15.875 39.890625 15.1875 32.171875 
z
" id="DejaVuSans-101"/>
      </defs>
      <use xlink:href="#DejaVuSans-116"/>
      <use x="39.208984" xlink:href="#DejaVuSans-105"/>
      <use x="66.992188" xlink:href="#DejaVuSans-109"/>
      <use x="164.404297" xlink:href="#DejaVuSans-101"/>
     </g>
    </g>
   </g>
   <g id="matplotlib.axis_2">
    <g id="ytick_1">
     <g id="line2d_10">
      <defs>
       <path d="M 0 0 
L -3.5 0 
" id="mba7e8c23ad" style="stroke:#000000;stroke-width:0.8;"/>
      </defs>
      <g>
       <use style="stroke:#000000;stroke-width:0.8;" x="63" xlink:href="#mba7e8c23ad" y="164.174087"/>
      </g>
     </g>
     <g id="text_11">
      <!-- 0.626 -->
      <g transform="translate(27.371875 167.973306)scale(0.1 -0.1)">
       <defs>
        <path d="M 10.6875 12.40625 
L 21 12.40625 
L 21 0 
L 10.6875 0 
z
" id="DejaVuSans-46"/>
        <path d="M 19.1875 8.296875 
L 53.609375 8.296875 
L 53.609375 0 
L 7.328125 0 
L 7.328125 8.296875 
Q 12.9375 14.109375 22.625 23.890625 
Q 32.328125 33.6875 34.8125 36.53125 
Q 39.546875 41.84375 41.421875 45.53125 
Q 43.3125 49.21875 43.3125 52.78125 
Q 43.3125 58.59375 39.234375 62.25 
Q 35.15625 65.921875 28.609375 65.921875 
Q 23.96875 65.921875 18.8125 64.3125 
Q 13.671875 62.703125 7.8125 59.421875 
L 7.8125 69.390625 
Q 13.765625 71.78125 18.9375 73 
Q 24.125 74.21875 28.421875 74.21875 
Q 39.75 74.21875 46.484375 68.546875 
Q 53.21875 62.890625 53.21875 53.421875 
Q 53.21875 48.921875 51.53125 44.890625 
Q 49.859375 40.875 45.40625 35.40625 
Q 44.1875 33.984375 37.640625 27.21875 
Q 31.109375 20.453125 19.1875 8.296875 
z
" id="DejaVuSans-50"/>
       </defs>
       <use xlink:href="#DejaVuSans-48"/>
       <use x="63.623047" xlink:href="#DejaVuSans-46"/>
       <use x="95.410156" xlink:href="#DejaVuSans-54"/>
       <use x="159.033203" xlink:href="#DejaVuSans-50"/>
       <use x="222.65625" xlink:href="#DejaVuSans-54"/>
      </g>
     </g>
    </g>
    <g id="ytick_2">
     <g id="line2d_11">
      <g>
       <use style="stroke:#000000;stroke-width:0.8;" x="63" xlink:href="#mba7e8c23ad" y="130.623783"/>
      </g>
     </g>
     <g id="text_12">
      <!-- 0.628 -->
      <g transform="translate(27.371875 134.423002)scale(0.1 -0.1)">
       <use xlink:href="#DejaVuSans-48"/>
       <use x="63.623047" xlink:href="#DejaVuSans-46"/>
       <use x="95.410156" xlink:href="#DejaVuSans-54"/>
       <use x="159.033203" xlink:href="#DejaVuSans-50"/>
       <use x="222.65625" xlink:href="#DejaVuSans-56"/>
      </g>
     </g>
    </g>
    <g id="ytick_3">
     <g id="line2d_12">
      <g>
       <use style="stroke:#000000;stroke-width:0.8;" x="63" xlink:href="#mba7e8c23ad" y="97.073479"/>
      </g>
     </g>
     <g id="text_13">
      <!-- 0.630 -->
      <g transform="translate(27.371875 100.872698)scale(0.1 -0.1)">
       <defs>
        <path d="M 40.578125 39.3125 
Q 47.65625 37.796875 51.625 33 
Q 55.609375 28.21875 55.609375 21.1875 
Q 55.609375 10.40625 48.1875 4.484375 
Q 40.765625 -1.421875 27.09375 -1.421875 
Q 22.515625 -1.421875 17.65625 -0.515625 
Q 12.796875 0.390625 7.625 2.203125 
L 7.625 11.71875 
Q 11.71875 9.328125 16.59375 8.109375 
Q 21.484375 6.890625 26.8125 6.890625 
Q 36.078125 6.890625 40.9375 10.546875 
Q 45.796875 14.203125 45.796875 21.1875 
Q 45.796875 27.640625 41.28125 31.265625 
Q 36.765625 34.90625 28.71875 34.90625 
L 20.21875 34.90625 
L 20.21875 43.015625 
L 29.109375 43.015625 
Q 36.375 43.015625 40.234375 45.921875 
Q 44.09375 48.828125 44.09375 54.296875 
Q 44.09375 59.90625 40.109375 62.90625 
Q 36.140625 65.921875 28.71875 65.921875 
Q 24.65625 65.921875 20.015625 65.03125 
Q 15.375 64.15625 9.8125 62.3125 
L 9.8125 71.09375 
Q 15.4375 72.65625 20.34375 73.4375 
Q 25.25 74.21875 29.59375 74.21875 
Q 40.828125 74.21875 47.359375 69.109375 
Q 53.90625 64.015625 53.90625 55.328125 
Q 53.90625 49.265625 50.4375 45.09375 
Q 46.96875 40.921875 40.578125 39.3125 
z
" id="DejaVuSans-51"/>
       </defs>
       <use xlink:href="#DejaVuSans-48"/>
       <use x="63.623047" xlink:href="#DejaVuSans-46"/>
       <use x="95.410156" xlink:href="#DejaVuSans-54"/>
       <use x="159.033203" xlink:href="#DejaVuSans-51"/>
       <use x="222.65625" xlink:href="#DejaVuSans-48"/>
      </g>
     </g>
    </g>
    <g id="ytick_4">
     <g id="line2d_13">
      <g>
       <use style="stroke:#000000;stroke-width:0.8;" x="63" xlink:href="#mba7e8c23ad" y="63.523176"/>
      </g>
     </g>
     <g id="text_14">
      <!-- 0.632 -->
      <g transform="translate(27.371875 67.322395)scale(0.1 -0.1)">
       <use xlink:href="#DejaVuSans-48"/>
       <use x="63.623047" xlink:href="#DejaVuSans-46"/>
       <use x="95.410156" xlink:href="#DejaVuSans-54"/>
       <use x="159.033203" xlink:href="#DejaVuSans-51"/>
       <use x="222.65625" xlink:href="#DejaVuSans-50"/>
      </g>
     </g>
    </g>
    <g id="ytick_5">
     <g id="line2d_14">
      <g>
       <use style="stroke:#000000;stroke-width:0.8;" x="63" xlink:href="#mba7e8c23ad" y="29.972872"/>
      </g>
     </g>
     <g id="text_15">
      <!-- 0.634 -->
      <g transform="translate(27.371875 33.772091)scale(0.1 -0.1)">
       <use xlink:href="#DejaVuSans-48"/>
       <use x="63.623047" xlink:href="#DejaVuSans-46"/>
       <use x="95.410156" xlink:href="#DejaVuSans-54"/>
       <use x="159.033203" xlink:href="#DejaVuSans-51"/>
       <use x="222.65625" xlink:href="#DejaVuSans-52"/>
      </g>
     </g>
    </g>
    <g id="text_16">
     <!-- coef2_standardized -->
     <g transform="translate(21.014062 157.84875)rotate(-90)scale(0.1 -0.1)">
      <defs>
       <path d="M 48.78125 52.59375 
L 48.78125 44.1875 
Q 44.96875 46.296875 41.140625 47.34375 
Q 37.3125 48.390625 33.40625 48.390625 
Q 24.65625 48.390625 19.8125 42.84375 
Q 14.984375 37.3125 14.984375 27.296875 
Q 14.984375 17.28125 19.8125 11.734375 
Q 24.65625 6.203125 33.40625 6.203125 
Q 37.3125 6.203125 41.140625 7.25 
Q 44.96875 8.296875 48.78125 10.40625 
L 48.78125 2.09375 
Q 45.015625 0.34375 40.984375 -0.53125 
Q 36.96875 -1.421875 32.421875 -1.421875 
Q 20.0625 -1.421875 12.78125 6.34375 
Q 5.515625 14.109375 5.515625 27.296875 
Q 5.515625 40.671875 12.859375 48.328125 
Q 20.21875 56 33.015625 56 
Q 37.15625 56 41.109375 55.140625 
Q 45.0625 54.296875 48.78125 52.59375 
z
" id="DejaVuSans-99"/>
       <path d="M 30.609375 48.390625 
Q 23.390625 48.390625 19.1875 42.75 
Q 14.984375 37.109375 14.984375 27.296875 
Q 14.984375 17.484375 19.15625 11.84375 
Q 23.34375 6.203125 30.609375 6.203125 
Q 37.796875 6.203125 41.984375 11.859375 
Q 46.1875 17.53125 46.1875 27.296875 
Q 46.1875 37.015625 41.984375 42.703125 
Q 37.796875 48.390625 30.609375 48.390625 
z
M 30.609375 56 
Q 42.328125 56 49.015625 48.375 
Q 55.71875 40.765625 55.71875 27.296875 
Q 55.71875 13.875 49.015625 6.21875 
Q 42.328125 -1.421875 30.609375 -1.421875 
Q 18.84375 -1.421875 12.171875 6.21875 
Q 5.515625 13.875 5.515625 27.296875 
Q 5.515625 40.765625 12.171875 48.375 
Q 18.84375 56 30.609375 56 
z
" id="DejaVuSans-111"/>
       <path d="M 37.109375 75.984375 
L 37.109375 68.5 
L 28.515625 68.5 
Q 23.6875 68.5 21.796875 66.546875 
Q 19.921875 64.59375 19.921875 59.515625 
L 19.921875 54.6875 
L 34.71875 54.6875 
L 34.71875 47.703125 
L 19.921875 47.703125 
L 19.921875 0 
L 10.890625 0 
L 10.890625 47.703125 
L 2.296875 47.703125 
L 2.296875 54.6875 
L 10.890625 54.6875 
L 10.890625 58.5 
Q 10.890625 67.625 15.140625 71.796875 
Q 19.390625 75.984375 28.609375 75.984375 
z
" id="DejaVuSans-102"/>
       <path d="M 50.984375 -16.609375 
L 50.984375 -23.578125 
L -0.984375 -23.578125 
L -0.984375 -16.609375 
z
" id="DejaVuSans-95"/>
       <path d="M 44.28125 53.078125 
L 44.28125 44.578125 
Q 40.484375 46.53125 36.375 47.5 
Q 32.28125 48.484375 27.875 48.484375 
Q 21.1875 48.484375 17.84375 46.4375 
Q 14.5 44.390625 14.5 40.28125 
Q 14.5 37.15625 16.890625 35.375 
Q 19.28125 33.59375 26.515625 31.984375 
L 29.59375 31.296875 
Q 39.15625 29.25 43.1875 25.515625 
Q 47.21875 21.78125 47.21875 15.09375 
Q 47.21875 7.46875 41.1875 3.015625 
Q 35.15625 -1.421875 24.609375 -1.421875 
Q 20.21875 -1.421875 15.453125 -0.5625 
Q 10.6875 0.296875 5.421875 2 
L 5.421875 11.28125 
Q 10.40625 8.6875 15.234375 7.390625 
Q 20.0625 6.109375 24.8125 6.109375 
Q 31.15625 6.109375 34.5625 8.28125 
Q 37.984375 10.453125 37.984375 14.40625 
Q 37.984375 18.0625 35.515625 20.015625 
Q 33.0625 21.96875 24.703125 23.78125 
L 21.578125 24.515625 
Q 13.234375 26.265625 9.515625 29.90625 
Q 5.8125 33.546875 5.8125 39.890625 
Q 5.8125 47.609375 11.28125 51.796875 
Q 16.75 56 26.8125 56 
Q 31.78125 56 36.171875 55.265625 
Q 40.578125 54.546875 44.28125 53.078125 
z
" id="DejaVuSans-115"/>
       <path d="M 34.28125 27.484375 
Q 23.390625 27.484375 19.1875 25 
Q 14.984375 22.515625 14.984375 16.5 
Q 14.984375 11.71875 18.140625 8.90625 
Q 21.296875 6.109375 26.703125 6.109375 
Q 34.1875 6.109375 38.703125 11.40625 
Q 43.21875 16.703125 43.21875 25.484375 
L 43.21875 27.484375 
z
M 52.203125 31.203125 
L 52.203125 0 
L 43.21875 0 
L 43.21875 8.296875 
Q 40.140625 3.328125 35.546875 0.953125 
Q 30.953125 -1.421875 24.3125 -1.421875 
Q 15.921875 -1.421875 10.953125 3.296875 
Q 6 8.015625 6 15.921875 
Q 6 25.140625 12.171875 29.828125 
Q 18.359375 34.515625 30.609375 34.515625 
L 43.21875 34.515625 
L 43.21875 35.40625 
Q 43.21875 41.609375 39.140625 45 
Q 35.0625 48.390625 27.6875 48.390625 
Q 23 48.390625 18.546875 47.265625 
Q 14.109375 46.140625 10.015625 43.890625 
L 10.015625 52.203125 
Q 14.9375 54.109375 19.578125 55.046875 
Q 24.21875 56 28.609375 56 
Q 40.484375 56 46.34375 49.84375 
Q 52.203125 43.703125 52.203125 31.203125 
z
" id="DejaVuSans-97"/>
       <path d="M 54.890625 33.015625 
L 54.890625 0 
L 45.90625 0 
L 45.90625 32.71875 
Q 45.90625 40.484375 42.875 44.328125 
Q 39.84375 48.1875 33.796875 48.1875 
Q 26.515625 48.1875 22.3125 43.546875 
Q 18.109375 38.921875 18.109375 30.90625 
L 18.109375 0 
L 9.078125 0 
L 9.078125 54.6875 
L 18.109375 54.6875 
L 18.109375 46.1875 
Q 21.34375 51.125 25.703125 53.5625 
Q 30.078125 56 35.796875 56 
Q 45.21875 56 50.046875 50.171875 
Q 54.890625 44.34375 54.890625 33.015625 
z
" id="DejaVuSans-110"/>
       <path d="M 45.40625 46.390625 
L 45.40625 75.984375 
L 54.390625 75.984375 
L 54.390625 0 
L 45.40625 0 
L 45.40625 8.203125 
Q 42.578125 3.328125 38.25 0.953125 
Q 33.9375 -1.421875 27.875 -1.421875 
Q 17.96875 -1.421875 11.734375 6.484375 
Q 5.515625 14.40625 5.515625 27.296875 
Q 5.515625 40.1875 11.734375 48.09375 
Q 17.96875 56 27.875 56 
Q 33.9375 56 38.25 53.625 
Q 42.578125 51.265625 45.40625 46.390625 
z
M 14.796875 27.296875 
Q 14.796875 17.390625 18.875 11.75 
Q 22.953125 6.109375 30.078125 6.109375 
Q 37.203125 6.109375 41.296875 11.75 
Q 45.40625 17.390625 45.40625 27.296875 
Q 45.40625 37.203125 41.296875 42.84375 
Q 37.203125 48.484375 30.078125 48.484375 
Q 22.953125 48.484375 18.875 42.84375 
Q 14.796875 37.203125 14.796875 27.296875 
z
" id="DejaVuSans-100"/>
       <path d="M 41.109375 46.296875 
Q 39.59375 47.171875 37.8125 47.578125 
Q 36.03125 48 33.890625 48 
Q 26.265625 48 22.1875 43.046875 
Q 18.109375 38.09375 18.109375 28.8125 
L 18.109375 0 
L 9.078125 0 
L 9.078125 54.6875 
L 18.109375 54.6875 
L 18.109375 46.1875 
Q 20.953125 51.171875 25.484375 53.578125 
Q 30.03125 56 36.53125 56 
Q 37.453125 56 38.578125 55.875 
Q 39.703125 55.765625 41.0625 55.515625 
z
" id="DejaVuSans-114"/>
       <path d="M 5.515625 54.6875 
L 48.1875 54.6875 
L 48.1875 46.484375 
L 14.40625 7.171875 
L 48.1875 7.171875 
L 48.1875 0 
L 4.296875 0 
L 4.296875 8.203125 
L 38.09375 47.515625 
L 5.515625 47.515625 
z
" id="DejaVuSans-122"/>
      </defs>
      <use xlink:href="#DejaVuSans-99"/>
      <use x="54.980469" xlink:href="#DejaVuSans-111"/>
      <use x="116.162109" xlink:href="#DejaVuSans-101"/>
      <use x="177.685547" xlink:href="#DejaVuSans-102"/>
      <use x="212.890625" xlink:href="#DejaVuSans-50"/>
      <use x="276.513672" xlink:href="#DejaVuSans-95"/>
      <use x="326.513672" xlink:href="#DejaVuSans-115"/>
      <use x="378.613281" xlink:href="#DejaVuSans-116"/>
      <use x="417.822266" xlink:href="#DejaVuSans-97"/>
      <use x="479.101562" xlink:href="#DejaVuSans-110"/>
      <use x="542.480469" xlink:href="#DejaVuSans-100"/>
      <use x="605.957031" xlink:href="#DejaVuSans-97"/>
      <use x="667.236328" xlink:href="#DejaVuSans-114"/>
      <use x="706.599609" xlink:href="#DejaVuSans-100"/>
      <use x="770.076172" xlink:href="#DejaVuSans-105"/>
      <use x="797.859375" xlink:href="#DejaVuSans-122"/>
      <use x="850.349609" xlink:href="#DejaVuSans-101"/>
      <use x="911.873047" xlink:href="#DejaVuSans-100"/>
     </g>
    </g>
   </g>
   <g id="line2d_15">
    <path clip-path="url(#paa4d24db4e)" d="M 80.754545 107.873318 
L 81.646734 107.826034 
L 82.538922 108.502144 
L 83.43111 108.2803 
L 84.323298 109.37418 
L 85.215487 109.610312 
L 86.107675 108.213962 
L 86.999863 109.373903 
L 87.892051 106.459454 
L 88.784239 108.190547 
L 89.676428 108.719041 
L 90.568616 106.275019 
L 91.460804 106.985083 
L 92.352992 108.213052 
L 93.24518 111.308922 
L 94.137369 111.502696 
L 95.029557 113.960922 
L 95.921745 115.208211 
L 96.813933 113.997961 
L 97.706122 111.094828 
L 98.59831 112.277009 
L 99.490498 111.696365 
L 100.382686 112.453969 
L 101.274874 112.522436 
L 102.167063 110.723204 
L 103.951439 113.686882 
L 104.843627 113.165401 
L 105.735815 111.549816 
L 106.628004 110.505053 
L 107.520192 110.450822 
L 108.41238 111.8586 
L 109.304568 112.321908 
L 110.196757 115.295336 
L 111.088945 114.054396 
L 111.981133 111.68249 
L 112.873321 113.109553 
L 113.765509 113.013657 
L 114.657698 110.445464 
L 115.549886 109.271112 
L 116.442074 111.118447 
L 117.334262 111.399895 
L 118.22645 110.587608 
L 119.118639 112.541248 
L 120.010827 111.095424 
L 120.903015 111.696768 
L 121.795203 113.211178 
L 122.687392 115.001196 
L 123.57958 115.325372 
L 124.471768 115.091359 
L 125.363956 117.076539 
L 126.256144 117.497239 
L 127.148333 118.527738 
L 128.040521 118.340721 
L 128.932709 116.789582 
L 129.824897 117.177421 
L 130.717085 115.818677 
L 131.609274 115.979399 
L 132.501462 115.107445 
L 133.39365 113.209879 
L 134.285838 111.992486 
L 135.178026 112.779416 
L 136.070215 112.593051 
L 136.962403 112.183445 
L 137.854591 110.65003 
L 138.746779 112.227213 
L 140.531156 111.21611 
L 141.423344 109.528758 
L 142.315532 109.944813 
L 143.20772 108.308303 
L 144.099909 108.288515 
L 144.992097 109.327491 
L 145.884285 109.617988 
L 146.776473 108.694831 
L 147.668661 109.35414 
L 148.56085 109.668014 
L 149.453038 111.015258 
L 150.345226 109.666942 
L 151.237414 108.777537 
L 152.129603 107.323734 
L 153.021791 106.599686 
L 153.913979 106.287951 
L 154.806167 105.190789 
L 155.698355 103.151141 
L 156.590544 102.396465 
L 158.37492 99.190001 
L 159.267108 99.601347 
L 160.159296 97.47962 
L 161.051485 96.429527 
L 162.835861 95.491938 
L 163.728049 94.73662 
L 165.512426 95.707924 
L 166.404614 94.625343 
L 168.18899 94.408851 
L 169.081179 92.19402 
L 169.973367 90.894879 
L 170.865555 90.413094 
L 171.757743 89.034801 
L 172.649931 87.181667 
L 173.54212 85.995379 
L 174.434308 84.427714 
L 175.326496 84.35926 
L 176.218684 84.902663 
L 177.110873 84.819998 
L 178.895249 87.969343 
L 179.787437 89.082806 
L 180.679625 88.778949 
L 182.464002 87.425582 
L 183.35619 86.975455 
L 184.248378 86.180473 
L 186.032755 87.335501 
L 186.924943 87.035507 
L 187.817131 87.394283 
L 188.709319 87.025341 
L 189.601508 87.064785 
L 190.493696 86.288916 
L 191.385884 84.973754 
L 192.278072 84.858227 
L 193.17026 83.530024 
L 194.062449 82.591915 
L 195.846825 82.336661 
L 196.739013 83.771137 
L 197.631201 82.837003 
L 199.415578 83.276679 
L 201.199954 81.622683 
L 202.092143 81.614102 
L 202.984331 81.389551 
L 203.876519 80.240528 
L 204.768707 78.124621 
L 205.660895 78.066988 
L 206.553084 78.476011 
L 207.445272 78.452333 
L 208.33746 78.170844 
L 210.121836 79.54205 
L 211.014025 78.691085 
L 211.906213 78.131076 
L 212.798401 76.944489 
L 213.690589 77.430172 
L 214.582778 76.662281 
L 215.474966 75.099645 
L 216.367154 74.528626 
L 217.259342 74.248592 
L 218.15153 73.562513 
L 219.043719 71.977506 
L 219.935907 71.021807 
L 220.828095 71.010108 
L 221.720283 70.667536 
L 222.612471 70.952676 
L 223.50466 70.589251 
L 224.396848 71.053662 
L 227.073413 68.045614 
L 227.965601 68.247533 
L 229.749977 67.30303 
L 230.642165 66.071644 
L 231.534354 66.130954 
L 232.426542 65.233885 
L 233.31873 65.000668 
L 234.210918 64.518891 
L 235.103106 63.878574 
L 235.995295 64.710618 
L 236.887483 64.319623 
L 237.779671 63.161234 
L 238.671859 61.213901 
L 240.456236 61.800675 
L 241.348424 64.302879 
L 242.240612 62.401187 
L 243.1328 62.138454 
L 244.024989 60.521253 
L 244.917177 60.786913 
L 245.809365 61.25865 
L 246.701553 61.940904 
L 247.593741 61.71498 
L 248.48593 60.903569 
L 249.378118 61.160792 
L 251.162494 58.948195 
L 252.054683 58.469482 
L 252.946871 59.16216 
L 253.839059 60.865775 
L 254.731247 60.871592 
L 255.623435 60.348986 
L 256.515624 59.423874 
L 257.407812 59.586189 
L 258.3 58.769594 
L 259.192188 57.773193 
L 260.976565 59.079028 
L 261.868753 60.700135 
L 262.760941 60.841333 
L 263.653129 62.022249 
L 264.545317 60.708476 
L 265.437506 61.560227 
L 266.329694 61.040226 
L 267.221882 59.35777 
L 268.11407 59.171353 
L 269.006259 58.612273 
L 269.898447 57.641495 
L 270.790635 57.071125 
L 271.682823 58.277437 
L 272.575011 58.001529 
L 273.4672 58.119173 
L 274.359388 56.493217 
L 275.251576 56.328815 
L 276.143764 56.683284 
L 277.035952 56.104957 
L 277.928141 56.586689 
L 278.820329 56.441159 
L 279.712517 56.834687 
L 281.496894 55.677764 
L 283.28127 54.788835 
L 284.173458 53.858531 
L 285.065646 54.51574 
L 285.957835 54.437526 
L 286.850023 54.701427 
L 287.742211 54.047359 
L 288.634399 54.529111 
L 289.526587 54.392349 
L 290.418776 53.664774 
L 291.310964 55.542441 
L 292.203152 56.112921 
L 293.987529 55.760259 
L 294.879717 56.231742 
L 296.664093 56.924544 
L 297.556281 56.21563 
L 298.44847 55.162421 
L 299.340658 54.419626 
L 300.232846 55.1064 
L 301.125034 54.815625 
L 302.017222 53.484666 
L 302.909411 54.309485 
L 303.801599 54.63385 
L 304.693787 55.904776 
L 305.585975 56.423808 
L 306.478164 56.610283 
L 307.370352 57.375799 
L 308.26254 56.70557 
L 309.154728 56.324872 
L 310.046916 56.560911 
L 310.939105 55.266821 
L 311.831293 54.314231 
L 312.723481 54.602774 
L 313.615669 55.49037 
L 314.507857 55.311846 
L 315.400046 53.807787 
L 318.07661 53.498888 
L 319.860987 54.084272 
L 320.753175 53.821498 
L 321.645363 53.399382 
L 322.537551 54.426188 
L 323.42974 53.872812 
L 324.321928 53.508449 
L 325.214116 52.298236 
L 326.106304 51.424826 
L 326.998492 51.933589 
L 327.890681 51.667752 
L 328.782869 51.872162 
L 329.675057 52.523164 
L 330.567245 51.24007 
L 331.459434 51.549894 
L 332.351622 50.797375 
L 333.24381 50.382924 
L 334.135998 49.766283 
L 335.028186 50.296911 
L 335.920375 48.800642 
L 336.812563 48.185233 
L 337.704751 48.250586 
L 338.596939 48.180883 
L 339.489127 47.828369 
L 340.381316 47.897556 
L 341.273504 47.755562 
L 342.165692 46.856695 
L 343.05788 46.669896 
L 343.950069 47.766717 
L 344.842257 47.794214 
L 345.734445 46.942622 
L 346.626633 47.240688 
L 347.518821 46.896063 
L 349.303198 47.605191 
L 351.979762 47.202429 
L 352.871951 46.01225 
L 353.764139 45.658434 
L 354.656327 45.650956 
L 355.548515 45.984042 
L 356.440704 44.693213 
L 357.332892 45.294149 
L 358.22508 45.480785 
L 359.117268 45.865712 
L 360.009456 46.020678 
L 360.901645 45.654359 
L 361.793833 45.110965 
L 362.686021 45.426317 
L 364.470397 43.642061 
L 365.362586 45.112176 
L 366.254774 45.268482 
L 367.146962 44.882607 
L 368.931339 44.406238 
L 369.823527 45.768671 
L 370.715715 45.710675 
L 371.607903 45.81445 
L 372.500091 46.087491 
L 373.39228 45.71656 
L 374.284468 46.066678 
L 376.068844 46.48701 
L 376.961032 45.360186 
L 377.853221 45.698991 
L 378.745409 45.400842 
L 380.529785 43.054871 
L 381.421974 42.818186 
L 382.314162 43.118403 
L 383.20635 43.217396 
L 384.098538 42.388861 
L 384.990726 42.43961 
L 385.882915 43.057821 
L 388.559479 41.03509 
L 389.451667 40.725238 
L 390.343856 40.939958 
L 391.236044 40.648766 
L 392.128232 39.889988 
L 393.02042 38.906874 
L 393.912608 38.314921 
L 394.804797 38.586525 
L 395.696985 38.556846 
L 396.589173 38.96453 
L 397.481361 38.646361 
L 398.37355 38.761426 
L 400.157926 38.104101 
L 401.050114 37.33525 
L 401.942302 37.119781 
L 402.834491 36.739587 
L 403.726679 35.440293 
L 404.618867 34.7687 
L 405.511055 35.26058 
L 406.403243 35.048455 
L 407.295432 35.23322 
L 408.18762 35.147602 
L 409.079808 34.634181 
L 409.971996 35.150079 
L 410.864185 34.510276 
L 412.648561 34.465141 
L 413.540749 34.401514 
L 414.432937 33.778728 
L 415.325126 34.398806 
L 417.109502 34.193471 
L 418.00169 34.333186 
L 418.893878 34.334219 
L 419.786067 35.359696 
L 420.678255 35.232496 
L 421.570443 34.602152 
L 422.462631 35.055992 
L 423.35482 34.993097 
L 424.247008 34.801571 
L 426.031384 35.626268 
L 426.923572 34.722625 
L 428.707949 34.075583 
L 429.600137 34.183968 
L 430.492325 33.69921 
L 431.384513 33.797673 
L 432.276702 34.561281 
L 433.16889 34.922527 
L 434.061078 34.51972 
L 435.845455 33.48 
L 435.845455 33.48 
" style="fill:none;stroke:#1f77b4;stroke-linecap:square;stroke-width:1.5;"/>
   </g>
   <g id="line2d_16">
    <path clip-path="url(#paa4d24db4e)" d="M 80.754545 174.455472 
L 82.538922 174.280955 
L 83.43111 173.445615 
L 84.323298 173.206116 
L 85.215487 175.106231 
L 86.107675 175.548019 
L 86.999863 177.017499 
L 88.784239 175.780299 
L 89.676428 175.445469 
L 90.568616 176.308893 
L 91.460804 178.330454 
L 92.352992 176.933927 
L 94.137369 175.164316 
L 95.029557 177.154958 
L 95.921745 176.144054 
L 96.813933 175.443093 
L 97.706122 172.050476 
L 98.59831 174.085962 
L 99.490498 174.199072 
L 100.382686 175.128846 
L 101.274874 174.015938 
L 102.167063 177.864331 
L 103.059251 177.687679 
L 103.951439 180.128226 
L 105.735815 180.996062 
L 106.628004 179.871922 
L 107.520192 177.740061 
L 108.41238 177.661957 
L 109.304568 175.904103 
L 110.196757 179.173699 
L 111.088945 179.830075 
L 111.981133 181.048249 
L 112.873321 181.113365 
L 113.765509 180.130464 
L 114.657698 179.857097 
L 115.549886 178.217098 
L 117.334262 181.265728 
L 118.22645 181.293191 
L 119.118639 181.806722 
L 120.010827 181.414435 
L 120.903015 179.818607 
L 121.795203 179.637839 
L 122.687392 178.917243 
L 123.57958 180.592291 
L 124.471768 179.303045 
L 125.363956 179.190165 
L 126.256144 179.519034 
L 127.148333 180.968907 
L 128.040521 183.374526 
L 128.932709 182.245089 
L 129.824897 182.297778 
L 130.717085 181.558923 
L 131.609274 184.68 
L 132.501462 183.694623 
L 133.39365 182.877103 
L 134.285838 183.148475 
L 135.178026 184.653076 
L 136.070215 183.552143 
L 136.962403 181.168623 
L 137.854591 181.523621 
L 138.746779 183.213913 
L 139.638968 183.75586 
L 140.531156 184.15813 
L 141.423344 182.900916 
L 142.315532 180.886454 
L 143.20772 182.634333 
L 144.099909 182.102789 
L 145.884285 179.780969 
L 146.776473 181.357548 
L 147.668661 180.862746 
L 148.56085 181.854227 
L 149.453038 182.663662 
L 150.345226 183.037278 
L 151.237414 182.003073 
L 152.129603 180.516627 
L 153.021791 181.221116 
L 153.913979 181.578397 
L 154.806167 182.203331 
L 155.698355 181.54176 
L 156.590544 181.22845 
L 157.482732 182.489196 
L 158.37492 184.316086 
L 159.267108 184.307189 
L 160.159296 183.367024 
L 161.051485 182.97581 
L 161.943673 182.13659 
L 162.835861 181.977807 
L 163.728049 183.045642 
L 164.620238 184.445557 
L 165.512426 183.083354 
L 167.296802 182.28846 
L 168.18899 181.189956 
L 169.081179 180.33471 
L 169.973367 180.329832 
L 170.865555 179.923645 
L 171.757743 180.327319 
L 172.649931 180.910296 
L 173.54212 180.571465 
L 174.434308 180.451901 
L 175.326496 178.848663 
L 176.218684 177.790328 
L 177.110873 179.317769 
L 178.895249 178.922111 
L 179.787437 179.119761 
L 180.679625 178.781821 
L 181.571814 180.047587 
L 182.464002 180.607251 
L 183.35619 179.524898 
L 184.248378 180.940879 
L 185.140566 179.755686 
L 186.924943 178.378966 
L 187.817131 179.876802 
L 188.709319 179.786461 
L 189.601508 179.880472 
L 190.493696 179.819732 
L 191.385884 180.141238 
L 192.278072 180.293863 
L 193.17026 179.443755 
L 194.062449 179.855132 
L 194.954637 179.157479 
L 195.846825 178.876291 
L 196.739013 177.60644 
L 197.631201 177.384337 
L 198.52339 175.671319 
L 199.415578 175.495684 
L 200.307766 175.573025 
L 201.199954 174.162573 
L 202.092143 174.843888 
L 202.984331 174.418736 
L 203.876519 174.693805 
L 204.768707 173.921646 
L 205.660895 173.767321 
L 207.445272 173.776572 
L 208.33746 171.974193 
L 209.229648 171.29007 
L 210.121836 171.493603 
L 211.014025 170.718123 
L 211.906213 170.952232 
L 212.798401 172.047273 
L 213.690589 172.295409 
L 214.582778 170.819682 
L 215.474966 171.425741 
L 216.367154 169.896498 
L 217.259342 168.76022 
L 218.15153 169.245229 
L 219.043719 169.248601 
L 219.935907 167.982911 
L 220.828095 167.438679 
L 221.720283 169.212761 
L 222.612471 170.028008 
L 223.50466 170.24595 
L 224.396848 168.918819 
L 225.289036 169.796224 
L 226.181224 168.560227 
L 227.073413 167.843177 
L 227.965601 167.475883 
L 228.857789 169.152949 
L 229.749977 170.360175 
L 230.642165 169.647522 
L 231.534354 169.815258 
L 232.426542 168.89616 
L 233.31873 168.767057 
L 234.210918 168.994859 
L 235.103106 168.019282 
L 235.995295 169.081768 
L 236.887483 168.456385 
L 237.779671 168.091361 
L 238.671859 168.772438 
L 239.564048 168.705185 
L 240.456236 168.023769 
L 241.348424 168.745965 
L 242.240612 168.555096 
L 243.1328 168.057701 
L 244.917177 169.182871 
L 245.809365 168.109071 
L 246.701553 168.232217 
L 247.593741 169.050784 
L 248.48593 170.326157 
L 249.378118 170.661498 
L 250.270306 171.404442 
L 251.162494 170.580023 
L 252.054683 171.066335 
L 252.946871 171.753115 
L 253.839059 170.500228 
L 254.731247 170.006009 
L 255.623435 170.490134 
L 256.515624 169.374535 
L 257.407812 168.871237 
L 258.3 167.644772 
L 259.192188 168.247399 
L 260.084376 167.071529 
L 260.976565 166.225328 
L 261.868753 166.19734 
L 262.760941 166.848153 
L 263.653129 167.044859 
L 267.221882 167.404155 
L 268.11407 166.548241 
L 269.006259 166.647785 
L 269.898447 166.116681 
L 270.790635 167.499591 
L 271.682823 168.262482 
L 272.575011 168.637164 
L 273.4672 169.838356 
L 274.359388 168.46612 
L 275.251576 169.110837 
L 276.143764 168.06656 
L 277.035952 169.056072 
L 277.928141 167.909104 
L 279.712517 166.394195 
L 280.604705 166.552333 
L 281.496894 165.005772 
L 282.389082 164.704599 
L 283.28127 165.082546 
L 284.173458 163.766139 
L 285.065646 163.983216 
L 286.850023 162.871956 
L 287.742211 162.258903 
L 288.634399 161.908253 
L 289.526587 162.970913 
L 290.418776 163.159787 
L 291.310964 162.068603 
L 292.203152 162.760701 
L 293.09534 161.084338 
L 293.987529 161.150384 
L 294.879717 160.590488 
L 295.771905 160.780912 
L 296.664093 160.465547 
L 297.556281 161.170676 
L 298.44847 160.629569 
L 299.340658 161.389868 
L 300.232846 161.290674 
L 301.125034 160.525993 
L 302.017222 161.528785 
L 302.909411 161.410091 
L 303.801599 160.950753 
L 304.693787 159.729416 
L 306.478164 159.420301 
L 307.370352 160.026673 
L 308.26254 159.534587 
L 309.154728 159.99836 
L 310.046916 159.664843 
L 312.723481 160.492047 
L 313.615669 160.346933 
L 314.507857 162.237422 
L 315.400046 162.38709 
L 316.292234 161.868017 
L 318.07661 163.214973 
L 318.968799 163.568013 
L 319.860987 163.438269 
L 320.753175 164.179732 
L 321.645363 164.586474 
L 322.537551 164.595184 
L 323.42974 164.920944 
L 324.321928 164.989484 
L 325.214116 164.913573 
L 326.106304 165.856075 
L 326.998492 163.873682 
L 327.890681 164.202048 
L 328.782869 163.862119 
L 329.675057 164.171093 
L 330.567245 162.318782 
L 332.351622 161.027951 
L 333.24381 161.397228 
L 334.135998 160.856493 
L 335.028186 160.715272 
L 335.920375 162.501347 
L 336.812563 162.413445 
L 337.704751 163.868878 
L 338.596939 162.815848 
L 339.489127 162.263908 
L 340.381316 162.458631 
L 341.273504 162.160451 
L 342.165692 162.822858 
L 343.05788 161.414694 
L 343.950069 162.120152 
L 344.842257 161.972431 
L 345.734445 161.518711 
L 346.626633 161.496046 
L 347.518821 161.182671 
L 348.41101 159.994548 
L 349.303198 160.09628 
L 350.195386 159.690594 
L 351.087574 158.759002 
L 352.871951 158.590844 
L 353.764139 158.858955 
L 354.656327 158.928371 
L 355.548515 159.283099 
L 356.440704 158.380921 
L 357.332892 159.270441 
L 358.22508 158.717987 
L 359.117268 159.138936 
L 360.009456 160.07175 
L 360.901645 159.865496 
L 361.793833 160.021217 
L 362.686021 159.919301 
L 363.578209 159.179083 
L 364.470397 159.314016 
L 365.362586 158.942834 
L 366.254774 159.175038 
L 367.146962 158.848087 
L 368.03915 159.405633 
L 369.823527 160.221191 
L 370.715715 158.553602 
L 372.500091 158.589555 
L 373.39228 159.342474 
L 374.284468 159.864335 
L 376.068844 159.850703 
L 376.961032 160.349929 
L 378.745409 163.357494 
L 379.637597 163.227866 
L 380.529785 163.292685 
L 381.421974 163.083834 
L 382.314162 163.233347 
L 383.20635 163.018795 
L 384.098538 163.346899 
L 384.990726 163.143287 
L 385.882915 161.731523 
L 386.775103 162.655489 
L 387.667291 163.75593 
L 388.559479 163.514219 
L 389.451667 162.707609 
L 390.343856 162.085758 
L 391.236044 161.986497 
L 392.128232 162.062256 
L 393.02042 161.626357 
L 393.912608 161.433761 
L 394.804797 160.532002 
L 395.696985 160.695995 
L 396.589173 161.421022 
L 397.481361 161.291905 
L 398.37355 160.579035 
L 399.265738 160.438569 
L 400.157926 159.884717 
L 401.050114 160.032312 
L 401.942302 159.447886 
L 402.834491 159.855336 
L 403.726679 159.999579 
L 404.618867 160.968054 
L 405.511055 160.734312 
L 406.403243 160.871219 
L 407.295432 161.564249 
L 409.079808 162.468253 
L 409.971996 163.042546 
L 410.864185 163.126434 
L 411.756373 162.774835 
L 412.648561 163.051528 
L 413.540749 163.623096 
L 414.432937 163.720477 
L 415.325126 163.952839 
L 416.217314 163.968885 
L 417.109502 164.703444 
L 418.00169 164.75593 
L 418.893878 165.388129 
L 419.786067 165.293001 
L 420.678255 164.854433 
L 421.570443 166.32252 
L 422.462631 167.068289 
L 423.35482 165.915785 
L 424.247008 165.537379 
L 425.139196 164.652466 
L 426.031384 164.413392 
L 426.923572 163.870122 
L 427.815761 162.856902 
L 428.707949 162.636003 
L 429.600137 162.606699 
L 430.492325 162.365159 
L 431.384513 162.831498 
L 432.276702 162.039418 
L 433.16889 162.281417 
L 434.061078 162.298583 
L 434.953266 162.202119 
L 435.845455 161.344186 
L 435.845455 161.344186 
" style="fill:none;stroke:#ff7f0e;stroke-linecap:square;stroke-width:1.5;"/>
   </g>
   <g id="line2d_17">
    <path clip-path="url(#paa4d24db4e)" d="M 80.754545 125.848331 
L 81.646734 125.759208 
L 82.538922 124.939255 
L 84.323298 123.932313 
L 85.215487 128.10623 
L 86.107675 131.142538 
L 86.999863 130.07903 
L 87.892051 132.51124 
L 88.784239 130.67229 
L 89.676428 130.399798 
L 90.568616 131.560667 
L 92.352992 130.930337 
L 93.24518 134.092416 
L 94.137369 135.816229 
L 95.029557 139.742788 
L 95.921745 139.735653 
L 96.813933 142.185613 
L 97.706122 141.414977 
L 98.59831 141.455175 
L 99.490498 140.422174 
L 100.382686 140.495585 
L 101.274874 138.046976 
L 102.167063 134.325218 
L 103.059251 134.239553 
L 103.951439 135.175926 
L 104.843627 135.113219 
L 105.735815 138.531915 
L 106.628004 137.700032 
L 107.520192 135.882613 
L 109.304568 138.852 
L 110.196757 137.91401 
L 111.088945 135.027444 
L 112.873321 137.440592 
L 113.765509 139.282968 
L 114.657698 138.747916 
L 115.549886 140.108655 
L 116.442074 140.493946 
L 117.334262 140.734017 
L 118.22645 139.329654 
L 119.118639 139.676497 
L 120.010827 141.257295 
L 120.903015 141.417103 
L 121.795203 142.59035 
L 122.687392 139.718843 
L 123.57958 139.571388 
L 124.471768 139.5643 
L 125.363956 138.26414 
L 126.256144 136.012945 
L 128.040521 138.145036 
L 129.824897 135.725282 
L 130.717085 137.961684 
L 131.609274 139.360467 
L 133.39365 140.126547 
L 134.285838 140.015704 
L 135.178026 139.142934 
L 136.070215 138.503666 
L 136.962403 136.280098 
L 138.746779 134.217595 
L 141.423344 134.635585 
L 142.315532 133.456846 
L 143.20772 131.840893 
L 144.099909 129.157522 
L 144.992097 128.870539 
L 145.884285 127.313091 
L 146.776473 126.860372 
L 147.668661 125.03159 
L 148.56085 126.096231 
L 150.345226 120.110582 
L 151.237414 117.300043 
L 152.129603 117.595136 
L 153.913979 120.466382 
L 155.698355 117.202999 
L 156.590544 115.120311 
L 157.482732 117.034319 
L 158.37492 115.044426 
L 159.267108 115.39453 
L 160.159296 114.831256 
L 161.051485 115.365628 
L 161.943673 112.337374 
L 163.728049 109.90786 
L 164.620238 109.806082 
L 165.512426 111.320295 
L 166.404614 110.930378 
L 167.296802 109.82319 
L 168.18899 110.094016 
L 169.081179 112.216771 
L 169.973367 111.819577 
L 170.865555 111.786655 
L 171.757743 110.472677 
L 172.649931 110.711177 
L 173.54212 111.594452 
L 174.434308 109.268871 
L 175.326496 110.338065 
L 176.218684 109.977011 
L 177.110873 108.982313 
L 178.895249 108.013978 
L 179.787437 106.703776 
L 180.679625 109.156502 
L 182.464002 107.726835 
L 183.35619 107.850989 
L 184.248378 106.828591 
L 185.140566 106.986893 
L 186.924943 105.604284 
L 187.817131 107.434501 
L 188.709319 106.43811 
L 189.601508 104.776723 
L 190.493696 106.864987 
L 191.385884 106.877067 
L 192.278072 103.860106 
L 193.17026 102.853918 
L 194.062449 101.155406 
L 194.954637 100.301631 
L 195.846825 100.437844 
L 196.739013 100.33477 
L 197.631201 100.770785 
L 198.52339 100.721465 
L 199.415578 99.013362 
L 200.307766 98.89447 
L 201.199954 99.130558 
L 202.092143 97.216155 
L 202.984331 97.959463 
L 203.876519 97.502714 
L 204.768707 96.919618 
L 205.660895 98.210498 
L 206.553084 96.129783 
L 207.445272 95.603151 
L 208.33746 95.698938 
L 209.229648 95.996455 
L 210.121836 95.400658 
L 211.014025 95.44222 
L 212.798401 92.863984 
L 213.690589 92.461737 
L 214.582778 92.900647 
L 215.474966 92.828962 
L 216.367154 91.489369 
L 217.259342 91.145059 
L 218.15153 91.438594 
L 219.043719 91.349165 
L 219.935907 90.873424 
L 220.828095 91.701622 
L 221.720283 93.581241 
L 223.50466 91.495182 
L 224.396848 91.68828 
L 225.289036 90.490742 
L 226.181224 91.16233 
L 227.073413 90.69074 
L 227.965601 91.222769 
L 228.857789 89.289376 
L 230.642165 89.361337 
L 231.534354 89.128531 
L 232.426542 89.394299 
L 233.31873 88.411433 
L 234.210918 86.705673 
L 235.103106 88.731594 
L 235.995295 88.857877 
L 236.887483 87.470572 
L 237.779671 85.838413 
L 238.671859 87.543899 
L 239.564048 86.462052 
L 240.456236 85.943982 
L 241.348424 84.472547 
L 244.024989 85.794944 
L 244.917177 85.102768 
L 245.809365 85.120556 
L 246.701553 86.321518 
L 247.593741 85.073713 
L 248.48593 85.028922 
L 249.378118 83.27096 
L 250.270306 82.15257 
L 251.162494 81.806609 
L 252.054683 80.519345 
L 252.946871 80.186119 
L 253.839059 80.568362 
L 254.731247 79.588997 
L 255.623435 79.964917 
L 256.515624 81.650018 
L 257.407812 82.456525 
L 258.3 82.436218 
L 259.192188 81.62874 
L 260.084376 80.190201 
L 260.976565 80.458314 
L 261.868753 79.563402 
L 262.760941 79.870644 
L 263.653129 80.756683 
L 264.545317 80.118449 
L 265.437506 80.069011 
L 266.329694 79.543011 
L 267.221882 80.171182 
L 268.11407 80.351346 
L 269.006259 79.595244 
L 269.898447 77.876793 
L 270.790635 77.51275 
L 271.682823 77.002071 
L 272.575011 76.971649 
L 274.359388 74.289656 
L 275.251576 73.328731 
L 276.143764 74.445856 
L 277.035952 74.832408 
L 277.928141 73.559948 
L 278.820329 74.237503 
L 279.712517 74.209892 
L 280.604705 74.469322 
L 281.496894 74.104796 
L 282.389082 72.835396 
L 284.173458 73.201679 
L 285.065646 73.211508 
L 285.957835 74.530904 
L 286.850023 73.144633 
L 287.742211 73.747827 
L 288.634399 72.933491 
L 289.526587 72.270274 
L 290.418776 70.303179 
L 291.310964 69.235121 
L 292.203152 69.458965 
L 293.09534 69.869797 
L 293.987529 69.38914 
L 294.879717 69.699568 
L 295.771905 68.540382 
L 296.664093 68.949564 
L 297.556281 69.133685 
L 298.44847 67.749968 
L 299.340658 66.574911 
L 301.125034 65.708031 
L 302.017222 64.781339 
L 302.909411 65.233132 
L 304.693787 66.866882 
L 305.585975 68.089648 
L 306.478164 67.660777 
L 307.370352 65.907378 
L 308.26254 63.6532 
L 309.154728 62.832263 
L 310.046916 63.105923 
L 310.939105 64.053245 
L 311.831293 65.208689 
L 312.723481 64.568943 
L 313.615669 64.686107 
L 314.507857 64.213172 
L 316.292234 65.62378 
L 317.184422 64.917082 
L 318.07661 64.515218 
L 318.968799 64.746629 
L 319.860987 65.105204 
L 320.753175 65.757638 
L 321.645363 65.626042 
L 322.537551 65.657012 
L 323.42974 64.703896 
L 325.214116 63.375936 
L 326.106304 63.440308 
L 326.998492 62.571578 
L 327.890681 62.790045 
L 328.782869 61.933604 
L 329.675057 61.548558 
L 330.567245 60.950438 
L 331.459434 60.685716 
L 332.351622 59.821537 
L 333.24381 60.369431 
L 334.135998 60.696686 
L 335.028186 61.56417 
L 335.920375 61.24344 
L 336.812563 60.725747 
L 337.704751 61.666167 
L 338.596939 62.880851 
L 339.489127 62.931688 
L 340.381316 62.838124 
L 341.273504 62.15354 
L 342.165692 62.976336 
L 343.05788 62.265697 
L 343.950069 62.002317 
L 344.842257 61.594416 
L 345.734445 61.712401 
L 346.626633 62.093947 
L 347.518821 61.609358 
L 349.303198 62.399072 
L 351.087574 62.963409 
L 351.979762 61.427835 
L 352.871951 62.045976 
L 353.764139 61.534687 
L 355.548515 61.53855 
L 356.440704 61.780524 
L 357.332892 61.603256 
L 358.22508 61.954511 
L 359.117268 61.892325 
L 360.009456 61.004515 
L 360.901645 61.160622 
L 361.793833 60.880536 
L 362.686021 61.115202 
L 363.578209 60.402179 
L 364.470397 61.347898 
L 365.362586 61.288604 
L 366.254774 62.920279 
L 367.146962 63.055644 
L 368.03915 63.571881 
L 369.823527 63.609316 
L 370.715715 63.896946 
L 371.607903 64.585777 
L 372.500091 64.023004 
L 373.39228 63.595986 
L 374.284468 64.625783 
L 375.176656 64.092047 
L 376.961032 63.224007 
L 377.853221 62.748796 
L 379.637597 62.319832 
L 380.529785 62.663967 
L 382.314162 62.512813 
L 384.990726 60.928548 
L 385.882915 62.001904 
L 386.775103 61.32767 
L 387.667291 61.121799 
L 388.559479 60.086391 
L 389.451667 58.810504 
L 390.343856 58.892042 
L 391.236044 58.513776 
L 392.128232 58.589345 
L 393.02042 59.215671 
L 393.912608 58.280066 
L 394.804797 57.558578 
L 395.696985 57.187556 
L 396.589173 57.080251 
L 397.481361 57.350794 
L 398.37355 56.539996 
L 399.265738 56.24397 
L 400.157926 56.487588 
L 401.050114 56.228084 
L 401.942302 56.569351 
L 402.834491 56.565765 
L 403.726679 56.125658 
L 405.511055 56.104952 
L 407.295432 55.271296 
L 408.18762 54.88506 
L 409.079808 55.610441 
L 409.971996 54.19699 
L 410.864185 54.521149 
L 412.648561 53.229475 
L 413.540749 53.108377 
L 414.432937 53.518816 
L 415.325126 52.694759 
L 416.217314 52.589532 
L 417.109502 52.191997 
L 418.00169 52.377215 
L 418.893878 52.17882 
L 419.786067 51.728937 
L 421.570443 50.053252 
L 422.462631 50.020128 
L 423.35482 49.482823 
L 424.247008 49.955972 
L 425.139196 50.192202 
L 426.031384 50.06646 
L 426.923572 50.488567 
L 427.815761 50.099033 
L 428.707949 49.465555 
L 429.600137 48.991363 
L 430.492325 49.109298 
L 431.384513 48.80569 
L 432.276702 47.946288 
L 433.16889 47.436524 
L 434.061078 47.644188 
L 434.953266 47.619297 
L 435.845455 46.337249 
L 435.845455 46.337249 
" style="fill:none;stroke:#2ca02c;stroke-linecap:square;stroke-width:1.5;"/>
   </g>
   <g id="line2d_18">
    <path clip-path="url(#paa4d24db4e)" d="M 80.754545 126.962735 
L 81.646734 127.590405 
L 82.538922 129.349878 
L 83.43111 126.594095 
L 84.323298 127.399462 
L 85.215487 127.284824 
L 86.107675 125.054553 
L 86.999863 123.933321 
L 87.892051 123.006554 
L 88.784239 126.690943 
L 89.676428 125.210067 
L 90.568616 125.435151 
L 91.460804 127.590028 
L 92.352992 130.289748 
L 93.24518 127.473958 
L 94.137369 125.312113 
L 95.029557 125.076066 
L 95.921745 123.299643 
L 96.813933 126.869147 
L 97.706122 127.379826 
L 98.59831 127.373365 
L 99.490498 128.656914 
L 100.382686 127.136758 
L 101.274874 123.826006 
L 102.167063 124.254425 
L 103.059251 126.546141 
L 103.951439 124.760655 
L 104.843627 125.316514 
L 105.735815 122.782598 
L 106.628004 122.410374 
L 107.520192 122.624095 
L 108.41238 122.341369 
L 110.196757 126.102982 
L 111.088945 129.264338 
L 112.873321 127.051433 
L 114.657698 128.445809 
L 115.549886 129.014416 
L 116.442074 130.574431 
L 117.334262 128.073239 
L 118.22645 126.779417 
L 119.118639 126.681108 
L 120.010827 126.74439 
L 120.903015 125.892536 
L 121.795203 125.534491 
L 122.687392 124.203726 
L 123.57958 126.700632 
L 124.471768 125.653433 
L 125.363956 127.301204 
L 126.256144 127.813272 
L 127.148333 129.318012 
L 128.932709 130.258582 
L 129.824897 131.530224 
L 130.717085 129.759245 
L 131.609274 129.000152 
L 133.39365 126.526814 
L 134.285838 126.536107 
L 135.178026 126.866047 
L 136.070215 125.095479 
L 136.962403 123.0634 
L 137.854591 122.303083 
L 138.746779 122.381757 
L 139.638968 121.249675 
L 140.531156 119.642951 
L 143.20772 116.356829 
L 144.099909 116.049795 
L 145.884285 117.329306 
L 146.776473 117.365531 
L 147.668661 115.333679 
L 148.56085 115.635213 
L 149.453038 115.73625 
L 150.345226 114.781014 
L 151.237414 115.386993 
L 152.129603 116.791146 
L 153.021791 117.367102 
L 153.913979 115.70596 
L 154.806167 114.549938 
L 155.698355 112.03871 
L 156.590544 110.996884 
L 157.482732 112.468728 
L 158.37492 111.616023 
L 159.267108 111.078434 
L 160.159296 110.9182 
L 161.051485 107.619745 
L 161.943673 106.791795 
L 162.835861 106.129481 
L 163.728049 104.334733 
L 164.620238 103.072901 
L 165.512426 103.781111 
L 166.404614 104.021377 
L 167.296802 103.780507 
L 168.18899 100.979352 
L 169.081179 101.42858 
L 169.973367 100.755967 
L 170.865555 101.051628 
L 171.757743 101.991647 
L 172.649931 101.442362 
L 173.54212 101.029542 
L 174.434308 99.663549 
L 175.326496 99.18639 
L 176.218684 100.037407 
L 177.110873 101.568855 
L 178.003061 102.095466 
L 178.895249 101.722965 
L 179.787437 100.256826 
L 180.679625 97.776323 
L 181.571814 98.210131 
L 182.464002 96.082052 
L 183.35619 95.662649 
L 184.248378 94.537427 
L 185.140566 94.281033 
L 186.032755 92.920122 
L 186.924943 92.28472 
L 187.817131 92.978453 
L 188.709319 91.936939 
L 189.601508 91.248638 
L 190.493696 92.060939 
L 191.385884 90.99391 
L 192.278072 91.287686 
L 193.17026 92.464068 
L 194.062449 90.496676 
L 194.954637 90.976889 
L 195.846825 89.759798 
L 196.739013 89.435916 
L 197.631201 90.146784 
L 198.52339 89.489663 
L 199.415578 89.35906 
L 200.307766 88.578395 
L 201.199954 88.536262 
L 202.092143 89.765849 
L 202.984331 87.626558 
L 203.876519 89.330739 
L 204.768707 90.486665 
L 205.660895 90.55536 
L 206.553084 90.401682 
L 207.445272 89.698456 
L 208.33746 91.199294 
L 209.229648 91.027759 
L 210.121836 91.230127 
L 211.014025 91.942101 
L 211.906213 91.524888 
L 212.798401 89.568337 
L 213.690589 88.393271 
L 214.582778 88.851079 
L 215.474966 88.740437 
L 216.367154 90.19614 
L 217.259342 90.969847 
L 218.15153 90.559651 
L 219.043719 91.219227 
L 219.935907 93.1039 
L 220.828095 91.803679 
L 221.720283 91.847445 
L 222.612471 89.422601 
L 223.50466 92.377582 
L 224.396848 93.579321 
L 225.289036 93.326996 
L 226.181224 91.868304 
L 227.073413 91.999406 
L 227.965601 91.278491 
L 228.857789 90.095497 
L 229.749977 90.000922 
L 230.642165 90.782187 
L 231.534354 90.558171 
L 232.426542 91.810054 
L 233.31873 90.392816 
L 234.210918 91.846498 
L 235.103106 92.002522 
L 235.995295 91.866522 
L 236.887483 91.435867 
L 237.779671 90.495702 
L 238.671859 91.945777 
L 239.564048 91.616439 
L 240.456236 91.667137 
L 242.240612 90.79689 
L 243.1328 90.62816 
L 244.024989 90.649756 
L 244.917177 91.973407 
L 245.809365 91.419405 
L 246.701553 89.179266 
L 247.593741 89.044625 
L 248.48593 89.357521 
L 249.378118 89.502759 
L 250.270306 87.933635 
L 251.162494 87.951888 
L 252.054683 86.983028 
L 252.946871 87.407472 
L 253.839059 85.938758 
L 254.731247 86.26655 
L 255.623435 86.165933 
L 256.515624 88.213434 
L 257.407812 88.106117 
L 258.3 86.778227 
L 259.192188 85.999493 
L 260.084376 86.878044 
L 260.976565 86.114882 
L 261.868753 86.974469 
L 262.760941 85.534585 
L 263.653129 84.845713 
L 264.545317 84.359409 
L 265.437506 84.544604 
L 266.329694 84.355049 
L 267.221882 83.261635 
L 268.11407 82.369549 
L 269.006259 83.317108 
L 269.898447 83.225303 
L 270.790635 83.877637 
L 271.682823 83.432208 
L 272.575011 82.675498 
L 273.4672 82.579566 
L 275.251576 82.008735 
L 277.035952 82.823258 
L 277.928141 83.472845 
L 278.820329 83.42717 
L 279.712517 83.174612 
L 280.604705 81.614742 
L 281.496894 80.424748 
L 282.389082 81.195985 
L 283.28127 80.697811 
L 284.173458 81.387739 
L 285.065646 82.70369 
L 285.957835 83.608477 
L 286.850023 84.82426 
L 287.742211 84.23042 
L 288.634399 84.240254 
L 289.526587 84.49111 
L 290.418776 84.343749 
L 291.310964 83.74407 
L 292.203152 83.613247 
L 293.09534 83.352881 
L 293.987529 84.171283 
L 294.879717 83.6252 
L 296.664093 84.353204 
L 298.44847 83.066352 
L 299.340658 82.956203 
L 300.232846 82.251505 
L 302.017222 81.23991 
L 302.909411 79.948808 
L 303.801599 80.079953 
L 304.693787 80.837841 
L 305.585975 80.548837 
L 306.478164 80.672262 
L 307.370352 80.124731 
L 310.046916 80.677675 
L 310.939105 81.701931 
L 312.723481 80.951026 
L 313.615669 81.126655 
L 315.400046 80.044423 
L 316.292234 80.50592 
L 317.184422 81.233008 
L 318.07661 81.319313 
L 318.968799 81.291982 
L 319.860987 82.030597 
L 320.753175 81.939481 
L 321.645363 81.70916 
L 322.537551 81.948163 
L 324.321928 83.617727 
L 325.214116 82.675785 
L 326.106304 82.828998 
L 326.998492 82.229038 
L 327.890681 82.170167 
L 328.782869 81.434419 
L 329.675057 81.896915 
L 331.459434 80.583726 
L 332.351622 80.596847 
L 333.24381 80.73297 
L 335.028186 80.391593 
L 335.920375 80.028629 
L 336.812563 80.737153 
L 337.704751 80.463505 
L 339.489127 81.492434 
L 340.381316 80.150529 
L 341.273504 79.272545 
L 342.165692 78.612683 
L 343.05788 79.156787 
L 343.950069 79.065593 
L 344.842257 78.230894 
L 345.734445 78.85857 
L 346.626633 78.920177 
L 347.518821 78.699825 
L 348.41101 79.338108 
L 349.303198 77.793475 
L 350.195386 79.550886 
L 351.087574 80.038962 
L 351.979762 80.284933 
L 352.871951 79.802244 
L 354.656327 80.005698 
L 355.548515 79.214325 
L 356.440704 78.733495 
L 357.332892 77.936427 
L 358.22508 77.758648 
L 359.117268 78.541719 
L 360.009456 78.512208 
L 360.901645 79.479203 
L 361.793833 79.030458 
L 362.686021 79.993407 
L 363.578209 79.438988 
L 364.470397 79.671904 
L 365.362586 79.043962 
L 366.254774 79.216994 
L 367.146962 78.317939 
L 368.03915 77.704385 
L 368.931339 77.90428 
L 369.823527 77.941334 
L 370.715715 77.833262 
L 371.607903 77.882769 
L 372.500091 77.650636 
L 373.39228 76.705011 
L 374.284468 77.157437 
L 375.176656 76.533842 
L 376.068844 76.293336 
L 377.853221 74.609472 
L 378.745409 73.84155 
L 379.637597 73.988847 
L 380.529785 74.569854 
L 381.421974 74.882706 
L 382.314162 74.573048 
L 383.20635 74.689093 
L 384.098538 74.951657 
L 384.990726 75.06088 
L 385.882915 74.416422 
L 386.775103 74.315689 
L 387.667291 74.333671 
L 388.559479 75.105149 
L 389.451667 75.434485 
L 390.343856 74.897657 
L 391.236044 75.199006 
L 392.128232 75.093363 
L 393.02042 75.415192 
L 393.912608 75.169043 
L 394.804797 74.510656 
L 395.696985 74.348701 
L 396.589173 74.023198 
L 397.481361 73.947551 
L 398.37355 73.646568 
L 399.265738 73.069924 
L 401.050114 71.580487 
L 401.942302 71.196756 
L 402.834491 71.417494 
L 403.726679 70.461378 
L 404.618867 70.479782 
L 405.511055 70.139437 
L 408.18762 69.77567 
L 409.079808 70.329435 
L 409.971996 70.622074 
L 410.864185 70.30856 
L 411.756373 71.04851 
L 412.648561 70.619836 
L 413.540749 69.785583 
L 415.325126 69.87624 
L 416.217314 69.733799 
L 417.109502 68.741122 
L 418.00169 68.22315 
L 418.893878 68.392929 
L 419.786067 69.440419 
L 420.678255 68.423788 
L 421.570443 68.061778 
L 423.35482 69.197367 
L 425.139196 70.080745 
L 426.031384 69.067935 
L 426.923572 68.806852 
L 427.815761 68.350023 
L 428.707949 68.341676 
L 429.600137 68.768964 
L 430.492325 68.263235 
L 431.384513 68.273888 
L 432.276702 67.523215 
L 433.16889 67.095442 
L 434.061078 66.794677 
L 435.845455 64.513734 
L 435.845455 64.513734 
" style="fill:none;stroke:#d62728;stroke-linecap:square;stroke-width:1.5;"/>
   </g>
   <g id="line2d_19"/>
   <g id="line2d_20"/>
   <g id="line2d_21"/>
   <g id="line2d_22"/>
   <g id="patch_3">
    <path d="M 63 192.24 
L 63 25.92 
" style="fill:none;stroke:#000000;stroke-linecap:square;stroke-linejoin:miter;stroke-width:0.8;"/>
   </g>
   <g id="patch_4">
    <path d="M 63 192.24 
L 453.6 192.24 
" style="fill:none;stroke:#000000;stroke-linecap:square;stroke-linejoin:miter;stroke-width:0.8;"/>
   </g>
   <g id="text_17">
    <!-- modeltype=full, labormarket=biased -->
    <g transform="translate(146.840625 19.92)scale(0.12 -0.12)">
     <defs>
      <path d="M 9.421875 75.984375 
L 18.40625 75.984375 
L 18.40625 0 
L 9.421875 0 
z
" id="DejaVuSans-108"/>
      <path d="M 32.171875 -5.078125 
Q 28.375 -14.84375 24.75 -17.8125 
Q 21.140625 -20.796875 15.09375 -20.796875 
L 7.90625 -20.796875 
L 7.90625 -13.28125 
L 13.1875 -13.28125 
Q 16.890625 -13.28125 18.9375 -11.515625 
Q 21 -9.765625 23.484375 -3.21875 
L 25.09375 0.875 
L 2.984375 54.6875 
L 12.5 54.6875 
L 29.59375 11.921875 
L 46.6875 54.6875 
L 56.203125 54.6875 
z
" id="DejaVuSans-121"/>
      <path d="M 18.109375 8.203125 
L 18.109375 -20.796875 
L 9.078125 -20.796875 
L 9.078125 54.6875 
L 18.109375 54.6875 
L 18.109375 46.390625 
Q 20.953125 51.265625 25.265625 53.625 
Q 29.59375 56 35.59375 56 
Q 45.5625 56 51.78125 48.09375 
Q 58.015625 40.1875 58.015625 27.296875 
Q 58.015625 14.40625 51.78125 6.484375 
Q 45.5625 -1.421875 35.59375 -1.421875 
Q 29.59375 -1.421875 25.265625 0.953125 
Q 20.953125 3.328125 18.109375 8.203125 
z
M 48.6875 27.296875 
Q 48.6875 37.203125 44.609375 42.84375 
Q 40.53125 48.484375 33.40625 48.484375 
Q 26.265625 48.484375 22.1875 42.84375 
Q 18.109375 37.203125 18.109375 27.296875 
Q 18.109375 17.390625 22.1875 11.75 
Q 26.265625 6.109375 33.40625 6.109375 
Q 40.53125 6.109375 44.609375 11.75 
Q 48.6875 17.390625 48.6875 27.296875 
z
" id="DejaVuSans-112"/>
      <path d="M 10.59375 45.40625 
L 73.1875 45.40625 
L 73.1875 37.203125 
L 10.59375 37.203125 
z
M 10.59375 25.484375 
L 73.1875 25.484375 
L 73.1875 17.1875 
L 10.59375 17.1875 
z
" id="DejaVuSans-61"/>
      <path d="M 8.5 21.578125 
L 8.5 54.6875 
L 17.484375 54.6875 
L 17.484375 21.921875 
Q 17.484375 14.15625 20.5 10.265625 
Q 23.53125 6.390625 29.59375 6.390625 
Q 36.859375 6.390625 41.078125 11.03125 
Q 45.3125 15.671875 45.3125 23.6875 
L 45.3125 54.6875 
L 54.296875 54.6875 
L 54.296875 0 
L 45.3125 0 
L 45.3125 8.40625 
Q 42.046875 3.421875 37.71875 1 
Q 33.40625 -1.421875 27.6875 -1.421875 
Q 18.265625 -1.421875 13.375 4.4375 
Q 8.5 10.296875 8.5 21.578125 
z
M 31.109375 56 
z
" id="DejaVuSans-117"/>
      <path d="M 11.71875 12.40625 
L 22.015625 12.40625 
L 22.015625 4 
L 14.015625 -11.625 
L 7.71875 -11.625 
L 11.71875 4 
z
" id="DejaVuSans-44"/>
      <path id="DejaVuSans-32"/>
      <path d="M 48.6875 27.296875 
Q 48.6875 37.203125 44.609375 42.84375 
Q 40.53125 48.484375 33.40625 48.484375 
Q 26.265625 48.484375 22.1875 42.84375 
Q 18.109375 37.203125 18.109375 27.296875 
Q 18.109375 17.390625 22.1875 11.75 
Q 26.265625 6.109375 33.40625 6.109375 
Q 40.53125 6.109375 44.609375 11.75 
Q 48.6875 17.390625 48.6875 27.296875 
z
M 18.109375 46.390625 
Q 20.953125 51.265625 25.265625 53.625 
Q 29.59375 56 35.59375 56 
Q 45.5625 56 51.78125 48.09375 
Q 58.015625 40.1875 58.015625 27.296875 
Q 58.015625 14.40625 51.78125 6.484375 
Q 45.5625 -1.421875 35.59375 -1.421875 
Q 29.59375 -1.421875 25.265625 0.953125 
Q 20.953125 3.328125 18.109375 8.203125 
L 18.109375 0 
L 9.078125 0 
L 9.078125 75.984375 
L 18.109375 75.984375 
z
" id="DejaVuSans-98"/>
      <path d="M 9.078125 75.984375 
L 18.109375 75.984375 
L 18.109375 31.109375 
L 44.921875 54.6875 
L 56.390625 54.6875 
L 27.390625 29.109375 
L 57.625 0 
L 45.90625 0 
L 18.109375 26.703125 
L 18.109375 0 
L 9.078125 0 
z
" id="DejaVuSans-107"/>
     </defs>
     <use xlink:href="#DejaVuSans-109"/>
     <use x="97.412109" xlink:href="#DejaVuSans-111"/>
     <use x="158.59375" xlink:href="#DejaVuSans-100"/>
     <use x="222.070312" xlink:href="#DejaVuSans-101"/>
     <use x="283.59375" xlink:href="#DejaVuSans-108"/>
     <use x="311.376953" xlink:href="#DejaVuSans-116"/>
     <use x="350.585938" xlink:href="#DejaVuSans-121"/>
     <use x="409.765625" xlink:href="#DejaVuSans-112"/>
     <use x="473.242188" xlink:href="#DejaVuSans-101"/>
     <use x="534.765625" xlink:href="#DejaVuSans-61"/>
     <use x="618.554688" xlink:href="#DejaVuSans-102"/>
     <use x="653.759766" xlink:href="#DejaVuSans-117"/>
     <use x="717.138672" xlink:href="#DejaVuSans-108"/>
     <use x="744.921875" xlink:href="#DejaVuSans-108"/>
     <use x="772.705078" xlink:href="#DejaVuSans-44"/>
     <use x="804.492188" xlink:href="#DejaVuSans-32"/>
     <use x="836.279297" xlink:href="#DejaVuSans-108"/>
     <use x="864.0625" xlink:href="#DejaVuSans-97"/>
     <use x="925.341797" xlink:href="#DejaVuSans-98"/>
     <use x="988.818359" xlink:href="#DejaVuSans-111"/>
     <use x="1050" xlink:href="#DejaVuSans-114"/>
     <use x="1089.363281" xlink:href="#DejaVuSans-109"/>
     <use x="1186.775391" xlink:href="#DejaVuSans-97"/>
     <use x="1248.054688" xlink:href="#DejaVuSans-114"/>
     <use x="1289.167969" xlink:href="#DejaVuSans-107"/>
     <use x="1343.453125" xlink:href="#DejaVuSans-101"/>
     <use x="1404.976562" xlink:href="#DejaVuSans-116"/>
     <use x="1444.185547" xlink:href="#DejaVuSans-61"/>
     <use x="1527.974609" xlink:href="#DejaVuSans-98"/>
     <use x="1591.451172" xlink:href="#DejaVuSans-105"/>
     <use x="1619.234375" xlink:href="#DejaVuSans-97"/>
     <use x="1680.513672" xlink:href="#DejaVuSans-115"/>
     <use x="1732.613281" xlink:href="#DejaVuSans-101"/>
     <use x="1794.136719" xlink:href="#DejaVuSans-100"/>
    </g>
   </g>
   <g id="legend_1">
    <g id="patch_5">
     <path d="M 281.192188 147.414375 
L 446.6 147.414375 
Q 448.6 147.414375 448.6 145.414375 
L 448.6 72.745625 
Q 448.6 70.745625 446.6 70.745625 
L 281.192188 70.745625 
Q 279.192188 70.745625 279.192188 72.745625 
L 279.192188 145.414375 
Q 279.192188 147.414375 281.192188 147.414375 
z
" style="fill:#ffffff;opacity:0.8;stroke:#cccccc;stroke-linejoin:miter;"/>
    </g>
    <g id="text_18">
     <!-- scenario -->
     <g transform="translate(342.728906 82.344063)scale(0.1 -0.1)">
      <use xlink:href="#DejaVuSans-115"/>
      <use x="52.099609" xlink:href="#DejaVuSans-99"/>
      <use x="107.080078" xlink:href="#DejaVuSans-101"/>
      <use x="168.603516" xlink:href="#DejaVuSans-110"/>
      <use x="231.982422" xlink:href="#DejaVuSans-97"/>
      <use x="293.261719" xlink:href="#DejaVuSans-114"/>
      <use x="334.375" xlink:href="#DejaVuSans-105"/>
      <use x="362.158203" xlink:href="#DejaVuSans-111"/>
     </g>
    </g>
    <g id="line2d_23">
     <path d="M 283.192188 93.522188 
L 303.192188 93.522188 
" style="fill:none;stroke:#1f77b4;stroke-linecap:square;stroke-width:1.5;"/>
    </g>
    <g id="line2d_24"/>
    <g id="text_19">
     <!-- onlylow -->
     <g transform="translate(311.192188 97.022188)scale(0.1 -0.1)">
      <defs>
       <path d="M 4.203125 54.6875 
L 13.1875 54.6875 
L 24.421875 12.015625 
L 35.59375 54.6875 
L 46.1875 54.6875 
L 57.421875 12.015625 
L 68.609375 54.6875 
L 77.59375 54.6875 
L 63.28125 0 
L 52.6875 0 
L 40.921875 44.828125 
L 29.109375 0 
L 18.5 0 
z
" id="DejaVuSans-119"/>
      </defs>
      <use xlink:href="#DejaVuSans-111"/>
      <use x="61.181641" xlink:href="#DejaVuSans-110"/>
      <use x="124.560547" xlink:href="#DejaVuSans-108"/>
      <use x="152.34375" xlink:href="#DejaVuSans-121"/>
      <use x="211.523438" xlink:href="#DejaVuSans-108"/>
      <use x="239.306641" xlink:href="#DejaVuSans-111"/>
      <use x="300.488281" xlink:href="#DejaVuSans-119"/>
     </g>
    </g>
    <g id="line2d_25">
     <path d="M 283.192188 108.200312 
L 303.192188 108.200312 
" style="fill:none;stroke:#ff7f0e;stroke-linecap:square;stroke-width:1.5;"/>
    </g>
    <g id="line2d_26"/>
    <g id="text_20">
     <!-- onlyhigh -->
     <g transform="translate(311.192188 111.700312)scale(0.1 -0.1)">
      <defs>
       <path d="M 54.890625 33.015625 
L 54.890625 0 
L 45.90625 0 
L 45.90625 32.71875 
Q 45.90625 40.484375 42.875 44.328125 
Q 39.84375 48.1875 33.796875 48.1875 
Q 26.515625 48.1875 22.3125 43.546875 
Q 18.109375 38.921875 18.109375 30.90625 
L 18.109375 0 
L 9.078125 0 
L 9.078125 75.984375 
L 18.109375 75.984375 
L 18.109375 46.1875 
Q 21.34375 51.125 25.703125 53.5625 
Q 30.078125 56 35.796875 56 
Q 45.21875 56 50.046875 50.171875 
Q 54.890625 44.34375 54.890625 33.015625 
z
" id="DejaVuSans-104"/>
       <path d="M 45.40625 27.984375 
Q 45.40625 37.75 41.375 43.109375 
Q 37.359375 48.484375 30.078125 48.484375 
Q 22.859375 48.484375 18.828125 43.109375 
Q 14.796875 37.75 14.796875 27.984375 
Q 14.796875 18.265625 18.828125 12.890625 
Q 22.859375 7.515625 30.078125 7.515625 
Q 37.359375 7.515625 41.375 12.890625 
Q 45.40625 18.265625 45.40625 27.984375 
z
M 54.390625 6.78125 
Q 54.390625 -7.171875 48.1875 -13.984375 
Q 42 -20.796875 29.203125 -20.796875 
Q 24.46875 -20.796875 20.265625 -20.09375 
Q 16.0625 -19.390625 12.109375 -17.921875 
L 12.109375 -9.1875 
Q 16.0625 -11.328125 19.921875 -12.34375 
Q 23.78125 -13.375 27.78125 -13.375 
Q 36.625 -13.375 41.015625 -8.765625 
Q 45.40625 -4.15625 45.40625 5.171875 
L 45.40625 9.625 
Q 42.625 4.78125 38.28125 2.390625 
Q 33.9375 0 27.875 0 
Q 17.828125 0 11.671875 7.65625 
Q 5.515625 15.328125 5.515625 27.984375 
Q 5.515625 40.671875 11.671875 48.328125 
Q 17.828125 56 27.875 56 
Q 33.9375 56 38.28125 53.609375 
Q 42.625 51.21875 45.40625 46.390625 
L 45.40625 54.6875 
L 54.390625 54.6875 
z
" id="DejaVuSans-103"/>
      </defs>
      <use xlink:href="#DejaVuSans-111"/>
      <use x="61.181641" xlink:href="#DejaVuSans-110"/>
      <use x="124.560547" xlink:href="#DejaVuSans-108"/>
      <use x="152.34375" xlink:href="#DejaVuSans-121"/>
      <use x="211.523438" xlink:href="#DejaVuSans-104"/>
      <use x="274.902344" xlink:href="#DejaVuSans-105"/>
      <use x="302.685547" xlink:href="#DejaVuSans-103"/>
      <use x="366.162109" xlink:href="#DejaVuSans-104"/>
     </g>
    </g>
    <g id="line2d_27">
     <path d="M 283.192188 122.878438 
L 303.192188 122.878438 
" style="fill:none;stroke:#2ca02c;stroke-linecap:square;stroke-width:1.5;"/>
    </g>
    <g id="line2d_28"/>
    <g id="text_21">
     <!-- balanced -->
     <g transform="translate(311.192188 126.378438)scale(0.1 -0.1)">
      <use xlink:href="#DejaVuSans-98"/>
      <use x="63.476562" xlink:href="#DejaVuSans-97"/>
      <use x="124.755859" xlink:href="#DejaVuSans-108"/>
      <use x="152.539062" xlink:href="#DejaVuSans-97"/>
      <use x="213.818359" xlink:href="#DejaVuSans-110"/>
      <use x="277.197266" xlink:href="#DejaVuSans-99"/>
      <use x="332.177734" xlink:href="#DejaVuSans-101"/>
      <use x="393.701172" xlink:href="#DejaVuSans-100"/>
     </g>
    </g>
    <g id="line2d_29">
     <path d="M 283.192188 137.556563 
L 303.192188 137.556563 
" style="fill:none;stroke:#d62728;stroke-linecap:square;stroke-width:1.5;"/>
    </g>
    <g id="line2d_30"/>
    <g id="text_22">
     <!-- balanced_errors_penalized -->
     <g transform="translate(311.192188 141.056563)scale(0.1 -0.1)">
      <use xlink:href="#DejaVuSans-98"/>
      <use x="63.476562" xlink:href="#DejaVuSans-97"/>
      <use x="124.755859" xlink:href="#DejaVuSans-108"/>
      <use x="152.539062" xlink:href="#DejaVuSans-97"/>
      <use x="213.818359" xlink:href="#DejaVuSans-110"/>
      <use x="277.197266" xlink:href="#DejaVuSans-99"/>
      <use x="332.177734" xlink:href="#DejaVuSans-101"/>
      <use x="393.701172" xlink:href="#DejaVuSans-100"/>
      <use x="457.177734" xlink:href="#DejaVuSans-95"/>
      <use x="507.177734" xlink:href="#DejaVuSans-101"/>
      <use x="568.701172" xlink:href="#DejaVuSans-114"/>
      <use x="608.064453" xlink:href="#DejaVuSans-114"/>
      <use x="646.927734" xlink:href="#DejaVuSans-111"/>
      <use x="708.109375" xlink:href="#DejaVuSans-114"/>
      <use x="749.222656" xlink:href="#DejaVuSans-115"/>
      <use x="801.322266" xlink:href="#DejaVuSans-95"/>
      <use x="851.322266" xlink:href="#DejaVuSans-112"/>
      <use x="914.798828" xlink:href="#DejaVuSans-101"/>
      <use x="976.322266" xlink:href="#DejaVuSans-110"/>
      <use x="1039.701172" xlink:href="#DejaVuSans-97"/>
      <use x="1100.980469" xlink:href="#DejaVuSans-108"/>
      <use x="1128.763672" xlink:href="#DejaVuSans-105"/>
      <use x="1156.546875" xlink:href="#DejaVuSans-122"/>
      <use x="1209.037109" xlink:href="#DejaVuSans-101"/>
      <use x="1270.560547" xlink:href="#DejaVuSans-100"/>
     </g>
    </g>
   </g>
  </g>
 </g>
 <defs>
  <clipPath id="paa4d24db4e">
   <rect height="166.32" width="390.6" x="63" y="25.92"/>
  </clipPath>
 </defs>
</svg>
