<?xml version="1.0" encoding="utf-8" standalone="no"?>
<!DOCTYPE svg PUBLIC "-//W3C//DTD SVG 1.1//EN"
  "http://www.w3.org/Graphics/SVG/1.1/DTD/svg11.dtd">
<!-- Created with matplotlib (https://matplotlib.org/) -->
<svg height="216pt" version="1.1" viewBox="0 0 504 216" width="504pt" xmlns="http://www.w3.org/2000/svg" xmlns:xlink="http://www.w3.org/1999/xlink">
 <metadata>
  <rdf:RDF xmlns:cc="http://creativecommons.org/ns#" xmlns:dc="http://purl.org/dc/elements/1.1/" xmlns:rdf="http://www.w3.org/1999/02/22-rdf-syntax-ns#">
   <cc:Work>
    <dc:type rdf:resource="http://purl.org/dc/dcmitype/StillImage"/>
    <dc:date>2022-01-19T13:53:38.034741</dc:date>
    <dc:format>image/svg+xml</dc:format>
    <dc:creator>
     <cc:Agent>
      <dc:title>Matplotlib v3.3.4, https://matplotlib.org/</dc:title>
     </cc:Agent>
    </dc:creator>
   </cc:Work>
  </rdf:RDF>
 </metadata>
 <defs>
  <style type="text/css">*{stroke-linecap:butt;stroke-linejoin:round;}</style>
 </defs>
 <g id="figure_1">
  <g id="patch_1">
   <path d="M 0 216 
L 504 216 
L 504 0 
L 0 0 
z
" style="fill:#ffffff;"/>
  </g>
  <g id="axes_1">
   <g id="patch_2">
    <path d="M 63 192.24 
L 453.6 192.24 
L 453.6 25.92 
L 63 25.92 
z
" style="fill:#ffffff;"/>
   </g>
   <g id="matplotlib.axis_1">
    <g id="xtick_1">
     <g id="line2d_1">
      <defs>
       <path d="M 0 0 
L 0 3.5 
" id="m5cd0f1c37a" style="stroke:#000000;stroke-width:0.8;"/>
      </defs>
      <g>
       <use style="stroke:#000000;stroke-width:0.8;" x="79.862357" xlink:href="#m5cd0f1c37a" y="192.24"/>
      </g>
     </g>
     <g id="text_1">
      <!-- 400 -->
      <g transform="translate(70.318607 206.838437)scale(0.1 -0.1)">
       <defs>
        <path d="M 37.796875 64.3125 
L 12.890625 25.390625 
L 37.796875 25.390625 
z
M 35.203125 72.90625 
L 47.609375 72.90625 
L 47.609375 25.390625 
L 58.015625 25.390625 
L 58.015625 17.1875 
L 47.609375 17.1875 
L 47.609375 0 
L 37.796875 0 
L 37.796875 17.1875 
L 4.890625 17.1875 
L 4.890625 26.703125 
z
" id="DejaVuSans-52"/>
        <path d="M 31.78125 66.40625 
Q 24.171875 66.40625 20.328125 58.90625 
Q 16.5 51.421875 16.5 36.375 
Q 16.5 21.390625 20.328125 13.890625 
Q 24.171875 6.390625 31.78125 6.390625 
Q 39.453125 6.390625 43.28125 13.890625 
Q 47.125 21.390625 47.125 36.375 
Q 47.125 51.421875 43.28125 58.90625 
Q 39.453125 66.40625 31.78125 66.40625 
z
M 31.78125 74.21875 
Q 44.046875 74.21875 50.515625 64.515625 
Q 56.984375 54.828125 56.984375 36.375 
Q 56.984375 17.96875 50.515625 8.265625 
Q 44.046875 -1.421875 31.78125 -1.421875 
Q 19.53125 -1.421875 13.0625 8.265625 
Q 6.59375 17.96875 6.59375 36.375 
Q 6.59375 54.828125 13.0625 64.515625 
Q 19.53125 74.21875 31.78125 74.21875 
z
" id="DejaVuSans-48"/>
       </defs>
       <use xlink:href="#DejaVuSans-52"/>
       <use x="63.623047" xlink:href="#DejaVuSans-48"/>
       <use x="127.246094" xlink:href="#DejaVuSans-48"/>
      </g>
     </g>
    </g>
    <g id="xtick_2">
     <g id="line2d_2">
      <g>
       <use style="stroke:#000000;stroke-width:0.8;" x="124.471768" xlink:href="#m5cd0f1c37a" y="192.24"/>
      </g>
     </g>
     <g id="text_2">
      <!-- 450 -->
      <g transform="translate(114.928018 206.838437)scale(0.1 -0.1)">
       <defs>
        <path d="M 10.796875 72.90625 
L 49.515625 72.90625 
L 49.515625 64.59375 
L 19.828125 64.59375 
L 19.828125 46.734375 
Q 21.96875 47.46875 24.109375 47.828125 
Q 26.265625 48.1875 28.421875 48.1875 
Q 40.625 48.1875 47.75 41.5 
Q 54.890625 34.8125 54.890625 23.390625 
Q 54.890625 11.625 47.5625 5.09375 
Q 40.234375 -1.421875 26.90625 -1.421875 
Q 22.3125 -1.421875 17.546875 -0.640625 
Q 12.796875 0.140625 7.71875 1.703125 
L 7.71875 11.625 
Q 12.109375 9.234375 16.796875 8.0625 
Q 21.484375 6.890625 26.703125 6.890625 
Q 35.15625 6.890625 40.078125 11.328125 
Q 45.015625 15.765625 45.015625 23.390625 
Q 45.015625 31 40.078125 35.4375 
Q 35.15625 39.890625 26.703125 39.890625 
Q 22.75 39.890625 18.8125 39.015625 
Q 14.890625 38.140625 10.796875 36.28125 
z
" id="DejaVuSans-53"/>
       </defs>
       <use xlink:href="#DejaVuSans-52"/>
       <use x="63.623047" xlink:href="#DejaVuSans-53"/>
       <use x="127.246094" xlink:href="#DejaVuSans-48"/>
      </g>
     </g>
    </g>
    <g id="xtick_3">
     <g id="line2d_3">
      <g>
       <use style="stroke:#000000;stroke-width:0.8;" x="169.081179" xlink:href="#m5cd0f1c37a" y="192.24"/>
      </g>
     </g>
     <g id="text_3">
      <!-- 500 -->
      <g transform="translate(159.537429 206.838437)scale(0.1 -0.1)">
       <use xlink:href="#DejaVuSans-53"/>
       <use x="63.623047" xlink:href="#DejaVuSans-48"/>
       <use x="127.246094" xlink:href="#DejaVuSans-48"/>
      </g>
     </g>
    </g>
    <g id="xtick_4">
     <g id="line2d_4">
      <g>
       <use style="stroke:#000000;stroke-width:0.8;" x="213.690589" xlink:href="#m5cd0f1c37a" y="192.24"/>
      </g>
     </g>
     <g id="text_4">
      <!-- 550 -->
      <g transform="translate(204.146839 206.838437)scale(0.1 -0.1)">
       <use xlink:href="#DejaVuSans-53"/>
       <use x="63.623047" xlink:href="#DejaVuSans-53"/>
       <use x="127.246094" xlink:href="#DejaVuSans-48"/>
      </g>
     </g>
    </g>
    <g id="xtick_5">
     <g id="line2d_5">
      <g>
       <use style="stroke:#000000;stroke-width:0.8;" x="258.3" xlink:href="#m5cd0f1c37a" y="192.24"/>
      </g>
     </g>
     <g id="text_5">
      <!-- 600 -->
      <g transform="translate(248.75625 206.838437)scale(0.1 -0.1)">
       <defs>
        <path d="M 33.015625 40.375 
Q 26.375 40.375 22.484375 35.828125 
Q 18.609375 31.296875 18.609375 23.390625 
Q 18.609375 15.53125 22.484375 10.953125 
Q 26.375 6.390625 33.015625 6.390625 
Q 39.65625 6.390625 43.53125 10.953125 
Q 47.40625 15.53125 47.40625 23.390625 
Q 47.40625 31.296875 43.53125 35.828125 
Q 39.65625 40.375 33.015625 40.375 
z
M 52.59375 71.296875 
L 52.59375 62.3125 
Q 48.875 64.0625 45.09375 64.984375 
Q 41.3125 65.921875 37.59375 65.921875 
Q 27.828125 65.921875 22.671875 59.328125 
Q 17.53125 52.734375 16.796875 39.40625 
Q 19.671875 43.65625 24.015625 45.921875 
Q 28.375 48.1875 33.59375 48.1875 
Q 44.578125 48.1875 50.953125 41.515625 
Q 57.328125 34.859375 57.328125 23.390625 
Q 57.328125 12.15625 50.6875 5.359375 
Q 44.046875 -1.421875 33.015625 -1.421875 
Q 20.359375 -1.421875 13.671875 8.265625 
Q 6.984375 17.96875 6.984375 36.375 
Q 6.984375 53.65625 15.1875 63.9375 
Q 23.390625 74.21875 37.203125 74.21875 
Q 40.921875 74.21875 44.703125 73.484375 
Q 48.484375 72.75 52.59375 71.296875 
z
" id="DejaVuSans-54"/>
       </defs>
       <use xlink:href="#DejaVuSans-54"/>
       <use x="63.623047" xlink:href="#DejaVuSans-48"/>
       <use x="127.246094" xlink:href="#DejaVuSans-48"/>
      </g>
     </g>
    </g>
    <g id="xtick_6">
     <g id="line2d_6">
      <g>
       <use style="stroke:#000000;stroke-width:0.8;" x="302.909411" xlink:href="#m5cd0f1c37a" y="192.24"/>
      </g>
     </g>
     <g id="text_6">
      <!-- 650 -->
      <g transform="translate(293.365661 206.838437)scale(0.1 -0.1)">
       <use xlink:href="#DejaVuSans-54"/>
       <use x="63.623047" xlink:href="#DejaVuSans-53"/>
       <use x="127.246094" xlink:href="#DejaVuSans-48"/>
      </g>
     </g>
    </g>
    <g id="xtick_7">
     <g id="line2d_7">
      <g>
       <use style="stroke:#000000;stroke-width:0.8;" x="347.518821" xlink:href="#m5cd0f1c37a" y="192.24"/>
      </g>
     </g>
     <g id="text_7">
      <!-- 700 -->
      <g transform="translate(337.975071 206.838437)scale(0.1 -0.1)">
       <defs>
        <path d="M 8.203125 72.90625 
L 55.078125 72.90625 
L 55.078125 68.703125 
L 28.609375 0 
L 18.3125 0 
L 43.21875 64.59375 
L 8.203125 64.59375 
z
" id="DejaVuSans-55"/>
       </defs>
       <use xlink:href="#DejaVuSans-55"/>
       <use x="63.623047" xlink:href="#DejaVuSans-48"/>
       <use x="127.246094" xlink:href="#DejaVuSans-48"/>
      </g>
     </g>
    </g>
    <g id="xtick_8">
     <g id="line2d_8">
      <g>
       <use style="stroke:#000000;stroke-width:0.8;" x="392.128232" xlink:href="#m5cd0f1c37a" y="192.24"/>
      </g>
     </g>
     <g id="text_8">
      <!-- 750 -->
      <g transform="translate(382.584482 206.838437)scale(0.1 -0.1)">
       <use xlink:href="#DejaVuSans-55"/>
       <use x="63.623047" xlink:href="#DejaVuSans-53"/>
       <use x="127.246094" xlink:href="#DejaVuSans-48"/>
      </g>
     </g>
    </g>
    <g id="xtick_9">
     <g id="line2d_9">
      <g>
       <use style="stroke:#000000;stroke-width:0.8;" x="436.737643" xlink:href="#m5cd0f1c37a" y="192.24"/>
      </g>
     </g>
     <g id="text_9">
      <!-- 800 -->
      <g transform="translate(427.193893 206.838437)scale(0.1 -0.1)">
       <defs>
        <path d="M 31.78125 34.625 
Q 24.75 34.625 20.71875 30.859375 
Q 16.703125 27.09375 16.703125 20.515625 
Q 16.703125 13.921875 20.71875 10.15625 
Q 24.75 6.390625 31.78125 6.390625 
Q 38.8125 6.390625 42.859375 10.171875 
Q 46.921875 13.96875 46.921875 20.515625 
Q 46.921875 27.09375 42.890625 30.859375 
Q 38.875 34.625 31.78125 34.625 
z
M 21.921875 38.8125 
Q 15.578125 40.375 12.03125 44.71875 
Q 8.5 49.078125 8.5 55.328125 
Q 8.5 64.0625 14.71875 69.140625 
Q 20.953125 74.21875 31.78125 74.21875 
Q 42.671875 74.21875 48.875 69.140625 
Q 55.078125 64.0625 55.078125 55.328125 
Q 55.078125 49.078125 51.53125 44.71875 
Q 48 40.375 41.703125 38.8125 
Q 48.828125 37.15625 52.796875 32.3125 
Q 56.78125 27.484375 56.78125 20.515625 
Q 56.78125 9.90625 50.3125 4.234375 
Q 43.84375 -1.421875 31.78125 -1.421875 
Q 19.734375 -1.421875 13.25 4.234375 
Q 6.78125 9.90625 6.78125 20.515625 
Q 6.78125 27.484375 10.78125 32.3125 
Q 14.796875 37.15625 21.921875 38.8125 
z
M 18.3125 54.390625 
Q 18.3125 48.734375 21.84375 45.5625 
Q 25.390625 42.390625 31.78125 42.390625 
Q 38.140625 42.390625 41.71875 45.5625 
Q 45.3125 48.734375 45.3125 54.390625 
Q 45.3125 60.0625 41.71875 63.234375 
Q 38.140625 66.40625 31.78125 66.40625 
Q 25.390625 66.40625 21.84375 63.234375 
Q 18.3125 60.0625 18.3125 54.390625 
z
" id="DejaVuSans-56"/>
       </defs>
       <use xlink:href="#DejaVuSans-56"/>
       <use x="63.623047" xlink:href="#DejaVuSans-48"/>
       <use x="127.246094" xlink:href="#DejaVuSans-48"/>
      </g>
     </g>
    </g>
    <g id="text_10">
     <!-- time -->
     <g transform="translate(247.003906 220.516562)scale(0.1 -0.1)">
      <defs>
       <path d="M 18.3125 70.21875 
L 18.3125 54.6875 
L 36.8125 54.6875 
L 36.8125 47.703125 
L 18.3125 47.703125 
L 18.3125 18.015625 
Q 18.3125 11.328125 20.140625 9.421875 
Q 21.96875 7.515625 27.59375 7.515625 
L 36.8125 7.515625 
L 36.8125 0 
L 27.59375 0 
Q 17.1875 0 13.234375 3.875 
Q 9.28125 7.765625 9.28125 18.015625 
L 9.28125 47.703125 
L 2.6875 47.703125 
L 2.6875 54.6875 
L 9.28125 54.6875 
L 9.28125 70.21875 
z
" id="DejaVuSans-116"/>
       <path d="M 9.421875 54.6875 
L 18.40625 54.6875 
L 18.40625 0 
L 9.421875 0 
z
M 9.421875 75.984375 
L 18.40625 75.984375 
L 18.40625 64.59375 
L 9.421875 64.59375 
z
" id="DejaVuSans-105"/>
       <path d="M 52 44.1875 
Q 55.375 50.25 60.0625 53.125 
Q 64.75 56 71.09375 56 
Q 79.640625 56 84.28125 50.015625 
Q 88.921875 44.046875 88.921875 33.015625 
L 88.921875 0 
L 79.890625 0 
L 79.890625 32.71875 
Q 79.890625 40.578125 77.09375 44.375 
Q 74.3125 48.1875 68.609375 48.1875 
Q 61.625 48.1875 57.5625 43.546875 
Q 53.515625 38.921875 53.515625 30.90625 
L 53.515625 0 
L 44.484375 0 
L 44.484375 32.71875 
Q 44.484375 40.625 41.703125 44.40625 
Q 38.921875 48.1875 33.109375 48.1875 
Q 26.21875 48.1875 22.15625 43.53125 
Q 18.109375 38.875 18.109375 30.90625 
L 18.109375 0 
L 9.078125 0 
L 9.078125 54.6875 
L 18.109375 54.6875 
L 18.109375 46.1875 
Q 21.1875 51.21875 25.484375 53.609375 
Q 29.78125 56 35.6875 56 
Q 41.65625 56 45.828125 52.96875 
Q 50 49.953125 52 44.1875 
z
" id="DejaVuSans-109"/>
       <path d="M 56.203125 29.59375 
L 56.203125 25.203125 
L 14.890625 25.203125 
Q 15.484375 15.921875 20.484375 11.0625 
Q 25.484375 6.203125 34.421875 6.203125 
Q 39.59375 6.203125 44.453125 7.46875 
Q 49.3125 8.734375 54.109375 11.28125 
L 54.109375 2.78125 
Q 49.265625 0.734375 44.1875 -0.34375 
Q 39.109375 -1.421875 33.890625 -1.421875 
Q 20.796875 -1.421875 13.15625 6.1875 
Q 5.515625 13.8125 5.515625 26.8125 
Q 5.515625 40.234375 12.765625 48.109375 
Q 20.015625 56 32.328125 56 
Q 43.359375 56 49.78125 48.890625 
Q 56.203125 41.796875 56.203125 29.59375 
z
M 47.21875 32.234375 
Q 47.125 39.59375 43.09375 43.984375 
Q 39.0625 48.390625 32.421875 48.390625 
Q 24.90625 48.390625 20.390625 44.140625 
Q 15.875 39.890625 15.1875 32.171875 
z
" id="DejaVuSans-101"/>
      </defs>
      <use xlink:href="#DejaVuSans-116"/>
      <use x="39.208984" xlink:href="#DejaVuSans-105"/>
      <use x="66.992188" xlink:href="#DejaVuSans-109"/>
      <use x="164.404297" xlink:href="#DejaVuSans-101"/>
     </g>
    </g>
   </g>
   <g id="matplotlib.axis_2">
    <g id="ytick_1">
     <g id="line2d_10">
      <defs>
       <path d="M 0 0 
L -3.5 0 
" id="m440f11b70c" style="stroke:#000000;stroke-width:0.8;"/>
      </defs>
      <g>
       <use style="stroke:#000000;stroke-width:0.8;" x="63" xlink:href="#m440f11b70c" y="185.648929"/>
      </g>
     </g>
     <g id="text_11">
      <!-- 0.498 -->
      <g transform="translate(27.371875 189.448147)scale(0.1 -0.1)">
       <defs>
        <path d="M 10.6875 12.40625 
L 21 12.40625 
L 21 0 
L 10.6875 0 
z
" id="DejaVuSans-46"/>
        <path d="M 10.984375 1.515625 
L 10.984375 10.5 
Q 14.703125 8.734375 18.5 7.8125 
Q 22.3125 6.890625 25.984375 6.890625 
Q 35.75 6.890625 40.890625 13.453125 
Q 46.046875 20.015625 46.78125 33.40625 
Q 43.953125 29.203125 39.59375 26.953125 
Q 35.25 24.703125 29.984375 24.703125 
Q 19.046875 24.703125 12.671875 31.3125 
Q 6.296875 37.9375 6.296875 49.421875 
Q 6.296875 60.640625 12.9375 67.421875 
Q 19.578125 74.21875 30.609375 74.21875 
Q 43.265625 74.21875 49.921875 64.515625 
Q 56.59375 54.828125 56.59375 36.375 
Q 56.59375 19.140625 48.40625 8.859375 
Q 40.234375 -1.421875 26.421875 -1.421875 
Q 22.703125 -1.421875 18.890625 -0.6875 
Q 15.09375 0.046875 10.984375 1.515625 
z
M 30.609375 32.421875 
Q 37.25 32.421875 41.125 36.953125 
Q 45.015625 41.5 45.015625 49.421875 
Q 45.015625 57.28125 41.125 61.84375 
Q 37.25 66.40625 30.609375 66.40625 
Q 23.96875 66.40625 20.09375 61.84375 
Q 16.21875 57.28125 16.21875 49.421875 
Q 16.21875 41.5 20.09375 36.953125 
Q 23.96875 32.421875 30.609375 32.421875 
z
" id="DejaVuSans-57"/>
       </defs>
       <use xlink:href="#DejaVuSans-48"/>
       <use x="63.623047" xlink:href="#DejaVuSans-46"/>
       <use x="95.410156" xlink:href="#DejaVuSans-52"/>
       <use x="159.033203" xlink:href="#DejaVuSans-57"/>
       <use x="222.65625" xlink:href="#DejaVuSans-56"/>
      </g>
     </g>
    </g>
    <g id="ytick_2">
     <g id="line2d_11">
      <g>
       <use style="stroke:#000000;stroke-width:0.8;" x="63" xlink:href="#m440f11b70c" y="146.488762"/>
      </g>
     </g>
     <g id="text_12">
      <!-- 0.500 -->
      <g transform="translate(27.371875 150.287981)scale(0.1 -0.1)">
       <use xlink:href="#DejaVuSans-48"/>
       <use x="63.623047" xlink:href="#DejaVuSans-46"/>
       <use x="95.410156" xlink:href="#DejaVuSans-53"/>
       <use x="159.033203" xlink:href="#DejaVuSans-48"/>
       <use x="222.65625" xlink:href="#DejaVuSans-48"/>
      </g>
     </g>
    </g>
    <g id="ytick_3">
     <g id="line2d_12">
      <g>
       <use style="stroke:#000000;stroke-width:0.8;" x="63" xlink:href="#m440f11b70c" y="107.328595"/>
      </g>
     </g>
     <g id="text_13">
      <!-- 0.502 -->
      <g transform="translate(27.371875 111.127814)scale(0.1 -0.1)">
       <defs>
        <path d="M 19.1875 8.296875 
L 53.609375 8.296875 
L 53.609375 0 
L 7.328125 0 
L 7.328125 8.296875 
Q 12.9375 14.109375 22.625 23.890625 
Q 32.328125 33.6875 34.8125 36.53125 
Q 39.546875 41.84375 41.421875 45.53125 
Q 43.3125 49.21875 43.3125 52.78125 
Q 43.3125 58.59375 39.234375 62.25 
Q 35.15625 65.921875 28.609375 65.921875 
Q 23.96875 65.921875 18.8125 64.3125 
Q 13.671875 62.703125 7.8125 59.421875 
L 7.8125 69.390625 
Q 13.765625 71.78125 18.9375 73 
Q 24.125 74.21875 28.421875 74.21875 
Q 39.75 74.21875 46.484375 68.546875 
Q 53.21875 62.890625 53.21875 53.421875 
Q 53.21875 48.921875 51.53125 44.890625 
Q 49.859375 40.875 45.40625 35.40625 
Q 44.1875 33.984375 37.640625 27.21875 
Q 31.109375 20.453125 19.1875 8.296875 
z
" id="DejaVuSans-50"/>
       </defs>
       <use xlink:href="#DejaVuSans-48"/>
       <use x="63.623047" xlink:href="#DejaVuSans-46"/>
       <use x="95.410156" xlink:href="#DejaVuSans-53"/>
       <use x="159.033203" xlink:href="#DejaVuSans-48"/>
       <use x="222.65625" xlink:href="#DejaVuSans-50"/>
      </g>
     </g>
    </g>
    <g id="ytick_4">
     <g id="line2d_13">
      <g>
       <use style="stroke:#000000;stroke-width:0.8;" x="63" xlink:href="#m440f11b70c" y="68.168429"/>
      </g>
     </g>
     <g id="text_14">
      <!-- 0.504 -->
      <g transform="translate(27.371875 71.967647)scale(0.1 -0.1)">
       <use xlink:href="#DejaVuSans-48"/>
       <use x="63.623047" xlink:href="#DejaVuSans-46"/>
       <use x="95.410156" xlink:href="#DejaVuSans-53"/>
       <use x="159.033203" xlink:href="#DejaVuSans-48"/>
       <use x="222.65625" xlink:href="#DejaVuSans-52"/>
      </g>
     </g>
    </g>
    <g id="ytick_5">
     <g id="line2d_14">
      <g>
       <use style="stroke:#000000;stroke-width:0.8;" x="63" xlink:href="#m440f11b70c" y="29.008262"/>
      </g>
     </g>
     <g id="text_15">
      <!-- 0.506 -->
      <g transform="translate(27.371875 32.807481)scale(0.1 -0.1)">
       <use xlink:href="#DejaVuSans-48"/>
       <use x="63.623047" xlink:href="#DejaVuSans-46"/>
       <use x="95.410156" xlink:href="#DejaVuSans-53"/>
       <use x="159.033203" xlink:href="#DejaVuSans-48"/>
       <use x="222.65625" xlink:href="#DejaVuSans-54"/>
      </g>
     </g>
    </g>
    <g id="text_16">
     <!-- coef2_standardized -->
     <g transform="translate(21.014062 157.84875)rotate(-90)scale(0.1 -0.1)">
      <defs>
       <path d="M 48.78125 52.59375 
L 48.78125 44.1875 
Q 44.96875 46.296875 41.140625 47.34375 
Q 37.3125 48.390625 33.40625 48.390625 
Q 24.65625 48.390625 19.8125 42.84375 
Q 14.984375 37.3125 14.984375 27.296875 
Q 14.984375 17.28125 19.8125 11.734375 
Q 24.65625 6.203125 33.40625 6.203125 
Q 37.3125 6.203125 41.140625 7.25 
Q 44.96875 8.296875 48.78125 10.40625 
L 48.78125 2.09375 
Q 45.015625 0.34375 40.984375 -0.53125 
Q 36.96875 -1.421875 32.421875 -1.421875 
Q 20.0625 -1.421875 12.78125 6.34375 
Q 5.515625 14.109375 5.515625 27.296875 
Q 5.515625 40.671875 12.859375 48.328125 
Q 20.21875 56 33.015625 56 
Q 37.15625 56 41.109375 55.140625 
Q 45.0625 54.296875 48.78125 52.59375 
z
" id="DejaVuSans-99"/>
       <path d="M 30.609375 48.390625 
Q 23.390625 48.390625 19.1875 42.75 
Q 14.984375 37.109375 14.984375 27.296875 
Q 14.984375 17.484375 19.15625 11.84375 
Q 23.34375 6.203125 30.609375 6.203125 
Q 37.796875 6.203125 41.984375 11.859375 
Q 46.1875 17.53125 46.1875 27.296875 
Q 46.1875 37.015625 41.984375 42.703125 
Q 37.796875 48.390625 30.609375 48.390625 
z
M 30.609375 56 
Q 42.328125 56 49.015625 48.375 
Q 55.71875 40.765625 55.71875 27.296875 
Q 55.71875 13.875 49.015625 6.21875 
Q 42.328125 -1.421875 30.609375 -1.421875 
Q 18.84375 -1.421875 12.171875 6.21875 
Q 5.515625 13.875 5.515625 27.296875 
Q 5.515625 40.765625 12.171875 48.375 
Q 18.84375 56 30.609375 56 
z
" id="DejaVuSans-111"/>
       <path d="M 37.109375 75.984375 
L 37.109375 68.5 
L 28.515625 68.5 
Q 23.6875 68.5 21.796875 66.546875 
Q 19.921875 64.59375 19.921875 59.515625 
L 19.921875 54.6875 
L 34.71875 54.6875 
L 34.71875 47.703125 
L 19.921875 47.703125 
L 19.921875 0 
L 10.890625 0 
L 10.890625 47.703125 
L 2.296875 47.703125 
L 2.296875 54.6875 
L 10.890625 54.6875 
L 10.890625 58.5 
Q 10.890625 67.625 15.140625 71.796875 
Q 19.390625 75.984375 28.609375 75.984375 
z
" id="DejaVuSans-102"/>
       <path d="M 50.984375 -16.609375 
L 50.984375 -23.578125 
L -0.984375 -23.578125 
L -0.984375 -16.609375 
z
" id="DejaVuSans-95"/>
       <path d="M 44.28125 53.078125 
L 44.28125 44.578125 
Q 40.484375 46.53125 36.375 47.5 
Q 32.28125 48.484375 27.875 48.484375 
Q 21.1875 48.484375 17.84375 46.4375 
Q 14.5 44.390625 14.5 40.28125 
Q 14.5 37.15625 16.890625 35.375 
Q 19.28125 33.59375 26.515625 31.984375 
L 29.59375 31.296875 
Q 39.15625 29.25 43.1875 25.515625 
Q 47.21875 21.78125 47.21875 15.09375 
Q 47.21875 7.46875 41.1875 3.015625 
Q 35.15625 -1.421875 24.609375 -1.421875 
Q 20.21875 -1.421875 15.453125 -0.5625 
Q 10.6875 0.296875 5.421875 2 
L 5.421875 11.28125 
Q 10.40625 8.6875 15.234375 7.390625 
Q 20.0625 6.109375 24.8125 6.109375 
Q 31.15625 6.109375 34.5625 8.28125 
Q 37.984375 10.453125 37.984375 14.40625 
Q 37.984375 18.0625 35.515625 20.015625 
Q 33.0625 21.96875 24.703125 23.78125 
L 21.578125 24.515625 
Q 13.234375 26.265625 9.515625 29.90625 
Q 5.8125 33.546875 5.8125 39.890625 
Q 5.8125 47.609375 11.28125 51.796875 
Q 16.75 56 26.8125 56 
Q 31.78125 56 36.171875 55.265625 
Q 40.578125 54.546875 44.28125 53.078125 
z
" id="DejaVuSans-115"/>
       <path d="M 34.28125 27.484375 
Q 23.390625 27.484375 19.1875 25 
Q 14.984375 22.515625 14.984375 16.5 
Q 14.984375 11.71875 18.140625 8.90625 
Q 21.296875 6.109375 26.703125 6.109375 
Q 34.1875 6.109375 38.703125 11.40625 
Q 43.21875 16.703125 43.21875 25.484375 
L 43.21875 27.484375 
z
M 52.203125 31.203125 
L 52.203125 0 
L 43.21875 0 
L 43.21875 8.296875 
Q 40.140625 3.328125 35.546875 0.953125 
Q 30.953125 -1.421875 24.3125 -1.421875 
Q 15.921875 -1.421875 10.953125 3.296875 
Q 6 8.015625 6 15.921875 
Q 6 25.140625 12.171875 29.828125 
Q 18.359375 34.515625 30.609375 34.515625 
L 43.21875 34.515625 
L 43.21875 35.40625 
Q 43.21875 41.609375 39.140625 45 
Q 35.0625 48.390625 27.6875 48.390625 
Q 23 48.390625 18.546875 47.265625 
Q 14.109375 46.140625 10.015625 43.890625 
L 10.015625 52.203125 
Q 14.9375 54.109375 19.578125 55.046875 
Q 24.21875 56 28.609375 56 
Q 40.484375 56 46.34375 49.84375 
Q 52.203125 43.703125 52.203125 31.203125 
z
" id="DejaVuSans-97"/>
       <path d="M 54.890625 33.015625 
L 54.890625 0 
L 45.90625 0 
L 45.90625 32.71875 
Q 45.90625 40.484375 42.875 44.328125 
Q 39.84375 48.1875 33.796875 48.1875 
Q 26.515625 48.1875 22.3125 43.546875 
Q 18.109375 38.921875 18.109375 30.90625 
L 18.109375 0 
L 9.078125 0 
L 9.078125 54.6875 
L 18.109375 54.6875 
L 18.109375 46.1875 
Q 21.34375 51.125 25.703125 53.5625 
Q 30.078125 56 35.796875 56 
Q 45.21875 56 50.046875 50.171875 
Q 54.890625 44.34375 54.890625 33.015625 
z
" id="DejaVuSans-110"/>
       <path d="M 45.40625 46.390625 
L 45.40625 75.984375 
L 54.390625 75.984375 
L 54.390625 0 
L 45.40625 0 
L 45.40625 8.203125 
Q 42.578125 3.328125 38.25 0.953125 
Q 33.9375 -1.421875 27.875 -1.421875 
Q 17.96875 -1.421875 11.734375 6.484375 
Q 5.515625 14.40625 5.515625 27.296875 
Q 5.515625 40.1875 11.734375 48.09375 
Q 17.96875 56 27.875 56 
Q 33.9375 56 38.25 53.625 
Q 42.578125 51.265625 45.40625 46.390625 
z
M 14.796875 27.296875 
Q 14.796875 17.390625 18.875 11.75 
Q 22.953125 6.109375 30.078125 6.109375 
Q 37.203125 6.109375 41.296875 11.75 
Q 45.40625 17.390625 45.40625 27.296875 
Q 45.40625 37.203125 41.296875 42.84375 
Q 37.203125 48.484375 30.078125 48.484375 
Q 22.953125 48.484375 18.875 42.84375 
Q 14.796875 37.203125 14.796875 27.296875 
z
" id="DejaVuSans-100"/>
       <path d="M 41.109375 46.296875 
Q 39.59375 47.171875 37.8125 47.578125 
Q 36.03125 48 33.890625 48 
Q 26.265625 48 22.1875 43.046875 
Q 18.109375 38.09375 18.109375 28.8125 
L 18.109375 0 
L 9.078125 0 
L 9.078125 54.6875 
L 18.109375 54.6875 
L 18.109375 46.1875 
Q 20.953125 51.171875 25.484375 53.578125 
Q 30.03125 56 36.53125 56 
Q 37.453125 56 38.578125 55.875 
Q 39.703125 55.765625 41.0625 55.515625 
z
" id="DejaVuSans-114"/>
       <path d="M 5.515625 54.6875 
L 48.1875 54.6875 
L 48.1875 46.484375 
L 14.40625 7.171875 
L 48.1875 7.171875 
L 48.1875 0 
L 4.296875 0 
L 4.296875 8.203125 
L 38.09375 47.515625 
L 5.515625 47.515625 
z
" id="DejaVuSans-122"/>
      </defs>
      <use xlink:href="#DejaVuSans-99"/>
      <use x="54.980469" xlink:href="#DejaVuSans-111"/>
      <use x="116.162109" xlink:href="#DejaVuSans-101"/>
      <use x="177.685547" xlink:href="#DejaVuSans-102"/>
      <use x="212.890625" xlink:href="#DejaVuSans-50"/>
      <use x="276.513672" xlink:href="#DejaVuSans-95"/>
      <use x="326.513672" xlink:href="#DejaVuSans-115"/>
      <use x="378.613281" xlink:href="#DejaVuSans-116"/>
      <use x="417.822266" xlink:href="#DejaVuSans-97"/>
      <use x="479.101562" xlink:href="#DejaVuSans-110"/>
      <use x="542.480469" xlink:href="#DejaVuSans-100"/>
      <use x="605.957031" xlink:href="#DejaVuSans-97"/>
      <use x="667.236328" xlink:href="#DejaVuSans-114"/>
      <use x="706.599609" xlink:href="#DejaVuSans-100"/>
      <use x="770.076172" xlink:href="#DejaVuSans-105"/>
      <use x="797.859375" xlink:href="#DejaVuSans-122"/>
      <use x="850.349609" xlink:href="#DejaVuSans-101"/>
      <use x="911.873047" xlink:href="#DejaVuSans-100"/>
     </g>
    </g>
   </g>
   <g id="line2d_15">
    <path clip-path="url(#p5d70e185f6)" d="M 80.754545 160.871363 
L 81.646734 159.481729 
L 82.538922 157.623691 
L 83.43111 158.343517 
L 84.323298 158.389986 
L 85.215487 156.587252 
L 86.107675 155.08382 
L 86.999863 152.792866 
L 87.892051 152.441604 
L 89.676428 145.012365 
L 90.568616 145.17081 
L 91.460804 145.908631 
L 92.352992 145.557329 
L 93.24518 145.034573 
L 94.137369 145.306414 
L 95.029557 148.240935 
L 95.921745 147.853765 
L 96.813933 148.01387 
L 97.706122 149.030235 
L 98.59831 147.545439 
L 99.490498 141.969541 
L 100.382686 147.647853 
L 101.274874 147.282268 
L 102.167063 149.615286 
L 103.059251 150.183306 
L 103.951439 151.523744 
L 104.843627 147.903839 
L 105.735815 146.870974 
L 106.628004 151.281447 
L 107.520192 153.482967 
L 108.41238 154.341369 
L 109.304568 157.469652 
L 110.196757 158.652779 
L 111.088945 160.356845 
L 111.981133 157.732632 
L 112.873321 159.669416 
L 113.765509 161.169387 
L 114.657698 155.507943 
L 115.549886 156.928695 
L 117.334262 157.833736 
L 118.22645 153.242074 
L 119.118639 154.153948 
L 120.010827 154.86952 
L 120.903015 156.815816 
L 121.795203 157.389051 
L 122.687392 157.107624 
L 123.57958 156.604533 
L 124.471768 154.651685 
L 125.363956 155.063733 
L 126.256144 158.808659 
L 127.148333 157.38535 
L 128.040521 157.058503 
L 128.932709 158.282871 
L 129.824897 160.095594 
L 130.717085 153.137758 
L 131.609274 152.707077 
L 132.501462 149.996963 
L 133.39365 153.1422 
L 134.285838 155.211277 
L 135.178026 155.289909 
L 136.070215 160.132493 
L 136.962403 157.047856 
L 137.854591 155.229852 
L 138.746779 156.878622 
L 139.638968 161.760574 
L 140.531156 159.021881 
L 141.423344 157.601626 
L 142.315532 155.474942 
L 143.20772 152.864698 
L 144.099909 154.66015 
L 144.992097 153.674884 
L 145.884285 152.055266 
L 146.776473 151.213443 
L 147.668661 152.075414 
L 148.56085 150.936853 
L 149.453038 150.42302 
L 150.345226 149.151025 
L 151.237414 150.946402 
L 152.129603 151.621254 
L 153.021791 149.870683 
L 153.913979 146.685789 
L 154.806167 147.292818 
L 155.698355 147.569666 
L 158.37492 150.176123 
L 159.267108 148.008131 
L 160.159296 147.830017 
L 161.051485 144.965038 
L 161.943673 145.18411 
L 162.835861 140.981196 
L 163.728049 140.5197 
L 164.620238 143.127794 
L 165.512426 142.180333 
L 166.404614 142.873763 
L 167.296802 142.186282 
L 168.18899 140.795161 
L 169.081179 142.348372 
L 169.973367 143.037893 
L 170.865555 141.685255 
L 171.757743 139.523415 
L 172.649931 139.683272 
L 173.54212 141.483977 
L 174.434308 139.743972 
L 175.326496 140.046809 
L 176.218684 138.93042 
L 177.110873 135.925388 
L 178.003061 134.724008 
L 178.895249 138.329157 
L 179.787437 136.835072 
L 180.679625 132.491634 
L 181.571814 131.982356 
L 182.464002 130.171573 
L 183.35619 131.135793 
L 184.248378 130.084764 
L 185.140566 132.174393 
L 186.032755 131.278271 
L 186.924943 130.194488 
L 187.817131 130.368385 
L 188.709319 128.880558 
L 189.601508 129.758814 
L 190.493696 129.324075 
L 191.385884 127.074119 
L 192.278072 126.449545 
L 193.17026 124.798327 
L 194.062449 125.793286 
L 194.954637 125.383194 
L 195.846825 124.7481 
L 196.739013 126.086161 
L 197.631201 126.022866 
L 198.52339 125.674091 
L 200.307766 128.558322 
L 201.199954 127.470707 
L 202.092143 126.021262 
L 202.984331 127.020267 
L 203.876519 127.45695 
L 204.768707 125.910443 
L 205.660895 125.971864 
L 206.553084 125.849813 
L 207.445272 127.442303 
L 208.33746 127.095328 
L 209.229648 127.685614 
L 210.121836 129.552285 
L 211.014025 126.581647 
L 211.906213 125.11343 
L 212.798401 123.872319 
L 213.690589 124.43816 
L 214.582778 122.208497 
L 215.474966 121.815535 
L 216.367154 121.234526 
L 217.259342 121.189488 
L 218.15153 123.120464 
L 219.935907 120.363051 
L 220.828095 120.144879 
L 221.720283 122.305407 
L 222.612471 121.286133 
L 223.50466 120.970491 
L 224.396848 122.001565 
L 225.289036 122.519569 
L 226.181224 122.810749 
L 227.073413 122.133367 
L 227.965601 123.73091 
L 228.857789 122.526553 
L 230.642165 120.584608 
L 231.534354 119.05567 
L 232.426542 118.496776 
L 233.31873 118.955592 
L 234.210918 117.969727 
L 235.103106 118.516933 
L 235.995295 117.204879 
L 236.887483 116.740875 
L 237.779671 117.820014 
L 238.671859 117.251319 
L 239.564048 116.015977 
L 240.456236 116.143539 
L 241.348424 118.3528 
L 242.240612 118.522567 
L 243.1328 120.3342 
L 244.917177 118.894257 
L 245.809365 118.423836 
L 246.701553 119.758531 
L 247.593741 119.027379 
L 248.48593 117.633105 
L 249.378118 117.549407 
L 250.270306 117.095869 
L 251.162494 118.574363 
L 252.054683 116.885353 
L 252.946871 116.475047 
L 253.839059 114.717728 
L 254.731247 116.723952 
L 255.623435 115.879602 
L 256.515624 115.832038 
L 257.407812 114.494262 
L 258.3 114.197815 
L 259.192188 111.433431 
L 260.084376 111.438773 
L 260.976565 111.672695 
L 261.868753 111.743305 
L 262.760941 113.43404 
L 263.653129 114.216605 
L 264.545317 113.685112 
L 265.437506 115.072615 
L 266.329694 114.513286 
L 267.221882 113.508903 
L 268.11407 112.909677 
L 269.006259 111.261431 
L 269.898447 110.337892 
L 270.790635 108.545001 
L 271.682823 107.229365 
L 272.575011 108.279571 
L 273.4672 108.177547 
L 274.359388 107.849424 
L 275.251576 109.846318 
L 276.143764 108.993409 
L 277.035952 109.625629 
L 278.820329 109.9572 
L 279.712517 109.551397 
L 280.604705 110.632275 
L 281.496894 112.662371 
L 282.389082 113.102859 
L 283.28127 112.161881 
L 284.173458 112.018104 
L 285.065646 111.991538 
L 285.957835 111.286399 
L 286.850023 110.811066 
L 287.742211 109.762716 
L 288.634399 109.220751 
L 289.526587 107.923705 
L 290.418776 108.707726 
L 291.310964 107.875305 
L 292.203152 106.838302 
L 293.09534 106.338398 
L 293.987529 106.081777 
L 294.879717 105.4662 
L 295.771905 106.475832 
L 296.664093 106.325674 
L 297.556281 105.897873 
L 298.44847 103.924309 
L 299.340658 105.289039 
L 300.232846 102.47949 
L 302.017222 101.336965 
L 302.909411 101.811577 
L 303.801599 103.976337 
L 304.693787 104.098178 
L 305.585975 104.904252 
L 306.478164 104.616404 
L 307.370352 104.115777 
L 308.26254 103.371317 
L 309.154728 104.269536 
L 310.046916 104.033323 
L 310.939105 103.278918 
L 311.831293 102.741457 
L 312.723481 102.031133 
L 313.615669 103.007265 
L 314.507857 100.922401 
L 316.292234 99.830494 
L 317.184422 99.323625 
L 318.07661 98.404016 
L 318.968799 99.418467 
L 319.860987 100.075233 
L 320.753175 101.701811 
L 321.645363 101.065413 
L 322.537551 101.798279 
L 323.42974 102.323654 
L 325.214116 98.387292 
L 326.106304 98.31944 
L 326.998492 99.471672 
L 327.890681 98.384458 
L 328.782869 99.305628 
L 329.675057 101.043598 
L 330.567245 99.224206 
L 331.459434 98.81014 
L 332.351622 98.710627 
L 333.24381 97.575849 
L 334.135998 97.670397 
L 335.028186 97.537899 
L 335.920375 94.557892 
L 336.812563 94.764239 
L 337.704751 94.151456 
L 338.596939 96.862317 
L 339.489127 94.868495 
L 340.381316 93.787414 
L 341.273504 93.304044 
L 342.165692 94.619807 
L 343.05788 93.232021 
L 343.950069 92.900304 
L 344.842257 93.358935 
L 345.734445 92.818543 
L 346.626633 92.106066 
L 347.518821 90.339982 
L 348.41101 90.628226 
L 349.303198 89.766174 
L 351.087574 90.323738 
L 351.979762 89.656754 
L 352.871951 89.827147 
L 354.656327 89.604225 
L 355.548515 90.268084 
L 356.440704 89.892732 
L 357.332892 89.145614 
L 358.22508 90.252709 
L 359.117268 90.186389 
L 360.009456 91.118305 
L 360.901645 91.686175 
L 361.793833 93.560121 
L 362.686021 93.428989 
L 363.578209 93.446158 
L 364.470397 92.244396 
L 365.362586 92.391901 
L 366.254774 92.24358 
L 367.146962 92.652409 
L 368.03915 92.546613 
L 369.823527 90.165538 
L 370.715715 90.215486 
L 371.607903 89.440795 
L 372.500091 89.830034 
L 373.39228 87.711581 
L 374.284468 87.910055 
L 375.176656 87.779002 
L 376.068844 88.103009 
L 376.961032 89.694575 
L 377.853221 89.05424 
L 378.745409 89.84809 
L 379.637597 90.887228 
L 380.529785 90.659877 
L 381.421974 88.745526 
L 382.314162 88.948116 
L 383.20635 90.658818 
L 384.098538 90.371952 
L 385.882915 89.326931 
L 386.775103 89.241388 
L 387.667291 87.825099 
L 388.559479 87.77144 
L 389.451667 86.423294 
L 390.343856 87.663377 
L 392.128232 86.020435 
L 393.02042 85.506114 
L 393.912608 86.783108 
L 394.804797 84.968734 
L 395.696985 85.125719 
L 396.589173 83.282904 
L 397.481361 83.237987 
L 398.37355 83.867449 
L 399.265738 84.089529 
L 400.157926 84.532076 
L 401.050114 83.674999 
L 401.942302 82.615815 
L 402.834491 83.102797 
L 403.726679 82.423082 
L 404.618867 82.816791 
L 405.511055 83.006193 
L 406.403243 81.072489 
L 408.18762 78.727111 
L 409.079808 79.58454 
L 409.971996 80.603565 
L 410.864185 80.164616 
L 411.756373 79.450661 
L 412.648561 81.571659 
L 413.540749 82.247959 
L 415.325126 81.571381 
L 416.217314 80.911156 
L 417.109502 80.714127 
L 418.00169 79.90924 
L 418.893878 79.742789 
L 419.786067 79.421935 
L 420.678255 81.18564 
L 421.570443 81.627164 
L 422.462631 81.883683 
L 423.35482 81.932617 
L 424.247008 81.7006 
L 425.139196 80.822326 
L 426.031384 80.881617 
L 426.923572 80.033551 
L 427.815761 80.027899 
L 428.707949 80.342877 
L 429.600137 80.416015 
L 431.384513 81.720313 
L 432.276702 81.317975 
L 433.16889 79.845149 
L 434.061078 78.983628 
L 434.953266 78.771606 
L 435.845455 79.329303 
L 435.845455 79.329303 
" style="fill:none;stroke:#1f77b4;stroke-linecap:square;stroke-width:1.5;"/>
   </g>
   <g id="line2d_16">
    <path clip-path="url(#p5d70e185f6)" d="M 80.754545 155.856696 
L 81.646734 154.815985 
L 82.538922 153.462591 
L 83.43111 153.096977 
L 84.323298 156.02391 
L 85.215487 153.629827 
L 86.107675 152.307629 
L 86.999863 157.872335 
L 87.892051 156.152697 
L 88.784239 155.236344 
L 89.676428 153.9468 
L 90.568616 152.055872 
L 91.460804 154.827772 
L 92.352992 154.387172 
L 93.24518 158.181171 
L 94.137369 163.174198 
L 95.029557 162.370739 
L 95.921745 164.336013 
L 96.813933 161.463982 
L 97.706122 162.156066 
L 98.59831 162.702852 
L 99.490498 162.155921 
L 100.382686 163.243895 
L 101.274874 167.601568 
L 102.167063 168.740551 
L 103.059251 168.682969 
L 103.951439 167.969706 
L 104.843627 169.599898 
L 105.735815 169.761558 
L 106.628004 171.191417 
L 107.520192 172.364148 
L 108.41238 170.494544 
L 109.304568 171.794783 
L 110.196757 169.32154 
L 111.088945 169.108216 
L 111.981133 169.164692 
L 112.873321 167.550903 
L 113.765509 163.521216 
L 114.657698 161.088874 
L 115.549886 159.355078 
L 116.442074 158.753258 
L 118.22645 154.912632 
L 119.118639 154.927076 
L 120.010827 153.634069 
L 120.903015 155.645398 
L 121.795203 155.859544 
L 122.687392 156.462241 
L 123.57958 160.739754 
L 124.471768 161.289285 
L 125.363956 159.338845 
L 126.256144 158.43937 
L 127.148333 158.937697 
L 128.040521 158.402641 
L 128.932709 159.526156 
L 129.824897 159.735253 
L 130.717085 158.498002 
L 131.609274 158.519007 
L 132.501462 161.562786 
L 133.39365 158.802481 
L 134.285838 157.707628 
L 135.178026 159.1691 
L 136.070215 158.319529 
L 136.962403 157.067759 
L 137.854591 158.298474 
L 138.746779 156.35059 
L 139.638968 158.083012 
L 140.531156 157.90297 
L 141.423344 158.399035 
L 142.315532 161.122808 
L 143.20772 161.16541 
L 144.099909 161.585901 
L 144.992097 159.32128 
L 145.884285 157.442745 
L 146.776473 156.856179 
L 147.668661 157.369866 
L 148.56085 159.021872 
L 149.453038 159.392517 
L 150.345226 160.622142 
L 151.237414 161.241532 
L 153.021791 164.273344 
L 153.913979 166.596289 
L 154.806167 166.39803 
L 155.698355 169.301343 
L 156.590544 170.053016 
L 158.37492 167.400418 
L 159.267108 167.089355 
L 160.159296 165.26705 
L 161.051485 164.68501 
L 161.943673 163.377339 
L 163.728049 164.190281 
L 164.620238 162.837093 
L 165.512426 160.216661 
L 166.404614 162.008817 
L 167.296802 161.041739 
L 168.18899 163.302173 
L 169.081179 162.944488 
L 169.973367 162.304133 
L 170.865555 163.41142 
L 171.757743 163.783913 
L 172.649931 164.903952 
L 173.54212 165.405909 
L 174.434308 167.047169 
L 175.326496 167.609559 
L 176.218684 167.652239 
L 177.110873 170.088262 
L 178.003061 169.422132 
L 178.895249 169.524845 
L 179.787437 170.212688 
L 180.679625 171.220258 
L 181.571814 169.935146 
L 182.464002 170.136302 
L 183.35619 172.217961 
L 184.248378 172.492147 
L 185.140566 171.09796 
L 186.032755 171.63817 
L 186.924943 172.012987 
L 187.817131 173.769736 
L 188.709319 174.301479 
L 189.601508 173.335954 
L 190.493696 170.51847 
L 191.385884 168.108109 
L 192.278072 167.06796 
L 193.17026 167.6658 
L 194.062449 167.350708 
L 195.846825 164.582508 
L 196.739013 165.546486 
L 197.631201 165.394728 
L 198.52339 167.608298 
L 199.415578 167.540269 
L 200.307766 166.571661 
L 201.199954 165.77619 
L 202.092143 163.195259 
L 202.984331 162.119528 
L 203.876519 162.449792 
L 204.768707 161.123943 
L 205.660895 158.204071 
L 207.445272 160.467519 
L 208.33746 160.99642 
L 209.229648 160.835097 
L 211.014025 163.550814 
L 211.906213 163.523551 
L 212.798401 164.260133 
L 213.690589 164.612729 
L 214.582778 163.425959 
L 215.474966 160.963637 
L 216.367154 161.143578 
L 218.15153 159.067396 
L 219.043719 161.826068 
L 219.935907 164.988704 
L 220.828095 165.532656 
L 221.720283 165.152288 
L 222.612471 165.41183 
L 223.50466 164.350342 
L 224.396848 163.029906 
L 225.289036 164.15048 
L 226.181224 161.89331 
L 227.965601 161.311298 
L 228.857789 160.596901 
L 229.749977 159.344814 
L 230.642165 160.728309 
L 231.534354 160.962298 
L 232.426542 161.621038 
L 233.31873 163.266655 
L 234.210918 164.184138 
L 235.103106 162.077164 
L 235.995295 164.215416 
L 236.887483 165.355198 
L 237.779671 165.741607 
L 238.671859 164.562202 
L 239.564048 164.450511 
L 240.456236 162.970695 
L 241.348424 163.165427 
L 242.240612 162.832312 
L 243.1328 164.068652 
L 244.024989 164.701705 
L 244.917177 164.516611 
L 245.809365 166.901065 
L 246.701553 166.147428 
L 247.593741 168.815239 
L 248.48593 169.157085 
L 249.378118 170.306824 
L 250.270306 170.596129 
L 251.162494 171.481191 
L 252.054683 171.460778 
L 252.946871 172.105453 
L 253.839059 172.076021 
L 254.731247 170.238189 
L 255.623435 169.265597 
L 256.515624 172.155368 
L 257.407812 170.810989 
L 258.3 170.202824 
L 260.084376 167.91233 
L 260.976565 170.02842 
L 261.868753 169.603277 
L 262.760941 168.260063 
L 263.653129 166.507648 
L 264.545317 163.639801 
L 265.437506 165.759675 
L 267.221882 167.907216 
L 268.11407 165.641267 
L 269.006259 164.911462 
L 269.898447 165.356361 
L 270.790635 164.157179 
L 271.682823 161.983738 
L 272.575011 162.488207 
L 274.359388 164.604307 
L 275.251576 162.727856 
L 276.143764 161.332226 
L 277.035952 162.230737 
L 277.928141 162.358224 
L 278.820329 160.020847 
L 279.712517 162.447133 
L 280.604705 164.510191 
L 281.496894 161.975272 
L 283.28127 158.979205 
L 284.173458 159.564448 
L 285.065646 160.843401 
L 286.850023 162.541665 
L 287.742211 161.677634 
L 288.634399 162.372546 
L 289.526587 161.423989 
L 290.418776 162.454608 
L 291.310964 162.713881 
L 292.203152 163.463451 
L 293.09534 163.059381 
L 293.987529 162.296524 
L 294.879717 162.004598 
L 295.771905 162.552837 
L 296.664093 162.663963 
L 297.556281 160.197931 
L 298.44847 162.294141 
L 299.340658 163.635674 
L 300.232846 162.831824 
L 301.125034 163.387093 
L 302.017222 162.421821 
L 302.909411 163.415364 
L 303.801599 162.186532 
L 304.693787 162.864144 
L 305.585975 163.918997 
L 306.478164 166.825583 
L 307.370352 167.696638 
L 308.26254 166.437562 
L 309.154728 165.73851 
L 310.046916 165.814146 
L 310.939105 167.917167 
L 311.831293 168.289191 
L 312.723481 168.246928 
L 313.615669 167.157105 
L 314.507857 166.427771 
L 315.400046 167.927682 
L 316.292234 167.319625 
L 317.184422 167.129727 
L 318.07661 168.529751 
L 318.968799 168.296149 
L 319.860987 169.28221 
L 320.753175 171.089199 
L 321.645363 171.562695 
L 322.537551 170.229854 
L 323.42974 171.022973 
L 324.321928 170.795858 
L 325.214116 171.115293 
L 326.106304 169.386851 
L 326.998492 169.772417 
L 327.890681 170.660678 
L 328.782869 170.510905 
L 329.675057 169.723604 
L 330.567245 170.659423 
L 331.459434 171.40571 
L 332.351622 170.960496 
L 333.24381 170.828175 
L 334.135998 169.000122 
L 335.028186 168.685864 
L 335.920375 169.037058 
L 337.704751 170.441036 
L 338.596939 170.355637 
L 339.489127 168.875846 
L 340.381316 168.801648 
L 341.273504 170.461218 
L 342.165692 170.814084 
L 343.05788 170.398459 
L 343.950069 172.578694 
L 344.842257 173.326868 
L 345.734445 174.375314 
L 346.626633 175.011397 
L 347.518821 173.742959 
L 348.41101 172.030303 
L 349.303198 169.504863 
L 350.195386 168.024019 
L 351.087574 168.050861 
L 351.979762 168.636912 
L 352.871951 169.548376 
L 353.764139 168.982659 
L 354.656327 169.038151 
L 355.548515 170.824727 
L 357.332892 169.970115 
L 358.22508 170.43392 
L 359.117268 169.482685 
L 360.009456 168.711145 
L 360.901645 168.795898 
L 361.793833 168.128504 
L 362.686021 167.979967 
L 363.578209 169.387587 
L 364.470397 167.238528 
L 365.362586 167.568303 
L 366.254774 169.304495 
L 367.146962 168.494468 
L 368.931339 168.274882 
L 369.823527 167.043878 
L 370.715715 167.632602 
L 371.607903 168.832501 
L 372.500091 166.973024 
L 373.39228 166.459619 
L 374.284468 166.718134 
L 375.176656 166.453051 
L 376.068844 165.500685 
L 377.853221 165.935061 
L 378.745409 166.800903 
L 379.637597 167.897402 
L 380.529785 167.698836 
L 381.421974 168.289938 
L 382.314162 166.532049 
L 383.20635 166.318217 
L 384.990726 168.187915 
L 385.882915 168.287097 
L 386.775103 167.671053 
L 387.667291 168.12192 
L 388.559479 168.063685 
L 389.451667 168.644847 
L 390.343856 168.548412 
L 392.128232 168.087014 
L 393.02042 168.392505 
L 393.912608 168.027792 
L 394.804797 167.144761 
L 395.696985 166.716893 
L 396.589173 166.623994 
L 397.481361 167.355434 
L 398.37355 166.4678 
L 399.265738 166.570912 
L 400.157926 165.968409 
L 401.050114 166.015328 
L 401.942302 165.880924 
L 402.834491 165.34495 
L 403.726679 163.964408 
L 404.618867 164.344634 
L 405.511055 165.966784 
L 406.403243 166.214538 
L 408.18762 165.499777 
L 409.079808 166.687842 
L 409.971996 166.437464 
L 410.864185 166.968851 
L 411.756373 166.31311 
L 412.648561 167.9366 
L 413.540749 168.2666 
L 414.432937 167.632768 
L 415.325126 166.236962 
L 417.109502 166.847288 
L 418.00169 165.098994 
L 418.893878 164.991314 
L 419.786067 166.186033 
L 421.570443 165.669499 
L 423.35482 165.749175 
L 425.139196 164.608917 
L 426.031384 165.722148 
L 426.923572 164.41861 
L 427.815761 164.198279 
L 428.707949 165.075221 
L 429.600137 165.050332 
L 430.492325 165.162481 
L 431.384513 166.207808 
L 432.276702 164.387704 
L 433.16889 163.986979 
L 434.061078 163.238087 
L 434.953266 163.510202 
L 435.845455 161.948567 
L 435.845455 161.948567 
" style="fill:none;stroke:#ff7f0e;stroke-linecap:square;stroke-width:1.5;"/>
   </g>
   <g id="line2d_17">
    <path clip-path="url(#p5d70e185f6)" d="M 80.754545 176.898543 
L 81.646734 173.093629 
L 84.323298 166.485642 
L 85.215487 167.535329 
L 86.107675 166.569006 
L 86.999863 165.875563 
L 87.892051 163.418148 
L 88.784239 158.954108 
L 89.676428 156.360475 
L 90.568616 155.753869 
L 91.460804 151.376486 
L 92.352992 149.906967 
L 93.24518 149.25143 
L 94.137369 146.586362 
L 95.921745 149.682973 
L 96.813933 154.957082 
L 97.706122 153.232301 
L 99.490498 155.478213 
L 100.382686 153.685492 
L 101.274874 154.131505 
L 102.167063 154.346289 
L 103.059251 154.901924 
L 103.951439 154.82277 
L 104.843627 154.370889 
L 105.735815 151.396552 
L 106.628004 148.875861 
L 107.520192 152.722917 
L 108.41238 151.78664 
L 109.304568 155.067314 
L 110.196757 153.793182 
L 111.088945 152.959773 
L 111.981133 154.405454 
L 113.765509 154.030032 
L 114.657698 154.649883 
L 115.549886 152.237142 
L 116.442074 154.060653 
L 117.334262 154.231682 
L 118.22645 154.576123 
L 119.118639 152.508528 
L 120.010827 156.93907 
L 120.903015 159.268775 
L 121.795203 159.848224 
L 122.687392 159.374444 
L 123.57958 161.518505 
L 124.471768 160.867164 
L 125.363956 161.005473 
L 126.256144 157.177325 
L 127.148333 156.896353 
L 128.040521 156.881724 
L 128.932709 156.130213 
L 129.824897 160.767884 
L 130.717085 160.550066 
L 131.609274 160.166348 
L 132.501462 160.872196 
L 133.39365 163.360816 
L 134.285838 160.866249 
L 135.178026 161.44635 
L 136.070215 159.856035 
L 136.962403 156.597363 
L 137.854591 154.477983 
L 138.746779 154.227265 
L 139.638968 152.337894 
L 140.531156 152.089386 
L 141.423344 154.002611 
L 142.315532 156.400968 
L 143.20772 157.501479 
L 144.099909 160.021309 
L 144.992097 159.840557 
L 145.884285 163.441174 
L 146.776473 162.435906 
L 147.668661 163.237663 
L 148.56085 164.38513 
L 149.453038 156.122183 
L 150.345226 154.768381 
L 151.237414 154.674253 
L 152.129603 153.005645 
L 153.021791 153.559496 
L 153.913979 155.920911 
L 154.806167 156.175811 
L 155.698355 159.856501 
L 156.590544 159.323437 
L 157.482732 160.813419 
L 158.37492 158.543166 
L 159.267108 157.637689 
L 160.159296 161.006944 
L 161.051485 161.117585 
L 161.943673 158.488427 
L 162.835861 155.369951 
L 163.728049 157.309675 
L 164.620238 158.702434 
L 165.512426 155.775203 
L 166.404614 154.870112 
L 167.296802 155.129865 
L 168.18899 154.361929 
L 169.081179 154.879116 
L 169.973367 158.377065 
L 170.865555 159.950446 
L 171.757743 158.895986 
L 172.649931 156.062458 
L 173.54212 156.612733 
L 174.434308 155.133978 
L 176.218684 154.165693 
L 177.110873 153.87055 
L 178.003061 155.375906 
L 178.895249 154.69032 
L 179.787437 153.00549 
L 180.679625 152.649344 
L 181.571814 151.400597 
L 182.464002 152.199571 
L 183.35619 151.202911 
L 184.248378 148.945199 
L 185.140566 145.291859 
L 186.032755 143.646269 
L 186.924943 146.23367 
L 187.817131 145.634202 
L 188.709319 146.981581 
L 189.601508 148.107261 
L 190.493696 149.599197 
L 191.385884 148.849188 
L 192.278072 147.345436 
L 193.17026 148.144124 
L 194.954637 149.116452 
L 195.846825 147.412019 
L 196.739013 144.863817 
L 197.631201 145.921068 
L 198.52339 145.061973 
L 199.415578 143.667766 
L 200.307766 142.840973 
L 201.199954 140.61163 
L 202.092143 139.386687 
L 202.984331 140.881466 
L 203.876519 139.369051 
L 205.660895 137.084777 
L 206.553084 137.951774 
L 207.445272 135.267999 
L 208.33746 134.201867 
L 209.229648 134.595244 
L 210.121836 130.593882 
L 211.014025 125.714809 
L 211.906213 125.570197 
L 212.798401 126.138974 
L 213.690589 124.048928 
L 214.582778 121.075123 
L 215.474966 121.357941 
L 216.367154 121.345337 
L 217.259342 120.994364 
L 218.15153 123.267119 
L 219.043719 122.083263 
L 219.935907 121.248788 
L 220.828095 122.641285 
L 222.612471 117.699639 
L 223.50466 118.002593 
L 224.396848 117.686076 
L 225.289036 118.969287 
L 227.073413 114.23745 
L 227.965601 112.943619 
L 228.857789 113.852537 
L 230.642165 110.410996 
L 231.534354 109.888436 
L 232.426542 108.891656 
L 233.31873 109.256597 
L 234.210918 108.865931 
L 235.103106 109.029458 
L 235.995295 110.150629 
L 236.887483 109.071607 
L 237.779671 110.031833 
L 238.671859 108.209239 
L 239.564048 108.448682 
L 240.456236 109.171056 
L 241.348424 106.993331 
L 242.240612 108.339017 
L 243.1328 107.413948 
L 244.024989 105.597351 
L 244.917177 107.742996 
L 245.809365 105.724124 
L 246.701553 103.35868 
L 247.593741 103.265025 
L 248.48593 102.908265 
L 249.378118 103.94713 
L 251.162494 102.953677 
L 252.054683 104.530716 
L 252.946871 102.398966 
L 255.623435 101.01568 
L 256.515624 102.832872 
L 257.407812 101.507621 
L 258.3 100.663545 
L 259.192188 100.651382 
L 260.084376 100.506876 
L 260.976565 99.28835 
L 261.868753 99.786758 
L 262.760941 100.893233 
L 263.653129 99.851242 
L 264.545317 101.079192 
L 265.437506 101.555068 
L 266.329694 100.148882 
L 267.221882 99.106435 
L 268.11407 98.701185 
L 269.006259 99.103196 
L 269.898447 99.223431 
L 270.790635 97.962067 
L 271.682823 97.484416 
L 272.575011 97.794445 
L 273.4672 98.544199 
L 274.359388 99.007042 
L 275.251576 100.281422 
L 277.035952 96.97508 
L 277.928141 95.446314 
L 278.820329 95.656335 
L 279.712517 95.26878 
L 280.604705 93.596712 
L 281.496894 92.759418 
L 282.389082 91.039175 
L 283.28127 91.834509 
L 284.173458 91.052439 
L 285.065646 91.314866 
L 286.850023 90.04977 
L 287.742211 90.823831 
L 288.634399 89.286735 
L 289.526587 90.795208 
L 292.203152 88.176297 
L 293.09534 89.509785 
L 293.987529 89.548706 
L 294.879717 89.901313 
L 295.771905 88.726711 
L 296.664093 88.051122 
L 297.556281 86.428052 
L 298.44847 88.139162 
L 300.232846 84.15339 
L 301.125034 83.420403 
L 302.017222 83.088075 
L 302.909411 83.094313 
L 303.801599 83.574107 
L 304.693787 83.831215 
L 305.585975 83.427111 
L 306.478164 83.413483 
L 307.370352 84.106338 
L 308.26254 85.094839 
L 309.154728 84.079308 
L 310.046916 85.193721 
L 310.939105 83.358349 
L 311.831293 83.449712 
L 312.723481 82.460911 
L 313.615669 80.918854 
L 314.507857 82.19296 
L 315.400046 81.789841 
L 316.292234 81.539511 
L 317.184422 79.805314 
L 318.07661 79.024657 
L 318.968799 78.629305 
L 319.860987 77.665401 
L 320.753175 77.25769 
L 321.645363 78.052724 
L 322.537551 76.376627 
L 323.42974 75.558363 
L 324.321928 75.193787 
L 325.214116 76.001659 
L 326.106304 76.283241 
L 326.998492 75.572919 
L 327.890681 73.464383 
L 328.782869 72.069387 
L 329.675057 70.091791 
L 330.567245 69.756568 
L 331.459434 70.619849 
L 332.351622 69.07868 
L 333.24381 69.848951 
L 334.135998 68.972332 
L 335.028186 68.68133 
L 335.920375 68.580819 
L 337.704751 65.880725 
L 338.596939 66.579366 
L 339.489127 66.251318 
L 340.381316 64.228823 
L 341.273504 62.831137 
L 343.05788 61.418734 
L 343.950069 61.108368 
L 344.842257 60.181943 
L 345.734445 61.46254 
L 347.518821 61.463638 
L 348.41101 60.872338 
L 350.195386 61.264528 
L 351.087574 59.795225 
L 352.871951 58.636488 
L 353.764139 59.291891 
L 354.656327 59.742756 
L 355.548515 58.821977 
L 356.440704 59.836789 
L 357.332892 59.169085 
L 358.22508 58.768861 
L 359.117268 59.606601 
L 360.009456 58.416583 
L 360.901645 56.918521 
L 361.793833 57.603018 
L 362.686021 57.052382 
L 363.578209 56.820124 
L 364.470397 55.544839 
L 365.362586 53.747914 
L 366.254774 53.492571 
L 367.146962 50.541782 
L 368.03915 50.595335 
L 368.931339 49.346197 
L 371.607903 46.312579 
L 372.500091 46.868661 
L 373.39228 49.050898 
L 375.176656 48.254076 
L 376.068844 47.484825 
L 376.961032 45.499551 
L 377.853221 45.151937 
L 378.745409 46.026481 
L 379.637597 45.580234 
L 380.529785 43.797921 
L 381.421974 44.539731 
L 382.314162 44.712172 
L 383.20635 44.135573 
L 384.990726 43.734013 
L 385.882915 43.639623 
L 386.775103 43.332288 
L 387.667291 43.327945 
L 388.559479 42.825311 
L 389.451667 42.684748 
L 390.343856 42.331137 
L 391.236044 41.714581 
L 392.128232 41.735796 
L 393.02042 40.475784 
L 393.912608 42.346703 
L 394.804797 40.634208 
L 395.696985 41.48457 
L 396.589173 42.874831 
L 397.481361 41.894901 
L 398.37355 39.673595 
L 400.157926 38.834008 
L 401.942302 39.448481 
L 402.834491 41.359408 
L 403.726679 41.63384 
L 404.618867 41.339046 
L 406.403243 39.264607 
L 407.295432 39.068549 
L 408.18762 39.132446 
L 409.079808 39.814873 
L 409.971996 39.78147 
L 410.864185 39.0044 
L 411.756373 37.88067 
L 412.648561 37.858529 
L 413.540749 37.215952 
L 414.432937 37.535909 
L 415.325126 38.417815 
L 416.217314 37.328293 
L 417.109502 36.749132 
L 418.00169 36.665145 
L 418.893878 35.755911 
L 419.786067 34.562248 
L 420.678255 35.251041 
L 421.570443 34.899835 
L 422.462631 34.739649 
L 423.35482 34.221646 
L 424.247008 33.48 
L 425.139196 34.896049 
L 426.031384 34.251669 
L 426.923572 34.906804 
L 427.815761 35.701006 
L 428.707949 35.447231 
L 429.600137 35.425118 
L 430.492325 34.338622 
L 431.384513 34.354755 
L 432.276702 34.968875 
L 433.16889 35.054203 
L 434.061078 35.394295 
L 434.953266 36.803717 
L 435.845455 36.224216 
L 435.845455 36.224216 
" style="fill:none;stroke:#2ca02c;stroke-linecap:square;stroke-width:1.5;"/>
   </g>
   <g id="line2d_18">
    <path clip-path="url(#p5d70e185f6)" d="M 80.754545 184.255454 
L 81.646734 184.68 
L 82.538922 183.182183 
L 83.43111 183.16587 
L 84.323298 176.979644 
L 85.215487 174.784516 
L 86.107675 173.337027 
L 86.999863 175.719282 
L 87.892051 177.372603 
L 88.784239 178.743597 
L 90.568616 175.997158 
L 91.460804 175.528812 
L 92.352992 177.185537 
L 93.24518 177.912994 
L 94.137369 179.311272 
L 95.029557 178.23725 
L 95.921745 177.812591 
L 96.813933 177.127918 
L 97.706122 178.703884 
L 98.59831 177.398931 
L 99.490498 177.004603 
L 100.382686 177.997127 
L 101.274874 177.071351 
L 102.167063 174.978146 
L 103.059251 174.413022 
L 103.951439 171.844815 
L 104.843627 176.934979 
L 105.735815 171.732615 
L 106.628004 170.411968 
L 107.520192 172.502723 
L 108.41238 173.356467 
L 109.304568 174.716381 
L 110.196757 173.879705 
L 111.088945 171.295183 
L 111.981133 170.351799 
L 112.873321 170.808693 
L 113.765509 170.447963 
L 114.657698 169.448571 
L 115.549886 166.375477 
L 116.442074 167.477546 
L 117.334262 166.978807 
L 118.22645 166.933543 
L 120.010827 166.416703 
L 120.903015 163.275505 
L 121.795203 163.591612 
L 122.687392 163.213414 
L 123.57958 161.476954 
L 124.471768 158.617171 
L 125.363956 159.813978 
L 126.256144 157.89013 
L 127.148333 160.101379 
L 128.040521 161.397857 
L 128.932709 163.256073 
L 129.824897 162.261115 
L 130.717085 158.030568 
L 131.609274 159.823615 
L 132.501462 162.479946 
L 133.39365 161.926333 
L 134.285838 163.05838 
L 135.178026 161.812031 
L 136.070215 163.791531 
L 136.962403 162.61079 
L 137.854591 160.834348 
L 139.638968 164.202553 
L 140.531156 165.030723 
L 141.423344 165.06763 
L 142.315532 164.831659 
L 143.20772 165.205959 
L 144.099909 164.143234 
L 144.992097 159.195216 
L 145.884285 157.465671 
L 147.668661 158.081994 
L 148.56085 160.348621 
L 149.453038 159.335887 
L 150.345226 159.536589 
L 151.237414 158.385583 
L 152.129603 161.512026 
L 153.021791 163.070696 
L 153.913979 164.385964 
L 154.806167 164.981958 
L 155.698355 164.093273 
L 156.590544 163.010052 
L 157.482732 159.960668 
L 158.37492 158.127301 
L 159.267108 153.960498 
L 161.051485 157.278031 
L 161.943673 153.322008 
L 162.835861 150.548606 
L 163.728049 149.895133 
L 164.620238 147.097824 
L 165.512426 147.058555 
L 166.404614 149.002043 
L 167.296802 147.093612 
L 168.18899 144.439137 
L 169.081179 144.808295 
L 169.973367 147.503512 
L 170.865555 146.468936 
L 171.757743 144.550112 
L 172.649931 141.569626 
L 173.54212 144.046034 
L 174.434308 140.829055 
L 175.326496 142.459294 
L 176.218684 140.956373 
L 177.110873 139.069715 
L 178.003061 139.116375 
L 178.895249 140.63288 
L 179.787437 141.532862 
L 180.679625 139.435781 
L 181.571814 141.273117 
L 182.464002 137.977069 
L 183.35619 138.512923 
L 184.248378 138.859974 
L 185.140566 141.241506 
L 186.032755 143.262519 
L 186.924943 142.23004 
L 187.817131 140.930746 
L 188.709319 140.456801 
L 189.601508 140.52856 
L 190.493696 140.965292 
L 191.385884 141.068652 
L 192.278072 142.960941 
L 193.17026 143.455435 
L 194.062449 142.615681 
L 194.954637 142.276904 
L 195.846825 142.64834 
L 196.739013 144.013937 
L 197.631201 143.520101 
L 198.52339 142.709417 
L 199.415578 143.195162 
L 200.307766 141.256066 
L 202.984331 143.582222 
L 203.876519 143.779718 
L 204.768707 142.906112 
L 205.660895 143.009476 
L 207.445272 140.707957 
L 208.33746 141.045655 
L 209.229648 141.764064 
L 210.121836 143.882391 
L 211.014025 144.187321 
L 211.906213 145.769135 
L 213.690589 143.641843 
L 214.582778 142.083788 
L 215.474966 140.290171 
L 216.367154 140.888717 
L 218.15153 138.587279 
L 219.043719 136.478545 
L 219.935907 135.768411 
L 220.828095 135.80408 
L 221.720283 137.333435 
L 222.612471 137.489321 
L 223.50466 135.361027 
L 224.396848 134.801339 
L 225.289036 133.155027 
L 226.181224 133.112844 
L 227.073413 132.463543 
L 227.965601 133.211354 
L 228.857789 133.02729 
L 229.749977 131.924525 
L 230.642165 132.385112 
L 231.534354 131.822276 
L 232.426542 130.942596 
L 233.31873 130.483601 
L 234.210918 130.773066 
L 235.103106 132.197844 
L 235.995295 132.006058 
L 236.887483 131.052866 
L 237.779671 131.538222 
L 238.671859 131.148007 
L 239.564048 131.063029 
L 240.456236 131.178841 
L 241.348424 129.887377 
L 242.240612 131.049253 
L 243.1328 130.499261 
L 244.024989 131.337229 
L 244.917177 131.289724 
L 245.809365 128.275044 
L 246.701553 129.942027 
L 248.48593 128.766769 
L 249.378118 126.894901 
L 250.270306 127.381018 
L 251.162494 125.780217 
L 252.054683 122.406194 
L 254.731247 120.428136 
L 255.623435 119.07243 
L 256.515624 119.427756 
L 257.407812 119.001144 
L 258.3 118.025132 
L 259.192188 115.337984 
L 260.084376 114.992975 
L 260.976565 114.143583 
L 261.868753 114.15333 
L 262.760941 112.347426 
L 263.653129 111.857479 
L 264.545317 110.556463 
L 265.437506 111.738264 
L 266.329694 110.03091 
L 267.221882 109.668237 
L 268.11407 109.90882 
L 269.006259 112.036656 
L 270.790635 111.986073 
L 271.682823 110.784804 
L 272.575011 111.136331 
L 273.4672 113.798775 
L 274.359388 112.288993 
L 276.143764 110.837234 
L 277.035952 111.522427 
L 277.928141 111.443631 
L 278.820329 111.63936 
L 279.712517 111.449732 
L 280.604705 108.966321 
L 281.496894 107.297557 
L 282.389082 106.616808 
L 283.28127 108.572169 
L 284.173458 108.595928 
L 285.065646 107.872617 
L 286.850023 102.873521 
L 287.742211 102.120518 
L 288.634399 102.523057 
L 289.526587 101.487315 
L 290.418776 102.243291 
L 291.310964 104.123813 
L 292.203152 102.795975 
L 293.09534 102.218288 
L 293.987529 100.909628 
L 295.771905 102.500226 
L 296.664093 103.2608 
L 297.556281 103.245572 
L 298.44847 102.553376 
L 299.340658 101.437629 
L 300.232846 102.072472 
L 301.125034 100.766847 
L 302.017222 103.890244 
L 302.909411 103.677414 
L 303.801599 105.728152 
L 304.693787 104.419379 
L 305.585975 104.88786 
L 306.478164 104.308802 
L 307.370352 104.152879 
L 308.26254 105.281843 
L 309.154728 104.111117 
L 310.046916 104.995637 
L 310.939105 106.330558 
L 311.831293 105.705469 
L 312.723481 105.973955 
L 314.507857 109.201661 
L 315.400046 109.515485 
L 316.292234 110.304187 
L 317.184422 109.56644 
L 318.07661 110.112551 
L 318.968799 110.086303 
L 320.753175 108.578843 
L 321.645363 110.537333 
L 322.537551 110.773342 
L 323.42974 111.75353 
L 325.214116 111.696396 
L 326.106304 111.417207 
L 326.998492 111.582991 
L 327.890681 110.795138 
L 329.675057 110.418486 
L 330.567245 112.371767 
L 331.459434 112.863246 
L 332.351622 110.293221 
L 333.24381 111.135598 
L 334.135998 111.171166 
L 335.028186 111.703824 
L 335.920375 112.388904 
L 336.812563 112.901283 
L 337.704751 112.945764 
L 338.596939 112.837857 
L 339.489127 111.868227 
L 340.381316 111.825007 
L 341.273504 111.242279 
L 342.165692 111.969823 
L 343.05788 113.92817 
L 343.950069 113.263528 
L 344.842257 112.883069 
L 345.734445 112.713121 
L 346.626633 111.124474 
L 347.518821 111.063392 
L 348.41101 112.489944 
L 349.303198 110.735503 
L 350.195386 111.444307 
L 351.087574 110.988845 
L 351.979762 110.043484 
L 353.764139 110.494013 
L 354.656327 110.99786 
L 355.548515 113.75767 
L 356.440704 111.95486 
L 357.332892 110.738029 
L 358.22508 111.322771 
L 359.117268 112.062766 
L 360.009456 110.342441 
L 360.901645 108.867068 
L 361.793833 108.479517 
L 362.686021 109.485464 
L 363.578209 110.069032 
L 364.470397 109.467121 
L 365.362586 108.70085 
L 366.254774 108.765755 
L 367.146962 109.060777 
L 368.03915 108.862821 
L 368.931339 109.504016 
L 370.715715 109.512599 
L 371.607903 108.500723 
L 372.500091 109.757961 
L 373.39228 109.690498 
L 374.284468 108.762372 
L 375.176656 108.012673 
L 376.068844 108.441127 
L 376.961032 108.075886 
L 377.853221 107.534772 
L 378.745409 107.778712 
L 380.529785 107.922273 
L 381.421974 108.034637 
L 383.20635 106.306471 
L 384.098538 106.870987 
L 384.990726 106.401055 
L 385.882915 107.477217 
L 386.775103 107.148446 
L 387.667291 108.234933 
L 388.559479 107.153059 
L 389.451667 104.928508 
L 392.128232 104.549305 
L 393.912608 103.505623 
L 394.804797 103.938955 
L 395.696985 106.215342 
L 396.589173 106.110268 
L 397.481361 104.694958 
L 398.37355 104.389163 
L 399.265738 105.02491 
L 400.157926 104.013388 
L 401.050114 104.012543 
L 401.942302 103.212915 
L 402.834491 103.843836 
L 403.726679 104.177385 
L 404.618867 103.143715 
L 405.511055 104.095649 
L 406.403243 103.563848 
L 407.295432 104.034422 
L 408.18762 103.556992 
L 409.079808 103.33872 
L 409.971996 100.773084 
L 410.864185 100.73847 
L 411.756373 99.452951 
L 412.648561 99.181755 
L 413.540749 99.231457 
L 414.432937 100.053956 
L 417.109502 100.159 
L 418.00169 98.937189 
L 418.893878 99.251567 
L 419.786067 98.99707 
L 420.678255 98.4556 
L 421.570443 99.037046 
L 423.35482 97.33353 
L 424.247008 97.334162 
L 425.139196 98.050302 
L 426.031384 97.686441 
L 426.923572 96.662772 
L 428.707949 96.236064 
L 429.600137 97.226894 
L 431.384513 94.4098 
L 432.276702 93.901214 
L 433.16889 94.846954 
L 434.061078 94.701997 
L 434.953266 94.268492 
L 435.845455 94.95637 
L 435.845455 94.95637 
" style="fill:none;stroke:#d62728;stroke-linecap:square;stroke-width:1.5;"/>
   </g>
   <g id="line2d_19"/>
   <g id="line2d_20"/>
   <g id="line2d_21"/>
   <g id="line2d_22"/>
   <g id="patch_3">
    <path d="M 63 192.24 
L 63 25.92 
" style="fill:none;stroke:#000000;stroke-linecap:square;stroke-linejoin:miter;stroke-width:0.8;"/>
   </g>
   <g id="patch_4">
    <path d="M 63 192.24 
L 453.6 192.24 
" style="fill:none;stroke:#000000;stroke-linecap:square;stroke-linejoin:miter;stroke-width:0.8;"/>
   </g>
   <g id="text_17">
    <!-- modeltype=full, labormarket=unbiased -->
    <g transform="translate(139.235625 19.92)scale(0.12 -0.12)">
     <defs>
      <path d="M 9.421875 75.984375 
L 18.40625 75.984375 
L 18.40625 0 
L 9.421875 0 
z
" id="DejaVuSans-108"/>
      <path d="M 32.171875 -5.078125 
Q 28.375 -14.84375 24.75 -17.8125 
Q 21.140625 -20.796875 15.09375 -20.796875 
L 7.90625 -20.796875 
L 7.90625 -13.28125 
L 13.1875 -13.28125 
Q 16.890625 -13.28125 18.9375 -11.515625 
Q 21 -9.765625 23.484375 -3.21875 
L 25.09375 0.875 
L 2.984375 54.6875 
L 12.5 54.6875 
L 29.59375 11.921875 
L 46.6875 54.6875 
L 56.203125 54.6875 
z
" id="DejaVuSans-121"/>
      <path d="M 18.109375 8.203125 
L 18.109375 -20.796875 
L 9.078125 -20.796875 
L 9.078125 54.6875 
L 18.109375 54.6875 
L 18.109375 46.390625 
Q 20.953125 51.265625 25.265625 53.625 
Q 29.59375 56 35.59375 56 
Q 45.5625 56 51.78125 48.09375 
Q 58.015625 40.1875 58.015625 27.296875 
Q 58.015625 14.40625 51.78125 6.484375 
Q 45.5625 -1.421875 35.59375 -1.421875 
Q 29.59375 -1.421875 25.265625 0.953125 
Q 20.953125 3.328125 18.109375 8.203125 
z
M 48.6875 27.296875 
Q 48.6875 37.203125 44.609375 42.84375 
Q 40.53125 48.484375 33.40625 48.484375 
Q 26.265625 48.484375 22.1875 42.84375 
Q 18.109375 37.203125 18.109375 27.296875 
Q 18.109375 17.390625 22.1875 11.75 
Q 26.265625 6.109375 33.40625 6.109375 
Q 40.53125 6.109375 44.609375 11.75 
Q 48.6875 17.390625 48.6875 27.296875 
z
" id="DejaVuSans-112"/>
      <path d="M 10.59375 45.40625 
L 73.1875 45.40625 
L 73.1875 37.203125 
L 10.59375 37.203125 
z
M 10.59375 25.484375 
L 73.1875 25.484375 
L 73.1875 17.1875 
L 10.59375 17.1875 
z
" id="DejaVuSans-61"/>
      <path d="M 8.5 21.578125 
L 8.5 54.6875 
L 17.484375 54.6875 
L 17.484375 21.921875 
Q 17.484375 14.15625 20.5 10.265625 
Q 23.53125 6.390625 29.59375 6.390625 
Q 36.859375 6.390625 41.078125 11.03125 
Q 45.3125 15.671875 45.3125 23.6875 
L 45.3125 54.6875 
L 54.296875 54.6875 
L 54.296875 0 
L 45.3125 0 
L 45.3125 8.40625 
Q 42.046875 3.421875 37.71875 1 
Q 33.40625 -1.421875 27.6875 -1.421875 
Q 18.265625 -1.421875 13.375 4.4375 
Q 8.5 10.296875 8.5 21.578125 
z
M 31.109375 56 
z
" id="DejaVuSans-117"/>
      <path d="M 11.71875 12.40625 
L 22.015625 12.40625 
L 22.015625 4 
L 14.015625 -11.625 
L 7.71875 -11.625 
L 11.71875 4 
z
" id="DejaVuSans-44"/>
      <path id="DejaVuSans-32"/>
      <path d="M 48.6875 27.296875 
Q 48.6875 37.203125 44.609375 42.84375 
Q 40.53125 48.484375 33.40625 48.484375 
Q 26.265625 48.484375 22.1875 42.84375 
Q 18.109375 37.203125 18.109375 27.296875 
Q 18.109375 17.390625 22.1875 11.75 
Q 26.265625 6.109375 33.40625 6.109375 
Q 40.53125 6.109375 44.609375 11.75 
Q 48.6875 17.390625 48.6875 27.296875 
z
M 18.109375 46.390625 
Q 20.953125 51.265625 25.265625 53.625 
Q 29.59375 56 35.59375 56 
Q 45.5625 56 51.78125 48.09375 
Q 58.015625 40.1875 58.015625 27.296875 
Q 58.015625 14.40625 51.78125 6.484375 
Q 45.5625 -1.421875 35.59375 -1.421875 
Q 29.59375 -1.421875 25.265625 0.953125 
Q 20.953125 3.328125 18.109375 8.203125 
L 18.109375 0 
L 9.078125 0 
L 9.078125 75.984375 
L 18.109375 75.984375 
z
" id="DejaVuSans-98"/>
      <path d="M 9.078125 75.984375 
L 18.109375 75.984375 
L 18.109375 31.109375 
L 44.921875 54.6875 
L 56.390625 54.6875 
L 27.390625 29.109375 
L 57.625 0 
L 45.90625 0 
L 18.109375 26.703125 
L 18.109375 0 
L 9.078125 0 
z
" id="DejaVuSans-107"/>
     </defs>
     <use xlink:href="#DejaVuSans-109"/>
     <use x="97.412109" xlink:href="#DejaVuSans-111"/>
     <use x="158.59375" xlink:href="#DejaVuSans-100"/>
     <use x="222.070312" xlink:href="#DejaVuSans-101"/>
     <use x="283.59375" xlink:href="#DejaVuSans-108"/>
     <use x="311.376953" xlink:href="#DejaVuSans-116"/>
     <use x="350.585938" xlink:href="#DejaVuSans-121"/>
     <use x="409.765625" xlink:href="#DejaVuSans-112"/>
     <use x="473.242188" xlink:href="#DejaVuSans-101"/>
     <use x="534.765625" xlink:href="#DejaVuSans-61"/>
     <use x="618.554688" xlink:href="#DejaVuSans-102"/>
     <use x="653.759766" xlink:href="#DejaVuSans-117"/>
     <use x="717.138672" xlink:href="#DejaVuSans-108"/>
     <use x="744.921875" xlink:href="#DejaVuSans-108"/>
     <use x="772.705078" xlink:href="#DejaVuSans-44"/>
     <use x="804.492188" xlink:href="#DejaVuSans-32"/>
     <use x="836.279297" xlink:href="#DejaVuSans-108"/>
     <use x="864.0625" xlink:href="#DejaVuSans-97"/>
     <use x="925.341797" xlink:href="#DejaVuSans-98"/>
     <use x="988.818359" xlink:href="#DejaVuSans-111"/>
     <use x="1050" xlink:href="#DejaVuSans-114"/>
     <use x="1089.363281" xlink:href="#DejaVuSans-109"/>
     <use x="1186.775391" xlink:href="#DejaVuSans-97"/>
     <use x="1248.054688" xlink:href="#DejaVuSans-114"/>
     <use x="1289.167969" xlink:href="#DejaVuSans-107"/>
     <use x="1343.453125" xlink:href="#DejaVuSans-101"/>
     <use x="1404.976562" xlink:href="#DejaVuSans-116"/>
     <use x="1444.185547" xlink:href="#DejaVuSans-61"/>
     <use x="1527.974609" xlink:href="#DejaVuSans-117"/>
     <use x="1591.353516" xlink:href="#DejaVuSans-110"/>
     <use x="1654.732422" xlink:href="#DejaVuSans-98"/>
     <use x="1718.208984" xlink:href="#DejaVuSans-105"/>
     <use x="1745.992188" xlink:href="#DejaVuSans-97"/>
     <use x="1807.271484" xlink:href="#DejaVuSans-115"/>
     <use x="1859.371094" xlink:href="#DejaVuSans-101"/>
     <use x="1920.894531" xlink:href="#DejaVuSans-100"/>
    </g>
   </g>
   <g id="legend_1">
    <g id="patch_5">
     <path d="M 70 107.58875 
L 235.407813 107.58875 
Q 237.407813 107.58875 237.407813 105.58875 
L 237.407813 32.92 
Q 237.407813 30.92 235.407813 30.92 
L 70 30.92 
Q 68 30.92 68 32.92 
L 68 105.58875 
Q 68 107.58875 70 107.58875 
z
" style="fill:#ffffff;opacity:0.8;stroke:#cccccc;stroke-linejoin:miter;"/>
    </g>
    <g id="text_18">
     <!-- scenario -->
     <g transform="translate(131.536719 42.518438)scale(0.1 -0.1)">
      <use xlink:href="#DejaVuSans-115"/>
      <use x="52.099609" xlink:href="#DejaVuSans-99"/>
      <use x="107.080078" xlink:href="#DejaVuSans-101"/>
      <use x="168.603516" xlink:href="#DejaVuSans-110"/>
      <use x="231.982422" xlink:href="#DejaVuSans-97"/>
      <use x="293.261719" xlink:href="#DejaVuSans-114"/>
      <use x="334.375" xlink:href="#DejaVuSans-105"/>
      <use x="362.158203" xlink:href="#DejaVuSans-111"/>
     </g>
    </g>
    <g id="line2d_23">
     <path d="M 72 53.696562 
L 92 53.696562 
" style="fill:none;stroke:#1f77b4;stroke-linecap:square;stroke-width:1.5;"/>
    </g>
    <g id="line2d_24"/>
    <g id="text_19">
     <!-- onlylow -->
     <g transform="translate(100 57.196562)scale(0.1 -0.1)">
      <defs>
       <path d="M 4.203125 54.6875 
L 13.1875 54.6875 
L 24.421875 12.015625 
L 35.59375 54.6875 
L 46.1875 54.6875 
L 57.421875 12.015625 
L 68.609375 54.6875 
L 77.59375 54.6875 
L 63.28125 0 
L 52.6875 0 
L 40.921875 44.828125 
L 29.109375 0 
L 18.5 0 
z
" id="DejaVuSans-119"/>
      </defs>
      <use xlink:href="#DejaVuSans-111"/>
      <use x="61.181641" xlink:href="#DejaVuSans-110"/>
      <use x="124.560547" xlink:href="#DejaVuSans-108"/>
      <use x="152.34375" xlink:href="#DejaVuSans-121"/>
      <use x="211.523438" xlink:href="#DejaVuSans-108"/>
      <use x="239.306641" xlink:href="#DejaVuSans-111"/>
      <use x="300.488281" xlink:href="#DejaVuSans-119"/>
     </g>
    </g>
    <g id="line2d_25">
     <path d="M 72 68.374687 
L 92 68.374687 
" style="fill:none;stroke:#ff7f0e;stroke-linecap:square;stroke-width:1.5;"/>
    </g>
    <g id="line2d_26"/>
    <g id="text_20">
     <!-- onlyhigh -->
     <g transform="translate(100 71.874687)scale(0.1 -0.1)">
      <defs>
       <path d="M 54.890625 33.015625 
L 54.890625 0 
L 45.90625 0 
L 45.90625 32.71875 
Q 45.90625 40.484375 42.875 44.328125 
Q 39.84375 48.1875 33.796875 48.1875 
Q 26.515625 48.1875 22.3125 43.546875 
Q 18.109375 38.921875 18.109375 30.90625 
L 18.109375 0 
L 9.078125 0 
L 9.078125 75.984375 
L 18.109375 75.984375 
L 18.109375 46.1875 
Q 21.34375 51.125 25.703125 53.5625 
Q 30.078125 56 35.796875 56 
Q 45.21875 56 50.046875 50.171875 
Q 54.890625 44.34375 54.890625 33.015625 
z
" id="DejaVuSans-104"/>
       <path d="M 45.40625 27.984375 
Q 45.40625 37.75 41.375 43.109375 
Q 37.359375 48.484375 30.078125 48.484375 
Q 22.859375 48.484375 18.828125 43.109375 
Q 14.796875 37.75 14.796875 27.984375 
Q 14.796875 18.265625 18.828125 12.890625 
Q 22.859375 7.515625 30.078125 7.515625 
Q 37.359375 7.515625 41.375 12.890625 
Q 45.40625 18.265625 45.40625 27.984375 
z
M 54.390625 6.78125 
Q 54.390625 -7.171875 48.1875 -13.984375 
Q 42 -20.796875 29.203125 -20.796875 
Q 24.46875 -20.796875 20.265625 -20.09375 
Q 16.0625 -19.390625 12.109375 -17.921875 
L 12.109375 -9.1875 
Q 16.0625 -11.328125 19.921875 -12.34375 
Q 23.78125 -13.375 27.78125 -13.375 
Q 36.625 -13.375 41.015625 -8.765625 
Q 45.40625 -4.15625 45.40625 5.171875 
L 45.40625 9.625 
Q 42.625 4.78125 38.28125 2.390625 
Q 33.9375 0 27.875 0 
Q 17.828125 0 11.671875 7.65625 
Q 5.515625 15.328125 5.515625 27.984375 
Q 5.515625 40.671875 11.671875 48.328125 
Q 17.828125 56 27.875 56 
Q 33.9375 56 38.28125 53.609375 
Q 42.625 51.21875 45.40625 46.390625 
L 45.40625 54.6875 
L 54.390625 54.6875 
z
" id="DejaVuSans-103"/>
      </defs>
      <use xlink:href="#DejaVuSans-111"/>
      <use x="61.181641" xlink:href="#DejaVuSans-110"/>
      <use x="124.560547" xlink:href="#DejaVuSans-108"/>
      <use x="152.34375" xlink:href="#DejaVuSans-121"/>
      <use x="211.523438" xlink:href="#DejaVuSans-104"/>
      <use x="274.902344" xlink:href="#DejaVuSans-105"/>
      <use x="302.685547" xlink:href="#DejaVuSans-103"/>
      <use x="366.162109" xlink:href="#DejaVuSans-104"/>
     </g>
    </g>
    <g id="line2d_27">
     <path d="M 72 83.052813 
L 92 83.052813 
" style="fill:none;stroke:#2ca02c;stroke-linecap:square;stroke-width:1.5;"/>
    </g>
    <g id="line2d_28"/>
    <g id="text_21">
     <!-- balanced -->
     <g transform="translate(100 86.552813)scale(0.1 -0.1)">
      <use xlink:href="#DejaVuSans-98"/>
      <use x="63.476562" xlink:href="#DejaVuSans-97"/>
      <use x="124.755859" xlink:href="#DejaVuSans-108"/>
      <use x="152.539062" xlink:href="#DejaVuSans-97"/>
      <use x="213.818359" xlink:href="#DejaVuSans-110"/>
      <use x="277.197266" xlink:href="#DejaVuSans-99"/>
      <use x="332.177734" xlink:href="#DejaVuSans-101"/>
      <use x="393.701172" xlink:href="#DejaVuSans-100"/>
     </g>
    </g>
    <g id="line2d_29">
     <path d="M 72 97.730938 
L 92 97.730938 
" style="fill:none;stroke:#d62728;stroke-linecap:square;stroke-width:1.5;"/>
    </g>
    <g id="line2d_30"/>
    <g id="text_22">
     <!-- balanced_errors_penalized -->
     <g transform="translate(100 101.230938)scale(0.1 -0.1)">
      <use xlink:href="#DejaVuSans-98"/>
      <use x="63.476562" xlink:href="#DejaVuSans-97"/>
      <use x="124.755859" xlink:href="#DejaVuSans-108"/>
      <use x="152.539062" xlink:href="#DejaVuSans-97"/>
      <use x="213.818359" xlink:href="#DejaVuSans-110"/>
      <use x="277.197266" xlink:href="#DejaVuSans-99"/>
      <use x="332.177734" xlink:href="#DejaVuSans-101"/>
      <use x="393.701172" xlink:href="#DejaVuSans-100"/>
      <use x="457.177734" xlink:href="#DejaVuSans-95"/>
      <use x="507.177734" xlink:href="#DejaVuSans-101"/>
      <use x="568.701172" xlink:href="#DejaVuSans-114"/>
      <use x="608.064453" xlink:href="#DejaVuSans-114"/>
      <use x="646.927734" xlink:href="#DejaVuSans-111"/>
      <use x="708.109375" xlink:href="#DejaVuSans-114"/>
      <use x="749.222656" xlink:href="#DejaVuSans-115"/>
      <use x="801.322266" xlink:href="#DejaVuSans-95"/>
      <use x="851.322266" xlink:href="#DejaVuSans-112"/>
      <use x="914.798828" xlink:href="#DejaVuSans-101"/>
      <use x="976.322266" xlink:href="#DejaVuSans-110"/>
      <use x="1039.701172" xlink:href="#DejaVuSans-97"/>
      <use x="1100.980469" xlink:href="#DejaVuSans-108"/>
      <use x="1128.763672" xlink:href="#DejaVuSans-105"/>
      <use x="1156.546875" xlink:href="#DejaVuSans-122"/>
      <use x="1209.037109" xlink:href="#DejaVuSans-101"/>
      <use x="1270.560547" xlink:href="#DejaVuSans-100"/>
     </g>
    </g>
   </g>
  </g>
 </g>
 <defs>
  <clipPath id="p5d70e185f6">
   <rect height="166.32" width="390.6" x="63" y="25.92"/>
  </clipPath>
 </defs>
</svg>
