<?xml version="1.0" encoding="utf-8" standalone="no"?>
<!DOCTYPE svg PUBLIC "-//W3C//DTD SVG 1.1//EN"
  "http://www.w3.org/Graphics/SVG/1.1/DTD/svg11.dtd">
<!-- Created with matplotlib (https://matplotlib.org/) -->
<svg height="216pt" version="1.1" viewBox="0 0 504 216" width="504pt" xmlns="http://www.w3.org/2000/svg" xmlns:xlink="http://www.w3.org/1999/xlink">
 <metadata>
  <rdf:RDF xmlns:cc="http://creativecommons.org/ns#" xmlns:dc="http://purl.org/dc/elements/1.1/" xmlns:rdf="http://www.w3.org/1999/02/22-rdf-syntax-ns#">
   <cc:Work>
    <dc:type rdf:resource="http://purl.org/dc/dcmitype/StillImage"/>
    <dc:date>2021-11-19T12:55:03.189151</dc:date>
    <dc:format>image/svg+xml</dc:format>
    <dc:creator>
     <cc:Agent>
      <dc:title>Matplotlib v3.3.4, https://matplotlib.org/</dc:title>
     </cc:Agent>
    </dc:creator>
   </cc:Work>
  </rdf:RDF>
 </metadata>
 <defs>
  <style type="text/css">*{stroke-linecap:butt;stroke-linejoin:round;}</style>
 </defs>
 <g id="figure_1">
  <g id="patch_1">
   <path d="M 0 216 
L 504 216 
L 504 0 
L 0 0 
z
" style="fill:#ffffff;"/>
  </g>
  <g id="axes_1">
   <g id="patch_2">
    <path d="M 63 192.24 
L 453.6 192.24 
L 453.6 25.92 
L 63 25.92 
z
" style="fill:#ffffff;"/>
   </g>
   <g id="matplotlib.axis_1">
    <g id="xtick_1">
     <g id="line2d_1">
      <defs>
       <path d="M 0 0 
L 0 3.5 
" id="m608b841f05" style="stroke:#000000;stroke-width:0.8;"/>
      </defs>
      <g>
       <use style="stroke:#000000;stroke-width:0.8;" x="79.862357" xlink:href="#m608b841f05" y="192.24"/>
      </g>
     </g>
     <g id="text_1">
      <!-- 400 -->
      <g transform="translate(70.318607 206.838437)scale(0.1 -0.1)">
       <defs>
        <path d="M 37.796875 64.3125 
L 12.890625 25.390625 
L 37.796875 25.390625 
z
M 35.203125 72.90625 
L 47.609375 72.90625 
L 47.609375 25.390625 
L 58.015625 25.390625 
L 58.015625 17.1875 
L 47.609375 17.1875 
L 47.609375 0 
L 37.796875 0 
L 37.796875 17.1875 
L 4.890625 17.1875 
L 4.890625 26.703125 
z
" id="DejaVuSans-52"/>
        <path d="M 31.78125 66.40625 
Q 24.171875 66.40625 20.328125 58.90625 
Q 16.5 51.421875 16.5 36.375 
Q 16.5 21.390625 20.328125 13.890625 
Q 24.171875 6.390625 31.78125 6.390625 
Q 39.453125 6.390625 43.28125 13.890625 
Q 47.125 21.390625 47.125 36.375 
Q 47.125 51.421875 43.28125 58.90625 
Q 39.453125 66.40625 31.78125 66.40625 
z
M 31.78125 74.21875 
Q 44.046875 74.21875 50.515625 64.515625 
Q 56.984375 54.828125 56.984375 36.375 
Q 56.984375 17.96875 50.515625 8.265625 
Q 44.046875 -1.421875 31.78125 -1.421875 
Q 19.53125 -1.421875 13.0625 8.265625 
Q 6.59375 17.96875 6.59375 36.375 
Q 6.59375 54.828125 13.0625 64.515625 
Q 19.53125 74.21875 31.78125 74.21875 
z
" id="DejaVuSans-48"/>
       </defs>
       <use xlink:href="#DejaVuSans-52"/>
       <use x="63.623047" xlink:href="#DejaVuSans-48"/>
       <use x="127.246094" xlink:href="#DejaVuSans-48"/>
      </g>
     </g>
    </g>
    <g id="xtick_2">
     <g id="line2d_2">
      <g>
       <use style="stroke:#000000;stroke-width:0.8;" x="124.471768" xlink:href="#m608b841f05" y="192.24"/>
      </g>
     </g>
     <g id="text_2">
      <!-- 450 -->
      <g transform="translate(114.928018 206.838437)scale(0.1 -0.1)">
       <defs>
        <path d="M 10.796875 72.90625 
L 49.515625 72.90625 
L 49.515625 64.59375 
L 19.828125 64.59375 
L 19.828125 46.734375 
Q 21.96875 47.46875 24.109375 47.828125 
Q 26.265625 48.1875 28.421875 48.1875 
Q 40.625 48.1875 47.75 41.5 
Q 54.890625 34.8125 54.890625 23.390625 
Q 54.890625 11.625 47.5625 5.09375 
Q 40.234375 -1.421875 26.90625 -1.421875 
Q 22.3125 -1.421875 17.546875 -0.640625 
Q 12.796875 0.140625 7.71875 1.703125 
L 7.71875 11.625 
Q 12.109375 9.234375 16.796875 8.0625 
Q 21.484375 6.890625 26.703125 6.890625 
Q 35.15625 6.890625 40.078125 11.328125 
Q 45.015625 15.765625 45.015625 23.390625 
Q 45.015625 31 40.078125 35.4375 
Q 35.15625 39.890625 26.703125 39.890625 
Q 22.75 39.890625 18.8125 39.015625 
Q 14.890625 38.140625 10.796875 36.28125 
z
" id="DejaVuSans-53"/>
       </defs>
       <use xlink:href="#DejaVuSans-52"/>
       <use x="63.623047" xlink:href="#DejaVuSans-53"/>
       <use x="127.246094" xlink:href="#DejaVuSans-48"/>
      </g>
     </g>
    </g>
    <g id="xtick_3">
     <g id="line2d_3">
      <g>
       <use style="stroke:#000000;stroke-width:0.8;" x="169.081179" xlink:href="#m608b841f05" y="192.24"/>
      </g>
     </g>
     <g id="text_3">
      <!-- 500 -->
      <g transform="translate(159.537429 206.838437)scale(0.1 -0.1)">
       <use xlink:href="#DejaVuSans-53"/>
       <use x="63.623047" xlink:href="#DejaVuSans-48"/>
       <use x="127.246094" xlink:href="#DejaVuSans-48"/>
      </g>
     </g>
    </g>
    <g id="xtick_4">
     <g id="line2d_4">
      <g>
       <use style="stroke:#000000;stroke-width:0.8;" x="213.690589" xlink:href="#m608b841f05" y="192.24"/>
      </g>
     </g>
     <g id="text_4">
      <!-- 550 -->
      <g transform="translate(204.146839 206.838437)scale(0.1 -0.1)">
       <use xlink:href="#DejaVuSans-53"/>
       <use x="63.623047" xlink:href="#DejaVuSans-53"/>
       <use x="127.246094" xlink:href="#DejaVuSans-48"/>
      </g>
     </g>
    </g>
    <g id="xtick_5">
     <g id="line2d_5">
      <g>
       <use style="stroke:#000000;stroke-width:0.8;" x="258.3" xlink:href="#m608b841f05" y="192.24"/>
      </g>
     </g>
     <g id="text_5">
      <!-- 600 -->
      <g transform="translate(248.75625 206.838437)scale(0.1 -0.1)">
       <defs>
        <path d="M 33.015625 40.375 
Q 26.375 40.375 22.484375 35.828125 
Q 18.609375 31.296875 18.609375 23.390625 
Q 18.609375 15.53125 22.484375 10.953125 
Q 26.375 6.390625 33.015625 6.390625 
Q 39.65625 6.390625 43.53125 10.953125 
Q 47.40625 15.53125 47.40625 23.390625 
Q 47.40625 31.296875 43.53125 35.828125 
Q 39.65625 40.375 33.015625 40.375 
z
M 52.59375 71.296875 
L 52.59375 62.3125 
Q 48.875 64.0625 45.09375 64.984375 
Q 41.3125 65.921875 37.59375 65.921875 
Q 27.828125 65.921875 22.671875 59.328125 
Q 17.53125 52.734375 16.796875 39.40625 
Q 19.671875 43.65625 24.015625 45.921875 
Q 28.375 48.1875 33.59375 48.1875 
Q 44.578125 48.1875 50.953125 41.515625 
Q 57.328125 34.859375 57.328125 23.390625 
Q 57.328125 12.15625 50.6875 5.359375 
Q 44.046875 -1.421875 33.015625 -1.421875 
Q 20.359375 -1.421875 13.671875 8.265625 
Q 6.984375 17.96875 6.984375 36.375 
Q 6.984375 53.65625 15.1875 63.9375 
Q 23.390625 74.21875 37.203125 74.21875 
Q 40.921875 74.21875 44.703125 73.484375 
Q 48.484375 72.75 52.59375 71.296875 
z
" id="DejaVuSans-54"/>
       </defs>
       <use xlink:href="#DejaVuSans-54"/>
       <use x="63.623047" xlink:href="#DejaVuSans-48"/>
       <use x="127.246094" xlink:href="#DejaVuSans-48"/>
      </g>
     </g>
    </g>
    <g id="xtick_6">
     <g id="line2d_6">
      <g>
       <use style="stroke:#000000;stroke-width:0.8;" x="302.909411" xlink:href="#m608b841f05" y="192.24"/>
      </g>
     </g>
     <g id="text_6">
      <!-- 650 -->
      <g transform="translate(293.365661 206.838437)scale(0.1 -0.1)">
       <use xlink:href="#DejaVuSans-54"/>
       <use x="63.623047" xlink:href="#DejaVuSans-53"/>
       <use x="127.246094" xlink:href="#DejaVuSans-48"/>
      </g>
     </g>
    </g>
    <g id="xtick_7">
     <g id="line2d_7">
      <g>
       <use style="stroke:#000000;stroke-width:0.8;" x="347.518821" xlink:href="#m608b841f05" y="192.24"/>
      </g>
     </g>
     <g id="text_7">
      <!-- 700 -->
      <g transform="translate(337.975071 206.838437)scale(0.1 -0.1)">
       <defs>
        <path d="M 8.203125 72.90625 
L 55.078125 72.90625 
L 55.078125 68.703125 
L 28.609375 0 
L 18.3125 0 
L 43.21875 64.59375 
L 8.203125 64.59375 
z
" id="DejaVuSans-55"/>
       </defs>
       <use xlink:href="#DejaVuSans-55"/>
       <use x="63.623047" xlink:href="#DejaVuSans-48"/>
       <use x="127.246094" xlink:href="#DejaVuSans-48"/>
      </g>
     </g>
    </g>
    <g id="xtick_8">
     <g id="line2d_8">
      <g>
       <use style="stroke:#000000;stroke-width:0.8;" x="392.128232" xlink:href="#m608b841f05" y="192.24"/>
      </g>
     </g>
     <g id="text_8">
      <!-- 750 -->
      <g transform="translate(382.584482 206.838437)scale(0.1 -0.1)">
       <use xlink:href="#DejaVuSans-55"/>
       <use x="63.623047" xlink:href="#DejaVuSans-53"/>
       <use x="127.246094" xlink:href="#DejaVuSans-48"/>
      </g>
     </g>
    </g>
    <g id="xtick_9">
     <g id="line2d_9">
      <g>
       <use style="stroke:#000000;stroke-width:0.8;" x="436.737643" xlink:href="#m608b841f05" y="192.24"/>
      </g>
     </g>
     <g id="text_9">
      <!-- 800 -->
      <g transform="translate(427.193893 206.838437)scale(0.1 -0.1)">
       <defs>
        <path d="M 31.78125 34.625 
Q 24.75 34.625 20.71875 30.859375 
Q 16.703125 27.09375 16.703125 20.515625 
Q 16.703125 13.921875 20.71875 10.15625 
Q 24.75 6.390625 31.78125 6.390625 
Q 38.8125 6.390625 42.859375 10.171875 
Q 46.921875 13.96875 46.921875 20.515625 
Q 46.921875 27.09375 42.890625 30.859375 
Q 38.875 34.625 31.78125 34.625 
z
M 21.921875 38.8125 
Q 15.578125 40.375 12.03125 44.71875 
Q 8.5 49.078125 8.5 55.328125 
Q 8.5 64.0625 14.71875 69.140625 
Q 20.953125 74.21875 31.78125 74.21875 
Q 42.671875 74.21875 48.875 69.140625 
Q 55.078125 64.0625 55.078125 55.328125 
Q 55.078125 49.078125 51.53125 44.71875 
Q 48 40.375 41.703125 38.8125 
Q 48.828125 37.15625 52.796875 32.3125 
Q 56.78125 27.484375 56.78125 20.515625 
Q 56.78125 9.90625 50.3125 4.234375 
Q 43.84375 -1.421875 31.78125 -1.421875 
Q 19.734375 -1.421875 13.25 4.234375 
Q 6.78125 9.90625 6.78125 20.515625 
Q 6.78125 27.484375 10.78125 32.3125 
Q 14.796875 37.15625 21.921875 38.8125 
z
M 18.3125 54.390625 
Q 18.3125 48.734375 21.84375 45.5625 
Q 25.390625 42.390625 31.78125 42.390625 
Q 38.140625 42.390625 41.71875 45.5625 
Q 45.3125 48.734375 45.3125 54.390625 
Q 45.3125 60.0625 41.71875 63.234375 
Q 38.140625 66.40625 31.78125 66.40625 
Q 25.390625 66.40625 21.84375 63.234375 
Q 18.3125 60.0625 18.3125 54.390625 
z
" id="DejaVuSans-56"/>
       </defs>
       <use xlink:href="#DejaVuSans-56"/>
       <use x="63.623047" xlink:href="#DejaVuSans-48"/>
       <use x="127.246094" xlink:href="#DejaVuSans-48"/>
      </g>
     </g>
    </g>
    <g id="text_10">
     <!-- time -->
     <g transform="translate(247.003906 220.516562)scale(0.1 -0.1)">
      <defs>
       <path d="M 18.3125 70.21875 
L 18.3125 54.6875 
L 36.8125 54.6875 
L 36.8125 47.703125 
L 18.3125 47.703125 
L 18.3125 18.015625 
Q 18.3125 11.328125 20.140625 9.421875 
Q 21.96875 7.515625 27.59375 7.515625 
L 36.8125 7.515625 
L 36.8125 0 
L 27.59375 0 
Q 17.1875 0 13.234375 3.875 
Q 9.28125 7.765625 9.28125 18.015625 
L 9.28125 47.703125 
L 2.6875 47.703125 
L 2.6875 54.6875 
L 9.28125 54.6875 
L 9.28125 70.21875 
z
" id="DejaVuSans-116"/>
       <path d="M 9.421875 54.6875 
L 18.40625 54.6875 
L 18.40625 0 
L 9.421875 0 
z
M 9.421875 75.984375 
L 18.40625 75.984375 
L 18.40625 64.59375 
L 9.421875 64.59375 
z
" id="DejaVuSans-105"/>
       <path d="M 52 44.1875 
Q 55.375 50.25 60.0625 53.125 
Q 64.75 56 71.09375 56 
Q 79.640625 56 84.28125 50.015625 
Q 88.921875 44.046875 88.921875 33.015625 
L 88.921875 0 
L 79.890625 0 
L 79.890625 32.71875 
Q 79.890625 40.578125 77.09375 44.375 
Q 74.3125 48.1875 68.609375 48.1875 
Q 61.625 48.1875 57.5625 43.546875 
Q 53.515625 38.921875 53.515625 30.90625 
L 53.515625 0 
L 44.484375 0 
L 44.484375 32.71875 
Q 44.484375 40.625 41.703125 44.40625 
Q 38.921875 48.1875 33.109375 48.1875 
Q 26.21875 48.1875 22.15625 43.53125 
Q 18.109375 38.875 18.109375 30.90625 
L 18.109375 0 
L 9.078125 0 
L 9.078125 54.6875 
L 18.109375 54.6875 
L 18.109375 46.1875 
Q 21.1875 51.21875 25.484375 53.609375 
Q 29.78125 56 35.6875 56 
Q 41.65625 56 45.828125 52.96875 
Q 50 49.953125 52 44.1875 
z
" id="DejaVuSans-109"/>
       <path d="M 56.203125 29.59375 
L 56.203125 25.203125 
L 14.890625 25.203125 
Q 15.484375 15.921875 20.484375 11.0625 
Q 25.484375 6.203125 34.421875 6.203125 
Q 39.59375 6.203125 44.453125 7.46875 
Q 49.3125 8.734375 54.109375 11.28125 
L 54.109375 2.78125 
Q 49.265625 0.734375 44.1875 -0.34375 
Q 39.109375 -1.421875 33.890625 -1.421875 
Q 20.796875 -1.421875 13.15625 6.1875 
Q 5.515625 13.8125 5.515625 26.8125 
Q 5.515625 40.234375 12.765625 48.109375 
Q 20.015625 56 32.328125 56 
Q 43.359375 56 49.78125 48.890625 
Q 56.203125 41.796875 56.203125 29.59375 
z
M 47.21875 32.234375 
Q 47.125 39.59375 43.09375 43.984375 
Q 39.0625 48.390625 32.421875 48.390625 
Q 24.90625 48.390625 20.390625 44.140625 
Q 15.875 39.890625 15.1875 32.171875 
z
" id="DejaVuSans-101"/>
      </defs>
      <use xlink:href="#DejaVuSans-116"/>
      <use x="39.208984" xlink:href="#DejaVuSans-105"/>
      <use x="66.992188" xlink:href="#DejaVuSans-109"/>
      <use x="164.404297" xlink:href="#DejaVuSans-101"/>
     </g>
    </g>
   </g>
   <g id="matplotlib.axis_2">
    <g id="ytick_1">
     <g id="line2d_10">
      <defs>
       <path d="M 0 0 
L -3.5 0 
" id="mab40f8f5e0" style="stroke:#000000;stroke-width:0.8;"/>
      </defs>
      <g>
       <use style="stroke:#000000;stroke-width:0.8;" x="63" xlink:href="#mab40f8f5e0" y="165.562411"/>
      </g>
     </g>
     <g id="text_11">
      <!-- 0.250 -->
      <g transform="translate(27.371875 169.36163)scale(0.1 -0.1)">
       <defs>
        <path d="M 10.6875 12.40625 
L 21 12.40625 
L 21 0 
L 10.6875 0 
z
" id="DejaVuSans-46"/>
        <path d="M 19.1875 8.296875 
L 53.609375 8.296875 
L 53.609375 0 
L 7.328125 0 
L 7.328125 8.296875 
Q 12.9375 14.109375 22.625 23.890625 
Q 32.328125 33.6875 34.8125 36.53125 
Q 39.546875 41.84375 41.421875 45.53125 
Q 43.3125 49.21875 43.3125 52.78125 
Q 43.3125 58.59375 39.234375 62.25 
Q 35.15625 65.921875 28.609375 65.921875 
Q 23.96875 65.921875 18.8125 64.3125 
Q 13.671875 62.703125 7.8125 59.421875 
L 7.8125 69.390625 
Q 13.765625 71.78125 18.9375 73 
Q 24.125 74.21875 28.421875 74.21875 
Q 39.75 74.21875 46.484375 68.546875 
Q 53.21875 62.890625 53.21875 53.421875 
Q 53.21875 48.921875 51.53125 44.890625 
Q 49.859375 40.875 45.40625 35.40625 
Q 44.1875 33.984375 37.640625 27.21875 
Q 31.109375 20.453125 19.1875 8.296875 
z
" id="DejaVuSans-50"/>
       </defs>
       <use xlink:href="#DejaVuSans-48"/>
       <use x="63.623047" xlink:href="#DejaVuSans-46"/>
       <use x="95.410156" xlink:href="#DejaVuSans-50"/>
       <use x="159.033203" xlink:href="#DejaVuSans-53"/>
       <use x="222.65625" xlink:href="#DejaVuSans-48"/>
      </g>
     </g>
    </g>
    <g id="ytick_2">
     <g id="line2d_11">
      <g>
       <use style="stroke:#000000;stroke-width:0.8;" x="63" xlink:href="#mab40f8f5e0" y="126.138985"/>
      </g>
     </g>
     <g id="text_12">
      <!-- 0.255 -->
      <g transform="translate(27.371875 129.938204)scale(0.1 -0.1)">
       <use xlink:href="#DejaVuSans-48"/>
       <use x="63.623047" xlink:href="#DejaVuSans-46"/>
       <use x="95.410156" xlink:href="#DejaVuSans-50"/>
       <use x="159.033203" xlink:href="#DejaVuSans-53"/>
       <use x="222.65625" xlink:href="#DejaVuSans-53"/>
      </g>
     </g>
    </g>
    <g id="ytick_3">
     <g id="line2d_12">
      <g>
       <use style="stroke:#000000;stroke-width:0.8;" x="63" xlink:href="#mab40f8f5e0" y="86.71556"/>
      </g>
     </g>
     <g id="text_13">
      <!-- 0.260 -->
      <g transform="translate(27.371875 90.514778)scale(0.1 -0.1)">
       <use xlink:href="#DejaVuSans-48"/>
       <use x="63.623047" xlink:href="#DejaVuSans-46"/>
       <use x="95.410156" xlink:href="#DejaVuSans-50"/>
       <use x="159.033203" xlink:href="#DejaVuSans-54"/>
       <use x="222.65625" xlink:href="#DejaVuSans-48"/>
      </g>
     </g>
    </g>
    <g id="ytick_4">
     <g id="line2d_13">
      <g>
       <use style="stroke:#000000;stroke-width:0.8;" x="63" xlink:href="#mab40f8f5e0" y="47.292134"/>
      </g>
     </g>
     <g id="text_14">
      <!-- 0.265 -->
      <g transform="translate(27.371875 51.091353)scale(0.1 -0.1)">
       <use xlink:href="#DejaVuSans-48"/>
       <use x="63.623047" xlink:href="#DejaVuSans-46"/>
       <use x="95.410156" xlink:href="#DejaVuSans-50"/>
       <use x="159.033203" xlink:href="#DejaVuSans-54"/>
       <use x="222.65625" xlink:href="#DejaVuSans-53"/>
      </g>
     </g>
    </g>
    <g id="text_15">
     <!-- coef2_standardized -->
     <g transform="translate(21.014062 157.84875)rotate(-90)scale(0.1 -0.1)">
      <defs>
       <path d="M 48.78125 52.59375 
L 48.78125 44.1875 
Q 44.96875 46.296875 41.140625 47.34375 
Q 37.3125 48.390625 33.40625 48.390625 
Q 24.65625 48.390625 19.8125 42.84375 
Q 14.984375 37.3125 14.984375 27.296875 
Q 14.984375 17.28125 19.8125 11.734375 
Q 24.65625 6.203125 33.40625 6.203125 
Q 37.3125 6.203125 41.140625 7.25 
Q 44.96875 8.296875 48.78125 10.40625 
L 48.78125 2.09375 
Q 45.015625 0.34375 40.984375 -0.53125 
Q 36.96875 -1.421875 32.421875 -1.421875 
Q 20.0625 -1.421875 12.78125 6.34375 
Q 5.515625 14.109375 5.515625 27.296875 
Q 5.515625 40.671875 12.859375 48.328125 
Q 20.21875 56 33.015625 56 
Q 37.15625 56 41.109375 55.140625 
Q 45.0625 54.296875 48.78125 52.59375 
z
" id="DejaVuSans-99"/>
       <path d="M 30.609375 48.390625 
Q 23.390625 48.390625 19.1875 42.75 
Q 14.984375 37.109375 14.984375 27.296875 
Q 14.984375 17.484375 19.15625 11.84375 
Q 23.34375 6.203125 30.609375 6.203125 
Q 37.796875 6.203125 41.984375 11.859375 
Q 46.1875 17.53125 46.1875 27.296875 
Q 46.1875 37.015625 41.984375 42.703125 
Q 37.796875 48.390625 30.609375 48.390625 
z
M 30.609375 56 
Q 42.328125 56 49.015625 48.375 
Q 55.71875 40.765625 55.71875 27.296875 
Q 55.71875 13.875 49.015625 6.21875 
Q 42.328125 -1.421875 30.609375 -1.421875 
Q 18.84375 -1.421875 12.171875 6.21875 
Q 5.515625 13.875 5.515625 27.296875 
Q 5.515625 40.765625 12.171875 48.375 
Q 18.84375 56 30.609375 56 
z
" id="DejaVuSans-111"/>
       <path d="M 37.109375 75.984375 
L 37.109375 68.5 
L 28.515625 68.5 
Q 23.6875 68.5 21.796875 66.546875 
Q 19.921875 64.59375 19.921875 59.515625 
L 19.921875 54.6875 
L 34.71875 54.6875 
L 34.71875 47.703125 
L 19.921875 47.703125 
L 19.921875 0 
L 10.890625 0 
L 10.890625 47.703125 
L 2.296875 47.703125 
L 2.296875 54.6875 
L 10.890625 54.6875 
L 10.890625 58.5 
Q 10.890625 67.625 15.140625 71.796875 
Q 19.390625 75.984375 28.609375 75.984375 
z
" id="DejaVuSans-102"/>
       <path d="M 50.984375 -16.609375 
L 50.984375 -23.578125 
L -0.984375 -23.578125 
L -0.984375 -16.609375 
z
" id="DejaVuSans-95"/>
       <path d="M 44.28125 53.078125 
L 44.28125 44.578125 
Q 40.484375 46.53125 36.375 47.5 
Q 32.28125 48.484375 27.875 48.484375 
Q 21.1875 48.484375 17.84375 46.4375 
Q 14.5 44.390625 14.5 40.28125 
Q 14.5 37.15625 16.890625 35.375 
Q 19.28125 33.59375 26.515625 31.984375 
L 29.59375 31.296875 
Q 39.15625 29.25 43.1875 25.515625 
Q 47.21875 21.78125 47.21875 15.09375 
Q 47.21875 7.46875 41.1875 3.015625 
Q 35.15625 -1.421875 24.609375 -1.421875 
Q 20.21875 -1.421875 15.453125 -0.5625 
Q 10.6875 0.296875 5.421875 2 
L 5.421875 11.28125 
Q 10.40625 8.6875 15.234375 7.390625 
Q 20.0625 6.109375 24.8125 6.109375 
Q 31.15625 6.109375 34.5625 8.28125 
Q 37.984375 10.453125 37.984375 14.40625 
Q 37.984375 18.0625 35.515625 20.015625 
Q 33.0625 21.96875 24.703125 23.78125 
L 21.578125 24.515625 
Q 13.234375 26.265625 9.515625 29.90625 
Q 5.8125 33.546875 5.8125 39.890625 
Q 5.8125 47.609375 11.28125 51.796875 
Q 16.75 56 26.8125 56 
Q 31.78125 56 36.171875 55.265625 
Q 40.578125 54.546875 44.28125 53.078125 
z
" id="DejaVuSans-115"/>
       <path d="M 34.28125 27.484375 
Q 23.390625 27.484375 19.1875 25 
Q 14.984375 22.515625 14.984375 16.5 
Q 14.984375 11.71875 18.140625 8.90625 
Q 21.296875 6.109375 26.703125 6.109375 
Q 34.1875 6.109375 38.703125 11.40625 
Q 43.21875 16.703125 43.21875 25.484375 
L 43.21875 27.484375 
z
M 52.203125 31.203125 
L 52.203125 0 
L 43.21875 0 
L 43.21875 8.296875 
Q 40.140625 3.328125 35.546875 0.953125 
Q 30.953125 -1.421875 24.3125 -1.421875 
Q 15.921875 -1.421875 10.953125 3.296875 
Q 6 8.015625 6 15.921875 
Q 6 25.140625 12.171875 29.828125 
Q 18.359375 34.515625 30.609375 34.515625 
L 43.21875 34.515625 
L 43.21875 35.40625 
Q 43.21875 41.609375 39.140625 45 
Q 35.0625 48.390625 27.6875 48.390625 
Q 23 48.390625 18.546875 47.265625 
Q 14.109375 46.140625 10.015625 43.890625 
L 10.015625 52.203125 
Q 14.9375 54.109375 19.578125 55.046875 
Q 24.21875 56 28.609375 56 
Q 40.484375 56 46.34375 49.84375 
Q 52.203125 43.703125 52.203125 31.203125 
z
" id="DejaVuSans-97"/>
       <path d="M 54.890625 33.015625 
L 54.890625 0 
L 45.90625 0 
L 45.90625 32.71875 
Q 45.90625 40.484375 42.875 44.328125 
Q 39.84375 48.1875 33.796875 48.1875 
Q 26.515625 48.1875 22.3125 43.546875 
Q 18.109375 38.921875 18.109375 30.90625 
L 18.109375 0 
L 9.078125 0 
L 9.078125 54.6875 
L 18.109375 54.6875 
L 18.109375 46.1875 
Q 21.34375 51.125 25.703125 53.5625 
Q 30.078125 56 35.796875 56 
Q 45.21875 56 50.046875 50.171875 
Q 54.890625 44.34375 54.890625 33.015625 
z
" id="DejaVuSans-110"/>
       <path d="M 45.40625 46.390625 
L 45.40625 75.984375 
L 54.390625 75.984375 
L 54.390625 0 
L 45.40625 0 
L 45.40625 8.203125 
Q 42.578125 3.328125 38.25 0.953125 
Q 33.9375 -1.421875 27.875 -1.421875 
Q 17.96875 -1.421875 11.734375 6.484375 
Q 5.515625 14.40625 5.515625 27.296875 
Q 5.515625 40.1875 11.734375 48.09375 
Q 17.96875 56 27.875 56 
Q 33.9375 56 38.25 53.625 
Q 42.578125 51.265625 45.40625 46.390625 
z
M 14.796875 27.296875 
Q 14.796875 17.390625 18.875 11.75 
Q 22.953125 6.109375 30.078125 6.109375 
Q 37.203125 6.109375 41.296875 11.75 
Q 45.40625 17.390625 45.40625 27.296875 
Q 45.40625 37.203125 41.296875 42.84375 
Q 37.203125 48.484375 30.078125 48.484375 
Q 22.953125 48.484375 18.875 42.84375 
Q 14.796875 37.203125 14.796875 27.296875 
z
" id="DejaVuSans-100"/>
       <path d="M 41.109375 46.296875 
Q 39.59375 47.171875 37.8125 47.578125 
Q 36.03125 48 33.890625 48 
Q 26.265625 48 22.1875 43.046875 
Q 18.109375 38.09375 18.109375 28.8125 
L 18.109375 0 
L 9.078125 0 
L 9.078125 54.6875 
L 18.109375 54.6875 
L 18.109375 46.1875 
Q 20.953125 51.171875 25.484375 53.578125 
Q 30.03125 56 36.53125 56 
Q 37.453125 56 38.578125 55.875 
Q 39.703125 55.765625 41.0625 55.515625 
z
" id="DejaVuSans-114"/>
       <path d="M 5.515625 54.6875 
L 48.1875 54.6875 
L 48.1875 46.484375 
L 14.40625 7.171875 
L 48.1875 7.171875 
L 48.1875 0 
L 4.296875 0 
L 4.296875 8.203125 
L 38.09375 47.515625 
L 5.515625 47.515625 
z
" id="DejaVuSans-122"/>
      </defs>
      <use xlink:href="#DejaVuSans-99"/>
      <use x="54.980469" xlink:href="#DejaVuSans-111"/>
      <use x="116.162109" xlink:href="#DejaVuSans-101"/>
      <use x="177.685547" xlink:href="#DejaVuSans-102"/>
      <use x="212.890625" xlink:href="#DejaVuSans-50"/>
      <use x="276.513672" xlink:href="#DejaVuSans-95"/>
      <use x="326.513672" xlink:href="#DejaVuSans-115"/>
      <use x="378.613281" xlink:href="#DejaVuSans-116"/>
      <use x="417.822266" xlink:href="#DejaVuSans-97"/>
      <use x="479.101562" xlink:href="#DejaVuSans-110"/>
      <use x="542.480469" xlink:href="#DejaVuSans-100"/>
      <use x="605.957031" xlink:href="#DejaVuSans-97"/>
      <use x="667.236328" xlink:href="#DejaVuSans-114"/>
      <use x="706.599609" xlink:href="#DejaVuSans-100"/>
      <use x="770.076172" xlink:href="#DejaVuSans-105"/>
      <use x="797.859375" xlink:href="#DejaVuSans-122"/>
      <use x="850.349609" xlink:href="#DejaVuSans-101"/>
      <use x="911.873047" xlink:href="#DejaVuSans-100"/>
     </g>
    </g>
   </g>
   <g id="line2d_14">
    <path clip-path="url(#p4d30d49720)" d="M 80.754545 158.341916 
L 81.646734 157.177426 
L 82.538922 158.088219 
L 83.43111 157.397013 
L 84.323298 157.862516 
L 85.215487 160.284251 
L 86.107675 162.098828 
L 86.999863 159.842237 
L 87.892051 160.27366 
L 88.784239 159.08726 
L 89.676428 159.182691 
L 90.568616 160.196809 
L 91.460804 160.5124 
L 92.352992 163.942904 
L 93.24518 160.782951 
L 94.137369 159.935453 
L 95.029557 161.489983 
L 95.921745 160.405453 
L 96.813933 161.692473 
L 97.706122 160.949653 
L 98.59831 161.653776 
L 99.490498 159.857139 
L 100.382686 159.217854 
L 101.274874 156.757219 
L 102.167063 156.914759 
L 103.059251 155.384113 
L 103.951439 156.791677 
L 104.843627 156.926532 
L 105.735815 156.561236 
L 106.628004 155.323363 
L 107.520192 156.369206 
L 108.41238 158.637088 
L 109.304568 157.188814 
L 110.196757 152.738416 
L 111.981133 148.966893 
L 112.873321 148.647751 
L 113.765509 151.544147 
L 114.657698 149.917339 
L 116.442074 151.750699 
L 117.334262 150.965262 
L 118.22645 149.364797 
L 119.118639 148.224166 
L 120.010827 146.327111 
L 120.903015 149.162931 
L 121.795203 148.232098 
L 122.687392 146.174804 
L 123.57958 147.200719 
L 124.471768 144.592154 
L 125.363956 146.3416 
L 126.256144 145.637475 
L 127.148333 143.959047 
L 128.040521 143.584574 
L 129.824897 146.406097 
L 130.717085 142.851938 
L 131.609274 143.239309 
L 132.501462 143.892352 
L 133.39365 147.810412 
L 134.285838 146.424596 
L 135.178026 146.964689 
L 136.070215 148.058637 
L 136.962403 146.192805 
L 137.854591 145.895032 
L 138.746779 145.436922 
L 139.638968 146.02434 
L 140.531156 147.406979 
L 141.423344 147.816839 
L 142.315532 146.144373 
L 143.20772 142.159989 
L 144.099909 142.971382 
L 144.992097 144.376639 
L 145.884285 144.63304 
L 146.776473 144.678279 
L 147.668661 144.906078 
L 148.56085 145.480694 
L 149.453038 146.644727 
L 150.345226 147.015807 
L 151.237414 145.685402 
L 152.129603 144.679588 
L 153.021791 145.444693 
L 153.913979 145.705337 
L 154.806167 145.432245 
L 155.698355 144.66394 
L 156.590544 144.482319 
L 157.482732 142.774202 
L 158.37492 143.753106 
L 160.159296 144.32866 
L 161.051485 144.633776 
L 161.943673 144.504284 
L 162.835861 143.100032 
L 163.728049 143.36608 
L 164.620238 141.612645 
L 165.512426 141.197621 
L 166.404614 141.122011 
L 167.296802 140.500707 
L 168.18899 139.661293 
L 169.081179 139.632887 
L 170.865555 141.874338 
L 171.757743 139.959574 
L 172.649931 140.743504 
L 173.54212 140.242017 
L 174.434308 139.076654 
L 175.326496 136.514717 
L 176.218684 137.764875 
L 177.110873 138.39096 
L 178.003061 137.177328 
L 178.895249 135.181926 
L 179.787437 135.193156 
L 180.679625 134.385161 
L 181.571814 135.166378 
L 182.464002 136.342474 
L 183.35619 138.644582 
L 185.140566 138.296545 
L 186.032755 138.885975 
L 186.924943 139.07994 
L 187.817131 137.380223 
L 188.709319 138.432269 
L 189.601508 136.986584 
L 190.493696 140.425132 
L 191.385884 139.281366 
L 193.17026 139.183729 
L 194.062449 137.763067 
L 194.954637 138.411074 
L 196.739013 138.747558 
L 197.631201 138.931422 
L 198.52339 137.745965 
L 199.415578 139.010519 
L 200.307766 139.998202 
L 201.199954 140.043111 
L 202.092143 140.259303 
L 202.984331 141.817813 
L 203.876519 143.116884 
L 204.768707 143.473444 
L 206.553084 143.515169 
L 207.445272 141.091116 
L 208.33746 141.714448 
L 209.229648 141.545206 
L 210.121836 142.004054 
L 211.014025 142.014872 
L 211.906213 141.288412 
L 212.798401 140.00784 
L 213.690589 140.208946 
L 214.582778 141.403681 
L 215.474966 142.006069 
L 216.367154 143.122135 
L 217.259342 143.497781 
L 218.15153 142.99584 
L 219.043719 142.660788 
L 219.935907 141.756536 
L 220.828095 141.697776 
L 221.720283 141.256453 
L 222.612471 140.437186 
L 223.50466 139.440239 
L 224.396848 137.768443 
L 225.289036 137.484174 
L 226.181224 138.968533 
L 227.073413 140.087732 
L 227.965601 138.243536 
L 228.857789 137.423818 
L 230.642165 137.526138 
L 231.534354 138.508419 
L 232.426542 138.717795 
L 233.31873 139.486252 
L 234.210918 139.712427 
L 235.103106 140.083427 
L 235.995295 140.95152 
L 236.887483 141.447957 
L 237.779671 141.147104 
L 238.671859 140.570632 
L 239.564048 142.247641 
L 240.456236 142.895643 
L 241.348424 141.182811 
L 242.240612 140.723625 
L 243.1328 141.667354 
L 244.024989 140.882329 
L 244.917177 141.772319 
L 245.809365 141.81705 
L 246.701553 140.835786 
L 247.593741 140.474796 
L 248.48593 139.887577 
L 249.378118 140.067038 
L 250.270306 139.609776 
L 251.162494 137.588489 
L 252.054683 137.217469 
L 252.946871 136.661666 
L 253.839059 137.063615 
L 254.731247 137.023685 
L 255.623435 134.970126 
L 256.515624 133.899833 
L 257.407812 132.514311 
L 258.3 133.183358 
L 259.192188 134.362558 
L 260.084376 134.103322 
L 260.976565 135.817085 
L 261.868753 136.209948 
L 262.760941 139.020423 
L 263.653129 138.350775 
L 264.545317 137.424516 
L 265.437506 135.829039 
L 267.221882 135.76503 
L 268.11407 135.530705 
L 269.006259 135.652868 
L 269.898447 136.19789 
L 270.790635 135.306476 
L 271.682823 134.896759 
L 272.575011 134.703705 
L 273.4672 135.750175 
L 274.359388 135.742619 
L 275.251576 135.180533 
L 276.143764 136.057745 
L 277.035952 135.760552 
L 277.928141 136.407259 
L 278.820329 135.779824 
L 279.712517 134.567341 
L 280.604705 135.796047 
L 281.496894 133.84709 
L 282.389082 134.281248 
L 283.28127 133.957593 
L 284.173458 133.103473 
L 285.065646 134.460216 
L 285.957835 134.253267 
L 286.850023 133.317167 
L 287.742211 133.084735 
L 288.634399 131.289526 
L 289.526587 132.063821 
L 290.418776 133.440627 
L 291.310964 133.555517 
L 292.203152 133.041011 
L 293.09534 131.413863 
L 293.987529 131.679528 
L 294.879717 131.352956 
L 295.771905 130.834608 
L 296.664093 132.791479 
L 297.556281 132.141516 
L 299.340658 130.141473 
L 300.232846 130.923954 
L 301.125034 130.992593 
L 302.017222 130.423772 
L 302.909411 130.542567 
L 304.693787 129.451361 
L 305.585975 129.347703 
L 306.478164 128.582923 
L 307.370352 129.894116 
L 308.26254 131.40559 
L 309.154728 129.511967 
L 310.046916 129.306632 
L 310.939105 129.309997 
L 311.831293 130.270929 
L 312.723481 129.732341 
L 313.615669 129.982425 
L 314.507857 130.115519 
L 315.400046 130.074479 
L 316.292234 131.633331 
L 318.07661 130.328061 
L 318.968799 128.919159 
L 319.860987 129.117991 
L 320.753175 129.156183 
L 321.645363 129.502583 
L 322.537551 129.464482 
L 324.321928 131.303499 
L 325.214116 129.972401 
L 326.998492 130.01356 
L 327.890681 128.948387 
L 328.782869 129.349808 
L 330.567245 127.505701 
L 332.351622 126.29755 
L 333.24381 126.784826 
L 334.135998 126.918925 
L 335.028186 126.413048 
L 337.704751 124.439754 
L 338.596939 124.193478 
L 339.489127 124.27947 
L 340.381316 124.547726 
L 341.273504 124.049705 
L 342.165692 124.750954 
L 343.950069 125.539283 
L 345.734445 125.204127 
L 346.626633 124.903242 
L 347.518821 124.744029 
L 348.41101 125.004247 
L 349.303198 123.920758 
L 350.195386 123.711079 
L 351.087574 123.663139 
L 351.979762 123.372565 
L 352.871951 124.240872 
L 353.764139 124.578928 
L 354.656327 124.708907 
L 355.548515 123.665823 
L 356.440704 123.151357 
L 357.332892 123.36384 
L 358.22508 122.982117 
L 359.117268 123.091137 
L 361.793833 122.269105 
L 362.686021 121.478634 
L 363.578209 121.569225 
L 364.470397 122.267835 
L 365.362586 123.345778 
L 367.146962 123.191774 
L 368.931339 123.354893 
L 369.823527 123.257918 
L 370.715715 123.031691 
L 371.607903 123.543066 
L 372.500091 124.551736 
L 374.284468 123.329174 
L 375.176656 122.83801 
L 376.068844 123.343571 
L 376.961032 124.384405 
L 377.853221 123.688051 
L 378.745409 124.165457 
L 379.637597 124.224455 
L 380.529785 123.161758 
L 381.421974 122.729769 
L 382.314162 122.173323 
L 383.20635 121.83846 
L 384.098538 122.584218 
L 384.990726 122.612823 
L 385.882915 121.828531 
L 386.775103 121.387116 
L 387.667291 122.226218 
L 388.559479 121.496622 
L 389.451667 121.027093 
L 390.343856 120.950239 
L 392.128232 121.864616 
L 393.02042 121.915572 
L 393.912608 122.564536 
L 394.804797 121.506944 
L 395.696985 121.394032 
L 396.589173 121.46471 
L 397.481361 122.533398 
L 398.37355 122.370133 
L 399.265738 123.365793 
L 401.050114 123.563938 
L 401.942302 122.772087 
L 402.834491 122.839458 
L 403.726679 122.343881 
L 404.618867 122.232683 
L 405.511055 122.576699 
L 408.18762 122.033325 
L 409.079808 121.336986 
L 409.971996 120.953616 
L 410.864185 121.49496 
L 412.648561 121.808427 
L 413.540749 123.025908 
L 414.432937 123.661627 
L 415.325126 122.857248 
L 416.217314 123.751848 
L 417.109502 124.223057 
L 418.00169 123.852553 
L 418.893878 123.093348 
L 419.786067 123.383849 
L 420.678255 122.633928 
L 421.570443 123.074498 
L 422.462631 122.524269 
L 423.35482 121.737722 
L 424.247008 121.635039 
L 425.139196 121.714479 
L 426.031384 121.540484 
L 426.923572 122.359137 
L 427.815761 121.736665 
L 428.707949 121.611998 
L 429.600137 121.63952 
L 430.492325 121.802229 
L 433.16889 120.324705 
L 435.845455 119.682997 
L 435.845455 119.682997 
" style="fill:none;stroke:#1f77b4;stroke-linecap:square;stroke-width:1.5;"/>
   </g>
   <g id="line2d_15">
    <path clip-path="url(#p4d30d49720)" d="M 80.754545 165.915238 
L 81.646734 168.013278 
L 82.538922 166.330236 
L 84.323298 165.341559 
L 85.215487 163.191347 
L 86.107675 165.462629 
L 86.999863 165.992642 
L 87.892051 167.442243 
L 88.784239 167.516078 
L 89.676428 169.861529 
L 91.460804 171.60485 
L 92.352992 171.863109 
L 93.24518 171.774639 
L 94.137369 171.411277 
L 95.029557 168.295818 
L 95.921745 169.425925 
L 96.813933 171.877302 
L 97.706122 171.629377 
L 98.59831 170.409498 
L 99.490498 174.347577 
L 100.382686 177.191017 
L 101.274874 175.584311 
L 102.167063 176.107174 
L 103.059251 174.701876 
L 103.951439 175.372219 
L 104.843627 174.104591 
L 105.735815 176.533975 
L 106.628004 176.919253 
L 107.520192 175.078599 
L 108.41238 174.261027 
L 109.304568 171.281045 
L 110.196757 173.145468 
L 111.088945 174.326561 
L 111.981133 172.762831 
L 112.873321 173.702236 
L 113.765509 172.880472 
L 114.657698 171.880119 
L 115.549886 171.78583 
L 116.442074 173.652356 
L 117.334262 174.41788 
L 118.22645 174.518921 
L 119.118639 174.809781 
L 120.010827 175.302641 
L 120.903015 176.645905 
L 121.795203 176.918094 
L 123.57958 178.233347 
L 124.471768 178.588981 
L 125.363956 177.490898 
L 126.256144 175.635768 
L 127.148333 177.742817 
L 128.040521 177.429196 
L 128.932709 176.584623 
L 129.824897 174.949279 
L 130.717085 174.955965 
L 133.39365 174.502814 
L 134.285838 173.954198 
L 135.178026 173.545958 
L 136.070215 175.556457 
L 136.962403 175.021966 
L 137.854591 175.799223 
L 138.746779 175.777443 
L 139.638968 176.81279 
L 140.531156 176.0011 
L 141.423344 177.009668 
L 142.315532 176.070664 
L 143.20772 177.620437 
L 144.099909 178.233576 
L 144.992097 181.126437 
L 145.884285 181.062997 
L 146.776473 181.311389 
L 147.668661 183.340719 
L 148.56085 184.13459 
L 149.453038 183.530452 
L 150.345226 182.611873 
L 151.237414 182.404947 
L 152.129603 181.934934 
L 153.021791 181.644935 
L 154.806167 181.393214 
L 156.590544 177.653655 
L 157.482732 177.667784 
L 158.37492 178.37085 
L 159.267108 177.910701 
L 160.159296 179.031096 
L 161.051485 180.561735 
L 161.943673 180.277261 
L 162.835861 180.733911 
L 165.512426 179.674584 
L 166.404614 178.526328 
L 167.296802 178.304788 
L 168.18899 178.286706 
L 169.081179 177.430696 
L 169.973367 176.804062 
L 170.865555 175.619241 
L 171.757743 175.769888 
L 172.649931 176.211311 
L 173.54212 176.361607 
L 174.434308 175.869809 
L 175.326496 173.463232 
L 176.218684 173.315953 
L 177.110873 171.027169 
L 178.003061 170.026558 
L 178.895249 170.138825 
L 179.787437 169.753716 
L 180.679625 170.44906 
L 181.571814 171.739769 
L 182.464002 172.664378 
L 183.35619 172.515917 
L 184.248378 173.219973 
L 185.140566 171.973268 
L 186.032755 171.914814 
L 186.924943 172.146314 
L 187.817131 171.951711 
L 188.709319 172.293454 
L 189.601508 171.54883 
L 190.493696 169.365986 
L 191.385884 168.232442 
L 192.278072 170.314406 
L 193.17026 171.14926 
L 194.954637 172.249713 
L 195.846825 171.508641 
L 196.739013 172.528523 
L 197.631201 174.065285 
L 198.52339 174.105212 
L 200.307766 172.354165 
L 201.199954 171.274339 
L 202.092143 168.405407 
L 202.984331 167.780864 
L 203.876519 170.20277 
L 204.768707 168.54567 
L 205.660895 167.129068 
L 206.553084 167.60045 
L 207.445272 167.343039 
L 208.33746 168.257619 
L 209.229648 165.934887 
L 210.121836 167.16694 
L 211.014025 166.690508 
L 211.906213 168.162371 
L 212.798401 170.418224 
L 213.690589 170.676203 
L 214.582778 171.452381 
L 215.474966 170.117518 
L 216.367154 169.426815 
L 217.259342 172.094264 
L 218.15153 171.36043 
L 219.043719 170.118175 
L 220.828095 169.906723 
L 221.720283 171.103396 
L 224.396848 172.527042 
L 225.289036 173.781102 
L 226.181224 173.969412 
L 227.073413 173.821266 
L 227.965601 173.141419 
L 228.857789 172.887252 
L 229.749977 171.6249 
L 231.534354 174.763203 
L 232.426542 174.458348 
L 233.31873 173.755271 
L 234.210918 175.672727 
L 235.103106 176.929798 
L 235.995295 174.748631 
L 236.887483 176.132776 
L 237.779671 174.881498 
L 238.671859 174.646903 
L 239.564048 173.773117 
L 240.456236 172.658384 
L 241.348424 173.690052 
L 242.240612 173.122573 
L 243.1328 172.84866 
L 244.024989 172.024472 
L 244.917177 171.968777 
L 245.809365 170.327118 
L 246.701553 170.6377 
L 247.593741 171.181638 
L 248.48593 170.891308 
L 249.378118 171.120989 
L 250.270306 170.267076 
L 251.162494 169.854021 
L 252.054683 169.917411 
L 252.946871 170.847276 
L 253.839059 169.582032 
L 254.731247 169.11254 
L 255.623435 169.575873 
L 256.515624 168.763533 
L 257.407812 168.668771 
L 258.3 167.21865 
L 259.192188 167.257132 
L 260.976565 170.965899 
L 261.868753 172.275715 
L 262.760941 172.530437 
L 263.653129 170.982918 
L 264.545317 172.314539 
L 265.437506 172.327528 
L 266.329694 170.05758 
L 267.221882 170.176974 
L 268.11407 170.833587 
L 269.006259 170.838103 
L 269.898447 170.51622 
L 270.790635 168.988206 
L 271.682823 168.609675 
L 272.575011 168.420479 
L 273.4672 168.915137 
L 274.359388 168.541189 
L 275.251576 166.288985 
L 277.035952 165.397348 
L 278.820329 165.704343 
L 279.712517 168.307074 
L 280.604705 168.67002 
L 281.496894 167.34984 
L 282.389082 165.478117 
L 283.28127 165.0822 
L 285.957835 162.318802 
L 287.742211 163.444556 
L 288.634399 164.502869 
L 289.526587 161.849833 
L 290.418776 161.49896 
L 292.203152 165.006337 
L 293.09534 165.55799 
L 293.987529 164.476293 
L 294.879717 164.642175 
L 295.771905 165.505028 
L 296.664093 166.212607 
L 297.556281 166.448469 
L 298.44847 167.667718 
L 299.340658 168.13497 
L 300.232846 168.370058 
L 301.125034 167.964915 
L 302.017222 168.94873 
L 302.909411 169.602271 
L 303.801599 169.921551 
L 304.693787 169.859654 
L 305.585975 170.044621 
L 306.478164 169.668402 
L 307.370352 169.466526 
L 308.26254 168.662266 
L 309.154728 167.007323 
L 310.046916 166.811476 
L 310.939105 167.810895 
L 311.831293 167.241092 
L 313.615669 167.367404 
L 314.507857 166.586855 
L 315.400046 165.537824 
L 316.292234 167.575633 
L 317.184422 167.547995 
L 318.07661 168.127033 
L 319.860987 170.406612 
L 320.753175 169.799714 
L 321.645363 168.379091 
L 323.42974 168.852178 
L 324.321928 170.700734 
L 325.214116 169.562466 
L 326.106304 171.352627 
L 326.998492 170.37244 
L 327.890681 170.976264 
L 328.782869 170.196706 
L 329.675057 170.560611 
L 330.567245 171.665357 
L 331.459434 170.584688 
L 332.351622 169.811677 
L 333.24381 169.582389 
L 334.135998 168.335969 
L 335.028186 167.831016 
L 335.920375 169.498459 
L 336.812563 168.98388 
L 337.704751 169.517718 
L 338.596939 168.804841 
L 339.489127 169.603408 
L 340.381316 171.035764 
L 341.273504 171.966954 
L 342.165692 172.17991 
L 343.05788 172.263543 
L 343.950069 171.529601 
L 344.842257 171.315154 
L 345.734445 170.140854 
L 346.626633 169.764755 
L 347.518821 169.813845 
L 348.41101 170.684599 
L 349.303198 171.940496 
L 350.195386 172.25152 
L 351.087574 173.306692 
L 351.979762 173.359328 
L 353.764139 171.746916 
L 354.656327 171.629289 
L 355.548515 171.81582 
L 356.440704 171.537826 
L 357.332892 171.76206 
L 358.22508 171.057077 
L 359.117268 170.731757 
L 360.009456 170.219558 
L 361.793833 169.927326 
L 362.686021 169.397448 
L 363.578209 169.580201 
L 364.470397 168.735104 
L 365.362586 168.550938 
L 366.254774 168.09652 
L 367.146962 168.544583 
L 368.03915 168.309419 
L 368.931339 168.630379 
L 370.715715 168.313683 
L 371.607903 167.818276 
L 372.500091 168.134069 
L 373.39228 167.120293 
L 374.284468 166.520681 
L 375.176656 167.87864 
L 376.068844 167.01269 
L 376.961032 166.766458 
L 377.853221 167.256472 
L 378.745409 166.566715 
L 379.637597 167.145807 
L 380.529785 166.771404 
L 381.421974 166.825524 
L 382.314162 167.212969 
L 383.20635 165.924853 
L 384.098538 167.159469 
L 384.990726 168.121006 
L 385.882915 168.044951 
L 386.775103 168.849127 
L 388.559479 168.611939 
L 389.451667 169.217842 
L 390.343856 168.638839 
L 391.236044 170.256793 
L 392.128232 169.811953 
L 393.02042 169.937648 
L 393.912608 169.677266 
L 394.804797 168.941303 
L 395.696985 169.485601 
L 397.481361 167.692929 
L 398.37355 167.51902 
L 401.050114 167.843704 
L 401.942302 167.05551 
L 402.834491 168.206355 
L 403.726679 168.320667 
L 404.618867 168.186788 
L 405.511055 167.284225 
L 406.403243 167.399314 
L 407.295432 168.077685 
L 408.18762 168.070554 
L 409.079808 168.335673 
L 409.971996 169.6379 
L 410.864185 169.732965 
L 411.756373 169.372073 
L 412.648561 171.078398 
L 413.540749 171.318093 
L 414.432937 170.634355 
L 415.325126 171.090141 
L 417.109502 171.25778 
L 418.00169 171.746758 
L 418.893878 171.930137 
L 419.786067 171.150483 
L 420.678255 172.24565 
L 421.570443 172.237494 
L 422.462631 173.238027 
L 424.247008 172.251192 
L 425.139196 171.205928 
L 426.031384 172.265191 
L 426.923572 171.839135 
L 427.815761 172.713578 
L 428.707949 172.14406 
L 429.600137 173.539308 
L 430.492325 172.208226 
L 432.276702 173.037751 
L 434.061078 172.610274 
L 434.953266 172.649253 
L 435.845455 172.558709 
L 435.845455 172.558709 
" style="fill:none;stroke:#ff7f0e;stroke-linecap:square;stroke-width:1.5;"/>
   </g>
   <g id="line2d_16">
    <path clip-path="url(#p4d30d49720)" d="M 80.754545 171.942667 
L 81.646734 169.821 
L 82.538922 172.704274 
L 83.43111 169.662598 
L 84.323298 168.909088 
L 86.107675 174.039623 
L 86.999863 174.638792 
L 87.892051 174.029808 
L 88.784239 175.505012 
L 90.568616 175.995869 
L 91.460804 175.624752 
L 92.352992 177.65362 
L 94.137369 175.491159 
L 95.029557 178.763808 
L 96.813933 180.72104 
L 97.706122 183.148853 
L 98.59831 181.151405 
L 99.490498 177.902147 
L 100.382686 174.151059 
L 101.274874 173.173654 
L 102.167063 172.947143 
L 103.059251 175.23324 
L 103.951439 174.43606 
L 104.843627 179.007967 
L 105.735815 177.183264 
L 106.628004 178.411005 
L 107.520192 179.913523 
L 108.41238 179.732822 
L 109.304568 182.50687 
L 110.196757 181.577064 
L 111.088945 183.248943 
L 111.981133 184.68 
L 112.873321 181.323787 
L 113.765509 183.86847 
L 114.657698 181.921458 
L 116.442074 179.105085 
L 117.334262 179.73008 
L 119.118639 183.258487 
L 120.010827 180.600244 
L 120.903015 180.323579 
L 121.795203 181.551246 
L 122.687392 181.343648 
L 123.57958 181.652869 
L 124.471768 179.84631 
L 125.363956 178.770635 
L 126.256144 177.329054 
L 127.148333 177.986708 
L 128.040521 177.039908 
L 128.932709 178.450024 
L 129.824897 181.576681 
L 130.717085 181.321335 
L 131.609274 180.602983 
L 132.501462 179.407334 
L 135.178026 175.108401 
L 136.070215 175.989088 
L 136.962403 175.71865 
L 137.854591 174.639038 
L 138.746779 174.672324 
L 139.638968 173.623411 
L 140.531156 173.811191 
L 141.423344 175.084177 
L 142.315532 177.714527 
L 143.20772 177.451418 
L 144.099909 176.015848 
L 144.992097 176.016351 
L 145.884285 175.510725 
L 146.776473 171.930282 
L 147.668661 173.999137 
L 148.56085 173.595902 
L 149.453038 171.63639 
L 150.345226 168.266731 
L 151.237414 167.834745 
L 152.129603 166.873941 
L 153.021791 167.301447 
L 153.913979 165.814956 
L 154.806167 165.557105 
L 155.698355 163.580432 
L 156.590544 161.208256 
L 157.482732 162.467948 
L 159.267108 165.881686 
L 160.159296 164.029912 
L 161.051485 164.189677 
L 161.943673 161.862403 
L 162.835861 160.89837 
L 164.620238 160.240111 
L 165.512426 161.248484 
L 166.404614 160.942116 
L 167.296802 162.669824 
L 168.18899 162.719231 
L 169.081179 164.869607 
L 169.973367 163.027801 
L 170.865555 163.146036 
L 171.757743 162.663882 
L 172.649931 161.76987 
L 173.54212 161.226156 
L 174.434308 160.426306 
L 175.326496 158.801873 
L 176.218684 161.151274 
L 177.110873 159.432781 
L 178.895249 158.282576 
L 179.787437 158.055713 
L 180.679625 156.852198 
L 181.571814 155.144656 
L 182.464002 153.852702 
L 183.35619 152.976544 
L 184.248378 151.747354 
L 185.140566 151.346457 
L 186.032755 152.835735 
L 186.924943 153.864148 
L 187.817131 154.155316 
L 188.709319 154.652556 
L 189.601508 153.445278 
L 190.493696 153.802436 
L 191.385884 155.212047 
L 192.278072 153.619029 
L 193.17026 153.78188 
L 194.062449 153.063767 
L 194.954637 153.212559 
L 195.846825 152.590047 
L 196.739013 153.587009 
L 197.631201 153.080555 
L 198.52339 154.568201 
L 199.415578 154.326835 
L 200.307766 153.521764 
L 201.199954 153.531311 
L 202.092143 152.199599 
L 202.984331 152.700644 
L 203.876519 152.225562 
L 204.768707 153.347227 
L 205.660895 154.122393 
L 206.553084 155.561045 
L 207.445272 155.890313 
L 208.33746 156.547876 
L 209.229648 158.801812 
L 210.121836 160.28707 
L 211.014025 160.061837 
L 211.906213 158.901877 
L 212.798401 159.114243 
L 213.690589 157.792929 
L 214.582778 157.322026 
L 215.474966 157.542238 
L 216.367154 158.457073 
L 217.259342 158.886246 
L 218.15153 157.704749 
L 219.043719 157.124812 
L 219.935907 157.556286 
L 220.828095 157.614937 
L 221.720283 158.006656 
L 222.612471 158.252957 
L 223.50466 158.081405 
L 224.396848 157.759298 
L 225.289036 158.191434 
L 226.181224 158.756039 
L 227.073413 157.6183 
L 227.965601 158.676842 
L 228.857789 157.384905 
L 229.749977 157.293398 
L 230.642165 158.283451 
L 231.534354 158.011071 
L 232.426542 157.356858 
L 233.31873 156.54567 
L 234.210918 156.973112 
L 236.887483 153.385841 
L 237.779671 154.912148 
L 239.564048 151.156455 
L 240.456236 151.426138 
L 241.348424 150.541772 
L 242.240612 149.418438 
L 243.1328 149.622696 
L 244.024989 149.273503 
L 244.917177 149.418317 
L 245.809365 148.793051 
L 246.701553 149.363216 
L 247.593741 148.919144 
L 248.48593 151.192289 
L 249.378118 149.976384 
L 250.270306 150.947304 
L 251.162494 149.299345 
L 252.054683 148.106036 
L 252.946871 149.329443 
L 253.839059 151.454491 
L 254.731247 150.71515 
L 255.623435 151.201956 
L 256.515624 149.430384 
L 257.407812 149.88924 
L 258.3 150.73808 
L 260.084376 150.137158 
L 260.976565 149.661666 
L 261.868753 150.722959 
L 262.760941 150.771423 
L 263.653129 150.955738 
L 264.545317 150.403092 
L 265.437506 149.255232 
L 266.329694 150.129761 
L 267.221882 149.262417 
L 268.11407 150.588893 
L 269.006259 149.544177 
L 269.898447 149.218465 
L 270.790635 147.801169 
L 271.682823 147.806185 
L 272.575011 148.421118 
L 273.4672 147.15458 
L 274.359388 147.079631 
L 275.251576 147.701055 
L 276.143764 150.035247 
L 277.035952 150.538331 
L 277.928141 151.603867 
L 278.820329 152.292626 
L 279.712517 150.57233 
L 280.604705 150.126019 
L 282.389082 148.526478 
L 283.28127 148.117332 
L 284.173458 148.880714 
L 285.065646 148.213441 
L 285.957835 147.94004 
L 286.850023 148.244638 
L 287.742211 148.083216 
L 288.634399 149.018872 
L 289.526587 148.763493 
L 290.418776 149.093276 
L 291.310964 148.145662 
L 292.203152 147.688255 
L 293.09534 147.43287 
L 293.987529 149.250681 
L 294.879717 149.862311 
L 295.771905 147.957563 
L 296.664093 148.231884 
L 297.556281 148.289916 
L 298.44847 148.986374 
L 299.340658 149.864088 
L 300.232846 149.40566 
L 301.125034 150.145872 
L 302.017222 149.400069 
L 302.909411 149.51307 
L 303.801599 149.769435 
L 304.693787 150.190684 
L 305.585975 148.125 
L 306.478164 148.364909 
L 307.370352 148.416609 
L 308.26254 148.133027 
L 309.154728 148.425305 
L 310.046916 148.393469 
L 310.939105 148.489102 
L 311.831293 149.431858 
L 312.723481 149.275141 
L 313.615669 150.362435 
L 314.507857 149.904559 
L 315.400046 150.07602 
L 316.292234 150.491178 
L 317.184422 150.565578 
L 318.07661 151.260503 
L 319.860987 149.918877 
L 320.753175 148.819688 
L 321.645363 147.943566 
L 322.537551 146.88009 
L 326.998492 147.962621 
L 327.890681 147.789261 
L 328.782869 146.851606 
L 329.675057 146.788501 
L 330.567245 147.47831 
L 331.459434 146.473588 
L 332.351622 146.906565 
L 333.24381 147.049275 
L 334.135998 146.996528 
L 335.028186 145.872747 
L 335.920375 145.469637 
L 337.704751 145.947166 
L 338.596939 145.580665 
L 339.489127 145.0701 
L 340.381316 145.167683 
L 341.273504 145.385948 
L 342.165692 145.764529 
L 343.05788 144.782463 
L 343.950069 144.13416 
L 344.842257 143.906656 
L 345.734445 144.233204 
L 346.626633 142.947789 
L 348.41101 142.571176 
L 349.303198 143.935624 
L 350.195386 143.327058 
L 351.087574 143.354141 
L 351.979762 143.836016 
L 352.871951 144.087598 
L 354.656327 141.607247 
L 355.548515 141.157784 
L 356.440704 140.498193 
L 357.332892 139.626782 
L 358.22508 140.320284 
L 359.117268 141.35929 
L 360.009456 140.949673 
L 360.901645 140.860989 
L 361.793833 140.904102 
L 362.686021 140.457031 
L 363.578209 139.855208 
L 364.470397 140.225032 
L 365.362586 140.757918 
L 366.254774 139.575396 
L 368.03915 139.51867 
L 368.931339 139.290554 
L 369.823527 138.942559 
L 370.715715 138.193768 
L 371.607903 138.022508 
L 372.500091 139.044704 
L 374.284468 138.185618 
L 375.176656 139.170453 
L 376.961032 138.773906 
L 377.853221 139.246321 
L 378.745409 138.651481 
L 379.637597 138.935163 
L 380.529785 139.538442 
L 382.314162 139.433591 
L 383.20635 138.66883 
L 384.098538 139.859257 
L 384.990726 139.994832 
L 385.882915 141.096101 
L 386.775103 141.383228 
L 390.343856 141.072946 
L 391.236044 140.833027 
L 392.128232 141.478029 
L 393.02042 140.967298 
L 393.912608 140.662157 
L 394.804797 139.96841 
L 395.696985 139.593307 
L 400.157926 141.260602 
L 401.050114 140.712557 
L 402.834491 141.088151 
L 403.726679 140.217691 
L 404.618867 138.954318 
L 405.511055 139.054702 
L 406.403243 139.941694 
L 407.295432 139.986527 
L 408.18762 139.436512 
L 409.079808 139.946574 
L 409.971996 140.210503 
L 410.864185 140.832987 
L 411.756373 140.74971 
L 412.648561 141.156329 
L 413.540749 140.798196 
L 414.432937 140.948168 
L 415.325126 140.879265 
L 416.217314 140.03554 
L 418.00169 142.607315 
L 418.893878 142.382021 
L 419.786067 141.645726 
L 420.678255 140.611708 
L 421.570443 140.239387 
L 422.462631 140.328096 
L 423.35482 141.272657 
L 424.247008 141.571499 
L 425.139196 141.077825 
L 426.031384 141.359138 
L 427.815761 140.979067 
L 429.600137 141.635271 
L 430.492325 141.457916 
L 431.384513 142.090517 
L 432.276702 141.844212 
L 433.16889 141.880821 
L 434.061078 140.972003 
L 434.953266 141.59396 
L 435.845455 141.611609 
L 435.845455 141.611609 
" style="fill:none;stroke:#2ca02c;stroke-linecap:square;stroke-width:1.5;"/>
   </g>
   <g id="line2d_17">
    <path clip-path="url(#p4d30d49720)" d="M 80.754545 163.068756 
L 81.646734 164.187024 
L 82.538922 162.309465 
L 83.43111 158.060958 
L 84.323298 160.251957 
L 85.215487 159.642355 
L 86.107675 159.218672 
L 86.999863 160.519312 
L 87.892051 159.357961 
L 88.784239 163.238738 
L 89.676428 164.850967 
L 90.568616 164.049778 
L 91.460804 162.47767 
L 92.352992 161.450555 
L 93.24518 163.435635 
L 94.137369 162.096029 
L 95.029557 163.418783 
L 95.921745 164.150686 
L 96.813933 166.050689 
L 97.706122 163.143022 
L 99.490498 162.896956 
L 100.382686 163.957241 
L 102.167063 163.426064 
L 103.059251 164.671324 
L 103.951439 167.98059 
L 104.843627 169.346462 
L 106.628004 170.713217 
L 107.520192 170.749099 
L 109.304568 166.115252 
L 111.088945 163.478589 
L 111.981133 159.765695 
L 112.873321 159.6797 
L 113.765509 156.383864 
L 115.549886 155.189328 
L 117.334262 151.802353 
L 118.22645 149.383286 
L 119.118639 148.686586 
L 120.010827 147.670633 
L 120.903015 149.161743 
L 121.795203 148.209474 
L 122.687392 147.002961 
L 123.57958 145.547726 
L 124.471768 143.272863 
L 125.363956 144.148532 
L 126.256144 144.256029 
L 127.148333 143.24788 
L 128.040521 143.12587 
L 128.932709 141.050061 
L 129.824897 140.867643 
L 130.717085 139.815994 
L 131.609274 138.157394 
L 132.501462 137.222085 
L 133.39365 137.795155 
L 134.285838 139.26153 
L 135.178026 139.544752 
L 136.070215 140.762211 
L 137.854591 139.777791 
L 138.746779 141.109738 
L 139.638968 141.525434 
L 140.531156 140.418533 
L 141.423344 137.995606 
L 142.315532 140.336655 
L 143.20772 139.217654 
L 144.099909 136.087588 
L 144.992097 135.192593 
L 145.884285 134.037723 
L 146.776473 134.036556 
L 147.668661 135.091571 
L 148.56085 133.2183 
L 149.453038 130.501418 
L 150.345226 128.172481 
L 151.237414 127.480812 
L 152.129603 126.615897 
L 153.021791 127.372448 
L 153.913979 128.313787 
L 154.806167 129.032127 
L 155.698355 127.448033 
L 156.590544 127.913582 
L 157.482732 128.137161 
L 158.37492 129.117421 
L 159.267108 128.62624 
L 160.159296 126.43414 
L 161.051485 122.284645 
L 162.835861 118.657744 
L 163.728049 119.209767 
L 164.620238 118.464602 
L 165.512426 118.300017 
L 166.404614 117.508889 
L 167.296802 115.383614 
L 168.18899 115.162143 
L 169.081179 113.48188 
L 169.973367 113.394147 
L 170.865555 114.456517 
L 171.757743 113.60439 
L 172.649931 113.041816 
L 173.54212 115.197562 
L 174.434308 115.124 
L 175.326496 112.809656 
L 176.218684 112.064487 
L 177.110873 110.657479 
L 178.003061 108.084576 
L 178.895249 107.546684 
L 179.787437 109.032333 
L 180.679625 109.031246 
L 181.571814 108.762883 
L 182.464002 108.797733 
L 183.35619 108.409042 
L 184.248378 107.541224 
L 185.140566 108.639301 
L 186.032755 107.507484 
L 186.924943 105.738394 
L 187.817131 103.281233 
L 189.601508 103.236622 
L 190.493696 102.384135 
L 191.385884 103.327975 
L 192.278072 102.923375 
L 193.17026 101.686219 
L 194.062449 102.081623 
L 194.954637 100.58975 
L 195.846825 99.782719 
L 196.739013 100.436936 
L 197.631201 100.079432 
L 198.52339 98.959804 
L 200.307766 99.745844 
L 201.199954 97.587295 
L 202.092143 99.118434 
L 202.984331 98.743299 
L 203.876519 99.411343 
L 204.768707 98.408039 
L 205.660895 96.76722 
L 206.553084 96.334603 
L 207.445272 95.55554 
L 208.33746 96.546483 
L 210.121836 94.104204 
L 211.014025 93.779138 
L 211.906213 93.247256 
L 212.798401 92.161898 
L 213.690589 90.774092 
L 214.582778 90.459754 
L 215.474966 89.779182 
L 216.367154 90.155039 
L 217.259342 89.622406 
L 218.15153 89.294817 
L 219.043719 87.1457 
L 219.935907 86.094558 
L 220.828095 84.673386 
L 221.720283 84.175865 
L 222.612471 85.31484 
L 223.50466 85.321213 
L 224.396848 86.219176 
L 225.289036 85.863638 
L 226.181224 84.924123 
L 227.965601 84.930053 
L 228.857789 85.99562 
L 229.749977 85.990985 
L 230.642165 84.549012 
L 231.534354 83.340362 
L 233.31873 82.773193 
L 234.210918 80.738717 
L 235.103106 80.287026 
L 235.995295 80.39066 
L 236.887483 80.632883 
L 237.779671 81.693281 
L 238.671859 81.491053 
L 239.564048 82.455002 
L 240.456236 81.07401 
L 241.348424 78.179468 
L 242.240612 76.206908 
L 243.1328 76.367571 
L 244.024989 75.407805 
L 244.917177 73.818151 
L 245.809365 73.458665 
L 246.701553 74.399664 
L 247.593741 74.858263 
L 249.378118 71.526712 
L 250.270306 72.925488 
L 251.162494 72.946151 
L 252.054683 72.152367 
L 252.946871 72.184633 
L 253.839059 73.79268 
L 254.731247 72.778967 
L 255.623435 71.069212 
L 256.515624 70.49993 
L 257.407812 70.337858 
L 258.3 70.998919 
L 259.192188 70.725458 
L 260.084376 70.068485 
L 260.976565 67.895701 
L 261.868753 68.428202 
L 262.760941 69.837003 
L 263.653129 68.156982 
L 264.545317 68.73742 
L 265.437506 67.315714 
L 266.329694 67.323346 
L 267.221882 66.605956 
L 268.11407 66.608955 
L 269.006259 66.782595 
L 269.898447 65.212507 
L 270.790635 64.816633 
L 271.682823 65.434401 
L 272.575011 63.560916 
L 274.359388 60.922334 
L 275.251576 62.469956 
L 276.143764 62.771352 
L 277.035952 61.684528 
L 277.928141 61.178872 
L 278.820329 60.050169 
L 279.712517 60.442446 
L 280.604705 60.129599 
L 281.496894 59.091534 
L 282.389082 59.988498 
L 283.28127 59.562349 
L 284.173458 61.510365 
L 285.065646 60.54984 
L 285.957835 60.019846 
L 286.850023 61.260511 
L 288.634399 61.986715 
L 289.526587 62.14777 
L 290.418776 62.04705 
L 291.310964 61.246053 
L 292.203152 62.307354 
L 293.09534 62.144682 
L 294.879717 61.206712 
L 295.771905 60.160927 
L 296.664093 60.192365 
L 297.556281 59.234696 
L 298.44847 57.296015 
L 299.340658 57.677205 
L 300.232846 58.301792 
L 302.017222 56.486584 
L 303.801599 57.928411 
L 304.693787 56.302821 
L 305.585975 56.148314 
L 306.478164 55.589433 
L 307.370352 56.655632 
L 308.26254 57.482192 
L 309.154728 57.273892 
L 310.046916 58.314085 
L 310.939105 57.528483 
L 311.831293 56.507542 
L 312.723481 57.276116 
L 313.615669 57.099757 
L 314.507857 56.366829 
L 316.292234 53.7412 
L 317.184422 53.379541 
L 318.07661 52.357842 
L 318.968799 52.899843 
L 320.753175 51.224839 
L 321.645363 51.045093 
L 322.537551 50.998412 
L 324.321928 51.411148 
L 325.214116 52.777953 
L 326.106304 52.603234 
L 326.998492 51.832916 
L 327.890681 51.84605 
L 328.782869 51.538374 
L 329.675057 51.091054 
L 330.567245 51.665384 
L 331.459434 51.740922 
L 332.351622 52.459798 
L 333.24381 52.081482 
L 335.028186 53.371363 
L 335.920375 53.140429 
L 336.812563 52.737431 
L 337.704751 52.130665 
L 338.596939 51.670593 
L 339.489127 51.481892 
L 340.381316 52.400379 
L 341.273504 51.455288 
L 342.165692 50.934072 
L 343.05788 52.043203 
L 343.950069 51.993224 
L 344.842257 50.642274 
L 346.626633 49.43403 
L 348.41101 49.437995 
L 349.303198 48.877926 
L 350.195386 49.734629 
L 351.087574 49.376766 
L 351.979762 49.550105 
L 352.871951 50.152761 
L 353.764139 48.747067 
L 354.656327 49.240899 
L 355.548515 48.87597 
L 356.440704 49.526367 
L 357.332892 49.902715 
L 358.22508 48.862656 
L 359.117268 48.434094 
L 360.009456 48.886867 
L 360.901645 48.505299 
L 361.793833 47.83291 
L 362.686021 47.52017 
L 363.578209 46.627278 
L 364.470397 46.793064 
L 365.362586 47.645997 
L 366.254774 48.078158 
L 367.146962 47.816917 
L 368.03915 49.803487 
L 368.931339 51.050175 
L 369.823527 51.736121 
L 370.715715 51.317867 
L 371.607903 52.158583 
L 372.500091 52.076266 
L 373.39228 52.664287 
L 374.284468 52.542222 
L 375.176656 51.460777 
L 376.068844 51.207238 
L 376.961032 50.51195 
L 377.853221 50.84134 
L 378.745409 50.33722 
L 379.637597 50.295186 
L 381.421974 49.648026 
L 382.314162 48.983563 
L 383.20635 48.897964 
L 384.990726 47.712176 
L 385.882915 46.855342 
L 386.775103 47.363536 
L 387.667291 47.156988 
L 388.559479 47.697332 
L 390.343856 46.714155 
L 391.236044 46.983177 
L 392.128232 46.69674 
L 393.02042 46.70349 
L 393.912608 46.504714 
L 394.804797 45.847286 
L 395.696985 45.681675 
L 396.589173 45.801926 
L 397.481361 45.339691 
L 398.37355 45.417666 
L 399.265738 44.456417 
L 400.157926 44.962995 
L 401.050114 44.577071 
L 401.942302 44.477838 
L 403.726679 43.410688 
L 404.618867 43.303021 
L 405.511055 43.441218 
L 406.403243 43.207267 
L 407.295432 42.726199 
L 408.18762 41.837808 
L 409.079808 41.915688 
L 409.971996 41.293511 
L 410.864185 40.341901 
L 411.756373 40.199467 
L 412.648561 40.405018 
L 413.540749 40.968303 
L 414.432937 40.767504 
L 415.325126 41.310941 
L 416.217314 41.366741 
L 417.109502 40.310067 
L 418.00169 40.044275 
L 418.893878 38.139016 
L 420.678255 37.384148 
L 422.462631 37.369705 
L 423.35482 37.67341 
L 424.247008 37.05842 
L 425.139196 37.06771 
L 426.031384 36.229439 
L 426.923572 36.036491 
L 428.707949 35.096377 
L 429.600137 34.216608 
L 431.384513 34.472549 
L 432.276702 33.48 
L 433.16889 33.794636 
L 434.061078 35.07074 
L 434.953266 34.574569 
L 435.845455 34.333934 
L 435.845455 34.333934 
" style="fill:none;stroke:#d62728;stroke-linecap:square;stroke-width:1.5;"/>
   </g>
   <g id="line2d_18"/>
   <g id="line2d_19"/>
   <g id="line2d_20"/>
   <g id="line2d_21"/>
   <g id="patch_3">
    <path d="M 63 192.24 
L 63 25.92 
" style="fill:none;stroke:#000000;stroke-linecap:square;stroke-linejoin:miter;stroke-width:0.8;"/>
   </g>
   <g id="patch_4">
    <path d="M 63 192.24 
L 453.6 192.24 
" style="fill:none;stroke:#000000;stroke-linecap:square;stroke-linejoin:miter;stroke-width:0.8;"/>
   </g>
   <g id="text_16">
    <!-- modeltype=full -->
    <g transform="translate(211.935938 19.92)scale(0.12 -0.12)">
     <defs>
      <path d="M 9.421875 75.984375 
L 18.40625 75.984375 
L 18.40625 0 
L 9.421875 0 
z
" id="DejaVuSans-108"/>
      <path d="M 32.171875 -5.078125 
Q 28.375 -14.84375 24.75 -17.8125 
Q 21.140625 -20.796875 15.09375 -20.796875 
L 7.90625 -20.796875 
L 7.90625 -13.28125 
L 13.1875 -13.28125 
Q 16.890625 -13.28125 18.9375 -11.515625 
Q 21 -9.765625 23.484375 -3.21875 
L 25.09375 0.875 
L 2.984375 54.6875 
L 12.5 54.6875 
L 29.59375 11.921875 
L 46.6875 54.6875 
L 56.203125 54.6875 
z
" id="DejaVuSans-121"/>
      <path d="M 18.109375 8.203125 
L 18.109375 -20.796875 
L 9.078125 -20.796875 
L 9.078125 54.6875 
L 18.109375 54.6875 
L 18.109375 46.390625 
Q 20.953125 51.265625 25.265625 53.625 
Q 29.59375 56 35.59375 56 
Q 45.5625 56 51.78125 48.09375 
Q 58.015625 40.1875 58.015625 27.296875 
Q 58.015625 14.40625 51.78125 6.484375 
Q 45.5625 -1.421875 35.59375 -1.421875 
Q 29.59375 -1.421875 25.265625 0.953125 
Q 20.953125 3.328125 18.109375 8.203125 
z
M 48.6875 27.296875 
Q 48.6875 37.203125 44.609375 42.84375 
Q 40.53125 48.484375 33.40625 48.484375 
Q 26.265625 48.484375 22.1875 42.84375 
Q 18.109375 37.203125 18.109375 27.296875 
Q 18.109375 17.390625 22.1875 11.75 
Q 26.265625 6.109375 33.40625 6.109375 
Q 40.53125 6.109375 44.609375 11.75 
Q 48.6875 17.390625 48.6875 27.296875 
z
" id="DejaVuSans-112"/>
      <path d="M 10.59375 45.40625 
L 73.1875 45.40625 
L 73.1875 37.203125 
L 10.59375 37.203125 
z
M 10.59375 25.484375 
L 73.1875 25.484375 
L 73.1875 17.1875 
L 10.59375 17.1875 
z
" id="DejaVuSans-61"/>
      <path d="M 8.5 21.578125 
L 8.5 54.6875 
L 17.484375 54.6875 
L 17.484375 21.921875 
Q 17.484375 14.15625 20.5 10.265625 
Q 23.53125 6.390625 29.59375 6.390625 
Q 36.859375 6.390625 41.078125 11.03125 
Q 45.3125 15.671875 45.3125 23.6875 
L 45.3125 54.6875 
L 54.296875 54.6875 
L 54.296875 0 
L 45.3125 0 
L 45.3125 8.40625 
Q 42.046875 3.421875 37.71875 1 
Q 33.40625 -1.421875 27.6875 -1.421875 
Q 18.265625 -1.421875 13.375 4.4375 
Q 8.5 10.296875 8.5 21.578125 
z
M 31.109375 56 
z
" id="DejaVuSans-117"/>
     </defs>
     <use xlink:href="#DejaVuSans-109"/>
     <use x="97.412109" xlink:href="#DejaVuSans-111"/>
     <use x="158.59375" xlink:href="#DejaVuSans-100"/>
     <use x="222.070312" xlink:href="#DejaVuSans-101"/>
     <use x="283.59375" xlink:href="#DejaVuSans-108"/>
     <use x="311.376953" xlink:href="#DejaVuSans-116"/>
     <use x="350.585938" xlink:href="#DejaVuSans-121"/>
     <use x="409.765625" xlink:href="#DejaVuSans-112"/>
     <use x="473.242188" xlink:href="#DejaVuSans-101"/>
     <use x="534.765625" xlink:href="#DejaVuSans-61"/>
     <use x="618.554688" xlink:href="#DejaVuSans-102"/>
     <use x="653.759766" xlink:href="#DejaVuSans-117"/>
     <use x="717.138672" xlink:href="#DejaVuSans-108"/>
     <use x="744.921875" xlink:href="#DejaVuSans-108"/>
    </g>
   </g>
   <g id="legend_1">
    <g id="patch_5">
     <path d="M 70 107.58875 
L 235.407813 107.58875 
Q 237.407813 107.58875 237.407813 105.58875 
L 237.407813 32.92 
Q 237.407813 30.92 235.407813 30.92 
L 70 30.92 
Q 68 30.92 68 32.92 
L 68 105.58875 
Q 68 107.58875 70 107.58875 
z
" style="fill:#ffffff;opacity:0.8;stroke:#cccccc;stroke-linejoin:miter;"/>
    </g>
    <g id="text_17">
     <!-- scenario -->
     <g transform="translate(131.536719 42.518438)scale(0.1 -0.1)">
      <use xlink:href="#DejaVuSans-115"/>
      <use x="52.099609" xlink:href="#DejaVuSans-99"/>
      <use x="107.080078" xlink:href="#DejaVuSans-101"/>
      <use x="168.603516" xlink:href="#DejaVuSans-110"/>
      <use x="231.982422" xlink:href="#DejaVuSans-97"/>
      <use x="293.261719" xlink:href="#DejaVuSans-114"/>
      <use x="334.375" xlink:href="#DejaVuSans-105"/>
      <use x="362.158203" xlink:href="#DejaVuSans-111"/>
     </g>
    </g>
    <g id="line2d_22">
     <path d="M 72 53.696562 
L 92 53.696562 
" style="fill:none;stroke:#1f77b4;stroke-linecap:square;stroke-width:1.5;"/>
    </g>
    <g id="line2d_23"/>
    <g id="text_18">
     <!-- onlylow -->
     <g transform="translate(100 57.196562)scale(0.1 -0.1)">
      <defs>
       <path d="M 4.203125 54.6875 
L 13.1875 54.6875 
L 24.421875 12.015625 
L 35.59375 54.6875 
L 46.1875 54.6875 
L 57.421875 12.015625 
L 68.609375 54.6875 
L 77.59375 54.6875 
L 63.28125 0 
L 52.6875 0 
L 40.921875 44.828125 
L 29.109375 0 
L 18.5 0 
z
" id="DejaVuSans-119"/>
      </defs>
      <use xlink:href="#DejaVuSans-111"/>
      <use x="61.181641" xlink:href="#DejaVuSans-110"/>
      <use x="124.560547" xlink:href="#DejaVuSans-108"/>
      <use x="152.34375" xlink:href="#DejaVuSans-121"/>
      <use x="211.523438" xlink:href="#DejaVuSans-108"/>
      <use x="239.306641" xlink:href="#DejaVuSans-111"/>
      <use x="300.488281" xlink:href="#DejaVuSans-119"/>
     </g>
    </g>
    <g id="line2d_24">
     <path d="M 72 68.374687 
L 92 68.374687 
" style="fill:none;stroke:#ff7f0e;stroke-linecap:square;stroke-width:1.5;"/>
    </g>
    <g id="line2d_25"/>
    <g id="text_19">
     <!-- onlyhigh -->
     <g transform="translate(100 71.874687)scale(0.1 -0.1)">
      <defs>
       <path d="M 54.890625 33.015625 
L 54.890625 0 
L 45.90625 0 
L 45.90625 32.71875 
Q 45.90625 40.484375 42.875 44.328125 
Q 39.84375 48.1875 33.796875 48.1875 
Q 26.515625 48.1875 22.3125 43.546875 
Q 18.109375 38.921875 18.109375 30.90625 
L 18.109375 0 
L 9.078125 0 
L 9.078125 75.984375 
L 18.109375 75.984375 
L 18.109375 46.1875 
Q 21.34375 51.125 25.703125 53.5625 
Q 30.078125 56 35.796875 56 
Q 45.21875 56 50.046875 50.171875 
Q 54.890625 44.34375 54.890625 33.015625 
z
" id="DejaVuSans-104"/>
       <path d="M 45.40625 27.984375 
Q 45.40625 37.75 41.375 43.109375 
Q 37.359375 48.484375 30.078125 48.484375 
Q 22.859375 48.484375 18.828125 43.109375 
Q 14.796875 37.75 14.796875 27.984375 
Q 14.796875 18.265625 18.828125 12.890625 
Q 22.859375 7.515625 30.078125 7.515625 
Q 37.359375 7.515625 41.375 12.890625 
Q 45.40625 18.265625 45.40625 27.984375 
z
M 54.390625 6.78125 
Q 54.390625 -7.171875 48.1875 -13.984375 
Q 42 -20.796875 29.203125 -20.796875 
Q 24.46875 -20.796875 20.265625 -20.09375 
Q 16.0625 -19.390625 12.109375 -17.921875 
L 12.109375 -9.1875 
Q 16.0625 -11.328125 19.921875 -12.34375 
Q 23.78125 -13.375 27.78125 -13.375 
Q 36.625 -13.375 41.015625 -8.765625 
Q 45.40625 -4.15625 45.40625 5.171875 
L 45.40625 9.625 
Q 42.625 4.78125 38.28125 2.390625 
Q 33.9375 0 27.875 0 
Q 17.828125 0 11.671875 7.65625 
Q 5.515625 15.328125 5.515625 27.984375 
Q 5.515625 40.671875 11.671875 48.328125 
Q 17.828125 56 27.875 56 
Q 33.9375 56 38.28125 53.609375 
Q 42.625 51.21875 45.40625 46.390625 
L 45.40625 54.6875 
L 54.390625 54.6875 
z
" id="DejaVuSans-103"/>
      </defs>
      <use xlink:href="#DejaVuSans-111"/>
      <use x="61.181641" xlink:href="#DejaVuSans-110"/>
      <use x="124.560547" xlink:href="#DejaVuSans-108"/>
      <use x="152.34375" xlink:href="#DejaVuSans-121"/>
      <use x="211.523438" xlink:href="#DejaVuSans-104"/>
      <use x="274.902344" xlink:href="#DejaVuSans-105"/>
      <use x="302.685547" xlink:href="#DejaVuSans-103"/>
      <use x="366.162109" xlink:href="#DejaVuSans-104"/>
     </g>
    </g>
    <g id="line2d_26">
     <path d="M 72 83.052813 
L 92 83.052813 
" style="fill:none;stroke:#2ca02c;stroke-linecap:square;stroke-width:1.5;"/>
    </g>
    <g id="line2d_27"/>
    <g id="text_20">
     <!-- balanced -->
     <g transform="translate(100 86.552813)scale(0.1 -0.1)">
      <defs>
       <path d="M 48.6875 27.296875 
Q 48.6875 37.203125 44.609375 42.84375 
Q 40.53125 48.484375 33.40625 48.484375 
Q 26.265625 48.484375 22.1875 42.84375 
Q 18.109375 37.203125 18.109375 27.296875 
Q 18.109375 17.390625 22.1875 11.75 
Q 26.265625 6.109375 33.40625 6.109375 
Q 40.53125 6.109375 44.609375 11.75 
Q 48.6875 17.390625 48.6875 27.296875 
z
M 18.109375 46.390625 
Q 20.953125 51.265625 25.265625 53.625 
Q 29.59375 56 35.59375 56 
Q 45.5625 56 51.78125 48.09375 
Q 58.015625 40.1875 58.015625 27.296875 
Q 58.015625 14.40625 51.78125 6.484375 
Q 45.5625 -1.421875 35.59375 -1.421875 
Q 29.59375 -1.421875 25.265625 0.953125 
Q 20.953125 3.328125 18.109375 8.203125 
L 18.109375 0 
L 9.078125 0 
L 9.078125 75.984375 
L 18.109375 75.984375 
z
" id="DejaVuSans-98"/>
      </defs>
      <use xlink:href="#DejaVuSans-98"/>
      <use x="63.476562" xlink:href="#DejaVuSans-97"/>
      <use x="124.755859" xlink:href="#DejaVuSans-108"/>
      <use x="152.539062" xlink:href="#DejaVuSans-97"/>
      <use x="213.818359" xlink:href="#DejaVuSans-110"/>
      <use x="277.197266" xlink:href="#DejaVuSans-99"/>
      <use x="332.177734" xlink:href="#DejaVuSans-101"/>
      <use x="393.701172" xlink:href="#DejaVuSans-100"/>
     </g>
    </g>
    <g id="line2d_28">
     <path d="M 72 97.730938 
L 92 97.730938 
" style="fill:none;stroke:#d62728;stroke-linecap:square;stroke-width:1.5;"/>
    </g>
    <g id="line2d_29"/>
    <g id="text_21">
     <!-- balanced_errors_penalized -->
     <g transform="translate(100 101.230938)scale(0.1 -0.1)">
      <use xlink:href="#DejaVuSans-98"/>
      <use x="63.476562" xlink:href="#DejaVuSans-97"/>
      <use x="124.755859" xlink:href="#DejaVuSans-108"/>
      <use x="152.539062" xlink:href="#DejaVuSans-97"/>
      <use x="213.818359" xlink:href="#DejaVuSans-110"/>
      <use x="277.197266" xlink:href="#DejaVuSans-99"/>
      <use x="332.177734" xlink:href="#DejaVuSans-101"/>
      <use x="393.701172" xlink:href="#DejaVuSans-100"/>
      <use x="457.177734" xlink:href="#DejaVuSans-95"/>
      <use x="507.177734" xlink:href="#DejaVuSans-101"/>
      <use x="568.701172" xlink:href="#DejaVuSans-114"/>
      <use x="608.064453" xlink:href="#DejaVuSans-114"/>
      <use x="646.927734" xlink:href="#DejaVuSans-111"/>
      <use x="708.109375" xlink:href="#DejaVuSans-114"/>
      <use x="749.222656" xlink:href="#DejaVuSans-115"/>
      <use x="801.322266" xlink:href="#DejaVuSans-95"/>
      <use x="851.322266" xlink:href="#DejaVuSans-112"/>
      <use x="914.798828" xlink:href="#DejaVuSans-101"/>
      <use x="976.322266" xlink:href="#DejaVuSans-110"/>
      <use x="1039.701172" xlink:href="#DejaVuSans-97"/>
      <use x="1100.980469" xlink:href="#DejaVuSans-108"/>
      <use x="1128.763672" xlink:href="#DejaVuSans-105"/>
      <use x="1156.546875" xlink:href="#DejaVuSans-122"/>
      <use x="1209.037109" xlink:href="#DejaVuSans-101"/>
      <use x="1270.560547" xlink:href="#DejaVuSans-100"/>
     </g>
    </g>
   </g>
  </g>
 </g>
 <defs>
  <clipPath id="p4d30d49720">
   <rect height="166.32" width="390.6" x="63" y="25.92"/>
  </clipPath>
 </defs>
</svg>
