<?xml version="1.0" encoding="utf-8" standalone="no"?>
<!DOCTYPE svg PUBLIC "-//W3C//DTD SVG 1.1//EN"
  "http://www.w3.org/Graphics/SVG/1.1/DTD/svg11.dtd">
<!-- Created with matplotlib (https://matplotlib.org/) -->
<svg height="216pt" version="1.1" viewBox="0 0 504 216" width="504pt" xmlns="http://www.w3.org/2000/svg" xmlns:xlink="http://www.w3.org/1999/xlink">
 <metadata>
  <rdf:RDF xmlns:cc="http://creativecommons.org/ns#" xmlns:dc="http://purl.org/dc/elements/1.1/" xmlns:rdf="http://www.w3.org/1999/02/22-rdf-syntax-ns#">
   <cc:Work>
    <dc:type rdf:resource="http://purl.org/dc/dcmitype/StillImage"/>
    <dc:date>2021-11-19T12:55:01.958099</dc:date>
    <dc:format>image/svg+xml</dc:format>
    <dc:creator>
     <cc:Agent>
      <dc:title>Matplotlib v3.3.4, https://matplotlib.org/</dc:title>
     </cc:Agent>
    </dc:creator>
   </cc:Work>
  </rdf:RDF>
 </metadata>
 <defs>
  <style type="text/css">*{stroke-linecap:butt;stroke-linejoin:round;}</style>
 </defs>
 <g id="figure_1">
  <g id="patch_1">
   <path d="M 0 216 
L 504 216 
L 504 0 
L 0 0 
z
" style="fill:#ffffff;"/>
  </g>
  <g id="axes_1">
   <g id="patch_2">
    <path d="M 63 192.24 
L 453.6 192.24 
L 453.6 25.92 
L 63 25.92 
z
" style="fill:#ffffff;"/>
   </g>
   <g id="matplotlib.axis_1">
    <g id="xtick_1">
     <g id="line2d_1">
      <defs>
       <path d="M 0 0 
L 0 3.5 
" id="md002e51962" style="stroke:#000000;stroke-width:0.8;"/>
      </defs>
      <g>
       <use style="stroke:#000000;stroke-width:0.8;" x="79.862357" xlink:href="#md002e51962" y="192.24"/>
      </g>
     </g>
     <g id="text_1">
      <!-- 400 -->
      <g transform="translate(70.318607 206.838437)scale(0.1 -0.1)">
       <defs>
        <path d="M 37.796875 64.3125 
L 12.890625 25.390625 
L 37.796875 25.390625 
z
M 35.203125 72.90625 
L 47.609375 72.90625 
L 47.609375 25.390625 
L 58.015625 25.390625 
L 58.015625 17.1875 
L 47.609375 17.1875 
L 47.609375 0 
L 37.796875 0 
L 37.796875 17.1875 
L 4.890625 17.1875 
L 4.890625 26.703125 
z
" id="DejaVuSans-52"/>
        <path d="M 31.78125 66.40625 
Q 24.171875 66.40625 20.328125 58.90625 
Q 16.5 51.421875 16.5 36.375 
Q 16.5 21.390625 20.328125 13.890625 
Q 24.171875 6.390625 31.78125 6.390625 
Q 39.453125 6.390625 43.28125 13.890625 
Q 47.125 21.390625 47.125 36.375 
Q 47.125 51.421875 43.28125 58.90625 
Q 39.453125 66.40625 31.78125 66.40625 
z
M 31.78125 74.21875 
Q 44.046875 74.21875 50.515625 64.515625 
Q 56.984375 54.828125 56.984375 36.375 
Q 56.984375 17.96875 50.515625 8.265625 
Q 44.046875 -1.421875 31.78125 -1.421875 
Q 19.53125 -1.421875 13.0625 8.265625 
Q 6.59375 17.96875 6.59375 36.375 
Q 6.59375 54.828125 13.0625 64.515625 
Q 19.53125 74.21875 31.78125 74.21875 
z
" id="DejaVuSans-48"/>
       </defs>
       <use xlink:href="#DejaVuSans-52"/>
       <use x="63.623047" xlink:href="#DejaVuSans-48"/>
       <use x="127.246094" xlink:href="#DejaVuSans-48"/>
      </g>
     </g>
    </g>
    <g id="xtick_2">
     <g id="line2d_2">
      <g>
       <use style="stroke:#000000;stroke-width:0.8;" x="124.471768" xlink:href="#md002e51962" y="192.24"/>
      </g>
     </g>
     <g id="text_2">
      <!-- 450 -->
      <g transform="translate(114.928018 206.838437)scale(0.1 -0.1)">
       <defs>
        <path d="M 10.796875 72.90625 
L 49.515625 72.90625 
L 49.515625 64.59375 
L 19.828125 64.59375 
L 19.828125 46.734375 
Q 21.96875 47.46875 24.109375 47.828125 
Q 26.265625 48.1875 28.421875 48.1875 
Q 40.625 48.1875 47.75 41.5 
Q 54.890625 34.8125 54.890625 23.390625 
Q 54.890625 11.625 47.5625 5.09375 
Q 40.234375 -1.421875 26.90625 -1.421875 
Q 22.3125 -1.421875 17.546875 -0.640625 
Q 12.796875 0.140625 7.71875 1.703125 
L 7.71875 11.625 
Q 12.109375 9.234375 16.796875 8.0625 
Q 21.484375 6.890625 26.703125 6.890625 
Q 35.15625 6.890625 40.078125 11.328125 
Q 45.015625 15.765625 45.015625 23.390625 
Q 45.015625 31 40.078125 35.4375 
Q 35.15625 39.890625 26.703125 39.890625 
Q 22.75 39.890625 18.8125 39.015625 
Q 14.890625 38.140625 10.796875 36.28125 
z
" id="DejaVuSans-53"/>
       </defs>
       <use xlink:href="#DejaVuSans-52"/>
       <use x="63.623047" xlink:href="#DejaVuSans-53"/>
       <use x="127.246094" xlink:href="#DejaVuSans-48"/>
      </g>
     </g>
    </g>
    <g id="xtick_3">
     <g id="line2d_3">
      <g>
       <use style="stroke:#000000;stroke-width:0.8;" x="169.081179" xlink:href="#md002e51962" y="192.24"/>
      </g>
     </g>
     <g id="text_3">
      <!-- 500 -->
      <g transform="translate(159.537429 206.838437)scale(0.1 -0.1)">
       <use xlink:href="#DejaVuSans-53"/>
       <use x="63.623047" xlink:href="#DejaVuSans-48"/>
       <use x="127.246094" xlink:href="#DejaVuSans-48"/>
      </g>
     </g>
    </g>
    <g id="xtick_4">
     <g id="line2d_4">
      <g>
       <use style="stroke:#000000;stroke-width:0.8;" x="213.690589" xlink:href="#md002e51962" y="192.24"/>
      </g>
     </g>
     <g id="text_4">
      <!-- 550 -->
      <g transform="translate(204.146839 206.838437)scale(0.1 -0.1)">
       <use xlink:href="#DejaVuSans-53"/>
       <use x="63.623047" xlink:href="#DejaVuSans-53"/>
       <use x="127.246094" xlink:href="#DejaVuSans-48"/>
      </g>
     </g>
    </g>
    <g id="xtick_5">
     <g id="line2d_5">
      <g>
       <use style="stroke:#000000;stroke-width:0.8;" x="258.3" xlink:href="#md002e51962" y="192.24"/>
      </g>
     </g>
     <g id="text_5">
      <!-- 600 -->
      <g transform="translate(248.75625 206.838437)scale(0.1 -0.1)">
       <defs>
        <path d="M 33.015625 40.375 
Q 26.375 40.375 22.484375 35.828125 
Q 18.609375 31.296875 18.609375 23.390625 
Q 18.609375 15.53125 22.484375 10.953125 
Q 26.375 6.390625 33.015625 6.390625 
Q 39.65625 6.390625 43.53125 10.953125 
Q 47.40625 15.53125 47.40625 23.390625 
Q 47.40625 31.296875 43.53125 35.828125 
Q 39.65625 40.375 33.015625 40.375 
z
M 52.59375 71.296875 
L 52.59375 62.3125 
Q 48.875 64.0625 45.09375 64.984375 
Q 41.3125 65.921875 37.59375 65.921875 
Q 27.828125 65.921875 22.671875 59.328125 
Q 17.53125 52.734375 16.796875 39.40625 
Q 19.671875 43.65625 24.015625 45.921875 
Q 28.375 48.1875 33.59375 48.1875 
Q 44.578125 48.1875 50.953125 41.515625 
Q 57.328125 34.859375 57.328125 23.390625 
Q 57.328125 12.15625 50.6875 5.359375 
Q 44.046875 -1.421875 33.015625 -1.421875 
Q 20.359375 -1.421875 13.671875 8.265625 
Q 6.984375 17.96875 6.984375 36.375 
Q 6.984375 53.65625 15.1875 63.9375 
Q 23.390625 74.21875 37.203125 74.21875 
Q 40.921875 74.21875 44.703125 73.484375 
Q 48.484375 72.75 52.59375 71.296875 
z
" id="DejaVuSans-54"/>
       </defs>
       <use xlink:href="#DejaVuSans-54"/>
       <use x="63.623047" xlink:href="#DejaVuSans-48"/>
       <use x="127.246094" xlink:href="#DejaVuSans-48"/>
      </g>
     </g>
    </g>
    <g id="xtick_6">
     <g id="line2d_6">
      <g>
       <use style="stroke:#000000;stroke-width:0.8;" x="302.909411" xlink:href="#md002e51962" y="192.24"/>
      </g>
     </g>
     <g id="text_6">
      <!-- 650 -->
      <g transform="translate(293.365661 206.838437)scale(0.1 -0.1)">
       <use xlink:href="#DejaVuSans-54"/>
       <use x="63.623047" xlink:href="#DejaVuSans-53"/>
       <use x="127.246094" xlink:href="#DejaVuSans-48"/>
      </g>
     </g>
    </g>
    <g id="xtick_7">
     <g id="line2d_7">
      <g>
       <use style="stroke:#000000;stroke-width:0.8;" x="347.518821" xlink:href="#md002e51962" y="192.24"/>
      </g>
     </g>
     <g id="text_7">
      <!-- 700 -->
      <g transform="translate(337.975071 206.838437)scale(0.1 -0.1)">
       <defs>
        <path d="M 8.203125 72.90625 
L 55.078125 72.90625 
L 55.078125 68.703125 
L 28.609375 0 
L 18.3125 0 
L 43.21875 64.59375 
L 8.203125 64.59375 
z
" id="DejaVuSans-55"/>
       </defs>
       <use xlink:href="#DejaVuSans-55"/>
       <use x="63.623047" xlink:href="#DejaVuSans-48"/>
       <use x="127.246094" xlink:href="#DejaVuSans-48"/>
      </g>
     </g>
    </g>
    <g id="xtick_8">
     <g id="line2d_8">
      <g>
       <use style="stroke:#000000;stroke-width:0.8;" x="392.128232" xlink:href="#md002e51962" y="192.24"/>
      </g>
     </g>
     <g id="text_8">
      <!-- 750 -->
      <g transform="translate(382.584482 206.838437)scale(0.1 -0.1)">
       <use xlink:href="#DejaVuSans-55"/>
       <use x="63.623047" xlink:href="#DejaVuSans-53"/>
       <use x="127.246094" xlink:href="#DejaVuSans-48"/>
      </g>
     </g>
    </g>
    <g id="xtick_9">
     <g id="line2d_9">
      <g>
       <use style="stroke:#000000;stroke-width:0.8;" x="436.737643" xlink:href="#md002e51962" y="192.24"/>
      </g>
     </g>
     <g id="text_9">
      <!-- 800 -->
      <g transform="translate(427.193893 206.838437)scale(0.1 -0.1)">
       <defs>
        <path d="M 31.78125 34.625 
Q 24.75 34.625 20.71875 30.859375 
Q 16.703125 27.09375 16.703125 20.515625 
Q 16.703125 13.921875 20.71875 10.15625 
Q 24.75 6.390625 31.78125 6.390625 
Q 38.8125 6.390625 42.859375 10.171875 
Q 46.921875 13.96875 46.921875 20.515625 
Q 46.921875 27.09375 42.890625 30.859375 
Q 38.875 34.625 31.78125 34.625 
z
M 21.921875 38.8125 
Q 15.578125 40.375 12.03125 44.71875 
Q 8.5 49.078125 8.5 55.328125 
Q 8.5 64.0625 14.71875 69.140625 
Q 20.953125 74.21875 31.78125 74.21875 
Q 42.671875 74.21875 48.875 69.140625 
Q 55.078125 64.0625 55.078125 55.328125 
Q 55.078125 49.078125 51.53125 44.71875 
Q 48 40.375 41.703125 38.8125 
Q 48.828125 37.15625 52.796875 32.3125 
Q 56.78125 27.484375 56.78125 20.515625 
Q 56.78125 9.90625 50.3125 4.234375 
Q 43.84375 -1.421875 31.78125 -1.421875 
Q 19.734375 -1.421875 13.25 4.234375 
Q 6.78125 9.90625 6.78125 20.515625 
Q 6.78125 27.484375 10.78125 32.3125 
Q 14.796875 37.15625 21.921875 38.8125 
z
M 18.3125 54.390625 
Q 18.3125 48.734375 21.84375 45.5625 
Q 25.390625 42.390625 31.78125 42.390625 
Q 38.140625 42.390625 41.71875 45.5625 
Q 45.3125 48.734375 45.3125 54.390625 
Q 45.3125 60.0625 41.71875 63.234375 
Q 38.140625 66.40625 31.78125 66.40625 
Q 25.390625 66.40625 21.84375 63.234375 
Q 18.3125 60.0625 18.3125 54.390625 
z
" id="DejaVuSans-56"/>
       </defs>
       <use xlink:href="#DejaVuSans-56"/>
       <use x="63.623047" xlink:href="#DejaVuSans-48"/>
       <use x="127.246094" xlink:href="#DejaVuSans-48"/>
      </g>
     </g>
    </g>
    <g id="text_10">
     <!-- time -->
     <g transform="translate(247.003906 220.516562)scale(0.1 -0.1)">
      <defs>
       <path d="M 18.3125 70.21875 
L 18.3125 54.6875 
L 36.8125 54.6875 
L 36.8125 47.703125 
L 18.3125 47.703125 
L 18.3125 18.015625 
Q 18.3125 11.328125 20.140625 9.421875 
Q 21.96875 7.515625 27.59375 7.515625 
L 36.8125 7.515625 
L 36.8125 0 
L 27.59375 0 
Q 17.1875 0 13.234375 3.875 
Q 9.28125 7.765625 9.28125 18.015625 
L 9.28125 47.703125 
L 2.6875 47.703125 
L 2.6875 54.6875 
L 9.28125 54.6875 
L 9.28125 70.21875 
z
" id="DejaVuSans-116"/>
       <path d="M 9.421875 54.6875 
L 18.40625 54.6875 
L 18.40625 0 
L 9.421875 0 
z
M 9.421875 75.984375 
L 18.40625 75.984375 
L 18.40625 64.59375 
L 9.421875 64.59375 
z
" id="DejaVuSans-105"/>
       <path d="M 52 44.1875 
Q 55.375 50.25 60.0625 53.125 
Q 64.75 56 71.09375 56 
Q 79.640625 56 84.28125 50.015625 
Q 88.921875 44.046875 88.921875 33.015625 
L 88.921875 0 
L 79.890625 0 
L 79.890625 32.71875 
Q 79.890625 40.578125 77.09375 44.375 
Q 74.3125 48.1875 68.609375 48.1875 
Q 61.625 48.1875 57.5625 43.546875 
Q 53.515625 38.921875 53.515625 30.90625 
L 53.515625 0 
L 44.484375 0 
L 44.484375 32.71875 
Q 44.484375 40.625 41.703125 44.40625 
Q 38.921875 48.1875 33.109375 48.1875 
Q 26.21875 48.1875 22.15625 43.53125 
Q 18.109375 38.875 18.109375 30.90625 
L 18.109375 0 
L 9.078125 0 
L 9.078125 54.6875 
L 18.109375 54.6875 
L 18.109375 46.1875 
Q 21.1875 51.21875 25.484375 53.609375 
Q 29.78125 56 35.6875 56 
Q 41.65625 56 45.828125 52.96875 
Q 50 49.953125 52 44.1875 
z
" id="DejaVuSans-109"/>
       <path d="M 56.203125 29.59375 
L 56.203125 25.203125 
L 14.890625 25.203125 
Q 15.484375 15.921875 20.484375 11.0625 
Q 25.484375 6.203125 34.421875 6.203125 
Q 39.59375 6.203125 44.453125 7.46875 
Q 49.3125 8.734375 54.109375 11.28125 
L 54.109375 2.78125 
Q 49.265625 0.734375 44.1875 -0.34375 
Q 39.109375 -1.421875 33.890625 -1.421875 
Q 20.796875 -1.421875 13.15625 6.1875 
Q 5.515625 13.8125 5.515625 26.8125 
Q 5.515625 40.234375 12.765625 48.109375 
Q 20.015625 56 32.328125 56 
Q 43.359375 56 49.78125 48.890625 
Q 56.203125 41.796875 56.203125 29.59375 
z
M 47.21875 32.234375 
Q 47.125 39.59375 43.09375 43.984375 
Q 39.0625 48.390625 32.421875 48.390625 
Q 24.90625 48.390625 20.390625 44.140625 
Q 15.875 39.890625 15.1875 32.171875 
z
" id="DejaVuSans-101"/>
      </defs>
      <use xlink:href="#DejaVuSans-116"/>
      <use x="39.208984" xlink:href="#DejaVuSans-105"/>
      <use x="66.992188" xlink:href="#DejaVuSans-109"/>
      <use x="164.404297" xlink:href="#DejaVuSans-101"/>
     </g>
    </g>
   </g>
   <g id="matplotlib.axis_2">
    <g id="ytick_1">
     <g id="line2d_10">
      <defs>
       <path d="M 0 0 
L -3.5 0 
" id="mcc8dcb7aad" style="stroke:#000000;stroke-width:0.8;"/>
      </defs>
      <g>
       <use style="stroke:#000000;stroke-width:0.8;" x="63" xlink:href="#mcc8dcb7aad" y="181.879504"/>
      </g>
     </g>
     <g id="text_11">
      <!-- 2.6 -->
      <g transform="translate(40.096875 185.678722)scale(0.1 -0.1)">
       <defs>
        <path d="M 19.1875 8.296875 
L 53.609375 8.296875 
L 53.609375 0 
L 7.328125 0 
L 7.328125 8.296875 
Q 12.9375 14.109375 22.625 23.890625 
Q 32.328125 33.6875 34.8125 36.53125 
Q 39.546875 41.84375 41.421875 45.53125 
Q 43.3125 49.21875 43.3125 52.78125 
Q 43.3125 58.59375 39.234375 62.25 
Q 35.15625 65.921875 28.609375 65.921875 
Q 23.96875 65.921875 18.8125 64.3125 
Q 13.671875 62.703125 7.8125 59.421875 
L 7.8125 69.390625 
Q 13.765625 71.78125 18.9375 73 
Q 24.125 74.21875 28.421875 74.21875 
Q 39.75 74.21875 46.484375 68.546875 
Q 53.21875 62.890625 53.21875 53.421875 
Q 53.21875 48.921875 51.53125 44.890625 
Q 49.859375 40.875 45.40625 35.40625 
Q 44.1875 33.984375 37.640625 27.21875 
Q 31.109375 20.453125 19.1875 8.296875 
z
" id="DejaVuSans-50"/>
        <path d="M 10.6875 12.40625 
L 21 12.40625 
L 21 0 
L 10.6875 0 
z
" id="DejaVuSans-46"/>
       </defs>
       <use xlink:href="#DejaVuSans-50"/>
       <use x="63.623047" xlink:href="#DejaVuSans-46"/>
       <use x="95.410156" xlink:href="#DejaVuSans-54"/>
      </g>
     </g>
    </g>
    <g id="ytick_2">
     <g id="line2d_11">
      <g>
       <use style="stroke:#000000;stroke-width:0.8;" x="63" xlink:href="#mcc8dcb7aad" y="158.856921"/>
      </g>
     </g>
     <g id="text_12">
      <!-- 2.7 -->
      <g transform="translate(40.096875 162.65614)scale(0.1 -0.1)">
       <use xlink:href="#DejaVuSans-50"/>
       <use x="63.623047" xlink:href="#DejaVuSans-46"/>
       <use x="95.410156" xlink:href="#DejaVuSans-55"/>
      </g>
     </g>
    </g>
    <g id="ytick_3">
     <g id="line2d_12">
      <g>
       <use style="stroke:#000000;stroke-width:0.8;" x="63" xlink:href="#mcc8dcb7aad" y="135.834339"/>
      </g>
     </g>
     <g id="text_13">
      <!-- 2.8 -->
      <g transform="translate(40.096875 139.633557)scale(0.1 -0.1)">
       <use xlink:href="#DejaVuSans-50"/>
       <use x="63.623047" xlink:href="#DejaVuSans-46"/>
       <use x="95.410156" xlink:href="#DejaVuSans-56"/>
      </g>
     </g>
    </g>
    <g id="ytick_4">
     <g id="line2d_13">
      <g>
       <use style="stroke:#000000;stroke-width:0.8;" x="63" xlink:href="#mcc8dcb7aad" y="112.811756"/>
      </g>
     </g>
     <g id="text_14">
      <!-- 2.9 -->
      <g transform="translate(40.096875 116.610975)scale(0.1 -0.1)">
       <defs>
        <path d="M 10.984375 1.515625 
L 10.984375 10.5 
Q 14.703125 8.734375 18.5 7.8125 
Q 22.3125 6.890625 25.984375 6.890625 
Q 35.75 6.890625 40.890625 13.453125 
Q 46.046875 20.015625 46.78125 33.40625 
Q 43.953125 29.203125 39.59375 26.953125 
Q 35.25 24.703125 29.984375 24.703125 
Q 19.046875 24.703125 12.671875 31.3125 
Q 6.296875 37.9375 6.296875 49.421875 
Q 6.296875 60.640625 12.9375 67.421875 
Q 19.578125 74.21875 30.609375 74.21875 
Q 43.265625 74.21875 49.921875 64.515625 
Q 56.59375 54.828125 56.59375 36.375 
Q 56.59375 19.140625 48.40625 8.859375 
Q 40.234375 -1.421875 26.421875 -1.421875 
Q 22.703125 -1.421875 18.890625 -0.6875 
Q 15.09375 0.046875 10.984375 1.515625 
z
M 30.609375 32.421875 
Q 37.25 32.421875 41.125 36.953125 
Q 45.015625 41.5 45.015625 49.421875 
Q 45.015625 57.28125 41.125 61.84375 
Q 37.25 66.40625 30.609375 66.40625 
Q 23.96875 66.40625 20.09375 61.84375 
Q 16.21875 57.28125 16.21875 49.421875 
Q 16.21875 41.5 20.09375 36.953125 
Q 23.96875 32.421875 30.609375 32.421875 
z
" id="DejaVuSans-57"/>
       </defs>
       <use xlink:href="#DejaVuSans-50"/>
       <use x="63.623047" xlink:href="#DejaVuSans-46"/>
       <use x="95.410156" xlink:href="#DejaVuSans-57"/>
      </g>
     </g>
    </g>
    <g id="ytick_5">
     <g id="line2d_14">
      <g>
       <use style="stroke:#000000;stroke-width:0.8;" x="63" xlink:href="#mcc8dcb7aad" y="89.789174"/>
      </g>
     </g>
     <g id="text_15">
      <!-- 3.0 -->
      <g transform="translate(40.096875 93.588392)scale(0.1 -0.1)">
       <defs>
        <path d="M 40.578125 39.3125 
Q 47.65625 37.796875 51.625 33 
Q 55.609375 28.21875 55.609375 21.1875 
Q 55.609375 10.40625 48.1875 4.484375 
Q 40.765625 -1.421875 27.09375 -1.421875 
Q 22.515625 -1.421875 17.65625 -0.515625 
Q 12.796875 0.390625 7.625 2.203125 
L 7.625 11.71875 
Q 11.71875 9.328125 16.59375 8.109375 
Q 21.484375 6.890625 26.8125 6.890625 
Q 36.078125 6.890625 40.9375 10.546875 
Q 45.796875 14.203125 45.796875 21.1875 
Q 45.796875 27.640625 41.28125 31.265625 
Q 36.765625 34.90625 28.71875 34.90625 
L 20.21875 34.90625 
L 20.21875 43.015625 
L 29.109375 43.015625 
Q 36.375 43.015625 40.234375 45.921875 
Q 44.09375 48.828125 44.09375 54.296875 
Q 44.09375 59.90625 40.109375 62.90625 
Q 36.140625 65.921875 28.71875 65.921875 
Q 24.65625 65.921875 20.015625 65.03125 
Q 15.375 64.15625 9.8125 62.3125 
L 9.8125 71.09375 
Q 15.4375 72.65625 20.34375 73.4375 
Q 25.25 74.21875 29.59375 74.21875 
Q 40.828125 74.21875 47.359375 69.109375 
Q 53.90625 64.015625 53.90625 55.328125 
Q 53.90625 49.265625 50.4375 45.09375 
Q 46.96875 40.921875 40.578125 39.3125 
z
" id="DejaVuSans-51"/>
       </defs>
       <use xlink:href="#DejaVuSans-51"/>
       <use x="63.623047" xlink:href="#DejaVuSans-46"/>
       <use x="95.410156" xlink:href="#DejaVuSans-48"/>
      </g>
     </g>
    </g>
    <g id="ytick_6">
     <g id="line2d_15">
      <g>
       <use style="stroke:#000000;stroke-width:0.8;" x="63" xlink:href="#mcc8dcb7aad" y="66.766591"/>
      </g>
     </g>
     <g id="text_16">
      <!-- 3.1 -->
      <g transform="translate(40.096875 70.56581)scale(0.1 -0.1)">
       <defs>
        <path d="M 12.40625 8.296875 
L 28.515625 8.296875 
L 28.515625 63.921875 
L 10.984375 60.40625 
L 10.984375 69.390625 
L 28.421875 72.90625 
L 38.28125 72.90625 
L 38.28125 8.296875 
L 54.390625 8.296875 
L 54.390625 0 
L 12.40625 0 
z
" id="DejaVuSans-49"/>
       </defs>
       <use xlink:href="#DejaVuSans-51"/>
       <use x="63.623047" xlink:href="#DejaVuSans-46"/>
       <use x="95.410156" xlink:href="#DejaVuSans-49"/>
      </g>
     </g>
    </g>
    <g id="ytick_7">
     <g id="line2d_16">
      <g>
       <use style="stroke:#000000;stroke-width:0.8;" x="63" xlink:href="#mcc8dcb7aad" y="43.744008"/>
      </g>
     </g>
     <g id="text_17">
      <!-- 3.2 -->
      <g transform="translate(40.096875 47.543227)scale(0.1 -0.1)">
       <use xlink:href="#DejaVuSans-51"/>
       <use x="63.623047" xlink:href="#DejaVuSans-46"/>
       <use x="95.410156" xlink:href="#DejaVuSans-50"/>
      </g>
     </g>
    </g>
    <g id="text_18">
     <!-- coef1 -->
     <g transform="translate(34.017187 122.906562)rotate(-90)scale(0.1 -0.1)">
      <defs>
       <path d="M 48.78125 52.59375 
L 48.78125 44.1875 
Q 44.96875 46.296875 41.140625 47.34375 
Q 37.3125 48.390625 33.40625 48.390625 
Q 24.65625 48.390625 19.8125 42.84375 
Q 14.984375 37.3125 14.984375 27.296875 
Q 14.984375 17.28125 19.8125 11.734375 
Q 24.65625 6.203125 33.40625 6.203125 
Q 37.3125 6.203125 41.140625 7.25 
Q 44.96875 8.296875 48.78125 10.40625 
L 48.78125 2.09375 
Q 45.015625 0.34375 40.984375 -0.53125 
Q 36.96875 -1.421875 32.421875 -1.421875 
Q 20.0625 -1.421875 12.78125 6.34375 
Q 5.515625 14.109375 5.515625 27.296875 
Q 5.515625 40.671875 12.859375 48.328125 
Q 20.21875 56 33.015625 56 
Q 37.15625 56 41.109375 55.140625 
Q 45.0625 54.296875 48.78125 52.59375 
z
" id="DejaVuSans-99"/>
       <path d="M 30.609375 48.390625 
Q 23.390625 48.390625 19.1875 42.75 
Q 14.984375 37.109375 14.984375 27.296875 
Q 14.984375 17.484375 19.15625 11.84375 
Q 23.34375 6.203125 30.609375 6.203125 
Q 37.796875 6.203125 41.984375 11.859375 
Q 46.1875 17.53125 46.1875 27.296875 
Q 46.1875 37.015625 41.984375 42.703125 
Q 37.796875 48.390625 30.609375 48.390625 
z
M 30.609375 56 
Q 42.328125 56 49.015625 48.375 
Q 55.71875 40.765625 55.71875 27.296875 
Q 55.71875 13.875 49.015625 6.21875 
Q 42.328125 -1.421875 30.609375 -1.421875 
Q 18.84375 -1.421875 12.171875 6.21875 
Q 5.515625 13.875 5.515625 27.296875 
Q 5.515625 40.765625 12.171875 48.375 
Q 18.84375 56 30.609375 56 
z
" id="DejaVuSans-111"/>
       <path d="M 37.109375 75.984375 
L 37.109375 68.5 
L 28.515625 68.5 
Q 23.6875 68.5 21.796875 66.546875 
Q 19.921875 64.59375 19.921875 59.515625 
L 19.921875 54.6875 
L 34.71875 54.6875 
L 34.71875 47.703125 
L 19.921875 47.703125 
L 19.921875 0 
L 10.890625 0 
L 10.890625 47.703125 
L 2.296875 47.703125 
L 2.296875 54.6875 
L 10.890625 54.6875 
L 10.890625 58.5 
Q 10.890625 67.625 15.140625 71.796875 
Q 19.390625 75.984375 28.609375 75.984375 
z
" id="DejaVuSans-102"/>
      </defs>
      <use xlink:href="#DejaVuSans-99"/>
      <use x="54.980469" xlink:href="#DejaVuSans-111"/>
      <use x="116.162109" xlink:href="#DejaVuSans-101"/>
      <use x="177.685547" xlink:href="#DejaVuSans-102"/>
      <use x="212.890625" xlink:href="#DejaVuSans-49"/>
     </g>
    </g>
   </g>
   <g id="line2d_17">
    <path clip-path="url(#pf6de5730bb)" d="M 80.754545 182.416951 
L 81.646734 182.032132 
L 82.538922 181.809177 
L 83.43111 181.763749 
L 86.107675 181.890113 
L 86.999863 181.525772 
L 87.892051 181.396567 
L 88.784239 181.415293 
L 89.676428 181.796564 
L 92.352992 182.499429 
L 93.24518 181.70018 
L 94.137369 181.616448 
L 95.029557 181.360779 
L 96.813933 181.772325 
L 97.706122 181.835996 
L 98.59831 181.782731 
L 99.490498 180.504294 
L 100.382686 180.273615 
L 101.274874 179.870887 
L 103.059251 179.650164 
L 103.951439 179.847576 
L 104.843627 179.925987 
L 105.735815 178.748768 
L 106.628004 178.513525 
L 108.41238 177.717268 
L 109.304568 177.575343 
L 110.196757 177.14553 
L 111.088945 177.018979 
L 111.981133 175.70352 
L 115.549886 174.004513 
L 117.334262 172.886537 
L 118.22645 172.064057 
L 121.795203 170.872254 
L 122.687392 170.125546 
L 123.57958 169.711336 
L 124.471768 168.635334 
L 126.256144 167.852799 
L 127.148333 167.636094 
L 128.932709 166.796221 
L 129.824897 166.662965 
L 130.717085 165.546409 
L 131.609274 165.200267 
L 132.501462 164.557452 
L 133.39365 164.135718 
L 134.285838 163.860699 
L 136.070215 163.12692 
L 136.962403 161.694229 
L 137.854591 161.006057 
L 138.746779 160.622358 
L 139.638968 159.963832 
L 140.531156 159.455669 
L 142.315532 158.91201 
L 143.20772 157.557961 
L 144.099909 157.100732 
L 144.992097 156.843394 
L 145.884285 156.337944 
L 147.668661 155.574625 
L 148.56085 155.200646 
L 149.453038 154.310078 
L 150.345226 153.97569 
L 152.129603 153.005972 
L 153.021791 152.744685 
L 154.806167 151.552729 
L 155.698355 150.378887 
L 160.159296 147.055706 
L 161.051485 146.597966 
L 161.943673 145.73085 
L 164.620238 143.987248 
L 165.512426 143.643825 
L 166.404614 143.540727 
L 167.296802 143.255857 
L 169.081179 142.225018 
L 169.973367 141.411958 
L 171.757743 140.419281 
L 172.649931 140.299928 
L 173.54212 139.956387 
L 175.326496 138.43184 
L 176.218684 138.126473 
L 178.003061 136.938112 
L 178.895249 136.578222 
L 179.787437 136.084063 
L 180.679625 135.721384 
L 181.571814 134.845023 
L 187.817131 131.841713 
L 198.52339 125.708084 
L 201.199954 124.009667 
L 202.984331 123.308352 
L 203.876519 122.758894 
L 205.660895 122.204466 
L 207.445272 121.094758 
L 209.229648 120.234778 
L 210.121836 119.550311 
L 212.798401 118.239743 
L 213.690589 118.020427 
L 215.474966 116.74928 
L 216.367154 116.161993 
L 217.259342 115.872416 
L 218.15153 115.771113 
L 220.828095 114.338485 
L 221.720283 113.771403 
L 222.612471 113.353916 
L 224.396848 112.235492 
L 225.289036 112.042326 
L 226.181224 111.487889 
L 227.073413 111.20418 
L 227.965601 110.802584 
L 231.534354 108.524458 
L 232.426542 107.771637 
L 233.31873 107.341947 
L 234.210918 107.165078 
L 235.103106 106.634845 
L 235.995295 106.45113 
L 236.887483 105.981242 
L 237.779671 105.644818 
L 238.671859 105.484337 
L 239.564048 104.999618 
L 241.348424 104.38825 
L 242.240612 104.01589 
L 243.1328 103.411402 
L 244.024989 103.15946 
L 248.48593 100.754028 
L 249.378118 100.030981 
L 250.270306 99.709224 
L 252.054683 98.869685 
L 255.623435 97.379444 
L 259.192188 95.518302 
L 260.084376 95.271576 
L 260.976565 94.827696 
L 261.868753 94.243647 
L 262.760941 93.796797 
L 263.653129 93.202246 
L 265.437506 92.538006 
L 266.329694 92.086014 
L 268.11407 91.469344 
L 269.006259 90.863145 
L 271.682823 89.561679 
L 273.4672 89.259559 
L 274.359388 88.783226 
L 275.251576 88.43635 
L 277.928141 87.698179 
L 279.712517 87.097432 
L 280.604705 87.034779 
L 283.28127 85.65241 
L 285.065646 85.135676 
L 286.850023 84.12143 
L 289.526587 83.121283 
L 290.418776 83.039687 
L 293.09534 82.240249 
L 293.987529 81.744464 
L 294.879717 81.632687 
L 296.664093 80.902878 
L 297.556281 80.351615 
L 298.44847 80.001172 
L 299.340658 79.786968 
L 301.125034 78.962888 
L 302.017222 78.430129 
L 302.909411 78.369758 
L 305.585975 77.238001 
L 307.370352 76.705151 
L 312.723481 74.450534 
L 313.615669 74.173697 
L 316.292234 72.820732 
L 317.184422 72.203245 
L 318.968799 71.617038 
L 319.860987 71.285653 
L 320.753175 71.114569 
L 322.537551 70.189878 
L 324.321928 69.495332 
L 326.106304 69.096448 
L 326.998492 68.73032 
L 328.782869 68.290106 
L 329.675057 68.044131 
L 330.567245 67.578931 
L 331.459434 67.394323 
L 333.24381 66.652265 
L 335.028186 65.95161 
L 338.596939 65.080009 
L 339.489127 64.641363 
L 341.273504 64.092827 
L 342.165692 64.154595 
L 343.05788 63.869897 
L 343.950069 63.450748 
L 345.734445 62.833538 
L 349.303198 61.570425 
L 350.195386 61.171169 
L 351.979762 60.751839 
L 352.871951 60.641222 
L 354.656327 59.762846 
L 355.548515 59.531729 
L 359.117268 57.855283 
L 360.009456 57.73883 
L 363.578209 56.484493 
L 364.470397 56.254507 
L 365.362586 56.178026 
L 367.146962 55.662503 
L 368.931339 55.483902 
L 373.39228 54.063604 
L 374.284468 53.660281 
L 376.068844 53.189494 
L 376.961032 52.678914 
L 379.637597 51.803214 
L 380.529785 51.625996 
L 382.314162 51.050378 
L 384.098538 50.598596 
L 387.667291 49.050917 
L 388.559479 48.879993 
L 392.128232 47.557547 
L 393.912608 47.244565 
L 394.804797 46.856338 
L 396.589173 46.228005 
L 398.37355 45.476626 
L 400.157926 44.65451 
L 401.050114 44.54619 
L 401.942302 44.294989 
L 402.834491 43.780888 
L 404.618867 43.261449 
L 405.511055 43.193351 
L 406.403243 42.79855 
L 407.295432 42.685949 
L 408.18762 42.392288 
L 409.971996 42.040908 
L 414.432937 40.763781 
L 418.893878 39.599624 
L 420.678255 38.957175 
L 421.570443 38.6425 
L 424.247008 38.099106 
L 426.031384 37.511552 
L 426.923572 37.272362 
L 427.815761 36.844651 
L 428.707949 36.607864 
L 429.600137 36.519848 
L 431.384513 35.731172 
L 432.276702 35.589793 
L 433.16889 35.266362 
L 434.061078 35.105882 
L 434.953266 34.81933 
L 435.845455 34.70154 
L 435.845455 34.70154 
" style="fill:none;stroke:#1f77b4;stroke-linecap:square;stroke-width:1.5;"/>
   </g>
   <g id="line2d_18">
    <path clip-path="url(#pf6de5730bb)" d="M 80.754545 181.902394 
L 82.538922 181.803479 
L 83.43111 181.576841 
L 85.215487 181.921834 
L 86.107675 182.18095 
L 86.999863 181.886405 
L 90.568616 182.450673 
L 91.460804 182.765798 
L 92.352992 182.574067 
L 93.24518 181.921477 
L 94.137369 181.903696 
L 95.029557 182.070149 
L 95.921745 182.050664 
L 96.813933 182.381975 
L 97.706122 182.32755 
L 98.59831 182.509933 
L 99.490498 181.567691 
L 100.382686 181.558381 
L 103.059251 181.094204 
L 104.843627 181.155997 
L 105.735815 180.469966 
L 109.304568 180.24387 
L 111.088945 180.00356 
L 111.981133 179.120478 
L 112.873321 178.810152 
L 114.657698 178.594445 
L 115.549886 178.617418 
L 116.442074 178.43296 
L 117.334262 178.565493 
L 120.903015 177.134233 
L 121.795203 177.250593 
L 122.687392 177.223635 
L 123.57958 176.982852 
L 124.471768 176.400585 
L 127.148333 176.31655 
L 128.932709 176.381956 
L 129.824897 176.273461 
L 130.717085 175.844907 
L 131.609274 175.5818 
L 134.285838 175.396202 
L 136.070215 175.313019 
L 137.854591 174.717204 
L 138.746779 174.590109 
L 139.638968 174.31881 
L 143.20772 173.957343 
L 144.992097 173.311734 
L 145.884285 173.113518 
L 146.776473 173.060059 
L 149.453038 172.413217 
L 150.345226 171.997833 
L 151.237414 171.887213 
L 152.129603 171.550322 
L 154.806167 171.538579 
L 156.590544 171.377251 
L 161.943673 169.860957 
L 162.835861 169.755005 
L 163.728049 169.23632 
L 164.620238 168.999141 
L 165.512426 168.907586 
L 169.081179 168.079526 
L 171.757743 167.032802 
L 172.649931 166.979964 
L 174.434308 166.627573 
L 175.326496 166.558693 
L 176.218684 166.216931 
L 177.110873 166.305407 
L 178.895249 165.829042 
L 181.571814 165.500237 
L 183.35619 164.780014 
L 185.140566 164.974895 
L 186.032755 164.842638 
L 186.924943 164.849092 
L 187.817131 164.724875 
L 191.385884 163.49841 
L 194.062449 163.038054 
L 195.846825 162.679217 
L 196.739013 162.857489 
L 198.52339 162.797413 
L 199.415578 162.944656 
L 200.307766 162.678156 
L 203.876519 162.100283 
L 204.768707 161.810585 
L 205.660895 161.760252 
L 209.229648 160.927188 
L 211.014025 160.859819 
L 211.906213 160.417293 
L 215.474966 159.92785 
L 216.367154 159.900318 
L 217.259342 159.621556 
L 218.15153 159.638866 
L 221.720283 158.957668 
L 222.612471 158.547397 
L 225.289036 158.305336 
L 227.073413 157.634215 
L 228.857789 157.249523 
L 230.642165 157.121382 
L 231.534354 156.884205 
L 232.426542 156.853445 
L 235.103106 156.140923 
L 235.995295 156.201301 
L 236.887483 156.130337 
L 238.671859 155.596688 
L 240.456236 155.197173 
L 241.348424 155.293594 
L 244.917177 154.767555 
L 245.809365 154.637472 
L 246.701553 154.311887 
L 248.48593 154.225929 
L 250.270306 153.592569 
L 251.162494 153.552763 
L 253.839059 152.972795 
L 254.731247 152.855047 
L 255.623435 152.582671 
L 256.515624 152.530059 
L 257.407812 152.264711 
L 260.084376 151.986781 
L 260.976565 151.6985 
L 265.437506 151.295115 
L 266.329694 151.078179 
L 268.11407 150.953198 
L 270.790635 150.329877 
L 272.575011 150.085394 
L 273.4672 149.848207 
L 274.359388 149.861819 
L 276.143764 149.368088 
L 277.928141 149.30742 
L 278.820329 149.33108 
L 282.389082 148.621698 
L 284.173458 148.603918 
L 285.065646 148.468015 
L 286.850023 148.352521 
L 288.634399 147.953969 
L 290.418776 147.726993 
L 291.310964 147.787881 
L 292.203152 147.7294 
L 293.987529 147.326399 
L 294.879717 147.448921 
L 295.771905 147.201015 
L 300.232846 146.593394 
L 306.478164 145.220318 
L 307.370352 144.937165 
L 309.154728 144.843384 
L 310.046916 144.700091 
L 310.939105 144.811976 
L 313.615669 144.396227 
L 314.507857 144.241257 
L 315.400046 143.917042 
L 316.292234 143.767229 
L 317.184422 143.844359 
L 318.07661 143.808294 
L 319.860987 143.356381 
L 321.645363 142.88054 
L 322.537551 142.576424 
L 326.106304 141.802471 
L 327.890681 141.359865 
L 330.567245 140.966202 
L 332.351622 141.055704 
L 335.920375 140.945268 
L 337.704751 140.461108 
L 342.165692 140.030022 
L 343.05788 139.850102 
L 344.842257 139.750453 
L 347.518821 139.421467 
L 348.41101 139.567059 
L 351.979762 138.791885 
L 352.871951 138.812423 
L 354.656327 138.419135 
L 357.332892 137.87507 
L 360.901645 137.56663 
L 368.03915 136.52121 
L 370.715715 136.405587 
L 371.607903 136.382787 
L 372.500091 136.233178 
L 375.176656 136.322467 
L 378.745409 135.626879 
L 381.421974 135.698531 
L 383.20635 135.34552 
L 384.990726 135.340109 
L 390.343856 134.662057 
L 393.02042 134.057784 
L 398.37355 133.35036 
L 399.265738 133.166832 
L 401.942302 132.909378 
L 403.726679 132.573806 
L 405.511055 132.559054 
L 406.403243 132.594664 
L 408.18762 132.192048 
L 409.079808 132.066026 
L 411.756373 131.987802 
L 413.540749 131.788521 
L 414.432937 131.911614 
L 422.462631 130.916812 
L 423.35482 130.900131 
L 424.247008 130.762169 
L 426.031384 130.840265 
L 429.600137 130.270651 
L 432.276702 130.280845 
L 434.061078 130.022363 
L 435.845455 129.727143 
L 435.845455 129.727143 
" style="fill:none;stroke:#ff7f0e;stroke-linecap:square;stroke-width:1.5;"/>
   </g>
   <g id="line2d_19">
    <path clip-path="url(#pf6de5730bb)" d="M 80.754545 178.265233 
L 81.646734 178.489261 
L 82.538922 178.505211 
L 83.43111 178.301882 
L 86.107675 178.539365 
L 86.999863 178.077006 
L 88.784239 177.88863 
L 89.676428 177.691383 
L 91.460804 177.703365 
L 92.352992 178.051431 
L 93.24518 177.252936 
L 94.137369 177.024503 
L 95.029557 177.000242 
L 95.921745 177.130469 
L 98.59831 177.038149 
L 99.490498 175.983323 
L 101.274874 175.365212 
L 102.167063 175.226615 
L 104.843627 175.225468 
L 105.735815 174.005738 
L 106.628004 173.519843 
L 107.520192 173.179683 
L 108.41238 173.034404 
L 110.196757 172.470317 
L 111.088945 172.324475 
L 111.981133 170.853849 
L 112.873321 170.277963 
L 114.657698 169.599856 
L 115.549886 169.251877 
L 117.334262 168.835828 
L 118.22645 167.823576 
L 120.903015 166.483459 
L 122.687392 166.06131 
L 123.57958 165.695222 
L 124.471768 164.660519 
L 125.363956 164.351827 
L 126.256144 163.799669 
L 127.148333 163.66553 
L 128.040521 163.124931 
L 128.932709 163.000539 
L 129.824897 162.685945 
L 130.717085 161.234385 
L 132.501462 160.007458 
L 134.285838 159.270158 
L 136.070215 158.556551 
L 136.962403 157.034712 
L 141.423344 155.091258 
L 142.315532 154.867563 
L 143.20772 153.745574 
L 148.56085 151.391609 
L 149.453038 150.481159 
L 150.345226 149.83626 
L 151.237414 148.998622 
L 152.129603 148.336881 
L 153.913979 147.48786 
L 154.806167 147.078642 
L 155.698355 146.105889 
L 156.590544 145.699975 
L 158.37492 144.628684 
L 161.051485 143.411167 
L 162.835861 141.797148 
L 163.728049 141.297596 
L 164.620238 141.046434 
L 165.512426 140.462945 
L 167.296802 139.672939 
L 169.081179 137.900723 
L 169.973367 137.343712 
L 170.865555 136.590207 
L 172.649931 135.84161 
L 174.434308 134.706336 
L 175.326496 134.309337 
L 176.218684 133.581796 
L 177.110873 133.245408 
L 178.003061 132.762646 
L 178.895249 132.543825 
L 180.679625 131.794451 
L 181.571814 131.496526 
L 182.464002 130.752856 
L 183.35619 130.412725 
L 185.140566 129.374313 
L 186.032755 129.086677 
L 188.709319 127.481926 
L 190.493696 127.013319 
L 191.385884 126.616362 
L 193.17026 126.06041 
L 196.739013 124.179312 
L 197.631201 123.810139 
L 198.52339 123.193551 
L 200.307766 122.622115 
L 202.092143 121.875939 
L 202.984331 121.325917 
L 204.768707 120.613619 
L 205.660895 120.270427 
L 207.445272 118.995787 
L 211.014025 116.875954 
L 212.798401 115.619101 
L 213.690589 115.424885 
L 215.474966 114.305427 
L 216.367154 114.02516 
L 220.828095 111.694688 
L 221.720283 111.184761 
L 222.612471 110.91838 
L 223.50466 110.446803 
L 226.181224 108.670757 
L 227.073413 108.198541 
L 228.857789 107.094002 
L 229.749977 106.900327 
L 230.642165 106.205354 
L 231.534354 105.826637 
L 232.426542 105.299594 
L 233.31873 104.908333 
L 235.103106 103.708294 
L 237.779671 102.479397 
L 238.671859 102.005866 
L 240.456236 100.891212 
L 242.240612 99.860034 
L 243.1328 99.129374 
L 249.378118 96.033971 
L 252.054683 94.554989 
L 252.946871 94.505679 
L 254.731247 93.522021 
L 257.407812 92.233761 
L 258.3 91.824166 
L 259.192188 91.225905 
L 260.084376 90.837316 
L 260.976565 90.615172 
L 262.760941 89.623487 
L 263.653129 89.015475 
L 264.545317 88.887263 
L 269.006259 87.140152 
L 270.790635 86.777141 
L 271.682823 86.266492 
L 273.4672 85.608142 
L 274.359388 85.216047 
L 275.251576 84.609905 
L 278.820329 83.157048 
L 279.712517 82.9351 
L 281.496894 82.195942 
L 284.173458 81.059145 
L 285.065646 81.002138 
L 285.957835 80.571378 
L 287.742211 80.055568 
L 290.418776 78.624862 
L 291.310964 78.330287 
L 292.203152 78.175425 
L 293.09534 77.680713 
L 296.664093 76.563281 
L 297.556281 76.060786 
L 299.340658 75.496171 
L 300.232846 75.159223 
L 301.125034 74.950113 
L 307.370352 72.269051 
L 308.26254 71.831277 
L 310.939105 70.978776 
L 311.831293 70.529775 
L 312.723481 70.490245 
L 313.615669 70.085759 
L 315.400046 69.57134 
L 318.07661 68.595726 
L 318.968799 68.505594 
L 321.645363 67.495384 
L 322.537551 67.341213 
L 331.459434 64.018518 
L 334.135998 62.955126 
L 336.812563 62.04404 
L 337.704751 61.859773 
L 339.489127 61.106542 
L 340.381316 60.772997 
L 343.05788 60.321484 
L 344.842257 59.789035 
L 346.626633 58.928441 
L 347.518821 58.892562 
L 348.41101 58.428777 
L 349.303198 58.184526 
L 350.195386 57.650189 
L 351.979762 57.215172 
L 352.871951 56.690419 
L 355.548515 55.770753 
L 356.440704 55.236951 
L 358.22508 54.660845 
L 359.117268 54.494722 
L 360.009456 54.062218 
L 365.362586 52.563304 
L 368.03915 51.439008 
L 372.500091 49.76225 
L 373.39228 49.324769 
L 374.284468 49.132743 
L 375.176656 48.724444 
L 376.068844 48.600452 
L 376.961032 48.352943 
L 377.853221 48.248846 
L 378.745409 47.930009 
L 379.637597 47.458241 
L 382.314162 46.527945 
L 383.20635 46.313366 
L 384.990726 45.609358 
L 389.451667 44.900188 
L 390.343856 44.651358 
L 391.236044 44.18847 
L 393.912608 43.450479 
L 394.804797 43.358879 
L 398.37355 42.478797 
L 399.265738 42.476236 
L 400.157926 42.242503 
L 401.050114 42.157205 
L 401.942302 41.907656 
L 402.834491 41.876766 
L 404.618867 41.352825 
L 407.295432 40.632753 
L 409.971996 40.081203 
L 413.540749 38.778446 
L 414.432937 38.382924 
L 415.325126 38.320751 
L 417.109502 37.657447 
L 418.00169 37.585125 
L 419.786067 36.901882 
L 420.678255 36.765657 
L 421.570443 36.382503 
L 422.462631 36.341688 
L 424.247008 35.704633 
L 425.139196 35.616194 
L 426.031384 35.358263 
L 427.815761 35.2349 
L 430.492325 34.428477 
L 431.384513 34.269551 
L 432.276702 34.243094 
L 433.16889 33.898414 
L 435.845455 33.48 
L 435.845455 33.48 
" style="fill:none;stroke:#2ca02c;stroke-linecap:square;stroke-width:1.5;"/>
   </g>
   <g id="line2d_20">
    <path clip-path="url(#pf6de5730bb)" d="M 80.754545 184.171441 
L 81.646734 184.201841 
L 82.538922 183.860443 
L 84.323298 184.318125 
L 85.215487 184.601433 
L 86.107675 184.550711 
L 86.999863 184.00549 
L 87.892051 184.031322 
L 90.568616 184.68 
L 92.352992 184.665529 
L 93.24518 183.731446 
L 95.921745 183.891542 
L 97.706122 183.64994 
L 98.59831 183.88415 
L 99.490498 183.045488 
L 101.274874 182.819234 
L 102.167063 183.028667 
L 103.059251 183.118096 
L 103.951439 182.89555 
L 104.843627 183.141504 
L 105.735815 182.045808 
L 107.520192 181.309251 
L 108.41238 181.162392 
L 109.304568 180.813605 
L 110.196757 180.756839 
L 111.088945 180.503505 
L 111.981133 179.244182 
L 112.873321 178.67359 
L 113.765509 178.545303 
L 115.549886 178.001126 
L 117.334262 177.782192 
L 118.22645 176.683537 
L 119.118639 176.445626 
L 120.903015 175.764129 
L 121.795203 175.39222 
L 122.687392 175.226619 
L 123.57958 174.802594 
L 124.471768 173.900712 
L 126.256144 173.073631 
L 129.824897 172.095118 
L 130.717085 171.095077 
L 131.609274 170.653239 
L 132.501462 170.417164 
L 134.285838 169.316743 
L 135.178026 169.191366 
L 136.070215 168.884998 
L 136.962403 167.822137 
L 138.746779 167.564425 
L 139.638968 167.124463 
L 140.531156 166.461023 
L 141.423344 166.089684 
L 142.315532 165.565443 
L 143.20772 164.774657 
L 144.992097 164.032641 
L 145.884285 163.813777 
L 147.668661 163.123272 
L 148.56085 162.917591 
L 149.453038 161.74775 
L 150.345226 161.53274 
L 152.129603 160.334181 
L 153.021791 160.067942 
L 153.913979 160.040958 
L 154.806167 159.74484 
L 155.698355 158.697894 
L 157.482732 157.391938 
L 158.37492 157.133311 
L 160.159296 156.252678 
L 161.051485 155.994063 
L 161.943673 155.375282 
L 162.835861 155.062944 
L 163.728049 154.455228 
L 164.620238 154.066611 
L 166.404614 153.657997 
L 167.296802 153.265579 
L 168.18899 152.536655 
L 169.081179 151.97358 
L 170.865555 151.113279 
L 172.649931 150.101628 
L 173.54212 149.954562 
L 176.218684 148.269846 
L 178.895249 147.012221 
L 179.787437 146.660176 
L 181.571814 145.489071 
L 182.464002 144.951467 
L 184.248378 144.071388 
L 185.140566 143.573342 
L 186.924943 143.14047 
L 190.493696 140.927368 
L 191.385884 140.603321 
L 192.278072 140.42927 
L 193.17026 139.980062 
L 194.954637 138.811662 
L 195.846825 138.597687 
L 196.739013 138.05154 
L 198.52339 137.414962 
L 199.415578 136.804302 
L 200.307766 136.329125 
L 201.199954 136.173649 
L 202.092143 135.592412 
L 202.984331 135.163224 
L 203.876519 134.89685 
L 204.768707 134.389006 
L 205.660895 134.181796 
L 206.553084 133.551876 
L 209.229648 132.483121 
L 210.121836 131.790633 
L 212.798401 130.588249 
L 214.582778 129.580005 
L 216.367154 128.751393 
L 217.259342 128.204616 
L 219.935907 127.435685 
L 220.828095 127.009077 
L 221.720283 126.368813 
L 222.612471 126.06591 
L 225.289036 124.456655 
L 226.181224 124.172067 
L 227.073413 123.633459 
L 227.965601 123.243912 
L 230.642165 122.523815 
L 232.426542 121.632729 
L 233.31873 120.997162 
L 235.995295 119.789104 
L 237.779671 119.351994 
L 238.671859 118.890193 
L 239.564048 118.141479 
L 240.456236 117.78986 
L 242.240612 116.726653 
L 246.701553 114.799631 
L 249.378118 113.516827 
L 250.270306 113.343024 
L 251.162494 113.31872 
L 252.946871 112.622487 
L 253.839059 112.322425 
L 254.731247 111.794707 
L 258.3 110.395417 
L 259.192188 109.93033 
L 260.976565 109.425474 
L 261.868753 108.891416 
L 265.437506 107.286285 
L 266.329694 107.169438 
L 267.221882 106.644218 
L 268.11407 106.390105 
L 269.006259 106.262725 
L 274.359388 103.951137 
L 276.143764 103.469752 
L 277.035952 103.107768 
L 277.928141 102.609923 
L 278.820329 102.366344 
L 279.712517 101.927906 
L 283.28127 100.966629 
L 285.065646 100.207307 
L 287.742211 99.361481 
L 288.634399 99.070691 
L 289.526587 98.506978 
L 291.310964 97.891066 
L 293.987529 96.856163 
L 295.771905 95.985195 
L 297.556281 95.363498 
L 298.44847 95.235996 
L 299.340658 94.875424 
L 300.232846 94.327583 
L 301.125034 94.091023 
L 306.478164 91.927731 
L 307.370352 91.832602 
L 310.939105 90.444153 
L 311.831293 90.039487 
L 312.723481 89.839655 
L 313.615669 89.474742 
L 318.07661 88.485509 
L 319.860987 87.734729 
L 320.753175 87.291012 
L 323.42974 86.384619 
L 324.321928 86.250353 
L 329.675057 84.519046 
L 330.567245 84.160409 
L 331.459434 84.120231 
L 333.24381 83.587516 
L 334.135998 83.308981 
L 335.028186 82.750099 
L 339.489127 81.397541 
L 340.381316 81.4358 
L 341.273504 81.24729 
L 342.165692 81.174344 
L 343.05788 80.959576 
L 347.518821 79.320921 
L 350.195386 78.465874 
L 351.979762 78.005761 
L 352.871951 77.768042 
L 354.656327 76.878555 
L 356.440704 76.398041 
L 357.332892 75.965268 
L 360.009456 75.482579 
L 360.901645 75.196249 
L 361.793833 74.78932 
L 362.686021 74.678139 
L 364.470397 74.123443 
L 365.362586 73.740761 
L 366.254774 73.548547 
L 368.03915 72.996048 
L 369.823527 72.655205 
L 370.715715 72.305799 
L 371.607903 72.285819 
L 373.39228 71.840239 
L 374.284468 71.630356 
L 375.176656 71.290319 
L 376.961032 70.778762 
L 380.529785 69.688023 
L 381.421974 69.314879 
L 384.098538 68.499613 
L 386.775103 67.674026 
L 388.559479 67.330637 
L 390.343856 66.726824 
L 393.02042 66.157713 
L 395.696985 65.284278 
L 398.37355 64.700443 
L 400.157926 64.16996 
L 402.834491 63.614604 
L 408.18762 62.115619 
L 409.079808 61.947863 
L 412.648561 60.647179 
L 413.540749 60.195418 
L 415.325126 59.764038 
L 416.217314 59.655831 
L 418.00169 59.06014 
L 418.893878 58.672123 
L 421.570443 57.872978 
L 423.35482 57.361939 
L 426.031384 56.617319 
L 429.600137 56.337198 
L 431.384513 56.153326 
L 433.16889 55.66565 
L 434.061078 55.364556 
L 435.845455 55.007824 
L 435.845455 55.007824 
" style="fill:none;stroke:#d62728;stroke-linecap:square;stroke-width:1.5;"/>
   </g>
   <g id="line2d_21"/>
   <g id="line2d_22"/>
   <g id="line2d_23"/>
   <g id="line2d_24"/>
   <g id="patch_3">
    <path d="M 63 192.24 
L 63 25.92 
" style="fill:none;stroke:#000000;stroke-linecap:square;stroke-linejoin:miter;stroke-width:0.8;"/>
   </g>
   <g id="patch_4">
    <path d="M 63 192.24 
L 453.6 192.24 
" style="fill:none;stroke:#000000;stroke-linecap:square;stroke-linejoin:miter;stroke-width:0.8;"/>
   </g>
   <g id="text_19">
    <!-- modeltype=base -->
    <g transform="translate(206.880938 19.92)scale(0.12 -0.12)">
     <defs>
      <path d="M 45.40625 46.390625 
L 45.40625 75.984375 
L 54.390625 75.984375 
L 54.390625 0 
L 45.40625 0 
L 45.40625 8.203125 
Q 42.578125 3.328125 38.25 0.953125 
Q 33.9375 -1.421875 27.875 -1.421875 
Q 17.96875 -1.421875 11.734375 6.484375 
Q 5.515625 14.40625 5.515625 27.296875 
Q 5.515625 40.1875 11.734375 48.09375 
Q 17.96875 56 27.875 56 
Q 33.9375 56 38.25 53.625 
Q 42.578125 51.265625 45.40625 46.390625 
z
M 14.796875 27.296875 
Q 14.796875 17.390625 18.875 11.75 
Q 22.953125 6.109375 30.078125 6.109375 
Q 37.203125 6.109375 41.296875 11.75 
Q 45.40625 17.390625 45.40625 27.296875 
Q 45.40625 37.203125 41.296875 42.84375 
Q 37.203125 48.484375 30.078125 48.484375 
Q 22.953125 48.484375 18.875 42.84375 
Q 14.796875 37.203125 14.796875 27.296875 
z
" id="DejaVuSans-100"/>
      <path d="M 9.421875 75.984375 
L 18.40625 75.984375 
L 18.40625 0 
L 9.421875 0 
z
" id="DejaVuSans-108"/>
      <path d="M 32.171875 -5.078125 
Q 28.375 -14.84375 24.75 -17.8125 
Q 21.140625 -20.796875 15.09375 -20.796875 
L 7.90625 -20.796875 
L 7.90625 -13.28125 
L 13.1875 -13.28125 
Q 16.890625 -13.28125 18.9375 -11.515625 
Q 21 -9.765625 23.484375 -3.21875 
L 25.09375 0.875 
L 2.984375 54.6875 
L 12.5 54.6875 
L 29.59375 11.921875 
L 46.6875 54.6875 
L 56.203125 54.6875 
z
" id="DejaVuSans-121"/>
      <path d="M 18.109375 8.203125 
L 18.109375 -20.796875 
L 9.078125 -20.796875 
L 9.078125 54.6875 
L 18.109375 54.6875 
L 18.109375 46.390625 
Q 20.953125 51.265625 25.265625 53.625 
Q 29.59375 56 35.59375 56 
Q 45.5625 56 51.78125 48.09375 
Q 58.015625 40.1875 58.015625 27.296875 
Q 58.015625 14.40625 51.78125 6.484375 
Q 45.5625 -1.421875 35.59375 -1.421875 
Q 29.59375 -1.421875 25.265625 0.953125 
Q 20.953125 3.328125 18.109375 8.203125 
z
M 48.6875 27.296875 
Q 48.6875 37.203125 44.609375 42.84375 
Q 40.53125 48.484375 33.40625 48.484375 
Q 26.265625 48.484375 22.1875 42.84375 
Q 18.109375 37.203125 18.109375 27.296875 
Q 18.109375 17.390625 22.1875 11.75 
Q 26.265625 6.109375 33.40625 6.109375 
Q 40.53125 6.109375 44.609375 11.75 
Q 48.6875 17.390625 48.6875 27.296875 
z
" id="DejaVuSans-112"/>
      <path d="M 10.59375 45.40625 
L 73.1875 45.40625 
L 73.1875 37.203125 
L 10.59375 37.203125 
z
M 10.59375 25.484375 
L 73.1875 25.484375 
L 73.1875 17.1875 
L 10.59375 17.1875 
z
" id="DejaVuSans-61"/>
      <path d="M 48.6875 27.296875 
Q 48.6875 37.203125 44.609375 42.84375 
Q 40.53125 48.484375 33.40625 48.484375 
Q 26.265625 48.484375 22.1875 42.84375 
Q 18.109375 37.203125 18.109375 27.296875 
Q 18.109375 17.390625 22.1875 11.75 
Q 26.265625 6.109375 33.40625 6.109375 
Q 40.53125 6.109375 44.609375 11.75 
Q 48.6875 17.390625 48.6875 27.296875 
z
M 18.109375 46.390625 
Q 20.953125 51.265625 25.265625 53.625 
Q 29.59375 56 35.59375 56 
Q 45.5625 56 51.78125 48.09375 
Q 58.015625 40.1875 58.015625 27.296875 
Q 58.015625 14.40625 51.78125 6.484375 
Q 45.5625 -1.421875 35.59375 -1.421875 
Q 29.59375 -1.421875 25.265625 0.953125 
Q 20.953125 3.328125 18.109375 8.203125 
L 18.109375 0 
L 9.078125 0 
L 9.078125 75.984375 
L 18.109375 75.984375 
z
" id="DejaVuSans-98"/>
      <path d="M 34.28125 27.484375 
Q 23.390625 27.484375 19.1875 25 
Q 14.984375 22.515625 14.984375 16.5 
Q 14.984375 11.71875 18.140625 8.90625 
Q 21.296875 6.109375 26.703125 6.109375 
Q 34.1875 6.109375 38.703125 11.40625 
Q 43.21875 16.703125 43.21875 25.484375 
L 43.21875 27.484375 
z
M 52.203125 31.203125 
L 52.203125 0 
L 43.21875 0 
L 43.21875 8.296875 
Q 40.140625 3.328125 35.546875 0.953125 
Q 30.953125 -1.421875 24.3125 -1.421875 
Q 15.921875 -1.421875 10.953125 3.296875 
Q 6 8.015625 6 15.921875 
Q 6 25.140625 12.171875 29.828125 
Q 18.359375 34.515625 30.609375 34.515625 
L 43.21875 34.515625 
L 43.21875 35.40625 
Q 43.21875 41.609375 39.140625 45 
Q 35.0625 48.390625 27.6875 48.390625 
Q 23 48.390625 18.546875 47.265625 
Q 14.109375 46.140625 10.015625 43.890625 
L 10.015625 52.203125 
Q 14.9375 54.109375 19.578125 55.046875 
Q 24.21875 56 28.609375 56 
Q 40.484375 56 46.34375 49.84375 
Q 52.203125 43.703125 52.203125 31.203125 
z
" id="DejaVuSans-97"/>
      <path d="M 44.28125 53.078125 
L 44.28125 44.578125 
Q 40.484375 46.53125 36.375 47.5 
Q 32.28125 48.484375 27.875 48.484375 
Q 21.1875 48.484375 17.84375 46.4375 
Q 14.5 44.390625 14.5 40.28125 
Q 14.5 37.15625 16.890625 35.375 
Q 19.28125 33.59375 26.515625 31.984375 
L 29.59375 31.296875 
Q 39.15625 29.25 43.1875 25.515625 
Q 47.21875 21.78125 47.21875 15.09375 
Q 47.21875 7.46875 41.1875 3.015625 
Q 35.15625 -1.421875 24.609375 -1.421875 
Q 20.21875 -1.421875 15.453125 -0.5625 
Q 10.6875 0.296875 5.421875 2 
L 5.421875 11.28125 
Q 10.40625 8.6875 15.234375 7.390625 
Q 20.0625 6.109375 24.8125 6.109375 
Q 31.15625 6.109375 34.5625 8.28125 
Q 37.984375 10.453125 37.984375 14.40625 
Q 37.984375 18.0625 35.515625 20.015625 
Q 33.0625 21.96875 24.703125 23.78125 
L 21.578125 24.515625 
Q 13.234375 26.265625 9.515625 29.90625 
Q 5.8125 33.546875 5.8125 39.890625 
Q 5.8125 47.609375 11.28125 51.796875 
Q 16.75 56 26.8125 56 
Q 31.78125 56 36.171875 55.265625 
Q 40.578125 54.546875 44.28125 53.078125 
z
" id="DejaVuSans-115"/>
     </defs>
     <use xlink:href="#DejaVuSans-109"/>
     <use x="97.412109" xlink:href="#DejaVuSans-111"/>
     <use x="158.59375" xlink:href="#DejaVuSans-100"/>
     <use x="222.070312" xlink:href="#DejaVuSans-101"/>
     <use x="283.59375" xlink:href="#DejaVuSans-108"/>
     <use x="311.376953" xlink:href="#DejaVuSans-116"/>
     <use x="350.585938" xlink:href="#DejaVuSans-121"/>
     <use x="409.765625" xlink:href="#DejaVuSans-112"/>
     <use x="473.242188" xlink:href="#DejaVuSans-101"/>
     <use x="534.765625" xlink:href="#DejaVuSans-61"/>
     <use x="618.554688" xlink:href="#DejaVuSans-98"/>
     <use x="682.03125" xlink:href="#DejaVuSans-97"/>
     <use x="743.310547" xlink:href="#DejaVuSans-115"/>
     <use x="795.410156" xlink:href="#DejaVuSans-101"/>
    </g>
   </g>
   <g id="legend_1">
    <g id="patch_5">
     <path d="M 70 107.58875 
L 235.407813 107.58875 
Q 237.407813 107.58875 237.407813 105.58875 
L 237.407813 32.92 
Q 237.407813 30.92 235.407813 30.92 
L 70 30.92 
Q 68 30.92 68 32.92 
L 68 105.58875 
Q 68 107.58875 70 107.58875 
z
" style="fill:#ffffff;opacity:0.8;stroke:#cccccc;stroke-linejoin:miter;"/>
    </g>
    <g id="text_20">
     <!-- scenario -->
     <g transform="translate(131.536719 42.518438)scale(0.1 -0.1)">
      <defs>
       <path d="M 54.890625 33.015625 
L 54.890625 0 
L 45.90625 0 
L 45.90625 32.71875 
Q 45.90625 40.484375 42.875 44.328125 
Q 39.84375 48.1875 33.796875 48.1875 
Q 26.515625 48.1875 22.3125 43.546875 
Q 18.109375 38.921875 18.109375 30.90625 
L 18.109375 0 
L 9.078125 0 
L 9.078125 54.6875 
L 18.109375 54.6875 
L 18.109375 46.1875 
Q 21.34375 51.125 25.703125 53.5625 
Q 30.078125 56 35.796875 56 
Q 45.21875 56 50.046875 50.171875 
Q 54.890625 44.34375 54.890625 33.015625 
z
" id="DejaVuSans-110"/>
       <path d="M 41.109375 46.296875 
Q 39.59375 47.171875 37.8125 47.578125 
Q 36.03125 48 33.890625 48 
Q 26.265625 48 22.1875 43.046875 
Q 18.109375 38.09375 18.109375 28.8125 
L 18.109375 0 
L 9.078125 0 
L 9.078125 54.6875 
L 18.109375 54.6875 
L 18.109375 46.1875 
Q 20.953125 51.171875 25.484375 53.578125 
Q 30.03125 56 36.53125 56 
Q 37.453125 56 38.578125 55.875 
Q 39.703125 55.765625 41.0625 55.515625 
z
" id="DejaVuSans-114"/>
      </defs>
      <use xlink:href="#DejaVuSans-115"/>
      <use x="52.099609" xlink:href="#DejaVuSans-99"/>
      <use x="107.080078" xlink:href="#DejaVuSans-101"/>
      <use x="168.603516" xlink:href="#DejaVuSans-110"/>
      <use x="231.982422" xlink:href="#DejaVuSans-97"/>
      <use x="293.261719" xlink:href="#DejaVuSans-114"/>
      <use x="334.375" xlink:href="#DejaVuSans-105"/>
      <use x="362.158203" xlink:href="#DejaVuSans-111"/>
     </g>
    </g>
    <g id="line2d_25">
     <path d="M 72 53.696562 
L 92 53.696562 
" style="fill:none;stroke:#1f77b4;stroke-linecap:square;stroke-width:1.5;"/>
    </g>
    <g id="line2d_26"/>
    <g id="text_21">
     <!-- onlylow -->
     <g transform="translate(100 57.196562)scale(0.1 -0.1)">
      <defs>
       <path d="M 4.203125 54.6875 
L 13.1875 54.6875 
L 24.421875 12.015625 
L 35.59375 54.6875 
L 46.1875 54.6875 
L 57.421875 12.015625 
L 68.609375 54.6875 
L 77.59375 54.6875 
L 63.28125 0 
L 52.6875 0 
L 40.921875 44.828125 
L 29.109375 0 
L 18.5 0 
z
" id="DejaVuSans-119"/>
      </defs>
      <use xlink:href="#DejaVuSans-111"/>
      <use x="61.181641" xlink:href="#DejaVuSans-110"/>
      <use x="124.560547" xlink:href="#DejaVuSans-108"/>
      <use x="152.34375" xlink:href="#DejaVuSans-121"/>
      <use x="211.523438" xlink:href="#DejaVuSans-108"/>
      <use x="239.306641" xlink:href="#DejaVuSans-111"/>
      <use x="300.488281" xlink:href="#DejaVuSans-119"/>
     </g>
    </g>
    <g id="line2d_27">
     <path d="M 72 68.374687 
L 92 68.374687 
" style="fill:none;stroke:#ff7f0e;stroke-linecap:square;stroke-width:1.5;"/>
    </g>
    <g id="line2d_28"/>
    <g id="text_22">
     <!-- onlyhigh -->
     <g transform="translate(100 71.874687)scale(0.1 -0.1)">
      <defs>
       <path d="M 54.890625 33.015625 
L 54.890625 0 
L 45.90625 0 
L 45.90625 32.71875 
Q 45.90625 40.484375 42.875 44.328125 
Q 39.84375 48.1875 33.796875 48.1875 
Q 26.515625 48.1875 22.3125 43.546875 
Q 18.109375 38.921875 18.109375 30.90625 
L 18.109375 0 
L 9.078125 0 
L 9.078125 75.984375 
L 18.109375 75.984375 
L 18.109375 46.1875 
Q 21.34375 51.125 25.703125 53.5625 
Q 30.078125 56 35.796875 56 
Q 45.21875 56 50.046875 50.171875 
Q 54.890625 44.34375 54.890625 33.015625 
z
" id="DejaVuSans-104"/>
       <path d="M 45.40625 27.984375 
Q 45.40625 37.75 41.375 43.109375 
Q 37.359375 48.484375 30.078125 48.484375 
Q 22.859375 48.484375 18.828125 43.109375 
Q 14.796875 37.75 14.796875 27.984375 
Q 14.796875 18.265625 18.828125 12.890625 
Q 22.859375 7.515625 30.078125 7.515625 
Q 37.359375 7.515625 41.375 12.890625 
Q 45.40625 18.265625 45.40625 27.984375 
z
M 54.390625 6.78125 
Q 54.390625 -7.171875 48.1875 -13.984375 
Q 42 -20.796875 29.203125 -20.796875 
Q 24.46875 -20.796875 20.265625 -20.09375 
Q 16.0625 -19.390625 12.109375 -17.921875 
L 12.109375 -9.1875 
Q 16.0625 -11.328125 19.921875 -12.34375 
Q 23.78125 -13.375 27.78125 -13.375 
Q 36.625 -13.375 41.015625 -8.765625 
Q 45.40625 -4.15625 45.40625 5.171875 
L 45.40625 9.625 
Q 42.625 4.78125 38.28125 2.390625 
Q 33.9375 0 27.875 0 
Q 17.828125 0 11.671875 7.65625 
Q 5.515625 15.328125 5.515625 27.984375 
Q 5.515625 40.671875 11.671875 48.328125 
Q 17.828125 56 27.875 56 
Q 33.9375 56 38.28125 53.609375 
Q 42.625 51.21875 45.40625 46.390625 
L 45.40625 54.6875 
L 54.390625 54.6875 
z
" id="DejaVuSans-103"/>
      </defs>
      <use xlink:href="#DejaVuSans-111"/>
      <use x="61.181641" xlink:href="#DejaVuSans-110"/>
      <use x="124.560547" xlink:href="#DejaVuSans-108"/>
      <use x="152.34375" xlink:href="#DejaVuSans-121"/>
      <use x="211.523438" xlink:href="#DejaVuSans-104"/>
      <use x="274.902344" xlink:href="#DejaVuSans-105"/>
      <use x="302.685547" xlink:href="#DejaVuSans-103"/>
      <use x="366.162109" xlink:href="#DejaVuSans-104"/>
     </g>
    </g>
    <g id="line2d_29">
     <path d="M 72 83.052813 
L 92 83.052813 
" style="fill:none;stroke:#2ca02c;stroke-linecap:square;stroke-width:1.5;"/>
    </g>
    <g id="line2d_30"/>
    <g id="text_23">
     <!-- balanced -->
     <g transform="translate(100 86.552813)scale(0.1 -0.1)">
      <use xlink:href="#DejaVuSans-98"/>
      <use x="63.476562" xlink:href="#DejaVuSans-97"/>
      <use x="124.755859" xlink:href="#DejaVuSans-108"/>
      <use x="152.539062" xlink:href="#DejaVuSans-97"/>
      <use x="213.818359" xlink:href="#DejaVuSans-110"/>
      <use x="277.197266" xlink:href="#DejaVuSans-99"/>
      <use x="332.177734" xlink:href="#DejaVuSans-101"/>
      <use x="393.701172" xlink:href="#DejaVuSans-100"/>
     </g>
    </g>
    <g id="line2d_31">
     <path d="M 72 97.730938 
L 92 97.730938 
" style="fill:none;stroke:#d62728;stroke-linecap:square;stroke-width:1.5;"/>
    </g>
    <g id="line2d_32"/>
    <g id="text_24">
     <!-- balanced_errors_penalized -->
     <g transform="translate(100 101.230938)scale(0.1 -0.1)">
      <defs>
       <path d="M 50.984375 -16.609375 
L 50.984375 -23.578125 
L -0.984375 -23.578125 
L -0.984375 -16.609375 
z
" id="DejaVuSans-95"/>
       <path d="M 5.515625 54.6875 
L 48.1875 54.6875 
L 48.1875 46.484375 
L 14.40625 7.171875 
L 48.1875 7.171875 
L 48.1875 0 
L 4.296875 0 
L 4.296875 8.203125 
L 38.09375 47.515625 
L 5.515625 47.515625 
z
" id="DejaVuSans-122"/>
      </defs>
      <use xlink:href="#DejaVuSans-98"/>
      <use x="63.476562" xlink:href="#DejaVuSans-97"/>
      <use x="124.755859" xlink:href="#DejaVuSans-108"/>
      <use x="152.539062" xlink:href="#DejaVuSans-97"/>
      <use x="213.818359" xlink:href="#DejaVuSans-110"/>
      <use x="277.197266" xlink:href="#DejaVuSans-99"/>
      <use x="332.177734" xlink:href="#DejaVuSans-101"/>
      <use x="393.701172" xlink:href="#DejaVuSans-100"/>
      <use x="457.177734" xlink:href="#DejaVuSans-95"/>
      <use x="507.177734" xlink:href="#DejaVuSans-101"/>
      <use x="568.701172" xlink:href="#DejaVuSans-114"/>
      <use x="608.064453" xlink:href="#DejaVuSans-114"/>
      <use x="646.927734" xlink:href="#DejaVuSans-111"/>
      <use x="708.109375" xlink:href="#DejaVuSans-114"/>
      <use x="749.222656" xlink:href="#DejaVuSans-115"/>
      <use x="801.322266" xlink:href="#DejaVuSans-95"/>
      <use x="851.322266" xlink:href="#DejaVuSans-112"/>
      <use x="914.798828" xlink:href="#DejaVuSans-101"/>
      <use x="976.322266" xlink:href="#DejaVuSans-110"/>
      <use x="1039.701172" xlink:href="#DejaVuSans-97"/>
      <use x="1100.980469" xlink:href="#DejaVuSans-108"/>
      <use x="1128.763672" xlink:href="#DejaVuSans-105"/>
      <use x="1156.546875" xlink:href="#DejaVuSans-122"/>
      <use x="1209.037109" xlink:href="#DejaVuSans-101"/>
      <use x="1270.560547" xlink:href="#DejaVuSans-100"/>
     </g>
    </g>
   </g>
  </g>
 </g>
 <defs>
  <clipPath id="pf6de5730bb">
   <rect height="166.32" width="390.6" x="63" y="25.92"/>
  </clipPath>
 </defs>
</svg>
