<?xml version="1.0" encoding="utf-8" standalone="no"?>
<!DOCTYPE svg PUBLIC "-//W3C//DTD SVG 1.1//EN"
  "http://www.w3.org/Graphics/SVG/1.1/DTD/svg11.dtd">
<!-- Created with matplotlib (https://matplotlib.org/) -->
<svg height="216pt" version="1.1" viewBox="0 0 504 216" width="504pt" xmlns="http://www.w3.org/2000/svg" xmlns:xlink="http://www.w3.org/1999/xlink">
 <metadata>
  <rdf:RDF xmlns:cc="http://creativecommons.org/ns#" xmlns:dc="http://purl.org/dc/elements/1.1/" xmlns:rdf="http://www.w3.org/1999/02/22-rdf-syntax-ns#">
   <cc:Work>
    <dc:type rdf:resource="http://purl.org/dc/dcmitype/StillImage"/>
    <dc:date>2021-11-19T12:55:02.376869</dc:date>
    <dc:format>image/svg+xml</dc:format>
    <dc:creator>
     <cc:Agent>
      <dc:title>Matplotlib v3.3.4, https://matplotlib.org/</dc:title>
     </cc:Agent>
    </dc:creator>
   </cc:Work>
  </rdf:RDF>
 </metadata>
 <defs>
  <style type="text/css">*{stroke-linecap:butt;stroke-linejoin:round;}</style>
 </defs>
 <g id="figure_1">
  <g id="patch_1">
   <path d="M 0 216 
L 504 216 
L 504 0 
L 0 0 
z
" style="fill:#ffffff;"/>
  </g>
  <g id="axes_1">
   <g id="patch_2">
    <path d="M 63 192.24 
L 453.6 192.24 
L 453.6 25.92 
L 63 25.92 
z
" style="fill:#ffffff;"/>
   </g>
   <g id="matplotlib.axis_1">
    <g id="xtick_1">
     <g id="line2d_1">
      <defs>
       <path d="M 0 0 
L 0 3.5 
" id="m0a5c4a9fdc" style="stroke:#000000;stroke-width:0.8;"/>
      </defs>
      <g>
       <use style="stroke:#000000;stroke-width:0.8;" x="79.862357" xlink:href="#m0a5c4a9fdc" y="192.24"/>
      </g>
     </g>
     <g id="text_1">
      <!-- 400 -->
      <g transform="translate(70.318607 206.838437)scale(0.1 -0.1)">
       <defs>
        <path d="M 37.796875 64.3125 
L 12.890625 25.390625 
L 37.796875 25.390625 
z
M 35.203125 72.90625 
L 47.609375 72.90625 
L 47.609375 25.390625 
L 58.015625 25.390625 
L 58.015625 17.1875 
L 47.609375 17.1875 
L 47.609375 0 
L 37.796875 0 
L 37.796875 17.1875 
L 4.890625 17.1875 
L 4.890625 26.703125 
z
" id="DejaVuSans-52"/>
        <path d="M 31.78125 66.40625 
Q 24.171875 66.40625 20.328125 58.90625 
Q 16.5 51.421875 16.5 36.375 
Q 16.5 21.390625 20.328125 13.890625 
Q 24.171875 6.390625 31.78125 6.390625 
Q 39.453125 6.390625 43.28125 13.890625 
Q 47.125 21.390625 47.125 36.375 
Q 47.125 51.421875 43.28125 58.90625 
Q 39.453125 66.40625 31.78125 66.40625 
z
M 31.78125 74.21875 
Q 44.046875 74.21875 50.515625 64.515625 
Q 56.984375 54.828125 56.984375 36.375 
Q 56.984375 17.96875 50.515625 8.265625 
Q 44.046875 -1.421875 31.78125 -1.421875 
Q 19.53125 -1.421875 13.0625 8.265625 
Q 6.59375 17.96875 6.59375 36.375 
Q 6.59375 54.828125 13.0625 64.515625 
Q 19.53125 74.21875 31.78125 74.21875 
z
" id="DejaVuSans-48"/>
       </defs>
       <use xlink:href="#DejaVuSans-52"/>
       <use x="63.623047" xlink:href="#DejaVuSans-48"/>
       <use x="127.246094" xlink:href="#DejaVuSans-48"/>
      </g>
     </g>
    </g>
    <g id="xtick_2">
     <g id="line2d_2">
      <g>
       <use style="stroke:#000000;stroke-width:0.8;" x="124.471768" xlink:href="#m0a5c4a9fdc" y="192.24"/>
      </g>
     </g>
     <g id="text_2">
      <!-- 450 -->
      <g transform="translate(114.928018 206.838437)scale(0.1 -0.1)">
       <defs>
        <path d="M 10.796875 72.90625 
L 49.515625 72.90625 
L 49.515625 64.59375 
L 19.828125 64.59375 
L 19.828125 46.734375 
Q 21.96875 47.46875 24.109375 47.828125 
Q 26.265625 48.1875 28.421875 48.1875 
Q 40.625 48.1875 47.75 41.5 
Q 54.890625 34.8125 54.890625 23.390625 
Q 54.890625 11.625 47.5625 5.09375 
Q 40.234375 -1.421875 26.90625 -1.421875 
Q 22.3125 -1.421875 17.546875 -0.640625 
Q 12.796875 0.140625 7.71875 1.703125 
L 7.71875 11.625 
Q 12.109375 9.234375 16.796875 8.0625 
Q 21.484375 6.890625 26.703125 6.890625 
Q 35.15625 6.890625 40.078125 11.328125 
Q 45.015625 15.765625 45.015625 23.390625 
Q 45.015625 31 40.078125 35.4375 
Q 35.15625 39.890625 26.703125 39.890625 
Q 22.75 39.890625 18.8125 39.015625 
Q 14.890625 38.140625 10.796875 36.28125 
z
" id="DejaVuSans-53"/>
       </defs>
       <use xlink:href="#DejaVuSans-52"/>
       <use x="63.623047" xlink:href="#DejaVuSans-53"/>
       <use x="127.246094" xlink:href="#DejaVuSans-48"/>
      </g>
     </g>
    </g>
    <g id="xtick_3">
     <g id="line2d_3">
      <g>
       <use style="stroke:#000000;stroke-width:0.8;" x="169.081179" xlink:href="#m0a5c4a9fdc" y="192.24"/>
      </g>
     </g>
     <g id="text_3">
      <!-- 500 -->
      <g transform="translate(159.537429 206.838437)scale(0.1 -0.1)">
       <use xlink:href="#DejaVuSans-53"/>
       <use x="63.623047" xlink:href="#DejaVuSans-48"/>
       <use x="127.246094" xlink:href="#DejaVuSans-48"/>
      </g>
     </g>
    </g>
    <g id="xtick_4">
     <g id="line2d_4">
      <g>
       <use style="stroke:#000000;stroke-width:0.8;" x="213.690589" xlink:href="#m0a5c4a9fdc" y="192.24"/>
      </g>
     </g>
     <g id="text_4">
      <!-- 550 -->
      <g transform="translate(204.146839 206.838437)scale(0.1 -0.1)">
       <use xlink:href="#DejaVuSans-53"/>
       <use x="63.623047" xlink:href="#DejaVuSans-53"/>
       <use x="127.246094" xlink:href="#DejaVuSans-48"/>
      </g>
     </g>
    </g>
    <g id="xtick_5">
     <g id="line2d_5">
      <g>
       <use style="stroke:#000000;stroke-width:0.8;" x="258.3" xlink:href="#m0a5c4a9fdc" y="192.24"/>
      </g>
     </g>
     <g id="text_5">
      <!-- 600 -->
      <g transform="translate(248.75625 206.838437)scale(0.1 -0.1)">
       <defs>
        <path d="M 33.015625 40.375 
Q 26.375 40.375 22.484375 35.828125 
Q 18.609375 31.296875 18.609375 23.390625 
Q 18.609375 15.53125 22.484375 10.953125 
Q 26.375 6.390625 33.015625 6.390625 
Q 39.65625 6.390625 43.53125 10.953125 
Q 47.40625 15.53125 47.40625 23.390625 
Q 47.40625 31.296875 43.53125 35.828125 
Q 39.65625 40.375 33.015625 40.375 
z
M 52.59375 71.296875 
L 52.59375 62.3125 
Q 48.875 64.0625 45.09375 64.984375 
Q 41.3125 65.921875 37.59375 65.921875 
Q 27.828125 65.921875 22.671875 59.328125 
Q 17.53125 52.734375 16.796875 39.40625 
Q 19.671875 43.65625 24.015625 45.921875 
Q 28.375 48.1875 33.59375 48.1875 
Q 44.578125 48.1875 50.953125 41.515625 
Q 57.328125 34.859375 57.328125 23.390625 
Q 57.328125 12.15625 50.6875 5.359375 
Q 44.046875 -1.421875 33.015625 -1.421875 
Q 20.359375 -1.421875 13.671875 8.265625 
Q 6.984375 17.96875 6.984375 36.375 
Q 6.984375 53.65625 15.1875 63.9375 
Q 23.390625 74.21875 37.203125 74.21875 
Q 40.921875 74.21875 44.703125 73.484375 
Q 48.484375 72.75 52.59375 71.296875 
z
" id="DejaVuSans-54"/>
       </defs>
       <use xlink:href="#DejaVuSans-54"/>
       <use x="63.623047" xlink:href="#DejaVuSans-48"/>
       <use x="127.246094" xlink:href="#DejaVuSans-48"/>
      </g>
     </g>
    </g>
    <g id="xtick_6">
     <g id="line2d_6">
      <g>
       <use style="stroke:#000000;stroke-width:0.8;" x="302.909411" xlink:href="#m0a5c4a9fdc" y="192.24"/>
      </g>
     </g>
     <g id="text_6">
      <!-- 650 -->
      <g transform="translate(293.365661 206.838437)scale(0.1 -0.1)">
       <use xlink:href="#DejaVuSans-54"/>
       <use x="63.623047" xlink:href="#DejaVuSans-53"/>
       <use x="127.246094" xlink:href="#DejaVuSans-48"/>
      </g>
     </g>
    </g>
    <g id="xtick_7">
     <g id="line2d_7">
      <g>
       <use style="stroke:#000000;stroke-width:0.8;" x="347.518821" xlink:href="#m0a5c4a9fdc" y="192.24"/>
      </g>
     </g>
     <g id="text_7">
      <!-- 700 -->
      <g transform="translate(337.975071 206.838437)scale(0.1 -0.1)">
       <defs>
        <path d="M 8.203125 72.90625 
L 55.078125 72.90625 
L 55.078125 68.703125 
L 28.609375 0 
L 18.3125 0 
L 43.21875 64.59375 
L 8.203125 64.59375 
z
" id="DejaVuSans-55"/>
       </defs>
       <use xlink:href="#DejaVuSans-55"/>
       <use x="63.623047" xlink:href="#DejaVuSans-48"/>
       <use x="127.246094" xlink:href="#DejaVuSans-48"/>
      </g>
     </g>
    </g>
    <g id="xtick_8">
     <g id="line2d_8">
      <g>
       <use style="stroke:#000000;stroke-width:0.8;" x="392.128232" xlink:href="#m0a5c4a9fdc" y="192.24"/>
      </g>
     </g>
     <g id="text_8">
      <!-- 750 -->
      <g transform="translate(382.584482 206.838437)scale(0.1 -0.1)">
       <use xlink:href="#DejaVuSans-55"/>
       <use x="63.623047" xlink:href="#DejaVuSans-53"/>
       <use x="127.246094" xlink:href="#DejaVuSans-48"/>
      </g>
     </g>
    </g>
    <g id="xtick_9">
     <g id="line2d_9">
      <g>
       <use style="stroke:#000000;stroke-width:0.8;" x="436.737643" xlink:href="#m0a5c4a9fdc" y="192.24"/>
      </g>
     </g>
     <g id="text_9">
      <!-- 800 -->
      <g transform="translate(427.193893 206.838437)scale(0.1 -0.1)">
       <defs>
        <path d="M 31.78125 34.625 
Q 24.75 34.625 20.71875 30.859375 
Q 16.703125 27.09375 16.703125 20.515625 
Q 16.703125 13.921875 20.71875 10.15625 
Q 24.75 6.390625 31.78125 6.390625 
Q 38.8125 6.390625 42.859375 10.171875 
Q 46.921875 13.96875 46.921875 20.515625 
Q 46.921875 27.09375 42.890625 30.859375 
Q 38.875 34.625 31.78125 34.625 
z
M 21.921875 38.8125 
Q 15.578125 40.375 12.03125 44.71875 
Q 8.5 49.078125 8.5 55.328125 
Q 8.5 64.0625 14.71875 69.140625 
Q 20.953125 74.21875 31.78125 74.21875 
Q 42.671875 74.21875 48.875 69.140625 
Q 55.078125 64.0625 55.078125 55.328125 
Q 55.078125 49.078125 51.53125 44.71875 
Q 48 40.375 41.703125 38.8125 
Q 48.828125 37.15625 52.796875 32.3125 
Q 56.78125 27.484375 56.78125 20.515625 
Q 56.78125 9.90625 50.3125 4.234375 
Q 43.84375 -1.421875 31.78125 -1.421875 
Q 19.734375 -1.421875 13.25 4.234375 
Q 6.78125 9.90625 6.78125 20.515625 
Q 6.78125 27.484375 10.78125 32.3125 
Q 14.796875 37.15625 21.921875 38.8125 
z
M 18.3125 54.390625 
Q 18.3125 48.734375 21.84375 45.5625 
Q 25.390625 42.390625 31.78125 42.390625 
Q 38.140625 42.390625 41.71875 45.5625 
Q 45.3125 48.734375 45.3125 54.390625 
Q 45.3125 60.0625 41.71875 63.234375 
Q 38.140625 66.40625 31.78125 66.40625 
Q 25.390625 66.40625 21.84375 63.234375 
Q 18.3125 60.0625 18.3125 54.390625 
z
" id="DejaVuSans-56"/>
       </defs>
       <use xlink:href="#DejaVuSans-56"/>
       <use x="63.623047" xlink:href="#DejaVuSans-48"/>
       <use x="127.246094" xlink:href="#DejaVuSans-48"/>
      </g>
     </g>
    </g>
    <g id="text_10">
     <!-- time -->
     <g transform="translate(247.003906 220.516562)scale(0.1 -0.1)">
      <defs>
       <path d="M 18.3125 70.21875 
L 18.3125 54.6875 
L 36.8125 54.6875 
L 36.8125 47.703125 
L 18.3125 47.703125 
L 18.3125 18.015625 
Q 18.3125 11.328125 20.140625 9.421875 
Q 21.96875 7.515625 27.59375 7.515625 
L 36.8125 7.515625 
L 36.8125 0 
L 27.59375 0 
Q 17.1875 0 13.234375 3.875 
Q 9.28125 7.765625 9.28125 18.015625 
L 9.28125 47.703125 
L 2.6875 47.703125 
L 2.6875 54.6875 
L 9.28125 54.6875 
L 9.28125 70.21875 
z
" id="DejaVuSans-116"/>
       <path d="M 9.421875 54.6875 
L 18.40625 54.6875 
L 18.40625 0 
L 9.421875 0 
z
M 9.421875 75.984375 
L 18.40625 75.984375 
L 18.40625 64.59375 
L 9.421875 64.59375 
z
" id="DejaVuSans-105"/>
       <path d="M 52 44.1875 
Q 55.375 50.25 60.0625 53.125 
Q 64.75 56 71.09375 56 
Q 79.640625 56 84.28125 50.015625 
Q 88.921875 44.046875 88.921875 33.015625 
L 88.921875 0 
L 79.890625 0 
L 79.890625 32.71875 
Q 79.890625 40.578125 77.09375 44.375 
Q 74.3125 48.1875 68.609375 48.1875 
Q 61.625 48.1875 57.5625 43.546875 
Q 53.515625 38.921875 53.515625 30.90625 
L 53.515625 0 
L 44.484375 0 
L 44.484375 32.71875 
Q 44.484375 40.625 41.703125 44.40625 
Q 38.921875 48.1875 33.109375 48.1875 
Q 26.21875 48.1875 22.15625 43.53125 
Q 18.109375 38.875 18.109375 30.90625 
L 18.109375 0 
L 9.078125 0 
L 9.078125 54.6875 
L 18.109375 54.6875 
L 18.109375 46.1875 
Q 21.1875 51.21875 25.484375 53.609375 
Q 29.78125 56 35.6875 56 
Q 41.65625 56 45.828125 52.96875 
Q 50 49.953125 52 44.1875 
z
" id="DejaVuSans-109"/>
       <path d="M 56.203125 29.59375 
L 56.203125 25.203125 
L 14.890625 25.203125 
Q 15.484375 15.921875 20.484375 11.0625 
Q 25.484375 6.203125 34.421875 6.203125 
Q 39.59375 6.203125 44.453125 7.46875 
Q 49.3125 8.734375 54.109375 11.28125 
L 54.109375 2.78125 
Q 49.265625 0.734375 44.1875 -0.34375 
Q 39.109375 -1.421875 33.890625 -1.421875 
Q 20.796875 -1.421875 13.15625 6.1875 
Q 5.515625 13.8125 5.515625 26.8125 
Q 5.515625 40.234375 12.765625 48.109375 
Q 20.015625 56 32.328125 56 
Q 43.359375 56 49.78125 48.890625 
Q 56.203125 41.796875 56.203125 29.59375 
z
M 47.21875 32.234375 
Q 47.125 39.59375 43.09375 43.984375 
Q 39.0625 48.390625 32.421875 48.390625 
Q 24.90625 48.390625 20.390625 44.140625 
Q 15.875 39.890625 15.1875 32.171875 
z
" id="DejaVuSans-101"/>
      </defs>
      <use xlink:href="#DejaVuSans-116"/>
      <use x="39.208984" xlink:href="#DejaVuSans-105"/>
      <use x="66.992188" xlink:href="#DejaVuSans-109"/>
      <use x="164.404297" xlink:href="#DejaVuSans-101"/>
     </g>
    </g>
   </g>
   <g id="matplotlib.axis_2">
    <g id="ytick_1">
     <g id="line2d_10">
      <defs>
       <path d="M 0 0 
L -3.5 0 
" id="m1f2275153d" style="stroke:#000000;stroke-width:0.8;"/>
      </defs>
      <g>
       <use style="stroke:#000000;stroke-width:0.8;" x="63" xlink:href="#m1f2275153d" y="184.93055"/>
      </g>
     </g>
     <g id="text_11">
      <!-- 0.90 -->
      <g transform="translate(33.734375 188.729769)scale(0.1 -0.1)">
       <defs>
        <path d="M 10.6875 12.40625 
L 21 12.40625 
L 21 0 
L 10.6875 0 
z
" id="DejaVuSans-46"/>
        <path d="M 10.984375 1.515625 
L 10.984375 10.5 
Q 14.703125 8.734375 18.5 7.8125 
Q 22.3125 6.890625 25.984375 6.890625 
Q 35.75 6.890625 40.890625 13.453125 
Q 46.046875 20.015625 46.78125 33.40625 
Q 43.953125 29.203125 39.59375 26.953125 
Q 35.25 24.703125 29.984375 24.703125 
Q 19.046875 24.703125 12.671875 31.3125 
Q 6.296875 37.9375 6.296875 49.421875 
Q 6.296875 60.640625 12.9375 67.421875 
Q 19.578125 74.21875 30.609375 74.21875 
Q 43.265625 74.21875 49.921875 64.515625 
Q 56.59375 54.828125 56.59375 36.375 
Q 56.59375 19.140625 48.40625 8.859375 
Q 40.234375 -1.421875 26.421875 -1.421875 
Q 22.703125 -1.421875 18.890625 -0.6875 
Q 15.09375 0.046875 10.984375 1.515625 
z
M 30.609375 32.421875 
Q 37.25 32.421875 41.125 36.953125 
Q 45.015625 41.5 45.015625 49.421875 
Q 45.015625 57.28125 41.125 61.84375 
Q 37.25 66.40625 30.609375 66.40625 
Q 23.96875 66.40625 20.09375 61.84375 
Q 16.21875 57.28125 16.21875 49.421875 
Q 16.21875 41.5 20.09375 36.953125 
Q 23.96875 32.421875 30.609375 32.421875 
z
" id="DejaVuSans-57"/>
       </defs>
       <use xlink:href="#DejaVuSans-48"/>
       <use x="63.623047" xlink:href="#DejaVuSans-46"/>
       <use x="95.410156" xlink:href="#DejaVuSans-57"/>
       <use x="159.033203" xlink:href="#DejaVuSans-48"/>
      </g>
     </g>
    </g>
    <g id="ytick_2">
     <g id="line2d_11">
      <g>
       <use style="stroke:#000000;stroke-width:0.8;" x="63" xlink:href="#m1f2275153d" y="160.731291"/>
      </g>
     </g>
     <g id="text_12">
      <!-- 0.95 -->
      <g transform="translate(33.734375 164.53051)scale(0.1 -0.1)">
       <use xlink:href="#DejaVuSans-48"/>
       <use x="63.623047" xlink:href="#DejaVuSans-46"/>
       <use x="95.410156" xlink:href="#DejaVuSans-57"/>
       <use x="159.033203" xlink:href="#DejaVuSans-53"/>
      </g>
     </g>
    </g>
    <g id="ytick_3">
     <g id="line2d_12">
      <g>
       <use style="stroke:#000000;stroke-width:0.8;" x="63" xlink:href="#m1f2275153d" y="136.532032"/>
      </g>
     </g>
     <g id="text_13">
      <!-- 1.00 -->
      <g transform="translate(33.734375 140.331251)scale(0.1 -0.1)">
       <defs>
        <path d="M 12.40625 8.296875 
L 28.515625 8.296875 
L 28.515625 63.921875 
L 10.984375 60.40625 
L 10.984375 69.390625 
L 28.421875 72.90625 
L 38.28125 72.90625 
L 38.28125 8.296875 
L 54.390625 8.296875 
L 54.390625 0 
L 12.40625 0 
z
" id="DejaVuSans-49"/>
       </defs>
       <use xlink:href="#DejaVuSans-49"/>
       <use x="63.623047" xlink:href="#DejaVuSans-46"/>
       <use x="95.410156" xlink:href="#DejaVuSans-48"/>
       <use x="159.033203" xlink:href="#DejaVuSans-48"/>
      </g>
     </g>
    </g>
    <g id="ytick_4">
     <g id="line2d_13">
      <g>
       <use style="stroke:#000000;stroke-width:0.8;" x="63" xlink:href="#m1f2275153d" y="112.332774"/>
      </g>
     </g>
     <g id="text_14">
      <!-- 1.05 -->
      <g transform="translate(33.734375 116.131992)scale(0.1 -0.1)">
       <use xlink:href="#DejaVuSans-49"/>
       <use x="63.623047" xlink:href="#DejaVuSans-46"/>
       <use x="95.410156" xlink:href="#DejaVuSans-48"/>
       <use x="159.033203" xlink:href="#DejaVuSans-53"/>
      </g>
     </g>
    </g>
    <g id="ytick_5">
     <g id="line2d_14">
      <g>
       <use style="stroke:#000000;stroke-width:0.8;" x="63" xlink:href="#m1f2275153d" y="88.133515"/>
      </g>
     </g>
     <g id="text_15">
      <!-- 1.10 -->
      <g transform="translate(33.734375 91.932734)scale(0.1 -0.1)">
       <use xlink:href="#DejaVuSans-49"/>
       <use x="63.623047" xlink:href="#DejaVuSans-46"/>
       <use x="95.410156" xlink:href="#DejaVuSans-49"/>
       <use x="159.033203" xlink:href="#DejaVuSans-48"/>
      </g>
     </g>
    </g>
    <g id="ytick_6">
     <g id="line2d_15">
      <g>
       <use style="stroke:#000000;stroke-width:0.8;" x="63" xlink:href="#m1f2275153d" y="63.934256"/>
      </g>
     </g>
     <g id="text_16">
      <!-- 1.15 -->
      <g transform="translate(33.734375 67.733475)scale(0.1 -0.1)">
       <use xlink:href="#DejaVuSans-49"/>
       <use x="63.623047" xlink:href="#DejaVuSans-46"/>
       <use x="95.410156" xlink:href="#DejaVuSans-49"/>
       <use x="159.033203" xlink:href="#DejaVuSans-53"/>
      </g>
     </g>
    </g>
    <g id="ytick_7">
     <g id="line2d_16">
      <g>
       <use style="stroke:#000000;stroke-width:0.8;" x="63" xlink:href="#m1f2275153d" y="39.734997"/>
      </g>
     </g>
     <g id="text_17">
      <!-- 1.20 -->
      <g transform="translate(33.734375 43.534216)scale(0.1 -0.1)">
       <defs>
        <path d="M 19.1875 8.296875 
L 53.609375 8.296875 
L 53.609375 0 
L 7.328125 0 
L 7.328125 8.296875 
Q 12.9375 14.109375 22.625 23.890625 
Q 32.328125 33.6875 34.8125 36.53125 
Q 39.546875 41.84375 41.421875 45.53125 
Q 43.3125 49.21875 43.3125 52.78125 
Q 43.3125 58.59375 39.234375 62.25 
Q 35.15625 65.921875 28.609375 65.921875 
Q 23.96875 65.921875 18.8125 64.3125 
Q 13.671875 62.703125 7.8125 59.421875 
L 7.8125 69.390625 
Q 13.765625 71.78125 18.9375 73 
Q 24.125 74.21875 28.421875 74.21875 
Q 39.75 74.21875 46.484375 68.546875 
Q 53.21875 62.890625 53.21875 53.421875 
Q 53.21875 48.921875 51.53125 44.890625 
Q 49.859375 40.875 45.40625 35.40625 
Q 44.1875 33.984375 37.640625 27.21875 
Q 31.109375 20.453125 19.1875 8.296875 
z
" id="DejaVuSans-50"/>
       </defs>
       <use xlink:href="#DejaVuSans-49"/>
       <use x="63.623047" xlink:href="#DejaVuSans-46"/>
       <use x="95.410156" xlink:href="#DejaVuSans-50"/>
       <use x="159.033203" xlink:href="#DejaVuSans-48"/>
      </g>
     </g>
    </g>
    <g id="text_18">
     <!-- coef2 -->
     <g transform="translate(27.654688 122.906562)rotate(-90)scale(0.1 -0.1)">
      <defs>
       <path d="M 48.78125 52.59375 
L 48.78125 44.1875 
Q 44.96875 46.296875 41.140625 47.34375 
Q 37.3125 48.390625 33.40625 48.390625 
Q 24.65625 48.390625 19.8125 42.84375 
Q 14.984375 37.3125 14.984375 27.296875 
Q 14.984375 17.28125 19.8125 11.734375 
Q 24.65625 6.203125 33.40625 6.203125 
Q 37.3125 6.203125 41.140625 7.25 
Q 44.96875 8.296875 48.78125 10.40625 
L 48.78125 2.09375 
Q 45.015625 0.34375 40.984375 -0.53125 
Q 36.96875 -1.421875 32.421875 -1.421875 
Q 20.0625 -1.421875 12.78125 6.34375 
Q 5.515625 14.109375 5.515625 27.296875 
Q 5.515625 40.671875 12.859375 48.328125 
Q 20.21875 56 33.015625 56 
Q 37.15625 56 41.109375 55.140625 
Q 45.0625 54.296875 48.78125 52.59375 
z
" id="DejaVuSans-99"/>
       <path d="M 30.609375 48.390625 
Q 23.390625 48.390625 19.1875 42.75 
Q 14.984375 37.109375 14.984375 27.296875 
Q 14.984375 17.484375 19.15625 11.84375 
Q 23.34375 6.203125 30.609375 6.203125 
Q 37.796875 6.203125 41.984375 11.859375 
Q 46.1875 17.53125 46.1875 27.296875 
Q 46.1875 37.015625 41.984375 42.703125 
Q 37.796875 48.390625 30.609375 48.390625 
z
M 30.609375 56 
Q 42.328125 56 49.015625 48.375 
Q 55.71875 40.765625 55.71875 27.296875 
Q 55.71875 13.875 49.015625 6.21875 
Q 42.328125 -1.421875 30.609375 -1.421875 
Q 18.84375 -1.421875 12.171875 6.21875 
Q 5.515625 13.875 5.515625 27.296875 
Q 5.515625 40.765625 12.171875 48.375 
Q 18.84375 56 30.609375 56 
z
" id="DejaVuSans-111"/>
       <path d="M 37.109375 75.984375 
L 37.109375 68.5 
L 28.515625 68.5 
Q 23.6875 68.5 21.796875 66.546875 
Q 19.921875 64.59375 19.921875 59.515625 
L 19.921875 54.6875 
L 34.71875 54.6875 
L 34.71875 47.703125 
L 19.921875 47.703125 
L 19.921875 0 
L 10.890625 0 
L 10.890625 47.703125 
L 2.296875 47.703125 
L 2.296875 54.6875 
L 10.890625 54.6875 
L 10.890625 58.5 
Q 10.890625 67.625 15.140625 71.796875 
Q 19.390625 75.984375 28.609375 75.984375 
z
" id="DejaVuSans-102"/>
      </defs>
      <use xlink:href="#DejaVuSans-99"/>
      <use x="54.980469" xlink:href="#DejaVuSans-111"/>
      <use x="116.162109" xlink:href="#DejaVuSans-101"/>
      <use x="177.685547" xlink:href="#DejaVuSans-102"/>
      <use x="212.890625" xlink:href="#DejaVuSans-50"/>
     </g>
    </g>
   </g>
   <g id="line2d_17">
    <path clip-path="url(#p1c112b3275)" d="M 80.754545 179.779902 
L 81.646734 179.298797 
L 84.323298 179.527148 
L 85.215487 180.317738 
L 86.107675 180.869799 
L 86.999863 180.274698 
L 87.892051 180.226046 
L 88.784239 179.83422 
L 89.676428 179.964748 
L 90.568616 180.371033 
L 91.460804 180.641082 
L 92.352992 181.577799 
L 93.24518 180.267982 
L 94.137369 179.999073 
L 95.029557 180.40273 
L 95.921745 179.879713 
L 96.813933 180.236002 
L 97.706122 179.945367 
L 98.59831 180.39551 
L 99.490498 179.218382 
L 100.382686 178.92423 
L 101.274874 178.050431 
L 102.167063 177.930991 
L 103.059251 177.182729 
L 103.951439 177.578839 
L 104.843627 177.514053 
L 105.735815 176.485688 
L 106.628004 176.045712 
L 107.520192 176.208647 
L 108.41238 176.638356 
L 109.304568 176.097869 
L 110.196757 174.858444 
L 111.088945 174.24691 
L 111.981133 172.656051 
L 112.873321 172.403489 
L 113.765509 173.166926 
L 114.657698 172.474877 
L 116.442074 172.407201 
L 117.334262 171.789157 
L 118.22645 170.395977 
L 120.010827 168.78641 
L 120.903015 169.337345 
L 121.795203 168.768465 
L 122.687392 168.006149 
L 123.57958 168.120939 
L 124.471768 166.037441 
L 125.363956 166.313293 
L 126.256144 165.828213 
L 127.148333 164.925404 
L 128.040521 164.439984 
L 129.824897 164.720628 
L 130.717085 162.929148 
L 131.609274 162.515481 
L 132.501462 162.428514 
L 133.39365 163.270499 
L 134.285838 162.256977 
L 136.070215 162.170565 
L 136.962403 160.817292 
L 137.854591 160.207724 
L 138.746779 159.392969 
L 139.638968 159.184917 
L 140.531156 159.322604 
L 141.423344 159.277551 
L 142.315532 158.56442 
L 143.20772 156.436658 
L 144.099909 156.163853 
L 145.884285 155.857787 
L 146.776473 155.631065 
L 147.668661 155.234072 
L 148.56085 155.01399 
L 150.345226 154.292433 
L 152.129603 152.724591 
L 153.021791 152.835115 
L 153.913979 152.601874 
L 154.806167 152.131139 
L 155.698355 151.008335 
L 156.590544 150.590352 
L 157.482732 149.837642 
L 158.37492 149.767558 
L 161.051485 149.125936 
L 161.943673 148.329358 
L 162.835861 147.300001 
L 163.728049 146.960284 
L 164.620238 146.005374 
L 165.512426 145.4347 
L 166.404614 145.16364 
L 167.296802 144.554364 
L 168.18899 143.699861 
L 169.081179 143.290268 
L 169.973367 143.190602 
L 170.865555 143.283745 
L 171.757743 142.393831 
L 172.649931 142.295384 
L 173.54212 141.748074 
L 174.434308 140.883473 
L 175.326496 139.620014 
L 176.218684 139.51433 
L 177.110873 139.206721 
L 178.895249 137.552063 
L 179.787437 137.255743 
L 180.679625 136.647746 
L 182.464002 136.602732 
L 183.35619 136.942548 
L 184.248378 136.511937 
L 186.924943 135.826674 
L 187.817131 134.898878 
L 188.709319 134.808207 
L 189.601508 133.989422 
L 190.493696 134.886811 
L 191.385884 134.195418 
L 192.278072 133.72928 
L 193.17026 133.417786 
L 194.062449 132.62258 
L 194.954637 132.510143 
L 197.631201 131.55137 
L 198.52339 130.672551 
L 199.415578 130.882985 
L 201.199954 130.708107 
L 202.092143 130.491999 
L 202.984331 130.70085 
L 204.768707 130.299104 
L 205.660895 130.087612 
L 206.553084 129.651615 
L 207.445272 128.496575 
L 208.33746 128.116474 
L 209.229648 127.521567 
L 210.121836 127.293701 
L 211.014025 126.870434 
L 212.798401 125.306165 
L 213.690589 124.805189 
L 214.582778 124.917118 
L 215.474966 124.616482 
L 217.259342 124.40105 
L 219.043719 123.563385 
L 219.935907 122.785541 
L 221.720283 122.236937 
L 225.289036 119.494626 
L 227.073413 119.861169 
L 227.965601 118.930954 
L 228.857789 118.29988 
L 229.749977 117.996642 
L 231.534354 117.714743 
L 232.426542 117.281611 
L 233.31873 117.292557 
L 234.210918 116.990317 
L 236.887483 116.817324 
L 237.779671 116.334856 
L 238.671859 115.696572 
L 239.564048 115.871684 
L 240.456236 115.834561 
L 241.348424 114.978175 
L 242.240612 114.445484 
L 243.1328 114.554756 
L 244.024989 113.886448 
L 244.917177 113.876283 
L 245.809365 113.49507 
L 246.701553 112.906192 
L 250.270306 111.439877 
L 251.162494 110.537465 
L 252.946871 109.551948 
L 253.839059 109.39605 
L 254.731247 109.015918 
L 256.515624 107.574009 
L 257.407812 106.812157 
L 258.3 106.676456 
L 259.192188 106.667965 
L 260.084376 106.2537 
L 260.976565 106.626266 
L 261.868753 106.414006 
L 262.760941 107.219963 
L 264.545317 106.290214 
L 265.437506 105.50921 
L 266.329694 105.207013 
L 268.11407 104.369244 
L 269.898447 104.210108 
L 270.790635 103.609755 
L 272.575011 102.790204 
L 273.4672 102.912394 
L 274.359388 102.738922 
L 275.251576 102.161506 
L 276.143764 102.070434 
L 277.035952 101.724069 
L 277.928141 101.652573 
L 278.820329 101.135374 
L 279.712517 100.449295 
L 280.604705 100.422831 
L 281.496894 99.504969 
L 282.389082 99.414088 
L 284.173458 98.424954 
L 285.065646 98.592562 
L 285.957835 98.215775 
L 286.850023 97.640624 
L 287.742211 97.440823 
L 288.634399 96.607613 
L 290.418776 96.76747 
L 291.310964 96.503327 
L 292.203152 95.962892 
L 293.09534 95.159377 
L 293.987529 95.103649 
L 294.879717 94.753654 
L 295.771905 94.23432 
L 296.664093 94.617418 
L 297.556281 94.160884 
L 299.340658 92.880495 
L 300.232846 92.822749 
L 303.801599 91.83528 
L 306.478164 90.613152 
L 308.26254 91.313566 
L 309.154728 90.400941 
L 310.046916 90.018425 
L 310.939105 89.779552 
L 311.831293 89.931239 
L 312.723481 89.364002 
L 315.400046 88.628283 
L 316.292234 89.152941 
L 318.07661 88.130906 
L 318.968799 87.281637 
L 319.860987 87.164116 
L 320.753175 86.832194 
L 321.645363 86.8099 
L 322.537551 86.541525 
L 323.42974 86.665615 
L 324.321928 86.610783 
L 325.214116 86.025084 
L 326.998492 85.499014 
L 327.890681 84.803145 
L 328.782869 84.545081 
L 330.567245 83.412616 
L 331.459434 83.075436 
L 332.351622 82.515515 
L 333.24381 82.529763 
L 334.135998 82.336717 
L 338.596939 80.350233 
L 339.489127 80.199163 
L 340.381316 80.192405 
L 341.273504 79.732097 
L 342.165692 79.811072 
L 343.05788 79.572891 
L 343.950069 79.59492 
L 345.734445 79.214636 
L 346.626633 78.729866 
L 348.41101 78.29092 
L 349.303198 77.673859 
L 351.979762 76.907277 
L 352.871951 77.053395 
L 353.764139 76.987571 
L 354.656327 76.773359 
L 355.548515 76.277908 
L 356.440704 75.968288 
L 357.332892 75.923154 
L 358.22508 75.551433 
L 359.117268 75.390065 
L 361.793833 74.510356 
L 362.686021 73.985839 
L 363.578209 73.65158 
L 365.362586 73.770896 
L 370.715715 72.324461 
L 371.607903 72.276578 
L 372.500091 72.374651 
L 373.39228 71.741224 
L 375.176656 71.105678 
L 376.068844 70.926508 
L 376.961032 71.0105 
L 377.853221 70.473097 
L 378.745409 70.413538 
L 379.637597 70.176218 
L 380.529785 69.637983 
L 381.421974 69.234646 
L 382.314162 68.701626 
L 383.20635 68.356388 
L 384.098538 68.527979 
L 384.990726 68.262639 
L 386.775103 67.530318 
L 387.667291 67.64058 
L 389.451667 66.755733 
L 390.343856 66.424025 
L 393.02042 66.091048 
L 393.912608 66.247255 
L 395.696985 65.277388 
L 396.589173 65.124721 
L 397.481361 65.285395 
L 398.37355 64.891399 
L 399.265738 65.084429 
L 400.157926 64.990663 
L 401.050114 64.781305 
L 401.942302 64.293813 
L 402.834491 64.095712 
L 403.726679 63.776106 
L 404.618867 63.587627 
L 405.511055 63.523516 
L 406.403243 63.302132 
L 407.295432 63.242408 
L 409.971996 62.061727 
L 410.864185 62.21705 
L 412.648561 62.205774 
L 413.540749 62.543664 
L 414.432937 62.575265 
L 415.325126 62.221974 
L 417.109502 62.290165 
L 418.893878 61.441371 
L 419.786067 61.379535 
L 420.678255 60.934589 
L 421.570443 60.96615 
L 423.35482 60.221736 
L 424.247008 60.02131 
L 426.031384 59.495489 
L 426.923572 59.623379 
L 427.815761 59.169565 
L 429.600137 58.631955 
L 430.492325 58.58833 
L 431.384513 58.144487 
L 434.953266 57.094554 
L 435.845455 56.778781 
L 435.845455 56.778781 
" style="fill:none;stroke:#1f77b4;stroke-linecap:square;stroke-width:1.5;"/>
   </g>
   <g id="line2d_18">
    <path clip-path="url(#p1c112b3275)" d="M 80.754545 178.945057 
L 81.646734 179.380673 
L 82.538922 178.828144 
L 84.323298 178.708307 
L 85.215487 178.080024 
L 86.107675 178.640926 
L 86.999863 178.543739 
L 87.892051 179.078846 
L 88.784239 179.145503 
L 89.676428 179.862169 
L 92.352992 180.812999 
L 93.24518 180.044585 
L 94.137369 180.055671 
L 95.029557 179.399086 
L 95.921745 179.725292 
L 96.813933 180.469272 
L 97.706122 180.42164 
L 98.59831 180.251991 
L 100.382686 181.861777 
L 101.274874 181.39902 
L 102.167063 181.588684 
L 103.059251 181.134698 
L 103.951439 181.324278 
L 104.843627 180.874183 
L 105.735815 181.183932 
L 106.628004 181.248091 
L 107.520192 180.579666 
L 108.41238 180.178985 
L 109.304568 179.317425 
L 111.088945 180.254581 
L 111.981133 179.455498 
L 112.873321 179.609753 
L 114.657698 178.739574 
L 115.549886 178.680513 
L 116.442074 179.208866 
L 117.334262 179.28517 
L 118.22645 178.83611 
L 120.010827 178.643666 
L 120.903015 178.883552 
L 122.687392 178.915173 
L 123.57958 179.120097 
L 125.363956 178.389421 
L 126.256144 177.778309 
L 127.148333 178.349151 
L 128.040521 178.347178 
L 129.824897 177.497657 
L 130.717085 177.013376 
L 132.501462 176.458188 
L 133.39365 176.68044 
L 135.178026 176.193891 
L 136.070215 176.63346 
L 136.962403 176.324912 
L 137.854591 176.441187 
L 138.746779 176.274036 
L 139.638968 176.466635 
L 140.531156 176.174296 
L 141.423344 176.474605 
L 142.315532 176.091642 
L 143.20772 176.380938 
L 144.099909 176.369232 
L 144.992097 177.312075 
L 145.884285 177.073065 
L 146.776473 177.056709 
L 147.668661 177.629034 
L 148.56085 177.687771 
L 149.453038 177.166779 
L 150.345226 176.790148 
L 154.806167 175.873164 
L 156.590544 174.299317 
L 157.482732 174.052394 
L 158.37492 174.017154 
L 159.267108 173.675251 
L 161.051485 174.258897 
L 161.943673 173.826681 
L 162.835861 173.710539 
L 166.404614 172.42137 
L 168.18899 171.88269 
L 169.973367 170.958468 
L 170.865555 170.318299 
L 171.757743 170.018593 
L 172.649931 170.052941 
L 173.54212 169.897738 
L 174.434308 169.567347 
L 175.326496 168.685032 
L 176.218684 168.476477 
L 177.110873 167.691934 
L 178.003061 167.291714 
L 179.787437 166.805524 
L 183.35619 167.007097 
L 184.248378 167.334631 
L 185.140566 166.874624 
L 186.032755 166.834459 
L 186.924943 166.907775 
L 187.817131 166.645018 
L 188.709319 166.516141 
L 189.601508 166.071517 
L 190.493696 165.355701 
L 191.385884 164.92332 
L 192.278072 165.548645 
L 194.062449 165.725082 
L 194.954637 165.763092 
L 195.846825 165.382441 
L 196.739013 165.432883 
L 197.631201 165.783647 
L 198.52339 165.818608 
L 199.415578 165.337604 
L 200.307766 165.040568 
L 201.199954 164.592062 
L 202.092143 163.514857 
L 202.984331 163.357832 
L 203.876519 163.817307 
L 204.768707 163.290714 
L 205.660895 162.972533 
L 206.553084 162.913005 
L 207.445272 162.649212 
L 208.33746 162.822857 
L 209.229648 161.979084 
L 210.121836 162.226499 
L 211.014025 161.934202 
L 212.798401 162.713218 
L 213.690589 162.60073 
L 214.582778 162.775272 
L 215.474966 162.22869 
L 216.367154 162.022171 
L 217.259342 162.694289 
L 218.15153 162.355601 
L 219.043719 161.79733 
L 220.828095 161.580235 
L 223.50466 162.122221 
L 224.396848 162.16686 
L 225.289036 162.337865 
L 226.181224 162.244351 
L 227.073413 161.995103 
L 227.965601 161.550247 
L 228.857789 161.377478 
L 229.749977 160.916689 
L 231.534354 161.827933 
L 232.426542 161.711012 
L 233.31873 161.37056 
L 235.103106 162.147531 
L 235.995295 161.219198 
L 236.887483 161.515713 
L 237.779671 161.069099 
L 238.671859 160.865572 
L 240.456236 159.929967 
L 241.348424 160.126211 
L 244.024989 159.351519 
L 244.917177 159.302682 
L 245.809365 158.710462 
L 246.701553 158.660181 
L 247.593741 158.73902 
L 248.48593 158.373956 
L 249.378118 158.37495 
L 251.162494 157.723036 
L 252.054683 157.522359 
L 252.946871 157.780016 
L 253.839059 157.365366 
L 254.731247 157.197993 
L 255.623435 157.151169 
L 256.515624 156.777153 
L 257.407812 156.62873 
L 258.3 156.209995 
L 259.192188 156.226354 
L 260.084376 156.659199 
L 260.976565 157.250351 
L 261.868753 157.5264 
L 262.760941 157.411166 
L 263.653129 156.864835 
L 264.545317 157.397389 
L 265.437506 157.3385 
L 266.329694 156.516853 
L 268.11407 156.353651 
L 269.006259 156.293765 
L 269.898447 155.982355 
L 270.790635 155.224022 
L 271.682823 154.871315 
L 272.575011 154.652055 
L 274.359388 154.474281 
L 275.251576 153.582936 
L 277.035952 152.828544 
L 278.820329 152.485624 
L 279.712517 153.306226 
L 280.604705 153.409593 
L 282.389082 151.968724 
L 285.957835 150.895094 
L 286.850023 150.977188 
L 287.742211 151.212956 
L 288.634399 151.323359 
L 289.526587 150.467256 
L 290.418776 150.32785 
L 292.203152 151.150206 
L 293.09534 151.197498 
L 293.987529 150.856191 
L 294.879717 150.715996 
L 295.771905 150.728498 
L 297.556281 150.986039 
L 298.44847 151.161246 
L 300.232846 151.148719 
L 301.125034 150.916233 
L 302.909411 151.344476 
L 304.693787 151.214028 
L 305.585975 151.151988 
L 308.26254 150.469058 
L 309.154728 149.888533 
L 310.046916 149.697178 
L 310.939105 149.862248 
L 311.831293 149.50312 
L 312.723481 149.348899 
L 313.615669 149.333516 
L 315.400046 148.513637 
L 316.292234 149.050055 
L 317.184422 148.891829 
L 318.07661 148.846885 
L 318.968799 149.148079 
L 319.860987 149.327751 
L 320.753175 149.099746 
L 321.645363 148.564689 
L 322.537551 148.671124 
L 323.42974 148.653575 
L 324.321928 149.126322 
L 325.214116 148.713703 
L 326.106304 149.126859 
L 326.998492 148.768045 
L 327.890681 148.786251 
L 328.782869 148.467715 
L 329.675057 148.565442 
L 330.567245 148.775477 
L 332.351622 148.03641 
L 333.24381 147.966144 
L 334.135998 147.41795 
L 335.028186 147.175815 
L 335.920375 147.716248 
L 336.812563 147.486272 
L 337.704751 147.645245 
L 338.596939 147.455367 
L 341.273504 148.245966 
L 344.842257 147.809385 
L 345.734445 147.308606 
L 347.518821 146.983908 
L 350.195386 147.912616 
L 351.979762 148.280811 
L 353.764139 147.658876 
L 355.548515 147.366297 
L 357.332892 147.396754 
L 358.22508 147.066029 
L 359.117268 147.019889 
L 360.009456 146.727422 
L 363.578209 146.150169 
L 364.470397 145.812118 
L 366.254774 145.447219 
L 368.03915 145.417024 
L 368.931339 145.547699 
L 372.500091 145.212255 
L 374.284468 144.694336 
L 375.176656 145.191748 
L 376.068844 144.807172 
L 376.961032 144.631415 
L 377.853221 144.612225 
L 378.745409 144.2801 
L 379.637597 144.370384 
L 380.529785 144.187173 
L 382.314162 144.210121 
L 383.20635 143.796686 
L 384.990726 144.364804 
L 387.667291 144.455246 
L 388.559479 144.199768 
L 389.451667 144.274351 
L 390.343856 144.005925 
L 391.236044 144.436713 
L 392.128232 144.155592 
L 393.912608 144.152225 
L 394.804797 143.958596 
L 395.696985 144.041919 
L 397.481361 143.356828 
L 401.942302 142.831128 
L 402.834491 143.172965 
L 404.618867 143.153866 
L 405.511055 142.685302 
L 407.295432 142.930539 
L 408.18762 142.879451 
L 409.079808 142.991922 
L 409.971996 143.364972 
L 410.864185 143.295508 
L 411.756373 143.039092 
L 412.648561 143.53215 
L 413.540749 143.558142 
L 414.432937 143.200887 
L 415.325126 143.276864 
L 417.109502 143.077984 
L 418.893878 143.245318 
L 419.786067 142.915722 
L 420.678255 143.177558 
L 421.570443 143.227483 
L 422.462631 143.498395 
L 424.247008 143.065377 
L 425.139196 142.6964 
L 426.031384 143.001851 
L 426.923572 142.729696 
L 427.815761 143.022099 
L 428.707949 142.759483 
L 429.600137 143.128903 
L 430.492325 142.690878 
L 431.384513 142.653184 
L 432.276702 142.737427 
L 435.845455 142.302557 
L 435.845455 142.302557 
" style="fill:none;stroke:#ff7f0e;stroke-linecap:square;stroke-width:1.5;"/>
   </g>
   <g id="line2d_19">
    <path clip-path="url(#p1c112b3275)" d="M 80.754545 181.554922 
L 81.646734 180.902508 
L 82.538922 181.525222 
L 83.43111 180.778634 
L 84.323298 180.517505 
L 85.215487 181.66445 
L 86.107675 182.352884 
L 88.784239 182.782184 
L 89.676428 182.997024 
L 91.460804 183.223533 
L 92.352992 183.936732 
L 93.24518 182.866534 
L 94.137369 182.670591 
L 95.029557 183.65495 
L 95.921745 183.982502 
L 96.813933 184.132742 
L 97.706122 184.68 
L 98.59831 184.033703 
L 99.490498 182.230935 
L 100.382686 180.906585 
L 101.274874 180.422357 
L 102.167063 180.091767 
L 103.059251 180.813622 
L 103.951439 180.564792 
L 104.843627 181.695365 
L 105.735815 180.333333 
L 107.520192 180.996792 
L 108.41238 180.956623 
L 109.304568 181.675147 
L 110.196757 181.506701 
L 111.088945 181.867586 
L 111.981133 181.441386 
L 112.873321 180.348496 
L 113.765509 180.640115 
L 115.549886 179.232519 
L 116.442074 178.685679 
L 117.334262 178.722896 
L 118.22645 178.282562 
L 119.118639 178.50892 
L 120.010827 177.628311 
L 120.903015 177.320593 
L 121.795203 177.386866 
L 122.687392 177.05173 
L 123.57958 176.862868 
L 124.471768 175.334327 
L 125.363956 174.670603 
L 126.256144 173.692531 
L 127.148333 173.53167 
L 128.040521 172.995181 
L 128.932709 172.931333 
L 129.824897 173.674587 
L 130.717085 172.509486 
L 131.609274 172.110491 
L 132.501462 171.402434 
L 133.39365 170.477662 
L 135.178026 169.06969 
L 136.070215 168.964142 
L 137.854591 167.221629 
L 138.746779 166.755006 
L 139.638968 166.155353 
L 140.531156 165.846169 
L 141.423344 165.943727 
L 142.315532 166.478083 
L 143.20772 165.426064 
L 144.099909 164.558037 
L 144.992097 164.315013 
L 145.884285 163.620873 
L 146.776473 162.203872 
L 147.668661 162.775849 
L 148.56085 162.32692 
L 150.345226 159.38238 
L 151.237414 158.703637 
L 152.129603 158.203713 
L 153.021791 157.874513 
L 153.913979 156.888494 
L 154.806167 156.680676 
L 155.698355 155.435797 
L 156.590544 154.402716 
L 157.482732 154.547597 
L 158.37492 154.563741 
L 159.267108 154.968541 
L 160.159296 154.118159 
L 161.051485 153.833969 
L 161.943673 152.401265 
L 162.835861 151.575669 
L 163.728049 151.15934 
L 164.620238 150.555513 
L 165.512426 150.46257 
L 166.404614 150.127059 
L 167.296802 150.243782 
L 168.18899 149.727743 
L 169.081179 149.795977 
L 169.973367 148.903402 
L 172.649931 147.610815 
L 173.54212 147.072908 
L 175.326496 145.372007 
L 176.218684 145.809295 
L 177.110873 144.786983 
L 178.895249 143.614562 
L 179.787437 143.318735 
L 181.571814 141.57771 
L 183.35619 140.37496 
L 184.248378 139.559609 
L 185.140566 138.989624 
L 186.924943 138.979368 
L 187.817131 138.609754 
L 188.709319 138.393754 
L 189.601508 137.637711 
L 190.493696 137.44897 
L 191.385884 137.688105 
L 192.278072 136.882632 
L 193.17026 136.608238 
L 195.846825 134.944944 
L 196.739013 134.895403 
L 197.631201 134.28923 
L 198.52339 134.489817 
L 199.415578 134.147359 
L 200.307766 133.524529 
L 201.199954 133.274192 
L 202.092143 132.362947 
L 202.984331 132.563918 
L 203.876519 131.902476 
L 204.768707 131.94824 
L 207.445272 131.560375 
L 208.33746 131.381987 
L 209.229648 131.844494 
L 210.121836 131.88427 
L 211.014025 131.380043 
L 211.906213 130.607813 
L 212.798401 130.340878 
L 213.690589 129.398784 
L 214.582778 128.8554 
L 215.474966 128.592977 
L 217.259342 128.460246 
L 218.15153 127.773142 
L 219.043719 127.298385 
L 219.935907 127.00773 
L 221.720283 126.258311 
L 222.612471 126.105067 
L 225.289036 124.957799 
L 226.181224 124.715543 
L 227.073413 124.032161 
L 227.965601 124.060831 
L 228.857789 123.271756 
L 229.749977 122.979705 
L 230.642165 122.889392 
L 231.534354 122.37152 
L 232.426542 121.661376 
L 233.31873 121.175144 
L 234.210918 121.038118 
L 235.103106 120.311809 
L 236.887483 119.09295 
L 237.779671 119.122473 
L 239.564048 117.25655 
L 240.456236 117.089261 
L 242.240612 115.791843 
L 244.024989 115.102683 
L 244.917177 114.745132 
L 245.809365 114.196852 
L 246.701553 114.130979 
L 247.593741 113.614099 
L 248.48593 113.903191 
L 249.378118 113.245808 
L 250.270306 113.231516 
L 252.054683 111.710095 
L 252.946871 111.744601 
L 253.839059 112.125154 
L 254.731247 111.596609 
L 255.623435 111.533242 
L 256.515624 110.628109 
L 257.407812 110.363557 
L 258.3 110.486292 
L 260.084376 109.493537 
L 260.976565 109.121079 
L 261.868753 109.351667 
L 262.760941 109.143938 
L 263.653129 108.736651 
L 265.437506 107.546388 
L 266.329694 107.518428 
L 267.221882 107.06736 
L 268.11407 107.239422 
L 269.898447 106.139902 
L 270.790635 105.257872 
L 271.682823 105.067496 
L 272.575011 105.011995 
L 273.4672 104.305854 
L 274.359388 103.998414 
L 275.251576 104.086975 
L 276.143764 104.493493 
L 277.035952 104.466486 
L 277.928141 104.552271 
L 278.820329 104.480289 
L 279.712517 103.64859 
L 280.604705 103.143232 
L 283.28127 101.257525 
L 284.173458 101.179913 
L 285.065646 100.595573 
L 285.957835 100.217264 
L 286.850023 100.134143 
L 287.742211 99.82986 
L 288.634399 99.809649 
L 289.526587 99.419996 
L 290.418776 99.197368 
L 293.09534 97.865235 
L 293.987529 98.222927 
L 294.879717 98.089165 
L 295.771905 97.268346 
L 297.556281 96.619256 
L 298.44847 96.572369 
L 299.340658 96.84049 
L 300.232846 96.246504 
L 301.125034 96.277549 
L 302.909411 95.463499 
L 304.693787 94.947171 
L 305.585975 94.10618 
L 306.478164 93.83372 
L 307.370352 93.739112 
L 308.26254 93.350123 
L 310.939105 92.740936 
L 311.831293 92.806507 
L 312.723481 92.629784 
L 313.615669 92.780427 
L 314.507857 92.462822 
L 316.292234 92.346651 
L 317.184422 92.143986 
L 318.07661 92.192658 
L 319.860987 91.39609 
L 321.645363 90.155498 
L 322.537551 89.590326 
L 323.42974 89.591137 
L 325.214116 89.256884 
L 326.106304 89.242025 
L 326.998492 89.087271 
L 327.890681 88.737008 
L 328.782869 88.110216 
L 329.675057 87.92097 
L 330.567245 87.936708 
L 331.459434 87.345531 
L 332.351622 87.351454 
L 333.24381 87.170004 
L 334.135998 86.814004 
L 335.028186 86.227534 
L 335.920375 85.953717 
L 336.812563 85.8708 
L 337.704751 85.665464 
L 339.489127 84.743407 
L 341.273504 84.428878 
L 342.165692 84.406704 
L 343.05788 83.909482 
L 344.842257 83.241632 
L 345.734445 83.265056 
L 346.626633 82.452553 
L 348.41101 81.646431 
L 349.303198 81.83422 
L 350.195386 81.464814 
L 351.087574 81.241978 
L 352.871951 81.139978 
L 354.656327 79.736848 
L 355.548515 79.444547 
L 357.332892 78.502407 
L 358.22508 78.496588 
L 359.117268 78.671346 
L 360.901645 78.152122 
L 361.793833 78.035305 
L 363.578209 77.031639 
L 365.362586 77.025352 
L 366.254774 76.337907 
L 367.146962 76.292884 
L 368.03915 76.13423 
L 369.823527 75.438309 
L 370.715715 74.916436 
L 371.607903 74.631681 
L 372.500091 74.848296 
L 373.39228 74.333396 
L 374.284468 73.964768 
L 375.176656 74.172921 
L 376.961032 73.638336 
L 377.853221 73.523491 
L 378.745409 73.076895 
L 379.637597 72.872038 
L 380.529785 72.843633 
L 381.421974 72.682376 
L 383.20635 71.856659 
L 384.098538 71.970565 
L 384.990726 71.747593 
L 385.882915 72.017759 
L 387.667291 71.644055 
L 389.451667 71.059377 
L 390.343856 70.978443 
L 391.236044 70.701934 
L 392.128232 70.825726 
L 393.912608 70.208186 
L 394.804797 69.756 
L 395.696985 69.443939 
L 397.481361 69.459992 
L 399.265738 69.256791 
L 400.157926 69.183697 
L 401.050114 68.856282 
L 402.834491 68.734053 
L 403.726679 68.372939 
L 404.618867 67.858968 
L 405.511055 67.666962 
L 406.403243 67.782598 
L 407.295432 67.75495 
L 408.18762 67.484194 
L 410.864185 67.562691 
L 411.756373 67.305661 
L 412.648561 67.220729 
L 413.540749 66.886755 
L 415.325126 66.620674 
L 416.217314 66.183974 
L 418.00169 66.93937 
L 418.893878 66.799433 
L 420.678255 65.82209 
L 422.462631 65.357664 
L 423.35482 65.577724 
L 424.247008 65.493708 
L 425.139196 65.065002 
L 426.031384 64.955209 
L 426.923572 64.607095 
L 429.600137 64.333971 
L 430.492325 63.949957 
L 431.384513 64.076442 
L 433.16889 63.707035 
L 434.061078 63.098228 
L 434.953266 63.235261 
L 435.845455 62.982585 
L 435.845455 62.982585 
" style="fill:none;stroke:#2ca02c;stroke-linecap:square;stroke-width:1.5;"/>
   </g>
   <g id="line2d_20">
    <path clip-path="url(#p1c112b3275)" d="M 80.754545 182.189319 
L 81.646734 182.501224 
L 82.538922 181.911686 
L 83.43111 180.682094 
L 84.323298 181.448188 
L 85.215487 181.343068 
L 86.107675 180.988822 
L 86.999863 181.038468 
L 87.892051 180.670937 
L 88.784239 181.669099 
L 89.676428 182.214623 
L 90.568616 181.947282 
L 91.460804 181.485873 
L 93.24518 181.152316 
L 94.137369 180.623537 
L 95.029557 180.859938 
L 95.921745 180.946373 
L 96.813933 181.429977 
L 97.706122 180.415138 
L 98.59831 180.238531 
L 99.490498 179.62254 
L 100.382686 179.803532 
L 101.274874 179.742924 
L 102.167063 179.481794 
L 103.059251 179.708663 
L 103.951439 180.528308 
L 104.843627 180.824317 
L 105.735815 180.378006 
L 106.628004 180.328368 
L 107.520192 179.958077 
L 108.41238 179.151702 
L 109.304568 178.189672 
L 111.088945 177.518288 
L 111.981133 175.54987 
L 112.873321 175.224823 
L 113.765509 173.920204 
L 117.334262 171.984897 
L 118.22645 170.281503 
L 120.010827 169.056056 
L 120.903015 169.231424 
L 123.57958 167.88061 
L 124.471768 166.355176 
L 126.256144 166.014926 
L 127.148333 165.386169 
L 128.040521 165.33642 
L 128.932709 164.55357 
L 129.824897 164.311135 
L 131.609274 162.157619 
L 132.501462 161.655469 
L 133.39365 161.600504 
L 134.285838 161.862174 
L 135.178026 161.621884 
L 136.070215 161.78049 
L 136.962403 160.723007 
L 137.854591 160.309402 
L 138.746779 160.219596 
L 139.638968 159.99935 
L 140.531156 159.385486 
L 141.423344 158.264278 
L 142.315532 158.912429 
L 143.20772 157.854575 
L 144.099909 156.388057 
L 145.884285 154.930799 
L 146.776473 154.562242 
L 147.668661 154.475031 
L 148.56085 153.581981 
L 149.453038 151.945364 
L 150.345226 150.627815 
L 152.129603 149.551173 
L 153.021791 149.517999 
L 153.913979 149.698728 
L 154.806167 149.669868 
L 155.698355 148.663829 
L 156.590544 148.552259 
L 157.482732 148.28336 
L 158.37492 148.176341 
L 159.267108 147.763083 
L 160.159296 146.719315 
L 161.051485 145.150196 
L 162.835861 143.016174 
L 163.728049 142.932671 
L 164.620238 142.401128 
L 165.512426 142.102625 
L 166.404614 141.393307 
L 167.296802 140.414051 
L 168.18899 139.979768 
L 169.081179 138.916638 
L 169.973367 138.623852 
L 170.865555 138.53724 
L 172.649931 137.579335 
L 173.54212 138.02729 
L 174.434308 137.498651 
L 175.326496 136.333598 
L 176.218684 135.75237 
L 177.110873 134.882015 
L 178.003061 133.853322 
L 178.895249 133.444389 
L 179.787437 133.607444 
L 181.571814 132.72954 
L 183.35619 131.824777 
L 184.248378 131.09735 
L 185.140566 131.218811 
L 186.924943 129.709049 
L 187.817131 128.54729 
L 188.709319 127.991544 
L 189.601508 127.853427 
L 190.493696 127.22111 
L 191.385884 127.090188 
L 192.278072 126.772668 
L 193.17026 126.27598 
L 194.062449 126.044469 
L 195.846825 124.601147 
L 196.739013 124.497096 
L 197.631201 124.093147 
L 198.52339 123.298502 
L 199.415578 123.232942 
L 200.307766 122.770346 
L 201.199954 121.695143 
L 202.092143 121.873095 
L 202.984331 121.450805 
L 203.876519 121.470817 
L 204.768707 120.912594 
L 205.660895 120.055016 
L 207.445272 118.876799 
L 208.33746 118.975166 
L 210.121836 117.438669 
L 211.014025 117.064014 
L 211.906213 116.544249 
L 213.690589 115.183005 
L 214.582778 114.635786 
L 218.15153 113.071823 
L 219.043719 112.020647 
L 220.828095 110.523263 
L 221.720283 109.951274 
L 222.612471 110.049233 
L 223.50466 109.842935 
L 224.396848 109.808965 
L 225.289036 109.435916 
L 226.181224 108.718453 
L 227.073413 108.441348 
L 227.965601 107.999472 
L 228.857789 107.928654 
L 229.749977 107.418309 
L 230.642165 106.504972 
L 231.534354 105.875093 
L 233.31873 105.036128 
L 234.210918 104.129269 
L 235.103106 103.612676 
L 235.995295 103.418204 
L 236.887483 103.041428 
L 237.779671 103.01405 
L 238.671859 102.647105 
L 239.564048 102.523013 
L 240.456236 101.821751 
L 241.348424 100.60215 
L 242.240612 99.58248 
L 243.1328 99.425008 
L 244.024989 98.825016 
L 244.917177 98.010202 
L 245.809365 97.526111 
L 246.701553 97.663014 
L 247.593741 97.607571 
L 249.378118 95.817802 
L 250.270306 96.001793 
L 251.162494 95.662502 
L 252.054683 95.118653 
L 252.946871 94.863887 
L 253.839059 95.059926 
L 254.731247 94.630959 
L 255.623435 93.953158 
L 257.407812 92.926849 
L 258.3 92.909315 
L 259.192188 92.715752 
L 260.084376 92.282885 
L 260.976565 91.409177 
L 261.868753 91.278601 
L 262.760941 91.323734 
L 263.653129 90.472271 
L 264.545317 90.340057 
L 265.437506 89.533004 
L 266.329694 89.251994 
L 267.221882 88.617645 
L 268.11407 88.341219 
L 269.006259 88.195207 
L 269.898447 87.233919 
L 270.790635 86.641867 
L 271.682823 86.494206 
L 273.4672 84.706134 
L 274.359388 84.059587 
L 275.251576 84.227614 
L 276.143764 84.075598 
L 277.035952 83.340891 
L 278.820329 82.30276 
L 279.712517 82.223156 
L 280.604705 81.721317 
L 281.496894 81.080669 
L 282.389082 81.163366 
L 283.28127 80.688661 
L 284.173458 80.946561 
L 285.065646 80.29037 
L 285.957835 79.954616 
L 286.850023 80.067243 
L 288.634399 79.713258 
L 289.526587 79.69384 
L 290.418776 79.383377 
L 291.310964 78.873251 
L 292.203152 79.033415 
L 293.09534 78.73893 
L 294.879717 77.828664 
L 295.771905 77.09478 
L 296.664093 76.815707 
L 297.556281 76.163571 
L 298.44847 75.226679 
L 299.340658 75.029914 
L 300.232846 74.983549 
L 301.125034 74.31224 
L 302.017222 73.781942 
L 303.801599 73.819862 
L 304.693787 73.030547 
L 305.585975 72.837476 
L 306.478164 72.396559 
L 308.26254 72.798778 
L 309.154728 72.434873 
L 310.046916 72.518223 
L 311.831293 71.358527 
L 312.723481 71.275929 
L 314.507857 70.524887 
L 316.292234 69.166737 
L 318.07661 68.20483 
L 318.968799 68.263879 
L 320.753175 67.108709 
L 322.537551 66.427021 
L 324.321928 66.317057 
L 325.214116 66.710131 
L 326.106304 66.49241 
L 326.998492 65.924475 
L 327.890681 65.696559 
L 328.782869 65.351754 
L 329.675057 64.866825 
L 331.459434 64.754096 
L 332.351622 64.929869 
L 333.24381 64.553736 
L 335.920375 64.033398 
L 339.489127 62.586621 
L 340.381316 62.66544 
L 341.273504 61.972369 
L 342.165692 61.654526 
L 343.05788 61.751217 
L 343.950069 61.50265 
L 344.842257 60.873203 
L 345.734445 60.446813 
L 346.626633 59.850709 
L 348.41101 59.39859 
L 349.303198 59.05437 
L 350.195386 59.234284 
L 351.087574 58.843422 
L 351.979762 58.611985 
L 352.871951 58.553336 
L 353.764139 57.888287 
L 354.656327 57.771533 
L 355.548515 57.4546 
L 357.332892 57.419268 
L 358.22508 56.693251 
L 359.117268 56.279902 
L 360.009456 56.322809 
L 361.793833 55.541595 
L 362.686021 55.360418 
L 363.578209 54.937606 
L 364.470397 54.85433 
L 365.362586 54.907172 
L 366.254774 54.809807 
L 367.146962 54.42213 
L 368.03915 54.810855 
L 368.931339 54.968064 
L 369.823527 54.899406 
L 370.715715 54.469169 
L 371.607903 54.554566 
L 372.500091 54.345789 
L 373.39228 54.338194 
L 374.284468 54.01315 
L 375.176656 53.445913 
L 376.068844 53.293116 
L 376.961032 52.694995 
L 377.853221 52.455805 
L 381.421974 50.901881 
L 382.314162 50.39566 
L 383.20635 50.043776 
L 385.882915 48.57707 
L 386.775103 48.623974 
L 387.667291 48.348698 
L 388.559479 48.467627 
L 389.451667 48.180249 
L 390.343856 47.725651 
L 391.236044 47.51682 
L 392.128232 47.515241 
L 393.912608 46.880088 
L 394.804797 46.274507 
L 398.37355 45.278912 
L 399.265738 44.762521 
L 400.157926 44.734772 
L 402.834491 43.893041 
L 403.726679 43.416407 
L 404.618867 43.211478 
L 405.511055 43.195693 
L 406.403243 42.768908 
L 407.295432 42.538096 
L 408.18762 42.080862 
L 409.079808 41.881336 
L 410.864185 41.114523 
L 412.648561 40.862979 
L 415.325126 40.814041 
L 416.217314 40.679161 
L 417.109502 40.115202 
L 418.00169 39.853053 
L 418.893878 39.119811 
L 421.570443 38.06372 
L 423.35482 37.735017 
L 424.247008 37.223957 
L 425.139196 37.20831 
L 426.031384 36.737596 
L 426.923572 36.440525 
L 429.600137 34.89384 
L 431.384513 34.498357 
L 432.276702 34.061455 
L 433.16889 33.902405 
L 434.061078 34.205568 
L 435.845455 33.48 
L 435.845455 33.48 
" style="fill:none;stroke:#d62728;stroke-linecap:square;stroke-width:1.5;"/>
   </g>
   <g id="line2d_21"/>
   <g id="line2d_22"/>
   <g id="line2d_23"/>
   <g id="line2d_24"/>
   <g id="patch_3">
    <path d="M 63 192.24 
L 63 25.92 
" style="fill:none;stroke:#000000;stroke-linecap:square;stroke-linejoin:miter;stroke-width:0.8;"/>
   </g>
   <g id="patch_4">
    <path d="M 63 192.24 
L 453.6 192.24 
" style="fill:none;stroke:#000000;stroke-linecap:square;stroke-linejoin:miter;stroke-width:0.8;"/>
   </g>
   <g id="text_19">
    <!-- modeltype=full -->
    <g transform="translate(211.935938 19.92)scale(0.12 -0.12)">
     <defs>
      <path d="M 45.40625 46.390625 
L 45.40625 75.984375 
L 54.390625 75.984375 
L 54.390625 0 
L 45.40625 0 
L 45.40625 8.203125 
Q 42.578125 3.328125 38.25 0.953125 
Q 33.9375 -1.421875 27.875 -1.421875 
Q 17.96875 -1.421875 11.734375 6.484375 
Q 5.515625 14.40625 5.515625 27.296875 
Q 5.515625 40.1875 11.734375 48.09375 
Q 17.96875 56 27.875 56 
Q 33.9375 56 38.25 53.625 
Q 42.578125 51.265625 45.40625 46.390625 
z
M 14.796875 27.296875 
Q 14.796875 17.390625 18.875 11.75 
Q 22.953125 6.109375 30.078125 6.109375 
Q 37.203125 6.109375 41.296875 11.75 
Q 45.40625 17.390625 45.40625 27.296875 
Q 45.40625 37.203125 41.296875 42.84375 
Q 37.203125 48.484375 30.078125 48.484375 
Q 22.953125 48.484375 18.875 42.84375 
Q 14.796875 37.203125 14.796875 27.296875 
z
" id="DejaVuSans-100"/>
      <path d="M 9.421875 75.984375 
L 18.40625 75.984375 
L 18.40625 0 
L 9.421875 0 
z
" id="DejaVuSans-108"/>
      <path d="M 32.171875 -5.078125 
Q 28.375 -14.84375 24.75 -17.8125 
Q 21.140625 -20.796875 15.09375 -20.796875 
L 7.90625 -20.796875 
L 7.90625 -13.28125 
L 13.1875 -13.28125 
Q 16.890625 -13.28125 18.9375 -11.515625 
Q 21 -9.765625 23.484375 -3.21875 
L 25.09375 0.875 
L 2.984375 54.6875 
L 12.5 54.6875 
L 29.59375 11.921875 
L 46.6875 54.6875 
L 56.203125 54.6875 
z
" id="DejaVuSans-121"/>
      <path d="M 18.109375 8.203125 
L 18.109375 -20.796875 
L 9.078125 -20.796875 
L 9.078125 54.6875 
L 18.109375 54.6875 
L 18.109375 46.390625 
Q 20.953125 51.265625 25.265625 53.625 
Q 29.59375 56 35.59375 56 
Q 45.5625 56 51.78125 48.09375 
Q 58.015625 40.1875 58.015625 27.296875 
Q 58.015625 14.40625 51.78125 6.484375 
Q 45.5625 -1.421875 35.59375 -1.421875 
Q 29.59375 -1.421875 25.265625 0.953125 
Q 20.953125 3.328125 18.109375 8.203125 
z
M 48.6875 27.296875 
Q 48.6875 37.203125 44.609375 42.84375 
Q 40.53125 48.484375 33.40625 48.484375 
Q 26.265625 48.484375 22.1875 42.84375 
Q 18.109375 37.203125 18.109375 27.296875 
Q 18.109375 17.390625 22.1875 11.75 
Q 26.265625 6.109375 33.40625 6.109375 
Q 40.53125 6.109375 44.609375 11.75 
Q 48.6875 17.390625 48.6875 27.296875 
z
" id="DejaVuSans-112"/>
      <path d="M 10.59375 45.40625 
L 73.1875 45.40625 
L 73.1875 37.203125 
L 10.59375 37.203125 
z
M 10.59375 25.484375 
L 73.1875 25.484375 
L 73.1875 17.1875 
L 10.59375 17.1875 
z
" id="DejaVuSans-61"/>
      <path d="M 8.5 21.578125 
L 8.5 54.6875 
L 17.484375 54.6875 
L 17.484375 21.921875 
Q 17.484375 14.15625 20.5 10.265625 
Q 23.53125 6.390625 29.59375 6.390625 
Q 36.859375 6.390625 41.078125 11.03125 
Q 45.3125 15.671875 45.3125 23.6875 
L 45.3125 54.6875 
L 54.296875 54.6875 
L 54.296875 0 
L 45.3125 0 
L 45.3125 8.40625 
Q 42.046875 3.421875 37.71875 1 
Q 33.40625 -1.421875 27.6875 -1.421875 
Q 18.265625 -1.421875 13.375 4.4375 
Q 8.5 10.296875 8.5 21.578125 
z
M 31.109375 56 
z
" id="DejaVuSans-117"/>
     </defs>
     <use xlink:href="#DejaVuSans-109"/>
     <use x="97.412109" xlink:href="#DejaVuSans-111"/>
     <use x="158.59375" xlink:href="#DejaVuSans-100"/>
     <use x="222.070312" xlink:href="#DejaVuSans-101"/>
     <use x="283.59375" xlink:href="#DejaVuSans-108"/>
     <use x="311.376953" xlink:href="#DejaVuSans-116"/>
     <use x="350.585938" xlink:href="#DejaVuSans-121"/>
     <use x="409.765625" xlink:href="#DejaVuSans-112"/>
     <use x="473.242188" xlink:href="#DejaVuSans-101"/>
     <use x="534.765625" xlink:href="#DejaVuSans-61"/>
     <use x="618.554688" xlink:href="#DejaVuSans-102"/>
     <use x="653.759766" xlink:href="#DejaVuSans-117"/>
     <use x="717.138672" xlink:href="#DejaVuSans-108"/>
     <use x="744.921875" xlink:href="#DejaVuSans-108"/>
    </g>
   </g>
   <g id="legend_1">
    <g id="patch_5">
     <path d="M 70 107.58875 
L 235.407813 107.58875 
Q 237.407813 107.58875 237.407813 105.58875 
L 237.407813 32.92 
Q 237.407813 30.92 235.407813 30.92 
L 70 30.92 
Q 68 30.92 68 32.92 
L 68 105.58875 
Q 68 107.58875 70 107.58875 
z
" style="fill:#ffffff;opacity:0.8;stroke:#cccccc;stroke-linejoin:miter;"/>
    </g>
    <g id="text_20">
     <!-- scenario -->
     <g transform="translate(131.536719 42.518438)scale(0.1 -0.1)">
      <defs>
       <path d="M 44.28125 53.078125 
L 44.28125 44.578125 
Q 40.484375 46.53125 36.375 47.5 
Q 32.28125 48.484375 27.875 48.484375 
Q 21.1875 48.484375 17.84375 46.4375 
Q 14.5 44.390625 14.5 40.28125 
Q 14.5 37.15625 16.890625 35.375 
Q 19.28125 33.59375 26.515625 31.984375 
L 29.59375 31.296875 
Q 39.15625 29.25 43.1875 25.515625 
Q 47.21875 21.78125 47.21875 15.09375 
Q 47.21875 7.46875 41.1875 3.015625 
Q 35.15625 -1.421875 24.609375 -1.421875 
Q 20.21875 -1.421875 15.453125 -0.5625 
Q 10.6875 0.296875 5.421875 2 
L 5.421875 11.28125 
Q 10.40625 8.6875 15.234375 7.390625 
Q 20.0625 6.109375 24.8125 6.109375 
Q 31.15625 6.109375 34.5625 8.28125 
Q 37.984375 10.453125 37.984375 14.40625 
Q 37.984375 18.0625 35.515625 20.015625 
Q 33.0625 21.96875 24.703125 23.78125 
L 21.578125 24.515625 
Q 13.234375 26.265625 9.515625 29.90625 
Q 5.8125 33.546875 5.8125 39.890625 
Q 5.8125 47.609375 11.28125 51.796875 
Q 16.75 56 26.8125 56 
Q 31.78125 56 36.171875 55.265625 
Q 40.578125 54.546875 44.28125 53.078125 
z
" id="DejaVuSans-115"/>
       <path d="M 54.890625 33.015625 
L 54.890625 0 
L 45.90625 0 
L 45.90625 32.71875 
Q 45.90625 40.484375 42.875 44.328125 
Q 39.84375 48.1875 33.796875 48.1875 
Q 26.515625 48.1875 22.3125 43.546875 
Q 18.109375 38.921875 18.109375 30.90625 
L 18.109375 0 
L 9.078125 0 
L 9.078125 54.6875 
L 18.109375 54.6875 
L 18.109375 46.1875 
Q 21.34375 51.125 25.703125 53.5625 
Q 30.078125 56 35.796875 56 
Q 45.21875 56 50.046875 50.171875 
Q 54.890625 44.34375 54.890625 33.015625 
z
" id="DejaVuSans-110"/>
       <path d="M 34.28125 27.484375 
Q 23.390625 27.484375 19.1875 25 
Q 14.984375 22.515625 14.984375 16.5 
Q 14.984375 11.71875 18.140625 8.90625 
Q 21.296875 6.109375 26.703125 6.109375 
Q 34.1875 6.109375 38.703125 11.40625 
Q 43.21875 16.703125 43.21875 25.484375 
L 43.21875 27.484375 
z
M 52.203125 31.203125 
L 52.203125 0 
L 43.21875 0 
L 43.21875 8.296875 
Q 40.140625 3.328125 35.546875 0.953125 
Q 30.953125 -1.421875 24.3125 -1.421875 
Q 15.921875 -1.421875 10.953125 3.296875 
Q 6 8.015625 6 15.921875 
Q 6 25.140625 12.171875 29.828125 
Q 18.359375 34.515625 30.609375 34.515625 
L 43.21875 34.515625 
L 43.21875 35.40625 
Q 43.21875 41.609375 39.140625 45 
Q 35.0625 48.390625 27.6875 48.390625 
Q 23 48.390625 18.546875 47.265625 
Q 14.109375 46.140625 10.015625 43.890625 
L 10.015625 52.203125 
Q 14.9375 54.109375 19.578125 55.046875 
Q 24.21875 56 28.609375 56 
Q 40.484375 56 46.34375 49.84375 
Q 52.203125 43.703125 52.203125 31.203125 
z
" id="DejaVuSans-97"/>
       <path d="M 41.109375 46.296875 
Q 39.59375 47.171875 37.8125 47.578125 
Q 36.03125 48 33.890625 48 
Q 26.265625 48 22.1875 43.046875 
Q 18.109375 38.09375 18.109375 28.8125 
L 18.109375 0 
L 9.078125 0 
L 9.078125 54.6875 
L 18.109375 54.6875 
L 18.109375 46.1875 
Q 20.953125 51.171875 25.484375 53.578125 
Q 30.03125 56 36.53125 56 
Q 37.453125 56 38.578125 55.875 
Q 39.703125 55.765625 41.0625 55.515625 
z
" id="DejaVuSans-114"/>
      </defs>
      <use xlink:href="#DejaVuSans-115"/>
      <use x="52.099609" xlink:href="#DejaVuSans-99"/>
      <use x="107.080078" xlink:href="#DejaVuSans-101"/>
      <use x="168.603516" xlink:href="#DejaVuSans-110"/>
      <use x="231.982422" xlink:href="#DejaVuSans-97"/>
      <use x="293.261719" xlink:href="#DejaVuSans-114"/>
      <use x="334.375" xlink:href="#DejaVuSans-105"/>
      <use x="362.158203" xlink:href="#DejaVuSans-111"/>
     </g>
    </g>
    <g id="line2d_25">
     <path d="M 72 53.696562 
L 92 53.696562 
" style="fill:none;stroke:#1f77b4;stroke-linecap:square;stroke-width:1.5;"/>
    </g>
    <g id="line2d_26"/>
    <g id="text_21">
     <!-- onlylow -->
     <g transform="translate(100 57.196562)scale(0.1 -0.1)">
      <defs>
       <path d="M 4.203125 54.6875 
L 13.1875 54.6875 
L 24.421875 12.015625 
L 35.59375 54.6875 
L 46.1875 54.6875 
L 57.421875 12.015625 
L 68.609375 54.6875 
L 77.59375 54.6875 
L 63.28125 0 
L 52.6875 0 
L 40.921875 44.828125 
L 29.109375 0 
L 18.5 0 
z
" id="DejaVuSans-119"/>
      </defs>
      <use xlink:href="#DejaVuSans-111"/>
      <use x="61.181641" xlink:href="#DejaVuSans-110"/>
      <use x="124.560547" xlink:href="#DejaVuSans-108"/>
      <use x="152.34375" xlink:href="#DejaVuSans-121"/>
      <use x="211.523438" xlink:href="#DejaVuSans-108"/>
      <use x="239.306641" xlink:href="#DejaVuSans-111"/>
      <use x="300.488281" xlink:href="#DejaVuSans-119"/>
     </g>
    </g>
    <g id="line2d_27">
     <path d="M 72 68.374687 
L 92 68.374687 
" style="fill:none;stroke:#ff7f0e;stroke-linecap:square;stroke-width:1.5;"/>
    </g>
    <g id="line2d_28"/>
    <g id="text_22">
     <!-- onlyhigh -->
     <g transform="translate(100 71.874687)scale(0.1 -0.1)">
      <defs>
       <path d="M 54.890625 33.015625 
L 54.890625 0 
L 45.90625 0 
L 45.90625 32.71875 
Q 45.90625 40.484375 42.875 44.328125 
Q 39.84375 48.1875 33.796875 48.1875 
Q 26.515625 48.1875 22.3125 43.546875 
Q 18.109375 38.921875 18.109375 30.90625 
L 18.109375 0 
L 9.078125 0 
L 9.078125 75.984375 
L 18.109375 75.984375 
L 18.109375 46.1875 
Q 21.34375 51.125 25.703125 53.5625 
Q 30.078125 56 35.796875 56 
Q 45.21875 56 50.046875 50.171875 
Q 54.890625 44.34375 54.890625 33.015625 
z
" id="DejaVuSans-104"/>
       <path d="M 45.40625 27.984375 
Q 45.40625 37.75 41.375 43.109375 
Q 37.359375 48.484375 30.078125 48.484375 
Q 22.859375 48.484375 18.828125 43.109375 
Q 14.796875 37.75 14.796875 27.984375 
Q 14.796875 18.265625 18.828125 12.890625 
Q 22.859375 7.515625 30.078125 7.515625 
Q 37.359375 7.515625 41.375 12.890625 
Q 45.40625 18.265625 45.40625 27.984375 
z
M 54.390625 6.78125 
Q 54.390625 -7.171875 48.1875 -13.984375 
Q 42 -20.796875 29.203125 -20.796875 
Q 24.46875 -20.796875 20.265625 -20.09375 
Q 16.0625 -19.390625 12.109375 -17.921875 
L 12.109375 -9.1875 
Q 16.0625 -11.328125 19.921875 -12.34375 
Q 23.78125 -13.375 27.78125 -13.375 
Q 36.625 -13.375 41.015625 -8.765625 
Q 45.40625 -4.15625 45.40625 5.171875 
L 45.40625 9.625 
Q 42.625 4.78125 38.28125 2.390625 
Q 33.9375 0 27.875 0 
Q 17.828125 0 11.671875 7.65625 
Q 5.515625 15.328125 5.515625 27.984375 
Q 5.515625 40.671875 11.671875 48.328125 
Q 17.828125 56 27.875 56 
Q 33.9375 56 38.28125 53.609375 
Q 42.625 51.21875 45.40625 46.390625 
L 45.40625 54.6875 
L 54.390625 54.6875 
z
" id="DejaVuSans-103"/>
      </defs>
      <use xlink:href="#DejaVuSans-111"/>
      <use x="61.181641" xlink:href="#DejaVuSans-110"/>
      <use x="124.560547" xlink:href="#DejaVuSans-108"/>
      <use x="152.34375" xlink:href="#DejaVuSans-121"/>
      <use x="211.523438" xlink:href="#DejaVuSans-104"/>
      <use x="274.902344" xlink:href="#DejaVuSans-105"/>
      <use x="302.685547" xlink:href="#DejaVuSans-103"/>
      <use x="366.162109" xlink:href="#DejaVuSans-104"/>
     </g>
    </g>
    <g id="line2d_29">
     <path d="M 72 83.052813 
L 92 83.052813 
" style="fill:none;stroke:#2ca02c;stroke-linecap:square;stroke-width:1.5;"/>
    </g>
    <g id="line2d_30"/>
    <g id="text_23">
     <!-- balanced -->
     <g transform="translate(100 86.552813)scale(0.1 -0.1)">
      <defs>
       <path d="M 48.6875 27.296875 
Q 48.6875 37.203125 44.609375 42.84375 
Q 40.53125 48.484375 33.40625 48.484375 
Q 26.265625 48.484375 22.1875 42.84375 
Q 18.109375 37.203125 18.109375 27.296875 
Q 18.109375 17.390625 22.1875 11.75 
Q 26.265625 6.109375 33.40625 6.109375 
Q 40.53125 6.109375 44.609375 11.75 
Q 48.6875 17.390625 48.6875 27.296875 
z
M 18.109375 46.390625 
Q 20.953125 51.265625 25.265625 53.625 
Q 29.59375 56 35.59375 56 
Q 45.5625 56 51.78125 48.09375 
Q 58.015625 40.1875 58.015625 27.296875 
Q 58.015625 14.40625 51.78125 6.484375 
Q 45.5625 -1.421875 35.59375 -1.421875 
Q 29.59375 -1.421875 25.265625 0.953125 
Q 20.953125 3.328125 18.109375 8.203125 
L 18.109375 0 
L 9.078125 0 
L 9.078125 75.984375 
L 18.109375 75.984375 
z
" id="DejaVuSans-98"/>
      </defs>
      <use xlink:href="#DejaVuSans-98"/>
      <use x="63.476562" xlink:href="#DejaVuSans-97"/>
      <use x="124.755859" xlink:href="#DejaVuSans-108"/>
      <use x="152.539062" xlink:href="#DejaVuSans-97"/>
      <use x="213.818359" xlink:href="#DejaVuSans-110"/>
      <use x="277.197266" xlink:href="#DejaVuSans-99"/>
      <use x="332.177734" xlink:href="#DejaVuSans-101"/>
      <use x="393.701172" xlink:href="#DejaVuSans-100"/>
     </g>
    </g>
    <g id="line2d_31">
     <path d="M 72 97.730938 
L 92 97.730938 
" style="fill:none;stroke:#d62728;stroke-linecap:square;stroke-width:1.5;"/>
    </g>
    <g id="line2d_32"/>
    <g id="text_24">
     <!-- balanced_errors_penalized -->
     <g transform="translate(100 101.230938)scale(0.1 -0.1)">
      <defs>
       <path d="M 50.984375 -16.609375 
L 50.984375 -23.578125 
L -0.984375 -23.578125 
L -0.984375 -16.609375 
z
" id="DejaVuSans-95"/>
       <path d="M 5.515625 54.6875 
L 48.1875 54.6875 
L 48.1875 46.484375 
L 14.40625 7.171875 
L 48.1875 7.171875 
L 48.1875 0 
L 4.296875 0 
L 4.296875 8.203125 
L 38.09375 47.515625 
L 5.515625 47.515625 
z
" id="DejaVuSans-122"/>
      </defs>
      <use xlink:href="#DejaVuSans-98"/>
      <use x="63.476562" xlink:href="#DejaVuSans-97"/>
      <use x="124.755859" xlink:href="#DejaVuSans-108"/>
      <use x="152.539062" xlink:href="#DejaVuSans-97"/>
      <use x="213.818359" xlink:href="#DejaVuSans-110"/>
      <use x="277.197266" xlink:href="#DejaVuSans-99"/>
      <use x="332.177734" xlink:href="#DejaVuSans-101"/>
      <use x="393.701172" xlink:href="#DejaVuSans-100"/>
      <use x="457.177734" xlink:href="#DejaVuSans-95"/>
      <use x="507.177734" xlink:href="#DejaVuSans-101"/>
      <use x="568.701172" xlink:href="#DejaVuSans-114"/>
      <use x="608.064453" xlink:href="#DejaVuSans-114"/>
      <use x="646.927734" xlink:href="#DejaVuSans-111"/>
      <use x="708.109375" xlink:href="#DejaVuSans-114"/>
      <use x="749.222656" xlink:href="#DejaVuSans-115"/>
      <use x="801.322266" xlink:href="#DejaVuSans-95"/>
      <use x="851.322266" xlink:href="#DejaVuSans-112"/>
      <use x="914.798828" xlink:href="#DejaVuSans-101"/>
      <use x="976.322266" xlink:href="#DejaVuSans-110"/>
      <use x="1039.701172" xlink:href="#DejaVuSans-97"/>
      <use x="1100.980469" xlink:href="#DejaVuSans-108"/>
      <use x="1128.763672" xlink:href="#DejaVuSans-105"/>
      <use x="1156.546875" xlink:href="#DejaVuSans-122"/>
      <use x="1209.037109" xlink:href="#DejaVuSans-101"/>
      <use x="1270.560547" xlink:href="#DejaVuSans-100"/>
     </g>
    </g>
   </g>
  </g>
 </g>
 <defs>
  <clipPath id="p1c112b3275">
   <rect height="166.32" width="390.6" x="63" y="25.92"/>
  </clipPath>
 </defs>
</svg>
